<svg width="54" height="54" viewBox="0 0 54 54" xmlns="http://www.w3.org/2000/svg"><defs><linearGradient x1="50%" y1="0%" x2="50%" y2="68.075%" id="a"><stop stop-color="#E7E4F7" offset="0%"/><stop stop-color="#CAC4EC" offset="100%"/></linearGradient><linearGradient x1="50%" y1="0%" x2="50%" y2="68.075%" id="b"><stop stop-color="#E7E4F7" offset="0%"/><stop stop-color="#CAC4EC" offset="100%"/></linearGradient><linearGradient x1="50%" y1="0%" x2="50%" y2="68.075%" id="c"><stop stop-color="#E7E4F7" offset="0%"/><stop stop-color="#CAC4EC" offset="100%"/></linearGradient><linearGradient x1="50%" y1="0%" x2="50%" y2="68.075%" id="d"><stop stop-color="#E7E4F7" offset="0%"/><stop stop-color="#CAC4EC" offset="100%"/></linearGradient></defs><g fill="none" fill-rule="evenodd"><path fill="#FFF" fill-rule="nonzero" d="M25.148 6.506L.455 18.123v18.662l1.855 2.944 22.838 10.8h2.111l24.22-11.854 1.696-2.67v-16.22l-.683-1.662L27 6.506z"/><path fill="#F6F4FE" d="M27 31.745l25.492-11.96v18.936L27 50.72z"/><path d="M52.158 19.906L26.804 31.19a1.01 1.01 0 0 1-.833-.006L1.46 19.892a1.01 1.01 0 0 1-.005-1.832L24.858 7.131a3.67 3.67 0 0 1 3.065-.02l24.24 10.953a1.01 1.01 0 0 1-.005 1.842zM26.488 31.795v18.734" stroke="#E7E6F1" stroke-width="1.112" fill-rule="nonzero"/><path d="M52.752 19.13l.18 16.43a4.038 4.038 0 0 1-2.279 3.68L28.111 50.142a4.038 4.038 0 0 1-3.47.022L3.267 40.157A4.038 4.038 0 0 1 .941 36.5V19.358" stroke="#E7E6F1" stroke-width="1.112" fill-rule="nonzero"/><g><path d="M16.083 0v4.386l-2.227 2.202C9.55 7.51 7.059 8.083 6.382 8.302c-.954.31-1.555 1.762-1.8 4.356L3.45 3.703l6.317-2.25L16.083 0z" fill="url(#a)" transform="translate(6 3)"/><path d="M38.098 0v4.386l-2.227 2.202c-4.306.923-6.797 1.495-7.474 1.714-.954.31-1.555 1.762-1.8 4.356l-1.132-8.955 6.317-2.25L38.098 0z" fill="url(#a)" transform="matrix(-1 0 0 1 69.565 3)"/><path fill="url(#b)" d="M13.856 14.58H27.73V7.992H13.856z" transform="translate(6 3)"/><path d="M0 13.964v3.816c0 1.431 1.597 4.69 5.682 4.791 2.723.069 6.19.103 10.401.103v-4.385l-9.1-.885L0 13.964z" fill="url(#c)" transform="translate(6 3)"/><path d="M25.484 13.639v4.141c0 1.431 1.597 4.69 5.682 4.791 2.723.069 6.19.103 10.401.103v-4.385l-9.1-.885-6.983-3.765z" fill="url(#d)" transform="matrix(-1 0 0 1 73.052 3)"/><path fill="#5441C9" d="M19.856 13.195H33.73v-2.202H19.856z"/><path d="M22.084 3l-2.228 2.204-6.702 1.445c-1.231.27-1.992 1.088-1.992 1.962v7.055c0 .884.76 1.691 1.992 1.96l6.702 1.46 2.228 2.203H12.9C9.06 21.29 6 19.086 6 16.397V7.854C6 5.165 9.061 3 12.9 3h9.184zM40.649 3c3.804 0 6.919 2.165 6.919 4.854v8.543c0 2.689-3.08 4.892-6.92 4.892h-9.182l2.228-2.203 6.701-1.46c1.232-.269 2.01-1.076 2.01-1.96V8.611c0-.874-.778-1.693-2.01-1.962l-6.701-1.445L31.466 3h9.183z" fill="#5441C9"/></g></g></svg>
