<svg width="54" height="54" viewBox="0 0 54 54" xmlns="http://www.w3.org/2000/svg"><defs><linearGradient x1="50%" y1="0%" x2="50%" y2="68.075%" id="a"><stop stop-color="#E7E4F7" offset="0%"/><stop stop-color="#CAC4EC" offset="100%"/></linearGradient><linearGradient x1="50%" y1="0%" x2="50%" y2="68.075%" id="b"><stop stop-color="#E7E4F7" offset="0%"/><stop stop-color="#CAC4EC" offset="100%"/></linearGradient><linearGradient x1="50%" y1="0%" x2="50%" y2="68.075%" id="c"><stop stop-color="#E7E4F7" offset="0%"/><stop stop-color="#CAC4EC" offset="100%"/></linearGradient><linearGradient x1="50%" y1="0%" x2="50%" y2="68.075%" id="d"><stop stop-color="#E7E4F7" offset="0%"/><stop stop-color="#CAC4EC" offset="100%"/></linearGradient><linearGradient x1="50%" y1="0%" x2="50%" y2="68.075%" id="e"><stop stop-color="#E7E4F7" offset="0%"/><stop stop-color="#CAC4EC" offset="100%"/></linearGradient><linearGradient x1="50%" y1="0%" x2="50%" y2="68.075%" id="f"><stop stop-color="#E7E4F7" offset="0%"/><stop stop-color="#CAC4EC" offset="100%"/></linearGradient><linearGradient x1="50%" y1="0%" x2="50%" y2="68.075%" id="g"><stop stop-color="#E7E4F7" offset="0%"/><stop stop-color="#CAC4EC" offset="100%"/></linearGradient><linearGradient x1="50%" y1="0%" x2="50%" y2="68.075%" id="h"><stop stop-color="#E7E4F7" offset="0%"/><stop stop-color="#CAC4EC" offset="100%"/></linearGradient></defs><g fill="none" fill-rule="evenodd"><path fill="#FFF" fill-rule="nonzero" d="M25.148 6.506L.455 18.123v18.662l1.855 2.944 22.838 10.8h2.111l24.22-11.854 1.696-2.67v-16.22l-.683-1.662L27 6.506z"/><path fill="#F6F4FE" d="M27 33.745l25.492-11.96v16.936L27 50.72z"/><path d="M52.158 21.906L26.804 33.19a1.01 1.01 0 0 1-.833-.006L1.46 21.892a1.01 1.01 0 0 1-.005-1.832L24.858 9.131a3.67 3.67 0 0 1 3.065-.02l24.24 10.953a1.01 1.01 0 0 1-.005 1.842zM26.488 33.795v16.734" stroke="#E7E6F1" stroke-width="1.112" fill-rule="nonzero"/><path d="M52.752 21.13l.177 14.426a4.038 4.038 0 0 1-2.28 3.685L28.112 50.142a4.038 4.038 0 0 1-3.47.022L3.267 40.157A4.038 4.038 0 0 1 .941 36.5V21.358" stroke="#E7E6F1" stroke-width="1.112" fill-rule="nonzero"/><g><path d="M.015 20.625C.005 23.728 0 25.738 0 26.655c0 1.373 1.575 2.62 2.551 2.62h34.014c1.204 0 2.068-1.245 2.068-2.62 0-.918-.08-2.927-.239-6.03l-2.521 2.316-22.311.642-11.47-.325-2.077-2.633z" fill="url(#a)" transform="translate(8 2)"/><path d="M1.876 8.665l.215-7.39h34.272l.257 8.208c.724-1.551.13-2.327-1.783-2.327H4.432c-1.107 0-1.959.503-2.556 1.509z" fill="url(#b)" transform="translate(8 2)"/><path fill="url(#c)" d="M0 5.204h2.304V0H0z" transform="translate(12.36 6.724)"/><path fill="url(#d)" d="M27.607 5.204h2.297V0h-2.297z" transform="translate(12.36 6.724)"/><path fill="url(#e)" d="M11.047 4.284h2.297V0h-2.297zM5.527 4.284h2.297V0H5.527zM22.087 4.284h2.297V0h-2.297z" transform="translate(12.36 6.724)"/><path fill="url(#f)" d="M16.56 4.284h2.304V0H16.56z" transform="translate(12.36 6.724)"/><path fill="url(#c)" d="M0 9.266h2.304V4.062H0z" transform="translate(12.36 6.724)"/><path fill="url(#d)" d="M27.607 9.266h2.297V4.062h-2.297z" transform="translate(12.36 6.724)"/><path fill="url(#d)" d="M27.607 13.333h2.297V8.128h-2.297z" transform="translate(12.36 6.724)"/><path fill="url(#c)" d="M0 13.333h2.304V8.128H0z" transform="translate(12.36 6.724)"/><path fill="url(#c)" d="M0 17.4h2.304v-5.204H0z" transform="translate(12.36 6.724)"/><path fill="url(#d)" d="M27.607 17.4h2.297v-5.204h-2.297z" transform="translate(12.36 6.724)"/><path fill="url(#g)" d="M0 17.782h2.304v-1.525H0z" transform="translate(12.36 6.724)"/><path fill="url(#h)" d="M27.607 17.782h2.297v-1.525h-2.297zM22.087 17.782h2.297v-1.525h-2.297z" transform="translate(12.36 6.724)"/><path fill="url(#g)" d="M16.56 17.782h2.304v-1.525H16.56z" transform="translate(12.36 6.724)"/><path fill="url(#h)" d="M11.047 17.782h2.297v-1.525h-2.297zM5.527 17.782h2.297v-1.525H5.527z" transform="translate(12.36 6.724)"/><g fill="#5441C9"><path d="M39.968 6.724h2.297v-1.63h-2.297zM23.408 6.724h2.297v-1.63h-2.297zM17.888 6.724h2.297v-1.63h-2.297zM12.36 6.724h2.305v-1.63H12.36zM34.448 6.724h2.297v-1.63h-2.297zM28.92 6.724h2.305v-1.63H28.92zM39.968 10.785h2.297V9.156h-2.297zM12.36 10.785h2.305V9.156H12.36zM12.36 18.92h2.305v-1.63H12.36zM39.968 18.92h2.297v-1.63h-2.297zM39.968 22.982h2.297v-1.624h-2.297zM34.448 22.982h2.297v-1.624h-2.297zM28.92 22.982h2.305v-1.624H28.92zM23.408 22.982h2.297v-1.624h-2.297zM17.888 22.982h2.297v-1.624h-2.297zM12.36 22.982h2.305v-1.624H12.36zM12.36 14.853h2.305v-1.63H12.36zM39.968 14.853h2.297v-1.63h-2.297z"/></g><path d="M43.416 22.982V5.094c0-.433-.366-.74-.927-.803l-.225-.011H12.361c-.613 0-1.04.26-1.129.656l-.016.158v17.888c0 .438.36.74.936.798l.209.016h29.903c.614 0 1.047-.259 1.13-.656l.022-.158m3.202-19.458l.015.2v20.633c0 .878-.935 1.602-2.132 1.703l-.277.01H10.41c-1.234 0-2.259-.666-2.393-1.513l-.016-.2V3.724c0-.878.936-1.613 2.124-1.708L10.41 2h33.815c1.235 0 2.251.672 2.394 1.524" fill="#5441C9"/></g></g></svg>
