<?xml version="1.0" encoding="utf-8"?>
<!-- Generator: Adobe Illustrator 21.1.0, SVG Export Plug-In . SVG Version: 6.00 Build 0)  -->
<svg version="1.1" id="图层_1" xmlns="http://www.w3.org/2000/svg" xmlns:xlink="http://www.w3.org/1999/xlink" x="0px" y="0px"
	 viewBox="0 0 54 54" style="enable-background:new 0 0 54 54;" xml:space="preserve">
<style type="text/css">
	.st0{fill:#FFFFFF;}
	.st1{fill:#F6F4FE;}
	.st2{fill:none;stroke:#E7E6F1;stroke-width:1.1124;}
	.st3{fill:url(#Fill-1_1_);}
	.st4{fill:url(#Fill-4_1_);}
	.st5{fill:url(#Fill-5_1_);}
	.st6{fill:url(#Fill-6_1_);}
	.st7{fill:url(#Fill-7_1_);}
	.st8{fill:url(#Fill-8_1_);}
	.st9{fill:url(#Fill-9_1_);}
	.st10{fill:url(#Fill-13_1_);}
	.st11{fill:url(#Fill-55_1_);}
	.st12{fill:url(#Fill-10_1_);}
	.st13{fill:url(#Fill-14_1_);}
	.st14{fill:url(#Clip-54_1_);}
	.st15{fill:url(#Fill-56_1_);}
	.st16{fill:url(#Clip-58_1_);}
	.st17{fill:url(#Clip-76_1_);}
	.st18{fill:url(#Clip-40_1_);}
	.st19{fill:url(#Clip-30_1_);}
	.st20{fill:#6A549E;stroke:#6A549E;stroke-width:0.7;}
</style>
<title>图形/dcos</title>
<desc>Created with Sketch.</desc>
<polygon id="Path-2" class="st0" points="25.1,6.5 0.5,18.1 0.5,36.8 2.3,39.7 25.1,50.5 27.3,50.5 51.5,38.7 53.2,36 53.2,19.8 
	52.5,18.1 27,6.5 "/>
<polygon id="Path-29" class="st1" points="27,33.7 52.5,21.8 52.5,38.7 27,50.7 "/>
<path id="Path" class="st2" d="M52.2,21.9L26.8,33.2c-0.3,0.1-0.6,0.1-0.8,0L1.5,21.9C1,21.7,0.7,21.1,1,20.6
	c0.1-0.2,0.3-0.4,0.5-0.5L24.9,9.1c1-0.5,2.1-0.5,3.1,0l24.2,11c0.5,0.2,0.7,0.8,0.5,1.3C52.6,21.6,52.4,21.8,52.2,21.9z"/>
<line id="Line-2" class="st2" x1="26.5" y1="33.8" x2="26.5" y2="50.5"/>
<path id="Path_1_" class="st2" d="M52.8,21.1l0.2,14.4c0,1.6-0.9,3-2.3,3.7L28.1,50.1c-1.1,0.5-2.4,0.5-3.5,0l-21.4-10
	c-1.4-0.7-2.3-2.1-2.3-3.7l0-15.1l0,0"/>
<linearGradient id="Fill-1_1_" gradientUnits="userSpaceOnUse" x1="-359.0452" y1="351.2809" x2="-359.0452" y2="350.6001" gradientTransform="matrix(29.868 0 0 -4.8489 10750.416 1709.0454)">
	<stop  offset="0" style="stop-color:#E7E4F7"/>
	<stop  offset="1" style="stop-color:#CAC4EC"/>
</linearGradient>
<polygon id="Fill-1" class="st3" points="11.5,10.6 41.4,10.6 41.4,5.7 11.5,5.7 "/>
<linearGradient id="Fill-4_1_" gradientUnits="userSpaceOnUse" x1="-343.8989" y1="393.918" x2="-343.8989" y2="393.2373" gradientTransform="matrix(13.4777 0 0 -10.9149 4652.686 4306.8462)">
	<stop  offset="0" style="stop-color:#E7E4F7"/>
	<stop  offset="1" style="stop-color:#CAC4EC"/>
</linearGradient>
<polygon id="Fill-4" class="st4" points="24.5,13.4 24.5,18.2 11,12.1 11,7.3 "/>
<linearGradient id="Fill-5_1_" gradientUnits="userSpaceOnUse" x1="-344.7413" y1="394.4917" x2="-344.7413" y2="393.8109" gradientTransform="matrix(13.902 0 0 -11.1017 4827.9917 4386.6333)">
	<stop  offset="0" style="stop-color:#E7E4F7"/>
	<stop  offset="1" style="stop-color:#CAC4EC"/>
</linearGradient>
<polygon id="Fill-5" class="st5" points="42.3,7.1 42.3,11.9 28.4,18.2 28.4,13.4 "/>
<linearGradient id="Fill-6_1_" gradientUnits="userSpaceOnUse" x1="-326.605" y1="402.2173" x2="-326.605" y2="401.5366" gradientTransform="matrix(8.286 0 0 -14.4283 2718.8252 5810.5635)">
	<stop  offset="0" style="stop-color:#E7E4F7"/>
	<stop  offset="1" style="stop-color:#CAC4EC"/>
</linearGradient>
<polygon id="Fill-6" class="st6" points="16.7,16.8 16.7,21.7 8.4,12.1 8.4,7.3 "/>
<linearGradient id="Fill-7_1_" gradientUnits="userSpaceOnUse" x1="-325.6372" y1="401.8601" x2="-325.6372" y2="401.1794" gradientTransform="matrix(8.1111 0 0 -14.2311 2681.7163 5726.4678)">
	<stop  offset="0" style="stop-color:#E7E4F7"/>
	<stop  offset="1" style="stop-color:#CAC4EC"/>
</linearGradient>
<polygon id="Fill-7" class="st7" points="44.5,7.5 44.5,12.4 36.4,21.8 36.4,16.9 "/>
<linearGradient id="Fill-8_1_" gradientUnits="userSpaceOnUse" x1="-316.9157" y1="380.9641" x2="-316.9157" y2="380.2834" gradientTransform="matrix(6.8151 0 0 -7.9089 2182.8726 3027.2454)">
	<stop  offset="0" style="stop-color:#E7E4F7"/>
	<stop  offset="1" style="stop-color:#CAC4EC"/>
</linearGradient>
<polygon id="Fill-8" class="st8" points="26.5,14.3 26.5,19.1 19.6,22.2 19.6,17.3 "/>
<linearGradient id="Fill-9_1_" gradientUnits="userSpaceOnUse" x1="-318.3333" y1="381.4884" x2="-318.3333" y2="380.8076" gradientTransform="matrix(6.9969 0 0 -7.998 2257.2849 3065.3979)">
	<stop  offset="0" style="stop-color:#E7E4F7"/>
	<stop  offset="1" style="stop-color:#CAC4EC"/>
</linearGradient>
<polygon id="Fill-9" class="st9" points="33.5,17.4 33.5,22.3 26.5,19.1 26.5,14.3 "/>
<linearGradient id="Fill-13_1_" gradientUnits="userSpaceOnUse" x1="-319.0148" y1="381.7166" x2="-319.0148" y2="381.0358" gradientTransform="matrix(7.0877 0 0 -8.0374 2299.8848 3086.2361)">
	<stop  offset="0" style="stop-color:#E7E4F7"/>
	<stop  offset="1" style="stop-color:#CAC4EC"/>
</linearGradient>
<polygon id="Fill-13" class="st10" points="42.3,21.4 42.3,26.3 35.3,23.1 35.3,18.2 "/>
<linearGradient id="Fill-55_1_" gradientUnits="userSpaceOnUse" x1="-294.4677" y1="392.3561" x2="-294.4677" y2="391.6754" gradientTransform="matrix(4.8291 0 0 -10.4366 1454.868 4113.0688)">
	<stop  offset="0" style="stop-color:#E7E4F7"/>
	<stop  offset="1" style="stop-color:#CAC4EC"/>
</linearGradient>
<polygon id="Fill-55" class="st11" points="35.3,18.2 35.3,23.1 30.4,28.7 30.4,23.8 "/>
<linearGradient id="Fill-10_1_" gradientUnits="userSpaceOnUse" x1="62.5" y1="368.0478" x2="62.5" y2="367.367" gradientTransform="matrix(0.8571 0 0 -6.2049 -47.0714 2303.2515)">
	<stop  offset="0" style="stop-color:#E7E4F7"/>
	<stop  offset="1" style="stop-color:#CAC4EC"/>
</linearGradient>
<path id="Fill-10" class="st12" d="M6.9,20.8l-0.1,4.9c-0.3-0.3-0.7-0.8-0.7-1.2v-5c0,0.4,0.4,0.9,0.6,1.3"/>
<linearGradient id="Fill-14_1_" gradientUnits="userSpaceOnUse" x1="-320.369" y1="382.2194" x2="-320.369" y2="381.5387" gradientTransform="matrix(7.2754 0 0 -8.1257 2345.0181 3123.9336)">
	<stop  offset="0" style="stop-color:#E7E4F7"/>
	<stop  offset="1" style="stop-color:#CAC4EC"/>
</linearGradient>
<polygon id="Fill-14" class="st13" points="17.8,18.1 17.8,23 10.6,26.3 10.6,21.4 "/>
<linearGradient id="Clip-54_1_" gradientUnits="userSpaceOnUse" x1="-272.2773" y1="361.5587" x2="-272.2773" y2="360.8779" gradientTransform="matrix(3.7491 0 0 -5.5989 1029.4905 2045.2313)">
	<stop  offset="0" style="stop-color:#E7E4F7"/>
	<stop  offset="1" style="stop-color:#CAC4EC"/>
</linearGradient>
<path id="Clip-54" class="st14" d="M6.8,20.9c0.5,0.5,1.3,0.7,2,0.7c0.6,0,1.2,0,1.7-0.2v4.8c-0.5,0.2-1.1,0.3-1.7,0.2
	c-0.8,0-1.6-0.3-2-0.7V20.9z"/>
<linearGradient id="Fill-56_1_" gradientUnits="userSpaceOnUse" x1="-295.6789" y1="392.658" x2="-295.6789" y2="391.9772" gradientTransform="matrix(4.9063 0 0 -10.5257 1470.9719 4151.1338)">
	<stop  offset="0" style="stop-color:#E7E4F7"/>
	<stop  offset="1" style="stop-color:#CAC4EC"/>
</linearGradient>
<polygon id="Fill-56" class="st15" points="22.7,23.8 22.7,28.7 17.8,23 17.8,18.1 "/>
<linearGradient id="Clip-58_1_" gradientUnits="userSpaceOnUse" x1="-191.7155" y1="366.5704" x2="-191.7155" y2="365.8897" gradientTransform="matrix(2.0691 0 0 -6.0557 420.4616 2243.6504)">
	<stop  offset="0" style="stop-color:#E7E4F7"/>
	<stop  offset="1" style="stop-color:#CAC4EC"/>
</linearGradient>
<path id="Clip-58" class="st16" d="M22.7,23.8c0.4,0.4,0.9,0.8,1.5,1c0.2,0.1,0.4,0.1,0.6,0.2v4.8c-0.2-0.1-0.4-0.1-0.6-0.2
	c-0.6-0.3-1.1-0.6-1.5-1V23.8z"/>
<linearGradient id="Clip-76_1_" gradientUnits="userSpaceOnUse" x1="-305.2809" y1="369.2315" x2="-305.2809" y2="368.5507" gradientTransform="matrix(5.6177 0 0 -6.3299 1742.599 2361.0098)">
	<stop  offset="0" style="stop-color:#E7E4F7"/>
	<stop  offset="1" style="stop-color:#CAC4EC"/>
</linearGradient>
<path id="Clip-76" class="st17" d="M30.4,23.8v4.8c-0.4,0.4-0.9,0.8-1.5,1.1c-0.7,0.3-1.4,0.4-2.1,0.4c-0.2,0-0.4,0-0.6,0
	c-0.5,0-1-0.1-1.4-0.3V25c0.4,0.1,0.9,0.2,1.4,0.3c0.2,0,0.4,0,0.6,0c0.7,0,1.4-0.1,2.1-0.4C29.5,24.6,30,24.2,30.4,23.8z"/>
<linearGradient id="Clip-40_1_" gradientUnits="userSpaceOnUse" x1="-157.0729" y1="354.7687" x2="-157.0729" y2="354.0879" gradientTransform="matrix(1.7349 0 0 -5.0798 315.7094 1823.5568)">
	<stop  offset="0" style="stop-color:#E7E4F7"/>
	<stop  offset="1" style="stop-color:#CAC4EC"/>
</linearGradient>
<path id="Clip-40" class="st18" d="M42.3,21.4c0.5,0.2,1.1,0.3,1.7,0.2v4.8c-0.6,0-1.2,0-1.7-0.2V21.4z"/>
<linearGradient id="Clip-30_1_" gradientUnits="userSpaceOnUse" x1="-253.8309" y1="377.76" x2="-253.8309" y2="377.0793" gradientTransform="matrix(3.1614 0 0 -7.4045 848.1216 2816.1763)">
	<stop  offset="0" style="stop-color:#E7E4F7"/>
	<stop  offset="1" style="stop-color:#CAC4EC"/>
</linearGradient>
<path id="Clip-30" class="st19" d="M47.1,19.1l0.1,5.5c0,0.4-0.6,1-1.1,1.3c-0.5,0.3-1.2,0.6-2,0.7v-4.8c0.8-0.1,1.6-0.3,2.1-0.8
	C46.5,20.5,47.1,19.4,47.1,19.1z"/>
<path id="Fill-77" class="st20" d="M44.6,19.5V7.3l-8.1,9.4l7.1,3.2c0.1,0,0.2,0.1,0.3,0.1c0.2,0,0.4-0.1,0.5-0.2l0-0.1
	C44.6,19.7,44.6,19.6,44.6,19.5 M9.6,19.9l7.3-3.3L8.6,7v0l0,0.1v12.3c0,0.1,0,0.2,0.1,0.2l0.1,0.1C8.8,19.9,9,20,9.2,20
	C9.3,20,9.4,20,9.6,19.9 M11.1,7.1l7.5,8.7l5.9-2.7L11.1,7.1 M34.7,15.9l7.8-9l-13.9,6.3L34.7,15.9 M28.7,22.8l4.9-5.6l-7-3.1
	l-6.8,3.1l4.9,5.7c0.4,0.5,1.1,0.7,1.8,0.7c0.1,0,0.1,0.1,0.2,0.1c0.4,0,0.7-0.1,1.1-0.2l0.1-0.1C28.3,23.2,28.5,23,28.7,22.8
	 M41.5,5.5H11.7l14.9,6.7L41.5,5.5 M43.5,4.1c1.9,0.4,3.3,1.6,3.3,3.1v12.3c0,0.4-0.2,0.7-0.4,1.1c-0.5,0.5-1.3,0.8-2.1,0.8
	c-0.6,0-1.2,0-1.7-0.2L35.4,18l-4.8,5.6c-0.4,0.4-0.9,0.8-1.5,1.1c-0.7,0.3-1.4,0.4-2.1,0.4c-0.2,0-0.4,0-0.6,0
	c-0.5,0-1-0.1-1.4-0.3c-0.2-0.1-0.4-0.1-0.6-0.2c-0.6-0.3-1.1-0.6-1.5-1L18,17.9l-7.3,3.3c-0.5,0.2-1.1,0.3-1.7,0.2
	c-0.8,0-1.6-0.3-2-0.7l-0.1-0.1c-0.3-0.3-0.4-0.7-0.4-1.1V7.2c0-1.8,2-3.2,4.5-3.2h31.6C42.8,4,43.2,4,43.5,4.1"/>
</svg>
