<svg width="54" height="54" viewBox="0 0 54 54" xmlns="http://www.w3.org/2000/svg"><defs><linearGradient x1="50%" y1="0%" x2="50%" y2="68.075%" id="a"><stop stop-color="#EFEEF8" offset="0%"/><stop stop-color="#E8E6F2" offset="100%"/></linearGradient><linearGradient x1="50%" y1="0%" x2="50%" y2="68.075%" id="b"><stop stop-color="#EFEEF8" offset="0%"/><stop stop-color="#F1F0F7" offset="100%"/></linearGradient><linearGradient x1="50%" y1="0%" x2="50%" y2="68.075%" id="c"><stop stop-color="#EFEEF8" offset="0%"/><stop stop-color="#E8E6F2" offset="100%"/></linearGradient></defs><g fill="none" fill-rule="evenodd"><path fill="#FFF" fill-rule="nonzero" d="M25.148 6.506L.455 18.123v18.662l1.855 2.944 22.838 10.8h2.111l24.22-11.854 1.696-2.67v-16.22l-.683-1.662L27 6.506z"/><path fill="#F7F6FD" d="M27 33.745l25.492-11.96v16.936L27 50.72z"/><path d="M52.158 21.906L26.804 33.19a1.01 1.01 0 0 1-.833-.006L1.46 21.892a1.01 1.01 0 0 1-.005-1.832L24.858 9.131a3.67 3.67 0 0 1 3.065-.02l24.24 10.953a1.01 1.01 0 0 1-.005 1.842zM26.488 33.795v16.734" stroke="#E7E6F1" stroke-width="1.112" fill-rule="nonzero"/><path d="M52.752 21.13l.177 14.426a4.038 4.038 0 0 1-2.28 3.685L28.112 50.142a4.038 4.038 0 0 1-3.47.022L3.267 40.157A4.038 4.038 0 0 1 .941 36.5V21.358" stroke="#E7E6F1" stroke-width="1.112" fill-rule="nonzero"/><g><path d="M4.074 10.894l5-3.907a4 4 0 0 1 4.818-.081l5.475 3.988 1.419-4.259-6.294-4.269-3.123-1.2-2.506.728-6.387 5.554 1.598 3.446z" fill="url(#a)" transform="translate(14.9 .5)"/><path d="M.11 7.91L.107 13.13a4 4 0 0 0 1.82 3.358l6.609 4.293a5 5 0 0 0 5.32.08l7.177-4.362a4 4 0 0 0 1.922-3.496l-.1-5.179-9.372 6.741H7.296L.11 7.91z" fill="url(#b)" transform="translate(14.9 .5)"/><path d="M33.132 9.744c.905-.64.928-1.673.06-2.334l-.06-.045-5.046-3.568a2.608 2.608 0 0 0-.78-.365c-.106-.032-.22-.03-.33-.048-.183-.034-.363-.075-.554-.077-.622.01-1.192.152-1.637.446l-.065.044-5.048 3.568c-.91.644-.93 1.675-.062 2.334l.062.045 5.048 3.57c.23.165.497.286.78.367.052.014.107.012.155.023.242.057.487.1.738.1.607-.004 1.177-.148 1.629-.444l.064-.045 5.046-3.57zm2.801-4.36c2.483 1.752 2.483 4.59 0 6.344l-5.045 3.57a6.942 6.942 0 0 1-2.099.985 8.695 8.695 0 0 1-2.386.328c-.813 0-1.625-.11-2.389-.328a6.945 6.945 0 0 1-2.099-.985l-5.045-3.57c-2.48-1.753-2.48-4.592 0-6.345l5.045-3.57a6.934 6.934 0 0 1 2.1-.984A8.716 8.716 0 0 1 26.402.5c.813 0 1.622.11 2.386.329.764.218 1.48.547 2.099.984l5.045 3.57z" fill="#CECBE1"/><g><path d="M4.074 10.894l5-3.907a4 4 0 0 1 4.818-.081l5.475 3.988 1.419-4.259-6.294-4.269-3.123-1.2-2.506.728-6.387 5.554 1.598 3.446z" fill="url(#a)" transform="translate(2.3 12)"/><path d="M.11 7.91l-.003 3.22a4 4 0 0 0 1.82 3.36l6.609 4.292a5 5 0 0 0 5.32.08l7.161-4.352a4 4 0 0 0 1.921-3.525l-.084-3.16-9.371 6.741H7.296L.11 7.91z" fill="url(#c)" transform="translate(2.3 12)"/><path d="M20.532 21.244c.905-.64.928-1.673.06-2.334l-.06-.045-5.046-3.568a2.608 2.608 0 0 0-.78-.365c-.106-.032-.22-.03-.33-.048-.183-.034-.363-.075-.554-.077-.622.01-1.192.152-1.637.446l-.065.044-5.048 3.568c-.91.645-.93 1.675-.062 2.334l.062.045 5.048 3.57c.23.165.497.286.78.367.052.014.107.012.155.023.242.057.487.1.738.1.607-.004 1.177-.148 1.629-.444l.064-.045 5.046-3.57zm2.801-4.36c2.483 1.752 2.483 4.59 0 6.344l-5.045 3.57a6.942 6.942 0 0 1-2.099.985 8.695 8.695 0 0 1-2.386.328c-.813 0-1.625-.11-2.389-.328a6.945 6.945 0 0 1-2.099-.985l-5.045-3.57c-2.48-1.753-2.48-4.592 0-6.345l5.045-3.57a6.934 6.934 0 0 1 2.1-.984A8.716 8.716 0 0 1 13.802 12c.813 0 1.622.11 2.386.329.764.218 1.48.547 2.099.984l5.045 3.57z" fill="#CECBE1"/></g><g><path d="M4.074 10.894l5-3.907a4 4 0 0 1 4.818-.081l5.475 3.988 1.419-4.259-6.294-4.269-3.123-1.2-2.506.728-6.387 5.554 1.598 3.446z" fill="url(#a)" transform="translate(28.2 12)"/><path d="M.11 7.91l-.003 3.22a4 4 0 0 0 1.82 3.36l6.609 4.292a5 5 0 0 0 5.32.08l7.161-4.352a4 4 0 0 0 1.921-3.525l-.084-3.16-9.371 6.741H7.296L.11 7.91z" fill="url(#c)" transform="translate(28.2 12)"/><path d="M46.432 21.244c.905-.64.928-1.673.06-2.334l-.06-.045-5.046-3.568a2.608 2.608 0 0 0-.78-.365c-.106-.032-.22-.03-.33-.048-.183-.034-.363-.075-.554-.077-.622.01-1.192.152-1.637.446l-.065.044-5.048 3.568c-.91.645-.93 1.675-.062 2.334l.062.045 5.048 3.57c.23.165.497.286.78.367.052.014.107.012.155.023.242.057.487.1.738.1.607-.004 1.177-.148 1.629-.444l.064-.045 5.046-3.57zm2.801-4.36c2.483 1.752 2.483 4.59 0 6.344l-5.045 3.57a6.942 6.942 0 0 1-2.099.985 8.695 8.695 0 0 1-2.386.328c-.813 0-1.625-.11-2.389-.328a6.945 6.945 0 0 1-2.099-.985l-5.045-3.57c-2.48-1.753-2.48-4.592 0-6.345l5.045-3.57a6.934 6.934 0 0 1 2.1-.984A8.716 8.716 0 0 1 39.702 12c.813 0 1.622.11 2.386.329.764.218 1.48.547 2.099.984l5.045 3.57z" fill="#CECBE1"/></g></g></g></svg>
