<svg id="_1" xmlns="http://www.w3.org/2000/svg" viewBox="0 0 54 54"><style>.st2{fill:none;stroke:#e7e6f1;stroke-width:1.1124}.st5{fill:#6a549e}</style><path id="Path-2" fill="#fff" d="M25.1 6.5L.5 18.1v18.7l1.8 2.9 22.8 10.8h2.2l24.2-11.8 1.7-2.7V19.8l-.7-1.7L27 6.5z"/><path id="Path-29" fill="#f6f4fe" d="M27 33.7l25.5-11.9v16.9L27 50.7z"/><path id="Path" class="st2" d="M52.2 21.9L26.8 33.2c-.3.1-.6.1-.8 0L1.5 21.9c-.5-.2-.8-.8-.5-1.3.1-.2.3-.4.5-.5l23.4-11c1-.5 2.1-.5 3.1 0l24.2 11c.5.2.7.8.5 1.3-.1.2-.3.4-.5.5z"/><path id="Line-2" class="st2" d="M26.5 33.8v16.7"/><path id="Path_1_" class="st2" d="M52.8 21.1l.2 14.4c0 1.6-.9 3-2.3 3.7L28.1 50.1c-1.1.5-2.4.5-3.5 0l-21.4-10C1.8 39.4.9 38 .9 36.4V21.3"/><linearGradient id="-4_3_" gradientUnits="userSpaceOnUse" x1="-351.183" y1="389.762" x2="-351.183" y2="389.082" gradientTransform="matrix(18.31 0 0 -9.7286 6456.697 3793.523)"><stop offset="0" stop-color="#e7e4f7"/><stop offset="1" stop-color="#cac4ec"/></linearGradient><path id="-4" d="M19 11.4l5-3.9c1.4-1.1 3.4-1.1 4.8-.1l5.5 4 1.4-4.3-6.3-4.3-3.1-1.2-2.5.7-6.4 5.6 1.6 3.5z" fill="url(#-4_3_)"/><linearGradient id="-3_3_" gradientUnits="userSpaceOnUse" x1="-355.219" y1="400.974" x2="-355.219" y2="400.293" gradientTransform="matrix(22.8494 0 0 -13.7646 8142.973 5527.554)"><stop offset="0" stop-color="#e7e4f7"/><stop offset="1" stop-color="#cac4ec"/></linearGradient><path id="-3" d="M15 8.4v5.2c0 1.4.7 2.6 1.8 3.4l6.6 4.3c1.6 1 3.7 1.1 5.3.1l7.2-4.4c1.2-.7 1.9-2.1 1.9-3.5l-.1-5.2-9.4 6.7h-6.2L15 8.4z" fill="url(#-3_3_)"/><path id="Fill-77" class="st5" d="M33.1 9.7c.9-.6.9-1.7.1-2.3h-.1l-5-3.6c-.2-.2-.5-.3-.8-.4H27c-.2 0-.4-.1-.6-.1-.6 0-1.2.2-1.6.4h-.1l-5 3.6c-.9.7-1 1.7-.1 2.4h.1l5 3.6c.2.2.5.3.8.4h.2c.2.1.5.1.7.1.6 0 1.2-.1 1.6-.4h.1l5-3.7zm2.8-4.3c2.5 1.8 2.5 4.6 0 6.3l-5 3.6c-.6.4-1.3.8-2.1 1-.8.2-1.6.3-2.4.3s-1.6-.1-2.4-.3c-.8-.2-1.5-.5-2.1-1l-5-3.6c-2.5-1.8-2.5-4.6 0-6.3l5-3.6c.6-.4 1.3-.8 2.1-1 .8-.2 1.6-.3 2.4-.3s1.6.1 2.4.3c.8.2 1.5.5 2.1 1l5 3.6z"/><linearGradient id="-4_4_" gradientUnits="userSpaceOnUse" x1="-351.183" y1="389.762" x2="-351.183" y2="389.082" gradientTransform="matrix(18.31 0 0 -9.7286 6444.097 3805.023)"><stop offset="0" stop-color="#e7e4f7"/><stop offset="1" stop-color="#cac4ec"/></linearGradient><path id="-4_1_" d="M6.4 22.9l5-3.9c1.4-1.1 3.4-1.1 4.8-.1l5.5 4 1.4-4.3-6.3-4.3-3.1-1.2-2.5.7-6.4 5.6 1.6 3.5z" fill="url(#-4_4_)"/><linearGradient id="-3_4_" gradientUnits="userSpaceOnUse" x1="-355.207" y1="396.38" x2="-355.207" y2="395.699" gradientTransform="matrix(22.8325 0 0 -11.7646 8124.111 4683.054)"><stop offset="0" stop-color="#e7e4f7"/><stop offset="1" stop-color="#cac4ec"/></linearGradient><path id="-3_1_" d="M2.4 19.9v3.2c0 1.4.7 2.6 1.8 3.4l6.6 4.3c1.6 1 3.7 1.1 5.3.1l7.2-4.4c1.2-.7 2-2.1 1.9-3.5l-.1-3.2-9.4 6.7H9.6l-7.2-6.6z" fill="url(#-3_4_)"/><path id="Fill-77_1_" class="st5" d="M20.5 21.2c.9-.6.9-1.7.1-2.3h-.1l-5-3.6c-.2-.2-.5-.3-.8-.4h-.3c-.2 0-.4-.1-.6-.1-.6 0-1.2.2-1.6.4h-.1l-5 3.6c-.9.6-.9 1.7-.1 2.3h.1l5 3.6c.2.2.5.3.8.4h.2c.2.1.5.1.7.1.6 0 1.2-.1 1.6-.4h.1l5-3.6zm2.8-4.3c2.5 1.8 2.5 4.6 0 6.3l-5 3.6c-.6.4-1.3.8-2.1 1-.8.2-1.6.3-2.4.3s-1.6-.1-2.4-.3-1.5-.5-2.1-1l-5-3.6c-2.5-1.8-2.5-4.6 0-6.3l5-3.6c.6-.4 1.3-.8 2.1-1 .8-.2 1.6-.3 2.4-.3s1.6.1 2.4.3c.8.2 1.5.5 2.1 1l5 3.6z"/><linearGradient id="-4_5_" gradientUnits="userSpaceOnUse" x1="-351.183" y1="389.762" x2="-351.183" y2="389.082" gradientTransform="matrix(18.31 0 0 -9.7286 6469.997 3805.023)"><stop offset="0" stop-color="#e7e4f7"/><stop offset="1" stop-color="#cac4ec"/></linearGradient><path id="-4_2_" d="M32.3 22.9l5-3.9c1.4-1.1 3.4-1.1 4.8-.1l5.5 4 1.4-4.3-6.3-4.3-3.1-1.2-2.5.7-6.4 5.6 1.6 3.5z" fill="url(#-4_5_)"/><linearGradient id="-3_5_" gradientUnits="userSpaceOnUse" x1="-355.207" y1="396.38" x2="-355.207" y2="395.699" gradientTransform="matrix(22.8325 0 0 -11.7646 8150.012 4683.054)"><stop offset="0" stop-color="#e7e4f7"/><stop offset="1" stop-color="#cac4ec"/></linearGradient><path id="-3_2_" d="M28.3 19.9v3.2c0 1.4.7 2.6 1.8 3.4l6.6 4.3c1.6 1 3.7 1.1 5.3.1l7.2-4.4c1.2-.7 2-2.1 1.9-3.5l-.1-3.2-9.4 6.7h-6.2l-7.1-6.6z" fill="url(#-3_5_)"/><path id="Fill-77_2_" class="st5" d="M46.4 21.2c.9-.6.9-1.7.1-2.3h-.1l-5-3.6c-.2-.2-.5-.3-.8-.4h-.3c-.2 0-.4-.1-.6-.1-.6 0-1.2.2-1.6.4H38l-5 3.6c-.9.6-.9 1.7-.1 2.3h.1l5 3.6c.2.2.5.3.8.4h.2c.2.1.5.1.7.1.6 0 1.2-.1 1.6-.4h.1l5-3.6zm2.8-4.3c2.5 1.8 2.5 4.6 0 6.3l-5 3.6c-.6.4-1.3.8-2.1 1s-1.6.3-2.4.3-1.6-.1-2.4-.3-1.5-.5-2.1-1l-5-3.6c-2.5-1.8-2.5-4.6 0-6.3l5-3.6c.6-.4 1.3-.8 2.1-1 .8-.2 1.6-.3 2.4-.3s1.6.1 2.4.3c.8.2 1.5.5 2.1 1l5 3.6z"/></svg>
