<svg id="_1" xmlns="http://www.w3.org/2000/svg" viewBox="0 0 54 54" enable-background="new 0 0 54 54"><style>.st0{fill:#fff}.st2{fill:none;stroke:#e7e6f1;stroke-width:1.1124}</style><path id="path-36" class="st0" d="M21 26v6.9c-.2.1-.4.1-.6.3v-6.9"/><path id="path-12" class="st0" d="M13.4 8.4c.2.1.2.3.2.5v6.9c0-.2 0-.3-.2-.5"/><path id="path-10" class="st0" d="M12.3 10.1c.7.3 1.3.6 1.7.9v6.9c-.5-.3-1-.6-1.7-.9"/><path id="Path-2" class="st0" d="M25.8 8.9L.5 20.2v16.6l1.8 2.9 22.8 10.8h2.2l24.2-11.8 1.7-2.7V21.4l-.7-1.7L27.7 8.9z"/><path id="Path-29" fill="#f7f6fd" d="M27 33.7l25.5-11.9v16.9L27 50.7z"/><path id="Path" class="st2" d="M52.2 21.9L26.8 33.2c-.3.1-.6.1-.8 0L1.5 21.9c-.5-.2-.8-.8-.5-1.3.1-.2.3-.4.5-.5l23.4-11c1-.5 2.1-.5 3.1 0l24.2 11c.5.2.7.8.5 1.3-.1.2-.3.4-.5.5z"/><path id="Line-2" class="st2" d="M26.5 33.8v16.7"/><path id="Path_1_" class="st2" d="M52.8 21.1l.2 14.4c0 1.6-.9 3-2.3 3.7L28.1 50.1c-1.1.5-2.4.5-3.5 0l-21.4-10C1.8 39.4.9 38 .9 36.4V21.3"/><linearGradient id="-11_1_" gradientUnits="userSpaceOnUse" x1="-312.376" y1="367.985" x2="-312.42" y2="366.702" gradientTransform="matrix(6.2947 0 0 -6.1674 1975.642 2285.504)"><stop offset="0" stop-color="#e2e0f1"/><stop offset="1" stop-color="#e8e6f2"/></linearGradient><path id="-11" d="M6 18.5v4.6c0 .2.2 1 1.4.9 1.2-.2 3.3-.9 3.7-.8.2 0 .4.1.5.2l.7-.1v-5l-1.6-.5-4.7.7z" fill="url(#-11_1_)"/><linearGradient id="-12_1_" gradientUnits="userSpaceOnUse" x1="-286.906" y1="383.646" x2="-286.918" y2="382.309" gradientTransform="matrix(4.3978 0 0 -8.3238 1280.892 3215.988)"><stop offset="0" stop-color="#e2e0f1"/><stop offset="1" stop-color="#e8e6f2"/></linearGradient><path id="-12" d="M16.9 28.1v4.8c0 .7.6.8 1.1.8.4 0 1.2-.5 1.5-1.2.3-.7.6-1.8 1-1.8.2 0 .4-.1.5-.1l.3-.4v-4.8l-4.4 2.7z" fill="url(#-12_1_)"/><linearGradient id="-13_1_" gradientUnits="userSpaceOnUse" x1="-337.499" y1="365.062" x2="-337.543" y2="364.668" gradientTransform="matrix(10.9449 0 0 -5.9346 3720.758 2193.175)"><stop offset="0" stop-color="#e2e0f1"/><stop offset="1" stop-color="#e8e6f2"/></linearGradient><path id="-13" d="M21.3 25.2v5.2c1.6.5 3.4.8 5.3.8s3.8-.3 5.5-.8l.1-4.9-10.9-.3z" fill="url(#-13_1_)"/><linearGradient id="-14_1_" gradientUnits="userSpaceOnUse" x1="-287.583" y1="387.218" x2="-287.594" y2="385.881" gradientTransform="matrix(4.4334 0 0 -9.0469 1309.213 3524.832)"><stop offset="0" stop-color="#e2e0f1"/><stop offset="1" stop-color="#e8e6f2"/></linearGradient><path id="-14" d="M36.4 28.1v4.7c0 .3-.2 1.1-1.2 1-1-.1-1.2-.7-1.5-1.2-.2-.6-1-1.7-1.1-1.8-.1-.1-.2-.1-.4-.1l-.2-.5.1-4.8 1.7-.7 2.6 3.4z" fill="url(#-14_1_)"/><linearGradient id="-15_1_" gradientUnits="userSpaceOnUse" x1="-311.093" y1="365.479" x2="-311.137" y2="364.243" gradientTransform="matrix(6.1609 0 0 -5.9242 1960.883 2181.598)"><stop offset="0" stop-color="#e2e0f1"/><stop offset="1" stop-color="#e8e6f2"/></linearGradient><path id="-15" d="M47.1 18.6c0 3.1.1 4.7.1 4.7s-.2.7-1 .7-1.6-.3-1.9-.4c-.3-.1-1.8-.5-2.1-.4-.2 0-.4.1-.6.1H41v-5l.9-.2 4.2.7 1-.2z" fill="url(#-15_1_)"/><linearGradient id="-9_1_" gradientUnits="userSpaceOnUse" x1="-214.771" y1="342.5" x2="-214.784" y2="341.163" gradientTransform="matrix(2.3736 0 0 -4.3338 536.312 1483.787)"><stop offset="0" stop-color="#e2e0f1"/><stop offset="1" stop-color="#e8e6f2"/></linearGradient><path id="-9" fill="url(#-9_1_)" d="M25.3.9v4.4l2.4-.1V1z"/><linearGradient id="-10_1_" gradientUnits="userSpaceOnUse" x1="-351.873" y1="359.214" x2="-351.917" y2="359.105" gradientTransform="matrix(19.0281 0 0 -5.4447 6723.34 1963.811)"><stop offset="0" stop-color="#e2e0f1"/><stop offset="1" stop-color="#e8e6f2"/></linearGradient><path id="-10" d="M16.9 8.9l7.8-3.4H28l7.6 2 .3 1.7-2.8 1.5c-2.1-1.2-4.3-1.8-6.7-1.8s-4.6.7-6.7 2l-2.8-2z" fill="url(#-10_1_)"/><linearGradient id="-8_1_" gradientUnits="userSpaceOnUse" x1="-292.597" y1="367.146" x2="-292.623" y2="365.809" gradientTransform="matrix(4.7158 0 0 -6.0794 1420.72 2236.24)"><stop offset="0" stop-color="#e2e0f1"/><stop offset="1" stop-color="#e8e6f2"/></linearGradient><path id="-8" d="M43.1 6.3V11c0 .2-.1.9-1.8 1.3-1.1.3-2.1-.8-3-3.2l1.8-1.4 3-1.4z" fill="url(#-8_1_)"/><linearGradient id="_3_" gradientUnits="userSpaceOnUse" x1="-280.455" y1="379.528" x2="-280.467" y2="378.191" gradientTransform="matrix(4.0862 0 0 -7.6216 1157.934 2896.234)"><stop offset="0" stop-color="#e2e0f1"/><stop offset="1" stop-color="#e8e6f2"/></linearGradient><path d="M10.4 11.7c-.4-.2-.6-.5-.6-.8V6.2c0 .3.2.6.6.8l.2.1c.2.1.4.2.7.3.1 0 .2.1.3.1.6.3 1.1.5 1.5.7l.2.1c.2.1.2.2.2.4v.1l.4.3v4.7l-.4-.3c0-.2 0-.3-.2-.5-.5-.3-1-.6-1.7-.9-.1-.1-.2-.1-.3-.1-.2-.1-.4-.2-.7-.3h-.2z" fill="url(#_3_)"/><linearGradient id="_4_" gradientUnits="userSpaceOnUse" x1="-296.399" y1="375.736" x2="-296.421" y2="374.399" gradientTransform="matrix(4.9542 0 0 -7.0721 1487.074 2665.617)"><stop offset="0" stop-color="#e2e0f1"/><stop offset="1" stop-color="#e8e6f2"/></linearGradient><path id="_1_" d="M16.1 14.3v-3.5l4.6 3c.2.1.3.3.3.6v3.5c0-.2-.1-.4-.3-.6l-4.6-3z" fill="url(#_4_)"/><linearGradient id="Fill-85_1_" gradientUnits="userSpaceOnUse" x1="-300.256" y1="371.95" x2="-300.283" y2="370.613" gradientTransform="matrix(5.2229 0 0 -6.5973 1602.472 2462.407)"><stop offset="0" stop-color="#e2e0f1"/><stop offset="1" stop-color="#e8e6f2"/></linearGradient><path id="Fill-85" d="M36.8 10.8v3.5l-4.7 3.1c-.3 0-.5-.6-.5-1.7s0-1.9.2-2.3l5-2.6z" fill="url(#Fill-85_1_)"/><linearGradient id="Fill-87_1_" gradientUnits="userSpaceOnUse" x1="-175.674" y1="374.751" x2="-175.677" y2="373.414" gradientTransform="matrix(1.8997 0 0 -6.9421 360.178 2613.198)"><stop offset="0" stop-color="#e2e0f1"/><stop offset="1" stop-color="#e8e6f2"/></linearGradient><path id="Fill-87" fill="url(#Fill-87_1_)" d="M25.5 20.9h1.9V14h-1.9z"/><linearGradient id="Fill-103_1_" gradientUnits="userSpaceOnUse" x1="-50.721" y1="381.908" x2="-50.722" y2="380.571" gradientTransform="matrix(1.1597 0 0 -8.0122 86.803 3071.198)"><stop offset="0" stop-color="#e2e0f1"/><stop offset="1" stop-color="#e8e6f2"/></linearGradient><path id="Fill-103" fill="url(#Fill-103_1_)" d="M28.6 15v7l-1.2-1.1V14z"/><linearGradient id="Fill-104_1_" gradientUnits="userSpaceOnUse" x1="-50.721" y1="381.908" x2="-50.722" y2="380.571" gradientTransform="matrix(1.1597 0 0 -8.0122 83.744 3071.199)"><stop offset="0" stop-color="#e2e0f1"/><stop offset="1" stop-color="#e8e6f2"/></linearGradient><path id="Fill-104" fill="url(#Fill-104_1_)" d="M25.5 14v6.9L24.3 22v-7z"/><linearGradient id="Clip-112_1_" gradientUnits="userSpaceOnUse" x1="-163.015" y1="383.079" x2="-163.017" y2="381.742" gradientTransform="matrix(1.7843 0 0 -8.2196 306.083 3156.76)"><stop offset="0" stop-color="#e2e0f1"/><stop offset="1" stop-color="#e8e6f2"/></linearGradient><path id="Clip-112" d="M16.1 10.8v3.5c-1.2 1.4-1.8 3-1.8 4.7v-3.5c0-1.7.6-3.3 1.8-4.7z" fill="url(#Clip-112_1_)"/><linearGradient id="Clip-114_1_" gradientUnits="userSpaceOnUse" x1="-164.297" y1="383.241" x2="-164.299" y2="381.904" gradientTransform="matrix(1.7954 0 0 -8.2491 332.662 3169.366)"><stop offset="0" stop-color="#e2e0f1"/><stop offset="1" stop-color="#e8e6f2"/></linearGradient><path id="Clip-114" d="M36.8 10.8c.7.8 1.2 1.7 1.5 2.7.2.7.3 1.4.3 2V19c0-.7-.5-1.1-.7-1.7-.3-1-.4-2.2-1-3v-3.5z" fill="url(#Clip-114_1_)"/><defs><filter id="Adobe_OpacityMaskFilter" filterUnits="userSpaceOnUse" x="41.6" y="15.4" width="0" height="7.2"><feColorMatrix values="1 0 0 0 0 0 1 0 0 0 0 0 1 0 0 0 0 0 1 0"/></filter></defs><mask maskUnits="userSpaceOnUse" x="41.6" y="15.4" width="0" height="7.2" id="mask-21"><g filter="url(#Adobe_OpacityMaskFilter)"><path id="path-20" class="st0" d="M41.6 15.4v6.9c0 .5 0 1-.1 1.4v-6.9"/></g></mask><path id="Fill-117" d="M41.6 15.4V22.5v-6.9-.2" mask="url(#mask-21)" fill="#3d315c"/><defs><filter id="Adobe_OpacityMaskFilter_1_" filterUnits="userSpaceOnUse" x="21.6" y="17.7" width=".6" height="7.4"><feColorMatrix values="1 0 0 0 0 0 1 0 0 0 0 0 1 0 0 0 0 0 1 0"/></filter></defs><mask maskUnits="userSpaceOnUse" x="21.6" y="17.7" width=".6" height="7.4" id="mask-23"><g filter="url(#Adobe_OpacityMaskFilter_1_)"><path id="path-22" class="st0" d="M21.3 17.6s.1 0 0 0h.2V25h-.1l-.1-7.4"/></g></mask><path id="Fill-129" d="M22.2 18.1V25v-6.9c0-.1 0-.1 0 0 0-.1 0 0 0 0" mask="url(#mask-23)" fill="#372c52"/><defs><filter id="Adobe_OpacityMaskFilter_2_" filterUnits="userSpaceOnUse" x="21.5" y="17.6" width=".2" height="7"><feColorMatrix values="1 0 0 0 0 0 1 0 0 0 0 0 1 0 0 0 0 0 1 0"/></filter></defs><mask maskUnits="userSpaceOnUse" x="21.5" y="17.6" width=".2" height="7" id="mask-25"><g filter="url(#Adobe_OpacityMaskFilter_2_)"><path id="path-24" class="st0" d="M21.3 17.6s.1 0 0 0h.2V25h-.1l-.1-7.4"/></g></mask><path id="Fill-131" d="M21.6 17.7v6.9-6.9c-.1-.1-.1-.1 0 0" mask="url(#mask-25)" fill="#392d55"/><defs><filter id="Adobe_OpacityMaskFilter_3_" filterUnits="userSpaceOnUse" x="21.3" y="17.6" width=".1" height="7"><feColorMatrix values="1 0 0 0 0 0 1 0 0 0 0 0 1 0 0 0 0 0 1 0"/></filter></defs><mask maskUnits="userSpaceOnUse" x="21.3" y="17.6" width=".1" height="7" id="mask-27"><g filter="url(#Adobe_OpacityMaskFilter_3_)"><path id="path-26" class="st0" d="M21.3 17.6s.1 0 0 0h.2V25h-.1l-.1-7.4"/></g></mask><path id="Fill-133" d="M21.5 17.6v6.9-6.9c-.2 0-.1 0 0 0-.1 0-.1 0 0 0" mask="url(#mask-27)" fill="#3b2f58"/><linearGradient id="Fill-256_1_" gradientUnits="userSpaceOnUse" x1="-316.183" y1="393.799" x2="-316.2" y2="392.462" gradientTransform="matrix(6.7261 0 0 -10.7709 2142.284 4256.586)"><stop offset="0" stop-color="#e2e0f1"/><stop offset="1" stop-color="#e8e6f2"/></linearGradient><path id="Fill-256" d="M18.9 29.4c-.6-.3-1.1-.5-1.7-.8-2.4-1.4-4.1-3.2-5.1-5.3v-4.7c.9 2.1 2.7 3.9 5.1 5.3.5.3 1.1.6 1.7.8v4.7z" fill="url(#Fill-256_1_)"/><linearGradient id="_5_" gradientUnits="userSpaceOnUse" x1="-316.185" y1="397.634" x2="-316.199" y2="396.297" gradientTransform="matrix(6.7261 0 0 -12.1162 2164.484 4832.324)"><stop offset="0" stop-color="#e2e0f1"/><stop offset="1" stop-color="#e8e6f2"/></linearGradient><path id="_2_" d="M41.1 18.6v4.7c-.4.9-.9 1.7-1.6 2.5-1.3 1.5-3.1 4-5.1 4.9v-6c2-.9 3.8-2.1 5.1-3.6.7-.7 1.2-1.6 1.6-2.5z" fill="url(#_5_)"/><linearGradient id="Clip-136_1_" gradientUnits="userSpaceOnUse" x1="-649.662" y1="379.929" x2="-649.664" y2="378.592" gradientTransform="matrix(-1.3373 0 0 -7.6846 -837.868 2934.37)"><stop offset="0" stop-color="#e2e0f1"/><stop offset="1" stop-color="#e8e6f2"/></linearGradient><path id="Clip-136" d="M30.6 25l.1-.1h.1v-7.2s-1.2-.2-1.3.4c.7.5.8 2.9 1.1 6.9z" fill="url(#Clip-136_1_)"/><linearGradient id="Clip-136_1_" gradientUnits="userSpaceOnUse" x1="-93.337" y1="379.044" x2="-93.338" y2="377.707" gradientTransform="matrix(1.3373 0 0 -7.5466 146.7 2875.449)"><stop offset="0" stop-color="#e2e0f1"/><stop offset="1" stop-color="#e8e6f2"/></linearGradient><path id="Clip-136" d="M22.2 25l-.1-.1H22V18s1.2-.4 1.3.2c-.7.4-.8 2.8-1.1 6.8z" fill="url(#Clip-136_1_)"/><linearGradient id="Fill-154_1_" gradientUnits="userSpaceOnUse" x1="-316.593" y1="361.749" x2="-316.637" y2="360.834" gradientTransform="matrix(6.7801 0 0 -5.609 2164.907 2046.271)"><stop offset="0" stop-color="#e2e0f1"/><stop offset="1" stop-color="#e8e6f2"/></linearGradient><path id="Fill-154" fill="url(#Fill-154_1_)" d="M21.2 17.6l.3 3.1-6.8 2.5.4-4.8z"/><linearGradient id="Fill-154_1_" gradientUnits="userSpaceOnUse" x1="-426.926" y1="353.465" x2="-426.97" y2="352.724" gradientTransform="matrix(-6.7073 0 0 -4.9935 -2828.778 1782.664)"><stop offset="0" stop-color="#e2e0f1"/><stop offset="1" stop-color="#e8e6f2"/></linearGradient><path id="Fill-154" fill="url(#Fill-154_1_)" d="M31.6 17.4v3.3l4.7 1.7 2-1.5-.2-2.5z"/><linearGradient id="Fill-254_1_" gradientUnits="userSpaceOnUse" x1="-275.255" y1="374.667" x2="-275.269" y2="373.33" gradientTransform="matrix(3.8655 0 0 -6.9312 1092.387 2613.44)"><stop offset="0" stop-color="#e2e0f1"/><stop offset="1" stop-color="#e8e6f2"/></linearGradient><path id="Fill-254" fill="url(#Fill-254_1_)" d="M30.3 23.8v2l-1.8-.3-2.1-2.8v-3.8l1.3 1.4z"/><linearGradient id="Fill-255_1_" gradientUnits="userSpaceOnUse" x1="-275.262" y1="373.543" x2="-275.276" y2="372.205" gradientTransform="matrix(3.8658 0 0 -6.789 1088.658 2552.578)"><stop offset="0" stop-color="#e2e0f1"/><stop offset="1" stop-color="#e8e6f2"/></linearGradient><path id="Fill-255" fill="url(#Fill-255_1_)" d="M26.4 18.9v3.6l-2.2 3.2-1.6-.2v-1.7l2.5-4z"/><path id="Fill-360" d="M24.3 15l.4 1.3 1.7.6 1.7-.6.4-1.3-1.1-1h-1.9l-1.2 1zM28 6.6l.4 4.6c0 .1.1.2.2.3h.1s.1 0 .1.1H30.2L35.3 9c-2.2-1.3-4.7-2.1-7.3-2.4zM18 9.1l5.1 2.7c.1.1.3.1.5.1.6 0 1-.3 1-.7l.4-4.6c-.4.1-.8.1-1.2.2-2.3.3-4.3 1.1-5.8 2.3zm12.3 14.7l-3-3.9c-.1-.1-.3-.2-.5-.3h-.1-.1-.1-.1-.2-.1-.1-.1-.1-.1-.1-.1-.1-.1-.1l-3 4c1.3.3 2.6.4 3.9.5.9 0 1.8-.1 2.7-.2.8 0 1.2-.1 1.5-.1zm-8-5.6c0-.1 0-.1 0 0 0-.1 0-.1-.1-.1h-.1l-6.2.8c.9 1.9 2.7 3.4 4.8 4.4l2.4-4.1c-.8-.7-.8-.8-.8-1zm16-4.8c-.3-1-.8-1.9-1.5-2.7l-4.7 3.1c-.1.1-.2.2-.2.3-.1.4.2.8.7.9l5.9 1.2c.2-.9.1-1.8-.2-2.8zm-.5 5l-6.2-.8h-.1-.1c-.5.2-.7.5-.5.9l2.4 4.2c1.5-.7 2.8-1.6 3.7-2.7.2-.5.6-1 .8-1.6zm-23.4-2.1l6-1.3c.2 0 .4-.1.5-.2.4-.3.3-.8-.1-1l-4.6-3c-1.5 1.6-2.1 3.6-1.8 5.5zM46 17.7c.8.2 1.2.6 1.2 1-.2.3-.7.6-1.2.6h-.3l-.3-.1c-.3-.1-.5-.1-.7-.2-.1 0-.2-.1-.4-.1-.8-.2-1.4-.4-2.1-.4-.3 0-.4.1-.6.1h-.5c-.4.9-.9 1.7-1.6 2.5-1.3 1.5-3.1 2.8-5.1 3.6l.2.3c-.1.2-.2.3-.1.5.2.4.6.8 1 1.3.1.1.2.2.2.3.2.1.3.3.4.5l.1.1c.2.3.2.5.1.8-.1.2-.3.4-.6.5-.2.1-.3.1-.5.1-.5 0-.9-.2-1.2-.5v-.2c-.1-.2-.2-.3-.2-.5l-.1-.2c-.3-.6-.5-1-.8-1.4-.2-.3-.4-.3-.5-.3l-.4-.4c-.7.2-1.3.3-2 .4-1.1.2-2.3.3-3.4.3-1.9 0-3.7-.3-5.4-.7l-.2.4c-.2.1-.4.1-.6.3-.4.4-.5.8-.8 1.4l-.1.2c-.1.2-.1.3-.2.5l-.1.1c-.3.4-.7.6-1.2.6-.2 0-.3 0-.5-.1-.6-.2-.8-.7-.5-1.2l.2-.2c.2-.2.3-.3.4-.5.1-.1.2-.1.2-.2.4-.5.8-.9 1-1.3.1-.2 0-.3-.1-.5l.2-.4c-.6-.3-1.1-.5-1.7-.8-2.4-1.4-4.1-3.2-5.1-5.3l-.5.1c-.2-.1-.3-.2-.6-.2-.7.1-1.3.3-2 .5-.2 0-.3.1-.4.1-.2.1-.5.1-.7.2h-.2c-.2.1-.3.1-.4.1-.6 0-1.1-.2-1.2-.6-.1-.5.3-.9 1-1l.3-.1c.3 0 .5-.1.7-.1h.4c.9-.1 1.5-.1 2.1-.3.2-.1.3-.2.4-.3l.5-.2c-.5-2.6.2-5.2 2.2-7.4 0-.1.1-.1.2-.2l-.4-.3c0-.2 0-.3-.2-.5-.5-.3-1-.6-1.7-.9-.1-.1-.2-.1-.3-.1-.2-.1-.4-.2-.7-.3l-.2-.1c-.6-.4-.7-.9-.4-1.3 1.2-.3 1.5-.2 1.7-.1l.3.2c.2.1.4.3.5.4.1.1.2.1.3.2.5.4 1 .8 1.5 1 .1.1.2.1.4.1h.2l.5.2c2-1.6 4.7-2.7 7.7-3.2.7-.1 1.4-.2 2.1-.2v-.4c.2-.1.3-.2.4-.4.1-.5 0-1-.1-1.5 0-.1 0-.2-.1-.3-.1-.2-.1-.3-.1-.5V.9c0-.3.1-.5.3-.6.3-.2.6-.3.9-.3.7 0 1.2.4 1.2.9v.3c0 .2-.1.4-.1.5 0 .1-.1.2-.1.3-.1.6-.2 1.1-.1 1.5 0 .2.2.3.3.4l.1.4c3 .2 5.8 1 8.1 2.3.5.4 1.1.7 1.6 1.1l.5-.2h.3c.1 0 .2 0 .3-.1.5-.3 1-.6 1.5-1 .1-.1.2-.1.3-.2.2-.1.3-.3.5-.4l.2-.1c.4-.2.6-.3.9-.3.3 0 .7.1.9.3.4.4.3.9-.3 1.3l-.3.2c-.2.1-.4.2-.7.3-.1.1-.2.1-.4.1-.7.3-1.3.6-1.7.9-.1.1-.2.3-.2.4l-.4.3c1 1.1 1.7 2.4 2.2 3.7s.5 2.6.3 4l.6.1c.1.2.2.3.5.4.6.1 1.3.2 2.1.3h.4c.2 0 .5 0 .7.1l.3-.1z" fill="#cecbe1"/></svg>
