<svg width="54" height="54" viewBox="0 0 54 54" xmlns="http://www.w3.org/2000/svg" xmlns:xlink="http://www.w3.org/1999/xlink"><defs><linearGradient x1="50%" y1="-33.701%" x2="49.37%" y2="100%" id="a"><stop stop-color="#E2E0F1" offset="0%"/><stop stop-color="#E8E6F2" offset="100%"/></linearGradient><linearGradient x1="50%" y1="-33.701%" x2="49.317%" y2="100%" id="b"><stop stop-color="#E2E0F1" offset="0%"/><stop stop-color="#E8E6F2" offset="100%"/></linearGradient><linearGradient x1="50%" y1="0%" x2="50%" y2="68.075%" id="c"><stop stop-color="#EFEEF8" offset="0%"/><stop stop-color="#E8E6F2" offset="100%"/></linearGradient><linearGradient x1="50%" y1="-33.701%" x2="49.03%" y2="100%" id="d"><stop stop-color="#E2E0F1" offset="0%"/><stop stop-color="#E8E6F2" offset="100%"/></linearGradient><linearGradient x1="50%" y1="0%" x2="50%" y2="68.075%" id="e"><stop stop-color="#EFEEF8" offset="0%"/><stop stop-color="#E8E6F2" offset="100%"/></linearGradient><linearGradient x1="50%" y1="-33.701%" x2="49.272%" y2="100%" id="f"><stop stop-color="#E2E0F1" offset="0%"/><stop stop-color="#E8E6F2" offset="100%"/></linearGradient><path d="M2.26 1.094v8.703c-.388.352-.928.597-1.578.723V1.818" id="g"/><linearGradient x1="50%" y1="-33.701%" x2="49.877%" y2="100%" id="j"><stop stop-color="#E2E0F1" offset="0%"/><stop stop-color="#E8E6F2" offset="100%"/></linearGradient><path d="M2.26 1.094v8.703c-.388.352-.928.597-1.578.723V1.818c.65-.127 1.19-.372 1.578-.724z" id="i"/><linearGradient x1="50%" y1="0%" x2="50%" y2="68.075%" id="k"><stop stop-color="#EFEEF8" offset="0%"/><stop stop-color="#E8E6F2" offset="100%"/></linearGradient><linearGradient x1="50%" y1="0%" x2="50%" y2="68.075%" id="l"><stop stop-color="#EFEEF8" offset="0%"/><stop stop-color="#E8E6F2" offset="100%"/></linearGradient><linearGradient x1="50%" y1="46.232%" x2="45.619%" y2="52.251%" id="m"><stop stop-color="#E2E0F1" offset="0%"/><stop stop-color="#E8E6F2" offset="100%"/></linearGradient><linearGradient x1="50%" y1="-33.701%" x2="49.697%" y2="100%" id="n"><stop stop-color="#E2E0F1" offset="0%"/><stop stop-color="#E8E6F2" offset="100%"/></linearGradient><path d="M.69.958c.242.584 1.002.99 1.924.99v8.701c-.922.002-1.682-.404-1.925-.987" id="o"/><linearGradient x1="50%" y1="-33.701%" x2="49.629%" y2="100%" id="p"><stop stop-color="#E2E0F1" offset="0%"/><stop stop-color="#E8E6F2" offset="100%"/></linearGradient><linearGradient x1="50%" y1="0%" x2="50%" y2="68.075%" id="q"><stop stop-color="#EFEEF8" offset="0%"/><stop stop-color="#E8E6F2" offset="100%"/></linearGradient><linearGradient x1="50%" y1="0%" x2="50%" y2="68.075%" id="r"><stop stop-color="#EFEEF8" offset="0%"/><stop stop-color="#E8E6F2" offset="100%"/></linearGradient><path d="M1.05.71c0 .588.664 1.058 1.495 1.058v5.626c-.831 0-1.496-.47-1.496-1.057V.71z" id="s"/></defs><g fill="none" fill-rule="evenodd"><path fill="#FFF" fill-rule="nonzero" d="M25.148 6.506L.455 18.123v18.662l1.855 2.944 22.838 10.8h2.111l24.22-11.854 1.696-2.67v-16.22l-.683-1.662L27 6.506z"/><path fill="#F7F6FD" d="M27 33.745l25.492-11.96v16.936L27 50.72z"/><path d="M52.158 21.906L26.804 33.19a1.01 1.01 0 0 1-.833-.006L1.46 21.892a1.01 1.01 0 0 1-.005-1.832L24.858 9.131a3.67 3.67 0 0 1 3.065-.02l24.24 10.953a1.01 1.01 0 0 1-.005 1.842zM26.488 33.795v16.734" stroke="#E7E6F1" stroke-width="1.112" fill-rule="nonzero"/><path d="M52.752 21.13l.177 14.426a4.038 4.038 0 0 1-2.28 3.685L28.112 50.142a4.038 4.038 0 0 1-3.47.022L3.267 40.157A4.038 4.038 0 0 1 .941 36.5V21.358" stroke="#E7E6F1" stroke-width="1.112" fill-rule="nonzero"/><g><path d="M7.54 6.684v8.673-8.703.03" fill="#2C2269"/><path fill="url(#a)" d="M26.268 10.295v8.703l-5.83-6.667V3.628z" transform="translate(6 1)"/><path d="M26.476 10.461l.274.185.199.11.27.122.12.046.174.06c.134.041.273.076.416.104l.416.01.25-.01 1.425-.391v8.701a3.168 3.168 0 0 1-1.426.393l-.249.009-.416-.01-.211-.046-.243-.07-.197-.07-.277-.12-.2-.105-.102-.061c-.077-.048-.151-.1-.223-.154v-8.703zm-.208-.166l.208.166v8.703l-.208-.166v-8.703z" fill="url(#b)" transform="translate(6 1)"/><path fill="url(#c)" d="M20.438 3.628v8.703l-5.87 6.697v-8.704z" transform="translate(6 1)"/><path fill="url(#d)" d="M10.705 10.696V19.4L5.042 16.07V7.367z" transform="translate(6 1)"/><path fill="url(#e)" d="M35.698 7.358v8.703L30.02 19.4v-8.704z" transform="translate(6 1)"/><path d="M14.568 10.325v8.703a2.823 2.823 0 0 1-.936.546l-.393.121-.069.018-.18.039-.291.047-.333.001a4.05 4.05 0 0 1-.665-.067l-.322-.074-.204-.064-.249-.098-.22-.098v-8.702l.22.097.235.093.12.04c.26.081.533.132.809.156l.276.014h.333l.294-.05 1.575-.722z" fill="url(#f)" transform="translate(6 1)"/><g transform="translate(18.308 10.23)"><mask id="h" fill="#fff"><use xlink:href="#g"/></mask><path d="M2.26 1.094v8.703a2.631 2.631 0 0 1-.604.406V1.5c.229-.114.432-.25.604-.406" fill="#372B85" mask="url(#h)"/></g><use fill="url(#j)" xlink:href="#i" transform="translate(18.308 10.23)"/><path fill="url(#k)" d="M39.228 5.732v5.626l-3.71 13.56v-5.626z" transform="translate(6 1)"/><path fill="url(#l)" d="M5.264 19.292v5.626L1.539 11.31V5.683z" transform="translate(6 1)"/><path fill="url(#m)" d="M7.23 26.034h26.515v-5.626H7.229z" transform="translate(6 1)"/><path d="M3.21.83v5.627c-.167.617-.9 1.077-1.773 1.115V1.948c.872-.04 1.606-.5 1.772-1.117z" transform="translate(38.308 19.462)" fill="url(#n)"/><path d="M.69.958c.242.584 1.002.99 1.924.99v5.624c-.922.002-1.682-.404-1.925-.987V.958z" fill="url(#p)" transform="translate(10.615 19.462)"/><path d="M41.697 8.358l-5.677 3.338a3.168 3.168 0 0 1-1.426.392l-.25.01-.415-.01a3.508 3.508 0 0 1-1.454-.627l-.207-.167-5.83-6.667-5.87 6.697c-.388.352-.928.598-1.579.724l-.29.05h-.333a3.765 3.765 0 0 1-1.44-.304l-.221-.098-5.663-3.328 3.073 10.936h24.633l2.949-10.946zm3.53-1.802v.177l-3.71 13.56c-.166.615-.9 1.077-1.772 1.115H13.229c-.921.002-1.681-.404-1.924-.987l-.042-.128-3.725-13.61c-.013-.529.347-1.038 1.011-1.36a2.403 2.403 0 0 1 1.011-.147c.318.02.623.088.928.195l.221.088 7.74 4.388 6.563-7.462.443-.303a2.73 2.73 0 0 1 1.114-.23c.523 0 1.048.14 1.462.416l.166.117 6.55 7.451 7.448-4.395c.208-.09.43-.157.651-.207l.222-.038.221-.02c.051-.006.103-.008.156-.008.237 0 .5.054.827.174.554.274.914.716.956 1.214z" fill="#CECBE1"/><g><path d="M39.718 22.202c.816 0 1.495.47 1.495 1.048 0 .586-.679 1.056-1.495 1.056H13.16c-.831 0-1.496-.47-1.496-1.056 0-.579.665-1.048 1.496-1.048h26.557z" fill="#CECBE1"/><path d="M30.597 2.25v5.625c0 .588-.679 1.057-1.495 1.057V3.306c.816 0 1.495-.47 1.495-1.057z" fill="url(#q)" transform="translate(10.615 21)"/><path fill="url(#r)" d="M2.545 8.932h26.557V3.306H2.545z" transform="translate(10.615 21)"/><use fill="url(#q)" xlink:href="#s" transform="translate(10.615 22.538)"/></g></g></g></svg>
