<svg width="54" height="54" viewBox="0 0 54 54" xmlns="http://www.w3.org/2000/svg" xmlns:xlink="http://www.w3.org/1999/xlink"><defs><path id="a" d="M0 .39h39.51v30.642H0z"/><linearGradient x1="50%" y1="0%" x2="50%" y2="68.075%" id="b"><stop stop-color="#EFEEF8" offset="0%"/><stop stop-color="#E8E6F2" offset="100%"/></linearGradient><path d="M1.341.41v6.656c0 .554-.55 1.019-1.281 1.139V1.549" id="d"/><path d="M1.341.41v6.656c0 .554-.55 1.019-1.281 1.139V1.549" id="f"/><path d="M1.341.41v6.656c0 .554-.55 1.019-1.281 1.139V1.549" id="h"/><path d="M1.341.41v6.656c0 .554-.55 1.019-1.281 1.139V1.549" id="j"/><path d="M1.341.41v6.656c0 .554-.55 1.019-1.281 1.139V1.549" id="l"/><path d="M1.341.41v6.656c0 .554-.55 1.019-1.281 1.139V1.549" id="n"/><linearGradient x1="50%" y1="0%" x2="50%" y2="68.075%" id="q"><stop stop-color="#EFEEF8" offset="0%"/><stop stop-color="#E8E6F2" offset="100%"/></linearGradient><path d="M1.341.41v6.656c0 .554-.55 1.019-1.281 1.139V1.549" id="p"/><linearGradient x1="50%" y1="0%" x2="50%" y2="68.075%" id="r"><stop stop-color="#EFEEF8" offset="0%"/><stop stop-color="#E8E6F2" offset="100%"/></linearGradient><linearGradient x1="50%" y1="0%" x2="50%" y2="68.075%" id="t"><stop stop-color="#EFEEF8" offset="0%"/><stop stop-color="#E8E6F2" offset="100%"/></linearGradient><path d="M.401.539c.095.583.794 1.04 1.641 1.04v6.655c-.847 0-1.546-.456-1.64-1.041" id="u"/><path d="M.401.539c.095.583.794 1.04 1.641 1.04v6.655c-.847 0-1.546-.456-1.64-1.041" id="w"/><linearGradient x1="50%" y1="0%" x2="50%" y2="68.075%" id="z"><stop stop-color="#EFEEF8" offset="0%"/><stop stop-color="#E8E6F2" offset="100%"/></linearGradient><path d="M.401.539c.095.583.794 1.04 1.641 1.04v6.655c-.847 0-1.546-.456-1.64-1.041V.539z" id="y"/><linearGradient x1="50%" y1="0%" x2="50%" y2="68.075%" id="A"><stop stop-color="#EFEEF8" offset="0%"/><stop stop-color="#E8E6F2" offset="100%"/></linearGradient><path d="M2.81.507v6.655c0 1.08-1.176 1.963-2.658 2.044V2.552" id="B"/><path d="M2.81.507v6.655c0 1.08-1.176 1.963-2.658 2.044V2.552" id="D"/><path d="M2.81.507v6.655c0 1.08-1.176 1.963-2.658 2.044V2.552" id="F"/><path d="M2.81.507v6.655c0 1.08-1.176 1.963-2.658 2.044V2.552" id="H"/><path d="M2.81.507v6.655c0 1.08-1.176 1.963-2.658 2.044V2.552" id="J"/><path d="M2.81.507v6.655c0 1.08-1.176 1.963-2.658 2.044V2.552" id="L"/><path d="M2.81.507v6.655c0 1.08-1.176 1.963-2.658 2.044V2.552" id="N"/><linearGradient x1="50%" y1="0%" x2="50%" y2="68.075%" id="Q"><stop stop-color="#EFEEF8" offset="0%"/><stop stop-color="#E8E6F2" offset="100%"/></linearGradient><path d="M2.81.507v6.655c0 1.08-1.176 1.963-2.658 2.044V2.552" id="P"/><linearGradient x1="50%" y1="0%" x2="50%" y2="68.075%" id="R"><stop stop-color="#EFEEF8" offset="0%"/><stop stop-color="#E8E6F2" offset="100%"/></linearGradient><path d="M.21.214C.21.86.95 1.382 1.86 1.382v6.656C.951 8.038.21 7.513.21 6.869" id="T"/><path d="M.21.214C.21.86.95 1.382 1.86 1.382v6.656C.951 8.038.21 7.513.21 6.869" id="V"/><path d="M.21.214C.21.86.95 1.382 1.86 1.382v6.656C.951 8.038.21 7.513.21 6.869" id="X"/><linearGradient x1="50%" y1="0%" x2="50%" y2="68.075%" id="aa"><stop stop-color="#EFEEF8" offset="0%"/><stop stop-color="#E8E6F2" offset="100%"/></linearGradient><path d="M.21.214C.21.86.95 1.382 1.86 1.382v6.656C.951 8.038.21 7.513.21 6.869" id="Z"/><linearGradient x1="50%" y1="0%" x2="50%" y2="68.075%" id="ab"><stop stop-color="#EFEEF8" offset="0%"/><stop stop-color="#E8E6F2" offset="100%"/></linearGradient><linearGradient x1="50%" y1="0%" x2="50%" y2="68.075%" id="ad"><stop stop-color="#EFEEF8" offset="0%"/><stop stop-color="#E8E6F2" offset="100%"/></linearGradient><linearGradient x1="50%" y1="0%" x2="50%" y2="68.075%" id="ae"><stop stop-color="#EFEEF8" offset="0%"/><stop stop-color="#E8E6F2" offset="100%"/></linearGradient><linearGradient x1="50%" y1="-33.701%" x2="49.876%" y2="100%" id="af"><stop stop-color="#E2E0F1" offset="0%"/><stop stop-color="#E8E6F2" offset="100%"/></linearGradient><path d="M5.99.735c.24 0 .478.013.712.04 1.769.201 2.7.53 4.31 1.51v6.656c-1.61-.981-2.541-1.31-4.31-1.512a6.478 6.478 0 0 0-.711-.038c-1.791 0-3.747.716-5.885 2.202V2.938" id="ag"/><path d="M5.99.735c.24 0 .478.013.712.04 1.769.201 2.7.53 4.31 1.51v6.656c-1.61-.981-2.541-1.31-4.31-1.512a6.478 6.478 0 0 0-.711-.038c-1.791 0-3.747.716-5.885 2.202V2.938" id="ai"/><path d="M5.99.735c.24 0 .478.013.712.04 1.769.201 2.7.53 4.31 1.51v6.656c-1.61-.981-2.541-1.31-4.31-1.512a6.478 6.478 0 0 0-.711-.038c-1.791 0-3.747.716-5.885 2.202V2.938" id="ak"/><path d="M5.99.735c.24 0 .478.013.712.04 1.769.201 2.7.53 4.31 1.51v6.656c-1.61-.981-2.541-1.31-4.31-1.512a6.478 6.478 0 0 0-.711-.038c-1.791 0-3.747.716-5.885 2.202V2.938" id="am"/><path d="M5.99.735c.24 0 .478.013.712.04 1.769.201 2.7.53 4.31 1.51v6.656c-1.61-.981-2.541-1.31-4.31-1.512a6.478 6.478 0 0 0-.711-.038c-1.791 0-3.747.716-5.885 2.202V2.938" id="ao"/><path d="M5.99.735c.24 0 .478.013.712.04 1.769.201 2.7.53 4.31 1.51v6.656c-1.61-.981-2.541-1.31-4.31-1.512a6.478 6.478 0 0 0-.711-.038c-1.791 0-3.747.716-5.885 2.202V2.938" id="aq"/><path d="M5.99.735c.24 0 .478.013.712.04 1.769.201 2.7.53 4.31 1.51v6.656c-1.61-.981-2.541-1.31-4.31-1.512a6.478 6.478 0 0 0-.711-.038c-1.791 0-3.747.716-5.885 2.202V2.938" id="as"/><linearGradient x1="50%" y1="-5.214%" x2="45.619%" y2="82.983%" id="av"><stop stop-color="#E2E0F1" offset="0%"/><stop stop-color="#E8E6F2" offset="100%"/></linearGradient><path d="M5.99.735c.24 0 .478.013.712.04 1.769.201 2.7.53 4.31 1.51v6.656c-1.61-.981-2.541-1.31-4.31-1.512a6.478 6.478 0 0 0-.711-.038c-1.791 0-3.747.716-5.885 2.202V2.938C2.244 1.453 4.2.735 5.99.735z" id="au"/><linearGradient x1="50%" y1="-33.701%" x2="49.718%" y2="100%" id="aw"><stop stop-color="#E2E0F1" offset="0%"/><stop stop-color="#E8E6F2" offset="100%"/></linearGradient><linearGradient x1="50%" y1="-33.701%" x2="49.87%" y2="100%" id="ay"><stop stop-color="#E2E0F1" offset="0%"/><stop stop-color="#E8E6F2" offset="100%"/></linearGradient><path d="M1.965.432c.366 0 .664.134 1.002.444v6.656c-.338-.31-.636-.445-1.002-.445-.398 0-.873.159-1.497.482V.914" id="az"/><path d="M1.965.432c.366 0 .664.134 1.002.444v6.656c-.338-.31-.636-.445-1.002-.445-.398 0-.873.159-1.497.482V.914" id="aB"/><path d="M1.965.432c.366 0 .664.134 1.002.444v6.656c-.338-.31-.636-.445-1.002-.445-.398 0-.873.159-1.497.482V.914" id="aD"/><path d="M1.965.432c.366 0 .664.134 1.002.444v6.656c-.338-.31-.636-.445-1.002-.445-.398 0-.873.159-1.497.482V.914" id="aF"/><path d="M1.965.432c.366 0 .664.134 1.002.444v6.656c-.338-.31-.636-.445-1.002-.445-.398 0-.873.159-1.497.482V.914" id="aH"/><path d="M1.965.432c.366 0 .664.134 1.002.444v6.656c-.338-.31-.636-.445-1.002-.445-.398 0-.873.159-1.497.482V.914" id="aJ"/><path d="M1.965.432c.366 0 .664.134 1.002.444v6.656c-.338-.31-.636-.445-1.002-.445-.398 0-.873.159-1.497.482V.914" id="aL"/><linearGradient x1="50%" y1="-33.701%" x2="49.463%" y2="100%" id="aO"><stop stop-color="#E2E0F1" offset="0%"/><stop stop-color="#E8E6F2" offset="100%"/></linearGradient><path d="M1.965.432c.366 0 .664.134 1.002.444v6.656c-.338-.31-.636-.445-1.002-.445-.398 0-.873.159-1.497.482V.914c.624-.323 1.1-.482 1.497-.482z" id="aN"/><linearGradient x1="50%" y1="-33.701%" x2="49.866%" y2="100%" id="aP"><stop stop-color="#E2E0F1" offset="0%"/><stop stop-color="#E8E6F2" offset="100%"/></linearGradient><linearGradient x1="50%" y1="-33.701%" x2="49.868%" y2="100%" id="aR"><stop stop-color="#E2E0F1" offset="0%"/><stop stop-color="#E8E6F2" offset="100%"/></linearGradient><path d="M1.027.285c.826.494 1.355.756 2.044 1.011v6.655c-.689-.255-1.218-.517-2.044-1.011" id="aS"/><linearGradient x1="50%" y1="-33.701%" x2="49.689%" y2="100%" id="aT"><stop stop-color="#E2E0F1" offset="0%"/><stop stop-color="#E8E6F2" offset="100%"/></linearGradient><path d="M.718.12c.794.306 1.704.472 2.87.553.486.03.984.053 1.47.06v6.655c-.486-.007-.984-.03-1.47-.06-1.166-.082-2.076-.247-2.87-.554" id="aV"/><path d="M.718.12c.794.306 1.704.472 2.87.553.486.03.984.053 1.47.06v6.655c-.486-.007-.984-.03-1.47-.06-1.166-.082-2.076-.247-2.87-.554" id="aX"/><path d="M.718.12c.794.306 1.704.472 2.87.553.486.03.984.053 1.47.06v6.655c-.486-.007-.984-.03-1.47-.06-1.166-.082-2.076-.247-2.87-.554" id="aZ"/><linearGradient x1="50%" y1="-33.701%" x2="48.437%" y2="100%" id="bc"><stop stop-color="#E2E0F1" offset="0%"/><stop stop-color="#E8E6F2" offset="100%"/></linearGradient><path d="M.718.12c.794.306 1.704.472 2.87.553.486.03.984.053 1.47.06v6.655c-.486-.007-.984-.03-1.47-.06-1.166-.082-2.076-.247-2.87-.554" id="bb"/><linearGradient x1="50%" y1="-33.701%" x2="49.871%" y2="100%" id="bd"><stop stop-color="#E2E0F1" offset="0%"/><stop stop-color="#E8E6F2" offset="100%"/></linearGradient><linearGradient x1="50%" y1="-33.701%" x2="49.863%" y2="100%" id="bf"><stop stop-color="#E2E0F1" offset="0%"/><stop stop-color="#E8E6F2" offset="100%"/></linearGradient><linearGradient x1="50%" y1="-33.701%" x2="49.864%" y2="100%" id="bg"><stop stop-color="#E2E0F1" offset="0%"/><stop stop-color="#E8E6F2" offset="100%"/></linearGradient><path d="M4.708 1.168v6.656C3.522 8.52 2.03 9.036.018 9.479V2.824" id="bh"/><path d="M4.708 1.168v6.656C3.522 8.52 2.03 9.036.018 9.479V2.824" id="bj"/><linearGradient x1="50%" y1="-33.701%" x2="48.604%" y2="100%" id="bm"><stop stop-color="#E2E0F1" offset="0%"/><stop stop-color="#E8E6F2" offset="100%"/></linearGradient><path d="M4.708 1.168v6.656C3.522 8.52 2.03 9.036.018 9.479V2.824" id="bl"/><linearGradient x1="50%" y1="-33.701%" x2="49.79%" y2="100%" id="bn"><stop stop-color="#E2E0F1" offset="0%"/><stop stop-color="#E8E6F2" offset="100%"/></linearGradient><linearGradient x1="50%" y1="-33.701%" x2="49.869%" y2="100%" id="bp"><stop stop-color="#E2E0F1" offset="0%"/><stop stop-color="#E8E6F2" offset="100%"/></linearGradient><path d="M1.693.613v6.654c-.233.046-.477.098-.73.15V.763" id="bq"/><linearGradient x1="50%" y1="-33.701%" x2="49.869%" y2="100%" id="br"><stop stop-color="#E2E0F1" offset="0%"/><stop stop-color="#E8E6F2" offset="100%"/></linearGradient><linearGradient x1="50%" y1="-33.701%" x2="49.841%" y2="100%" id="bt"><stop stop-color="#E2E0F1" offset="0%"/><stop stop-color="#E8E6F2" offset="100%"/></linearGradient><linearGradient x1="50%" y1="-33.701%" x2="49.948%" y2="100%" id="bu"><stop stop-color="#E2E0F1" offset="0%"/><stop stop-color="#E8E6F2" offset="100%"/></linearGradient><path d="M.344.508c.052.42.412.778.952.958 3.706 1.226 6.562 1.838 8.712 1.838.4 0 .773-.022 1.125-.063C13.6 2.948 15.326 2.185 16.12.994V7.65c-.794 1.191-2.52 1.955-4.987 2.246a9.413 9.413 0 0 1-1.125.064c-2.15 0-5.006-.613-8.712-1.838-.54-.18-.9-.539-.952-.957L.34 7.12.339.422" id="bv"/><path d="M.344.508c.052.42.412.778.952.958 3.706 1.226 6.562 1.838 8.712 1.838.4 0 .773-.022 1.125-.063C13.6 2.948 15.326 2.185 16.12.994V7.65c-.794 1.191-2.52 1.955-4.987 2.246a9.413 9.413 0 0 1-1.125.064c-2.15 0-5.006-.613-8.712-1.838-.54-.18-.9-.539-.952-.957L.34 7.12.339.422" id="bx"/><path d="M.344.508c.052.42.412.778.952.958 3.706 1.226 6.562 1.838 8.712 1.838.4 0 .773-.022 1.125-.063C13.6 2.948 15.326 2.185 16.12.994V7.65c-.794 1.191-2.52 1.955-4.987 2.246a9.413 9.413 0 0 1-1.125.064c-2.15 0-5.006-.613-8.712-1.838-.54-.18-.9-.539-.952-.957L.34 7.12.339.422" id="bz"/><path d="M.344.508c.052.42.412.778.952.958 3.706 1.226 6.562 1.838 8.712 1.838.4 0 .773-.022 1.125-.063C13.6 2.948 15.326 2.185 16.12.994V7.65c-.794 1.191-2.52 1.955-4.987 2.246a9.413 9.413 0 0 1-1.125.064c-2.15 0-5.006-.613-8.712-1.838-.54-.18-.9-.539-.952-.957L.34 7.12.339.422" id="bB"/><path d="M.344.508c.052.42.412.778.952.958 3.706 1.226 6.562 1.838 8.712 1.838.4 0 .773-.022 1.125-.063C13.6 2.948 15.326 2.185 16.12.994V7.65c-.794 1.191-2.52 1.955-4.987 2.246a9.413 9.413 0 0 1-1.125.064c-2.15 0-5.006-.613-8.712-1.838-.54-.18-.9-.539-.952-.957L.34 7.12.339.422" id="bD"/><path d="M.344.508c.052.42.412.778.952.958 3.706 1.226 6.562 1.838 8.712 1.838.4 0 .773-.022 1.125-.063C13.6 2.948 15.326 2.185 16.12.994V7.65c-.794 1.191-2.52 1.955-4.987 2.246a9.413 9.413 0 0 1-1.125.064c-2.15 0-5.006-.613-8.712-1.838-.54-.18-.9-.539-.952-.957L.34 7.12.339.422" id="bF"/><path d="M.344.508c.052.42.412.778.952.958 3.706 1.226 6.562 1.838 8.712 1.838.4 0 .773-.022 1.125-.063C13.6 2.948 15.326 2.185 16.12.994V7.65c-.794 1.191-2.52 1.955-4.987 2.246a9.413 9.413 0 0 1-1.125.064c-2.15 0-5.006-.613-8.712-1.838-.54-.18-.9-.539-.952-.957L.34 7.12.339.422" id="bH"/><path d="M.344.508c.052.42.412.778.952.958 3.706 1.226 6.562 1.838 8.712 1.838.4 0 .773-.022 1.125-.063C13.6 2.948 15.326 2.185 16.12.994V7.65c-.794 1.191-2.52 1.955-4.987 2.246a9.413 9.413 0 0 1-1.125.064c-2.15 0-5.006-.613-8.712-1.838-.54-.18-.9-.539-.952-.957L.34 7.12.339.422" id="bJ"/><linearGradient x1="50%" y1="19.435%" x2="45.619%" y2="68.259%" id="bM"><stop stop-color="#E2E0F1" offset="0%"/><stop stop-color="#E8E6F2" offset="100%"/></linearGradient><path d="M.344.508c.052.42.412.778.952.958 3.706 1.226 6.562 1.838 8.712 1.838.4 0 .773-.022 1.125-.063C13.6 2.948 15.326 2.185 16.12.994V7.65c-.794 1.191-2.52 1.955-4.987 2.246a9.413 9.413 0 0 1-1.125.064c-2.15 0-5.006-.613-8.712-1.838-.54-.18-.9-.539-.952-.957L.34 7.12.339.422" id="bL"/><linearGradient x1="50%" y1="-33.701%" x2="49.234%" y2="100%" id="bN"><stop stop-color="#E2E0F1" offset="0%"/><stop stop-color="#E8E6F2" offset="100%"/></linearGradient><path d="M.954.228v6.656c-.01.329-.212.629-.54.845V1.075" id="bP"/><path d="M.954.228v6.656c-.01.329-.212.629-.54.845V1.075" id="bR"/><path d="M.954.228v6.656c-.01.329-.212.629-.54.845V1.075" id="bT"/><linearGradient x1="50%" y1="-33.701%" x2="49.892%" y2="100%" id="bW"><stop stop-color="#E2E0F1" offset="0%"/><stop stop-color="#E8E6F2" offset="100%"/></linearGradient><path d="M.954.228v6.656c-.01.329-.212.629-.54.845V1.075" id="bV"/><linearGradient x1="50%" y1="-33.701%" x2="49.815%" y2="100%" id="bX"><stop stop-color="#E2E0F1" offset="0%"/><stop stop-color="#E8E6F2" offset="100%"/></linearGradient><linearGradient x1="50%" y1="-33.701%" x2="49.804%" y2="100%" id="bZ"><stop stop-color="#E2E0F1" offset="0%"/><stop stop-color="#E8E6F2" offset="100%"/></linearGradient><linearGradient x1="50%" y1="-33.701%" x2="49.803%" y2="100%" id="ca"><stop stop-color="#E2E0F1" offset="0%"/><stop stop-color="#E8E6F2" offset="100%"/></linearGradient><path d="M.004.326c.052.367.349.696.794.883.263.113.56.17.856.17.275 0 .55-.05.795-.147v6.655c-.245.098-.52.146-.795.146a2.21 2.21 0 0 1-.856-.168C.353 7.678.056 7.348.004 6.98" id="cb"/><path d="M.004.326c.052.367.349.696.794.883.263.113.56.17.856.17.275 0 .55-.05.795-.147v6.655c-.245.098-.52.146-.795.146a2.21 2.21 0 0 1-.856-.168C.353 7.678.056 7.348.004 6.98" id="cd"/><path d="M.004.326c.052.367.349.696.794.883.263.113.56.17.856.17.275 0 .55-.05.795-.147v6.655c-.245.098-.52.146-.795.146a2.21 2.21 0 0 1-.856-.168C.353 7.678.056 7.348.004 6.98" id="cf"/><path d="M.004.326c.052.367.349.696.794.883.263.113.56.17.856.17.275 0 .55-.05.795-.147v6.655c-.245.098-.52.146-.795.146a2.21 2.21 0 0 1-.856-.168C.353 7.678.056 7.348.004 6.98" id="ch"/><path d="M.004.326c.052.367.349.696.794.883.263.113.56.17.856.17.275 0 .55-.05.795-.147v6.655c-.245.098-.52.146-.795.146a2.21 2.21 0 0 1-.856-.168C.353 7.678.056 7.348.004 6.98" id="cj"/><linearGradient x1="50%" y1="-33.701%" x2="49.385%" y2="100%" id="cm"><stop stop-color="#E2E0F1" offset="0%"/><stop stop-color="#E8E6F2" offset="100%"/></linearGradient><path d="M.004.326c.052.367.349.696.794.883.263.113.56.17.856.17.275 0 .55-.05.795-.147V6.71c-.245.097-.52.145-.795.145a2.21 2.21 0 0 1-.856-.168c-.445-.187-.742-.516-.794-.883" id="cl"/><linearGradient x1="50%" y1="-33.701%" x2="49.854%" y2="100%" id="cn"><stop stop-color="#E2E0F1" offset="0%"/><stop stop-color="#E8E6F2" offset="100%"/></linearGradient><path d="M15.98.97v6.656c0 .27-.099.546-.308.774-4.087 4.402-9.847 7.113-14.59 7.262V9.007c4.743-.15 10.503-2.86 14.59-7.261.21-.228.308-.506.308-.775z" id="cp"/><path d="M15.98.97v6.656c0 .27-.099.546-.308.774-4.087 4.402-9.847 7.113-14.59 7.262V9.007c4.743-.15 10.503-2.86 14.59-7.261" id="cr"/><linearGradient x1="50%" y1="0%" x2="50%" y2="68.075%" id="ct"><stop stop-color="#EFEEF8" offset="0%"/><stop stop-color="#E8E6F2" offset="100%"/></linearGradient><path d="M15.98.97v5.48c0 .269-.099.545-.308.774-4.087 4.402-9.847 7.112-14.59 7.262V9.007c4.743-.15 10.503-2.86 14.59-7.261" id="cs"/><linearGradient x1="50%" y1="0%" x2="50%" y2="68.075%" id="cu"><stop stop-color="#EFEEF8" offset="0%"/><stop stop-color="#E8E6F2" offset="100%"/></linearGradient><linearGradient x1="50%" y1="0%" x2="50%" y2="68.075%" id="cx"><stop stop-color="#EFEEF8" offset="0%"/><stop stop-color="#E8E6F2" offset="100%"/></linearGradient><path d="M1.126.946c0 .643.741 1.167 1.652 1.167l.063 5.41c-.91 0-1.652-.524-1.652-1.17" id="cw"/><linearGradient x1="50%" y1="0%" x2="50%" y2="68.075%" id="cy"><stop stop-color="#EFEEF8" offset="0%"/><stop stop-color="#E8E6F2" offset="100%"/></linearGradient><linearGradient x1="50%" y1="0%" x2="50%" y2="68.075%" id="cA"><stop stop-color="#EFEEF8" offset="0%"/><stop stop-color="#E8E6F2" offset="100%"/></linearGradient></defs><g fill="none" fill-rule="evenodd"><path fill="#FFF" fill-rule="nonzero" d="M25.148 6.506L.455 18.123v18.662l1.855 2.944 22.838 10.8h2.111l24.22-11.854 1.696-2.67v-16.22l-.683-1.662L27 6.506z"/><path fill="#F7F6FD" d="M27 33.745l25.492-11.96v16.936L27 50.72z"/><path d="M52.158 21.906L26.804 33.19a1.01 1.01 0 0 1-.833-.006L1.46 21.892a1.01 1.01 0 0 1-.005-1.832L24.858 9.131a3.67 3.67 0 0 1 3.065-.02l24.24 10.953a1.01 1.01 0 0 1-.005 1.842zM26.488 33.795v16.734" stroke="#E7E6F1" stroke-width="1.112" fill-rule="nonzero"/><path d="M52.752 21.13l.177 14.426a4.038 4.038 0 0 1-2.28 3.685L28.112 50.142a4.038 4.038 0 0 1-3.47.022L3.267 40.157A4.038 4.038 0 0 1 .941 36.5V21.358" stroke="#E7E6F1" stroke-width="1.112" fill-rule="nonzero"/><g transform="translate(7 2)"><mask id="c" fill="#fff"><use xlink:href="#a"/></mask><path fill="url(#b)" mask="url(#c)" d="M8.4 9.38h22.87V2.725H8.4z"/><g mask="url(#c)"><g transform="translate(7.059 7.503)"><mask id="e" fill="#fff"><use xlink:href="#d"/></mask><path d="M1.341.41v6.677V.433.411" fill="#312675" mask="url(#e)"/></g><g transform="translate(7.059 7.503)"><mask id="g" fill="#fff"><use xlink:href="#f"/></mask><path d="M1.34.433v6.655a.77.77 0 0 1-.02.165V.597a.78.78 0 0 0 .02-.164" fill="#322779" mask="url(#g)"/></g><g transform="translate(7.059 7.503)"><mask id="i" fill="#fff"><use xlink:href="#h"/></mask><path d="M1.32.597v6.655a.906.906 0 0 1-.062.18V.777a.881.881 0 0 0 .062-.18" fill="#34287D" mask="url(#i)"/></g><g transform="translate(7.059 7.503)"><mask id="k" fill="#fff"><use xlink:href="#j"/></mask><path d="M1.257.777v6.656a1.08 1.08 0 0 1-.16.242V1.02a1.03 1.03 0 0 0 .16-.243" fill="#362A81" mask="url(#k)"/></g><g transform="translate(7.059 7.503)"><mask id="m" fill="#fff"><use xlink:href="#l"/></mask><path d="M1.098 1.02v6.655c-.12.137-.278.255-.464.347V1.367c.186-.092.344-.21.464-.347" fill="#372B85" mask="url(#m)"/></g><g transform="translate(7.059 7.503)"><mask id="o" fill="#fff"><use xlink:href="#n"/></mask><path d="M.635 1.367v6.656a1.989 1.989 0 0 1-.338.129V1.497c.12-.034.233-.078.338-.13" fill="#362A81" mask="url(#o)"/></g><g transform="translate(7.059 7.503)"><mask id="s" fill="#fff"><use xlink:href="#p"/></mask><use fill="url(#q)" xlink:href="#p"/><path d="M.297 1.497v6.655a2.42 2.42 0 0 1-.238.053V1.548c.083-.013.161-.03.238-.051" fill="url(#r)" mask="url(#s)"/></g></g><path fill="url(#t)" mask="url(#c)" d="M7.118 9.052v6.655l-.19.022V9.074z"/><g mask="url(#c)"><g transform="translate(4.706 7.503)"><mask id="v" fill="#fff"><use xlink:href="#u"/></mask><path d="M2.042 1.579v6.655l-.1-.002V1.578h.1" fill="#312675" mask="url(#v)"/></g><g transform="translate(4.706 7.503)"><mask id="x" fill="#fff"><use xlink:href="#w"/></mask><path d="M1.942 1.577v6.655a2.53 2.53 0 0 1-.235-.022V1.555c.076.011.155.019.235.022" fill="#2F2471" mask="url(#x)"/></g><use fill="url(#z)" xlink:href="#y" transform="translate(4.706 7.503)"/></g><path fill="url(#A)" mask="url(#c)" d="M6.928 9.074v6.655l-.18.009V9.08z"/><g mask="url(#c)"><g transform="translate(31.765 8.68)"><mask id="C" fill="#fff"><use xlink:href="#B"/></mask><path d="M2.809.507V7.202.546.507" fill="#312675" mask="url(#C)"/></g><g transform="translate(31.765 8.68)"><mask id="E" fill="#fff"><use xlink:href="#D"/></mask><path d="M2.808.546V7.2a1.488 1.488 0 0 1-.036.29V.839c.021-.096.034-.193.036-.292" fill="#322779" mask="url(#E)"/></g><g transform="translate(31.765 8.68)"><mask id="G" fill="#fff"><use xlink:href="#F"/></mask><path d="M2.772.837v6.655c-.025.11-.062.216-.11.318V1.156c.048-.104.085-.21.11-.319" fill="#34287D" mask="url(#G)"/></g><g transform="translate(31.765 8.68)"><mask id="I" fill="#fff"><use xlink:href="#H"/></mask><path d="M2.661 1.155v6.656a1.834 1.834 0 0 1-.284.43V1.586c.117-.134.213-.279.284-.43" fill="#362A81" mask="url(#I)"/></g><g transform="translate(31.765 8.68)"><mask id="K" fill="#fff"><use xlink:href="#J"/></mask><path d="M2.376 1.586v6.656a2.591 2.591 0 0 1-.808.604V2.191c.324-.16.6-.366.808-.605" fill="#372B85" mask="url(#K)"/></g><g transform="translate(31.765 8.68)"><mask id="M" fill="#fff"><use xlink:href="#L"/></mask><path d="M1.569 2.191v6.655c-.181.09-.377.165-.585.224V2.415c.208-.06.404-.135.585-.224" fill="#362A81" mask="url(#M)"/></g><g transform="translate(31.765 8.68)"><mask id="O" fill="#fff"><use xlink:href="#N"/></mask><path d="M.984 2.415V9.07c-.14.039-.286.07-.435.094V2.51c.149-.024.295-.057.435-.095" fill="#34287D" mask="url(#O)"/></g><g transform="translate(31.765 8.68)"><mask id="S" fill="#fff"><use xlink:href="#P"/></mask><use fill="url(#Q)" xlink:href="#P"/><path d="M.548 2.51v6.655c-.129.02-.262.034-.396.04V2.553c.134-.009.267-.023.396-.043" fill="url(#R)" mask="url(#S)"/></g></g><path d="M6.748 9.081c-.847 0-1.546-.456-1.641-1.04l-.01-.128v-5.48C5.096 1.363 6.27.48 7.753.397L7.997.39h23.676c1.524 0 2.774.823 2.89 1.878l.01.165v6.753c0 1.079-1.175 1.962-2.657 2.045l-.243.007H18.33c-.91 0-1.651-.524-1.651-1.168 0-.606.646-1.1 1.471-1.16l.18-.007h12.94V2.725H8.4v5.188c0 .555-.55 1.019-1.282 1.139l-.19.022-.18.007z" fill="#CECBE1" mask="url(#c)"/><g mask="url(#c)"><g transform="translate(16.47 9.856)"><mask id="U" fill="#fff"><use xlink:href="#T"/></mask><path d="M1.861 1.382v6.656c-.034 0-.068-.002-.101-.003V1.38c.033.002.067.002.101.002" fill="#312675" mask="url(#U)"/></g><g transform="translate(16.47 9.856)"><mask id="W" fill="#fff"><use xlink:href="#V"/></mask><path d="M1.76 1.38v6.655a2.582 2.582 0 0 1-.238-.022V1.358c.078.011.157.018.238.022" fill="#2F2471" mask="url(#W)"/></g><g transform="translate(16.47 9.856)"><mask id="Y" fill="#fff"><use xlink:href="#X"/></mask><path d="M1.523 1.358v6.655a2.14 2.14 0 0 1-.27-.058V1.3c.086.025.177.043.27.058" fill="#2D236D" mask="url(#Y)"/></g><g transform="translate(16.47 9.856)"><mask id="ac" fill="#fff"><use xlink:href="#Z"/></mask><use fill="url(#aa)" xlink:href="#Z"/><path d="M1.253 1.3v6.655C.643 7.784.209 7.361.209 6.87V.214c0 .493.433.914 1.044 1.086" fill="url(#ab)" mask="url(#ac)"/></g></g><path fill="url(#ad)" mask="url(#c)" d="M18.332 17.893h13.34v-6.655h-13.34z"/><path fill="url(#ae)" mask="url(#c)" d="M31.916 11.23v6.656l-.243.007v-6.655z"/><path fill="url(#af)" mask="url(#c)" d="M15.145 14.847v6.655l-.604-.352v-6.655z"/><g mask="url(#c)"><g transform="translate(3.53 12.209)"><mask id="ah" fill="#fff"><use xlink:href="#ag"/></mask><path d="M11.011 2.286v6.656c-.989-.604-1.723-.961-2.553-1.193V1.094c.83.232 1.564.589 2.553 1.192" fill="#2C2269" mask="url(#ah)"/></g><g transform="translate(3.53 12.209)"><mask id="aj" fill="#fff"><use xlink:href="#ai"/></mask><path d="M8.458 1.093V7.75A9.477 9.477 0 0 0 7.251 7.5V.845c.442.065.835.145 1.207.248" fill="#2D236D" mask="url(#aj)"/></g><g transform="translate(3.53 12.209)"><mask id="al" fill="#fff"><use xlink:href="#ak"/></mask><path d="M7.25.845V7.5a14.71 14.71 0 0 0-.548-.07 5.76 5.76 0 0 0-.43-.034V.741c.146.006.288.018.43.033.192.021.374.046.548.07" fill="#2F2471" mask="url(#al)"/></g><g transform="translate(3.53 12.209)"><mask id="an" fill="#fff"><use xlink:href="#am"/></mask><path d="M6.273.741v6.655a6.692 6.692 0 0 0-.658.005V.746A6.692 6.692 0 0 1 6.274.74" fill="#312675" mask="url(#an)"/></g><g transform="translate(3.53 12.209)"><mask id="ap" fill="#fff"><use xlink:href="#ao"/></mask><path d="M5.616.746V7.4a7.19 7.19 0 0 0-.732.078V.823a7.19 7.19 0 0 1 .732-.077" fill="#322779" mask="url(#ap)"/></g><g transform="translate(3.53 12.209)"><mask id="ar" fill="#fff"><use xlink:href="#aq"/></mask><path d="M4.884.823V7.48c-.315.049-.635.12-.96.211V1.035c.325-.092.645-.162.96-.212" fill="#34287D" mask="url(#ar)"/></g><g transform="translate(3.53 12.209)"><mask id="at" fill="#fff"><use xlink:href="#as"/></mask><path d="M3.924 1.035v6.656a10.63 10.63 0 0 0-1.83.715V1.75a10.63 10.63 0 0 1 1.83-.716" fill="#362A81" mask="url(#at)"/></g><g transform="translate(3.53 12.209)"><mask id="ax" fill="#fff"><use xlink:href="#au"/></mask><use fill="url(#av)" xlink:href="#au"/><path d="M2.094 1.75v6.656C1.449 8.725.787 9.12.105 9.593V2.938A15.731 15.731 0 0 1 2.094 1.75" fill="url(#aw)" mask="url(#ax)"/></g></g><path fill="url(#ay)" mask="url(#c)" d="M3.635 15.146V21.8l-.233.165V15.31z"/><g mask="url(#c)"><g transform="translate(32.941 14.562)"><mask id="aA" fill="#fff"><use xlink:href="#az"/></mask><path d="M2.967.877v6.655c-.226-.208-.434-.338-.658-.4V.477c.224.062.432.192.658.4" fill="#2C2269" mask="url(#aA)"/></g><g transform="translate(32.941 14.562)"><mask id="aC" fill="#fff"><use xlink:href="#aB"/></mask><path d="M2.31.477v6.655a1.073 1.073 0 0 0-.15-.032V.445c.052.007.1.018.15.032" fill="#2D236D" mask="url(#aC)"/></g><g transform="translate(32.941 14.562)"><mask id="aE" fill="#fff"><use xlink:href="#aD"/></mask><path d="M2.16.445v6.656a1.262 1.262 0 0 0-.134-.013V.432c.046.003.09.008.134.013" fill="#2F2471" mask="url(#aE)"/></g><g transform="translate(32.941 14.562)"><mask id="aG" fill="#fff"><use xlink:href="#aF"/></mask><path d="M2.026.433v6.655l-.061-.001c-.029 0-.057 0-.086.002V.434l.086-.002h.06" fill="#312675" mask="url(#aG)"/></g><g transform="translate(32.941 14.562)"><mask id="aI" fill="#fff"><use xlink:href="#aH"/></mask><path d="M1.88.434v6.655c-.06.004-.12.01-.182.019V.454c.063-.01.123-.018.181-.02" fill="#322779" mask="url(#aI)"/></g><g transform="translate(32.941 14.562)"><mask id="aK" fill="#fff"><use xlink:href="#aJ"/></mask><path d="M1.698.453V7.11c-.089.013-.18.034-.277.06V.517c.096-.028.188-.048.277-.063" fill="#34287D" mask="url(#aK)"/></g><g transform="translate(32.941 14.562)"><mask id="aM" fill="#fff"><use xlink:href="#aL"/></mask><path d="M1.42.515v6.656c-.236.066-.5.173-.797.32V.835c.297-.147.561-.253.797-.32" fill="#362A81" mask="url(#aM)"/></g><g transform="translate(32.941 14.562)"><mask id="aQ" fill="#fff"><use xlink:href="#aN"/></mask><use fill="url(#aO)" xlink:href="#aN"/><path d="M.623.836v6.655c-.051.025-.103.05-.155.078V.914L.623.836" fill="url(#aP)" mask="url(#aQ)"/></g></g><path fill="url(#aR)" mask="url(#c)" d="M33.41 15.476v6.655l-.234.127v-6.655z"/><path fill="url(#aR)" mask="url(#c)" d="M33.176 15.603v6.655l-.233.128V15.73z"/><g mask="url(#c)"><g transform="translate(14.118 14.562)"><mask id="aU" fill="#fff"><use xlink:href="#aS"/></mask><path d="M3.07 1.296v6.655c-.688-.255-1.217-.516-2.043-1.011V.286c.826.494 1.355.756 2.043 1.01" fill="url(#aT)" mask="url(#aU)"/></g></g><g mask="url(#c)"><g transform="translate(16.47 15.738)"><mask id="aW" fill="#fff"><use xlink:href="#aV"/></mask><path d="M5.058.733v6.655a27.838 27.838 0 0 1-.763-.022V.711c.255.01.51.019.763.022" fill="#312675" mask="url(#aW)"/></g><g transform="translate(16.47 15.738)"><mask id="aY" fill="#fff"><use xlink:href="#aX"/></mask><path d="M4.294.71v6.656c-.236-.01-.472-.024-.708-.038a14.896 14.896 0 0 1-1.139-.12V.553c.352.053.731.092 1.14.12.235.014.471.027.707.038" fill="#2F2471" mask="url(#aY)"/></g><g transform="translate(16.47 15.738)"><mask id="ba" fill="#fff"><use xlink:href="#aZ"/></mask><path d="M2.447.553V7.21a9.041 9.041 0 0 1-1.121-.233V.32c.347.098.717.175 1.12.233" fill="#2D236D" mask="url(#ba)"/></g><g transform="translate(16.47 15.738)"><mask id="be" fill="#fff"><use xlink:href="#bb"/></mask><use fill="url(#bc)" xlink:href="#bb"/><path d="M1.326.32v6.656a6.602 6.602 0 0 1-.61-.201V.12c.196.075.398.142.61.2" fill="url(#bd)" mask="url(#be)"/></g></g><path fill="url(#bf)" mask="url(#c)" d="M21.784 16.479v6.655l-.255-.007v-6.655z"/><path fill="url(#bg)" mask="url(#c)" d="M22.387 16.51v6.654l-.604-.03v-6.656z"/><g mask="url(#c)"><g transform="translate(28.235 14.562)"><mask id="bi" fill="#fff"><use xlink:href="#bh"/></mask><path d="M4.708 1.169v6.655a9.888 9.888 0 0 1-.619.333V1.502c.215-.106.421-.217.619-.333" fill="#372B85" mask="url(#bi)"/></g><g transform="translate(28.235 14.562)"><mask id="bk" fill="#fff"><use xlink:href="#bj"/></mask><path d="M4.09 1.502v6.655c-.725.358-1.557.665-2.532.94V2.442c.975-.276 1.807-.583 2.531-.94" fill="#362A81" mask="url(#bk)"/></g><g transform="translate(28.235 14.562)"><mask id="bo" fill="#fff"><use xlink:href="#bl"/></mask><use fill="url(#bm)" xlink:href="#bl"/><path d="M1.557 2.442v6.655c-.477.134-.99.26-1.54.381V2.823c.55-.12 1.063-.247 1.54-.381" fill="url(#bn)" mask="url(#bo)"/></g></g><path fill="url(#bp)" mask="url(#c)" d="M28.253 17.385v6.655l-.678.142v-6.655z"/><g mask="url(#c)"><g transform="translate(25.882 16.914)"><mask id="bs" fill="#fff"><use xlink:href="#bq"/></mask><path d="M1.693.612v6.656c-.233.044-.477.097-.73.15V.761c.253-.052.497-.105.73-.15" fill="url(#br)" mask="url(#bs)"/></g></g><path fill="url(#bt)" mask="url(#c)" d="M26.844 17.677v6.655l-1.313.232v-6.655z"/><path fill="url(#bu)" mask="url(#c)" d="M3.402 15.31v6.656l-.095 4.185v-6.654z"/><g mask="url(#c)"><g transform="translate(9.412 16.914)"><mask id="bw" fill="#fff"><use xlink:href="#bv"/></mask><path d="M16.12.995V7.65a3.17 3.17 0 0 1-.247.322V1.317a3.17 3.17 0 0 0 .247-.322" fill="#362A81" mask="url(#bw)"/></g><g transform="translate(9.412 16.914)"><mask id="by" fill="#fff"><use xlink:href="#bx"/></mask><path d="M15.873 1.317v6.655c-.35.402-.819.747-1.399 1.034V2.351c.58-.287 1.05-.633 1.4-1.034" fill="#372B85" mask="url(#by)"/></g><g transform="translate(9.412 16.914)"><mask id="bA" fill="#fff"><use xlink:href="#bz"/></mask><path d="M14.474 2.35v6.656c-.4.198-.853.367-1.356.508V2.86a7.965 7.965 0 0 0 1.356-.51" fill="#362A81" mask="url(#bA)"/></g><g transform="translate(9.412 16.914)"><mask id="bC" fill="#fff"><use xlink:href="#bB"/></mask><path d="M13.118 2.86v6.655c-.43.121-.898.221-1.4.3V3.16c.502-.08.97-.18 1.4-.3" fill="#34287D" mask="url(#bC)"/></g><g transform="translate(9.412 16.914)"><mask id="bE" fill="#fff"><use xlink:href="#bD"/></mask><path d="M11.719 3.16v6.656c-.191.029-.386.056-.586.08-.18.022-.367.037-.56.048V3.288c.193-.01.38-.027.56-.048.2-.023.395-.05.586-.08" fill="#322779" mask="url(#bE)"/></g><g transform="translate(9.412 16.914)"><mask id="bG" fill="#fff"><use xlink:href="#bF"/></mask><path d="M10.574 3.289v6.655a11.042 11.042 0 0 1-1.09.004V3.292a11.018 11.018 0 0 0 1.09-.004" fill="#312675" mask="url(#bG)"/></g><g transform="translate(9.412 16.914)"><mask id="bI" fill="#fff"><use xlink:href="#bH"/></mask><path d="M9.483 3.292v6.656c-.53-.024-1.1-.08-1.71-.17V3.123c.61.09 1.18.146 1.71.17" fill="#2F2471" mask="url(#bI)"/></g><g transform="translate(9.412 16.914)"><mask id="bK" fill="#fff"><use xlink:href="#bJ"/></mask><path d="M7.773 3.123v6.655c-1.145-.168-2.434-.455-3.881-.86V2.263c1.447.405 2.736.692 3.88.86" fill="#2D236D" mask="url(#bK)"/></g><g transform="translate(9.412 16.914)"><mask id="bO" fill="#fff"><use xlink:href="#bL"/></mask><use fill="url(#bM)" xlink:href="#bL"/><path d="M3.892 2.263v6.655a58.586 58.586 0 0 1-2.596-.797c-.54-.18-.9-.54-.952-.958a.7.7 0 0 1-.005-.086V.422a.7.7 0 0 0 .005.086c.052.418.412.778.952.958.917.303 1.782.569 2.596.797" fill="url(#bN)" mask="url(#bO)"/></g></g><g mask="url(#c)"><g transform="translate(2.353 19.267)"><mask id="bQ" fill="#fff"><use xlink:href="#bP"/></mask><path d="M.954.229v6.655a.83.83 0 0 1-.021.162V.391A.83.83 0 0 0 .954.23" fill="#322779" mask="url(#bQ)"/></g><g transform="translate(2.353 19.267)"><mask id="bS" fill="#fff"><use xlink:href="#bR"/></mask><path d="M.933.391v6.656a.86.86 0 0 1-.064.182V.574A.86.86 0 0 0 .933.39" fill="#34287D" mask="url(#bS)"/></g><g transform="translate(2.353 19.267)"><mask id="bU" fill="#fff"><use xlink:href="#bT"/></mask><path d="M.87.574v6.655c-.042.087-.097.17-.164.249V.822C.773.745.828.662.87.574" fill="#362A81" mask="url(#bU)"/></g><g transform="translate(2.353 19.267)"><mask id="bY" fill="#fff"><use xlink:href="#bV"/></mask><use fill="url(#bW)" xlink:href="#bV"/><path d="M.706 6.301c-.08.092-.179.178-.292.253V1.075A1.43 1.43 0 0 0 .706.822v5.48z" fill="url(#bX)" mask="url(#bY)"/></g></g><path fill="url(#bZ)" mask="url(#c)" d="M2.767 20.342v5.48l-.148.082v-5.48z"/><path fill="url(#ca)" mask="url(#c)" d="M2.619 20.424v5.48l-.17.075v-5.48z"/><g mask="url(#c)"><g transform="translate(0 19.267)"><mask id="cc" fill="#fff"><use xlink:href="#cb"/></mask><path d="M2.45 1.232v6.655a2.062 2.062 0 0 1-.194.065V1.296c.066-.017.13-.04.193-.064" fill="#362A81" mask="url(#cc)"/></g><g transform="translate(0 19.267)"><mask id="ce" fill="#fff"><use xlink:href="#cd"/></mask><path d="M2.257 1.297v6.655c-.08.022-.164.04-.247.054V1.351c.083-.013.167-.03.247-.054" fill="#34287D" mask="url(#ce)"/></g><g transform="translate(0 19.267)"><mask id="cg" fill="#fff"><use xlink:href="#cf"/></mask><path d="M2.01 1.35v6.656c-.075.012-.152.02-.228.024V1.375a2.46 2.46 0 0 0 .228-.024" fill="#322779" mask="url(#cg)"/></g><g transform="translate(0 19.267)"><mask id="ci" fill="#fff"><use xlink:href="#ch"/></mask><path d="M1.781 1.375V8.03a2.29 2.29 0 0 1-.227.001V1.376a2.77 2.77 0 0 0 .227-.001" fill="#312675" mask="url(#ci)"/></g><g transform="translate(0 19.267)"><mask id="ck" fill="#fff"><use xlink:href="#cj"/></mask><path d="M1.554 1.376v6.655a2.688 2.688 0 0 1-.238-.022V1.354c.078.011.158.018.238.022" fill="#2F2471" mask="url(#ck)"/></g><g transform="translate(0 19.267)"><mask id="co" fill="#fff"><use xlink:href="#cl"/></mask><use fill="url(#cm)" xlink:href="#cl"/><path d="M1.044 6.775a1.9 1.9 0 0 1-.246-.087C.353 6.5.057 6.17.004 5.806V.326c.053.367.35.696.794.883.079.034.16.062.246.087v5.479z" fill="url(#cn)" mask="url(#co)"/></g></g><g mask="url(#c)"><g transform="translate(23.53 14.562)"><mask id="cq" fill="#fff"><use xlink:href="#cp"/></mask><path fill="#312675" mask="url(#cq)" d="M15.98.97v6.686V.998z"/></g><g transform="translate(23.53 14.562)"><mask id="cv" fill="#fff"><use xlink:href="#cs"/></mask><use fill="url(#ct)" xlink:href="#cs"/><path d="M1.402 8.994v6.655c-.107.006-.214.01-.321.013V9.008c.107-.004.214-.008.321-.014" fill="url(#cu)" mask="url(#cv)"/></g></g><path d="M39.201 16.307c-4.087 4.402-9.847 7.112-14.59 7.262l-21.833.164c-.911 0-1.652-.523-1.652-1.168 0-.606.646-1.1 1.472-1.16l.169-.007 21.43-.158c2.944 0 6.84-1.878 11.457-5.6l.254-.202c-.338-.31-.636-.445-1.002-.445-.398 0-.873.16-1.497.483l-.233.127-.233.127c-1.185.696-2.678 1.213-4.69 1.655l-.678.142c-.233.045-.476.098-.73.15l-1.313.232c-.794 1.19-2.52 1.954-4.987 2.247a9.66 9.66 0 0 1-1.125.062c-2.15 0-5.006-.612-8.712-1.838-.54-.18-.9-.538-.953-.957-.042-.412.223-.817.71-1.057.276-.139.605-.21.937-.21.24 0 .481.037.704.113 3.24 1.068 5.73 1.614 7.279 1.614.222 0 .425-.01.609-.033 1.599-.188 2.404-.54 2.658-1.14l.042-.126-.307-.075-.604-.03-.254-.008c-.487-.007-.984-.03-1.471-.06-1.165-.081-2.076-.247-2.87-.553-.688-.255-1.218-.518-2.043-1.012l-.604-.352c-1.61-.98-2.541-1.309-4.31-1.511a6.478 6.478 0 0 0-.711-.04c-1.79 0-3.747.717-5.885 2.203l-.233.165-.095 4.185c-.01.33-.212.63-.54.847l-.148.082-.17.074c-.246.098-.52.146-.795.146a2.19 2.19 0 0 1-.856-.168c-.445-.187-.742-.517-.795-.884v-.134l.117-4.987.106-.194.328-.248c3.01-2.265 5.987-3.425 8.93-3.425.424 0 .845.024 1.266.072 2.266.254 3.685.726 5.56 1.812l.38.224.276.164c.836.51 1.25.72 1.779.921.328.12.751.21 1.334.262l.656.045.932.03c2.668.083 3.822.368 4.225 1.296l.54-.105.836-.172c1.44-.315 2.52-.667 3.325-1.085l.265-.143c1.465-.852 2.997-1.27 4.368-1.27 1.943 0 3.562.84 4.208 2.475.148.374.085.832-.233 1.176z" fill="#CECBE1" mask="url(#c)"/><g mask="url(#c)"><g transform="translate(0 21.62)"><mask id="cz" fill="#fff"><use xlink:href="#cw"/></mask><use fill="url(#cx)" xlink:href="#cw"/><path d="M2.233 8.617c-.61-.172-1.044-.594-1.044-1.086V1.208c0 .491.433.914 1.044 1.085v6.324z" fill="url(#cy)" mask="url(#cz)"/></g></g><path fill="url(#cA)" mask="url(#c)" d="M24.61 23.57v5.478l-21.77.095-.063-5.41z"/></g></g></svg>
