<svg width="54" height="54" viewBox="0 0 54 54" xmlns="http://www.w3.org/2000/svg" xmlns:xlink="http://www.w3.org/1999/xlink"><defs><path id="a" d="M0 .39h39.51v30.642H0z"/><linearGradient x1="50%" y1="0%" x2="50%" y2="68.075%" id="b"><stop stop-color="#E7E4F7" offset="0%"/><stop stop-color="#CAC4EC" offset="100%"/></linearGradient><path d="M1.341.41v6.656c0 .554-.55 1.019-1.281 1.139V1.549" id="d"/><path d="M1.341.41v6.656c0 .554-.55 1.019-1.281 1.139V1.549" id="f"/><path d="M1.341.41v6.656c0 .554-.55 1.019-1.281 1.139V1.549" id="h"/><path d="M1.341.41v6.656c0 .554-.55 1.019-1.281 1.139V1.549" id="j"/><path d="M1.341.41v6.656c0 .554-.55 1.019-1.281 1.139V1.549" id="l"/><path d="M1.341.41v6.656c0 .554-.55 1.019-1.281 1.139V1.549" id="n"/><linearGradient x1="50%" y1="0%" x2="50%" y2="68.075%" id="q"><stop stop-color="#E7E4F7" offset="0%"/><stop stop-color="#CAC4EC" offset="100%"/></linearGradient><path d="M1.869 8.227l-.18.008v-.001l-.157-.005C.757 8.177.138 7.74.048 7.193V.539c.095.583.794 1.04 1.64 1.04l.18-.008.19-.022h.001l.002-.002L3.341.41v6.655c0 .492-.434.914-1.044 1.086l-.046.012a2.141 2.141 0 0 1-.067.017H2.18l-.12.024-.002-.001-.19.022z" id="p"/><path d="M2.81.507v6.655c0 1.08-1.176 1.963-2.658 2.044V2.552" id="r"/><path d="M2.81.507v6.655c0 1.08-1.176 1.963-2.658 2.044V2.552" id="t"/><path d="M2.81.507v6.655c0 1.08-1.176 1.963-2.658 2.044V2.552" id="v"/><path d="M2.81.507v6.655c0 1.08-1.176 1.963-2.658 2.044V2.552" id="x"/><path d="M2.81.507v6.655c0 1.08-1.176 1.963-2.658 2.044V2.552" id="z"/><path d="M2.81.507v6.655c0 1.08-1.176 1.963-2.658 2.044V2.552" id="B"/><path d="M2.81.507v6.655c0 1.08-1.176 1.963-2.658 2.044V2.552" id="D"/><linearGradient x1="50%" y1="0%" x2="50%" y2="68.075%" id="G"><stop stop-color="#E7E4F7" offset="0%"/><stop stop-color="#CAC4EC" offset="100%"/></linearGradient><path d="M16.152 9.207l-.244.007v-2H2.567v2c-.287 0-.556-.052-.79-.142-.32-.124-.577-.32-.724-.558a.99.99 0 0 1-.076-.149.846.846 0 0 1-.063-.319V1.391c0 .363.236.688.604.902a1.793 1.793 0 0 0 .44.184c.188.053.393.082.608.082h13.341l.244-.008L18.809.507v6.655c0 .98-.97 1.8-2.26 2.002l-.017.003a3.97 3.97 0 0 1-.38.039z" id="F"/><linearGradient x1="50%" y1="0%" x2="50%" y2="68.075%" id="H"><stop stop-color="#E7E4F7" offset="0%"/><stop stop-color="#CAC4EC" offset="100%"/></linearGradient><path d="M1.965.432c.366 0 .664.134 1.002.444v6.656c-.338-.31-.636-.445-1.002-.445-.398 0-.873.159-1.497.482V.914" id="I"/><path d="M1.965.432c.366 0 .664.134 1.002.444v6.656c-.338-.31-.636-.445-1.002-.445-.398 0-.873.159-1.497.482V.914" id="K"/><path d="M1.965.432c.366 0 .664.134 1.002.444v6.656c-.338-.31-.636-.445-1.002-.445-.398 0-.873.159-1.497.482V.914" id="M"/><path d="M1.965.432c.366 0 .664.134 1.002.444v6.656c-.338-.31-.636-.445-1.002-.445-.398 0-.873.159-1.497.482V.914" id="O"/><path d="M1.965.432c.366 0 .664.134 1.002.444v6.656c-.338-.31-.636-.445-1.002-.445-.398 0-.873.159-1.497.482V.914" id="Q"/><path d="M1.965.432c.366 0 .664.134 1.002.444v6.656c-.338-.31-.636-.445-1.002-.445-.398 0-.873.159-1.497.482V.914" id="S"/><path d="M1.965.432c.366 0 .664.134 1.002.444v6.656c-.338-.31-.636-.445-1.002-.445-.398 0-.873.159-1.497.482V.914" id="U"/><linearGradient x1="50%" y1="-33.701%" x2="49.463%" y2="100%" id="X"><stop stop-color="#E2E0F1" offset="0%"/><stop stop-color="#E8E6F2" offset="100%"/></linearGradient><path d="M1.965.432c.366 0 .664.134 1.002.444v6.656c-.338-.31-.636-.445-1.002-.445-.398 0-.873.159-1.497.482V.914c.624-.323 1.1-.482 1.497-.482z" id="W"/><linearGradient x1="50%" y1="-33.701%" x2="49.866%" y2="100%" id="Y"><stop stop-color="#E2E0F1" offset="0%"/><stop stop-color="#E8E6F2" offset="100%"/></linearGradient><linearGradient x1="50%" y1="-33.701%" x2="49.868%" y2="100%" id="aa"><stop stop-color="#E2E0F1" offset="0%"/><stop stop-color="#E8E6F2" offset="100%"/></linearGradient><path d="M.027.285c.826.494 1.355.756 2.044 1.011v6.655C1.382 7.696.853 7.434.027 6.94" id="ab"/><path d="M4.708 1.168v6.656C3.522 8.52 2.03 9.036.018 9.479V2.824" id="ac"/><path d="M4.708 1.168v6.656C3.522 8.52 2.03 9.036.018 9.479V2.824" id="ae"/><linearGradient x1="50%" y1="-33.701%" x2="48.604%" y2="100%" id="ah"><stop stop-color="#E2E0F1" offset="0%"/><stop stop-color="#E8E6F2" offset="100%"/></linearGradient><path d="M4.708 1.168v6.656C3.522 8.52 2.03 9.036.018 9.479V2.824" id="ag"/><linearGradient x1="50%" y1="-33.701%" x2="49.79%" y2="100%" id="ai"><stop stop-color="#E2E0F1" offset="0%"/><stop stop-color="#E8E6F2" offset="100%"/></linearGradient><linearGradient x1="50%" y1="-33.701%" x2="49.869%" y2="100%" id="ak"><stop stop-color="#E2E0F1" offset="0%"/><stop stop-color="#E8E6F2" offset="100%"/></linearGradient><path d="M1.693.613v6.654c-.233.046-.477.098-.73.15V.763" id="al"/><linearGradient x1="50%" y1="-33.701%" x2="49.869%" y2="100%" id="am"><stop stop-color="#E2E0F1" offset="0%"/><stop stop-color="#E8E6F2" offset="100%"/></linearGradient><linearGradient x1="50%" y1="-33.701%" x2="49.841%" y2="100%" id="ao"><stop stop-color="#E2E0F1" offset="0%"/><stop stop-color="#E8E6F2" offset="100%"/></linearGradient><linearGradient x1="50%" y1="0%" x2="50%" y2="68.075%" id="ap"><stop stop-color="#E7E4F7" offset="0%"/><stop stop-color="#CAC4EC" offset="100%"/></linearGradient><path d="M.344.508c.052.42.412.778.952.958 3.706 1.226 6.562 1.838 8.712 1.838.4 0 .773-.022 1.125-.063C13.6 2.948 15.326 2.185 16.12.994V7.65c-.794 1.191-2.52 1.955-4.987 2.246a9.413 9.413 0 0 1-1.125.064c-2.15 0-5.006-.613-8.712-1.838-.54-.18-.9-.539-.952-.957L.34 7.12.339.422" id="aq"/><path d="M.344.508c.052.42.412.778.952.958 3.706 1.226 6.562 1.838 8.712 1.838.4 0 .773-.022 1.125-.063C13.6 2.948 15.326 2.185 16.12.994V7.65c-.794 1.191-2.52 1.955-4.987 2.246a9.413 9.413 0 0 1-1.125.064c-2.15 0-5.006-.613-8.712-1.838-.54-.18-.9-.539-.952-.957L.34 7.12.339.422" id="as"/><path d="M.344.508c.052.42.412.778.952.958 3.706 1.226 6.562 1.838 8.712 1.838.4 0 .773-.022 1.125-.063C13.6 2.948 15.326 2.185 16.12.994V7.65c-.794 1.191-2.52 1.955-4.987 2.246a9.413 9.413 0 0 1-1.125.064c-2.15 0-5.006-.613-8.712-1.838-.54-.18-.9-.539-.952-.957L.34 7.12.339.422" id="au"/><path d="M.344.508c.052.42.412.778.952.958 3.706 1.226 6.562 1.838 8.712 1.838.4 0 .773-.022 1.125-.063C13.6 2.948 15.326 2.185 16.12.994V7.65c-.794 1.191-2.52 1.955-4.987 2.246a9.413 9.413 0 0 1-1.125.064c-2.15 0-5.006-.613-8.712-1.838-.54-.18-.9-.539-.952-.957L.34 7.12.339.422" id="aw"/><path d="M.344.508c.052.42.412.778.952.958 3.706 1.226 6.562 1.838 8.712 1.838.4 0 .773-.022 1.125-.063C13.6 2.948 15.326 2.185 16.12.994V7.65c-.794 1.191-2.52 1.955-4.987 2.246a9.413 9.413 0 0 1-1.125.064c-2.15 0-5.006-.613-8.712-1.838-.54-.18-.9-.539-.952-.957L.34 7.12.339.422" id="ay"/><path d="M.344.508c.052.42.412.778.952.958 3.706 1.226 6.562 1.838 8.712 1.838.4 0 .773-.022 1.125-.063C13.6 2.948 15.326 2.185 16.12.994V7.65c-.794 1.191-2.52 1.955-4.987 2.246a9.413 9.413 0 0 1-1.125.064c-2.15 0-5.006-.613-8.712-1.838-.54-.18-.9-.539-.952-.957L.34 7.12.339.422" id="aA"/><path d="M.344.508c.052.42.412.778.952.958 3.706 1.226 6.562 1.838 8.712 1.838.4 0 .773-.022 1.125-.063C13.6 2.948 15.326 2.185 16.12.994V7.65c-.794 1.191-2.52 1.955-4.987 2.246a9.413 9.413 0 0 1-1.125.064c-2.15 0-5.006-.613-8.712-1.838-.54-.18-.9-.539-.952-.957L.34 7.12.339.422" id="aC"/><path d="M.344.508c.052.42.412.778.952.958 3.706 1.226 6.562 1.838 8.712 1.838.4 0 .773-.022 1.125-.063C13.6 2.948 15.326 2.185 16.12.994V7.65c-.794 1.191-2.52 1.955-4.987 2.246a9.413 9.413 0 0 1-1.125.064c-2.15 0-5.006-.613-8.712-1.838-.54-.18-.9-.539-.952-.957L.34 7.12.339.422" id="aE"/><linearGradient x1="50%" y1="19.435%" x2="45.619%" y2="68.259%" id="aH"><stop stop-color="#E2E0F1" offset="0%"/><stop stop-color="#E8E6F2" offset="100%"/></linearGradient><path d="M.344.508c.052.42.412.778.952.958 3.706 1.226 6.562 1.838 8.712 1.838.4 0 .773-.022 1.125-.063C13.6 2.948 15.326 2.185 16.12.994V7.65c-.794 1.191-2.52 1.955-4.987 2.246a9.413 9.413 0 0 1-1.125.064c-2.15 0-5.006-.613-8.712-1.838-.54-.18-.9-.539-.952-.957L.34 7.12.339.422" id="aG"/><linearGradient x1="50%" y1="-33.701%" x2="49.234%" y2="100%" id="aI"><stop stop-color="#E2E0F1" offset="0%"/><stop stop-color="#E8E6F2" offset="100%"/></linearGradient><path d="M15.98.97v6.656c0 .27-.099.546-.308.774-4.087 4.402-9.847 7.113-14.59 7.262V9.007c4.743-.15 10.503-2.86 14.59-7.261.21-.228.308-.506.308-.775z" id="aK"/><path d="M15.98.97v6.656c0 .27-.099.546-.308.774-4.087 4.402-9.847 7.113-14.59 7.262V9.007c4.743-.15 10.503-2.86 14.59-7.261" id="aM"/><linearGradient x1="50%" y1="0%" x2="50%" y2="68.075%" id="aO"><stop stop-color="#E7E4F7" offset="0%"/><stop stop-color="#CAC4EC" offset="100%"/></linearGradient><path d="M22.08 9.008v5.478l-21.768.095-.064-5.409 21.833-.164zM36.98.97v5.478c0 .27-.099.546-.308.775-4.087 4.402-9.847 7.112-14.59 7.262V9.007c4.743-.15 10.503-2.86 14.59-7.261L36.98.97z" id="aN"/><linearGradient x1="50%" y1="0%" x2="50%" y2="68.075%" id="aQ"><stop stop-color="#E7E4F7" offset="0%"/><stop stop-color="#CAC4EC" offset="100%"/></linearGradient><path d="M.126.946c0 .643.741 1.167 1.652 1.167l.063 5.41c-.91 0-1.652-.524-1.652-1.17L.126.947z" id="aP"/></defs><g fill="none" fill-rule="evenodd"><path fill="#FFF" fill-rule="nonzero" d="M25.148 6.506L.455 18.123v18.662l1.855 2.944 22.838 10.8h2.111l24.22-11.854 1.696-2.67v-16.22l-.683-1.662L27 6.506z"/><path fill="#F7F6FD" d="M27 33.745l25.492-11.96v16.936L27 50.72z"/><path d="M52.158 21.906L26.804 33.19a1.01 1.01 0 0 1-.833-.006L1.46 21.892a1.01 1.01 0 0 1-.005-1.832L24.858 9.131a3.67 3.67 0 0 1 3.065-.02l24.24 10.953a1.01 1.01 0 0 1-.005 1.842zM26.488 33.795v16.734" stroke="#E7E6F1" stroke-width="1.112" fill-rule="nonzero"/><path d="M52.752 21.13l.177 14.426a4.038 4.038 0 0 1-2.28 3.685L28.112 50.142a4.038 4.038 0 0 1-3.47.022L3.267 40.157A4.038 4.038 0 0 1 .941 36.5V21.358" stroke="#E7E6F1" stroke-width="1.112" fill-rule="nonzero"/><g transform="translate(7 2)"><mask id="c" fill="#fff"><use xlink:href="#a"/></mask><path fill="url(#b)" mask="url(#c)" d="M8.4 9.38h22.87V2.725H8.4z"/><g mask="url(#c)"><g transform="translate(7.059 7.503)"><mask id="e" fill="#fff"><use xlink:href="#d"/></mask><path d="M1.341.41v6.677V.433.411" fill="#312675" mask="url(#e)"/></g><g transform="translate(7.059 7.503)"><mask id="g" fill="#fff"><use xlink:href="#f"/></mask><path d="M1.34.433v6.655a.77.77 0 0 1-.02.165V.597a.78.78 0 0 0 .02-.164" fill="#322779" mask="url(#g)"/></g><g transform="translate(7.059 7.503)"><mask id="i" fill="#fff"><use xlink:href="#h"/></mask><path d="M1.32.597v6.655a.906.906 0 0 1-.062.18V.777a.881.881 0 0 0 .062-.18" fill="#34287D" mask="url(#i)"/></g><g transform="translate(7.059 7.503)"><mask id="k" fill="#fff"><use xlink:href="#j"/></mask><path d="M1.257.777v6.656a1.08 1.08 0 0 1-.16.242V1.02a1.03 1.03 0 0 0 .16-.243" fill="#362A81" mask="url(#k)"/></g><g transform="translate(7.059 7.503)"><mask id="m" fill="#fff"><use xlink:href="#l"/></mask><path d="M1.098 1.02v6.655c-.12.137-.278.255-.464.347V1.367c.186-.092.344-.21.464-.347" fill="#372B85" mask="url(#m)"/></g><g transform="translate(7.059 7.503)"><mask id="o" fill="#fff"><use xlink:href="#n"/></mask><path d="M.635 1.367v6.656a1.989 1.989 0 0 1-.338.129V1.497c.12-.034.233-.078.338-.13" fill="#362A81" mask="url(#o)"/></g><use fill="url(#q)" xlink:href="#p" transform="translate(5.059 7.503)"/></g><g mask="url(#c)"><g transform="translate(31.765 8.68)"><mask id="s" fill="#fff"><use xlink:href="#r"/></mask><path d="M2.809.507V7.202.546.507" fill="#312675" mask="url(#s)"/></g><g transform="translate(31.765 8.68)"><mask id="u" fill="#fff"><use xlink:href="#t"/></mask><path d="M2.808.546V7.2a1.488 1.488 0 0 1-.036.29V.839c.021-.096.034-.193.036-.292" fill="#322779" mask="url(#u)"/></g><g transform="translate(31.765 8.68)"><mask id="w" fill="#fff"><use xlink:href="#v"/></mask><path d="M2.772.837v6.655c-.025.11-.062.216-.11.318V1.156c.048-.104.085-.21.11-.319" fill="#34287D" mask="url(#w)"/></g><g transform="translate(31.765 8.68)"><mask id="y" fill="#fff"><use xlink:href="#x"/></mask><path d="M2.661 1.155v6.656a1.834 1.834 0 0 1-.284.43V1.586c.117-.134.213-.279.284-.43" fill="#362A81" mask="url(#y)"/></g><g transform="translate(31.765 8.68)"><mask id="A" fill="#fff"><use xlink:href="#z"/></mask><path d="M2.376 1.586v6.656a2.591 2.591 0 0 1-.808.604V2.191c.324-.16.6-.366.808-.605" fill="#372B85" mask="url(#A)"/></g><g transform="translate(31.765 8.68)"><mask id="C" fill="#fff"><use xlink:href="#B"/></mask><path d="M1.569 2.191v6.655c-.181.09-.377.165-.585.224V2.415c.208-.06.404-.135.585-.224" fill="#362A81" mask="url(#C)"/></g><g transform="translate(31.765 8.68)"><mask id="E" fill="#fff"><use xlink:href="#D"/></mask><path d="M.984 2.415V9.07c-.14.039-.286.07-.435.094V2.51c.149-.024.295-.057.435-.095" fill="#34287D" mask="url(#E)"/></g><use fill="url(#G)" xlink:href="#F" transform="translate(15.765 8.68)"/></g><path d="M6.748 9.081c-.847 0-1.546-.456-1.641-1.04l-.01-.128v-5.48C5.096 1.363 6.27.48 7.753.397L7.997.39h23.676c1.524 0 2.774.823 2.89 1.878l.01.165v6.753c0 1.079-1.175 1.962-2.657 2.045l-.243.007H18.33c-.91 0-1.651-.524-1.651-1.168 0-.606.646-1.1 1.471-1.16l.18-.007h12.94V2.725H8.4v5.188c0 .555-.55 1.019-1.282 1.139l-.19.022-.18.007z" fill="#6A549E" mask="url(#c)"/><path d="M9.52 12.944c.24 0 .478.013.712.039 1.657.19 2.58.49 4.015 1.335l.294.177.604.352c.825.494 1.355.757 2.043 1.01l.078.029.15.055.097.032.144.045.087.025.209.058c.61.156 1.296.254 2.105.31.324.02.654.037.982.048l.49.013.254.007 1.035-.007-.432 6.692-.604-.03-.254-.008c-.487-.007-.984-.03-1.471-.06-.88-.062-1.614-.171-2.263-.353l.002.001a6.73 6.73 0 0 1-.328-.1l-.02-.007a10.545 10.545 0 0 1-2.04-.949l-.264-.156-.604-.352c-1.61-.981-2.541-1.31-4.31-1.512a6.478 6.478 0 0 0-.711-.039c-1.79 0-3.747.717-5.885 2.203v-6.656c2.138-1.484 4.094-2.202 5.885-2.202zm-5.885 2.202V21.8l-.233.165V15.31l.233-.165z" fill="url(#H)" mask="url(#c)"/><g mask="url(#c)"><g transform="translate(32.941 14.562)"><mask id="J" fill="#fff"><use xlink:href="#I"/></mask><path d="M2.967.877v6.655c-.226-.208-.434-.338-.658-.4V.477c.224.062.432.192.658.4" fill="#2C2269" mask="url(#J)"/></g><g transform="translate(32.941 14.562)"><mask id="L" fill="#fff"><use xlink:href="#K"/></mask><path d="M2.31.477v6.655a1.073 1.073 0 0 0-.15-.032V.445c.052.007.1.018.15.032" fill="#2D236D" mask="url(#L)"/></g><g transform="translate(32.941 14.562)"><mask id="N" fill="#fff"><use xlink:href="#M"/></mask><path d="M2.16.445v6.656a1.262 1.262 0 0 0-.134-.013V.432c.046.003.09.008.134.013" fill="#2F2471" mask="url(#N)"/></g><g transform="translate(32.941 14.562)"><mask id="P" fill="#fff"><use xlink:href="#O"/></mask><path d="M2.026.433v6.655l-.061-.001c-.029 0-.057 0-.086.002V.434l.086-.002h.06" fill="#312675" mask="url(#P)"/></g><g transform="translate(32.941 14.562)"><mask id="R" fill="#fff"><use xlink:href="#Q"/></mask><path d="M1.88.434v6.655c-.06.004-.12.01-.182.019V.454c.063-.01.123-.018.181-.02" fill="#322779" mask="url(#R)"/></g><g transform="translate(32.941 14.562)"><mask id="T" fill="#fff"><use xlink:href="#S"/></mask><path d="M1.698.453V7.11c-.089.013-.18.034-.277.06V.517c.096-.028.188-.048.277-.063" fill="#34287D" mask="url(#T)"/></g><g transform="translate(32.941 14.562)"><mask id="V" fill="#fff"><use xlink:href="#U"/></mask><path d="M1.42.515v6.656c-.236.066-.5.173-.797.32V.835c.297-.147.561-.253.797-.32" fill="#362A81" mask="url(#V)"/></g><g transform="translate(32.941 14.562)"><mask id="Z" fill="#fff"><use xlink:href="#W"/></mask><use fill="url(#X)" xlink:href="#W"/><path d="M.623.836v6.655c-.051.025-.103.05-.155.078V.914L.623.836" fill="url(#Y)" mask="url(#Z)"/></g></g><path fill="url(#aa)" mask="url(#c)" d="M33.41 15.476v6.655l-.234.127v-6.655z"/><path fill="url(#aa)" mask="url(#c)" d="M33.176 15.603v6.655l-.233.128V15.73z"/><g mask="url(#c)"><g transform="translate(28.235 14.562)"><mask id="ad" fill="#fff"><use xlink:href="#ac"/></mask><path d="M4.708 1.169v6.655a9.888 9.888 0 0 1-.619.333V1.502c.215-.106.421-.217.619-.333" fill="#372B85" mask="url(#ad)"/></g><g transform="translate(28.235 14.562)"><mask id="af" fill="#fff"><use xlink:href="#ae"/></mask><path d="M4.09 1.502v6.655c-.725.358-1.557.665-2.532.94V2.442c.975-.276 1.807-.583 2.531-.94" fill="#362A81" mask="url(#af)"/></g><g transform="translate(28.235 14.562)"><mask id="aj" fill="#fff"><use xlink:href="#ag"/></mask><use fill="url(#ah)" xlink:href="#ag"/><path d="M1.557 2.442v6.655c-.477.134-.99.26-1.54.381V2.823c.55-.12 1.063-.247 1.54-.381" fill="url(#ai)" mask="url(#aj)"/></g></g><path fill="url(#ak)" mask="url(#c)" d="M28.253 17.385v6.655l-.678.142v-6.655z"/><g mask="url(#c)"><g transform="translate(25.882 16.914)"><mask id="an" fill="#fff"><use xlink:href="#al"/></mask><path d="M1.693.612v6.656c-.233.044-.477.097-.73.15V.761c.253-.052.497-.105.73-.15" fill="url(#am)" mask="url(#an)"/></g></g><path fill="url(#ao)" mask="url(#c)" d="M26.844 17.677v6.655l-1.313.232v-6.655z"/><path d="M3.402 15.31v6.656l-.095 4.185c-.01.33-.212.63-.54.846V25.82l-.148.083-.17.075a2.277 2.277 0 0 1-1.406.063l-.059-.018a2.067 2.067 0 0 1-.04-.013l.1.031a1.9 1.9 0 0 1-.246-.087c-.445-.186-.742-.516-.794-.883v-5.479c.017.122.062.24.13.35l.076.108c.14.174.34.322.588.426l.145.055.045.015a2.239 2.239 0 0 0 1.461-.048l.17-.075.148-.082.54-.846.095-4.185z" fill="url(#ap)" mask="url(#c)"/><g mask="url(#c)"><g transform="translate(9.412 16.914)"><mask id="ar" fill="#fff"><use xlink:href="#aq"/></mask><path d="M16.12.995V7.65a3.17 3.17 0 0 1-.247.322V1.317a3.17 3.17 0 0 0 .247-.322" fill="#362A81" mask="url(#ar)"/></g><g transform="translate(9.412 16.914)"><mask id="at" fill="#fff"><use xlink:href="#as"/></mask><path d="M15.873 1.317v6.655c-.35.402-.819.747-1.399 1.034V2.351c.58-.287 1.05-.633 1.4-1.034" fill="#372B85" mask="url(#at)"/></g><g transform="translate(9.412 16.914)"><mask id="av" fill="#fff"><use xlink:href="#au"/></mask><path d="M14.474 2.35v6.656c-.4.198-.853.367-1.356.508V2.86a7.965 7.965 0 0 0 1.356-.51" fill="#362A81" mask="url(#av)"/></g><g transform="translate(9.412 16.914)"><mask id="ax" fill="#fff"><use xlink:href="#aw"/></mask><path d="M13.118 2.86v6.655c-.43.121-.898.221-1.4.3V3.16c.502-.08.97-.18 1.4-.3" fill="#34287D" mask="url(#ax)"/></g><g transform="translate(9.412 16.914)"><mask id="az" fill="#fff"><use xlink:href="#ay"/></mask><path d="M11.719 3.16v6.656c-.191.029-.386.056-.586.08-.18.022-.367.037-.56.048V3.288c.193-.01.38-.027.56-.048.2-.023.395-.05.586-.08" fill="#322779" mask="url(#az)"/></g><g transform="translate(9.412 16.914)"><mask id="aB" fill="#fff"><use xlink:href="#aA"/></mask><path d="M10.574 3.289v6.655a11.042 11.042 0 0 1-1.09.004V3.292a11.018 11.018 0 0 0 1.09-.004" fill="#312675" mask="url(#aB)"/></g><g transform="translate(9.412 16.914)"><mask id="aD" fill="#fff"><use xlink:href="#aC"/></mask><path d="M9.483 3.292v6.656c-.53-.024-1.1-.08-1.71-.17V3.123c.61.09 1.18.146 1.71.17" fill="#2F2471" mask="url(#aD)"/></g><g transform="translate(9.412 16.914)"><mask id="aF" fill="#fff"><use xlink:href="#aE"/></mask><path d="M7.773 3.123v6.655c-1.145-.168-2.434-.455-3.881-.86V2.263c1.447.405 2.736.692 3.88.86" fill="#2D236D" mask="url(#aF)"/></g><g transform="translate(9.412 16.914)"><mask id="aJ" fill="#fff"><use xlink:href="#aG"/></mask><use fill="url(#aH)" xlink:href="#aG"/><path d="M3.892 2.263v6.655a58.586 58.586 0 0 1-2.596-.797c-.54-.18-.9-.54-.952-.958a.7.7 0 0 1-.005-.086V.422a.7.7 0 0 0 .005.086c.052.418.412.778.952.958.917.303 1.782.569 2.596.797" fill="url(#aI)" mask="url(#aJ)"/></g></g><g mask="url(#c)"><g transform="translate(23.53 14.562)"><mask id="aL" fill="#fff"><use xlink:href="#aK"/></mask><path fill="#312675" mask="url(#aL)" d="M15.98.97v6.686V.998z"/></g><use fill="url(#aO)" xlink:href="#aN" transform="translate(2.53 14.562)"/></g><path d="M39.201 16.307c-4.087 4.402-9.847 7.112-14.59 7.262l-21.833.164c-.911 0-1.652-.523-1.652-1.168 0-.606.646-1.1 1.472-1.16l.169-.007 21.43-.158c2.944 0 6.84-1.878 11.457-5.6l.254-.202c-.338-.31-.636-.445-1.002-.445-.398 0-.873.16-1.497.483l-.233.127-.233.127c-1.185.696-2.678 1.213-4.69 1.655l-.678.142c-.233.045-.476.098-.73.15l-1.313.232c-.794 1.19-2.52 1.954-4.987 2.247a9.66 9.66 0 0 1-1.125.062c-2.15 0-5.006-.612-8.712-1.838-.54-.18-.9-.538-.953-.957-.042-.412.223-.817.71-1.057.276-.139.605-.21.937-.21.24 0 .481.037.704.113 3.24 1.068 5.73 1.614 7.279 1.614.222 0 .425-.01.609-.033 1.599-.188 2.404-.54 2.658-1.14l.042-.126-.307-.075-.604-.03-.254-.008c-.487-.007-.984-.03-1.471-.06-1.165-.081-2.076-.247-2.87-.553-.688-.255-1.218-.518-2.043-1.012l-.604-.352c-1.61-.98-2.541-1.309-4.31-1.511a6.478 6.478 0 0 0-.711-.04c-1.79 0-3.747.717-5.885 2.203l-.233.165-.095 4.185c-.01.33-.212.63-.54.847l-.148.082-.17.074c-.246.098-.52.146-.795.146a2.19 2.19 0 0 1-.856-.168c-.445-.187-.742-.517-.795-.884v-.134l.117-4.987.106-.194.328-.248c3.01-2.265 5.987-3.425 8.93-3.425.424 0 .845.024 1.266.072 2.266.254 3.685.726 5.56 1.812l.38.224.276.164c.836.51 1.25.72 1.779.921.328.12.751.21 1.334.262l.656.045.932.03c2.668.083 3.822.368 4.225 1.296l.54-.105.836-.172c1.44-.315 2.52-.667 3.325-1.085l.265-.143c1.465-.852 2.997-1.27 4.368-1.27 1.943 0 3.562.84 4.208 2.475.148.374.085.832-.233 1.176z" fill="#6A549E" mask="url(#c)"/><g mask="url(#c)"><use fill="url(#aQ)" xlink:href="#aP" transform="translate(1 21.62)"/></g></g></g></svg>
