<svg width="208" height="168" viewBox="0 0 208 168" xmlns="http://www.w3.org/2000/svg" xmlns:xlink="http://www.w3.org/1999/xlink"><defs><rect id="b" width="200" height="160" rx="2"/><filter x="-3.2%" y="-3.4%" width="106.5%" height="108.1%" filterUnits="objectBoundingBox" id="a"><feOffset dy="1" in="SourceAlpha" result="shadowOffsetOuter1"/><feGaussianBlur stdDeviation="2" in="shadowOffsetOuter1" result="shadowBlurOuter1"/><feColorMatrix values="0 0 0 0 0.188235294 0 0 0 0 0.149019608 0 0 0 0 0.278431373 0 0 0 0.16 0" in="shadowBlurOuter1"/></filter><filter x="-11.2%" y="-13.6%" width="122.4%" height="117.7%" filterUnits="objectBoundingBox" id="c"><feGaussianBlur stdDeviation=".833" in="SourceGraphic"/></filter></defs><g fill="none" fill-rule="evenodd"><g transform="translate(4 3)"><use fill="#000" filter="url(#a)" xlink:href="#b"/><use fill="#FFF" xlink:href="#b"/></g><path d="M24 127h16v16H24z"/><path d="M32.637 129.293l.175.068 4 1.778a2 2 0 0 1 1.182 1.67l.006.157V139a2 2 0 0 1-1.85 1.995L36 141h-8a2 2 0 0 1-1.995-1.85L26 139v-6.034a2 2 0 0 1 1.047-1.758l.14-.07 4-1.777a2 2 0 0 1 1.45-.068zm-2.166 4.017a.667.667 0 0 0-.942 0l-1.886 1.885a.667.667 0 0 0 0 .943l1.886 1.886a.667.667 0 0 0 .942-.943l-1.414-1.415 1.414-1.414a.667.667 0 0 0 0-.942zm3.058 0a.667.667 0 0 0 0 .942l1.414 1.414-1.414 1.415a.667.667 0 0 0 .942.943l1.886-1.886a.667.667 0 0 0 0-.943l-1.886-1.885a.667.667 0 0 0-.942 0zm3.304-4.31a.5.5 0 0 1 .5.5v1.357l-2.666-1.19v-.167a.5.5 0 0 1 .5-.5h1.666z" fill-opacity=".2" fill="#302647"/><path d="M56 127h16v16H56z"/><path d="M68 129a2 2 0 0 1 2 2v8a2 2 0 0 1-2 2h-8a2 2 0 0 1-2-2v-8a2 2 0 0 1 2-2h8zm-6.667 2.333a1 1 0 1 0 .744 1.669l3.256-.002.078.004a.667.667 0 0 1-.078 1.33h-2.666l-.118.003a2 2 0 0 0 .118 3.996l3.255.001a1 1 0 1 0 0-1.335l-3.255.001-.078-.004a.667.667 0 0 1 .078-1.33h2.666l.118-.003a2 2 0 0 0-.118-3.996l-3.255-.001a.997.997 0 0 0-.745-.333z" fill-opacity=".2" fill="#302647"/><path d="M88 127h16v16H88z"/><path d="M94.862 133.31l.942.943-1.22 1.218.944.943 1.22-1.22.942.944-1.22 1.219.944.943L96 139.714a3.334 3.334 0 0 1-4.195.425l-.99.99-.943-.944.99-.99a3.334 3.334 0 0 1 .424-4.195l1.414-1.414.943.943 1.219-1.22zm6.323-4.438l.943.943-.99.99a3.334 3.334 0 0 1-.424 4.195l-1.414 1.414-4.714-4.714L96 130.286a3.334 3.334 0 0 1 4.195-.425l.99-.99z" fill-opacity=".2" fill="#302647"/><path d="M120 127h16v16h-16z"/><path d="M132 129a2 2 0 0 1 2 2v8a2 2 0 0 1-2 2h-8a2 2 0 0 1-2-2v-8a2 2 0 0 1 2-2h8zm-2.737 2l-2.194 2.201h-1.56L124 134.666l1.604-.001-.028.03 2.736 2.745.041-.043V139l1.459-1.514-.001-1.547 2.189-2.195-.09-2.652-2.647-.092zm-2.937 4.958l-1.368 1.372.684.686 1.368-1.372-.684-.686zm3.002-3.624a.965.965 0 0 1 1.368 0 .973.973 0 0 1 0 1.372.965.965 0 0 1-1.368 0 .973.973 0 0 1 0-1.372z" fill-opacity=".2" fill="#302647"/><path fill-opacity=".06" fill="#302647" d="M24 112.697h160v1H24z"/><g fill="#302647"><path fill-opacity=".16" d="M24 76h20v10H24z"/><path fill-opacity=".06" d="M24 88h61v9.697H24z"/></g><g fill="#302647"><path fill-opacity=".16" d="M123 76h20v10h-20z"/><path fill-opacity=".06" d="M123 88h61v9.697h-61z"/></g><path d="M164 27h20v20h-20z"/><path fill-opacity=".15" fill="#F4B518" filter="url(#c)" d="M10.833 17.167l-5.388 1.916.158-5.717-3.488-4.532 5.486-1.617L10.833 2.5l3.233 4.717 5.485 1.617-3.487 4.532.157 5.717z" transform="translate(164 27)"/><path fill="#F4B518" d="M174 43.333l-5.388 1.916.157-5.716L165.282 35l5.485-1.617L174 28.667l3.233 4.717L182.718 35l-3.487 4.532.157 5.716z"/><g fill="#302647" fill-opacity=".8"><path d="M38.16 23.042l13.679 7.84c.1.058.161.164.161.28v15.677a.321.321 0 0 1-.161.278l-13.68 7.841a.321.321 0 0 1-.319 0l-13.679-7.84a.321.321 0 0 1-.161-.28V31.162c0-.115.062-.221.161-.278l13.68-7.841a.321.321 0 0 1 .319 0zm5.8 10.259a1.605 1.605 0 1 0-2.27 2.27l3.437 3.438-3.404 3.404a1.605 1.605 0 0 0 0 2.27l.016.016a1.605 1.605 0 0 0 2.27 0l4.54-4.54a1.605 1.605 0 0 0 0-2.27zm-11.92 0l-4.589 4.589a1.605 1.605 0 0 0 0 2.27l4.54 4.54a1.605 1.605 0 0 0 2.27-.001l.016-.016a1.605 1.605 0 0 0 0-2.27l-3.404-3.404 3.437-3.438a1.605 1.605 0 0 0-2.27-2.27z"/></g><path fill-opacity=".16" fill="#302647" d="M61 26h26v10H61z"/><path fill-opacity=".1" fill="#302647" d="M61 46h66v6H61z"/><path fill="#1890FF" d="M61 38h46v6H61z"/></g></svg>
