<svg width="208" height="168" viewBox="0 0 208 168" xmlns="http://www.w3.org/2000/svg" xmlns:xlink="http://www.w3.org/1999/xlink"><defs><rect id="b" width="200" height="160" rx="2"/><filter x="-3.2%" y="-3.4%" width="106.5%" height="108.1%" filterUnits="objectBoundingBox" id="a"><feOffset dy="1" in="SourceAlpha" result="shadowOffsetOuter1"/><feGaussianBlur stdDeviation="2" in="shadowOffsetOuter1" result="shadowBlurOuter1"/><feColorMatrix values="0 0 0 0 0.188235294 0 0 0 0 0.149019608 0 0 0 0 0.278431373 0 0 0 0.16 0" in="shadowBlurOuter1"/></filter><filter x="-11.2%" y="-13.6%" width="122.4%" height="117.7%" filterUnits="objectBoundingBox" id="c"><feGaussianBlur stdDeviation=".833" in="SourceGraphic"/></filter></defs><g fill="none" fill-rule="evenodd"><g transform="translate(4 3)"><use fill="#000" filter="url(#a)" xlink:href="#b"/><use fill="#FFF" xlink:href="#b"/></g><path d="M24 127h16v16H24z"/><path d="M26.913 140.333a1 1 0 0 1-.996-.91l-.485-5.332a1 1 0 0 1 .568-.995V133h12v.096a1 1 0 0 1 .568.995l-.485 5.333a1 1 0 0 1-.996.91H26.913zm2.673-10.666a1 1 0 0 1 .707.293l.747.747a1 1 0 0 0 .708.293H37a1 1 0 0 1 1 1v.333H26v-1.666a1 1 0 0 1 1-1h2.586z" fill-opacity=".2" fill="#302647"/><path d="M56 127h16v16H56z"/><path d="M64.1 128.391l5.574 3.218a.2.2 0 0 1 .1.173v6.436a.2.2 0 0 1-.1.173L64.1 141.61a.2.2 0 0 1-.2 0l-5.574-3.218a.2.2 0 0 1-.1-.173v-6.436a.2.2 0 0 1 .1-.173l5.574-3.218a.2.2 0 0 1 .2 0zm2.371 4.252a.667.667 0 1 0-.942.943L66.943 135l-1.414 1.413a.667.667 0 0 0 .942.943l1.886-1.886a.667.667 0 0 0-.009-.95zm-4.942 0l-1.877 1.877a.667.667 0 0 0-.009.951l1.886 1.886a.667.667 0 0 0 .942-.943l-1.414-1.413 1.414-1.415a.667.667 0 1 0-.942-.943z" fill-opacity=".2" fill="#302647"/><path d="M88 127h16v16H88z"/><path d="M99.5 129a.5.5 0 0 1 .5.5v.333a.5.5 0 0 1-.5.5h-.262v1.864l2.578 6.015a2 2 0 0 1 .136.465l.02.161.006.162a2 2 0 0 1-1.85 1.995l-.15.005h-7.956a2 2 0 0 1-1.894-2.642l.056-.146 2.577-6.015v-1.864H92.5a.5.5 0 0 1-.5-.5v-.333a.5.5 0 0 1 .5-.5h7zm-1.595 1.333h-3.81v2.137l-.809 1.889c1.06-.032 1.901.182 2.524.641.868.64 2.56.835 3.373.45l-1.278-2.98v-2.137zM97.333 133a.667.667 0 1 1 0 1.333.667.667 0 0 1 0-1.333z" fill-opacity=".2" fill="#302647"/><path d="M120 127h16v16h-16z"/><path d="M128 128.333a6.667 6.667 0 1 1 0 13.334 6.667 6.667 0 0 1 0-13.334zm-3.199 7.337l-2.003 1.334 5.202 3.468 5.202-3.468-1.964-1.308-1.217.79.777.518-2.797 1.864-2.798-1.865.8-.532-1.202-.801zm5.138-4.179c-.113.45-.38.84-.74 1.11l1.599 1.066-2.797 1.865-2.798-1.865 1.598-1.066c-.36-.27-.627-.66-.74-1.11l-3.263 2.176 5.202 3.468 5.202-3.468zM128 129.667a1.333 1.333 0 1 0 0 2.666 1.333 1.333 0 0 0 0-2.666z" fill-opacity=".2" fill="#302647"/><path d="M152 127h16v16h-16z"/><path d="M157.097 129.667a1 1 0 0 1 .447.105l2.245 1.122a1 1 0 0 0 .447.106h5.43a1 1 0 0 1 1 1v7.333a1 1 0 0 1-1 1h-11.333a1 1 0 0 1-1-1v-8.666a1 1 0 0 1 1-1zm5.196 2.852a1.333 1.333 0 0 0-1.472 2l-.782.678-1.154-1.154-.094-.565-1.339-.831-.438.438.834 1.335.565.094 1.124 1.121-2.27 1.977a.622.622 0 0 0-.003.937c.26.228.654.202.882-.057l1.988-2.26.637.638-.095.096a.2.2 0 0 0 0 .282l1.603 1.603a.2.2 0 0 0 .283 0l.094-.095.471-.47v-.001l.094-.094a.2.2 0 0 0 0-.283l-1.602-1.602a.2.2 0 0 0-.283 0l-.094.093-.667-.668.688-.78a1.334 1.334 0 0 0 1.974-1.488l-.817.816-.075.064a.667.667 0 0 1-.868-1.007z" fill-opacity=".2" fill="#302647"/><path fill-opacity=".06" fill="#302647" d="M24 112.697h160v1H24z"/><g fill="#302647"><path fill-opacity=".16" d="M24 76h20v10H24z"/><path fill-opacity=".06" d="M24 88h30v9.091H24z"/></g><g fill="#302647"><path fill-opacity=".16" d="M110 76h20v10h-20z"/><path fill-opacity=".06" d="M110 88h30v9.091h-30z"/></g><g fill="#302647"><path fill-opacity=".16" d="M67 76h20v10H67z"/><path fill-opacity=".06" d="M67 88h30v9.091H67z"/></g><g fill="#302647"><path fill-opacity=".16" d="M153 76h20v10h-20z"/><path fill-opacity=".06" d="M153 88h30v9.091h-30z"/></g><g><path d="M164 27h20v20h-20z"/><path fill-opacity=".15" fill="#F4B518" filter="url(#c)" d="M10.833 17.167l-5.388 1.916.158-5.717-3.488-4.532 5.486-1.617L10.833 2.5l3.233 4.717 5.485 1.617-3.487 4.532.157 5.717z" transform="translate(164 27)"/><path fill="#F4B518" d="M174 43.333l-5.388 1.916.157-5.716L165.282 35l5.485-1.617L174 28.667l3.233 4.717L182.718 35l-3.487 4.532.157 5.716z"/></g><g transform="translate(24 23)"><circle fill-opacity=".8" fill="#302647" cx="16.5" cy="16.5" r="16.5"/><path d="M25.5 9.315V11.356a1.26 1.26 0 0 1-1.26 1.26H12.56l.037.001a1.22 1.22 0 0 0-.53.215c-.247.182-.464.43-.464 1.116v.994h10.494c.174 0 .315.14.315.315V17.298a1.26 1.26 0 0 1-1.26 1.26h-9.55v1.346l.005.025c.025.129.125.486.405.696.276.207.743.256.976.258H24.24c.697 0 1.261.565 1.261 1.26V24.186a.315.315 0 0 1-.315.315H12.76c-.399 0-.787-.05-1.158-.142A4.785 4.785 0 0 1 8 19.72v-5.942a4.778 4.778 0 0 1 3.603-4.637c.37-.093.76-.142 1.158-.142h12.424c.174 0 .315.141.315.315z" fill="#FFF"/></g><path fill-opacity=".16" fill="#302647" d="M61 27h26v10H61z"/><path fill="#27C99A" d="M61 41h46v10H61z"/></g></svg>
