<svg width="120" height="100" viewBox="0 0 120 100" xmlns="http://www.w3.org/2000/svg"><defs><linearGradient x1="50%" y1="100%" x2="50%" y2="-6.058%" id="a"><stop stop-color="#FFF" stop-opacity="0" offset="0%"/><stop stop-color="#E5E4EA" offset="100%"/></linearGradient><linearGradient x1="50%" y1="73.92%" x2="50%" y2="-32.351%" id="b"><stop stop-color="#FFF" stop-opacity="0" offset="0%"/><stop stop-color="#E5E4EA" offset="100%"/></linearGradient><linearGradient x1="100%" y1="164.139%" y2="118.114%" id="c"><stop stop-color="#E5E4EA" offset="0%"/><stop stop-color="#ECEBEF" offset="100%"/></linearGradient><linearGradient x1="100%" y1="164.139%" y2="118.114%" id="d"><stop stop-color="#E5E4EA" offset="0%"/><stop stop-color="#ECEBEF" offset="100%"/></linearGradient><linearGradient x1="100%" y1="164.139%" y2="118.114%" id="e"><stop stop-color="#E5E4EA" offset="0%"/><stop stop-color="#ECEBEF" offset="100%"/></linearGradient><linearGradient x1="100%" y1="164.139%" y2="118.114%" id="f"><stop stop-color="#E5E4EA" offset="0%"/><stop stop-color="#ECEBEF" offset="100%"/></linearGradient><linearGradient x1="100%" y1="164.139%" y2="118.114%" id="g"><stop stop-color="#E5E4EA" offset="0%"/><stop stop-color="#ECEBEF" offset="100%"/></linearGradient><linearGradient x1="100%" y1="164.139%" y2="118.114%" id="h"><stop stop-color="#E5E4EA" offset="0%"/><stop stop-color="#ECEBEF" offset="100%"/></linearGradient><linearGradient x1="100%" y1="164.139%" y2="118.114%" id="i"><stop stop-color="#E5E4EA" offset="0%"/><stop stop-color="#ECEBEF" offset="100%"/></linearGradient></defs><g fill="none" fill-rule="evenodd"><path d="M0 0h120v100H0z"/><g transform="translate(0 3)"><ellipse fill="url(#a)" cx="56.2" cy="77.6" rx="49.2" ry="15.6"/><rect fill="url(#b)" transform="rotate(45 15.6 39.6)" x="10.8" y="22.8" width="9.6" height="33.6" rx="4.704"/><rect fill="url(#b)" transform="rotate(45 99.6 58.8)" x="94.8" y="42" width="9.6" height="33.6" rx="4.704"/><rect fill="url(#b)" transform="rotate(45 96 15.6)" x="91.2" y="-1.2" width="9.6" height="33.6" rx="4.704"/></g><path fill="url(#c)" d="M30.888.001v10.82l-1.733 5.068V5.065z" transform="translate(21 37)"/><path fill="url(#d)" d="M42.86 5.088v10.824l-1.674-5.068V.02z" transform="translate(21 37)"/><path d="M42.86 15.91V5.087L59.1 7.664c1.492.254 2.597 1.16 2.597 2.32v10.821c0-1.156-1.105-2.067-2.596-2.32L42.859 15.91z" fill="url(#e)" transform="translate(21 37)"/><path d="M12.915 6.234v12.25c-1.433.254-2.48 1.165-2.564 2.321l-.001-12.86 2.565-1.71zm16.241-1.168V15.89l-16.241 2.597V7.666l16.241-2.6z" fill="url(#f)" transform="translate(21 37)"/><path fill="url(#g)" d="M25.961 27.153h20.24l.004-8.429h-20.24z" transform="translate(21 37)"/><path d="M0 22.777v11.56c0 1.921 2.855 7.773 10.584 7.773H30.83v-9.891l-7.67-.943-15.382-1.963L0 22.777z" fill="url(#h)" transform="translate(21 37)"/><path d="M41.186 22.777v11.56c0 1.921 2.987 7.773 10.715 7.773h20.246v-9.891l-7.67-.943-15.381-1.963-7.91-6.536z" fill="url(#i)" transform="matrix(-1 0 0 1 134.334 37)"/><path d="M33.916 62.142l16.24 2.471 1.672 5.064H33.053c-6.599 0-12.034-3.966-12.034-8.802V45.74c0-4.81 5.314-8.739 12.034-8.739H51.89l-1.733 5.067-16.241 2.596c-1.433.254-2.48 1.16-2.567 2.325v12.811c-.03 1.12 1.076 2.068 2.567 2.343M81.115 37.02c6.595 0 11.912 3.908 12.03 8.722v15.22c0 4.917-5.435 8.842-12.03 8.842H62.186l1.675-5.067L80.1 62.14c1.462-.232 2.476-1.179 2.597-2.321V46.986c0-1.164-1.105-2.07-2.596-2.32L63.86 42.088l-1.675-5.067h18.93z" fill="#C7C5CF" fill-rule="nonzero"/><path fill="#C7C5CF" fill-rule="nonzero" d="M46.961 55.728h20.24V51.06h-20.24z"/></g></svg>
