<svg width="120" height="100" viewBox="0 0 120 100" xmlns="http://www.w3.org/2000/svg"><defs><linearGradient x1="48.978%" y1="0%" x2="48.978%" y2="85.511%" id="a"><stop stop-color="#E2DFEE" offset="0%"/><stop stop-color="#F3F5F8" stop-opacity="0" offset="100%"/></linearGradient><linearGradient x1="50%" y1="118.903%" x2="50%" y2="50%" id="b"><stop stop-color="#F5F4F8" offset="0%"/><stop stop-color="#E0DCE9" offset="100%"/></linearGradient><linearGradient x1="50%" y1="118.903%" x2="50%" y2="50%" id="c"><stop stop-color="#F5F4F8" offset="0%"/><stop stop-color="#E0DCE9" offset="100%"/></linearGradient><linearGradient x1="50%" y1="118.903%" x2="50%" y2="50%" id="d"><stop stop-color="#F5F4F8" offset="0%"/><stop stop-color="#E0DCE9" offset="100%"/></linearGradient><linearGradient x1="50%" y1="118.903%" x2="50%" y2="50%" id="e"><stop stop-color="#F5F4F8" offset="0%"/><stop stop-color="#E0DCE9" offset="100%"/></linearGradient><linearGradient x1="50%" y1="118.903%" x2="50%" y2="50%" id="f"><stop stop-color="#F5F4F8" offset="0%"/><stop stop-color="#E0DCE9" offset="100%"/></linearGradient><linearGradient x1="48.978%" y1="0%" x2="48.978%" y2="85.511%" id="g"><stop stop-color="#E2DFEE" offset="0%"/><stop stop-color="#F3F5F8" stop-opacity="0" offset="100%"/></linearGradient></defs><g fill="none" fill-rule="evenodd"><path d="M0 0h120v100H0z"/><g transform="translate(0 3)"><ellipse fill="url(#a)" opacity=".8" cx="56.2" cy="77.6" rx="49.2" ry="15.6"/><path d="M.003 25.776L0 38.821c0 .357.604 8.925 18.27 8.927 17.665.001 39.843-.59 44.09-.59s12.194-3.419 12.194-8.337c0-3.752-.037-8.038-.113-12.86l-7.834 7.324-27.13 3.228-27.704-1.142-11.77-9.595z" fill="url(#b)" transform="translate(19 27)"/><path d="M69.393 25.078l-2.786 6.193c-1.208-2.572-4.149-3.73-8.822-3.475-4.674.256-9.927 2.653-15.76 7.191l-15.581 1.526 7.307-8.448L55.59 16.608l11.017 2.567 2.784 5.376.002.527z" fill="url(#c)" transform="translate(19 27)"/><path fill="#E8E5EE" d="M53.888 47.606v5.036l-4.803 3.537.16-5.807z"/><path d="M27.328 30.572c-3.101-2.247-6.47-3.163-10.104-2.747-3.634.416-6.744 1.564-9.328 3.446l-4.598-5.495 4.598-6.905 9.378-2.263 9.588 2.263 4.081 3.471.105 5.483-3.72 2.747z" fill="url(#d)" transform="translate(19 27)"/><path fill="url(#e)" d="M59.087 10.846v4.055l-6.958.424.148-4.479 4.899-.6z" transform="translate(19 27)"/><path d="M52.277 10.923v4.402l-4.446 1.65c-4.11-1.717-8.076-2.46-11.896-2.229-3.82.231-6.635 1.708-8.448 4.429l-8.059-3.85 3.278-6.515 5.185-4.277 14.566-.783 10.65 4.33-.83 2.843z" fill="url(#f)" transform="translate(19 27)"/><path d="M86.72 52.992c0-1.956-1.12-3.822-3.123-5.173-2.065-1.329-4.733-2.102-7.495-2.124h-.243c-2.732 0-5.37.75-7.282 2.124-.821.493-1.639.989-2.43 1.523l-3.58 2.444c-2.698 1.826-7.375 4.98-12.563 8.5h26.157c2.762 0 5.431-.75 7.436-2.124 2.004-1.352 3.124-3.195 3.124-5.17zm6.831.041c-.03 3.218-1.911 6.29-5.158 8.518-3.094 1.974-6.98 3.154-11.108 3.37a51.334 51.334 0 0 1-6.01.217H38.595c-1.183.018-2.396 0-3.58-.109l-1.212-.108c-3.614-.235-6.98-1.351-9.56-3.154-6.86-4.744-7.009-12.489-.302-17.337 2.516-1.911 5.886-3.199 9.585-3.606 1.732-7.338 10.22-12.964 20.727-13.623 6.524-.41 11.895 1.29 14.9 2.765 3.928 1.93 7.286 4.569 9.014 7.94-.366-.023-.758-.023-1.154-.023-1.791 0-3.825.216-5.736.646-2.699-4.12-8.555-6.76-14.99-6.76-11.91-.236-14.81 6.222-15.717 8.734l-.183.493.574.13a20.436 20.436 0 0 1 5.737 2.035l2.184 1.314c1.668.963 3.613 2.142 5.009 3.131v.213l-4.494 3.154h-.303c-1.183-.836-4.52-2.508-5.673-3.367-1.732-1.265-4.035-2.02-6.494-2.124H35.832c-2.669 0-5.248.75-7.129 2.124-3.945 2.982-3.822 7.66.302 10.556 2.154 1.328 4.946 2.1 7.797 2.1h3.767l20.207-13.921a51.023 51.023 0 0 1 4.49-2.964c3.218-1.735 7.103-2.702 11.108-2.725 4.673 0 9.134 1.374 12.291 3.8 3.184 2.273 4.976 5.386 4.886 8.581z" fill="#6A549E"/><rect fill="url(#g)" opacity=".8" transform="rotate(45 15.6 39.6)" x="10.8" y="22.8" width="9.6" height="33.6" rx="4.704"/><rect fill="url(#g)" opacity=".8" transform="rotate(45 99.6 58.8)" x="94.8" y="42" width="9.6" height="33.6" rx="4.704"/><rect fill="url(#g)" opacity=".8" transform="rotate(45 96 15.6)" x="91.2" y="-1.2" width="9.6" height="33.6" rx="4.704"/></g></g></svg>
