<svg width="170" height="170" viewBox="0 0 170 170" xmlns="http://www.w3.org/2000/svg" xmlns:xlink="http://www.w3.org/1999/xlink"><defs><linearGradient x1="100%" y1="50%" x2="0%" y2="50%" id="b"><stop stop-color="#302647" offset="0%"/><stop stop-color="#ACA8B5" offset="18.224%"/><stop stop-color="#8D65E1" offset="18.25%"/><stop stop-color="#8D65E1" offset="22.314%"/><stop stop-color="#E0A716" offset="22.414%"/><stop stop-color="#E0A716" offset="25.993%"/><stop stop-color="#59516C" offset="26.007%"/><stop stop-color="#302647" offset="49.649%"/><stop stop-color="#ACA8B5" offset="100%"/></linearGradient><path d="M84.712 2.465l.472.206 48.463 21.644v-3.012h11.568v11.484h-.056c-.001 1.891-1.053 3.7-2.836 4.592l-.207.098-56.932 25.426a30.818 30.818 0 0 1-24.663.206l-.471-.206L3.118 37.477a5.136 5.136 0 0 1-3.043-4.69H0V21.303h15.313l-.001 1.347L60.05 2.67a30.818 30.818 0 0 1 24.662-.205z" id="a"/><linearGradient x1="50%" y1="0%" x2="50%" y2="100%" id="d"><stop stop-color="#F0F4FF" offset="0%"/><stop stop-color="#F8FAFF" offset="100%"/></linearGradient><path d="M67.433 5.613L10.5 31.039a5.136 5.136 0 0 0 0 9.38l56.932 25.426a30.818 30.818 0 0 0 25.134 0L149.5 40.419a5.136 5.136 0 0 0 0-9.38L92.567 5.613a30.818 30.818 0 0 0-25.134 0z" id="c"/><filter x="3.4%" y="1.3%" width="93.2%" height="97.4%" filterUnits="objectBoundingBox" id="e"><feOffset dy="-2" in="SourceAlpha" result="shadowOffsetInner1"/><feComposite in="shadowOffsetInner1" in2="SourceAlpha" operator="arithmetic" k2="-1" k3="1" result="shadowInnerInner1"/><feColorMatrix values="0 0 0 0 1 0 0 0 0 1 0 0 0 0 1 0 0 0 1 0" in="shadowInnerInner1" result="shadowMatrixInner1"/><feGaussianBlur stdDeviation="1" in="SourceAlpha" result="shadowBlurInner2"/><feOffset dy="2" in="shadowBlurInner2" result="shadowOffsetInner2"/><feComposite in="shadowOffsetInner2" in2="SourceAlpha" operator="arithmetic" k2="-1" k3="1" result="shadowInnerInner2"/><feColorMatrix values="0 0 0 0 0.678431373 0 0 0 0 0.745098039 0 0 0 0 1 0 0 0 0.0523382867 0" in="shadowInnerInner2" result="shadowMatrixInner2"/><feMerge><feMergeNode in="shadowMatrixInner1"/><feMergeNode in="shadowMatrixInner2"/></feMerge></filter><linearGradient x1="3.325%" y1="55.558%" x2="81.744%" y2="44.442%" id="i"><stop stop-color="#EAEDF6" offset="0%"/><stop stop-color="#C6C2D1" offset="100%"/></linearGradient><path d="M92.43 22.183l-30.738 7.14c-.56.13-.81.47-.559.76a.764.764 0 0 0 .228.171l7.887 4.09c.433.225.433.59 0 .814a1.327 1.327 0 0 1-.23.091l-20.804 6.24c-.53.159-.712.511-.405.786.21.188.605.299 1.024.287l51.611-1.527c.612-.018 1.08-.29 1.045-.607-.016-.141-.13-.274-.323-.374l-9.128-4.734c-.434-.225-.434-.589 0-.814.103-.053.226-.096.361-.125l15.85-3.392c.567-.121.837-.458.603-.752a.74.74 0 0 0-.241-.187l-14.942-7.749c-.326-.169-.818-.216-1.238-.118z" id="h"/><filter x="0%" y="0%" width="100%" height="100%" filterUnits="objectBoundingBox" id="g"><feOffset in="SourceAlpha" result="shadowOffsetOuter1"/><feColorMatrix values="0 0 0 0 1 0 0 0 0 1 0 0 0 0 1 0 0 0 1 0" in="shadowOffsetOuter1"/></filter><filter x="0%" y="0%" width="100%" height="100%" filterUnits="objectBoundingBox" id="j"><feOffset in="SourceAlpha" result="shadowOffsetInner1"/><feComposite in="shadowOffsetInner1" in2="SourceAlpha" operator="arithmetic" k2="-1" k3="1" result="shadowInnerInner1"/><feColorMatrix values="0 0 0 0 0.625862402 0 0 0 0 0.603933406 0 0 0 0 0.673375226 0 0 0 1 0" in="shadowInnerInner1"/></filter></defs><g fill="none" fill-rule="evenodd" opacity=".15"><use fill="url(#b)" xlink:href="#a" transform="rotate(-45 150.542 40.34)"/><g transform="rotate(-45 136.82 56.464)"><mask id="f" fill="#fff"><use xlink:href="#c"/></mask><use fill="url(#d)" xlink:href="#c"/><use fill="#000" filter="url(#e)" xlink:href="#c"/><g mask="url(#f)"><use fill="#000" filter="url(#g)" xlink:href="#h"/><use fill="url(#i)" xlink:href="#h"/><use fill="#000" filter="url(#j)" xlink:href="#h"/></g></g></g></svg>
