<svg width="89" height="132" viewBox="0 0 89 132" xmlns="http://www.w3.org/2000/svg" xmlns:xlink="http://www.w3.org/1999/xlink"><defs><linearGradient x1="0%" y1="50%" x2="99.415%" y2="49.879%" id="b"><stop stop-color="#FFDA7B" offset="0%"/><stop stop-color="#FCD675" offset="25.33%"/><stop stop-color="#E0A716" offset="100%"/></linearGradient><path d="M63.01 1.858l.42.184L99.4 18.24v-2.259h8.604v8.258a3.826 3.826 0 0 1-2.055 3.753l-.183.088L63.43 47.145a22.943 22.943 0 0 1-18.421.184l-.42-.184L2.251 28.08A3.824 3.824 0 0 1 0 24.444V15.98h11.389l-.001 1.011 33.2-14.95a22.943 22.943 0 0 1 18.422-.184z" id="a"/><linearGradient x1="50%" y1="0%" x2="50%" y2="98.831%" id="d"><stop stop-color="#FEE39F" offset="0%"/><stop stop-color="#FFF4D8" offset="100%"/></linearGradient><path d="M50.08 4.242L7.742 23.307a3.824 3.824 0 0 0 0 6.974l42.336 19.065a22.943 22.943 0 0 0 18.842 0l42.336-19.065a3.824 3.824 0 0 0 0-6.974L68.921 4.242a22.943 22.943 0 0 0-18.842 0z" id="c"/><filter x="2.9%" y=".4%" width="94.1%" height="99.2%" filterUnits="objectBoundingBox" id="e"><feOffset dy="-2" in="SourceAlpha" result="shadowOffsetInner1"/><feComposite in="shadowOffsetInner1" in2="SourceAlpha" operator="arithmetic" k2="-1" k3="1" result="shadowInnerInner1"/><feColorMatrix values="0 0 0 0 1 0 0 0 0 1 0 0 0 0 1 0 0 0 1 0" in="shadowInnerInner1" result="shadowMatrixInner1"/><feGaussianBlur stdDeviation="1" in="SourceAlpha" result="shadowBlurInner2"/><feOffset dy="2" in="shadowBlurInner2" result="shadowOffsetInner2"/><feComposite in="shadowOffsetInner2" in2="SourceAlpha" operator="arithmetic" k2="-1" k3="1" result="shadowInnerInner2"/><feColorMatrix values="0 0 0 0 0.678431373 0 0 0 0 0.745098039 0 0 0 0 1 0 0 0 0.0523382867 0" in="shadowInnerInner2" result="shadowMatrixInner2"/><feMerge><feMergeNode in="shadowMatrixInner1"/><feMergeNode in="shadowMatrixInner2"/></feMerge></filter><linearGradient x1="51.501%" y1="60.139%" x2="82.429%" y2="38.798%" id="f"><stop stop-color="#F2C552" stop-opacity=".647" offset="0%"/><stop stop-color="#FFE8B0" stop-opacity=".61" offset="100%"/></linearGradient><filter x="3%" y=".6%" width="94%" height="98.8%" filterUnits="objectBoundingBox" id="g"><feGaussianBlur stdDeviation=".636" in="SourceGraphic"/></filter><linearGradient x1="71.737%" y1="26.373%" x2="27.058%" y2="54.749%" id="k"><stop stop-color="#E2AA1B" offset="0%"/><stop stop-color="#FFD46C" offset="100%"/></linearGradient><path d="M73.474 17.332l.125-.053c1.112-.467 2.916-.467 4.028 0 1.113.468 1.113 1.226 0 1.693l-.124.053c6.38 3.444 6.38 8.3 0 11.744l.124.052c1.113.468 1.113 1.226 0 1.693-1.112.467-2.916.467-4.028 0l-.125-.052c-8.197 2.68-19.75 2.68-27.948 0l-.125.052c-1.112.467-2.916.467-4.028 0-1.113-.467-1.113-1.225 0-1.693l.124-.052c-6.38-3.445-6.38-8.3 0-11.744l-.124-.053c-1.113-.467-1.113-1.225 0-1.693 1.112-.467 2.916-.467 4.028 0l.125.053c8.197-2.681 19.75-2.681 27.948 0zm-23.878 1.71l1.847.776c1.113.468 1.113 1.226 0 1.693-1.112.468-2.915.468-4.028 0l-1.846-.776c-4.212 2.483-4.212 5.84 0 8.323l1.846-.776c1.113-.467 2.916-.467 4.028 0 1.113.468 1.113 1.225 0 1.693l-1.847.776c5.91 1.77 13.898 1.77 19.808 0l-1.847-.776c-1.113-.468-1.113-1.225 0-1.693 1.112-.467 2.915-.467 4.028 0l1.846.776c4.212-2.483 4.212-5.84 0-8.323l-1.846.776c-1.113.468-2.916.468-4.028 0-1.113-.467-1.113-1.225 0-1.693l1.847-.776c-5.91-1.77-13.898-1.77-19.808 0zm5.876 4.162c2.224-.935 5.832-.935 8.056 0 2.225.935 2.225 2.45 0 3.385-2.224.935-5.832.935-8.056 0-2.225-.935-2.225-2.45 0-3.385z" id="j"/><filter x="0%" y="0%" width="100%" height="100%" filterUnits="objectBoundingBox" id="i"><feOffset in="SourceAlpha" result="shadowOffsetOuter1"/><feColorMatrix values="0 0 0 0 1 0 0 0 0 0.962557165 0 0 0 0 0.867701982 0 0 0 1 0" in="shadowOffsetOuter1"/></filter><filter x="0%" y="0%" width="100%" height="100%" filterUnits="objectBoundingBox" id="l"><feOffset in="SourceAlpha" result="shadowOffsetInner1"/><feComposite in="shadowOffsetInner1" in2="SourceAlpha" operator="arithmetic" k2="-1" k3="1" result="shadowInnerInner1"/><feColorMatrix values="0 0 0 0 0.894117647 0 0 0 0 0.678431373 0 0 0 0 0.137254902 0 0 0 1 0" in="shadowInnerInner1"/></filter></defs><g opacity=".3"><g opacity=".465" fill="none" fill-rule="evenodd"><use fill="url(#b)" xlink:href="#a" transform="rotate(-105 67.215 46.242)"/><g transform="rotate(-105 65.812 53.755)"><mask id="h" fill="#fff"><use xlink:href="#c"/></mask><use fill="url(#d)" xlink:href="#c"/><use fill="#000" filter="url(#e)" xlink:href="#c"/><path d="M-8.155-14.909L-50.49 4.156a3.824 3.824 0 0 0 0 6.973l42.336 19.065a22.943 22.943 0 0 0 18.841 0L53.023 11.13a3.824 3.824 0 0 0 0-6.973L10.686-14.909a22.943 22.943 0 0 0-18.84 0z" fill="url(#f)" filter="url(#g)" mask="url(#h)"/><g fill-rule="nonzero" mask="url(#h)"><use fill="#000" filter="url(#i)" xlink:href="#j"/><use fill="url(#k)" xlink:href="#j"/><use fill="#000" filter="url(#l)" xlink:href="#j"/></g></g></g></g></svg>
