<svg width="280" height="336" viewBox="0 0 280 336" xmlns="http://www.w3.org/2000/svg" xmlns:xlink="http://www.w3.org/1999/xlink"><defs><linearGradient x1="0%" y1="50%" x2="99.415%" y2="49.881%" id="b"><stop stop-color="#D3ADF7" offset="0%"/><stop stop-color="#CCB6EF" offset="25.33%"/><stop stop-color="#7C53DB" offset="100%"/></linearGradient><path d="M159.12 4.743l.6.264 90.868 40.582v-5.647h21.69v21.533h-.105a9.634 9.634 0 0 1-5.453 8.676l-.253.118-106.747 47.674a57.784 57.784 0 0 1-46.526.264l-.601-.264L5.846 70.27A9.63 9.63 0 0 1 .98 65.403a9.597 9.597 0 0 1-.84-3.927H0V39.941h28.711v2.527l83.882-37.462a57.784 57.784 0 0 1 46.526-.264z" id="a"/><linearGradient x1="50%" y1="0%" x2="50%" y2="98.831%" id="d"><stop stop-color="#EDDBFF" offset="0%"/><stop stop-color="#F9F0FF" offset="100%"/></linearGradient><path d="M126.436 10.524L19.69 58.198a9.63 9.63 0 0 0 0 17.587l106.747 47.675a57.784 57.784 0 0 0 47.128 0L280.31 75.785a9.63 9.63 0 0 0 0-17.587L173.564 10.524a57.784 57.784 0 0 0-47.128 0z" id="c"/><filter x="3.7%" y="1.9%" width="92.7%" height="96.3%" filterUnits="objectBoundingBox" id="e"><feOffset dy="-3" in="SourceAlpha" result="shadowOffsetInner1"/><feComposite in="shadowOffsetInner1" in2="SourceAlpha" operator="arithmetic" k2="-1" k3="1" result="shadowInnerInner1"/><feColorMatrix values="0 0 0 0 1 0 0 0 0 1 0 0 0 0 1 0 0 0 1 0" in="shadowInnerInner1" result="shadowMatrixInner1"/><feGaussianBlur stdDeviation="1.5" in="SourceAlpha" result="shadowBlurInner2"/><feOffset dy="3" in="shadowBlurInner2" result="shadowOffsetInner2"/><feComposite in="shadowOffsetInner2" in2="SourceAlpha" operator="arithmetic" k2="-1" k3="1" result="shadowInnerInner2"/><feColorMatrix values="0 0 0 0 0.678431373 0 0 0 0 0.745098039 0 0 0 0 1 0 0 0 0.0523382867 0" in="shadowInnerInner2" result="shadowMatrixInner2"/><feMerge><feMergeNode in="shadowMatrixInner1"/><feMergeNode in="shadowMatrixInner2"/></feMerge></filter><linearGradient x1="5.672%" y1="49.047%" x2="53.677%" y2="58.668%" id="f"><stop stop-color="#9E7DE4" stop-opacity=".375" offset=".038%"/><stop stop-color="#AA8DE7" stop-opacity=".012" offset="100%"/></linearGradient><filter x="3.1%" y=".5%" width="93.9%" height="99%" filterUnits="objectBoundingBox" id="g"><feGaussianBlur stdDeviation="1.075" in="SourceGraphic"/></filter><linearGradient x1="71.737%" y1="24.701%" x2="27.058%" y2="55.085%" id="k"><stop stop-color="#8862DE" offset="0%"/><stop stop-color="#E8D3F9" offset="100%"/></linearGradient><path d="M70.026.681c2.105-.908 5.52-.908 7.625 0l68.627 29.608c2.106.908 2.106 2.38 0 3.29l-31.454 13.57-22.895-9.878-15.422 1.57 9.722-20.478-28.594 4.113L38.57 14.25 70.026.681zM59.59 46.441l28.532-4.185 19.02 8.37L77.66 63.6c-2.1.924-5.507.924-7.608 0L1.576 33.467c-2.101-.925-2.101-2.424 0-3.348l29.482-12.974 23.777 10.463L69.1 25.515l-9.51 20.926z" id="j"/><filter x="0%" y="0%" width="100%" height="100%" filterUnits="objectBoundingBox" id="i"><feOffset in="SourceAlpha" result="shadowOffsetOuter1"/><feColorMatrix values="0 0 0 0 0.978997713 0 0 0 0 0.95226753 0 0 0 0 1 0 0 0 1 0" in="shadowOffsetOuter1"/></filter><filter x="-1%" y="-2.3%" width="102%" height="104.7%" filterUnits="objectBoundingBox" id="l"><feOffset dy="3" in="SourceAlpha" result="shadowOffsetInner1"/><feComposite in="shadowOffsetInner1" in2="SourceAlpha" operator="arithmetic" k2="-1" k3="1" result="shadowInnerInner1"/><feColorMatrix values="0 0 0 0 0.630664307 0 0 0 0 0.49074735 0 0 0 0 0.953549592 0 0 0 1 0" in="shadowInnerInner1"/></filter></defs><g opacity=".3"><g opacity=".793" fill="none" fill-rule="evenodd"><use fill="url(#b)" xlink:href="#a" transform="rotate(60 34.112 111.304)"/><g transform="rotate(60 64.46 112.84)"><mask id="h" fill="#fff"><use xlink:href="#c"/></mask><use fill="url(#d)" xlink:href="#c"/><use fill="#000" filter="url(#e)" xlink:href="#c"/><path d="M230.609-20.796l-71.673 32.007a6.466 6.466 0 0 0 0 11.808l71.673 32.007a38.798 38.798 0 0 0 31.64 0l71.672-32.007a6.466 6.466 0 0 0 0-11.808L262.25-20.796a38.798 38.798 0 0 0-31.64 0z" fill="url(#f)" filter="url(#g)" mask="url(#h)"/><g mask="url(#h)" fill-rule="nonzero"><g transform="translate(77.143 34.29)"><use fill="#000" filter="url(#i)" xlink:href="#j"/><use fill="url(#k)" xlink:href="#j"/><use fill="#000" filter="url(#l)" xlink:href="#j"/></g></g></g></g></g></svg>
