<svg width="74" height="37" viewBox="0 0 74 37" xmlns="http://www.w3.org/2000/svg" xmlns:xlink="http://www.w3.org/1999/xlink"><defs><linearGradient x1="0%" y1="50%" x2="99.415%" y2="49.88%" id="b"><stop stop-color="#FFDA7B" offset="0%"/><stop stop-color="#FCD675" offset="25.33%"/><stop stop-color="#E0A716" offset="100%"/></linearGradient><path d="M38.155 1.062l.364.157 21.892 9.806V9.66h5.23v5.206h-.012c0 .835-.453 1.633-1.224 2.046l-.15.073L38.52 28.514a13.93 13.93 0 0 1-11.025.157l-.364-.157L1.393 16.985A2.322 2.322 0 0 1 .02 14.867H0V9.66h6.922l-.001.61L27.13 1.219a13.93 13.93 0 0 1 11.025-.157z" id="a"/><linearGradient x1="50%" y1="0%" x2="50%" y2="98.831%" id="d"><stop stop-color="#FEE39F" offset="0%"/><stop stop-color="#FFF4D8" offset="100%"/></linearGradient><path d="M30.467 2.55L4.73 14.08a2.322 2.322 0 0 0 0 4.237l25.737 11.529a13.93 13.93 0 0 0 11.39 0l25.736-11.529a2.322 2.322 0 0 0 0-4.238L41.856 2.551a13.93 13.93 0 0 0-11.39 0z" id="c"/><filter x="3.3%" y="1%" width="93.5%" height="97.9%" filterUnits="objectBoundingBox" id="e"><feOffset dy="-1" in="SourceAlpha" result="shadowOffsetInner1"/><feComposite in="shadowOffsetInner1" in2="SourceAlpha" operator="arithmetic" k2="-1" k3="1" result="shadowInnerInner1"/><feColorMatrix values="0 0 0 0 1 0 0 0 0 1 0 0 0 0 1 0 0 0 1 0" in="shadowInnerInner1" result="shadowMatrixInner1"/><feGaussianBlur stdDeviation=".5" in="SourceAlpha" result="shadowBlurInner2"/><feOffset dy="1" in="shadowBlurInner2" result="shadowOffsetInner2"/><feComposite in="shadowOffsetInner2" in2="SourceAlpha" operator="arithmetic" k2="-1" k3="1" result="shadowInnerInner2"/><feColorMatrix values="0 0 0 0 0.678431373 0 0 0 0 0.745098039 0 0 0 0 1 0 0 0 0.0523382867 0" in="shadowInnerInner2" result="shadowMatrixInner2"/><feMerge><feMergeNode in="shadowMatrixInner1"/><feMergeNode in="shadowMatrixInner2"/></feMerge></filter><linearGradient x1="51.501%" y1="60.032%" x2="82.429%" y2="38.917%" id="f"><stop stop-color="#F2C552" stop-opacity=".647" offset="0%"/><stop stop-color="#FFE8B0" stop-opacity=".61" offset="100%"/></linearGradient><filter x="3%" y=".5%" width="93.9%" height="98.9%" filterUnits="objectBoundingBox" id="g"><feGaussianBlur stdDeviation=".386" in="SourceGraphic"/></filter><linearGradient x1="71.737%" y1="26.622%" x2="27.058%" y2="54.699%" id="k"><stop stop-color="#E2AA1B" offset="0%"/><stop stop-color="#FFD46C" offset="100%"/></linearGradient><path d="M44.654 10.478l.076-.032c.676-.282 1.773-.282 2.449 0 .676.283.676.74 0 1.023l-.076.032c3.877 2.083 3.877 5.018 0 7.1l.076.032c.676.283.676.74 0 1.023-.676.283-1.773.283-2.449 0l-.076-.031c-4.982 1.62-12.003 1.62-16.985 0l-.076.031c-.676.283-1.772.283-2.448 0-.676-.282-.676-.74 0-1.023l.075-.032c-3.877-2.082-3.877-5.017 0-7.1l-.075-.032c-.676-.282-.676-.74 0-1.023.676-.282 1.772-.282 2.448 0l.076.032c4.982-1.62 12.003-1.62 16.985 0zm-14.512 1.034l1.123.47c.676.282.676.74 0 1.023-.676.282-1.772.282-2.448 0l-1.122-.47c-2.56 1.501-2.56 3.53 0 5.032l1.122-.47c.676-.282 1.772-.282 2.448 0 .676.283.676.742 0 1.024l-1.123.47c3.592 1.07 8.447 1.07 12.039 0l-1.123-.47c-.676-.282-.676-.74 0-1.023.676-.283 1.772-.283 2.448 0l1.123.47c2.56-1.502 2.56-3.532 0-5.033l-1.123.47c-.676.282-1.772.282-2.448 0-.676-.283-.676-.741 0-1.024l1.123-.469c-3.592-1.07-8.447-1.07-12.039 0zm3.571 2.516c1.353-.565 3.545-.565 4.897 0 1.352.565 1.352 1.481 0 2.047-1.352.565-3.544.565-4.897 0-1.352-.566-1.352-1.482 0-2.047z" id="j"/><filter x="0%" y="0%" width="100%" height="100%" filterUnits="objectBoundingBox" id="i"><feOffset in="SourceAlpha" result="shadowOffsetOuter1"/><feColorMatrix values="0 0 0 0 1 0 0 0 0 0.962557165 0 0 0 0 0.867701982 0 0 0 1 0" in="shadowOffsetOuter1"/></filter><filter x="0%" y="0%" width="100%" height="100%" filterUnits="objectBoundingBox" id="l"><feOffset in="SourceAlpha" result="shadowOffsetInner1"/><feComposite in="shadowOffsetInner1" in2="SourceAlpha" operator="arithmetic" k2="-1" k3="1" result="shadowInnerInner1"/><feColorMatrix values="0 0 0 0 0.894117647 0 0 0 0 0.678431373 0 0 0 0 0.137254902 0 0 0 1 0" in="shadowInnerInner1"/></filter></defs><g fill="none" fill-rule="evenodd"><use fill="url(#b)" xlink:href="#a" transform="translate(4.284 6.956)"/><g transform="translate(.946 .418)"><mask id="h" fill="#fff"><use xlink:href="#c"/></mask><use fill="url(#d)" xlink:href="#c"/><use fill="#000" filter="url(#e)" xlink:href="#c"/><path d="M-4.925-9.027L-30.662 2.501a2.322 2.322 0 0 0 0 4.238l25.737 11.529a13.93 13.93 0 0 0 11.39 0L32.2 6.739a2.322 2.322 0 0 0 0-4.238L6.464-9.027a13.93 13.93 0 0 0-11.39 0z" fill="url(#f)" filter="url(#g)" mask="url(#h)"/><g fill-rule="nonzero" mask="url(#h)"><use fill="#000" filter="url(#i)" xlink:href="#j"/><use fill="url(#k)" xlink:href="#j"/><use fill="#000" filter="url(#l)" xlink:href="#j"/></g></g></g></svg>
