<svg width="109" height="55" viewBox="0 0 109 55" xmlns="http://www.w3.org/2000/svg" xmlns:xlink="http://www.w3.org/1999/xlink"><defs><linearGradient x1="0%" y1="50%" x2="99.415%" y2="49.88%" id="b"><stop stop-color="#D3ADF7" offset="0%"/><stop stop-color="#CCB6EF" offset="25.33%"/><stop stop-color="#7C53DB" offset="100%"/></linearGradient><path d="M56.953 1.635l.417.18 32.604 14.607v-2.034h7.788v7.756h-.016a3.46 3.46 0 0 1-1.868 3.07l-.177.085L57.37 42.471a20.748 20.748 0 0 1-16.548.181l-.417-.18L2.074 25.298a3.458 3.458 0 0 1-2.045-3.156H0v-7.755h10.309l-.001.91L40.405 1.816a20.748 20.748 0 0 1 16.548-.181z" id="a"/><linearGradient x1="50%" y1="0%" x2="50%" y2="98.831%" id="d"><stop stop-color="#EDDBFF" offset="0%"/><stop stop-color="#F9F0FF" offset="100%"/></linearGradient><path d="M45.375 3.8L7.045 20.972a3.458 3.458 0 0 0 0 6.311l38.33 17.172a20.748 20.748 0 0 0 16.965 0l38.331-17.172a3.458 3.458 0 0 0 0-6.311L62.341 3.8a20.748 20.748 0 0 0-16.966 0z" id="c"/><filter x="3.7%" y="2%" width="92.6%" height="95.9%" filterUnits="objectBoundingBox" id="e"><feOffset dy="-1" in="SourceAlpha" result="shadowOffsetInner1"/><feComposite in="shadowOffsetInner1" in2="SourceAlpha" operator="arithmetic" k2="-1" k3="1" result="shadowInnerInner1"/><feColorMatrix values="0 0 0 0 1 0 0 0 0 1 0 0 0 0 1 0 0 0 1 0" in="shadowInnerInner1" result="shadowMatrixInner1"/><feGaussianBlur stdDeviation=".5" in="SourceAlpha" result="shadowBlurInner2"/><feOffset dy="1" in="shadowBlurInner2" result="shadowOffsetInner2"/><feComposite in="shadowOffsetInner2" in2="SourceAlpha" operator="arithmetic" k2="-1" k3="1" result="shadowInnerInner2"/><feColorMatrix values="0 0 0 0 0.678431373 0 0 0 0 0.745098039 0 0 0 0 1 0 0 0 0.0523382867 0" in="shadowInnerInner2" result="shadowMatrixInner2"/><feMerge><feMergeNode in="shadowMatrixInner1"/><feMergeNode in="shadowMatrixInner2"/></feMerge></filter><linearGradient x1="5.672%" y1="49.041%" x2="53.677%" y2="58.722%" id="f"><stop stop-color="#9E7DE4" stop-opacity=".375" offset=".038%"/><stop stop-color="#AA8DE7" stop-opacity=".012" offset="100%"/></linearGradient><filter x="3%" y=".5%" width="93.9%" height="98.9%" filterUnits="objectBoundingBox" id="g"><feGaussianBlur stdDeviation=".386" in="SourceGraphic"/></filter><linearGradient x1="71.737%" y1="24.545%" x2="27.058%" y2="55.116%" id="k"><stop stop-color="#8862DE" offset="0%"/><stop stop-color="#E8D3F9" offset="100%"/></linearGradient><path d="M25.143.245c.756-.327 1.982-.327 2.738 0L52.52 10.91c.756.327.756.857 0 1.185L41.228 16.98l-8.22-3.558-5.538.566 3.49-7.375-10.266 1.48-6.845-2.961L25.143.245zm-3.747 16.481l10.244-1.507 6.83 3.014-10.586 4.673c-.754.333-1.977.333-2.732 0L.566 12.053c-.755-.333-.755-.873 0-1.205l10.586-4.673 8.537 3.768 5.122-.754-3.415 7.537z" id="j"/><filter x="0%" y="0%" width="100%" height="100%" filterUnits="objectBoundingBox" id="i"><feOffset in="SourceAlpha" result="shadowOffsetOuter1"/><feColorMatrix values="0 0 0 0 0.978997713 0 0 0 0 0.95226753 0 0 0 0 1 0 0 0 1 0" in="shadowOffsetOuter1"/></filter><filter x="-.9%" y="-2.2%" width="101.9%" height="104.3%" filterUnits="objectBoundingBox" id="l"><feOffset dy="1" in="SourceAlpha" result="shadowOffsetInner1"/><feComposite in="shadowOffsetInner1" in2="SourceAlpha" operator="arithmetic" k2="-1" k3="1" result="shadowInnerInner1"/><feColorMatrix values="0 0 0 0 0.630664307 0 0 0 0 0.49074735 0 0 0 0 0.953549592 0 0 0 1 0" in="shadowInnerInner1"/></filter></defs><g fill="none" fill-rule="evenodd"><use fill="url(#b)" xlink:href="#a" transform="translate(5.598 10.172)"/><g transform="translate(.627 .433)"><mask id="h" fill="#fff"><use xlink:href="#c"/></mask><use fill="url(#d)" xlink:href="#c"/><use fill="#000" filter="url(#e)" xlink:href="#c"/><path d="M82.786-7.483L57.049 4.045a2.322 2.322 0 0 0 0 4.238l25.737 11.528a13.93 13.93 0 0 0 11.39 0l25.736-11.528a2.322 2.322 0 0 0 0-4.238L94.175-7.483a13.93 13.93 0 0 0-11.39 0z" fill="url(#f)" filter="url(#g)" mask="url(#h)"/><g mask="url(#h)" fill-rule="nonzero"><g transform="translate(27.698 12.35)"><use fill="#000" filter="url(#i)" xlink:href="#j"/><use fill="url(#k)" xlink:href="#j"/><use fill="#000" filter="url(#l)" xlink:href="#j"/></g></g></g></g></svg>
