<?xml version="1.0" encoding="UTF-8"?>
<svg width="215px" height="180px" viewBox="0 0 215 180" version="1.1" xmlns="http://www.w3.org/2000/svg" xmlns:xlink="http://www.w3.org/1999/xlink">
    <title>编组 7</title>
    <defs>
        <linearGradient x1="50%" y1="0%" x2="50%" y2="82.4410145%" id="linearGradient-1">
            <stop stop-color="#302647" offset="0%"></stop>
            <stop stop-color="#302647" stop-opacity="0" offset="100%"></stop>
        </linearGradient>
        <linearGradient x1="100%" y1="50%" x2="0%" y2="50%" id="linearGradient-2">
            <stop stop-color="#A8BAFF" offset="0%"></stop>
            <stop stop-color="#CFDAFF" offset="25.2233067%"></stop>
            <stop stop-color="#CEDAFE" offset="50.0897391%"></stop>
            <stop stop-color="#F0F4FF" offset="79.6097957%"></stop>
            <stop stop-color="#E3E9FD" offset="100%"></stop>
        </linearGradient>
        <linearGradient x1="100%" y1="50%" x2="0%" y2="50%" id="linearGradient-3">
            <stop stop-color="#8D65E1" offset="0%"></stop>
            <stop stop-color="#D3ADF7" offset="18.2240046%"></stop>
            <stop stop-color="#8D65E1" offset="18.2498845%"></stop>
            <stop stop-color="#E0A716" offset="25.8465384%"></stop>
            <stop stop-color="#D29C39" offset="29.9134756%"></stop>
            <stop stop-color="#8D65E1" offset="49.6490762%"></stop>
            <stop stop-color="#D3ADF7" offset="100%"></stop>
        </linearGradient>
        <linearGradient x1="100%" y1="50%" x2="0%" y2="50%" id="linearGradient-4">
            <stop stop-color="#302647" offset="0%"></stop>
            <stop stop-color="#ACA8B5" offset="18.2240046%"></stop>
            <stop stop-color="#8D65E1" offset="18.2498845%"></stop>
            <stop stop-color="#8D65E1" offset="22.3140887%"></stop>
            <stop stop-color="#E0A716" offset="22.4135913%"></stop>
            <stop stop-color="#E0A716" offset="25.9926462%"></stop>
            <stop stop-color="#59516C" offset="26.0065665%"></stop>
            <stop stop-color="#302647" offset="49.6490762%"></stop>
            <stop stop-color="#ACA8B5" offset="100%"></stop>
        </linearGradient>
        <linearGradient x1="50%" y1="0%" x2="50%" y2="100%" id="linearGradient-5">
            <stop stop-color="#F0F4FF" offset="0%"></stop>
            <stop stop-color="#F8FAFF" offset="100%"></stop>
        </linearGradient>
        <path d="M89.8025513,3.39814097 L6.28323684,40.8456118 C4.72733551,41.5432297 4.03155933,43.370068 4.72917724,44.9259694 C5.03904544,45.6170702 5.59213596,46.1701608 6.28323684,46.480029 L89.8025513,83.9274998 C94.6239208,86.0892524 100.138969,86.0892524 104.960339,83.9274998 L188.479653,46.480029 C190.035555,45.782411 190.731331,43.9555728 190.033713,42.3996714 C189.723845,41.7085705 189.170754,41.15548 188.479653,40.8456118 L104.960339,3.39814097 C100.138969,1.2363884 94.6239208,1.2363884 89.8025513,3.39814097 Z" id="path-6"></path>
        <filter x="-1.1%" y="-2.1%" width="102.1%" height="101.1%" filterUnits="objectBoundingBox" id="filter-8">
            <feGaussianBlur stdDeviation="0.385928455" in="SourceGraphic"></feGaussianBlur>
        </filter>
        <linearGradient x1="50%" y1="0%" x2="50%" y2="98.8308566%" id="linearGradient-9">
            <stop stop-color="#C0BDC7" offset="0%"></stop>
            <stop stop-color="#59516C" offset="100%"></stop>
        </linearGradient>
        <path d="M59.5587094,3.39814097 L6.28323684,27.2852109 C4.72733551,27.9828288 4.03155933,29.8096671 4.72917724,31.3655684 C5.03904544,32.0566693 5.59213596,32.6097598 6.28323684,32.919628 L59.5587094,56.806698 C64.3800789,58.9684505 69.8951275,58.9684505 74.716497,56.806698 L127.99197,32.919628 C129.547871,32.2220101 130.243647,30.3951718 129.546029,28.8392705 C129.236161,28.1481696 128.68307,27.5950791 127.99197,27.2852109 L74.716497,3.39814097 C69.8951275,1.2363884 64.3800789,1.2363884 59.5587094,3.39814097 Z" id="path-10"></path>
        <linearGradient x1="50%" y1="0%" x2="50%" y2="98.8308566%" id="linearGradient-12">
            <stop stop-color="#837D91" offset="0%"></stop>
            <stop stop-color="#59516C" offset="100%"></stop>
        </linearGradient>
        <linearGradient x1="3.61187e-14%" y1="50%" x2="99.4154283%" y2="49.8800357%" id="linearGradient-13">
            <stop stop-color="#D3ADF7" offset="0%"></stop>
            <stop stop-color="#CCB6EF" offset="25.3295534%"></stop>
            <stop stop-color="#7C53DB" offset="100%"></stop>
        </linearGradient>
        <path d="M56.9530226,1.63473572 L57.3696413,1.81593404 L89.974,16.422 L89.974395,14.3882545 L97.7620411,14.3882545 L97.7620411,22.1435558 L97.7459089,22.1436551 C97.7451508,23.4022178 97.0535677,24.606273 95.8776933,25.2140605 L95.7008572,25.2992789 L57.3696413,42.4711777 C52.1115057,44.8267558 46.1174482,44.8871552 40.8215729,42.652376 L40.4049542,42.4711777 L2.07373833,25.2992789 C1.29890378,24.9521629 0.678855246,24.3321143 0.331739187,23.5572798 C0.125760816,23.0974936 0.0284016756,22.6166229 0.0286866665,22.1434566 L0,22.1435558 L0,14.3882545 L10.308886,14.3882545 L10.308,15.298 L40.4049542,1.81593404 C45.6630898,-0.539644081 51.6571473,-0.60004352 56.9530226,1.63473572 Z" id="path-14"></path>
        <linearGradient x1="50%" y1="0%" x2="50%" y2="98.8308566%" id="linearGradient-16">
            <stop stop-color="#EDDBFF" offset="0%"></stop>
            <stop stop-color="#F9F0FF" offset="100%"></stop>
        </linearGradient>
        <path d="M45.3754399,3.79998239 L7.04422407,20.9718811 C5.30136634,21.7526593 4.52144676,23.7984704 5.30222493,25.5413281 C5.64934098,26.3161627 6.26938951,26.9362112 7.04422407,27.2833273 L45.3754399,44.455226 C50.7719476,46.872793 56.9436194,46.872793 62.3401271,44.455226 L100.671343,27.2833273 C102.414201,26.5025491 103.19412,24.456738 102.413342,22.7138803 C102.066226,21.9390457 101.446177,21.3189972 100.671343,20.9718811 L62.3401271,3.79998239 C56.9436194,1.38241537 50.7719476,1.38241537 45.3754399,3.79998239 Z" id="path-17"></path>
        <filter x="3.7%" y="2.0%" width="92.6%" height="95.9%" filterUnits="objectBoundingBox" id="filter-19">
            <feOffset dx="0" dy="-1" in="SourceAlpha" result="shadowOffsetInner1"></feOffset>
            <feComposite in="shadowOffsetInner1" in2="SourceAlpha" operator="arithmetic" k2="-1" k3="1" result="shadowInnerInner1"></feComposite>
            <feColorMatrix values="0 0 0 0 1   0 0 0 0 1   0 0 0 0 1  0 0 0 1 0" type="matrix" in="shadowInnerInner1" result="shadowMatrixInner1"></feColorMatrix>
            <feGaussianBlur stdDeviation="0.5" in="SourceAlpha" result="shadowBlurInner2"></feGaussianBlur>
            <feOffset dx="0" dy="1" in="shadowBlurInner2" result="shadowOffsetInner2"></feOffset>
            <feComposite in="shadowOffsetInner2" in2="SourceAlpha" operator="arithmetic" k2="-1" k3="1" result="shadowInnerInner2"></feComposite>
            <feColorMatrix values="0 0 0 0 0.678431373   0 0 0 0 0.745098039   0 0 0 0 1  0 0 0 0.0523382867 0" type="matrix" in="shadowInnerInner2" result="shadowMatrixInner2"></feColorMatrix>
            <feMerge>
                <feMergeNode in="shadowMatrixInner1"></feMergeNode>
                <feMergeNode in="shadowMatrixInner2"></feMergeNode>
            </feMerge>
        </filter>
        <linearGradient x1="5.67183096%" y1="49.0406263%" x2="53.6774444%" y2="58.7219078%" id="linearGradient-20">
            <stop stop-color="#9E7DE4" stop-opacity="0.375245848" offset="0.038243007%"></stop>
            <stop stop-color="#AA8DE7" stop-opacity="0.01171875" offset="100%"></stop>
        </linearGradient>
        <filter x="3.0%" y="0.5%" width="93.9%" height="98.9%" filterUnits="objectBoundingBox" id="filter-21">
            <feGaussianBlur stdDeviation="0.385928455" in="SourceGraphic"></feGaussianBlur>
        </filter>
        <linearGradient x1="71.7368501%" y1="24.5450662%" x2="27.0576183%" y2="55.1163571%" id="linearGradient-22">
            <stop stop-color="#8862DE" offset="0%"></stop>
            <stop stop-color="#E8D3F9" offset="100%"></stop>
        </linearGradient>
        <path d="M25.1427997,0.245382598 C25.8988377,-0.0817941995 27.1246175,-0.0817941995 27.8806555,0.245382598 L52.5213581,10.9086905 C53.2773961,11.2358673 53.2773961,11.7663257 52.5213581,12.0935025 L41.2277027,16.980852 L33.0072906,13.423454 L27.4699771,13.9892017 L30.9607433,6.61374707 L20.6937839,8.09476206 L13.8491443,5.13273207 L25.1427997,0.245382598 Z M21.3959418,16.7260077 L31.6402839,15.2187002 L38.4698454,18.2333152 L27.8840251,22.9059684 C27.1296526,23.2389536 25.9065731,23.2389536 25.1522006,22.9059684 L0.565779394,12.0533545 C-0.188593131,11.7203693 -0.188593131,11.1804937 0.565779394,10.8475085 L11.1515996,6.17485528 L19.6885514,9.943124 L24.8107225,9.18947026 L21.3959418,16.7260077 Z" id="path-23"></path>
        <filter x="0.0%" y="0.0%" width="100.0%" height="100.0%" filterUnits="objectBoundingBox" id="filter-24">
            <feOffset dx="0" dy="0" in="SourceAlpha" result="shadowOffsetOuter1"></feOffset>
            <feColorMatrix values="0 0 0 0 0.978997713   0 0 0 0 0.95226753   0 0 0 0 1  0 0 0 1 0" type="matrix" in="shadowOffsetOuter1"></feColorMatrix>
        </filter>
        <filter x="-0.9%" y="-2.2%" width="101.9%" height="104.3%" filterUnits="objectBoundingBox" id="filter-25">
            <feOffset dx="0" dy="1" in="SourceAlpha" result="shadowOffsetInner1"></feOffset>
            <feComposite in="shadowOffsetInner1" in2="SourceAlpha" operator="arithmetic" k2="-1" k3="1" result="shadowInnerInner1"></feComposite>
            <feColorMatrix values="0 0 0 0 0.630664307   0 0 0 0 0.49074735   0 0 0 0 0.953549592  0 0 0 1 0" type="matrix" in="shadowInnerInner1"></feColorMatrix>
        </filter>
        <linearGradient x1="3.61187e-14%" y1="50%" x2="99.4154283%" y2="49.8800594%" id="linearGradient-26">
            <stop stop-color="#FFDA7B" offset="0%"></stop>
            <stop stop-color="#FCD675" offset="25.3295534%"></stop>
            <stop stop-color="#E0A716" offset="100%"></stop>
        </linearGradient>
        <path d="M38.1551022,1.06215886 L38.519106,1.21904101 L60.411,11.025 L60.4113795,9.65977655 L65.6402276,9.65977655 L65.6402276,14.8663472 L65.6288867,14.8668834 C65.6282149,15.7009492 65.175677,16.4992895 64.4046345,16.9121248 L64.2556958,16.9852279 L38.519106,28.5136534 C35.0167965,30.0824748 31.0282782,30.1347689 27.4935548,28.6705355 L27.129551,28.5136534 L1.39296117,16.9852279 C0.872647123,16.7521589 0.456279023,16.3357908 0.223210006,15.8154768 C0.0850038904,15.5069391 0.0196427181,15.1842641 0.0197697018,14.8667473 L0,14.8663472 L0,9.65977655 L6.92168058,9.65977655 L6.921,10.27 L27.129551,1.21904101 C30.6318605,-0.349780437 34.6203788,-0.402074486 38.1551022,1.06215886 Z" id="path-27"></path>
        <linearGradient x1="50%" y1="0%" x2="50%" y2="98.8308566%" id="linearGradient-29">
            <stop stop-color="#FEE39F" offset="0%"></stop>
            <stop stop-color="#FFF4D8" offset="100%"></stop>
        </linearGradient>
        <path d="M30.4668772,2.55091362 L4.73028731,14.0793391 C3.56006179,14.6035289 3.03634635,15.9771239 3.56053614,17.1473494 C3.79360516,17.6676634 4.20997326,18.0840315 4.73028731,18.3171006 L30.4668772,29.845526 C34.089956,31.4684447 38.2333533,31.4684447 41.8564321,29.845526 L67.593022,18.3171006 C68.7632475,17.7929108 69.2869629,16.4193158 68.7627731,15.2490902 C68.5297041,14.7287762 68.113336,14.3124081 67.593022,14.0793391 L41.8564321,2.55091362 C38.2333533,0.927994885 34.089956,0.927994885 30.4668772,2.55091362 Z" id="path-30"></path>
        <filter x="3.3%" y="1.0%" width="93.5%" height="97.9%" filterUnits="objectBoundingBox" id="filter-32">
            <feOffset dx="0" dy="-1" in="SourceAlpha" result="shadowOffsetInner1"></feOffset>
            <feComposite in="shadowOffsetInner1" in2="SourceAlpha" operator="arithmetic" k2="-1" k3="1" result="shadowInnerInner1"></feComposite>
            <feColorMatrix values="0 0 0 0 1   0 0 0 0 1   0 0 0 0 1  0 0 0 1 0" type="matrix" in="shadowInnerInner1" result="shadowMatrixInner1"></feColorMatrix>
            <feGaussianBlur stdDeviation="0.5" in="SourceAlpha" result="shadowBlurInner2"></feGaussianBlur>
            <feOffset dx="0" dy="1" in="shadowBlurInner2" result="shadowOffsetInner2"></feOffset>
            <feComposite in="shadowOffsetInner2" in2="SourceAlpha" operator="arithmetic" k2="-1" k3="1" result="shadowInnerInner2"></feComposite>
            <feColorMatrix values="0 0 0 0 0.678431373   0 0 0 0 0.745098039   0 0 0 0 1  0 0 0 0.0523382867 0" type="matrix" in="shadowInnerInner2" result="shadowMatrixInner2"></feColorMatrix>
            <feMerge>
                <feMergeNode in="shadowMatrixInner1"></feMergeNode>
                <feMergeNode in="shadowMatrixInner2"></feMergeNode>
            </feMerge>
        </filter>
        <linearGradient x1="51.5005202%" y1="60.0324728%" x2="82.4285358%" y2="38.9165338%" id="linearGradient-33">
            <stop stop-color="#F2C552" stop-opacity="0.646798514" offset="0%"></stop>
            <stop stop-color="#FFE8B0" stop-opacity="0.610413024" offset="100%"></stop>
        </linearGradient>
        <filter x="3.0%" y="0.5%" width="93.9%" height="98.9%" filterUnits="objectBoundingBox" id="filter-34">
            <feGaussianBlur stdDeviation="0.385928455" in="SourceGraphic"></feGaussianBlur>
        </filter>
        <linearGradient x1="71.7368501%" y1="26.6221181%" x2="27.0576183%" y2="54.6988766%" id="linearGradient-35">
            <stop stop-color="#E2AA1B" offset="0%"></stop>
            <stop stop-color="#FFD46C" offset="100%"></stop>
        </linearGradient>
        <path d="M44.654453,10.4777646 L44.7303755,10.4461466 C45.4064289,10.1635571 46.5025281,10.1635571 47.1785815,10.4461466 C47.8546349,10.7287362 47.8546349,11.1869044 47.1785815,11.469494 L47.1029403,11.5012296 C50.9800852,13.5836975 50.9800852,16.518722 47.1029403,18.6011899 L47.1785815,18.6329255 C47.8546349,18.915515 47.8546349,19.3736833 47.1785815,19.6562728 C46.5025281,19.9388624 45.4064289,19.9388624 44.7303755,19.6562728 L44.654453,19.6246549 C39.672459,21.2452971 32.6508503,21.2452971 27.6688563,19.6246549 L27.5929337,19.6562728 C26.9168803,19.9388624 25.8207812,19.9388624 25.1447278,19.6562728 C24.4686744,19.3736833 24.4686744,18.915515 25.1447278,18.6329255 L25.220369,18.6011899 C21.3432241,16.518722 21.3432241,13.5836975 25.220369,11.5012296 L25.1447278,11.469494 C24.4686744,11.1869044 24.4686744,10.7287362 25.1447278,10.4461466 C25.8207812,10.1635571 26.9168803,10.1635571 27.5929337,10.4461466 L27.6688563,10.4777646 C32.6508503,8.85712236 39.672459,8.85712236 44.654453,10.4777646 Z M30.1424178,11.5120226 L31.2652427,11.9811677 C31.9412961,12.2637572 31.9412961,12.7219255 31.2652427,13.004515 C30.5891893,13.2871046 29.4930901,13.2871046 28.8170367,13.004515 L27.694677,12.5351755 C25.1348362,14.036487 25.1348362,16.0659324 27.694677,17.567244 L28.8170367,17.0979044 C29.4930901,16.8153149 30.5891893,16.8153149 31.2652427,17.0979044 C31.9412961,17.380494 31.9412961,17.8386622 31.2652427,18.1212518 L30.1424178,18.5903969 C33.7340819,19.6604075 38.5892274,19.6604075 42.1808915,18.5903969 L41.0580666,18.1212518 C40.3820132,17.8386622 40.3820132,17.380494 41.0580666,17.0979044 C41.73412,16.8153149 42.8302191,16.8153149 43.5062725,17.0979044 L44.6286323,17.567244 C47.1884731,16.0659324 47.1884731,14.036487 44.6286323,12.5351755 L43.5062725,13.004515 C42.8302191,13.2871046 41.73412,13.2871046 41.0580666,13.004515 C40.3820132,12.7219255 40.3820132,12.2637572 41.0580666,11.9811677 L42.1808915,11.5120226 C38.5892274,10.442012 33.7340819,10.442012 30.1424178,11.5120226 Z M33.7134487,14.0278624 C35.0655555,13.4626832 37.2577538,13.4626832 38.6098606,14.0278624 C39.9619674,14.5930415 39.9619674,15.509378 38.6098606,16.0745571 C37.2577538,16.6397362 35.0655555,16.6397362 33.7134487,16.0745571 C32.3613418,15.509378 32.3613418,14.5930415 33.7134487,14.0278624 Z" id="path-36"></path>
        <filter x="0.0%" y="0.0%" width="100.0%" height="100.0%" filterUnits="objectBoundingBox" id="filter-37">
            <feOffset dx="0" dy="0" in="SourceAlpha" result="shadowOffsetOuter1"></feOffset>
            <feColorMatrix values="0 0 0 0 1   0 0 0 0 0.962557165   0 0 0 0 0.867701982  0 0 0 1 0" type="matrix" in="shadowOffsetOuter1"></feColorMatrix>
        </filter>
        <filter x="0.0%" y="0.0%" width="100.0%" height="100.0%" filterUnits="objectBoundingBox" id="filter-38">
            <feOffset dx="0" dy="0" in="SourceAlpha" result="shadowOffsetInner1"></feOffset>
            <feComposite in="shadowOffsetInner1" in2="SourceAlpha" operator="arithmetic" k2="-1" k3="1" result="shadowInnerInner1"></feComposite>
            <feColorMatrix values="0 0 0 0 0.894117647   0 0 0 0 0.678431373   0 0 0 0 0.137254902  0 0 0 1 0" type="matrix" in="shadowInnerInner1"></feColorMatrix>
        </filter>
        <linearGradient x1="100%" y1="50%" x2="0%" y2="50%" id="linearGradient-39">
            <stop stop-color="#302647" offset="0%"></stop>
            <stop stop-color="#ACA8B5" offset="18.2240046%"></stop>
            <stop stop-color="#8D65E1" offset="18.2498845%"></stop>
            <stop stop-color="#8D65E1" offset="22.3140887%"></stop>
            <stop stop-color="#E0A716" offset="22.4135913%"></stop>
            <stop stop-color="#E0A716" offset="25.9926462%"></stop>
            <stop stop-color="#59516C" offset="26.0065665%"></stop>
            <stop stop-color="#302647" offset="49.6490762%"></stop>
            <stop stop-color="#ACA8B5" offset="100%"></stop>
        </linearGradient>
        <path d="M38.1551022,1.06215886 L38.519106,1.21904101 L60.411,11.025 L60.4113795,9.65977655 L65.6402276,9.65977655 L65.6402276,14.8663472 L65.6288867,14.8668834 C65.6282149,15.7009492 65.175677,16.4992895 64.4046345,16.9121248 L64.2556958,16.9852279 L38.519106,28.5136534 C35.0167965,30.0824748 31.0282782,30.1347689 27.4935548,28.6705355 L27.129551,28.5136534 L1.39296117,16.9852279 C0.872647123,16.7521589 0.456279023,16.3357908 0.223210006,15.8154768 C0.0850038904,15.5069391 0.0196427181,15.1842641 0.0197697018,14.8667473 L0,14.8663472 L0,9.65977655 L6.92168058,9.65977655 L6.921,10.27 L27.129551,1.21904101 C30.6318605,-0.349780437 34.6203788,-0.402074486 38.1551022,1.06215886 Z" id="path-40"></path>
        <linearGradient x1="50%" y1="0%" x2="50%" y2="100%" id="linearGradient-42">
            <stop stop-color="#F0F4FF" offset="0%"></stop>
            <stop stop-color="#F8FAFF" offset="100%"></stop>
        </linearGradient>
        <path d="M30.4668772,2.55091362 L4.73028731,14.0793391 C3.56006179,14.6035289 3.03634635,15.9771239 3.56053614,17.1473494 C3.79360516,17.6676634 4.20997326,18.0840315 4.73028731,18.3171006 L30.4668772,29.845526 C34.089956,31.4684447 38.2333533,31.4684447 41.8564321,29.845526 L67.593022,18.3171006 C68.7632475,17.7929108 69.2869629,16.4193158 68.7627731,15.2490902 C68.5297041,14.7287762 68.113336,14.3124081 67.593022,14.0793391 L41.8564321,2.55091362 C38.2333533,0.927994885 34.089956,0.927994885 30.4668772,2.55091362 Z" id="path-43"></path>
        <filter x="3.3%" y="1.0%" width="93.5%" height="97.9%" filterUnits="objectBoundingBox" id="filter-45">
            <feOffset dx="0" dy="-1" in="SourceAlpha" result="shadowOffsetInner1"></feOffset>
            <feComposite in="shadowOffsetInner1" in2="SourceAlpha" operator="arithmetic" k2="-1" k3="1" result="shadowInnerInner1"></feComposite>
            <feColorMatrix values="0 0 0 0 1   0 0 0 0 1   0 0 0 0 1  0 0 0 1 0" type="matrix" in="shadowInnerInner1" result="shadowMatrixInner1"></feColorMatrix>
            <feGaussianBlur stdDeviation="0.5" in="SourceAlpha" result="shadowBlurInner2"></feGaussianBlur>
            <feOffset dx="0" dy="1" in="shadowBlurInner2" result="shadowOffsetInner2"></feOffset>
            <feComposite in="shadowOffsetInner2" in2="SourceAlpha" operator="arithmetic" k2="-1" k3="1" result="shadowInnerInner2"></feComposite>
            <feColorMatrix values="0 0 0 0 0.678431373   0 0 0 0 0.745098039   0 0 0 0 1  0 0 0 0.0523382867 0" type="matrix" in="shadowInnerInner2" result="shadowMatrixInner2"></feColorMatrix>
            <feMerge>
                <feMergeNode in="shadowMatrixInner1"></feMergeNode>
                <feMergeNode in="shadowMatrixInner2"></feMergeNode>
            </feMerge>
        </filter>
        <linearGradient x1="3.32507379%" y1="55.591138%" x2="81.743803%" y2="44.408862%" id="linearGradient-46">
            <stop stop-color="#EAEDF6" offset="0%"></stop>
            <stop stop-color="#C6C2D1" offset="100%"></stop>
        </linearGradient>
        <path d="M41.7805049,10.0569375 L27.8861404,13.2937297 C27.6333207,13.3526258 27.5201617,13.5069741 27.6333926,13.6384763 C27.6583593,13.6674717 27.6932979,13.6938513 27.7364885,13.7163166 L31.3013411,15.5705468 C31.4972225,15.6724329 31.4972225,15.837623 31.3013411,15.9395092 C31.2704314,15.9555866 31.2356137,15.9694934 31.1977729,15.9808761 L21.793676,18.8096771 C21.5538714,18.8818116 21.4718955,19.0414037 21.6105777,19.1661362 C21.7053541,19.2513793 21.8843287,19.3016039 22.0733377,19.2959979 L45.4028193,18.6040485 C45.6793881,18.5958455 45.8908067,18.4725781 45.875036,18.328723 C45.8680248,18.2647685 45.8160227,18.2043908 45.7289385,18.1590947 L41.6029127,16.0129746 C41.4070314,15.9110885 41.4070314,15.7458984 41.6029127,15.6440122 C41.649644,15.6197053 41.7051496,15.6004415 41.7662397,15.5873279 L48.9310326,14.0493309 C49.1871011,13.9943632 49.3090164,13.8418295 49.2033381,13.7086375 C49.1781265,13.6768619 49.1410908,13.6479911 49.0943595,13.6236842 L42.3402021,10.110562 C42.1930772,10.0340361 41.9703957,10.012701 41.7805049,10.0569375 Z" id="path-47"></path>
        <filter x="0.0%" y="0.0%" width="100.0%" height="100.0%" filterUnits="objectBoundingBox" id="filter-48">
            <feOffset dx="0" dy="0" in="SourceAlpha" result="shadowOffsetOuter1"></feOffset>
            <feColorMatrix values="0 0 0 0 1   0 0 0 0 1   0 0 0 0 1  0 0 0 1 0" type="matrix" in="shadowOffsetOuter1"></feColorMatrix>
        </filter>
        <filter x="0.0%" y="0.0%" width="100.0%" height="100.0%" filterUnits="objectBoundingBox" id="filter-49">
            <feOffset dx="0" dy="0" in="SourceAlpha" result="shadowOffsetInner1"></feOffset>
            <feComposite in="shadowOffsetInner1" in2="SourceAlpha" operator="arithmetic" k2="-1" k3="1" result="shadowInnerInner1"></feComposite>
            <feColorMatrix values="0 0 0 0 0.625862402   0 0 0 0 0.603933406   0 0 0 0 0.673375226  0 0 0 1 0" type="matrix" in="shadowInnerInner1"></feColorMatrix>
        </filter>
    </defs>
    <g id="微服务" stroke="none" stroke-width="1" fill="none" fill-rule="evenodd">
        <g id="微服务首页" transform="translate(-1185.000000, -44.000000)">
            <g id="编组-7" transform="translate(1185.000000, 44.000000)">
                <path d="M102.003243,83.2495602 C102.206467,83.1873881 102.421452,83.3022597 102.483425,83.5061329 C102.545399,83.7100062 102.430894,83.9256786 102.22767,83.9878507 C101.507581,84.2081473 100.800894,84.4738359 100.111498,84.7838637 C99.9176232,84.8710508 99.690003,84.7840611 99.6030937,84.5895667 C99.5161844,84.3950722 99.6028969,84.1667242 99.7967714,84.079537 C100.515563,83.7562898 101.25241,83.479262 102.003243,83.2495602 Z M106.648473,82.4485532 C106.860726,82.4390705 107.040454,82.6039983 107.049906,82.8169297 C107.059358,83.029861 106.894956,83.2101632 106.682704,83.2196458 C105.929554,83.2532937 105.178995,83.3342981 104.435513,83.4622969 C104.226111,83.4983478 104.027225,83.3572762 103.991289,83.1472047 C103.955353,82.9371333 104.095975,82.7376117 104.305377,82.7015608 C105.080596,82.5680982 105.863186,82.4836368 106.648473,82.4485532 Z M111.345642,82.8318009 C111.553575,82.8755764 111.686765,83.0801661 111.643129,83.2887647 C111.599493,83.4973633 111.395555,83.6309789 111.187622,83.5872034 C110.449267,83.4317605 109.702227,83.3230645 108.950934,83.2615965 C108.739174,83.2442711 108.581509,83.0580118 108.598779,82.8455747 C108.61605,82.6331376 108.801715,82.4749684 109.013475,82.4922938 C109.796832,82.5563851 110.575762,82.6697212 111.345642,82.8318009 Z M115.783725,84.3540313 C115.9776,84.4412185 116.064312,84.6695665 115.977403,84.864061 C115.890494,85.0585554 115.662874,85.1455451 115.468999,85.058358 L114.858617,84.7838637 C114.385988,84.571318 113.905168,84.3795828 113.41739,84.2090108 C113.216766,84.1388542 113.11082,83.9188232 113.180753,83.7175579 C113.250686,83.5162926 113.470016,83.4100079 113.67064,83.4801645 C114.179234,83.6580161 114.680566,83.8579306 115.173343,84.079537 L115.783725,84.3540313 Z M119.996216,86.2484271 C120.190091,86.3356143 120.276803,86.5639623 120.189894,86.7584567 C120.102985,86.9529511 119.875365,87.0399409 119.68149,86.9527537 L117.575245,86.0055558 C117.38137,85.9183687 117.294658,85.6900206 117.381567,85.4955262 C117.468476,85.3010318 117.696096,85.2140421 117.889971,85.3012292 L119.996216,86.2484271 Z M124.208708,88.1428228 C124.402582,88.23001 124.489295,88.458358 124.402385,88.6528525 C124.315476,88.8473469 124.087856,88.9343366 123.893981,88.8471495 L121.787736,87.8999516 C121.593861,87.8127644 121.507149,87.5844164 121.594058,87.389922 C121.680967,87.1954275 121.908587,87.1084378 122.102462,87.195625 L124.208708,88.1428228 Z M128.421199,90.0372186 C128.615073,90.1244058 128.701786,90.3527538 128.614876,90.5472482 C128.527967,90.7417427 128.300347,90.8287324 128.106472,90.7415452 L126.000227,89.7943474 C125.806352,89.7071602 125.71964,89.4788122 125.806549,89.2843177 C125.893458,89.0898233 126.121079,89.0028336 126.314953,89.0900207 L128.421199,90.0372186 Z M132.63369,91.9316144 C132.827564,92.0188015 132.914277,92.2471496 132.827368,92.441644 C132.740458,92.6361384 132.512838,92.7231281 132.318963,92.635941 L130.212718,91.6887431 C130.018843,91.601556 129.932131,91.3732079 130.01904,91.1787135 C130.105949,90.9842191 130.33357,90.8972293 130.527444,90.9844165 L132.63369,91.9316144 Z M136.846181,93.8260101 C137.040055,93.9131973 137.126768,94.1415453 137.039859,94.3360397 C136.952949,94.5305342 136.725329,94.6175239 136.531455,94.5303367 L134.425209,93.5831389 C134.231334,93.4959517 134.144622,93.2676037 134.231531,93.0731092 C134.318441,92.8786148 134.546061,92.7916251 134.739935,92.8788122 L136.846181,93.8260101 Z M141.058672,95.7204059 C141.252547,95.807593 141.339259,96.0359411 141.25235,96.2304355 C141.16544,96.4249299 140.93782,96.5119197 140.743946,96.4247325 L138.6377,95.4775346 C138.443826,95.3903475 138.357113,95.1619994 138.444022,94.967505 C138.530932,94.7730106 138.758552,94.6860208 138.952426,94.773208 L141.058672,95.7204059 Z M145.271163,97.6148016 C145.465038,97.7019888 145.55175,97.9303368 145.464841,98.1248313 C145.377932,98.3193257 145.150311,98.4063154 144.956437,98.3191283 L142.850191,97.3719304 C142.656317,97.2847432 142.569604,97.0563952 142.656513,96.8619008 C142.743423,96.6674063 142.971043,96.5804166 143.164918,96.6676038 L145.271163,97.6148016 Z M149.483654,99.5091974 C149.677529,99.5963845 149.764241,99.8247326 149.677332,100.019227 C149.590423,100.213721 149.362802,100.300711 149.168928,100.213524 L147.062682,99.2663261 C146.868808,99.179139 146.782095,98.9507909 146.869005,98.7562965 C146.955914,98.5618021 147.183534,98.4748124 147.377409,98.5619995 L149.483654,99.5091974 Z M153.696145,101.403593 C153.89002,101.49078 153.976732,101.719128 153.889823,101.913623 C153.802914,102.108117 153.575294,102.195107 153.381419,102.10792 L151.275173,101.160722 C151.081299,101.073535 150.994586,100.845187 151.081496,100.650692 C151.168405,100.456198 151.396025,100.369208 151.5899,100.456395 L153.696145,101.403593 Z M157.908636,103.297989 C158.102511,103.385176 158.189224,103.613524 158.102314,103.808019 C158.015405,104.002513 157.787785,104.089503 157.59391,104.002316 L155.487665,103.055118 C155.29379,102.96793 155.207078,102.739582 155.293987,102.545088 C155.380896,102.350594 155.608516,102.263604 155.802391,102.350791 L157.908636,103.297989 Z M162.121128,105.192385 C162.315002,105.279572 162.401715,105.50792 162.314805,105.702414 C162.227896,105.896909 162.000276,105.983898 161.806401,105.896711 L159.700156,104.949513 C159.506281,104.862326 159.419569,104.633978 159.506478,104.439484 C159.593387,104.244989 159.821007,104.158 160.014882,104.245187 L162.121128,105.192385 Z M166.333619,107.08678 C166.527493,107.173968 166.614206,107.402316 166.527296,107.59681 C166.440387,107.791304 166.212767,107.878294 166.018892,107.791107 L163.912647,106.843909 C163.718772,106.756722 163.63206,106.528374 163.718969,106.33388 C163.805878,106.139385 164.033499,106.052395 164.227373,106.139583 L166.333619,107.08678 Z M170.54611,108.981176 C170.739984,109.068363 170.826697,109.296711 170.739788,109.491206 C170.652878,109.6857 170.425258,109.77269 170.231383,109.685503 L168.125138,108.738305 C167.931263,108.651118 167.844551,108.42277 167.93146,108.228275 C168.018369,108.033781 168.24599,107.946791 168.439864,108.033978 L170.54611,108.981176 Z M174.758601,110.875572 C174.952475,110.962759 175.039188,111.191107 174.952279,111.385602 C174.865369,111.580096 174.637749,111.667086 174.443875,111.579899 L172.337629,110.632701 C172.143754,110.545514 172.057042,110.317165 172.143951,110.122671 C172.230861,109.928177 172.458481,109.841187 172.652355,109.928374 L174.758601,110.875572 Z M178.971092,112.769968 C179.164967,112.857155 179.251679,113.085503 179.16477,113.279997 C179.077861,113.474492 178.85024,113.561481 178.656366,113.474294 L176.55012,112.527096 C176.356246,112.439909 176.269533,112.211561 176.356442,112.017067 C176.443352,111.822572 176.670972,111.735583 176.864846,111.82277 L178.971092,112.769968 Z M183.183583,114.664363 C183.377458,114.751551 183.46417,114.979899 183.377261,115.174393 C183.290352,115.368887 183.062731,115.455877 182.868857,115.36869 L180.762611,114.421492 C180.568737,114.334305 180.482024,114.105957 180.568933,113.911463 C180.655843,113.716968 180.883463,113.629978 181.077338,113.717166 L183.183583,114.664363 Z M187.396074,116.558759 C187.589949,116.645946 187.676661,116.874294 187.589752,117.068789 C187.502843,117.263283 187.275222,117.350273 187.081348,117.263086 L184.975102,116.315888 C184.781228,116.228701 184.694515,116.000353 184.781425,115.805858 C184.868334,115.611364 185.095954,115.524374 185.289829,115.611561 L187.396074,116.558759 Z M191.608565,118.453155 C191.80244,118.540342 191.889152,118.76869 191.802243,118.963185 C191.715334,119.157679 191.487714,119.244669 191.293839,119.157482 L189.187593,118.210284 C188.993719,118.123097 188.907006,117.894748 188.993916,117.700254 C189.080825,117.50576 189.308445,117.41877 189.50232,117.505957 L191.608565,118.453155 Z M195.821056,120.347551 C196.014931,120.434738 196.101644,120.663086 196.014734,120.85758 C195.927825,121.052075 195.700205,121.139064 195.50633,121.051877 L193.400085,120.104679 C193.20621,120.017492 193.119498,119.789144 193.206407,119.59465 C193.293316,119.400155 193.520936,119.313166 193.714811,119.400353 L195.821056,120.347551 Z M200.033548,122.241946 C200.227422,122.329134 200.314135,122.557482 200.227225,122.751976 C200.140316,122.946471 199.912696,123.03346 199.718821,122.946273 L197.612576,121.999075 C197.418701,121.911888 197.331989,121.68354 197.418898,121.489046 C197.505807,121.294551 197.733427,121.207561 197.927302,121.294749 L200.033548,122.241946 Z M204.246039,124.136342 C204.439913,124.223529 204.526626,124.451877 204.439716,124.646372 C204.352807,124.840866 204.125187,124.927856 203.931312,124.840669 L201.825067,123.893471 C201.631192,123.806284 201.54448,123.577936 201.631389,123.383441 C201.718298,123.188947 201.945919,123.101957 202.139793,123.189144 L204.246039,124.136342 Z M208.45853,126.030738 C208.652404,126.117925 208.739117,126.346273 208.652208,126.540768 C208.565298,126.735262 208.337678,126.822252 208.143803,126.735065 L206.037558,125.787867 C205.843683,125.70068 205.756971,125.472332 205.84388,125.277837 C205.930789,125.083343 206.15841,124.996353 206.352284,125.08354 L208.45853,126.030738 Z M212.671021,127.925134 C212.864895,128.012321 212.951608,128.240669 212.864699,128.435163 C212.777789,128.629658 212.550169,128.716648 212.356295,128.62946 L210.250049,127.682262 C210.056174,127.595075 209.969462,127.366727 210.056371,127.172233 C210.143281,126.977738 210.370901,126.890749 210.564775,126.977936 L212.671021,127.925134 Z M214.862486,132.182062 C214.803129,132.386717 214.589634,132.504351 214.38563,132.444804 C214.181627,132.385257 214.064368,132.171079 214.123725,131.966423 C214.300777,131.355972 214.258886,130.704236 213.990939,130.104641 C213.967814,130.053434 213.943119,130.003011 213.916891,129.953437 C213.817288,129.765168 213.888679,129.531543 214.076348,129.43162 C214.264017,129.331698 214.496897,129.403318 214.596501,129.591587 C214.630246,129.655371 214.662019,129.720244 214.69239,129.787503 C215.036193,130.556836 215.090193,131.396958 214.862486,132.182062 Z M211.101366,135.212104 C210.907494,135.299298 210.679871,135.212316 210.592955,135.017824 C210.506039,134.823333 210.592744,134.594982 210.786615,134.507788 L212.661075,133.664758 C212.733873,133.631426 212.804795,133.595097 212.873734,133.555869 C213.058537,133.450709 213.293327,133.515752 213.398152,133.701147 C213.502976,133.886541 213.438141,134.122082 213.253337,134.227241 C213.164816,134.277613 213.073825,134.324223 212.978178,134.368006 L211.101366,135.212104 Z M206.888863,137.106505 C206.694988,137.193692 206.467368,137.106702 206.380459,136.912208 C206.293549,136.717713 206.380262,136.489365 206.574136,136.402178 L208.680382,135.45498 C208.874257,135.367793 209.101877,135.454783 209.188786,135.649277 C209.275695,135.843772 209.188983,136.07212 208.995108,136.159307 L206.888863,137.106505 Z M202.676372,139.000901 C202.482497,139.088088 202.254877,139.001098 202.167968,138.806604 C202.081058,138.612109 202.167771,138.383761 202.361645,138.296574 L204.467891,137.349376 C204.661765,137.262189 204.889386,137.349179 204.976295,137.543673 C205.063204,137.738168 204.976492,137.966516 204.782617,138.053703 L202.676372,139.000901 Z M198.463881,140.895296 C198.270006,140.982484 198.042386,140.895494 197.955476,140.700999 C197.868567,140.506505 197.95528,140.278157 198.149154,140.19097 L200.2554,139.243772 C200.449274,139.156585 200.676895,139.243575 200.763804,139.438069 C200.850713,139.632563 200.764001,139.860911 200.570126,139.948099 L198.463881,140.895296 Z M194.251389,142.789692 C194.057515,142.876879 193.829895,142.78989 193.742985,142.595395 C193.656076,142.400901 193.742789,142.172553 193.936663,142.085366 L196.042909,141.138168 C196.236783,141.050981 196.464403,141.13797 196.551313,141.332465 C196.638222,141.526959 196.55151,141.755307 196.357635,141.842494 L194.251389,142.789692 Z M190.038898,144.684088 C189.845024,144.771275 189.617403,144.684285 189.530494,144.489791 C189.443585,144.295297 189.530297,144.066948 189.724172,143.979761 L191.830418,143.032563 C192.024292,142.945376 192.251912,143.032366 192.338822,143.22686 C192.425731,143.421355 192.339018,143.649703 192.145144,143.73689 L190.038898,144.684088 Z M185.826407,146.578484 C185.632533,146.665671 185.404912,146.578681 185.318003,146.384187 C185.231094,146.189692 185.317806,145.961344 185.511681,145.874157 L187.617926,144.926959 C187.811801,144.839772 188.039421,144.926762 188.12633,145.121256 C188.21324,145.315751 188.126527,145.544099 187.932653,145.631286 L185.826407,146.578484 Z M181.613916,148.472879 C181.420042,148.560067 181.192421,148.473077 181.105512,148.278582 C181.018603,148.084088 181.105315,147.85574 181.29919,147.768553 L183.405435,146.821355 C183.59931,146.734168 183.82693,146.821158 183.913839,147.015652 C184.000749,147.210146 183.914036,147.438494 183.720162,147.525682 L181.613916,148.472879 Z M177.401425,150.367275 C177.20755,150.454462 176.97993,150.367473 176.893021,150.172978 C176.806112,149.978484 176.892824,149.750136 177.086699,149.662949 L179.192944,148.715751 C179.386819,148.628564 179.614439,148.715553 179.701348,148.910048 C179.788258,149.104542 179.701545,149.33289 179.507671,149.420077 L177.401425,150.367275 Z M173.188934,152.261671 C172.995059,152.348858 172.767439,152.261868 172.68053,152.067374 C172.59362,151.87288 172.680333,151.644532 172.874208,151.557344 L174.980453,150.610146 C175.174328,150.522959 175.401948,150.609949 175.488857,150.804443 C175.575766,150.998938 175.489054,151.227286 175.295179,151.314473 L173.188934,152.261671 Z M168.976443,154.156067 C168.782568,154.243254 168.554948,154.156264 168.468039,153.96177 C168.381129,153.767275 168.467842,153.538927 168.661716,153.45174 L170.767962,152.504542 C170.961836,152.417355 171.189457,152.504345 171.276366,152.698839 C171.363275,152.893334 171.276563,153.121682 171.082688,153.208869 L168.976443,154.156067 Z M164.763952,156.050462 C164.570077,156.13765 164.342457,156.05066 164.255548,155.856165 C164.168638,155.661671 164.255351,155.433323 164.449225,155.346136 L166.555471,154.398938 C166.749345,154.311751 166.976966,154.398741 167.063875,154.593235 C167.150784,154.787729 167.064072,155.016077 166.870197,155.103265 L164.763952,156.050462 Z M160.551461,157.944858 C160.357586,158.032045 160.129966,157.945056 160.043056,157.750561 C159.956147,157.556067 160.04286,157.327719 160.236734,157.240532 L162.34298,156.293334 C162.536854,156.206147 162.764475,156.293136 162.851384,156.487631 C162.938293,156.682125 162.851581,156.910473 162.657706,156.99766 L160.551461,157.944858 Z M156.338969,159.839254 C156.145095,159.926441 155.917475,159.839451 155.830565,159.644957 C155.743656,159.450463 155.830369,159.222115 156.024243,159.134927 L158.130489,158.187729 C158.324363,158.100542 158.551983,158.187532 158.638893,158.382026 C158.725802,158.576521 158.63909,158.804869 158.445215,158.892056 L156.338969,159.839254 Z M152.126478,161.73365 C151.932604,161.820837 151.704983,161.733847 151.618074,161.539353 C151.531165,161.344858 151.617877,161.11651 151.811752,161.029323 L153.917997,160.082125 C154.111872,159.994938 154.339492,160.081928 154.426402,160.276422 C154.513311,160.470917 154.426598,160.699265 154.232724,160.786452 L152.126478,161.73365 Z M147.913987,163.628046 C147.720113,163.715233 147.492492,163.628243 147.405583,163.433749 C147.318674,163.239254 147.405386,163.010906 147.599261,162.923719 L149.705506,161.976521 C149.899381,161.889334 150.127001,161.976324 150.21391,162.170818 C150.30082,162.365312 150.214107,162.59366 150.020233,162.680848 L147.913987,163.628046 Z M143.701496,165.522441 C143.507622,165.609628 143.280001,165.522639 143.193092,165.328144 C143.106183,165.13365 143.192895,164.905302 143.38677,164.818115 L145.493015,163.870917 C145.68689,163.78373 145.91451,163.870719 146.001419,164.065214 C146.088329,164.259708 146.001616,164.488056 145.807742,164.575243 L143.701496,165.522441 Z M139.489005,167.416837 C139.29513,167.504024 139.06751,167.417034 138.980601,167.22254 C138.893692,167.028046 138.980404,166.799698 139.174279,166.71251 L141.280524,165.765313 C141.474399,165.678125 141.702019,165.765115 141.788928,165.95961 C141.875838,166.154104 141.789125,166.382452 141.595251,166.469639 L139.489005,167.416837 Z M135.276514,169.311233 C135.082639,169.39842 134.855019,169.31143 134.76811,169.116936 C134.6812,168.922441 134.767913,168.694093 134.961787,168.606906 L137.068033,167.659708 C137.261908,167.572521 137.489528,167.659511 137.576437,167.854005 C137.663346,168.0485 137.576634,168.276848 137.382759,168.364035 L135.276514,169.311233 Z M131.064023,171.205629 C130.870148,171.292816 130.642528,171.205826 130.555619,171.011332 C130.468709,170.816837 130.555422,170.588489 130.749296,170.501302 L132.855542,169.554104 C133.049416,169.466917 133.277037,169.553907 133.363946,169.748401 C133.450855,169.942895 133.364143,170.171243 133.170268,170.258431 L131.064023,171.205629 Z M126.851532,173.100024 C126.657657,173.187211 126.430037,173.100222 126.343128,172.905727 C126.256218,172.711233 126.342931,172.482885 126.536805,172.395698 L128.643051,171.4485 C128.836925,171.361313 129.064546,171.448302 129.151455,171.642797 C129.238364,171.837291 129.151652,172.065639 128.957777,172.152826 L126.851532,173.100024 Z M122.639041,174.99442 C122.445166,175.081607 122.217546,174.994617 122.130636,174.800123 C122.043727,174.605629 122.13044,174.377281 122.324314,174.290093 L124.43056,173.342896 C124.624434,173.255708 124.852055,173.342698 124.938964,173.537193 C125.025873,173.731687 124.939161,173.960035 124.745286,174.047222 L122.639041,174.99442 Z M118.426549,176.888816 C118.232675,176.976003 118.005055,176.889013 117.918145,176.694519 C117.831236,176.500024 117.917948,176.271676 118.111823,176.184489 L120.218069,175.237291 C120.411943,175.150104 120.639563,175.237094 120.726473,175.431588 C120.813382,175.626083 120.72667,175.854431 120.532795,175.941618 L118.426549,176.888816 Z M114.182332,178.763864 C113.983819,178.839823 113.761511,178.739959 113.685794,178.540812 C113.610076,178.341664 113.709622,178.118645 113.908135,178.042686 C114.228347,177.920159 114.545292,177.788391 114.858617,177.647486 L116.005577,177.131687 C116.199452,177.0445 116.427072,177.13149 116.513982,177.325984 C116.600891,177.520478 116.514178,177.748827 116.320304,177.836014 L115.173343,178.351812 C114.846665,178.498723 114.516203,178.63611 114.182332,178.763864 Z M109.60868,179.880784 C109.397577,179.904858 109.20699,179.752693 109.182993,179.540915 C109.158996,179.329136 109.310675,179.13794 109.521779,179.113866 C110.270528,179.02848 111.013606,178.896035 111.746638,178.717112 C111.953078,178.666722 112.16115,178.793762 112.211379,179.000862 C112.261607,179.207963 112.134973,179.4167 111.928533,179.467089 C111.164197,179.653653 110.389392,179.791753 109.60868,179.880784 Z M104.897722,179.822035 C104.687281,179.792703 104.540387,179.597782 104.569626,179.386668 C104.598865,179.175554 104.793164,179.02819 105.003606,179.057523 C105.750644,179.161648 106.503344,179.218617 107.257191,179.228173 C107.469637,179.230866 107.639683,179.405822 107.636998,179.618947 C107.634314,179.832072 107.459916,180.002662 107.24747,179.999969 C106.46146,179.990005 105.676642,179.930605 104.897722,179.822035 Z M100.314867,178.575514 C100.118475,178.494194 100.02498,178.268555 100.106041,178.071536 C100.187101,177.874516 100.412021,177.780722 100.608413,177.862042 C101.306545,178.151117 102.020862,178.395424 102.747378,178.593975 C102.952371,178.649997 103.073279,178.862124 103.017435,179.067772 C102.961591,179.27342 102.750141,179.394715 102.545148,179.338692 C101.787606,179.131662 101.04279,178.876924 100.314867,178.575514 Z M96.1208588,176.698721 C95.9269843,176.611534 95.8402718,176.383186 95.9271811,176.188691 C96.0140903,175.994197 96.2417106,175.907207 96.4355852,175.994394 L98.5418307,176.941592 C98.7357053,177.028779 98.8224177,177.257127 98.7355085,177.451622 C98.6485992,177.646116 98.4209789,177.733106 98.2271044,177.645919 L96.1208588,176.698721 Z M91.9083677,174.804325 C91.7144931,174.717138 91.6277807,174.48879 91.7146899,174.294295 C91.8015992,174.099801 92.0292195,174.012811 92.223094,174.099998 L94.3293396,175.047196 C94.5232141,175.134383 94.6099266,175.362731 94.5230174,175.557226 C94.4361081,175.75172 94.2084878,175.83871 94.0146133,175.751523 L91.9083677,174.804325 Z M87.6958766,172.909929 C87.502002,172.822742 87.4152896,172.594394 87.5021988,172.3999 C87.5891081,172.205405 87.8167284,172.118415 88.0106029,172.205603 L90.1168485,173.1528 C90.310723,173.239988 90.3974355,173.468336 90.3105262,173.66283 C90.223617,173.857325 89.9959967,173.944314 89.8021221,173.857127 L87.6958766,172.909929 Z M83.4833855,171.015533 C83.2895109,170.928346 83.2027984,170.699998 83.2897077,170.505504 C83.376617,170.311009 83.6042373,170.22402 83.7981118,170.311207 L85.9043574,171.258405 C86.0982319,171.345592 86.1849444,171.57394 86.0980351,171.768434 C86.0111258,171.962929 85.7835056,172.049918 85.589631,171.962731 L83.4833855,171.015533 Z M79.2708944,169.121138 C79.0770198,169.033951 78.9903073,168.805603 79.0772166,168.611108 C79.1641259,168.416614 79.3917462,168.329624 79.5856207,168.416811 L81.6918663,169.364009 C81.8857408,169.451196 81.9724533,169.679544 81.885544,169.874039 C81.7986347,170.068533 81.5710145,170.155523 81.3771399,170.068336 L79.2708944,169.121138 Z M75.0584032,167.226742 C74.8645287,167.139555 74.7778162,166.911207 74.8647255,166.716712 C74.9516348,166.522218 75.179255,166.435228 75.3731296,166.522415 L77.4793752,167.469613 C77.6732497,167.5568 77.7599622,167.785148 77.6730529,167.979643 C77.5861436,168.174137 77.3585234,168.261127 77.1646488,168.17394 L75.0584032,167.226742 Z M70.8459121,165.332346 C70.6520376,165.245159 70.5653251,165.016811 70.6522344,164.822317 C70.7391437,164.627822 70.9667639,164.540832 71.1606385,164.62802 L73.266884,165.575217 C73.4607586,165.662405 73.5474711,165.890753 73.4605618,166.085247 C73.3736525,166.279741 73.1460322,166.366731 72.9521577,166.279544 L70.8459121,165.332346 Z M66.633421,163.43795 C66.4395465,163.350763 66.352834,163.122415 66.4397433,162.927921 C66.5266526,162.733426 66.7542728,162.646437 66.9481474,162.733624 L69.0543929,163.680822 C69.2482675,163.768009 69.33498,163.996357 69.2480707,164.190851 C69.1611614,164.385346 68.9335411,164.472335 68.7396666,164.385148 L66.633421,163.43795 Z M62.4209299,161.543555 C62.2270554,161.456368 62.1403429,161.228019 62.2272522,161.033525 C62.3141614,160.839031 62.5417817,160.752041 62.7356563,160.839228 L64.8419018,161.786426 C65.0357764,161.873613 65.1224888,162.101961 65.0355796,162.296456 C64.9486703,162.49095 64.72105,162.57794 64.5271755,162.490753 L62.4209299,161.543555 Z M58.2084388,159.649159 C58.0145642,159.561972 57.9278518,159.333624 58.014761,159.139129 C58.1016703,158.944635 58.3292906,158.857645 58.5231651,158.944832 L60.6294107,159.89203 C60.8232853,159.979217 60.9099977,160.207565 60.8230885,160.40206 C60.7361792,160.596554 60.5085589,160.683544 60.3146844,160.596357 L58.2084388,159.649159 Z M53.9959477,157.754763 C53.8020731,157.667576 53.7153607,157.439228 53.8022699,157.244734 C53.8891792,157.050239 54.1167995,156.963249 54.310674,157.050437 L56.4169196,157.997634 C56.6107941,158.084822 56.6975066,158.31317 56.6105973,158.507664 C56.5236881,158.702158 56.2960678,158.789148 56.1021932,158.701961 L53.9959477,157.754763 Z M49.7834566,155.860367 C49.589582,155.77318 49.5028695,155.544832 49.5897788,155.350338 C49.6766881,155.155843 49.9043084,155.068854 50.0981829,155.156041 L52.2044285,156.103239 C52.398303,156.190426 52.4850155,156.418774 52.3981062,156.613268 C52.311197,156.807763 52.0835767,156.894752 51.8897021,156.807565 L49.7834566,155.860367 Z M45.5709655,153.965972 C45.3770909,153.878784 45.2903784,153.650436 45.3772877,153.455942 C45.464197,153.261448 45.6918173,153.174458 45.8856918,153.261645 L47.9919374,154.208843 C48.1858119,154.29603 48.2725244,154.524378 48.1856151,154.718873 C48.0987058,154.913367 47.8710856,155.000357 47.677211,154.91317 L45.5709655,153.965972 Z M41.3584744,152.071576 C41.1645998,151.984389 41.0778873,151.756041 41.1647966,151.561546 C41.2517059,151.367052 41.4793261,151.280062 41.6732007,151.367249 L43.7794463,152.314447 C43.9733208,152.401634 44.0600333,152.629982 43.973124,152.824477 C43.8862147,153.018971 43.6585945,153.105961 43.4647199,153.018774 L41.3584744,152.071576 Z M37.1459832,150.17718 C36.9521087,150.089993 36.8653962,149.861645 36.9523055,149.667151 C37.0392148,149.472656 37.266835,149.385666 37.4607096,149.472854 L39.5669551,150.420051 C39.7608297,150.507239 39.8475422,150.735587 39.7606329,150.930081 C39.6737236,151.124575 39.4461033,151.211565 39.2522288,151.124378 L37.1459832,150.17718 Z M32.9334921,148.282784 C32.7396176,148.195597 32.6529051,147.967249 32.7398144,147.772755 C32.8267237,147.57826 33.0543439,147.491271 33.2482185,147.578458 L35.354464,148.525656 C35.5483386,148.612843 35.6350511,148.841191 35.5481418,149.035685 C35.4612325,149.23018 35.2336122,149.317169 35.0397377,149.229982 L32.9334921,148.282784 Z M28.721001,146.388389 C28.5271265,146.301201 28.440414,146.072853 28.5273233,145.878359 C28.6142325,145.683865 28.8418528,145.596875 29.0357274,145.684062 L31.1419729,146.63126 C31.3358475,146.718447 31.42256,146.946795 31.3356507,147.14129 C31.2487414,147.335784 31.0211211,147.422774 30.8272466,147.335587 L28.721001,146.388389 Z M24.5085099,144.493993 C24.3146354,144.406806 24.2279229,144.178458 24.3148322,143.983963 C24.4017414,143.789469 24.6293617,143.702479 24.8232363,143.789666 L26.9294818,144.736864 C27.1233564,144.824051 27.2100688,145.052399 27.1231596,145.246894 C27.0362503,145.441388 26.80863,145.528378 26.6147555,145.441191 L24.5085099,144.493993 Z M20.2960188,142.599597 C20.1021442,142.51241 20.0154318,142.284062 20.102341,142.089567 C20.1892503,141.895073 20.4168706,141.808083 20.6107451,141.89527 L22.7169907,142.842468 C22.9108652,142.929656 22.9975777,143.158004 22.9106684,143.352498 C22.8237592,143.546992 22.5961389,143.633982 22.4022643,143.546795 L20.2960188,142.599597 Z M16.0835277,140.705201 C15.8896531,140.618014 15.8029406,140.389666 15.8898499,140.195172 C15.9767592,140.000677 16.2043795,139.913688 16.398254,140.000875 L18.5044996,140.948073 C18.6983741,141.03526 18.7850866,141.263608 18.6981773,141.458102 C18.6112681,141.652597 18.3836478,141.739586 18.1897732,141.652399 L16.0835277,140.705201 Z M11.8710366,138.810806 C11.677162,138.723618 11.5904495,138.49527 11.6773588,138.300776 C11.7642681,138.106282 11.9918884,138.019292 12.1857629,138.106479 L14.2920085,139.053677 C14.485883,139.140864 14.5725955,139.369212 14.4856862,139.563706 C14.3987769,139.758201 14.1711567,139.845191 13.9772821,139.758003 L11.8710366,138.810806 Z M7.65854546,136.91641 C7.46467091,136.829223 7.37795842,136.600875 7.4648677,136.40638 C7.55177698,136.211886 7.77939725,136.124896 7.9732718,136.212083 L10.0795174,137.159281 C10.2733919,137.246468 10.3601044,137.474816 10.2731951,137.669311 C10.1862858,137.863805 9.95866556,137.950795 9.76479101,137.863608 L7.65854546,136.91641 Z M3.44605434,135.022014 C3.25217979,134.934827 3.16546731,134.706479 3.25237659,134.511984 C3.33928587,134.31749 3.56690614,134.2305 3.76078069,134.317687 L5.86702625,135.264885 C6.0609008,135.352073 6.14761328,135.580421 6.060704,135.774915 C5.97379472,135.969409 5.74617445,136.056399 5.5522999,135.969212 L3.44605434,135.022014 Z M0.0038641513,131.701021 C-0.0259855896,131.489992 0.120343473,131.294645 0.33069926,131.2647 C0.541055047,131.234754 0.735780102,131.381551 0.765629843,131.59258 C0.801169795,131.843836 0.872112033,132.087102 0.986900776,132.343658 C1.16673013,132.73465 1.43704634,133.075905 1.77451204,133.33963 C1.94212103,133.470615 1.97214936,133.713107 1.84158217,133.881252 C1.71101499,134.049397 1.46929544,134.079522 1.30168644,133.948537 C0.867487391,133.609215 0.519668845,133.170119 0.286638192,132.663406 C0.140964975,132.337886 0.0496632112,132.024806 0.0038641513,131.701021 Z M2.72146967,127.735188 C2.91526215,127.647817 3.14296412,127.734591 3.23005624,127.929004 C3.31714836,128.123416 3.23065062,128.351846 3.03685814,128.439216 L2.26953574,128.785061 C1.85502336,128.982898 1.50519635,129.27841 1.2433155,129.645144 C1.11958531,129.818414 0.879266815,129.858253 0.70654911,129.734128 C0.533831405,129.610002 0.494119174,129.368915 0.617849359,129.195645 C0.955080016,128.723392 1.40609208,128.342406 1.94656966,128.084548 L2.72146967,127.735188 Z M6.93429184,125.840643 C7.12816639,125.753456 7.35578666,125.840445 7.44269594,126.03494 C7.52960522,126.229434 7.44289274,126.457782 7.24901819,126.54497 L5.14277263,127.492167 C4.94889808,127.579355 4.72127781,127.492365 4.63436853,127.29787 C4.54745925,127.103376 4.63417173,126.875028 4.82804628,126.787841 L6.93429184,125.840643 Z M11.146783,123.946247 C11.3406575,123.85906 11.5682778,123.94605 11.6551871,124.140544 C11.7420963,124.335039 11.6553839,124.563387 11.4615093,124.650574 L9.35526374,125.597772 C9.16138919,125.684959 8.93376893,125.597969 8.84685964,125.403475 C8.75995036,125.20898 8.84666285,124.980632 9.0405374,124.893445 L11.146783,123.946247 Z M15.3592741,122.051851 C15.5531486,121.964664 15.7807689,122.051654 15.8676782,122.246148 C15.9545874,122.440643 15.867875,122.668991 15.6740004,122.756178 L13.5677549,123.703376 C13.3738803,123.790563 13.14626,123.703573 13.0593508,123.509079 C12.9724415,123.314584 13.059154,123.086236 13.2530285,122.999049 L15.3592741,122.051851 Z M19.5717652,120.157456 C19.7656397,120.070268 19.99326,120.157258 20.0801693,120.351753 C20.1670786,120.546247 20.0803661,120.774595 19.8864915,120.861782 L17.780246,121.80898 C17.5863714,121.896167 17.3587511,121.809178 17.2718419,121.614683 C17.1849326,121.420189 17.2716451,121.191841 17.4655196,121.104654 L19.5717652,120.157456 Z M23.7842563,118.26306 C23.9781308,118.175873 24.2057511,118.262862 24.2926604,118.457357 C24.3795697,118.651851 24.2928572,118.880199 24.0989826,118.967386 L21.9927371,119.914584 C21.7988625,120.001772 21.5712423,119.914782 21.484333,119.720287 C21.3974237,119.525793 21.4841362,119.297445 21.6780107,119.210258 L23.7842563,118.26306 Z M27.9967474,116.368664 C28.190622,116.281477 28.4182422,116.368467 28.5051515,116.562961 C28.5920608,116.757456 28.5053483,116.985804 28.3114737,117.072991 L26.2052282,118.020189 C26.0113536,118.107376 25.7837334,118.020386 25.6968241,117.825892 C25.6099148,117.631397 25.6966273,117.403049 25.8905018,117.315862 L27.9967474,116.368664 Z M32.2092385,114.474268 C32.4031131,114.387081 32.6307333,114.474071 32.7176426,114.668565 C32.8045519,114.86306 32.7178394,115.091408 32.5239649,115.178595 L30.4177193,116.125793 C30.2238448,116.21298 29.9962245,116.12599 29.9093152,115.931496 C29.8224059,115.737001 29.9091184,115.508653 30.102993,115.421466 L32.2092385,114.474268 Z M36.4217296,112.579873 C36.6156042,112.492685 36.8432244,112.579675 36.9301337,112.77417 C37.017043,112.968664 36.9303305,113.197012 36.736456,113.284199 L34.6302104,114.231397 C34.4363359,114.318584 34.2087156,114.231595 34.1218063,114.0371 C34.034897,113.842606 34.1216095,113.614258 34.3154841,113.52707 L36.4217296,112.579873 Z M40.6342207,110.685477 C40.8280953,110.59829 41.0557156,110.685279 41.1426248,110.879774 C41.2295341,111.074268 41.1428216,111.302616 40.9489471,111.389803 L38.8427015,112.337001 C38.648827,112.424189 38.4212067,112.337199 38.3342974,112.142704 C38.2473881,111.94821 38.3341006,111.719862 38.5279752,111.632675 L40.6342207,110.685477 Z M44.8467118,108.791081 C45.0405864,108.703894 45.2682067,108.790884 45.3551159,108.985378 C45.4420252,109.179873 45.3553127,109.408221 45.1614382,109.495408 L43.0551926,110.442606 C42.8613181,110.529793 42.6336978,110.442803 42.5467885,110.248309 C42.4598793,110.053814 42.5465917,109.825466 42.7404663,109.738279 L44.8467118,108.791081 Z M49.059203,106.896685 C49.2530775,106.809498 49.4806978,106.896488 49.5676071,107.090982 C49.6545163,107.285477 49.5678039,107.513825 49.3739293,107.601012 L47.2676838,108.54821 C47.0738092,108.635397 46.8461889,108.548407 46.7592797,108.353913 C46.6723704,108.159418 46.7590829,107.93107 46.9529574,107.843883 L49.059203,106.896685 Z M53.2716941,105.00229 C53.4655686,104.915102 53.6931889,105.002092 53.7800982,105.196587 C53.8670075,105.391081 53.780295,105.619429 53.5864204,105.706616 L51.4801749,106.653814 C51.2863003,106.741001 51.05868,106.654012 50.9717708,106.459517 C50.8848615,106.265023 50.971574,106.036675 51.1654485,105.949487 L53.2716941,105.00229 Z M57.4841852,103.107894 C57.6780597,103.020707 57.90568,103.107696 57.9925893,103.302191 C58.0794986,103.496685 57.9927861,103.725033 57.7989115,103.81222 L55.692666,104.759418 C55.4987914,104.846605 55.2711712,104.759616 55.1842619,104.565121 C55.0973526,104.370627 55.1840651,104.142279 55.3779396,104.055092 L57.4841852,103.107894 Z M61.6966763,101.213498 C61.8905508,101.126311 62.1181711,101.213301 62.2050804,101.407795 C62.2919897,101.602289 62.2052772,101.830638 62.0114026,101.917825 L59.9051571,102.865023 C59.7112825,102.95221 59.4836623,102.86522 59.396753,102.670726 C59.3098437,102.476231 59.3965562,102.247883 59.5904307,102.160696 L61.6966763,101.213498 Z M65.9091674,99.3191023 C66.103042,99.2319151 66.3306622,99.3189049 66.4175715,99.5133993 C66.5044808,99.7078937 66.4177683,99.9362418 66.2238938,100.023429 L64.1176482,100.970627 C63.9237736,101.057814 63.6961534,100.970824 63.6092441,100.77633 C63.5223348,100.581835 63.6090473,100.353487 63.8029219,100.2663 L65.9091674,99.3191023 Z M70.1216585,97.4247066 C70.3155331,97.3375194 70.5431533,97.4245091 70.6300626,97.6190036 C70.7169719,97.813498 70.6302594,98.041846 70.4363849,98.1290332 L68.3301393,99.0762311 C68.1362648,99.1634182 67.9086445,99.0764285 67.8217352,98.8819341 C67.7348259,98.6874396 67.8215384,98.4590916 68.015413,98.3719044 L70.1216585,97.4247066 Z M74.3341496,95.5303108 C74.5280242,95.4431236 74.7556445,95.5301134 74.8425537,95.7246078 C74.929463,95.9191022 74.8427505,96.1474503 74.648876,96.2346374 L72.5426304,97.1818353 C72.3487559,97.2690225 72.1211356,97.1820327 72.0342263,96.9875383 C71.947317,96.7930439 72.0340295,96.5646958 72.2279041,96.4775087 L74.3341496,95.5303108 Z M78.5466407,93.635915 C78.7405153,93.5487279 78.9681356,93.6357176 79.0550448,93.830212 C79.1419541,94.0247065 79.0552416,94.2530545 78.8613671,94.3402417 L76.7551215,95.2874395 C76.561247,95.3746267 76.3336267,95.287637 76.2467174,95.0931425 C76.1598082,94.8986481 76.2465206,94.6703001 76.4403952,94.5831129 L78.5466407,93.635915 Z M82.7591319,91.7415193 C82.9530064,91.6543321 83.1806267,91.7413219 83.267536,91.9358163 C83.3544452,92.1303107 83.2677328,92.3586588 83.0738582,92.4458459 L80.9676126,93.3930438 C80.7737381,93.4802309 80.5461178,93.3932412 80.4592085,93.1987468 C80.3722993,93.0042524 80.4590118,92.7759043 80.6528863,92.6887172 L82.7591319,91.7415193 Z M86.971623,89.8471235 C87.1654975,89.7599364 87.3931178,89.8469261 87.4800271,90.0414205 C87.5669363,90.235915 87.4802239,90.464263 87.2863493,90.5514502 L85.1801038,91.498648 C84.9862292,91.5858352 84.7586089,91.4988455 84.6716997,91.304351 C84.5847904,91.1098566 84.6715029,90.8815086 84.8653774,90.7943214 L86.971623,89.8471235 Z M91.1841141,87.9527278 C91.3779886,87.8655406 91.6056089,87.9525303 91.6925182,88.1470248 C91.7794275,88.3415192 91.692715,88.5698672 91.4988404,88.6570544 L89.3925949,89.6042523 C89.1987203,89.6914394 88.9711001,89.6044497 88.8841908,89.4099553 C88.7972815,89.2154608 88.883994,88.9871128 89.0778685,88.8999256 L91.1841141,87.9527278 Z M95.3966052,86.058332 C95.5904797,85.9711449 95.8181,86.0581346 95.9050093,86.252629 C95.9919186,86.4471234 95.9052061,86.6754715 95.7113315,86.7626586 L93.605086,87.7098565 C93.4112114,87.7970437 93.1835912,87.7100539 93.0966819,87.5155595 C93.0097726,87.3210651 93.0964851,87.0927171 93.2903596,87.0055299 L95.3966052,86.058332 Z M99.6090963,84.1639363 C99.8029709,84.0767491 100.030591,84.1637388 100.1175,84.3582333 C100.20441,84.5527277 100.117697,84.7810757 99.9238227,84.8682629 L97.8175771,85.8154608 C97.6237025,85.9026479 97.3960823,85.8156582 97.309173,85.6211638 C97.2222637,85.4266693 97.3089762,85.1983213 97.5028507,85.1111341 L99.6090963,84.1639363 Z" id="路径-2" fill-opacity="0.16" fill="#302647" fill-rule="nonzero"></path>
                <rect id="矩形" fill="url(#linearGradient-1)" x="3.616475" y="71.7826926" width="4.61638144" height="55.5736975" rx="1.54371382"></rect>
                <rect id="矩形备份-58" fill="url(#linearGradient-1)" x="60.5518461" y="6.17485528" width="4.61638144" height="55.5736975" rx="1.54371382"></rect>
                <rect id="矩形备份-59" fill="url(#linearGradient-1)" x="206.737258" y="61.7485528" width="4.61638144" height="55.5736975" rx="1.54371382"></rect>
                <path d="M99.9061637,87.8635676 C104.727533,85.701815 110.242582,85.701815 115.063951,87.8635676 L115.063951,87.8635676 L154.943131,105.743786 L200.384456,105.744397 L200.385656,127.754409 C200.545645,129.062862 199.849122,130.377885 198.583266,130.945456 L198.583266,130.945456 L115.063951,168.392926 C110.242582,170.554679 104.727533,170.554679 99.9061637,168.392926 L99.9061637,168.392926 L16.3868492,130.945456 C15.6957483,130.635587 15.1426578,130.082497 14.8327896,129.391396 C14.5547994,128.771393 14.4980665,128.108368 14.6288481,127.490916 L14.6296093,105.744397 L60.0261308,105.743786 Z" id="形状结合" fill="url(#linearGradient-2)"></path>
                <path d="M14.8327896,116.269828 C15.1426578,116.960929 15.6957483,117.51402 16.3868492,117.823888 L99.9061637,155.271359 C104.727533,157.433112 110.242582,157.433112 115.063951,155.271359 L198.583266,117.823888 C199.608806,117.364068 200.260664,116.413656 200.386132,115.373601 L200.385656,118.492126 C200.538027,119.738272 199.913515,120.990377 198.760198,121.597088 L198.583266,121.683173 L115.063951,159.130644 C110.376509,161.232347 105.033389,161.290728 100.30952,159.305785 L99.9061637,159.130644 L16.3868492,121.683173 C15.6957483,121.373304 15.1426578,120.820214 14.8327896,120.129113 C14.6244367,119.664422 14.5403742,119.175564 14.5663956,118.69984 L14.5661428,115.171543 C14.5857913,115.540619 14.6725181,115.912374 14.8327896,116.269828 Z" id="形状结合" fill="url(#linearGradient-3)"></path>
                <path d="M14.8327896,116.269828 C15.1426578,116.960929 15.6957483,117.51402 16.3868492,117.823888 L99.9061637,155.271359 C104.727533,157.433112 110.242582,157.433112 115.063951,155.271359 L198.583266,117.823888 C199.608806,117.364068 200.260664,116.413656 200.386132,115.373601 L200.385656,118.492126 C200.538027,119.738272 199.913515,120.990377 198.760198,121.597088 L198.583266,121.683173 L115.063951,159.130644 C110.376509,161.232347 105.033389,161.290728 100.30952,159.305785 L99.9061637,159.130644 L16.3868492,121.683173 C15.6957483,121.373304 15.1426578,120.820214 14.8327896,120.129113 C14.6244367,119.664422 14.5403742,119.175564 14.5663956,118.69984 L14.5661428,115.171543 C14.5857913,115.540619 14.6725181,115.912374 14.8327896,116.269828 Z" id="形状结合" fill="url(#linearGradient-4)"></path>
                <g id="路径-10" transform="translate(10.103612, 62.081576)">
                    <mask id="mask-7" fill="white">
                        <use xlink:href="#path-6"></use>
                    </mask>
                    <use id="蒙版" fill="url(#linearGradient-5)" xlink:href="#path-6"></use>
                    <path d="M164.804995,30.2330995 L149.68256,37.1437649 L149.905691,50.2892859 L104.642203,70.5257678 C100.031571,72.5870972 94.761214,72.587075 90.1505999,70.5257066 L56.347712,55.4127082 L56.347712,55.4127082 L107.244202,32.8568237 L143.007068,19.100503 L164.804995,30.2330995 Z" fill-opacity="0.1" fill="#302647" filter="url(#filter-8)" mask="url(#mask-7)"></path>
                </g>
                <g id="路径-2备份-4" transform="translate(40.347454, 75.641977)">
                    <mask id="mask-11" fill="white">
                        <use xlink:href="#path-10"></use>
                    </mask>
                    <use id="蒙版" fill="url(#linearGradient-9)" xlink:href="#path-10"></use>
                    <path d="M59.5587094,18.8352792 L6.28323684,42.7223491 C4.72733551,43.419967 4.03155933,45.2468053 4.72917724,46.8027066 C5.03904544,47.4938075 5.59213596,48.046898 6.28323684,48.3567662 L59.5587094,72.2438362 C64.3800789,74.4055887 69.8951275,74.4055887 74.716497,72.2438362 L127.99197,48.3567662 C129.547871,47.6591483 130.243647,45.83231 129.546029,44.2764087 C129.236161,43.5853078 128.68307,43.0322173 127.99197,42.7223491 L74.716497,18.8352792 C69.8951275,16.6735266 64.3800789,16.6735266 59.5587094,18.8352792 Z" fill="url(#linearGradient-12)" mask="url(#mask-11)"></path>
                    <polygon id="路径-10" fill-opacity="0.1" fill="#302647" mask="url(#mask-11)" points="134.561153 16.6726986 119.438718 23.583364 119.661849 36.728885 67.1525457 60.2048389 26.1038701 41.8523073 77.0003597 19.2964227 119.125271 3.833121"></polygon>
                </g>
                <g id="编组-6" transform="translate(53.627274, 59.432982)">
                    <g id="路径-2备份-6" transform="translate(4.970486, 9.739350)">
                        <mask id="mask-15" fill="white">
                            <use xlink:href="#path-14"></use>
                        </mask>
                        <use id="形状结合" fill="url(#linearGradient-13)" xlink:href="#path-14"></use>
                    </g>
                    <g id="路径-2备份-5">
                        <mask id="mask-18" fill="white">
                            <use xlink:href="#path-17"></use>
                        </mask>
                        <g id="蒙版">
                            <use fill="url(#linearGradient-16)" fill-rule="evenodd" xlink:href="#path-17"></use>
                            <use fill="black" fill-opacity="1" filter="url(#filter-19)" xlink:href="#path-17"></use>
                        </g>
                        <path d="M82.7858668,-7.48322621 L57.049277,4.04519925 C55.8790515,4.56938904 55.355336,5.94298405 55.8795258,7.11320957 C56.1125948,7.63352362 56.5289629,8.04989172 57.049277,8.28296073 L82.7858668,19.8113862 C86.4089456,21.4343049 90.552343,21.4343049 94.1754218,19.8113862 L119.912012,8.28296073 C121.082237,7.75877094 121.605953,6.38517593 121.081763,5.21495041 C120.848694,4.69463637 120.432326,4.27826827 119.912012,4.04519925 L94.1754218,-7.48322621 C90.552343,-9.10614494 86.4089456,-9.10614494 82.7858668,-7.48322621 Z" id="蒙版" fill="url(#linearGradient-20)" filter="url(#filter-21)" mask="url(#mask-18)"></path>
                        <g id="监控-资产监控" mask="url(#mask-18)" fill-rule="nonzero">
                            <g transform="translate(27.698289, 12.349711)" id="形状">
                                <use fill="black" fill-opacity="1" filter="url(#filter-24)" xlink:href="#path-23"></use>
                                <use fill="url(#linearGradient-22)" xlink:href="#path-23"></use>
                                <use fill="black" fill-opacity="1" filter="url(#filter-25)" xlink:href="#path-23"></use>
                            </g>
                        </g>
                        <path d="" id="路径-8" stroke="#979797" stroke-width="0.864479739" mask="url(#mask-18)"></path>
                    </g>
                </g>
                <g id="编组-6备份" transform="translate(105.946264, 32.417990)">
                    <g id="路径-2备份-6" transform="translate(3.337326, 6.538443)">
                        <mask id="mask-28" fill="white">
                            <use xlink:href="#path-27"></use>
                        </mask>
                        <use id="形状结合" fill="url(#linearGradient-26)" xlink:href="#path-27"></use>
                    </g>
                    <g id="路径-2备份-5">
                        <mask id="mask-31" fill="white">
                            <use xlink:href="#path-30"></use>
                        </mask>
                        <g id="蒙版">
                            <use fill="url(#linearGradient-29)" fill-rule="evenodd" xlink:href="#path-30"></use>
                            <use fill="black" fill-opacity="1" filter="url(#filter-32)" xlink:href="#path-30"></use>
                        </g>
                        <path d="M-4.92538057,-9.02694002 L-30.6619704,2.50148543 C-31.8321959,3.02567522 -32.3559114,4.39927023 -31.8317216,5.56949575 C-31.5986526,6.0898098 -31.1822845,6.5061779 -30.6619704,6.73924691 L-4.92538057,18.2676724 C-1.30230177,19.8905911 2.84109558,19.8905911 6.46417438,18.2676724 L32.2007642,6.73924691 C33.3709898,6.21505712 33.8947052,4.84146211 33.3705154,3.67123659 C33.1374464,3.15092255 32.7210783,2.73455445 32.2007642,2.50148543 L6.46417438,-9.02694002 C2.84109558,-10.6498588 -1.30230177,-10.6498588 -4.92538057,-9.02694002 Z" id="蒙版" fill="url(#linearGradient-33)" filter="url(#filter-34)" mask="url(#mask-31)"></path>
                        <g id="形状结合" fill-rule="nonzero" mask="url(#mask-31)">
                            <use fill="black" fill-opacity="1" filter="url(#filter-37)" xlink:href="#path-36"></use>
                            <use fill="url(#linearGradient-35)" xlink:href="#path-36"></use>
                            <use fill="black" fill-opacity="1" filter="url(#filter-38)" xlink:href="#path-36"></use>
                        </g>
                    </g>
                </g>
                <g id="编组-6备份-2" transform="translate(71.323403, 0.000000)">
                    <g id="路径-2备份-6" transform="translate(3.337326, 6.538443)">
                        <mask id="mask-41" fill="white">
                            <use xlink:href="#path-40"></use>
                        </mask>
                        <use id="形状结合" fill="url(#linearGradient-39)" xlink:href="#path-40"></use>
                    </g>
                    <g id="路径-2备份-5">
                        <mask id="mask-44" fill="white">
                            <use xlink:href="#path-43"></use>
                        </mask>
                        <g id="蒙版">
                            <use fill="url(#linearGradient-42)" fill-rule="evenodd" xlink:href="#path-43"></use>
                            <use fill="black" fill-opacity="1" filter="url(#filter-45)" xlink:href="#path-43"></use>
                        </g>
                        <g id="路径-9" mask="url(#mask-44)">
                            <use fill="black" fill-opacity="1" filter="url(#filter-48)" xlink:href="#path-47"></use>
                            <use fill="url(#linearGradient-46)" fill-rule="evenodd" xlink:href="#path-47"></use>
                            <use fill="black" fill-opacity="1" filter="url(#filter-49)" xlink:href="#path-47"></use>
                        </g>
                    </g>
                </g>
            </g>
        </g>
    </g>
</svg>