<svg width="73" height="37" viewBox="0 0 73 37" xmlns="http://www.w3.org/2000/svg" xmlns:xlink="http://www.w3.org/1999/xlink"><defs><linearGradient x1="100%" y1="50%" x2="0%" y2="50%" id="b"><stop stop-color="#302647" offset="0%"/><stop stop-color="#ACA8B5" offset="18.224%"/><stop stop-color="#8D65E1" offset="18.25%"/><stop stop-color="#8D65E1" offset="22.314%"/><stop stop-color="#E0A716" offset="22.414%"/><stop stop-color="#E0A716" offset="25.993%"/><stop stop-color="#59516C" offset="26.007%"/><stop stop-color="#302647" offset="49.649%"/><stop stop-color="#ACA8B5" offset="100%"/></linearGradient><path d="M38.155 1.062l.364.157 21.892 9.806V9.66h5.23v5.206h-.012c0 .835-.453 1.633-1.224 2.046l-.15.073L38.52 28.514a13.93 13.93 0 0 1-11.025.157l-.364-.157L1.393 16.985A2.322 2.322 0 0 1 .02 14.867H0V9.66h6.922l-.001.61L27.13 1.219a13.93 13.93 0 0 1 11.025-.157z" id="a"/><linearGradient x1="50%" y1="0%" x2="50%" y2="100%" id="d"><stop stop-color="#F0F4FF" offset="0%"/><stop stop-color="#F8FAFF" offset="100%"/></linearGradient><path d="M30.467 2.55L4.73 14.08a2.322 2.322 0 0 0 0 4.237l25.737 11.529a13.93 13.93 0 0 0 11.39 0l25.736-11.529a2.322 2.322 0 0 0 0-4.238L41.856 2.551a13.93 13.93 0 0 0-11.39 0z" id="c"/><filter x="3.3%" y="1%" width="93.5%" height="97.9%" filterUnits="objectBoundingBox" id="e"><feOffset dy="-1" in="SourceAlpha" result="shadowOffsetInner1"/><feComposite in="shadowOffsetInner1" in2="SourceAlpha" operator="arithmetic" k2="-1" k3="1" result="shadowInnerInner1"/><feColorMatrix values="0 0 0 0 1 0 0 0 0 1 0 0 0 0 1 0 0 0 1 0" in="shadowInnerInner1" result="shadowMatrixInner1"/><feGaussianBlur stdDeviation=".5" in="SourceAlpha" result="shadowBlurInner2"/><feOffset dy="1" in="shadowBlurInner2" result="shadowOffsetInner2"/><feComposite in="shadowOffsetInner2" in2="SourceAlpha" operator="arithmetic" k2="-1" k3="1" result="shadowInnerInner2"/><feColorMatrix values="0 0 0 0 0.678431373 0 0 0 0 0.745098039 0 0 0 0 1 0 0 0 0.0523382867 0" in="shadowInnerInner2" result="shadowMatrixInner2"/><feMerge><feMergeNode in="shadowMatrixInner1"/><feMergeNode in="shadowMatrixInner2"/></feMerge></filter><linearGradient x1="3.325%" y1="55.591%" x2="81.744%" y2="44.409%" id="i"><stop stop-color="#EAEDF6" offset="0%"/><stop stop-color="#C6C2D1" offset="100%"/></linearGradient><path d="M41.78 10.057l-13.894 3.237c-.253.059-.366.213-.253.344.025.03.06.056.103.078l3.565 1.855c.196.101.196.267 0 .369a.599.599 0 0 1-.103.04l-9.404 2.83c-.24.072-.322.231-.183.356.094.085.273.136.462.13l23.33-.692c.276-.008.488-.131.472-.275-.007-.064-.059-.125-.146-.17l-4.126-2.146c-.196-.102-.196-.267 0-.369a.654.654 0 0 1 .163-.057l7.165-1.538c.256-.055.378-.207.272-.34a.335.335 0 0 0-.109-.085L42.34 10.11a.87.87 0 0 0-.56-.054z" id="h"/><filter x="0%" y="0%" width="100%" height="100%" filterUnits="objectBoundingBox" id="g"><feOffset in="SourceAlpha" result="shadowOffsetOuter1"/><feColorMatrix values="0 0 0 0 1 0 0 0 0 1 0 0 0 0 1 0 0 0 1 0" in="shadowOffsetOuter1"/></filter><filter x="0%" y="0%" width="100%" height="100%" filterUnits="objectBoundingBox" id="j"><feOffset in="SourceAlpha" result="shadowOffsetInner1"/><feComposite in="shadowOffsetInner1" in2="SourceAlpha" operator="arithmetic" k2="-1" k3="1" result="shadowInnerInner1"/><feColorMatrix values="0 0 0 0 0.625862402 0 0 0 0 0.603933406 0 0 0 0 0.673375226 0 0 0 1 0" in="shadowInnerInner1"/></filter></defs><g fill="none" fill-rule="evenodd"><use fill="url(#b)" xlink:href="#a" transform="translate(3.66 6.538)"/><g transform="translate(.323)"><mask id="f" fill="#fff"><use xlink:href="#c"/></mask><use fill="url(#d)" xlink:href="#c"/><use fill="#000" filter="url(#e)" xlink:href="#c"/><g mask="url(#f)"><use fill="#000" filter="url(#g)" xlink:href="#h"/><use fill="url(#i)" xlink:href="#h"/><use fill="#000" filter="url(#j)" xlink:href="#h"/></g></g></g></svg>
