<svg width="215" height="118" viewBox="0 0 215 118" xmlns="http://www.w3.org/2000/svg" xmlns:xlink="http://www.w3.org/1999/xlink"><defs><linearGradient x1="100%" y1="50%" x2="0%" y2="50%" id="a"><stop stop-color="#A8BAFF" offset="0%"/><stop stop-color="#CFDAFF" offset="25.223%"/><stop stop-color="#CEDAFE" offset="50.09%"/><stop stop-color="#F0F4FF" offset="79.61%"/><stop stop-color="#E3E9FD" offset="100%"/></linearGradient><linearGradient x1="100%" y1="50%" x2="0%" y2="50%" id="b"><stop stop-color="#302647" offset="0%"/><stop stop-color="#ACA8B5" offset="18.224%"/><stop stop-color="#8D65E1" offset="18.25%"/><stop stop-color="#8D65E1" offset="22.314%"/><stop stop-color="#E0A716" offset="22.414%"/><stop stop-color="#E0A716" offset="25.993%"/><stop stop-color="#59516C" offset="26.007%"/><stop stop-color="#302647" offset="49.649%"/><stop stop-color="#ACA8B5" offset="100%"/></linearGradient><linearGradient x1="50%" y1="0%" x2="50%" y2="100%" id="d"><stop stop-color="#F0F4FF" offset="0%"/><stop stop-color="#F8FAFF" offset="100%"/></linearGradient><path d="M99.906 3.398l-83.52 37.448a3.087 3.087 0 0 0 0 5.634l83.52 37.447a18.525 18.525 0 0 0 15.158 0l83.52-37.447a3.087 3.087 0 0 0 0-5.634l-83.52-37.448a18.525 18.525 0 0 0-15.158 0z" id="c"/><filter x="-1.1%" y="-2.1%" width="102.1%" height="101.1%" filterUnits="objectBoundingBox" id="e"><feGaussianBlur stdDeviation=".386" in="SourceGraphic"/></filter><linearGradient x1="50%" y1="0%" x2="50%" y2="98.831%" id="h"><stop stop-color="#C0BDC7" offset="0%"/><stop stop-color="#59516C" offset="100%"/></linearGradient><path d="M59.559 3.398L6.283 27.285a3.087 3.087 0 0 0 0 5.635L59.56 56.807a18.525 18.525 0 0 0 15.157 0l53.276-23.887a3.087 3.087 0 0 0 0-5.635L74.716 3.398a18.525 18.525 0 0 0-15.157 0z" id="g"/><linearGradient x1="50%" y1="0%" x2="50%" y2="98.831%" id="i"><stop stop-color="#837D91" offset="0%"/><stop stop-color="#59516C" offset="100%"/></linearGradient></defs><g transform="translate(0 .082)" fill="none" fill-rule="evenodd"><path d="M102.003 21.168a.386.386 0 0 1 .224.738c-.72.22-1.426.486-2.116.796a.386.386 0 0 1-.315-.704c.72-.323 1.456-.6 2.207-.83zm4.645-.801a.385.385 0 0 1 .035.771c-.753.034-1.504.115-2.247.243a.386.386 0 1 1-.13-.76 18.74 18.74 0 0 1 2.342-.254zm4.698.383a.386.386 0 0 1-.158.756 17.97 17.97 0 0 0-2.237-.326.386.386 0 0 1 .062-.77c.784.065 1.563.178 2.333.34zm4.438 1.522a.386.386 0 0 1-.315.705l-.61-.275a18.003 18.003 0 0 0-1.442-.575.386.386 0 0 1 .254-.728c.508.177 1.01.377 1.502.599l.61.274zm4.212 1.895a.386.386 0 0 1-.315.704l-2.106-.947a.386.386 0 0 1 .315-.704l2.106.947zm4.213 1.894a.386.386 0 0 1-.315.705l-2.106-.948a.386.386 0 0 1 .314-.704l2.107.947zm4.212 1.895a.386.386 0 0 1-.315.704L126 27.713a.386.386 0 0 1 .315-.705l2.106.948zm4.213 1.894a.386.386 0 0 1-.315.704l-2.106-.947a.386.386 0 0 1 .314-.704l2.107.947zm4.212 1.894a.386.386 0 0 1-.315.705l-2.106-.947a.386.386 0 0 1 .315-.705l2.106.947zm4.213 1.895a.386.386 0 0 1-.315.704l-2.106-.947a.386.386 0 0 1 .314-.704l2.107.947zm4.212 1.894a.386.386 0 0 1-.315.705l-2.106-.948a.386.386 0 0 1 .315-.704l2.106.947zm4.213 1.895a.386.386 0 0 1-.315.704l-2.106-.947a.386.386 0 0 1 .314-.705l2.107.948zm4.212 1.894a.386.386 0 0 1-.315.704l-2.106-.947a.386.386 0 0 1 .315-.704l2.106.947zm4.213 1.894a.386.386 0 0 1-.315.705l-2.106-.947a.386.386 0 0 1 .314-.705l2.107.947zm4.212 1.895a.386.386 0 0 1-.315.704l-2.106-.947a.386.386 0 0 1 .315-.704l2.106.947zm4.213 1.894a.386.386 0 0 1-.315.705l-2.106-.948a.386.386 0 0 1 .314-.704l2.107.947zm4.212 1.895a.386.386 0 0 1-.315.704l-2.106-.947a.386.386 0 0 1 .315-.705l2.106.948zm4.213 1.894a.386.386 0 0 1-.315.704l-2.106-.947a.386.386 0 0 1 .314-.704l2.107.947zm4.212 1.894a.386.386 0 0 1-.315.705l-2.106-.947a.386.386 0 0 1 .315-.705l2.106.947zm4.213 1.895a.386.386 0 0 1-.315.704l-2.106-.947a.386.386 0 0 1 .314-.704l2.107.947zm4.212 1.894a.386.386 0 0 1-.315.705l-2.106-.948a.386.386 0 0 1 .315-.704l2.106.947zm4.213 1.895a.386.386 0 0 1-.315.704l-2.106-.947a.386.386 0 0 1 .314-.705l2.107.948zm4.212 1.894a.386.386 0 0 1-.315.704l-2.106-.947a.386.386 0 0 1 .315-.704l2.106.947zm4.213 1.894a.386.386 0 0 1-.315.705l-2.106-.948a.386.386 0 0 1 .314-.704l2.107.947zm4.212 1.895a.386.386 0 0 1-.315.704l-2.106-.947a.386.386 0 0 1 .315-.704l2.106.947zm4.213 1.894a.386.386 0 0 1-.315.704l-2.106-.947a.386.386 0 0 1 .314-.704l2.107.947zm4.212 1.895a.386.386 0 0 1-.315.704l-2.106-.947a.386.386 0 0 1 .315-.705l2.106.948zm2.191 4.256a.385.385 0 1 1-.738-.215 2.695 2.695 0 0 0-.207-2.013.384.384 0 1 1 .68-.362 3.48 3.48 0 0 1 .265 2.59zm-3.76 3.03a.386.386 0 0 1-.315-.704l1.874-.843c.073-.033.144-.07.213-.109a.387.387 0 0 1 .38.671c-.09.051-.18.098-.276.141l-1.877.845zm-4.213 1.895a.386.386 0 0 1-.315-.704l2.106-.948a.386.386 0 0 1 .315.704l-2.106.948zm-4.213 1.894a.386.386 0 0 1-.315-.704l2.107-.947a.386.386 0 0 1 .315.704l-2.107.947zm-4.212 1.895a.386.386 0 0 1-.315-.704l2.106-.948a.386.386 0 0 1 .315.704l-2.106.948zm-4.213 1.894a.386.386 0 0 1-.315-.704l2.107-.947a.386.386 0 0 1 .315.704l-2.107.947zm-4.212 1.895a.386.386 0 0 1-.315-.704l2.106-.948a.386.386 0 0 1 .315.704l-2.106.948zm-4.213 1.894a.386.386 0 0 1-.315-.704l2.107-.948a.386.386 0 0 1 .315.704l-2.107.948zm-4.212 1.894a.386.386 0 0 1-.315-.704l2.106-.947a.386.386 0 0 1 .315.704l-2.106.947zm-4.213 1.895a.386.386 0 0 1-.315-.704l2.107-.948a.386.386 0 0 1 .315.704l-2.107.948zm-4.212 1.894a.386.386 0 0 1-.315-.704l2.106-.947a.386.386 0 0 1 .315.704l-2.106.947zm-4.213 1.894a.386.386 0 0 1-.315-.704l2.107-.947a.386.386 0 0 1 .315.704l-2.107.947zm-4.212 1.895a.386.386 0 0 1-.315-.704l2.106-.948a.386.386 0 0 1 .315.704l-2.106.948zm-4.213 1.894a.386.386 0 0 1-.315-.704l2.107-.947a.386.386 0 0 1 .315.704l-2.107.947zm-4.212 1.895a.386.386 0 0 1-.315-.704l2.106-.948a.386.386 0 0 1 .315.704l-2.106.948zm-4.213 1.894a.386.386 0 0 1-.315-.704l2.107-.947a.386.386 0 0 1 .315.704l-2.107.947zm-4.212 1.894a.386.386 0 0 1-.315-.704l2.107-.947a.386.386 0 0 1 .315.704l-2.107.947zm-4.213 1.895a.386.386 0 0 1-.315-.704l2.107-.948a.386.386 0 0 1 .315.704l-2.107.948zm-4.212 1.894a.386.386 0 0 1-.315-.704l2.107-.947a.386.386 0 0 1 .315.704l-2.107.947zm-4.212 1.895a.386.386 0 0 1-.315-.704l2.106-.948a.386.386 0 0 1 .315.704l-2.106.948zm-4.213 1.894a.386.386 0 0 1-.315-.704l2.107-.947a.386.386 0 0 1 .315.704l-2.107.947zm-4.212 1.894a.386.386 0 0 1-.315-.704l2.106-.947a.386.386 0 0 1 .315.704l-2.106.947zm-4.213 1.895a.386.386 0 0 1-.315-.704l2.107-.948a.386.386 0 0 1 .315.704l-2.107.948zm-4.212 1.894a.386.386 0 0 1-.315-.704l2.106-.947a.386.386 0 0 1 .315.704l-2.106.947zm-4.245 1.875a.386.386 0 0 1-.274-.721c.32-.122.637-.254.95-.395l1.148-.516a.386.386 0 0 1 .315.704l-1.148.516c-.326.147-.657.285-.99.412zm-4.573 1.117a.385.385 0 0 1-.087-.767 17.968 17.968 0 0 0 2.225-.396.386.386 0 0 1 .182.75c-.765.186-1.54.324-2.32.413zm-4.711-.059a.386.386 0 0 1 .106-.764c.747.104 1.5.161 2.253.17a.385.385 0 0 1-.01.772c-.786-.01-1.57-.069-2.35-.178zm-4.583-1.246a.386.386 0 0 1 .293-.714c.699.29 1.413.534 2.14.732a.386.386 0 0 1-.203.745 18.75 18.75 0 0 1-2.23-.763zm-4.194-1.877a.386.386 0 0 1 .315-.704l2.106.947a.386.386 0 0 1-.315.704l-2.106-.947zm-4.213-1.894a.386.386 0 0 1 .315-.705l2.106.948a.386.386 0 0 1-.314.704l-2.107-.947zm-4.212-1.895a.386.386 0 0 1 .315-.704l2.106.947a.386.386 0 0 1-.315.705l-2.106-.948zm-4.213-1.894a.386.386 0 0 1 .315-.704l2.106.947a.386.386 0 0 1-.314.704l-2.107-.947zm-4.212-1.894a.386.386 0 0 1 .315-.705l2.106.947a.386.386 0 0 1-.315.705l-2.106-.947zm-4.213-1.895a.386.386 0 0 1 .315-.704l2.106.947a.386.386 0 0 1-.314.704l-2.107-.947zm-4.212-1.894a.386.386 0 0 1 .315-.705l2.106.948a.386.386 0 0 1-.315.704l-2.106-.947zm-4.213-1.895a.386.386 0 0 1 .315-.704l2.106.947a.386.386 0 0 1-.314.705l-2.107-.948zm-4.212-1.894a.386.386 0 0 1 .315-.704l2.106.947a.386.386 0 0 1-.315.704l-2.106-.947zm-4.213-1.894a.386.386 0 0 1 .315-.705l2.106.947a.386.386 0 0 1-.314.705l-2.107-.947zm-4.212-1.895a.386.386 0 0 1 .315-.704l2.106.947a.386.386 0 0 1-.315.704l-2.106-.947zm-4.213-1.894a.386.386 0 0 1 .315-.705l2.106.948a.386.386 0 0 1-.314.704l-2.107-.947zm-4.212-1.895a.386.386 0 0 1 .315-.704l2.106.947a.386.386 0 0 1-.315.705l-2.106-.948zm-4.213-1.894a.386.386 0 0 1 .315-.704l2.106.947a.386.386 0 0 1-.314.704l-2.107-.947zm-4.212-1.894a.386.386 0 0 1 .315-.705l2.106.947a.386.386 0 0 1-.315.705l-2.106-.947zM32.933 86.2a.386.386 0 0 1 .315-.704l2.106.947a.386.386 0 0 1-.314.704l-2.107-.947zm-4.212-1.894a.386.386 0 0 1 .315-.705l2.106.948a.386.386 0 0 1-.315.704l-2.106-.947zm-4.212-1.895a.386.386 0 0 1 .314-.704l2.106.947a.386.386 0 0 1-.314.705l-2.106-.948zm-4.213-1.894a.386.386 0 0 1 .315-.704l2.106.947a.386.386 0 0 1-.315.704l-2.106-.947zm-4.212-1.894a.386.386 0 0 1 .314-.705l2.106.947a.386.386 0 0 1-.314.705l-2.106-.947zm-4.213-1.895a.386.386 0 0 1 .315-.704l2.106.947a.386.386 0 0 1-.315.704l-2.106-.947zm-4.212-1.894a.386.386 0 0 1 .314-.704l2.107.947a.386.386 0 0 1-.315.704l-2.106-.947zM3.446 72.94a.386.386 0 0 1 .315-.704l2.106.947a.386.386 0 0 1-.315.705l-2.106-.948zM.004 69.62a.385.385 0 0 1 .762-.108 2.69 2.69 0 0 0 1.009 1.747.387.387 0 0 1 .067.54.384.384 0 0 1-.54.068 3.466 3.466 0 0 1-1.298-2.248zm2.717-3.966a.386.386 0 0 1 .315.704l-.766.345a2.67 2.67 0 0 0-1.027.86.384.384 0 0 1-.536.09.387.387 0 0 1-.09-.539 3.447 3.447 0 0 1 1.33-1.111l.774-.35zm4.213-1.895a.386.386 0 0 1 .315.704l-2.106.948a.386.386 0 0 1-.315-.704l2.106-.948zm4.213-1.894a.386.386 0 0 1 .315.704l-2.107.947a.386.386 0 0 1-.315-.704l2.107-.947zm4.212-1.895a.386.386 0 0 1 .315.704l-2.106.948a.386.386 0 0 1-.315-.704l2.106-.948zm4.213-1.894a.386.386 0 0 1 .315.704l-2.107.947a.386.386 0 0 1-.315-.704l2.107-.947zm4.212-1.895a.386.386 0 0 1 .315.704l-2.106.948a.386.386 0 0 1-.315-.704l2.106-.948zm4.213-1.894a.386.386 0 0 1 .315.704l-2.107.948a.386.386 0 0 1-.315-.704l2.107-.948zm4.212-1.894a.386.386 0 0 1 .315.704l-2.106.947a.386.386 0 0 1-.315-.704l2.106-.947zm4.213-1.895a.386.386 0 0 1 .315.704l-2.107.948a.386.386 0 0 1-.315-.704l2.107-.948zm4.212-1.894a.386.386 0 0 1 .315.704l-2.106.947a.386.386 0 0 1-.315-.704l2.106-.947zm4.213-1.894a.386.386 0 0 1 .315.704l-2.107.947a.386.386 0 0 1-.315-.704l2.107-.947zm4.212-1.895a.386.386 0 0 1 .315.704l-2.106.948a.386.386 0 0 1-.315-.704l2.106-.948zm4.213-1.894a.386.386 0 0 1 .315.704l-2.107.947a.386.386 0 0 1-.315-.704l2.107-.947zm4.212-1.895a.386.386 0 0 1 .315.704l-2.106.948a.386.386 0 0 1-.315-.704l2.106-.948zm4.213-1.894a.386.386 0 0 1 .315.704l-2.107.947a.386.386 0 0 1-.315-.704l2.107-.947zm4.212-1.894a.386.386 0 0 1 .315.704l-2.106.947a.386.386 0 0 1-.315-.704l2.106-.947zm4.213-1.895a.386.386 0 0 1 .315.704l-2.107.948a.386.386 0 0 1-.315-.704l2.107-.948zm4.212-1.894a.386.386 0 0 1 .315.704l-2.106.947a.386.386 0 0 1-.315-.704l2.106-.947zm4.213-1.895a.386.386 0 0 1 .315.704l-2.107.948a.386.386 0 0 1-.315-.704l2.107-.948zm4.212-1.894a.386.386 0 0 1 .315.704l-2.106.947a.386.386 0 0 1-.315-.704l2.106-.947zm4.213-1.894a.386.386 0 0 1 .315.704l-2.107.947a.386.386 0 0 1-.315-.704l2.107-.947zm4.212-1.895a.386.386 0 0 1 .315.704l-2.106.948a.386.386 0 0 1-.315-.704l2.106-.948zm4.213-1.894a.386.386 0 0 1 .315.704l-2.107.947a.386.386 0 0 1-.315-.704l2.107-.947zm4.212-1.895a.386.386 0 0 1 .315.704l-2.106.948a.386.386 0 0 1-.315-.704l2.106-.948z" fill-opacity=".16" fill="#302647" fill-rule="nonzero"/><path d="M99.906 25.782a18.525 18.525 0 0 1 15.158 0l39.88 17.88h45.44l.002 22.01a3.089 3.089 0 0 1-1.803 3.192l-83.519 37.447a18.525 18.525 0 0 1-15.158 0l-83.52-37.447a3.087 3.087 0 0 1-1.757-3.455V43.663h45.397z" fill="url(#a)"/><path d="M14.833 54.188c.31.691.863 1.244 1.554 1.554l83.52 37.448a18.525 18.525 0 0 0 15.157 0l83.52-37.448a3.086 3.086 0 0 0 1.802-2.45v3.119a3.09 3.09 0 0 1-1.626 3.105l-.177.086-83.519 37.447a18.525 18.525 0 0 1-14.754.175l-.404-.175-83.52-37.447a3.087 3.087 0 0 1-1.82-2.984V53.09c.02.369.107.74.267 1.098z" fill="url(#b)"/><mask id="f" fill="#fff"><use xlink:href="#c"/></mask><use fill="url(#d)" xlink:href="#c"/><path d="M174.909 30.233l-15.123 6.91.223 13.146-45.263 20.237a17.753 17.753 0 0 1-14.492 0L66.451 55.413l50.897-22.556L153.11 19.1l21.798 11.132z" fill-opacity=".1" fill="#302647" filter="url(#e)" mask="url(#f)"/><g mask="url(#f)"><g transform="translate(40.347 13.56)"><mask id="j" fill="#fff"><use xlink:href="#g"/></mask><use fill="url(#h)" xlink:href="#g"/><path d="M59.559 18.835L6.283 42.722a3.087 3.087 0 0 0 0 5.635L59.56 72.244a18.525 18.525 0 0 0 15.157 0l53.276-23.887a3.087 3.087 0 0 0 0-5.635L74.716 18.835a18.525 18.525 0 0 0-15.157 0z" fill="url(#i)" mask="url(#j)"/><path fill-opacity=".1" fill="#302647" mask="url(#j)" d="M134.561 16.673l-15.122 6.91.223 13.146-52.51 23.476-41.048-18.353L77 19.296l42.125-15.463z"/></g></g></g></svg>
