<svg width="200" height="160" viewBox="0 0 200 160" xmlns="http://www.w3.org/2000/svg" xmlns:xlink="http://www.w3.org/1999/xlink"><defs><rect id="a" width="200" height="160" rx="2"/><rect id="c" width="180" height="132" rx="2"/><filter x="-3.6%" y="-4.2%" width="107.2%" height="109.8%" filterUnits="objectBoundingBox" id="d"><feOffset dy="1" in="SourceAlpha" result="shadowOffsetOuter1"/><feGaussianBlur stdDeviation="2" in="shadowOffsetOuter1" result="shadowBlurOuter1"/><feColorMatrix values="0 0 0 0 0.188235294 0 0 0 0 0.149019608 0 0 0 0 0.278431373 0 0 0 0.16 0" in="shadowBlurOuter1"/></filter></defs><g fill="none" fill-rule="evenodd"><mask id="b" fill="#fff"><use xlink:href="#a"/></mask><use fill-opacity=".06" fill="#302647" xlink:href="#a"/><g mask="url(#b)"><g transform="translate(10 20)"><mask id="e" fill="#fff"><use xlink:href="#c"/></mask><use fill="#000" filter="url(#d)" xlink:href="#c"/><use fill="#FFF" xlink:href="#c"/><g mask="url(#e)"><path d="M142 0h48v48h-48z"/><path d="M166.1 4.058l17.12 9.884a.2.2 0 0 1 .1.173v19.77a.2.2 0 0 1-.1.173l-17.12 9.884a.2.2 0 0 1-.2 0l-17.12-9.884a.2.2 0 0 1-.1-.173v-19.77a.2.2 0 0 1 .1-.173l17.12-9.884a.2.2 0 0 1 .2 0zm6.607 12.164a1 1 0 0 0-1.414 0l-1.414 1.414a1 1 0 0 0 0 1.414l4.95 4.95-4.95 4.95a1 1 0 0 0 0 1.414l1.414 1.414a1 1 0 0 0 1.414 0l7.071-7.07a1 1 0 0 0 0-1.415zm-13.414 0l-7.071 7.07a1 1 0 0 0 0 1.415l7.07 7.071a1 1 0 0 0 1.415 0l1.414-1.414a1 1 0 0 0 0-1.414L157.172 24l4.95-4.95a1 1 0 0 0 0-1.414l-1.415-1.414a1 1 0 0 0-1.414 0z" fill-opacity=".04" fill="#302647"/></g></g></g><circle fill="#1890FF" cx="54" cy="46" r="4"/><path fill-opacity=".06" fill="#302647" d="M53 52h2v32h-2zM53 96h2v18h-2z"/><circle fill="#1890FF" cx="54" cy="90" r="4"/><circle fill="#1890FF" cx="54" cy="120" r="4"/><path fill-opacity=".2" fill="#302647" d="M18 28h32v10H18z"/><path fill-opacity=".16" fill="#302647" d="M63 42h24v8H63zM63 86h24v8H63zM63 116h24v8H63z"/><path fill-opacity=".06" fill="#302647" d="M63 70h88v6H63zM63 96h88v6H63zM63 126h88v6H63z"/><rect fill-opacity=".1" fill="#A051FF" x="63" y="52" width="16" height="16" rx="2"/><rect fill-opacity=".1" fill="#A051FF" x="87" y="52" width="16" height="16" rx="2"/><rect fill-opacity=".1" fill="#A051FF" x="111" y="52" width="16" height="16" rx="2"/><rect fill="#A051FF" x="135" y="52" width="16" height="16" rx="2"/><g fill="#FFF"><path fill="none" d="M137.667 54.667h10.667v10.667h-10.667z"/><path d="M139.344 59.416a.444.444 0 0 1 .628 0l2.2 2.2 4.086-4.085a.444.444 0 1 1 .628.628l-4.4 4.4a.444.444 0 0 1-.628 0l-2.514-2.514a.444.444 0 0 1 0-.629z"/></g><path fill="#302647" d="M63 136h20v8H63z"/><path d="M2 0h196a2 2 0 0 1 2 2v10H0V2a2 2 0 0 1 2-2z" fill-opacity=".06" fill="#302647"/><circle fill-opacity=".8" fill="#FFF" cx="9" cy="6" r="2"/><circle fill-opacity=".8" fill="#FFF" cx="15" cy="6" r="2"/><circle fill-opacity=".8" fill="#FFF" cx="21" cy="6" r="2"/></g></svg>
