<svg width="200" height="160" viewBox="0 0 200 160" xmlns="http://www.w3.org/2000/svg" xmlns:xlink="http://www.w3.org/1999/xlink"><defs><rect id="a" width="200" height="160" rx="2"/><rect id="c" width="180" height="132" rx="2"/><filter x="-3.6%" y="-4.2%" width="107.2%" height="109.8%" filterUnits="objectBoundingBox" id="d"><feOffset dy="1" in="SourceAlpha" result="shadowOffsetOuter1"/><feGaussianBlur stdDeviation="2" in="shadowOffsetOuter1" result="shadowBlurOuter1"/><feColorMatrix values="0 0 0 0 0.188235294 0 0 0 0 0.149019608 0 0 0 0 0.278431373 0 0 0 0.16 0" in="shadowBlurOuter1"/></filter></defs><g fill="none" fill-rule="evenodd"><mask id="b" fill="#fff"><use xlink:href="#a"/></mask><use fill-opacity=".06" fill="#302647" xlink:href="#a"/><g mask="url(#b)"><g transform="translate(10 20)"><mask id="e" fill="#fff"><use xlink:href="#c"/></mask><use fill="#000" filter="url(#d)" xlink:href="#c"/><use fill="#FFF" xlink:href="#c"/><g mask="url(#e)"><path d="M142 0h48v48h-48z"/><path d="M148.913 40a1 1 0 0 1-.996-.91l-1.818-20a1 1 0 0 1 .996-1.09h37.81a1 1 0 0 1 .996 1.09l-1.818 20a1 1 0 0 1-.996.91h-34.174zm10.673-32a1 1 0 0 1 .707.293l3.414 3.414a1 1 0 0 0 .707.293H183a1 1 0 0 1 1 1v3h-36V9a1 1 0 0 1 1-1h10.586z" fill-opacity=".04" fill="#302647"/></g></g></g><circle fill="#27C99A" cx="54" cy="46" r="4"/><path fill-opacity=".06" fill="#302647" d="M53 52h2v38h-2zM53 102h2v12h-2z"/><circle fill="#27C99A" cx="54" cy="96" r="4"/><circle fill="#27C99A" cx="54" cy="120" r="4"/><path fill-opacity=".2" fill="#302647" d="M18 28h32v10H18z"/><path fill-opacity=".16" fill="#302647" d="M63 42h24v8H63zM63 92h24v8H63zM63 116h24v8H63z"/><path fill-opacity=".06" fill="#302647" d="M63 78h88v6H63zM63 102h88v6H63zM63 126h88v6H63z"/><rect fill-opacity=".1" fill="#A051FF" x="63" y="52" width="24" height="24" rx="2"/><rect fill="#A051FF" x="95" y="52" width="24" height="24" rx="2"/><g fill="#FFF"><path fill="none" d="M99 56h16v16H99z"/><path d="M101.516 63.125c.26-.26.682-.26.943 0l3.299 3.3 6.129-6.129a.667.667 0 0 1 .942.943l-6.6 6.6a.667.667 0 0 1-.942 0l-3.771-3.772a.667.667 0 0 1 0-.942z"/></g><path fill="#302647" d="M63 136h20v8H63z"/><path d="M2 0h196a2 2 0 0 1 2 2v10H0V2a2 2 0 0 1 2-2z" fill-opacity=".06" fill="#302647"/><circle fill-opacity=".8" fill="#FFF" cx="9" cy="6" r="2"/><circle fill-opacity=".8" fill="#FFF" cx="15" cy="6" r="2"/><circle fill-opacity=".8" fill="#FFF" cx="21" cy="6" r="2"/></g></svg>
