<svg width="96" height="96" viewBox="0 0 96 96" xmlns="http://www.w3.org/2000/svg" xmlns:xlink="http://www.w3.org/1999/xlink"><defs><rect id="b" width="80" height="64" rx="2"/><filter x="-8.1%" y="-8.6%" width="116.2%" height="120.3%" filterUnits="objectBoundingBox" id="a"><feOffset dy="1" in="SourceAlpha" result="shadowOffsetOuter1"/><feGaussianBlur stdDeviation="2" in="shadowOffsetOuter1" result="shadowBlurOuter1"/><feColorMatrix values="0 0 0 0 0.188235294 0 0 0 0 0.149019608 0 0 0 0 0.278431373 0 0 0 0.16 0" in="shadowBlurOuter1"/></filter><rect id="d" width="72" height="20" rx="2"/><filter x="-9%" y="-27.5%" width="118.1%" height="165%" filterUnits="objectBoundingBox" id="c"><feOffset dy="1" in="SourceAlpha" result="shadowOffsetOuter1"/><feGaussianBlur stdDeviation="2" in="shadowOffsetOuter1" result="shadowBlurOuter1"/><feColorMatrix values="0 0 0 0 0.188235294 0 0 0 0 0.149019608 0 0 0 0 0.278431373 0 0 0 0.16 0" in="shadowBlurOuter1"/></filter></defs><g fill="none" fill-rule="evenodd"><path d="M0 0h96v96H0z"/><g transform="translate(8 16)"><use fill="#000" filter="url(#a)" xlink:href="#b"/><use fill="#FFF" xlink:href="#b"/></g><g transform="translate(12 20)"><rect stroke-opacity=".04" stroke="#302647" x=".5" y=".5" width="71" height="19" rx="2"/><g transform="translate(59 6)"><circle fill="#DEDCE1" cx="4" cy="4" r="4"/><path d="M4 4.97a1.7 1.7 0 0 1 .39.06l.42.11c.07.018.137.032.203.043L5.2 5.2c.47 0 .88.32.994.776l.29 1.16A3.983 3.983 0 0 1 4 8c-.938 0-1.8-.323-2.483-.864l.289-1.16c.105-.418.458-.722.878-.77L2.8 5.2c.305 0 .895-.23 1.2-.23zm.994 1.1h-.215l-.072.423-.054-.04-.058-.032a.39.39 0 0 0-.147-.026.432.432 0 0 0-.304.109.238.238 0 0 0-.076.103.98.98 0 0 0-.054.213.894.894 0 0 0-.02.21c.003.046.016.081.041.107a.28.28 0 0 0 .107.077.481.481 0 0 0 .452-.066l-.015.088h.194c.013.027.032.05.058.072.06.057.155.086.285.087a.594.594 0 0 0 .188-.025.27.27 0 0 0 .117-.073l-.014.086h.233l.106-.666.004-.068c-.001-.084-.034-.145-.097-.185a.649.649 0 0 0-.338-.07.572.572 0 0 0-.4.132l.079-.457zm-1.656 0H2.61l-.153 1.166h.727l.022-.168h-.554l.044-.342h.474l.02-.157h-.473l.043-.333h.555l.022-.167zm.482.325a.31.31 0 0 0-.227.098l.012-.088h-.163l-.109.83h.163l.066-.5.013-.055a.162.162 0 0 1 .056-.076.171.171 0 0 1 .112-.042c.037 0 .07.014.102.042l.137-.145-.046-.035a.24.24 0 0 0-.116-.03zm1.653.575l-.012.07-.016.065a.134.134 0 0 1-.06.076.508.508 0 0 1-.211.03c-.078 0-.13-.013-.16-.04-.031-.022-.044-.05-.04-.084.011-.076.085-.115.22-.117h.279zm-.989-.408c.051 0 .09.008.116.023a.1.1 0 0 1 .05.061c.01.025.014.052.014.082a2.043 2.043 0 0 1-.03.181.306.306 0 0 1-.043.084.163.163 0 0 1-.071.06.279.279 0 0 1-.124.025.218.218 0 0 1-.112-.022.12.12 0 0 1-.055-.06.229.229 0 0 1-.01-.084.682.682 0 0 1 .032-.19.3.3 0 0 1 .04-.08.181.181 0 0 1 .074-.06.29.29 0 0 1 .12-.02zm.427-.017l.155.11.041-.036.05-.024a.523.523 0 0 1 .14-.015c.16-.002.233.04.218.125l-.017.103h-.322l-.088.006a.428.428 0 0 0-.206.078l-.035.031.064-.378zM5.6 2.4v.8a1.6 1.6 0 1 1-3.2 0v-.8c.71.2 1.244.3 1.6.3.356 0 .89-.1 1.6-.3z" fill-opacity=".4" fill="#302647"/></g><g fill="#302647"><path fill-opacity=".2" d="M7 6h14v4H7z"/><path fill-opacity=".06" d="M7 12h24v2H7z"/></g></g><g transform="translate(12 43)"><use fill="#000" filter="url(#c)" xlink:href="#d"/><use fill="#FFF" xlink:href="#d"/></g><g transform="translate(71 49)"><circle fill="#DEDCE1" cx="4" cy="4" r="4"/><path d="M4 4.97a1.7 1.7 0 0 1 .39.06l.42.11c.07.018.137.032.203.043L5.2 5.2c.47 0 .88.32.994.776l.29 1.16A3.983 3.983 0 0 1 4 8c-.938 0-1.8-.323-2.483-.864l.289-1.16c.105-.418.458-.722.878-.77L2.8 5.2c.305 0 .895-.23 1.2-.23zm.994 1.1h-.215l-.072.423-.054-.04-.058-.032a.39.39 0 0 0-.147-.026.432.432 0 0 0-.304.109.238.238 0 0 0-.076.103.98.98 0 0 0-.054.213.894.894 0 0 0-.02.21c.003.046.016.081.041.107a.28.28 0 0 0 .107.077.481.481 0 0 0 .452-.066l-.015.088h.194c.013.027.032.05.058.072.06.057.155.086.285.087a.594.594 0 0 0 .188-.025.27.27 0 0 0 .117-.073l-.014.086h.233l.106-.666.004-.068c-.001-.084-.034-.145-.097-.185a.649.649 0 0 0-.338-.07.572.572 0 0 0-.4.132l.079-.457zm-1.656 0H2.61l-.153 1.166h.727l.022-.168h-.554l.044-.342h.474l.02-.157h-.473l.043-.333h.555l.022-.167zm.482.325a.31.31 0 0 0-.227.098l.012-.088h-.163l-.109.83h.163l.066-.5.013-.055a.162.162 0 0 1 .056-.076.171.171 0 0 1 .112-.042c.037 0 .07.014.102.042l.137-.145-.046-.035a.24.24 0 0 0-.116-.03zm1.653.575l-.012.07-.016.065a.134.134 0 0 1-.06.076.508.508 0 0 1-.211.03c-.078 0-.13-.013-.16-.04-.031-.022-.044-.05-.04-.084.011-.076.085-.115.22-.117h.279zm-.989-.408c.051 0 .09.008.116.023a.1.1 0 0 1 .05.061c.01.025.014.052.014.082a2.043 2.043 0 0 1-.03.181.306.306 0 0 1-.043.084.163.163 0 0 1-.071.06.279.279 0 0 1-.124.025.218.218 0 0 1-.112-.022.12.12 0 0 1-.055-.06.229.229 0 0 1-.01-.084.682.682 0 0 1 .032-.19.3.3 0 0 1 .04-.08.181.181 0 0 1 .074-.06.29.29 0 0 1 .12-.02zm.427-.017l.155.11.041-.036.05-.024a.523.523 0 0 1 .14-.015c.16-.002.233.04.218.125l-.017.103h-.322l-.088.006a.428.428 0 0 0-.206.078l-.035.031.064-.378zM5.6 2.4v.8a1.6 1.6 0 1 1-3.2 0v-.8c.71.2 1.244.3 1.6.3.356 0 .89-.1 1.6-.3z" fill-opacity=".4" fill="#302647"/></g><path d="M15.5 54.5a1.5 1.5 0 1 0 0-3 1.5 1.5 0 0 0 0 3z" fill="#D84B65"/><path fill="#A051FF" d="M19 49h14v4H19z"/><path fill-opacity=".06" fill="#302647" d="M19 55h19v2H19z"/></g></svg>