<svg width="208" height="168" viewBox="0 0 208 168" xmlns="http://www.w3.org/2000/svg" xmlns:xlink="http://www.w3.org/1999/xlink"><defs><rect id="b" width="200" height="160" rx="5"/><filter x="-3.2%" y="-3.4%" width="106.5%" height="108.1%" filterUnits="objectBoundingBox" id="a"><feOffset dy="1" in="SourceAlpha" result="shadowOffsetOuter1"/><feGaussianBlur stdDeviation="2" in="shadowOffsetOuter1" result="shadowBlurOuter1"/><feColorMatrix values="0 0 0 0 0.188235294 0 0 0 0 0.149019608 0 0 0 0 0.278431373 0 0 0 0.16 0" in="shadowBlurOuter1"/></filter><rect id="c" width="20" height="20" rx="10"/><rect id="f" width="180" height="50" rx="5"/><filter x="-3.6%" y="-11%" width="107.2%" height="126%" filterUnits="objectBoundingBox" id="e"><feOffset dy="1" in="SourceAlpha" result="shadowOffsetOuter1"/><feGaussianBlur stdDeviation="2" in="shadowOffsetOuter1" result="shadowBlurOuter1"/><feColorMatrix values="0 0 0 0 0.188235294 0 0 0 0 0.149019608 0 0 0 0 0.278431373 0 0 0 0.16 0" in="shadowBlurOuter1"/></filter><rect id="g" width="20" height="20" rx="10"/></defs><g fill="none" fill-rule="evenodd"><g transform="translate(4 3)"><use fill="#000" filter="url(#a)" xlink:href="#b"/><use fill="#FFF" xlink:href="#b"/></g><g transform="translate(14 13)"><rect stroke-opacity=".08" stroke="#302647" x=".5" y=".5" width="179" height="49" rx="5"/><g transform="translate(147.5 15)"><mask id="d" fill="#fff"><use xlink:href="#c"/></mask><use fill="#DEDCE1" xlink:href="#c"/><path d="M10 12.427c.788 0 1.845.453 2.693.553L13 13c1.184 0 2.224.785 2.55 1.923L17 20H3l1.45-5.077a2.652 2.652 0 0 1 2.374-1.917L7 13c.762 0 2.238-.573 3-.573zm1.889 2.746h-.409l-.138 1.06-.068-.069a.922.922 0 0 0-.145-.11.588.588 0 0 0-.28-.067c-.249.007-.441.097-.579.272a.61.61 0 0 0-.145.258c-.036.105-.07.283-.103.532a2.917 2.917 0 0 0-.036.528c.004.112.03.2.077.266a.6.6 0 0 0 .508.27.785.785 0 0 0 .557-.242l-.029.218h.408l.382-2.916zm.977.814c-.301-.005-.543.096-.725.304l.288.25.046-.054a.345.345 0 0 1 .115-.074.764.764 0 0 1 .244-.032c.28-.005.408.083.381.266l-.028.218h-.564l-.125.008a.69.69 0 0 0-.616.606.516.516 0 0 0 .135.45c.106.12.273.181.499.184a.871.871 0 0 0 .331-.052.474.474 0 0 0 .204-.156l-.024.184h.408l.186-1.418.008-.12c.002-.19-.055-.33-.17-.416-.14-.101-.337-.15-.593-.148zm-4.521-.814H6.527l-.382 2.916h1.819l.054-.418H6.632l.111-.856h1.184l.051-.392H6.795l.109-.832H8.29l.055-.418zm1.206.814a.773.773 0 0 0-.567.246l.028-.22h-.408l-.271 2.076h.408l.163-1.25.018-.086c.03-.108.08-.19.154-.244a.428.428 0 0 1 .282-.104c.092 0 .177.035.254.104l.344-.362-.068-.056a.586.586 0 0 0-.337-.104zm3.591 1.222l-.02.15-.015.087c-.024.107-.064.178-.12.213-.076.044-.199.065-.369.062-.135 0-.229-.027-.28-.082a.196.196 0 0 1-.069-.18c.019-.161.147-.245.385-.25h.488zm-2.223-.804c.096 0 .17.02.22.058.052.039.084.09.096.152.018.063.027.13.026.204a6.61 6.61 0 0 1-.059.454.878.878 0 0 1-.08.21.353.353 0 0 1-.135.152.425.425 0 0 1-.237.06c-.096 0-.167-.019-.213-.056a.286.286 0 0 1-.104-.148.74.74 0 0 1-.02-.212 2.221 2.221 0 0 1 .06-.472.866.866 0 0 1 .076-.204.381.381 0 0 1 .143-.148.439.439 0 0 1 .227-.05zM14 6v2a4 4 0 1 1-8 0V6c1.777.5 3.11.75 4 .75.89 0 2.223-.25 4-.75z" fill-opacity=".4" fill="#302647" mask="url(#d)"/></g><g fill="#302647"><path fill-opacity=".2" d="M17.5 15h35v10h-35z"/><path fill-opacity=".06" d="M17.5 30h60v5h-60z"/></g></g><g transform="translate(14 70.5)"><use fill="#000" filter="url(#e)" xlink:href="#f"/><use fill="#FFF" xlink:href="#f"/></g><g transform="translate(161.5 85.5)"><mask id="h" fill="#fff"><use xlink:href="#g"/></mask><use fill="#DEDCE1" xlink:href="#g"/><path d="M10 12.427c.788 0 1.845.453 2.693.553L13 13c1.184 0 2.224.785 2.55 1.923L17 20H3l1.45-5.077a2.652 2.652 0 0 1 2.374-1.917L7 13c.762 0 2.238-.573 3-.573zm1.889 2.746h-.409l-.138 1.06-.068-.069a.922.922 0 0 0-.145-.11.588.588 0 0 0-.28-.067c-.249.007-.441.097-.579.272a.61.61 0 0 0-.145.258c-.036.105-.07.283-.103.532a2.917 2.917 0 0 0-.036.528c.004.112.03.2.077.266a.6.6 0 0 0 .508.27.785.785 0 0 0 .557-.242l-.029.218h.408l.382-2.916zm.977.814c-.301-.005-.543.096-.725.304l.288.25.046-.054a.345.345 0 0 1 .115-.074.764.764 0 0 1 .244-.032c.28-.005.408.083.381.266l-.028.218h-.564l-.125.008a.69.69 0 0 0-.616.606.516.516 0 0 0 .135.45c.106.12.273.181.499.184a.871.871 0 0 0 .331-.052.474.474 0 0 0 .204-.156l-.024.184h.408l.186-1.418.008-.12c.002-.19-.055-.33-.17-.416-.14-.101-.337-.15-.593-.148zm-4.521-.814H6.527l-.382 2.916h1.819l.054-.418H6.632l.111-.856h1.184l.051-.392H6.795l.109-.832H8.29l.055-.418zm1.206.814a.773.773 0 0 0-.567.246l.028-.22h-.408l-.271 2.076h.408l.163-1.25.018-.086c.03-.108.08-.19.154-.244a.428.428 0 0 1 .282-.104c.092 0 .177.035.254.104l.344-.362-.068-.056a.586.586 0 0 0-.337-.104zm3.591 1.222l-.02.15-.015.087c-.024.107-.064.178-.12.213-.076.044-.199.065-.369.062-.135 0-.229-.027-.28-.082a.196.196 0 0 1-.069-.18c.019-.161.147-.245.385-.25h.488zm-2.223-.804c.096 0 .17.02.22.058.052.039.084.09.096.152.018.063.027.13.026.204a6.61 6.61 0 0 1-.059.454.878.878 0 0 1-.08.21.353.353 0 0 1-.135.152.425.425 0 0 1-.237.06c-.096 0-.167-.019-.213-.056a.286.286 0 0 1-.104-.148.74.74 0 0 1-.02-.212 2.221 2.221 0 0 1 .06-.472.866.866 0 0 1 .076-.204.381.381 0 0 1 .143-.148.439.439 0 0 1 .227-.05zM14 6v2a4 4 0 1 1-8 0V6c1.777.5 3.11.75 4 .75.89 0 2.223-.25 4-.75z" fill-opacity=".4" fill="#302647" mask="url(#h)"/></g><path d="M22.75 99.25a3.75 3.75 0 1 0 0-7.5 3.75 3.75 0 0 0 0 7.5z" fill="#D84B65"/><g><path fill="#A051FF" d="M31.5 85.5h35v10h-35z"/><path fill-opacity=".06" fill="#302647" d="M31.5 100.5H79v5H31.5z"/></g></g></svg>