<svg width="208" height="168" viewBox="0 0 208 168" xmlns="http://www.w3.org/2000/svg" xmlns:xlink="http://www.w3.org/1999/xlink"><defs><rect id="b" width="200" height="160" rx="2"/><filter x="-3.2%" y="-3.4%" width="106.5%" height="108.1%" filterUnits="objectBoundingBox" id="a"><feOffset dy="1" in="SourceAlpha" result="shadowOffsetOuter1"/><feGaussianBlur stdDeviation="2" in="shadowOffsetOuter1" result="shadowBlurOuter1"/><feColorMatrix values="0 0 0 0 0.188235294 0 0 0 0 0.149019608 0 0 0 0 0.278431373 0 0 0 0.16 0" in="shadowBlurOuter1"/></filter></defs><g transform="translate(4 3)" fill="none" fill-rule="evenodd"><use fill="#000" filter="url(#a)" xlink:href="#b"/><use fill="#FFF" xlink:href="#b"/><path fill="#302647" d="M20 133h36v12H20z"/><rect fill-opacity=".06" fill="#302647" x="20" y="20" width="160" height="84" rx="2"/><path d="M84 33h32v32H84z"/><path d="M111 58.333a1 1 0 0 1 1 1V60a1 1 0 0 1-1 1H89a1 1 0 0 1-1-1v-.667a1 1 0 0 1 1-1h22zm-10.293-20.626l6.128 6.128a1 1 0 0 1 0 1.415l-.471.471a1 1 0 0 1-1.414 0l-3.617-3.618v11.23a1 1 0 0 1-1 1h-.666a1 1 0 0 1-1-1l-.001-11.229-3.616 3.617a1 1 0 0 1-1.414 0l-.471-.471a1 1 0 0 1 0-1.415l6.128-6.128a1 1 0 0 1 1.414 0z" fill-opacity=".4" fill="#302647"/><g fill="#302647"><path fill-opacity=".3" d="M78 69h44v10H78z"/><path fill-opacity=".06" d="M85 81h30v9.091H85z"/></g><rect fill="#27C99A" x="20" y="113" width="160" height="10" rx="5"/></g></svg>
