<svg width="156" height="80" viewBox="0 0 156 80" xmlns="http://www.w3.org/2000/svg" xmlns:xlink="http://www.w3.org/1999/xlink"><defs><path id="b" d="M304 82h1112v1037H304z"/><filter x="-.6%" y="-.5%" width="101.3%" height="101.4%" filterUnits="objectBoundingBox" id="a"><feOffset dy="2" in="SourceAlpha" result="shadowOffsetOuter1"/><feGaussianBlur stdDeviation="2" in="shadowOffsetOuter1" result="shadowBlurOuter1"/><feColorMatrix values="0 0 0 0 0.333333333 0 0 0 0 0.301960784 0 0 0 0 0.407843137 0 0 0 0.08 0" in="shadowBlurOuter1"/></filter><rect id="c" width="1080" height="178" rx="2"/><filter x="-.6%" y="-2.8%" width="101.3%" height="107.9%" filterUnits="objectBoundingBox" id="d"><feOffset dy="2" in="SourceAlpha" result="shadowOffsetOuter1"/><feGaussianBlur stdDeviation="2" in="shadowOffsetOuter1" result="shadowBlurOuter1"/><feColorMatrix values="0 0 0 0 0.333333333 0 0 0 0 0.301960784 0 0 0 0 0.407843137 0 0 0 0.08 0" in="shadowBlurOuter1"/></filter></defs><g fill="none" fill-rule="evenodd"><path fill="#302647" opacity=".06" d="M-1244-324H196V907h-1440z"/><g transform="translate(-1244 -324)"><use fill="#000" filter="url(#a)" xlink:href="#b"/><use fill="#FFF" xlink:href="#b"/></g><g transform="translate(-924)"><mask id="e" fill="#fff"><use xlink:href="#c"/></mask><use fill="#000" filter="url(#d)" xlink:href="#c"/><use fill="#FFF" xlink:href="#c"/><g mask="url(#e)" opacity=".04"><path d="M904-100h240v240H904z"/><path d="M1124-7.83c-.067-17.773-14.958-32.17-33.337-32.17h-52.365l4.83 18.445 44.941 9.46c4.092.91 7.178 4.395 7.356 8.595.023.108.023 46.783 0 46.892-.178 4.2-3.264 7.685-7.356 8.594l-44.941 9.46-4.83 18.467h52.365c18.357 0 33.27-14.396 33.337-32.17V-7.83zM959.953 52.03c-4.092-.91-7.177-4.395-7.356-8.595-.022-.13-.022-46.783 0-46.892.179-4.2 3.264-7.685 7.356-8.594l44.941-9.46 4.83-18.446h-52.387c-18.357 0-33.27 14.375-33.337 32.17V47.83C924.067 65.603 938.98 80 957.337 80h52.365l-4.83-18.467-44.919-9.503zm44.919-34.379h38.234v4.611h-38.234v-4.61z" fill="#FF6A00" fill-rule="nonzero"/></g></g></g></svg>
