<svg width="100" height="100" viewBox="0 0 100 100" xmlns="http://www.w3.org/2000/svg"><defs><linearGradient x1="-80.688%" y1="52.221%" x2="110.012%" y2="48.229%" id="a"><stop stop-color="#D8D8F4" offset="0%"/><stop stop-color="#7673F0" offset="100%"/></linearGradient><linearGradient x1="235.412%" y1="-36.992%" x2="-6.188%" y2="71.048%" id="b"><stop stop-color="#7E67FF" offset="0%"/><stop stop-color="#6639F4" offset="100%"/></linearGradient><linearGradient x1="49.989%" y1="101.161%" x2="49.989%" y2="-8.551%" id="c"><stop stop-color="#4656DD" offset="0%"/><stop stop-color="#FFF" stop-opacity="0" offset="100%"/></linearGradient><linearGradient x1="58.906%" y1="106.697%" x2="58.906%" y2="-31.215%" id="d"><stop stop-color="#5DECDE" stop-opacity=".482" offset="0%"/><stop stop-color="#37E4D0" stop-opacity="0" offset="100%"/></linearGradient><linearGradient x1="60.03%" y1="-43.74%" x2="60.03%" y2="182.634%" id="e"><stop stop-color="#94FFF6" offset="0%"/><stop stop-color="#40E5C0" offset="100%"/></linearGradient></defs><g fill="none" fill-rule="evenodd"><path d="M15.914 75.632c-.25.283-.375.506-.375.667.003 5.411.002 8.414 0 9.01-.004.933-.661 4.403 4.78 4.349 5.443-.054 57.952-.109 60.02-.054 2.068.054 3.503-1.944 3.41-4.295-.061-1.568-.023-4.57.115-9.01l-8.436.374-59.514-1.04z" fill="url(#a)" fill-rule="nonzero"/><path d="M83.853 76.06c.155 1.415-1.33 2.65-3.33 2.76-.098.005-.196.011-.286.011H19.163c-2 0-3.624-1.149-3.624-2.568 0-.07 0-.133.008-.202l4.045-26.939c.155-1.333 1.73-2.36 3.616-2.36h52.976c1.894 0 3.47 1.027 3.616 2.36l4.053 26.939z" fill="url(#b)" fill-rule="nonzero"/><path fill="url(#c)" fill-rule="nonzero" opacity=".4" d="M23.93 74L22 72.17 8.724 16h79.421L77 72.544 75.326 74z"/><path d="M60.746 19.75c1.332 0 2.418 1 2.685 2.36l.03.18.02.196v35.028c0 1.37-1.048 2.539-2.395 2.714l-.17.016-.17.006h-22.26c-1.37 0-2.539-1.048-2.714-2.396l-.016-.17-.006-.17V22.486c0-1.387.968-2.54 2.287-2.714l.167-.016.169-.006h22.373zm-17.309 2.081h-5.064c-.258 0-.541.233-.626.485l-.021.085-.007.085v35.028c0 .258.232.541.484.626l.085.021.085.007h22.26c.257 0 .54-.232.626-.484l.02-.085.008-.085V22.486c0-.258-.233-.541-.485-.626l-.084-.021-.085-.007-5.066-.001v.027a2.52 2.52 0 0 1-2.18 2.325l-.162.016-.163.006h-7.118a2.519 2.519 0 0 1-2.489-2.184l-.016-.163-.002-.027zm10.553-.5H45.13v.364l.007.124c.05.442.374.745.798.796l.107.007h7.134l.106-.007c.377-.053.653-.391.702-.798l.007-.107v-.378zm-4.43 27.944c1.72 0 3.187 1.468 3.187 3.188 0 1.72-1.468 3.188-3.188 3.188-1.72 0-3.188-1.468-3.188-3.188 0-1.72 1.468-3.188 3.188-3.188zm0 2.082c-.654 0-1.107.453-1.107 1.106s.453 1.106 1.106 1.106 1.106-.453 1.106-1.106-.453-1.106-1.106-1.106z" fill="#6AF0E3" fill-rule="nonzero"/><path d="M53.42 32.736c.023-.191 0-.214-.188-.214H46.058c-.218 0-.219.001-.219.216l.001 6.148c0 .045 0 .09.002.135a.652.652 0 0 0 .668.638c.194.002.387.003.581 0 .102-.002.151.042.15.143-.001.595-.003 1.19-.006 1.784-.001.413.163.656.52.728.233.048.474.04.71-.002.256-.047.492-.392.488-.614-.012-.625 0-1.252-.005-1.878 0-.125.044-.165.166-.163.346.006.693.002 1.04.002.213 0 .223.009.223.22 0 .599-.001 1.198.001 1.797.002.348.222.61.562.65.181.021.366.035.551.01a.649.649 0 0 0 .206-.059c.282-.137.385-.378.387-.673.002-.59 0-1.18 0-1.77 0-.167.01-.174.179-.175.184 0 .369.004.554-.001.293-.009.616-.307.604-.589-.01-.235.01-.467.01-.7.002-1.766 0-3.532.003-5.297 0-.113-.027-.223-.014-.336zm-7.407-.646h7.227c.18 0 .194-.021.135-.185a3.99 3.99 0 0 0-1.716-2.117c-.13-.079-.14-.134-.056-.263.094-.143.187-.286.279-.43.087-.137.173-.274.255-.413.039-.065.037-.13-.033-.178-.072-.049-.128-.018-.176.039-.023.027-.04.06-.061.089-.19.274-.342.57-.538.84-.056.077-.106.093-.192.055a2.6 2.6 0 0 0-.378-.142c-.895-.24-1.78-.227-2.645.132-.08.033-.134.02-.18-.056-.087-.142-.178-.282-.268-.422l-.313-.488c-.044-.067-.104-.086-.175-.047-.076.042-.077.103-.04.173.024.043.045.088.072.13l.447.69c.091.142.082.2-.05.275-.33.19-.63.416-.889.697a3.926 3.926 0 0 0-.854 1.424c-.062.185-.051.197.149.197zm5.378-1.613c.287-.002.592.292.602.58.009.296-.293.613-.59.62-.305.007-.601-.28-.61-.594-.008-.289.303-.604.598-.606zm-3.164.057c.3-.013.57.288.568.601-.002.315-.27.594-.577.599-.321.005-.62-.283-.622-.6-.024-.381.288-.584.631-.6zm7.37 4.126c0-.378.007-.756-.003-1.134a.637.637 0 0 0-.37-.594c-.199-.1-.401-.084-.606-.085-.446 0-.724.28-.725.725v3.766a.65.65 0 0 0 .337.602c.218.131.451.1.683.088.07-.003.149.022.21-.009.3-.147.48-.37.477-.727-.008-.877-.002-1.755-.002-2.632zm-10.955-1.813h-.31a.716.716 0 0 0-.727.815c.012.112.016.224.016.337v1.607c0 .59-.001 1.18.001 1.77.002.256.126.436.348.567.228.135.472.107.71.086.403-.036.648-.323.645-.727-.001-.242-.02-.485-.019-.728.006-1.012-.024-2.025.02-3.038.02-.434-.39-.69-.684-.69z" fill="#6AF0E3" fill-rule="nonzero"/><path d="M43.437 21.831h-5.064c-.258 0-.541.233-.626.485l-.021.085-.007.085v35.028c0 .258.232.541.484.626l.085.021.085.007h22.26c.257 0 .54-.232.626-.484l.02-.085.008-.085V22.486c0-.258-.233-.541-.485-.626l-.084-.021-.085-.007-5.066-.001v.027a2.52 2.52 0 0 1-2.18 2.325l-.162.016-.163.006h-7.118a2.519 2.519 0 0 1-2.489-2.184l-.016-.163-.002-.027z" fill="url(#d)" fill-rule="nonzero" opacity=".4"/><path stroke="#FBF8FF" stroke-width=".535" opacity=".6" d="M32.5 85.5v4M66.5 85.5v4"/><path d="M76.991 71.754c.125 1.146-1.071 2.147-2.68 2.236-.08.005-.159.01-.23.01H24.916C23.307 74 22 73.068 22 71.918c0-.057 0-.109.007-.164l2.45-17.84C24.582 52.834 25.85 52 27.368 52h44.255c1.524 0 2.792.833 2.91 1.914l2.458 17.84z" stroke="#FFF" stroke-width=".669" opacity=".2"/><g transform="translate(29.7 84)" fill="url(#e)" fill-rule="nonzero"><path d="M0 0h6v2.5H0zM34 0h6v2.5h-6z"/></g></g></svg>
