<?xml version="1.0" standalone="no"?><!DOCTYPE svg PUBLIC "-//W3C//DTD SVG 1.1//EN" "http://www.w3.org/Graphics/SVG/1.1/DTD/svg11.dtd"><svg t="1620699351584" class="icon" viewBox="0 0 1024 1024" version="1.1" xmlns="http://www.w3.org/2000/svg" p-id="27667" width="24" height="24" xmlns:xlink="http://www.w3.org/1999/xlink"><defs><style type="text/css"></style></defs><path d="M725.312 42.688a128 128 0 1 1-53.952 244.096l-1.216-0.64-22.848 22.848c22.4 33.728 35.392 74.24 35.392 117.696 0 44.48-13.632 85.824-36.992 120.064l88.896 111.104a170.688 170.688 0 1 1-64.512 56.064L584.192 606.464A212.352 212.352 0 0 1 469.312 640c-26.496 0-51.84-4.864-75.264-13.696l-42.112 42.112a170.688 170.688 0 1 1-65.92-54.848l34.304-34.24A212.672 212.672 0 0 1 256 426.688c0-32.32 7.168-62.912 20.032-90.304l-50.176-50.176a128 128 0 1 1 60.288-60.288l41.472 41.28a212.48 212.48 0 0 1 141.696-53.888c43.52 0 83.968 13.056 117.696 35.392l22.848-22.848-0.64-1.28A128 128 0 0 1 725.312 42.688z m85.376 682.624a85.312 85.312 0 1 0 0 170.688 85.312 85.312 0 0 0 0-170.688z m-597.376-42.624a85.312 85.312 0 1 0 0 170.624 85.312 85.312 0 0 0 0-170.624z m256-384a128 128 0 1 0 0 256 128 128 0 0 0 0-256zM170.688 128a42.688 42.688 0 1 0 0 85.312 42.688 42.688 0 0 0 0-85.312z m554.624 0a42.688 42.688 0 1 0 0 85.312 42.688 42.688 0 0 0 0-85.312z" p-id="27668" fill="#ffffff"></path></svg>