<svg width="239" height="223" viewBox="0 0 239 223" xmlns="http://www.w3.org/2000/svg" xmlns:xlink="http://www.w3.org/1999/xlink"><defs><path id="a" d="M0 0h240v240H0z"/><radialGradient cy="-29.736%" fx="50%" fy="-29.736%" r="129.736%" gradientTransform="matrix(0 1 -.45474 0 .365 -.797)" id="b"><stop stop-color="#E7E7E9" offset="0%"/><stop stop-color="#E7E7E9" stop-opacity="0" offset="100%"/></radialGradient><linearGradient x1="50%" y1="-24.978%" x2="50%" y2="41.641%" id="d"><stop stop-color="#CDCED1" stop-opacity=".5" offset="0%"/><stop stop-color="#CDCED1" stop-opacity="0" offset="100%"/></linearGradient><linearGradient x1="50%" y1="0%" x2="50%" y2="59.76%" id="e"><stop stop-color="#CDCED1" stop-opacity=".5" offset="0%"/><stop stop-color="#CDCED1" stop-opacity="0" offset="100%"/></linearGradient><linearGradient x1="55.803%" y1="50.665%" x2="50.996%" y2="49.335%" id="f"><stop stop-color="#070A1A" stop-opacity=".1" offset="0%"/><stop stop-color="#070A1A" stop-opacity="0" offset="100%"/></linearGradient><linearGradient x1="50%" y1="0%" x2="50%" y2="100%" id="h"><stop stop-color="#DBDCDF" offset="0%"/><stop stop-color="#B5B6BB" offset="100%"/></linearGradient><rect id="g" width="101.25" height="127.406" rx="2.7"/><linearGradient x1="50%" y1="0%" x2="50%" y2="100%" id="i"><stop stop-color="#F9F9FA" offset="0%"/><stop stop-color="#F0F1F2" offset="100%"/></linearGradient><linearGradient x1="100%" y1="23.554%" x2="0%" y2="76.446%" id="k"><stop stop-color="#F0F1F2" offset="0%"/><stop stop-color="#E7E7E9" offset="100%"/></linearGradient><linearGradient x1="100%" y1="48.488%" x2="0%" y2="51.512%" id="l"><stop stop-color="#F0F1F2" offset="0%"/><stop stop-color="#E7E7E9" offset="100%"/></linearGradient><linearGradient x1="100%" y1="49.015%" x2="0%" y2="50.985%" id="m"><stop stop-color="#F0F1F2" offset="0%"/><stop stop-color="#E7E7E9" offset="100%"/></linearGradient><linearGradient x1="100%" y1="47.663%" x2="0%" y2="52.337%" id="n"><stop stop-color="#F0F1F2" offset="0%"/><stop stop-color="#E7E7E9" offset="100%"/></linearGradient><linearGradient x1="100%" y1="49.308%" x2="0%" y2="50.692%" id="o"><stop stop-color="#F0F1F2" offset="0%"/><stop stop-color="#E7E7E9" offset="100%"/></linearGradient><linearGradient x1="50%" y1="-15.901%" x2="50%" y2="149.504%" id="p"><stop stop-color="#CBCCD0" offset="0%"/><stop stop-color="#9C9DA3" offset="100%"/></linearGradient><linearGradient x1="45.252%" y1="0%" x2="57.254%" y2="93.974%" id="q"><stop stop-color="#DBDCDF" offset="0%"/><stop stop-color="#B5B6BB" offset="100%"/></linearGradient><linearGradient x1="83.805%" y1="0%" x2="15.55%" y2="100%" id="r"><stop stop-color="#DBDCDF" offset="0%"/><stop stop-color="#9C9DA3" offset="100%"/></linearGradient><linearGradient x1="78.428%" y1="9.652%" x2="30.994%" y2="94.623%" id="s"><stop stop-color="#E7E7E9" offset="0%"/><stop stop-color="#F5F5F6" offset="100%"/></linearGradient><linearGradient x1="73.948%" y1="3.954%" x2="34.312%" y2="92.493%" id="t"><stop stop-color="#F5F5F6" stop-opacity=".5" offset="0%"/><stop stop-color="#FFF" stop-opacity=".4" offset="100%"/></linearGradient></defs><g transform="translate(-1 -17)" fill="none" fill-rule="evenodd"><mask id="c" fill="#fff"><use xlink:href="#a"/></mask><ellipse fill="url(#b)" mask="url(#c)" cx="120" cy="200.625" rx="120" ry="39.375"/><circle fill="url(#d)" opacity=".7" mask="url(#c)" cx="28.594" cy="69.844" r="21.094"/><circle fill="url(#e)" opacity=".5" mask="url(#c)" cx="223.594" cy="127.969" r="21.094"/><circle fill="url(#e)" opacity=".4" mask="url(#c)" cx="73.594" cy="55.313" r="37.5"/><circle fill="url(#e)" opacity=".4" mask="url(#c)" cx="182.813" cy="106.875" r="37.5"/><path d="M-42.695 164.24H64.18c1.553 0 3.776.224 4.964.5l104.016 24.136c1.189.275.893.499-.66.499H65.625c-1.553 0-3.776-.224-4.965-.5L-43.356 164.74c-1.188-.276-.892-.5.66-.5z" fill="url(#f)" mask="url(#c)"/><g mask="url(#c)"><g transform="translate(69.375 62.25)"><mask id="j" fill="#fff"><use xlink:href="#g"/></mask><use fill="url(#h)" fill-rule="nonzero" xlink:href="#g"/><rect fill="url(#i)" fill-rule="nonzero" mask="url(#j)" x="5.906" y="7.594" width="89.438" height="112.219" rx="2.7"/><path fill="url(#k)" mask="url(#j)" d="M16.031 23.625h9.281v6.75h-9.281zM16.031 41.344h9.281v6.75h-9.281zM16.031 58.219h9.281v6.75h-9.281zM16.031 75.938h9.281v6.75h-9.281z"/><path fill="url(#l)" mask="url(#j)" d="M31.219 23.625h38.813v6.75H31.219z"/><path fill="url(#m)" mask="url(#j)" d="M31.219 41.344h48.094v6.75H31.219z"/><path fill="url(#n)" mask="url(#j)" d="M31.219 58.219h31.219v6.75H31.219z"/><path fill="url(#o)" mask="url(#j)" d="M31.219 75.938h57.375v6.75H31.219z"/><g mask="url(#j)" fill="#070A1A" fill-opacity=".1"><path d="M84.77 81.119l2.308-5.437 23.3 9.89-2.307 5.437z"/><path d="M72.14 90.281c9.553 0 17.297-7.744 17.297-17.297 0-9.552-7.744-17.296-17.296-17.296-9.553 0-17.297 7.744-17.297 17.296 0 9.553 7.744 17.297 17.297 17.297zm0-5.062c-6.756 0-12.234-5.478-12.234-12.235 0-6.756 5.478-12.234 12.235-12.234 6.756 0 12.234 5.478 12.234 12.234 0 6.757-5.478 12.235-12.234 12.235z" fill-rule="nonzero"/></g></g><path fill="url(#p)" fill-rule="nonzero" d="M31.219 0h38.813v15.188H31.219z" transform="translate(69.375 57.188)"/><g><path fill="url(#q)" transform="rotate(-67 192.864 -9.75)" d="M39.778 15.002h5.906v25.313h-5.906z"/><path d="M17.297 34.594c9.553 0 17.297-7.744 17.297-17.297S26.85 0 17.297 0 0 7.744 0 17.297s7.744 17.297 17.297 17.297zm0-5.063c-6.757 0-12.235-5.477-12.235-12.234S10.54 5.062 17.297 5.062 29.53 10.54 29.53 17.297 24.054 29.53 17.297 29.53z" fill="url(#r)" fill-rule="nonzero" transform="translate(125.906 115.406)"/><path d="M17.297 29.531c-6.757 0-12.235-5.477-12.235-12.234S10.54 5.062 17.297 5.062 29.53 10.54 29.53 17.297 24.054 29.53 17.297 29.53z" fill="url(#s)" fill-rule="nonzero" transform="translate(125.906 115.406)"/><path d="M12.068 28.36a12.236 12.236 0 0 1-7.005-11.063c0-6.757 5.477-12.235 12.234-12.235 2.147 0 4.165.554 5.92 1.525L12.067 28.361z" fill="url(#t)" fill-rule="nonzero" transform="translate(125.906 115.406)"/></g></g></g></svg>
