<svg width="239" height="223" viewBox="0 0 239 223" xmlns="http://www.w3.org/2000/svg" xmlns:xlink="http://www.w3.org/1999/xlink"><defs><path id="a" d="M0 0h240v240H0z"/><radialGradient cy="-29.736%" fx="50%" fy="-29.736%" r="129.736%" gradientTransform="matrix(0 1 -.45474 0 .365 -.797)" id="b"><stop stop-color="#E7E7E9" offset="0%"/><stop stop-color="#E7E7E9" stop-opacity="0" offset="100%"/></radialGradient><linearGradient x1="50%" y1="-24.978%" x2="50%" y2="41.641%" id="d"><stop stop-color="#CDCED1" stop-opacity=".5" offset="0%"/><stop stop-color="#CDCED1" stop-opacity="0" offset="100%"/></linearGradient><linearGradient x1="50%" y1="0%" x2="50%" y2="59.76%" id="e"><stop stop-color="#CDCED1" stop-opacity=".5" offset="0%"/><stop stop-color="#CDCED1" stop-opacity="0" offset="100%"/></linearGradient><linearGradient x1="70.078%" y1="50.577%" x2="61.812%" y2="48.322%" id="f"><stop stop-color="#070A1A" stop-opacity=".1" offset="0%"/><stop stop-color="#070A1A" stop-opacity="0" offset="100%"/></linearGradient><linearGradient x1="39.451%" y1="29.928%" x2="50%" y2="67.826%" id="h"><stop stop-color="#B5B6BB" offset="0%"/><stop stop-color="#6A6C76" offset="100%"/></linearGradient><path d="M4.108 0h103.125c2.59 0 5.007 1.955 5.402 4.366l11.424 69.855c.394 2.411-1.385 4.366-3.974 4.366H16.96c-2.588 0-5.007-1.955-5.401-4.366L.135 4.366C-.26 1.955 1.519 0 4.108 0z" id="g"/><linearGradient x1="39.039%" y1="26.159%" x2="59.307%" y2="76.603%" id="j"><stop stop-color="#F0F1F2" offset="0%"/><stop stop-color="#B5B6BB" offset="100%"/></linearGradient><linearGradient x1="43.797%" y1="27.778%" x2="56.583%" y2="72.222%" id="k"><stop stop-color="#F5F5F6" offset="0%"/><stop stop-color="#CDCED1" offset="100%"/></linearGradient><linearGradient x1="61.212%" y1="47.684%" x2="50%" y2="52.316%" id="l"><stop stop-color="#FBFBFB" offset="0%"/><stop stop-color="#F5F5F6" offset="100%"/></linearGradient><linearGradient x1="61.212%" y1="49.086%" x2="50%" y2="50.914%" id="m"><stop stop-color="#FBFBFB" offset="0%"/><stop stop-color="#F5F5F6" offset="100%"/></linearGradient></defs><g transform="translate(-1 -17)" fill="none" fill-rule="evenodd"><mask id="c" fill="#fff"><use xlink:href="#a"/></mask><ellipse fill="url(#b)" mask="url(#c)" cx="120" cy="200.625" rx="120" ry="39.375"/><circle fill="url(#d)" opacity=".7" mask="url(#c)" cx="28.594" cy="69.844" r="21.094"/><circle fill="url(#e)" opacity=".5" mask="url(#c)" cx="223.594" cy="127.969" r="21.094"/><circle fill="url(#e)" opacity=".4" mask="url(#c)" cx="73.594" cy="55.313" r="37.5"/><circle fill="url(#e)" opacity=".4" mask="url(#c)" cx="182.813" cy="106.875" r="37.5"/><g mask="url(#c)"><path d="M2.071 94.596h103.125c2.589 0 6.599.492 8.957 1.098l68.313 17.582c2.358.607 2.171 1.099-.418 1.099H78.923c-2.589 0-6.599-.492-8.957-1.099L1.653 95.694c-2.358-.606-2.17-1.098.418-1.098z" fill="url(#f)" transform="translate(-11.25 74.063)"/><g transform="translate(50.713 109.85)"><mask id="i" fill="#fff"><use xlink:href="#g"/></mask><use fill="url(#h)" xlink:href="#g"/><path d="M-19.375 25.02c-2.599 0-3.818 1.332-2.723 2.975L9.614 75.611c1.095 1.643 4.089 2.976 6.688 2.976h103.523c2.6 0 3.819-1.333 2.724-2.976l-36.47-54.758c-1.094-1.644-4.088-2.976-6.687-2.976H56.805c-2.599 0-3.818 1.332-2.723 2.976l.792 1.19c1.095 1.644-.124 2.976-2.723 2.976h-71.526z" fill-opacity=".1" fill="#070A1A" mask="url(#i)"/></g><path d="M64.86 12.839c3.339 0 7.608 4.7 12.808 14.1 5.2 9.4 8.72 22.724 10.562 39.972h63.818c-3.372-29.022-7.712-47.537-13.02-55.545C133.72 3.358 129.441-.418 126.19.036c-10.903 4.242-20.983 7.328-30.243 9.261-9.259 1.933-19.621 3.113-31.086 3.542z" fill="url(#j)" transform="translate(-11.25 74.063)"/><path d="M183.55 39.926c2.6 0 5.035 1.852 5.44 4.136l11.75 66.177c.406 2.284-1.372 4.136-3.97 4.136H93.245c-2.6 0-5.035-1.852-5.44-4.136L74.293 34.136C73.888 31.852 75.666 30 78.265 30h22.587c2.598 0 5.034 1.852 5.44 4.136l.293 1.654c.406 2.285 2.841 4.136 5.44 4.136h71.526z" fill="url(#k)" transform="matrix(-1 0 0 1 263.784 74.063)"/><path d="M153.684 62.813h26.25c2.33 0 3.852 1.678 3.4 3.75-.453 2.07-2.709 3.75-5.039 3.75h-26.25c-2.33 0-3.852-1.68-3.4-3.75.454-2.072 2.71-3.75 5.04-3.75z" fill="url(#l)" transform="translate(-11.25 74.063)"/><path d="M129.041 79.688h46.875c2.33 0 3.852 1.678 3.4 3.75-.453 2.07-2.709 3.75-5.039 3.75h-46.875c-2.33 0-3.852-1.68-3.4-3.75.453-2.072 2.71-3.75 5.04-3.75z" fill="url(#m)" transform="translate(-11.25 74.063)"/></g></g></svg>
