<?xml version="1.0" encoding="UTF-8"?>
<svg width="24px" height="24px" viewBox="0 0 24 24" version="1.1" xmlns="http://www.w3.org/2000/svg" xmlns:xlink="http://www.w3.org/1999/xlink">
    <title>多云</title>
    <defs>
        <linearGradient x1="50%" y1="0%" x2="50%" y2="100%" id="linearGradient-1">
            <stop stop-color="#FFFFFF" stop-opacity="0.8" offset="0%"></stop>
            <stop stop-color="#FFFFFF" stop-opacity="0.96" offset="100%"></stop>
        </linearGradient>
    </defs>
    <g id="页面-1" stroke="none" stroke-width="1" fill="none" fill-rule="evenodd">
        <path d="M10.863,5.199 L10.7651246,5.20113316 L10.5545911,5.21187861 C9.07187142,5.32624325 7.78279577,6.26097462 7.20442027,7.6083567 L7.12668573,7.80360298 L7.09924529,7.8803923 L6.98605778,7.99843565 L6.77009417,8.09221673 C5.51394749,8.68670239 4.7,9.95688338 4.7,11.3636364 C4.7,12.0934331 4.91647711,12.7898405 5.31321552,13.3793384 L5.45208832,13.5717773 L5.46875643,13.7909795 C5.20426597,14.2683231 5.06363636,14.8057044 5.06363636,15.3636364 C5.06363636,17.0990916 6.42198827,18.5172868 8.13349998,18.6130298 L8.31818182,18.6182062 L13.4059694,18.6182062 L13.499782,18.6169459 L13.6867094,18.6056438 C15.0566103,18.4848247 16.1910479,17.525012 16.5475604,16.2278143 L16.591303,16.0488796 L16.6252136,15.8908244 L18.0369373,15.8894986 L18.2009159,15.8767301 C19.3430274,15.7497592 20.2173394,14.8329888 20.2944874,13.7105168 L20.3000284,13.5488274 L20.2990039,13.4717929 L20.2869755,13.2966451 C20.1949474,12.4229804 19.6191454,11.6801198 18.8182631,11.3638272 L18.6233128,11.2969962 L18.4935316,11.1783373 L18.4745344,11.1293563 L18.4030479,10.9715805 C18.0301158,10.217422 17.3039897,9.69570732 16.4700326,9.58574705 L16.2897665,9.56855185 L16.1310662,9.47340925 C15.8689106,9.0456549 15.5207627,8.67682549 15.1115053,8.39220482 L14.9018994,8.25702893 L14.7811852,8.18842941 L14.68757,8.06904943 L14.6210641,7.8604515 C14.0882655,6.34268077 12.6855748,5.29060456 11.0748555,5.20556656 L10.863,5.199 Z M10.8636364,10.9818182 C11.3631581,10.9818182 11.8307253,11.1830771 12.1702316,11.5293098 L12.2785255,11.6500128 L12.3914995,11.7877399 L12.2677122,11.9158359 C11.8477874,12.3503775 11.6090909,12.9288589 11.6090909,13.5454545 C11.6090909,14.78684 12.5735018,15.8029753 13.7940377,15.8854981 L13.9546324,15.8909091 L15.1978176,15.8914493 L15.0541362,16.1803662 C14.7788325,16.7339517 14.2434745,17.1138522 13.6251305,17.1871576 L13.4689181,17.1990196 L8.30968131,17.1998193 L8.15995979,17.1932672 C7.21405285,17.1124281 6.48181818,16.3188832 6.48181818,15.3636364 C6.48181818,14.423352 7.1903934,13.6433707 8.11097682,13.5390414 L8.25802154,13.5282584 L9.027,13.515 L9.02745346,12.8096813 L9.03400556,12.6599598 C9.11484459,11.7140529 9.90838954,10.9818182 10.8636364,10.9818182 Z M16.1363636,10.9818182 C16.6654154,10.9818182 17.1151949,11.3549269 17.2216111,11.8603426 L17.2399532,11.979216 L17.304,12.626 L17.979421,12.6185918 L18.0893196,12.6266777 C18.539287,12.6892901 18.8818182,13.0821489 18.8818182,13.5454545 C18.8818182,14.0024955 18.5498436,14.3855162 18.1063205,14.4598649 L17.9932433,14.4718856 L13.9411208,14.4722762 L13.8289728,14.4642727 C13.3718865,14.4022637 13.0272727,14.0107701 13.0272727,13.5454545 C13.0272727,13.0699159 13.3852373,12.6779843 13.8464528,12.6244203 L13.954604,12.6181818 L14.969,12.618 L15.0342646,11.9676422 L15.0530008,11.8516729 C15.1637214,11.3467005 15.614162,10.9818182 16.1363636,10.9818182 Z M10.8636364,6.61818182 C12.062574,6.61818182 13.0935389,7.44884425 13.3605282,8.59724713 L13.393408,8.7634108 L13.459,9.163 L13.8454287,9.31343142 L14.0070346,9.38396373 C14.171119,9.46373226 14.324058,9.5633377 14.4623837,9.67991746 L14.5957098,9.80204931 L14.75609,9.96165364 L14.5780043,10.1012274 C14.3453793,10.2835459 14.1466119,10.5048209 13.9913144,10.7541608 L13.8831421,10.9462576 L13.7312548,11.2463403 L13.5401289,10.9695909 C12.9763513,10.153244 12.0750759,9.63600203 11.0808178,9.57064879 L10.8664284,9.56361687 L10.7764394,9.56469804 L10.5873853,9.57518439 C9.26850831,9.68594856 8.15621349,10.5889988 7.76221321,11.8279642 L7.71086907,12.0071951 L7.69957502,12.0542832 L7.55338109,12.201719 L7.50845315,12.2127509 L7.32883371,12.2646312 C7.1802914,12.3121194 7.03603607,12.369996 6.89689076,12.437811 L6.69210821,12.5469312 L6.51992558,12.6468227 L6.41922463,12.4751122 C6.22312013,12.140724 6.11818182,11.7596094 6.11818182,11.3636364 C6.11818182,10.3969068 6.74870132,9.55092238 7.65404551,9.265391 L7.81659259,9.22091046 L8.26,9.117 L8.3523488,8.66374992 L8.39272301,8.49527114 C8.69795289,7.39158293 9.70856444,6.61818182 10.8636364,6.61818182 Z" id="形状结合" fill="url(#linearGradient-1)" fill-rule="nonzero"></path>
    </g>
</svg>