<svg width="156" height="100" viewBox="0 0 156 100" xmlns="http://www.w3.org/2000/svg" xmlns:xlink="http://www.w3.org/1999/xlink"><defs><path id="b" d="M304 82h1112v1037H304z"/><filter x="-.6%" y="-.5%" width="101.3%" height="101.4%" filterUnits="objectBoundingBox" id="a"><feOffset dy="2" in="SourceAlpha" result="shadowOffsetOuter1"/><feGaussianBlur stdDeviation="2" in="shadowOffsetOuter1" result="shadowBlurOuter1"/><feColorMatrix values="0 0 0 0 0.333333333 0 0 0 0 0.301960784 0 0 0 0 0.407843137 0 0 0 0.08 0" in="shadowBlurOuter1"/></filter><rect id="c" width="1080" height="178" rx="2"/><filter x="-.6%" y="-2.8%" width="101.3%" height="107.9%" filterUnits="objectBoundingBox" id="d"><feOffset dy="2" in="SourceAlpha" result="shadowOffsetOuter1"/><feGaussianBlur stdDeviation="2" in="shadowOffsetOuter1" result="shadowBlurOuter1"/><feColorMatrix values="0 0 0 0 0.333333333 0 0 0 0 0.301960784 0 0 0 0 0.407843137 0 0 0 0.08 0" in="shadowBlurOuter1"/></filter><linearGradient x1="100%" y1="83.146%" x2="0%" y2="16.854%" id="f"><stop stop-color="#FF3282" offset="0%"/><stop stop-color="#5F19EB" offset="100%"/></linearGradient></defs><g fill="none" fill-rule="evenodd"><path fill="#302647" opacity=".06" d="M-1244-696H196V535h-1440z"/><g transform="translate(-1244 -696)"><use fill="#000" filter="url(#a)" xlink:href="#b"/><use fill="#FFF" xlink:href="#b"/></g><g transform="translate(-924)"><mask id="e" fill="#fff"><use xlink:href="#c"/></mask><use fill="#000" filter="url(#d)" xlink:href="#c"/><use fill="#FFF" xlink:href="#c"/><g mask="url(#e)" opacity=".04"><path d="M904-100h240v240H904z"/><path d="M205 36.313c8.284 0 15 6.716 15 15v96.957a11 11 0 0 1-1.468 5.49c-3.033 5.265-9.758 7.074-15.023 4.042l-37.161-21.407-37.095 57.704a11 11 0 0 1-3.305 3.305c-4.745 3.05-10.952 1.992-14.445-2.266l-.756-1.039-30.076-46.785-43.441 29.851a11 11 0 0 1-5.838 1.928L31 179.1c-6.075 0-11-4.925-11-11V51.313c0-8.284 6.716-15 15-15zm-76.614 78.214l-31.223 21.455L120 171.51l28.998-45.109-20.612-11.874zM40 84.048v66.962l29.856-20.52L40 84.048zm160-.001l-22.825 35.505L200 132.7V84.047zM56.904 73.351l29.443 45.805 22.833-15.692-52.276-30.113zm122.078 6.409l-32.325 22.212 13.169 7.586 19.156-29.798zm-1.202-23.44H67.4l60.049 34.589L177.78 56.32z" fill="url(#f)" fill-rule="nonzero" transform="translate(904 -100)"/></g></g></g></svg>
