<svg xmlns="http://www.w3.org/2000/svg" viewBox="0 0 20 20"><g fill-rule="evenodd" fill="none"><circle r="10" cy="10" cx="10" fill="#DEDCE1"/><path fill="#302647" fill-opacity=".4" d="M10 12.427c.788 0 1.845.453 2.693.553L13 13c1.175 0 2.2.8 2.485 1.94l.725 2.898A9.958 9.958 0 0 1 10 20a9.958 9.958 0 0 1-6.21-2.16l.725-2.9a2.562 2.562 0 0 1 2.31-1.934L7 13c.762 0 2.238-.573 3-.573zm1.889 2.746h-.409l-.138 1.06-.068-.069a.922.922 0 0 0-.145-.11.588.588 0 0 0-.28-.067c-.249.007-.441.097-.579.272a.61.61 0 0 0-.145.258c-.036.105-.07.283-.103.532a2.917 2.917 0 0 0-.036.528c.004.112.03.2.077.266a.6.6 0 0 0 .508.27.785.785 0 0 0 .557-.242l-.029.218h.408l.382-2.916zm.977.814c-.301-.005-.543.096-.725.304l.288.25.046-.054a.345.345 0 0 1 .115-.074.764.764 0 0 1 .244-.032c.28-.005.408.083.381.266l-.028.218h-.564l-.125.008a.69.69 0 0 0-.616.606.516.516 0 0 0 .135.45c.106.12.273.181.499.184a.871.871 0 0 0 .331-.052.474.474 0 0 0 .204-.156l-.024.184h.408l.186-1.418.008-.12c.002-.19-.055-.33-.17-.416-.14-.101-.337-.15-.593-.148zm-4.521-.814H6.527l-.382 2.916h1.819l.054-.418H6.632l.111-.856h1.184l.051-.392H6.795l.109-.832H8.29l.055-.418zm1.206.814a.773.773 0 0 0-.567.246l.028-.22h-.408l-.271 2.076h.408l.163-1.25.018-.086c.03-.108.08-.19.154-.244a.428.428 0 0 1 .282-.104c.092 0 .177.035.254.104l.344-.362-.068-.056a.586.586 0 0 0-.337-.104zm3.591 1.222-.02.15-.015.087c-.024.107-.064.178-.12.213-.076.044-.199.065-.369.062-.135 0-.229-.027-.28-.082a.196.196 0 0 1-.069-.18c.019-.161.147-.245.385-.25h.488zm-2.223-.804c.096 0 .17.02.22.058.052.039.084.09.096.152.018.063.027.13.026.204a6.61 6.61 0 0 1-.059.454.878.878 0 0 1-.08.21.353.353 0 0 1-.135.152.425.425 0 0 1-.237.06c-.096 0-.167-.019-.213-.056a.286.286 0 0 1-.104-.148.74.74 0 0 1-.02-.212 2.221 2.221 0 0 1 .06-.472.866.866 0 0 1 .076-.204.381.381 0 0 1 .143-.148.439.439 0 0 1 .227-.05zM14 6v3a3 3 0 0 1-3 3H9a3 3 0 0 1-3-3V6c1.777.5 3.11.75 4 .75.89 0 2.223-.25 4-.75z"/></g></svg>