<?xml version="1.0" standalone="no"?><!DOCTYPE svg PUBLIC "-//W3C//DTD SVG 1.1//EN" "http://www.w3.org/Graphics/SVG/1.1/DTD/svg11.dtd"><svg t="1652752555731" class="icon" viewBox="0 0 1024 1024" version="1.1" xmlns="http://www.w3.org/2000/svg" p-id="3012" xmlns:xlink="http://www.w3.org/1999/xlink" width="128" height="128"><defs><style type="text/css">@font-face { font-family: feedback-iconfont; src: url("//at.alicdn.com/t/font_1031158_u69w8yhxdu.woff2?t=1630033759944") format("woff2"), url("//at.alicdn.com/t/font_1031158_u69w8yhxdu.woff?t=1630033759944") format("woff"), url("//at.alicdn.com/t/font_1031158_u69w8yhxdu.ttf?t=1630033759944") format("truetype"); }
</style></defs><path d="M766 290.5h-30.3c-11.8-40-33.5-76.5-63.3-106.3-47.5-47.5-110.7-73.7-177.8-73.7-67.2 0-130.3 26.2-177.8 73.7C269.2 231.7 243 294.8 243 362v27.5h-34.5c-40.7 0-79 15.9-107.8 44.7C71.9 463 56 501.2 56 542c0 40.7 15.9 79 44.7 107.8 28.8 28.8 67.1 44.7 107.8 44.7 13.8 0 25-11.2 25-25s-11.2-25-25-25c-27.4 0-53.1-10.7-72.5-30-19.4-19.4-30-45.1-30-72.5s10.7-53.1 30-72.5c19.4-19.4 45.1-30 72.5-30H268c13.8 0 25-11.2 25-25V362c0-53.8 21-104.4 59-142.5 38.1-38.1 88.7-59 142.5-59s104.4 21 142.5 59c27.8 27.8 46.8 62.8 54.8 101.1 2.4 11.6 12.6 19.9 24.5 19.9h49.8c83.8 0 152 68.2 152 152 0 40.6-15.8 78.8-44.5 107.5-28.7 28.7-66.9 44.5-107.5 44.5h-45c-13.8 0-25 11.2-25 25s11.2 25 25 25h45c53.9 0 104.7-21 142.8-59.2C947 597.2 968 546.5 968 492.5c0-111.4-90.6-202-202-202z" p-id="3013"></path><path d="M611.5 371.5h-258c-13.8 0-25 11.2-25 25v492c0 6.6 2.6 13 7.3 17.7 4.7 4.7 11 7.3 17.7 7.3h258c13.8 0 25-11.2 25-25v-492c0-6.6-2.6-13-7.3-17.7-4.7-4.7-11.1-7.3-17.7-7.3z m-25 492h-208v-442h208v442z" p-id="3014"></path><path d="M433.5 522.5h98c13.8 0 25-11.2 25-25s-11.2-25-25-25h-98c-13.8 0-25 11.2-25 25s11.2 25 25 25zM433.5 585.5h98c13.8 0 25-11.2 25-25s-11.2-25-25-25h-98c-13.8 0-25 11.2-25 25s11.2 25 25 25z" p-id="3015"></path><path d="M445.829987 773.631885a37 37 0 1 0 73.415354-9.283628 37 37 0 1 0-73.415354 9.283628Z" p-id="3016"></path></svg>