<svg width="40" height="40" viewBox="0 0 40 40" xmlns="http://www.w3.org/2000/svg"><g fill-rule="nonzero" fill="none"><path d="M20 3a.708.708 0 0 0-.443 1.262L23.1 7.095a.708.708 0 1 0 .885-1.107l-1.768-1.414C29.762 5.653 35.583 12.159 35.583 20c0 7.018-4.736 13.198-11.518 15.028a.71.71 0 0 0 .37 1.368C31.833 34.398 37 27.656 37 20c0-9.374-7.626-17-17-17zM16.901 32.905a.71.71 0 0 0-.885 1.107l1.768 1.414C10.238 34.347 4.417 27.841 4.417 20c0-7.018 4.736-13.198 11.518-15.028a.71.71 0 0 0-.37-1.368C8.167 5.602 3 12.344 3 20c0 9.374 7.626 17 17 17a.708.708 0 0 0 .443-1.262L16.9 32.905z" fill="#6A549E"/><path d="M13.614 27.083H27.77a4.964 4.964 0 0 0 4.958-4.958c0-2-1.197-3.718-2.907-4.501-.481-4.263-4.09-7.54-8.426-7.54-3.08 0-5.844 1.642-7.358 4.3-.141-.01-.281-.029-.423-.029A6.371 6.371 0 0 0 7.25 20.72a6.371 6.371 0 0 0 6.364 6.364z" fill="#6A549E"/><path d="M13.614 15.772c.868 0 1.722.228 2.468.659a.708.708 0 1 0 .708-1.227 6.306 6.306 0 0 0-1.277-.547 7.025 7.025 0 0 1 5.882-3.157c3.416 0 6.272 2.45 6.913 5.721-.179-.02-.354-.054-.538-.054a.708.708 0 1 0 0 1.416 3.546 3.546 0 0 1 3.541 3.542 3.546 3.546 0 0 1-3.541 3.542H13.614a4.953 4.953 0 0 1-4.947-4.948 4.953 4.953 0 0 1 4.947-4.947z" fill="#FFF"/><path d="M29.45 19.027c.275.503.445 1.07.445 1.681a3.546 3.546 0 0 1-3.542 3.542H12.197a4.913 4.913 0 0 1-2.712-.818 4.942 4.942 0 0 0 4.129 2.235H27.77a3.546 3.546 0 0 0 3.541-3.542c0-1.341-.758-2.497-1.86-3.098z" fill="#E8E8F3"/></g></svg>
