<svg width="120" height="100" viewBox="0 0 120 100" xmlns="http://www.w3.org/2000/svg" xmlns:xlink="http://www.w3.org/1999/xlink"><defs><linearGradient x1="6.816%" y1="36.794%" x2="68.287%" y2="57.646%" id="a"><stop stop-color="#A38DCD" offset="0%"/><stop stop-color="#6A549E" offset="100%"/></linearGradient><linearGradient x1="-16.214%" y1="50%" y2="50%" id="b"><stop stop-color="#F2F0FF" stop-opacity=".2" offset="0%"/><stop stop-color="#A8A0FB" stop-opacity=".5" offset="100%"/></linearGradient><linearGradient x1="100%" y1="41.784%" x2="-90.647%" y2="67.905%" id="c"><stop stop-color="#F9F8FF" offset="0%"/><stop stop-color="#DCD8FF" offset="100%"/></linearGradient><path d="M4.256 0c.7 0 1.349.322 1.884.87.065.066.129.137.19.21.014.017.03.034.043.052.725.891 1.187 2.23 1.187 3.725 0 2.684-1.48 4.863-3.304 4.863H3.24c1.824 0 3.304-2.18 3.304-4.863 0-1.494-.461-2.834-1.187-3.725-.013-.018-.028-.035-.042-.052a3.481 3.481 0 0 0-.191-.21C4.59.323 3.94 0 3.24 0h1.016z" id="e"/><filter x="-104.2%" y="-46.3%" width="308.3%" height="192.6%" filterUnits="objectBoundingBox" id="d"><feOffset in="SourceAlpha" result="shadowOffsetOuter1"/><feGaussianBlur stdDeviation="1.5" in="shadowOffsetOuter1" result="shadowBlurOuter1"/><feColorMatrix values="0 0 0 0 0.822129875 0 0 0 0 0.849562517 0 0 0 0 0.959293089 0 0 0 1 0" in="shadowBlurOuter1"/></filter><linearGradient x1="60.444%" y1="18.247%" x2="-12.51%" y2="74.984%" id="f"><stop stop-color="#F6F5FF" offset="0%"/><stop stop-color="#E9E8F6" offset="100%"/></linearGradient><linearGradient x1="21.833%" y1="0%" x2="91.878%" y2="119.354%" id="g"><stop stop-color="#66E4D5" offset="0%"/><stop stop-color="#36C5AB" offset="100%"/></linearGradient><path d="M7.372-.002c1.158 0 2.232.512 3.117 1.384.107.104.213.216.315.332.022.028.047.055.07.082 1.2 1.418 1.964 3.546 1.964 5.922 0 4.265-2.45 7.73-5.466 7.73h-1.68c3.016 0 5.465-3.465 5.465-7.73 0-2.376-.763-4.504-1.963-5.922-.023-.027-.048-.054-.07-.082a5.62 5.62 0 0 0-.316-.332C7.924.51 6.848-.002 5.692-.002h1.68z" id="i"/><filter x="-63%" y="-29.1%" width="225.9%" height="158.3%" filterUnits="objectBoundingBox" id="h"><feOffset in="SourceAlpha" result="shadowOffsetOuter1"/><feGaussianBlur stdDeviation="1.5" in="shadowOffsetOuter1" result="shadowBlurOuter1"/><feColorMatrix values="0 0 0 0 0.822129875 0 0 0 0 0.849562517 0 0 0 0 0.959293089 0 0 0 1 0" in="shadowBlurOuter1"/></filter><linearGradient x1="61.747%" y1="18.247%" x2="-151.514%" y2="171.552%" id="j"><stop stop-color="#F6F5FF" offset="0%"/><stop stop-color="#F5F4FF" offset="100%"/></linearGradient><linearGradient x1="21.833%" y1="0%" x2="91.878%" y2="119.354%" id="k"><stop stop-color="#66E4D5" offset="0%"/><stop stop-color="#36C5AB" offset="100%"/></linearGradient></defs><g fill="none" fill-rule="evenodd"><path d="M114.793 32.99c.01.03.017.062.026.093l.023.095c.008.032.016.064.022.096.007.032.015.064.02.097a5.166 5.166 0 0 1 .086.57 5.796 5.796 0 0 1 .03.602v30.913a5.674 5.674 0 0 1-.015.43 5.177 5.177 0 0 1-.011.14l-.007.069-.007.07-.009.068-.01.068a5.41 5.41 0 0 1-.224.964 4.703 4.703 0 0 1-.378.844c-.149.26-.32.496-.51.707a3.69 3.69 0 0 1-1.037.805 3.362 3.362 0 0 1-1.075.342l-.108.015-.11.01a6.593 6.593 0 0 1-.22.011l-.112.001-.112-.003a3.86 3.86 0 0 1-.628-.08 3.949 3.949 0 0 1-.173-.04L91.49 65.135a2.043 2.043 0 0 1-.52-.212 2.672 2.672 0 0 1-.474-.35 3.586 3.586 0 0 1-.424-.469 4.444 4.444 0 0 1-.364-.566 6.454 6.454 0 0 1-.298-.646l-.031-.085-.031-.086-.03-.088c-.01-.03-.02-.059-.028-.089a6.263 6.263 0 0 1-.266-1.36l-.005-.05-.003-.05a9.54 9.54 0 0 1-.009-.147l-.004-.1-.002-.1-.001-.099V39.363c0-.534.067-1.057.189-1.546.121-.491.298-.95.519-1.355.222-.407.488-.76.788-1.034.302-.277.638-.473.994-.563l18.764-4.743a3.96 3.96 0 0 1 1.025-.122l.11.004a6.593 6.593 0 0 1 .22.018c.036.004.072.008.108.014l.107.017a3.48 3.48 0 0 1 .696.202l.082.034.08.036.08.038a1.99 1.99 0 0 1 .172.093 2.979 2.979 0 0 1 .185.114l.09.06a2.535 2.535 0 0 1 .219.169l.105.09.102.097.054.052.054.054.052.055.052.057.084.1.069.086c.021.026.04.05.058.075l.052.07.043.062c.015.02.029.041.043.063l.042.063.04.064a4.36 4.36 0 0 1 .294.57 5.04 5.04 0 0 1 .221.633" stroke-opacity=".2" stroke="#A8A0FB" stroke-width=".2" fill-opacity=".1" fill="#CACAF1" stroke-linecap="square"/><path d="M103.746 27.036c.011.042.02.084.03.127l.03.127c.01.043.019.086.027.13a7.59 7.59 0 0 1 .13.902 8.568 8.568 0 0 1 .037.812v41.732a8.397 8.397 0 0 1-.018.58 7.65 7.65 0 0 1-.014.189l-.01.093-.008.094-.01.092-.012.093a7.902 7.902 0 0 1-.277 1.301 6.669 6.669 0 0 1-.464 1.14c-.184.35-.394.668-.628.954a4.71 4.71 0 0 1-1.101.983 4.957 4.957 0 0 1-.355.199 4.058 4.058 0 0 1-1.011.344 3.369 3.369 0 0 1-.266.042l-.134.014-.136.01-.136.005-.137.001-.139-.004a4.336 4.336 0 0 1-.772-.108 4.498 4.498 0 0 1-.213-.053L75.065 70.43a2.395 2.395 0 0 1-.64-.287 3.325 3.325 0 0 1-.584-.472 4.715 4.715 0 0 1-.522-.633 6.099 6.099 0 0 1-.448-.764c-.034-.068-.067-.138-.1-.208a9.11 9.11 0 0 1-.266-.664l-.039-.115-.038-.117-.037-.118a9.098 9.098 0 0 1-.363-1.957c0-.022-.002-.043-.004-.066l-.004-.067-.005-.067a7.409 7.409 0 0 1-.006-.132l-.005-.134-.002-.135L72 64.36V35.64c0-.721.082-1.427.232-2.087.15-.663.367-1.283.64-1.829.273-.55.6-1.026.969-1.396.371-.374.785-.639 1.224-.76l23.094-6.403a4.514 4.514 0 0 1 .985-.16A5.374 5.374 0 0 1 99.42 23l.136.004a7.407 7.407 0 0 1 .27.024c.045.007.09.012.133.02.045.006.09.015.132.022a3.953 3.953 0 0 1 .857.273l.1.047a5.783 5.783 0 0 1 .197.1 5.845 5.845 0 0 1 .327.2 3.703 3.703 0 0 1 .223.16 4.81 4.81 0 0 1 .525.479l.067.071.065.073.065.075.063.076c.04.05.073.095.104.136l.085.115.072.102.064.095.053.084c.018.027.035.055.052.084l.052.085.05.087a6.069 6.069 0 0 1 .361.769 7.217 7.217 0 0 1 .273.854" stroke-opacity=".2" stroke="#A8A0FB" stroke-width=".2" fill-opacity=".15" fill="#CACAF1" stroke-linecap="square"/><path d="M89.728 22.933l.035.151c.012.051.024.103.034.154.01.052.021.103.03.155a8.767 8.767 0 0 1 .128.914 10.541 10.541 0 0 1 .045.963v49.46a9.678 9.678 0 0 1-.022.687c-.005.075-.01.15-.017.225l-.011.11-.01.112-.013.108-.014.11a9.143 9.143 0 0 1-.338 1.543 7.781 7.781 0 0 1-.566 1.35c-.224.415-.48.792-.765 1.13a5.67 5.67 0 0 1-1.342 1.166 6.082 6.082 0 0 1-.433.236 5.034 5.034 0 0 1-1.233.408c-.052.01-.106.018-.161.026-.053.01-.108.017-.162.023l-.164.017-.165.012c-.056.003-.11.005-.166.005-.056.002-.112.002-.167.002l-.17-.005a5.432 5.432 0 0 1-.68-.076 5.61 5.61 0 0 1-.52-.115l-28.146-7.59a2.96 2.96 0 0 1-.779-.34 4.034 4.034 0 0 1-.713-.56 5.625 5.625 0 0 1-.635-.75 7.185 7.185 0 0 1-.668-1.152c-.039-.083-.077-.17-.114-.255a10.158 10.158 0 0 1-.21-.532l-.048-.136-.046-.138-.045-.14a10.544 10.544 0 0 1-.442-2.32l-.006-.078-.005-.079a16.267 16.267 0 0 1-.013-.237c-.003-.052-.005-.105-.006-.158l-.003-.16-.002-.16V32.981c0-.855.1-1.692.283-2.474a9.45 9.45 0 0 1 .779-2.167c.333-.653.732-1.217 1.181-1.655.453-.443.957-.757 1.492-.902l28.146-7.587A5.629 5.629 0 0 1 84.25 18h.167l.166.006a9.278 9.278 0 0 1 .33.029c.053.007.108.013.161.023.055.007.109.017.161.026a4.935 4.935 0 0 1 1.045.324l.121.055a7.135 7.135 0 0 1 .24.118 7.166 7.166 0 0 1 .4.237 4.516 4.516 0 0 1 .27.191 5.817 5.817 0 0 1 .64.567l.082.084.08.087.079.088c.025.03.05.06.077.09l.126.162.104.136.087.121.078.113.065.099c.022.032.043.065.063.1.023.032.043.067.063.1l.062.104a7.976 7.976 0 0 1 .772 1.923c.014.05.025.1.038.15z" stroke-opacity=".2" stroke="#A8A0FB" stroke-width=".2" fill-opacity=".2" fill="#CACAF1" stroke-linecap="square"/><path d="M74.215 79.914a11.506 11.506 0 0 1-.013.567 10.859 10.859 0 0 1-.049.69l-.014.137-.007.067-.008.067-.017.134c-.089.667-.231 1.303-.42 1.9a9.619 9.619 0 0 1-.706 1.665c-.277.51-.596.978-.952 1.396a7.175 7.175 0 0 1-1.413 1.277 6.046 6.046 0 0 1-.798.462c-.054.027-.109.051-.163.077l-.166.071-.166.067-.169.063-3.153 1.104.072-.028a4.238 4.238 0 0 0 .335-.14 5.12 5.12 0 0 0 .439-.22 7.655 7.655 0 0 0 .53-.326 7.1 7.1 0 0 0 1.424-1.305c.359-.428.68-.906.962-1.431.281-.526.52-1.099.712-1.71.19-.614.334-1.267.424-1.954l.018-.139.015-.137.028-.28c.008-.095.015-.19.02-.285a11.59 11.59 0 0 0 .029-.871V18.205a13.236 13.236 0 0 0-.218-2.376l-.038-.196-.042-.194-.044-.193-.048-.19a11.337 11.337 0 0 0-.418-1.282 10.138 10.138 0 0 0-.552-1.153l-.078-.13-.038-.065-.12-.19-.083-.125c-.031-.048-.063-.095-.098-.143a5.692 5.692 0 0 0-.239-.326l-.158-.203a8.468 8.468 0 0 1-.097-.115l-.1-.112-.1-.109-.102-.107a10.07 10.07 0 0 0-.193-.194 7.325 7.325 0 0 0-.611-.524c-.055-.042-.112-.083-.17-.124l-.085-.06-.087-.058c-.057-.04-.116-.076-.175-.113l-.178-.106a6.019 6.019 0 0 0-.148-.082l-.15-.077-.151-.072-.153-.069-.056-.024-.056-.024-.11-.045-.058-.022-.035-.014 1.491.522 1.625.57c.038.015.075.027.113.041.037.014.075.028.112.044l.112.044.108.047.153.068.15.073.148.074.147.08c.06.035.12.07.177.106l.175.11.17.116.169.121a7.06 7.06 0 0 1 .795.703l.102.105.099.107.098.11c.034.037.065.074.097.111l.158.2c.047.06.09.115.129.168.04.052.074.1.108.15.034.046.066.092.097.14l.041.06.04.06c.028.041.053.082.08.124.026.04.053.083.077.125.027.042.051.084.077.127a8.967 8.967 0 0 1 .547 1.123c.082.199.155.401.225.61.069.208.132.421.19.638l.047.185.044.186.041.19a11.72 11.72 0 0 1 .198 1.315 13.506 13.506 0 0 1 .055 1.183v60.79z" fill="#AC9AD4"/><path d="M48.62 6.057c.017.063.03.126.047.19l.044.191c.015.064.03.13.042.195.013.065.027.13.038.196a11.179 11.179 0 0 1 .162 1.157 13.449 13.449 0 0 1 .056 1.219v62.627a12.348 12.348 0 0 1-.013.584 21.368 21.368 0 0 1-.036.571l-.014.14-.013.141c-.006.046-.01.092-.017.138l-.017.139c-.09.687-.233 1.339-.425 1.953a9.894 9.894 0 0 1-.711 1.71 8.388 8.388 0 0 1-.961 1.432 7.15 7.15 0 0 1-1.687 1.475 7.628 7.628 0 0 1-.543.299 6.295 6.295 0 0 1-1.549.517 5.257 5.257 0 0 1-.203.033 3.862 3.862 0 0 1-.203.03c-.07.006-.138.015-.207.02l-.207.016a6.24 6.24 0 0 1-.21.007l-.21.001-.211-.006a6.775 6.775 0 0 1-.856-.096 7.006 7.006 0 0 1-.653-.146l-35.37-9.61a3.705 3.705 0 0 1-.978-.43 5.076 5.076 0 0 1-.896-.71 7.11 7.11 0 0 1-.799-.949 9.112 9.112 0 0 1-.686-1.146 12.933 12.933 0 0 1-.152-.313 13.53 13.53 0 0 1-.144-.323 12.924 12.924 0 0 1-.265-.673l-.06-.172-.057-.175a8.071 8.071 0 0 1-.11-.357 13.432 13.432 0 0 1-.502-2.758c-.002-.032-.004-.065-.008-.099-.002-.034-.005-.066-.006-.1a10.897 10.897 0 0 1-.016-.3c-.004-.066-.006-.134-.008-.2-.001-.068-.004-.136-.004-.204L0 62.07V18.969c0-1.083.126-2.142.356-3.132.228-.995.562-1.926.978-2.744.42-.826.92-1.541 1.485-2.095.57-.561 1.203-.96 1.875-1.142L40.062.248a7.029 7.029 0 0 1 1.51-.241A8.398 8.398 0 0 1 41.994 0l.209.007a11.572 11.572 0 0 1 .414.036c.067.01.136.018.203.03.069.009.136.021.203.033a6.16 6.16 0 0 1 1.312.41l.153.07a8.936 8.936 0 0 1 .3.149c.05.025.1.053.149.081a8.99 8.99 0 0 1 .353.218 5.673 5.673 0 0 1 .342.243 7.325 7.325 0 0 1 .611.525c.065.063.128.127.193.194l.102.106c.033.036.067.072.1.11l.1.111c.031.039.064.076.096.115.06.074.111.142.16.204l.13.172.11.153.097.144.082.124c.027.041.054.083.08.126.027.042.053.086.079.129.025.043.05.087.077.13a10.138 10.138 0 0 1 .97 2.435" fill="url(#a)" transform="translate(22 9)"/><path d="M25.961.452l4.482.525.08.015.021.004.039.01.018.004.017.004.065.02.053.017.044.016.041.016c.019.01.035.017.05.023l.08.04.034.019.062.037.05.033.042.028.039.029.043.033.037.033.035.03.031.03.057.056.046.047.02.02.051.06-.53-.06.53.06 10.785 13.063a2.473 2.473 0 0 1 .265.391c.039.069.075.14.107.213a2.827 2.827 0 0 1 .197.557c.016.057.029.114.042.172l.03.175.015.123c.005.042.01.083.012.124l.008.124v.124c0 .187-.012.371-.04.554a3.22 3.22 0 0 1-.339 1.026 2.715 2.715 0 0 1-.297.442l-2.205.03 2.205-.029-2.433 2.959-8.35 10.15a2.117 2.117 0 0 1-.255.261 1.808 1.808 0 0 1-.237.171l-.036.021-.015.008-.098.05.045-.023-.016.01a1.678 1.678 0 0 1-.11.049l-.1.035-.1.028-.044.01.013-.003.03-.007a1.33 1.33 0 0 1-.159.032l-.044.007-4.481.501.142-.023.107-.028.056-.015c.033-.011.066-.024.1-.037l.098-.045.094-.05a1.592 1.592 0 0 0 .19-.127l.088-.072c.089-.077.173-.167.255-.266l8.397-10.478 2.454-3.06v-.002l.11-.144a3.196 3.196 0 0 0 .403-.825c.056-.178.099-.363.128-.551.028-.188.042-.38.042-.573l-.002-.128-.008-.128-.012-.129-.015-.127-.031-.181-.019-.09-.022-.089a2.719 2.719 0 0 0-.106-.349 3.491 3.491 0 0 0-.2-.448 2.873 2.873 0 0 0-.126-.209l-.142-.195L27.021 1.092a.608.608 0 0 0-.034-.04l-.038-.043a1.389 1.389 0 0 0-.045-.048l-.057-.058-.033-.03-.033-.031-.038-.034A.508.508 0 0 1 26.7.773l-.039-.028-.042-.03-.051-.032-.062-.04-.034-.019c-.012-.006-.025-.011-.037-.02l-.043-.02-.05-.025L26.3.543l-.045-.017-.053-.018-.065-.019-.035-.009a.287.287 0 0 0-.04-.009c-.012-.004-.028-.006-.046-.01l-.056-.01zm-4.604 20.694l-6.662 9.107c-.063.09-.133.171-.204.24a1.41 1.41 0 0 1-.227.176 1.102 1.102 0 0 1-.488.168l-4.484.401a1.171 1.171 0 0 0 .712-.353c.071-.07.141-.152.205-.245v-.001l6.65-9.368 4.498-.125zM25.58 8.973l4.481.256-5.47 7.488 1.784 2.437 3.687 5.037-4.482.234-3.697-5.205-1.786-2.515 5.483-7.732zm-16.513.855l4.483.205-4.413 6.719 4.413 6.687-4.483.186-4.396-6.882 2.235.004-2.235-.005 4.396-6.914zm5.298-1.167l4.496.247 2.488 3.395-4.497-.146-2.487-3.496zM9.307 2.224l4.449.416h.015l.008.002.008.001c.03.003.06.008.088.015l.088.02.087.03c.028.012.058.024.085.038a1.323 1.323 0 0 1 .432.322l.065.075.027.035h.002c.003.004.005.008.01.012.002.004.004.008.008.011l.01.017.006.006 1.758 2.4 2.407 3.283-4.494-.246-2.403-3.377-1.755-2.465-.004-.006.005.005-.006-.007-.057-.076a1.48 1.48 0 0 0-.496-.41 1.178 1.178 0 0 0-.171-.065l-.088-.024-.044-.007-.04-.005z" fill="url(#b)" opacity=".8" transform="translate(22 33)"/><path d="M47.925 33.446l4.482.526c.002 0 .005 0 .009.002h.009c.004 0 .006 0 .009.002.002 0 .005 0 .009.002l-4.482-.527h-.009c-.002-.002-.005-.002-.008-.002-.003-.002-.006-.002-.01-.002h-.009" fill="#363878"/><path d="M47.962 33.451l4.481.526-4.481-.526z" fill="#373A7A"/><path d="M21.883 19.22l3.697 5.205 5.911-7.747-5.91-7.704-5.484 7.732 1.786 2.514zM9.067 23.625l4.687-6.904-2.384-3.507-2.303-3.386-4.395 6.915 4.395 6.882zm16.594 9.326l-.155-.016a1.879 1.879 0 0 1-.09-.016l-.092-.024a1.205 1.205 0 0 1-.091-.027c-.029-.012-.06-.022-.09-.035l-.045-.018-.044-.02a.698.698 0 0 1-.044-.023l-.044-.023a1.164 1.164 0 0 1-.087-.05.894.894 0 0 1-.087-.056c-.027-.02-.057-.04-.084-.061l-.083-.066a2.397 2.397 0 0 1-.454-.51L16.86 21.271l-6.65 9.37c-.067.095-.137.18-.212.252a1.392 1.392 0 0 1-.234.184 1.033 1.033 0 0 1-.5.163l-.132.01-.13-.015a.838.838 0 0 1-.06-.014.672.672 0 0 1-.06-.014l-.06-.017-.062-.02-.138-.072a1.416 1.416 0 0 1-.23-.154 1.555 1.555 0 0 1-.216-.21l-.061-.07-.06-.078c-.02-.026-.037-.053-.057-.08-.02-.029-.036-.058-.054-.087l-1.655-2.7-5.732-9.35a.645.645 0 0 1-.025-.038l-.02-.039-.023-.04-.02-.04a2.904 2.904 0 0 1-.254-.743 3.624 3.624 0 0 1 .042-1.62c.069-.258.169-.5.3-.713l5.732-9.378 1.655-2.707c.073-.12.15-.226.233-.32.082-.095.17-.176.26-.245.089-.069.182-.126.277-.169.094-.042.19-.072.289-.088l.13-.014.042-.001.044.001.043.003c.013.001.027.002.041.005.03.002.06.008.089.014.03.005.06.013.088.022a1.226 1.226 0 0 1 .465.263 1.613 1.613 0 0 1 .264.297l1.755 2.465 2.402 3.377 2.487 3.496 7.32-10.77a.274.274 0 0 1 .023-.035c.008-.01.015-.022.023-.034.01-.01.016-.02.023-.03l.025-.033a2.41 2.41 0 0 1 .531-.507l.057-.038.059-.035c.02-.01.037-.022.058-.032a.613.613 0 0 1 .058-.03l.033-.017.033-.015a.352.352 0 0 1 .033-.014l.034-.015.296-.066c.076-.015.13-.027.171-.033l.085-.015c.02-.001.03-.002.042-.001l.064.001.053.003.047.005.041.005.056.01.048.01.037.009c.013.002.024.006.035.009l.065.02c.02.006.037.01.053.017.017.006.03.01.046.017.014.005.027.01.04.017.02.008.036.017.05.023l.045.022.036.02.034.02c.023.012.044.025.062.037.02.013.036.023.05.034.016.009.03.019.044.03l.038.028.043.035.037.032.035.031.031.032c.022.02.04.04.057.058a.504.504 0 0 1 .046.048.519.519 0 0 1 .037.041c.013.015.024.027.035.042l10.853 13.486c.05.063.097.13.141.197a2.868 2.868 0 0 1 .327.657 3.845 3.845 0 0 1 .106.349 4.483 4.483 0 0 1 .088.487l.01.127.008.128a3.848 3.848 0 0 1-.04.702 3.403 3.403 0 0 1-.342 1.063 2.693 2.693 0 0 1-.298.458l-2.455 3.061-8.396 10.477c-.086.106-.175.2-.27.28a1.618 1.618 0 0 1-.93.391l-.162-.005z" fill="url(#c)" transform="translate(22 33)"/><g><g transform="translate(12 21)"><use fill="#000" filter="url(#d)" xlink:href="#e"/><use fill="#D8D5F6" xlink:href="#e"/></g><path d="M.58 7.63C.213 6.842 0 5.887 0 4.857 0 3.6.32 2.456.842 1.593c.07-.115.143-.225.22-.33C1.637.48 2.401 0 3.238 0c.687 0 1.324.322 1.849.87.063.066.126.137.187.21l.042.052c.71.89 1.164 2.23 1.164 3.725 0 2.684-1.452 4.863-3.242 4.863-.997 0-1.89-.68-2.485-1.747L.72 7.91a5.323 5.323 0 0 1-.14-.28" fill="url(#f)" transform="translate(12 21)"/><path d="M1.874 4.055a.34.34 0 0 0-.056.159l-.002.044.002.042v.252l.19-.003.033.001.03-.002 1.907-.031a.059.059 0 0 1 .047.023.098.098 0 0 1 .02.058v.41a.59.59 0 0 1-.032.192.512.512 0 0 1-.086.156.398.398 0 0 1-.126.104.32.32 0 0 1-.152.036l-1.831-.03v.254l-.002.044v.02l.002.022a.421.421 0 0 0 .051.152.242.242 0 0 0 .011.016l.012.015.013.015a.5.5 0 0 0 .02.019l.021.015a.244.244 0 0 0 .047.023.17.17 0 0 0 .012.003c.004 0 .008.002.011.003l.012.001h.013l.012.001h.012a.258.258 0 0 0 .025-.005l2.243.085c.056.002.11.017.16.045.05.027.094.065.132.112a.552.552 0 0 1 .09.164.609.609 0 0 1 .032.198v.422a.085.085 0 0 1-.021.058.069.069 0 0 1-.022.016.053.053 0 0 1-.026.005L2.04 6.985a.778.778 0 0 1-.45-.19 1.075 1.075 0 0 1-.188-.204 1.317 1.317 0 0 1-.142-.26 1.518 1.518 0 0 1-.114-.589V4.276a1.792 1.792 0 0 1 .026-.288c.02-.106.05-.208.088-.302.039-.094.087-.182.142-.26.056-.078.12-.147.189-.204a.84.84 0 0 1 .335-.171.658.658 0 0 1 .114-.017l2.637-.185a.062.062 0 0 1 .048.021.087.087 0 0 1 .021.058v.42c0 .07-.012.137-.033.198a.56.56 0 0 1-.09.165.446.446 0 0 1-.131.114.357.357 0 0 1-.16.045l-2.326.087a.175.175 0 0 0-.078.038.285.285 0 0 0-.055.06z" fill="url(#g)" transform="translate(12 21)"/></g><path d="M39.714 25.335c.013.045.023.09.035.136l.033.137.03.14a7.812 7.812 0 0 1 .147.968 8.792 8.792 0 0 1 .041.872v44.823a8.611 8.611 0 0 1-.02.623l-.016.204-.01.1-.01.1c-.004.033-.007.067-.012.1l-.013.099a8.156 8.156 0 0 1-.311 1.398c-.14.437-.317.846-.523 1.223a5.996 5.996 0 0 1-.706 1.025 5.195 5.195 0 0 1-1.239 1.056 5.642 5.642 0 0 1-.4.214 4.702 4.702 0 0 1-1.138.37 3.955 3.955 0 0 1-.297.045l-.152.015-.152.01a4.704 4.704 0 0 1-.154.006l-.154.001-.156-.005a5.106 5.106 0 0 1-.869-.115 5.26 5.26 0 0 1-.24-.058l-25.98-6.877a2.758 2.758 0 0 1-.72-.309 3.715 3.715 0 0 1-.657-.507 5.123 5.123 0 0 1-.587-.68 6.489 6.489 0 0 1-.616-1.044 9.56 9.56 0 0 1-.105-.231 9.102 9.102 0 0 1-.194-.482c-.016-.04-.03-.083-.045-.123l-.042-.126-.042-.127a9.416 9.416 0 0 1-.408-2.102l-.005-.07-.005-.072L4.017 66a7.6 7.6 0 0 1-.007-.143l-.006-.143-.002-.146L4 65.424V34.576c0-.774.093-1.532.261-2.241a8.464 8.464 0 0 1 .72-1.965c.307-.59.675-1.102 1.09-1.499.418-.401.883-.686 1.377-.817l25.98-6.876A5.276 5.276 0 0 1 34.693 21h.154l.154.005a8.721 8.721 0 0 1 .304.026c.05.006.1.012.149.02a4.628 4.628 0 0 1 1.113.317l.112.05a6.642 6.642 0 0 1 .221.108 6.643 6.643 0 0 1 .368.215 4.173 4.173 0 0 1 .252.173 5.345 5.345 0 0 1 .59.514l.075.076.074.078.073.08.07.082c.045.054.082.102.117.146.036.045.068.086.096.124.03.038.055.074.081.11l.072.102.06.09c.02.029.04.059.058.09.02.03.04.06.058.091.02.031.038.063.057.094a6.412 6.412 0 0 1 .406.825 7.522 7.522 0 0 1 .307.918" stroke-opacity=".2" stroke="#A8A0FB" stroke-width=".2" fill-opacity=".2" fill="#CACAF1" stroke-linecap="square"/><g><g transform="translate(96 54)"><use fill="#000" filter="url(#h)" xlink:href="#i"/><use fill="#D8D5F6" xlink:href="#i"/></g><path d="M1.21 12.126C.594 10.874.233 9.356.233 7.718c0-1.996.538-3.816 1.42-5.187a7.14 7.14 0 0 1 .37-.525C2.994.76 4.282-.002 5.692-.002c1.158 0 2.232.512 3.117 1.383.107.106.213.217.315.333.024.028.048.054.071.083 1.2 1.416 1.963 3.545 1.963 5.92 0 4.267-2.448 7.731-5.466 7.731-1.68 0-3.185-1.08-4.188-2.776l-.057-.101a8.28 8.28 0 0 1-.236-.445" fill="url(#j)" transform="translate(96 54)"/><path d="M3.84 6.068a.427.427 0 0 0-.089.132.578.578 0 0 0-.045.167l-.002.066.002.063v.378l.284-.005.05.003.045-.004 2.861-.047a.088.088 0 0 1 .07.035.146.146 0 0 1 .03.086v.616c0 .102-.017.2-.047.288a.768.768 0 0 1-.13.234.598.598 0 0 1-.188.156.48.48 0 0 1-.229.055l-2.746-.045v.38l-.002.067v.03l.002.033a.632.632 0 0 0 .076.226.363.363 0 0 0 .018.025l.017.023.02.022.03.028c.01.008.02.017.032.023a.365.365 0 0 0 .07.035.254.254 0 0 0 .017.004l.018.004.017.002.019.001a.35.35 0 0 0 .055-.003.222.222 0 0 0 .019-.003l3.364.126a.534.534 0 0 1 .24.068c.074.04.141.098.198.169.056.07.103.154.135.245.031.092.049.192.049.297v.633a.127.127 0 0 1-.032.087.103.103 0 0 1-.033.025.08.08 0 0 1-.04.007l-3.955-.277a1.167 1.167 0 0 1-.334-.078 1.291 1.291 0 0 1-.34-.205c-.104-.087-.199-.19-.282-.308a1.976 1.976 0 0 1-.213-.389A2.277 2.277 0 0 1 2.7 8.66v-2.2c0-.037 0-.074.002-.111.002-.036.004-.073.008-.109a2.562 2.562 0 0 1 .028-.212c.03-.16.075-.311.133-.453.058-.141.13-.272.213-.39.083-.117.178-.22.282-.306a1.26 1.26 0 0 1 .504-.256.987.987 0 0 1 .17-.026l3.956-.277a.094.094 0 0 1 .073.032.131.131 0 0 1 .032.087l-.001.63a.919.919 0 0 1-.05.297.84.84 0 0 1-.134.247.67.67 0 0 1-.198.17.535.535 0 0 1-.24.068l-3.488.13a.263.263 0 0 0-.117.057.338.338 0 0 0-.034.03" fill="url(#k)" transform="translate(96 54)"/></g></g></svg>
