<?xml version="1.0" encoding="UTF-8"?>
<svg width="24px" height="24px" viewBox="0 0 24 24" version="1.1" xmlns="http://www.w3.org/2000/svg" xmlns:xlink="http://www.w3.org/1999/xlink">
    <title>devops</title>
    <defs>
        <linearGradient x1="50%" y1="0%" x2="50%" y2="100%" id="linearGradient-1">
            <stop stop-color="#FFFFFF" stop-opacity="0.8" offset="0%"></stop>
            <stop stop-color="#FFFFFF" stop-opacity="0.96" offset="100%"></stop>
        </linearGradient>
    </defs>
    <g id="页面-1" stroke="none" stroke-width="1" fill="none" fill-rule="evenodd">
        <path d="M15.4298883,7.8055908 C15.8197596,7.73547092 16.2346736,7.80599737 16.5869525,8.01230797 L16.5869525,8.01230797 L16.7083612,8.0907548 L16.7666523,8.13387652 L16.8232403,8.17955519 L16.912,8.26 L19.5447707,10.8930348 L19.551,10.889 L19.6123631,10.9589819 L19.6998245,11.0808691 C20.0785027,11.6678063 20.0437144,12.496971 19.5611269,13.0811838 L19.5611269,13.0811838 L19.469,13.182 L16.915,15.736 L16.8094708,15.8328078 C16.5579698,16.0404444 16.2556978,16.169038 15.9346442,16.2079451 L15.9346442,16.2079451 L15.785476,16.219716 L15.6479609,16.2187476 L15.4940161,16.2051655 C15.1366347,16.1565899 14.7947864,15.990559 14.5266792,15.7224518 L14.5266792,15.7224518 L11.8661035,13.0618761 L9.20316869,15.7222929 L9.0894002,15.8260786 C8.93246631,15.9568669 8.75514928,16.057042 8.56449467,16.1236966 C7.95238665,16.3386373 7.26523083,16.1887184 6.79823647,15.7217241 L6.79823647,15.7217241 L4.27823006,13.2017177 L4.16796438,13.0804464 C3.61663597,12.4126207 3.65339119,11.4223935 4.27823006,10.7975546 L4.27823006,10.7975546 L6.79823647,8.27754819 L6.91950774,8.16728251 C7.58733347,7.6159541 8.57756066,7.65270932 9.20239953,8.27754819 L9.20239953,8.27754819 L11.8629752,10.9381239 L14.5259101,8.27770713 L14.6601032,8.15716489 C14.7996632,8.04446391 14.9547982,7.95550872 15.1207818,7.89229726 L15.1207818,7.89229726 L15.2645895,7.84426735 Z M15.7290446,9.1986913 L12.9277359,12 L15.7290446,14.8013087 L18.5291748,12 L15.7290446,9.1986913 Z M8,9.19773593 L5.19873593,11.999 L8,14.8002641 L10.8012641,11.999 L8,9.19773593 Z" id="形状结合" fill="url(#linearGradient-1)" fill-rule="nonzero"></path>
    </g>
</svg>