<svg width="120" height="100" viewBox="0 0 120 100" xmlns="http://www.w3.org/2000/svg" xmlns:xlink="http://www.w3.org/1999/xlink"><defs><path d="M7.372-.002c1.158 0 2.232.512 3.117 1.384.107.104.213.216.315.332.022.028.047.055.07.082 1.2 1.418 1.964 3.546 1.964 5.922 0 4.265-2.45 7.73-5.466 7.73h-1.68c3.016 0 5.465-3.465 5.465-7.73 0-2.376-.763-4.504-1.963-5.922-.023-.027-.048-.054-.07-.082a5.62 5.62 0 0 0-.316-.332C7.924.51 6.848-.002 5.692-.002h1.68z" id="b"/><filter x="-63%" y="-29.1%" width="225.9%" height="158.3%" filterUnits="objectBoundingBox" id="a"><feOffset in="SourceAlpha" result="shadowOffsetOuter1"/><feGaussianBlur stdDeviation="1.5" in="shadowOffsetOuter1" result="shadowBlurOuter1"/><feColorMatrix values="0 0 0 0 0.822129875 0 0 0 0 0.849562517 0 0 0 0 0.959293089 0 0 0 1 0" in="shadowBlurOuter1"/></filter><linearGradient x1="61.747%" y1="18.247%" x2="-102.504%" y2="276.632%" id="c"><stop stop-color="#F8F7FF" offset="0%"/><stop stop-color="#FCFCFF" offset="100%"/></linearGradient><linearGradient x1="21.833%" y1="0%" x2="91.878%" y2="119.354%" id="d"><stop stop-color="#66E4D5" offset="0%"/><stop stop-color="#36C5AB" offset="100%"/></linearGradient><linearGradient x1="6.816%" y1="36.794%" x2="68.287%" y2="57.646%" id="e"><stop stop-color="#A38DCD" offset="0%"/><stop stop-color="#6A549E" offset="100%"/></linearGradient><linearGradient x1="-16.214%" y1="50%" y2="50%" id="f"><stop stop-color="#F2F0FF" stop-opacity=".2" offset="0%"/><stop stop-color="#A8A0FB" stop-opacity=".5" offset="100%"/></linearGradient><linearGradient x1="67.446%" y1="38.535%" x2=".926%" y2="74.984%" id="g"><stop stop-color="#F9F8FF" offset="0%"/><stop stop-color="#DCD8FF" offset="100%"/></linearGradient><path d="M4.256 0c.7 0 1.349.322 1.884.87.065.066.129.137.19.21.014.017.03.034.043.052.725.891 1.187 2.23 1.187 3.725 0 2.684-1.48 4.863-3.304 4.863H3.24c1.824 0 3.304-2.18 3.304-4.863 0-1.494-.461-2.834-1.187-3.725-.013-.018-.028-.035-.042-.052a3.481 3.481 0 0 0-.191-.21C4.59.323 3.94 0 3.24 0h1.016z" id="i"/><filter x="-104.2%" y="-46.3%" width="308.3%" height="192.6%" filterUnits="objectBoundingBox" id="h"><feOffset in="SourceAlpha" result="shadowOffsetOuter1"/><feGaussianBlur stdDeviation="1.5" in="shadowOffsetOuter1" result="shadowBlurOuter1"/><feColorMatrix values="0 0 0 0 0.822129875 0 0 0 0 0.849562517 0 0 0 0 0.959293089 0 0 0 1 0" in="shadowBlurOuter1"/></filter><linearGradient x1="60.444%" y1="18.247%" x2="-12.51%" y2="74.984%" id="j"><stop stop-color="#F6F5FF" offset="0%"/><stop stop-color="#E9E8F6" offset="100%"/></linearGradient><linearGradient x1="21.833%" y1="0%" x2="91.878%" y2="119.354%" id="k"><stop stop-color="#66E4D5" offset="0%"/><stop stop-color="#36C5AB" offset="100%"/></linearGradient></defs><g fill="none" fill-rule="evenodd"><path d="M114.728 22.933l.035.151c.012.051.024.103.034.154.01.052.021.103.03.155a8.767 8.767 0 0 1 .128.914 10.54 10.54 0 0 1 .045.963v49.46a9.675 9.675 0 0 1-.022.687c-.005.075-.01.15-.017.225l-.011.11-.01.112-.013.108-.014.11a9.143 9.143 0 0 1-.338 1.543 7.781 7.781 0 0 1-.566 1.35c-.224.415-.48.792-.765 1.13a5.67 5.67 0 0 1-1.342 1.166 6.082 6.082 0 0 1-.433.236 5.034 5.034 0 0 1-1.233.408c-.052.01-.106.018-.161.026-.053.01-.108.017-.162.023l-.164.017-.165.012c-.056.003-.11.005-.166.005-.056.002-.112.002-.167.002l-.17-.005a5.432 5.432 0 0 1-.68-.076 5.61 5.61 0 0 1-.52-.115l-28.146-7.59a2.96 2.96 0 0 1-.779-.34 4.034 4.034 0 0 1-.713-.56 5.625 5.625 0 0 1-.635-.75 7.185 7.185 0 0 1-.546-.905c-.042-.08-.082-.164-.122-.247-.039-.083-.077-.17-.114-.255a10.158 10.158 0 0 1-.21-.532l-.048-.136-.046-.138-.045-.14a10.544 10.544 0 0 1-.442-2.32l-.006-.078-.005-.079a16.267 16.267 0 0 1-.013-.237c-.003-.052-.005-.105-.006-.158l-.003-.16-.002-.16V32.981c0-.855.1-1.692.283-2.474a9.45 9.45 0 0 1 .779-2.167c.333-.653.732-1.217 1.181-1.655.453-.443.957-.757 1.492-.902l28.146-7.587a5.628 5.628 0 0 1 1.37-.196h.167l.166.006a9.278 9.278 0 0 1 .33.029c.053.007.108.013.161.023.055.007.109.017.162.026a4.935 4.935 0 0 1 1.044.324l.121.055.121.057.119.06.118.065a7.166 7.166 0 0 1 .28.173 4.516 4.516 0 0 1 .273.191 5.818 5.818 0 0 1 .64.567l.081.084.08.087.079.088c.025.03.05.06.077.09l.126.162.104.136.087.121.078.113.065.099c.022.032.043.065.063.1.023.032.043.067.063.1l.062.104a7.976 7.976 0 0 1 .772 1.923c.014.05.025.1.038.15z" stroke-opacity=".2" stroke="#A8A0FB" stroke-width=".2" fill-opacity=".2" fill="#CACAF1" stroke-linecap="square"/><g transform="translate(96 30)"><use fill="#000" filter="url(#a)" xlink:href="#b"/><use fill="#D8D5F6" xlink:href="#b"/></g><path d="M1.21 12.126C.594 10.874.233 9.356.233 7.718c0-1.996.538-3.816 1.42-5.187a7.14 7.14 0 0 1 .37-.525C2.994.76 4.282-.002 5.692-.002c1.158 0 2.232.512 3.117 1.383.107.106.213.217.315.333.024.028.048.054.071.083 1.2 1.416 1.963 3.545 1.963 5.92 0 4.267-2.448 7.731-5.466 7.731-1.68 0-3.185-1.08-4.188-2.776l-.057-.101a8.28 8.28 0 0 1-.236-.445" fill="url(#c)" transform="translate(96 30)"/><path d="M3.84 6.068a.427.427 0 0 0-.089.132.578.578 0 0 0-.045.167l-.002.066.002.063v.378l.284-.005.05.003.045-.004 2.861-.047a.088.088 0 0 1 .07.035.146.146 0 0 1 .03.086v.616c0 .102-.017.2-.047.288a.768.768 0 0 1-.13.234.598.598 0 0 1-.188.156.48.48 0 0 1-.229.055l-2.746-.045v.38l-.002.067v.03l.002.033a.632.632 0 0 0 .076.226.363.363 0 0 0 .018.025l.017.023.02.022.03.028c.01.008.02.017.032.023a.365.365 0 0 0 .07.035.254.254 0 0 0 .017.004l.018.004.017.002.019.001a.35.35 0 0 0 .055-.003.222.222 0 0 0 .019-.003l3.364.126a.534.534 0 0 1 .24.068c.074.04.141.098.198.169.056.07.103.154.135.245.031.092.049.192.049.297v.633a.127.127 0 0 1-.032.087.103.103 0 0 1-.033.025.08.08 0 0 1-.04.007l-3.955-.277a1.167 1.167 0 0 1-.334-.078 1.291 1.291 0 0 1-.34-.205c-.104-.087-.199-.19-.282-.308a1.976 1.976 0 0 1-.213-.389A2.277 2.277 0 0 1 2.7 8.66v-2.2c0-.037 0-.074.002-.111.002-.036.004-.073.008-.109a2.562 2.562 0 0 1 .028-.212c.03-.16.075-.311.133-.453.058-.141.13-.272.213-.39.083-.117.178-.22.282-.306a1.26 1.26 0 0 1 .504-.256.987.987 0 0 1 .17-.026l3.956-.277a.094.094 0 0 1 .073.032.131.131 0 0 1 .032.087l-.001.63a.919.919 0 0 1-.05.297.84.84 0 0 1-.134.247.67.67 0 0 1-.198.17.535.535 0 0 1-.24.068l-3.488.13a.263.263 0 0 0-.117.057.338.338 0 0 0-.034.03" fill="url(#d)" transform="translate(96 30)"/><path d="M98.215 79.914a11.506 11.506 0 0 1-.013.567 10.859 10.859 0 0 1-.049.69l-.014.137-.007.067-.008.067-.017.134c-.089.667-.231 1.303-.42 1.9a9.619 9.619 0 0 1-.706 1.665c-.277.51-.596.978-.952 1.396a7.175 7.175 0 0 1-1.413 1.277 6.046 6.046 0 0 1-.798.462c-.054.027-.109.051-.163.077l-.166.071-.166.067-.169.063-3.153 1.104.072-.028a4.238 4.238 0 0 0 .335-.14 5.12 5.12 0 0 0 .439-.22 7.655 7.655 0 0 0 .53-.326 7.1 7.1 0 0 0 1.424-1.305c.359-.428.68-.906.962-1.431.281-.526.52-1.099.712-1.71.19-.614.334-1.267.424-1.954l.018-.139.015-.137.028-.28c.008-.095.015-.19.02-.285a11.59 11.59 0 0 0 .029-.871V18.205a13.236 13.236 0 0 0-.218-2.376l-.038-.196-.042-.194-.044-.193-.048-.19a11.337 11.337 0 0 0-.418-1.282 10.138 10.138 0 0 0-.552-1.153l-.078-.13-.038-.065-.12-.19-.083-.125c-.031-.048-.063-.095-.098-.143a5.692 5.692 0 0 0-.239-.326l-.158-.203a8.468 8.468 0 0 1-.097-.115l-.1-.112-.1-.109-.102-.107a10.07 10.07 0 0 0-.193-.194 7.325 7.325 0 0 0-.611-.524c-.055-.042-.112-.083-.17-.124l-.085-.06-.087-.058c-.057-.04-.116-.076-.175-.113l-.178-.106a6.019 6.019 0 0 0-.148-.082l-.15-.077-.151-.072-.153-.069-.056-.024-.056-.024-.11-.045-.058-.022-.035-.014 1.491.522 1.625.57c.038.015.075.027.113.041.037.014.075.028.112.044l.112.044.108.047.153.068.15.073.148.074.147.08c.06.035.12.07.177.106l.175.11.17.116.169.121a7.06 7.06 0 0 1 .795.703l.102.105.099.107.098.11c.034.037.065.074.097.111l.158.2c.047.06.09.115.129.168.04.052.074.1.108.15.034.046.066.092.097.14l.041.06.04.06c.028.041.053.082.08.124.026.04.053.083.077.125.027.042.051.084.077.127a8.967 8.967 0 0 1 .547 1.123c.082.199.155.401.225.61.069.208.132.421.19.638l.047.185.044.186.041.19a11.72 11.72 0 0 1 .198 1.315 13.506 13.506 0 0 1 .055 1.183v60.79z" fill="#AC9AD4"/><path d="M48.62 6.057c.017.063.03.126.047.19l.044.191c.015.064.03.13.042.195.013.065.027.13.038.196a11.179 11.179 0 0 1 .162 1.157 13.449 13.449 0 0 1 .056 1.219v62.627a12.348 12.348 0 0 1-.013.584 21.368 21.368 0 0 1-.036.571l-.014.14-.013.141c-.006.046-.01.092-.017.138l-.017.139c-.09.687-.233 1.339-.425 1.953a9.894 9.894 0 0 1-.711 1.71 8.388 8.388 0 0 1-.961 1.432 7.15 7.15 0 0 1-1.687 1.475 7.628 7.628 0 0 1-.543.299 6.295 6.295 0 0 1-1.549.517 5.257 5.257 0 0 1-.203.033 3.862 3.862 0 0 1-.203.03c-.07.006-.138.015-.207.02l-.207.016a6.24 6.24 0 0 1-.21.007l-.21.001-.211-.006a6.775 6.775 0 0 1-.856-.096 7.006 7.006 0 0 1-.653-.146l-35.37-9.61a3.705 3.705 0 0 1-.978-.43 5.076 5.076 0 0 1-.896-.71 7.11 7.11 0 0 1-.799-.949 9.112 9.112 0 0 1-.686-1.146 12.933 12.933 0 0 1-.152-.313 13.53 13.53 0 0 1-.144-.323 12.924 12.924 0 0 1-.265-.673l-.06-.172-.057-.175a8.071 8.071 0 0 1-.11-.357 13.432 13.432 0 0 1-.502-2.758c-.002-.032-.004-.065-.008-.099-.002-.034-.005-.066-.006-.1a10.897 10.897 0 0 1-.016-.3c-.004-.066-.006-.134-.008-.2-.001-.068-.004-.136-.004-.204L0 62.07V18.969c0-1.083.126-2.142.356-3.132.228-.995.562-1.926.978-2.744.42-.826.92-1.541 1.485-2.095.57-.561 1.203-.96 1.875-1.142L40.062.248a7.029 7.029 0 0 1 1.51-.241A8.398 8.398 0 0 1 41.994 0l.209.007a11.572 11.572 0 0 1 .414.036c.067.01.136.018.203.03.069.009.136.021.203.033a6.16 6.16 0 0 1 1.312.41l.153.07a8.936 8.936 0 0 1 .3.149c.05.025.1.053.149.081a8.99 8.99 0 0 1 .353.218 5.673 5.673 0 0 1 .342.243 7.325 7.325 0 0 1 .611.525c.065.063.128.127.193.194l.102.106c.033.036.067.072.1.11l.1.111c.031.039.064.076.096.115.06.074.111.142.16.204l.13.172.11.153.097.144.082.124c.027.041.054.083.08.126.027.042.053.086.079.129.025.043.05.087.077.13a10.138 10.138 0 0 1 .97 2.435" fill="url(#e)" transform="translate(46 9)"/><path d="M31.73 53.098c.105-.07.2-.155.282-.254.082-.1.153-.213.21-.337a2.116 2.116 0 0 0 .177-.856v-4.54l-.006-.153a2.43 2.43 0 0 0-.235-.89 2.241 2.241 0 0 0-.235-.38 1.892 1.892 0 0 0-.3-.311l-2.16-1.766v-7.926l3.652-.143v7.6l2.135 1.685a1.975 1.975 0 0 1 .528.662 2.158 2.158 0 0 1 .217.703l.015.148.006.147h.002v4.35c0 .15-.017.296-.046.434-.03.137-.073.267-.131.387a1.484 1.484 0 0 1-.207.324 1.327 1.327 0 0 1-.178.173l-.1.071-.106.065h-.004l-3.06 1.603h-.002l-.07.034-3.672.923.083-.04 3.098-1.648.108-.065zm-11.592-3.293l-2.36 1.465-.084.046h-.004l-.053.025-.115.033-3.708.701.088-.028.06-.026.08-.047 2.362-1.502 3.734-.667zm.59-1.159c-.008.116-.026.23-.051.338a1.722 1.722 0 0 1-.104.301 1.432 1.432 0 0 1-.152.26 1.165 1.165 0 0 1-.195.203l-3.734.665c.073-.06.138-.13.196-.21a1.67 1.67 0 0 0 .256-.581c.027-.112.043-.228.051-.35l3.732-.626zm10.737-2.195l-1.113.66v1.585l1.113.958-3.668.734-1.124-1.005v-1.652l1.124-.681 3.668-.599zm-22.758 1.41l-.07.053h-.002L6.753 49.26l-.068.044-3.69.564.065-.046 1.873-1.38.068-.054 3.706-.527zm12.02.658v.127l-3.732.626v-.132l3.731-.621zm0-3.953v3.952l-3.732.622v-1.553l-3.51.53-.862-.86 3.734-.53.638.61v-2.3l3.731-.47zm-12.09-2.49l.065.07c.058.067.11.14.156.222.047.08.087.168.122.26a2.128 2.128 0 0 1 .126.603v3.64a1.916 1.916 0 0 1-.122.573 1.317 1.317 0 0 1-.121.232.949.949 0 0 1-.156.185L5 48.388a.961.961 0 0 0 .154-.19c.047-.073.087-.152.121-.24s.061-.181.081-.28c.02-.1.034-.204.04-.312v-1.311l-2.779.34-.687-.756v-1.292l.687-.557 2.77-.277-.007-.072-.027-.159a2.074 2.074 0 0 0-.203-.57 1.41 1.41 0 0 0-.155-.23l-.065-.074 3.706-.332zm13.83-11.988l3.71.082v.741c0 .201.027.396.079.576.051.18.126.347.22.493.094.147.207.273.335.372.097.074.202.133.314.174l.113.035 4.702 1.217-3.664.067-4.74-1.268c-.156-.04-.3-.116-.43-.219a1.538 1.538 0 0 1-.34-.387 1.974 1.974 0 0 1-.22-.512 2.237 2.237 0 0 1-.08-.6v-.467l-3.966.066V41.81l1.638 1.454.082.08a1.696 1.696 0 0 1 .348.544 2.208 2.208 0 0 1 .16.677l-3.733.471-.016-.137-.622.43v1.397l-3.734.53V45.81l.863-.613 3.474-.43-.019-.093a2.263 2.263 0 0 0-.258-.646 1.73 1.73 0 0 0-.196-.26l-.083-.084-1.639-1.515V30.52l-2.44.04-3.724-.057 3.643-.065 2.52.041.001-.085 4.51-.08 3.19.06.001-.285zM7.328 37.52v3.271l1.309 1.284-3.707.332-1.298-1.331v-3.38l3.696-.176zm4.997-3.51c0 .166-.02.326-.055.476-.035.149-.087.287-.15.41a1.24 1.24 0 0 1-.232.315.913.913 0 0 1-.19.144l-.103.048-.08.027-3.445.861a.71.71 0 0 0-.283.148 1.047 1.047 0 0 0-.227.272 1.54 1.54 0 0 0-.157.37 2.091 2.091 0 0 0-.074.438l-3.697.177c.01-.16.034-.312.073-.453.04-.142.092-.27.156-.381.065-.112.14-.208.225-.282a.694.694 0 0 1 .283-.152l3.425-.886.079-.028a.836.836 0 0 0 .292-.198c.088-.09.166-.2.23-.326a1.82 1.82 0 0 0 .15-.424c.023-.103.04-.211.048-.323l.007-.168 3.725-.065zm19.614-.233c.17.044.328.124.47.23.141.108.267.243.372.4.103.157.187.334.245.526.056.192.087.397.087.608l-3.651.143c0-.221-.033-.434-.09-.635a2.064 2.064 0 0 0-.246-.548 1.707 1.707 0 0 0-.376-.416 1.358 1.358 0 0 0-.475-.241l3.664-.067zM8.6 30.503l3.726.056v3.452l-3.726.064v-3.572zM16.13.233l3.733 1.163c.655.205 1.281.534 1.854.978a7.07 7.07 0 0 1 1.55 1.678c.45.67.815 1.443 1.076 2.302.23.76.375 1.584.42 2.46l2.709.675a6.337 6.337 0 0 1 2.297 1.113 7.96 7.96 0 0 1 1.874 2.05c.537.829.967 1.787 1.263 2.846.26.933.416 1.94.452 3l.007.561-.013.5-.03.486-.052.54-.076.55-.097.548-.193.833-.068.25-.152.497-.193.55-.215.538-.226.501-.294.578-.31.54-.299.465-.23.328-.252.332-.418.5-.282.302-.43.417-.49.418-.34.255-.348.235-.179.111-.252.146-.447.229-.528.223-.222.078-.433.13-.12.03-3.71-.082.356-.1.564-.204.665-.317.263-.148.406-.257.316-.224.373-.293.511-.458.405-.414.42-.482.539-.713.157-.23.216-.341.287-.492.281-.533.147-.305.298-.69.226-.608.18-.553.122-.425.177-.728.084-.414.076-.44.072-.519.046-.432.038-.522.024-.747v-.107c0-1.283-.163-2.494-.464-3.604a10.882 10.882 0 0 0-1.274-2.958 8.122 8.122 0 0 0-1.892-2.121l-1.311-.647.002.116-3.718-.911a11.179 11.179 0 0 0-.436-2.93 8.988 8.988 0 0 0-1.08-2.382 7.144 7.144 0 0 0-1.554-1.726L16.129.233zm-7.405 10.82l3.726.716V16l-3.726-.567v-4.38zM13.81 4.52a3.051 3.051 0 0 1 .807.106l3.734.99a3.214 3.214 0 0 0-1.21-.09c-.133.017-.267.042-.399.076-.522.134-1.051.415-1.55.805-.495.386-.959.877-1.361 1.44a7.773 7.773 0 0 0-.977 1.853 6.623 6.623 0 0 0-.402 2.069l-3.725-.716a7.078 7.078 0 0 1 .401-2.145c.24-.69.576-1.345.973-1.925.4-.587.865-1.102 1.358-1.506.498-.408 1.026-.706 1.548-.849.132-.037.265-.063.4-.082l.403-.026zm7.25 3.746l3.717.911.006.265-3.718-.9-.006-.276z" fill="url(#f)" opacity=".8" transform="translate(52 22)"/><path d="M22.466 30.86c0 .21.028.412.08.599.05.187.127.36.221.512.095.152.209.284.338.387.13.102.274.178.43.219l4.74 1.269c.172.045.332.128.475.24.143.111.271.253.376.416.106.163.19.349.248.548.057.2.088.414.088.635v7.926l2.161 1.765c.11.09.21.196.3.312a2.346 2.346 0 0 1 .469 1.27l.008.154v4.54c0 .157-.016.308-.046.453-.03.143-.074.278-.132.402a1.52 1.52 0 0 1-.21.337 1.314 1.314 0 0 1-.281.253l-.108.066-3.099 1.648-.041.022-.02.01-.021.008a41.494 41.494 0 0 1-1.066-.177 1.631 1.631 0 0 1-.146-.032c-.025-.008-.03-.014-.038-.02l-.114-.094-2.868-2.676a2.107 2.107 0 0 1-.466-.67 2.348 2.348 0 0 1-.202-.834l-.007-.142v-4.202c0-.146.014-.287.04-.42.026-.136.065-.263.115-.381a1.7 1.7 0 0 1 .182-.326 1.29 1.29 0 0 1 .243-.256l.095-.07 1.968-1.263V39.22c0-.217-.03-.427-.085-.626a2.128 2.128 0 0 0-.239-.545 1.743 1.743 0 0 0-.36-.417 1.288 1.288 0 0 0-.45-.245l-4.75-1.403a1.122 1.122 0 0 1-.411-.225 1.523 1.523 0 0 1-.324-.385c-.089-.15-.16-.322-.21-.505a2.286 2.286 0 0 1-.074-.583v-3.973l-1.233.022-1.16.02-1.092.02c-.352.006-.693.011-1.025.018v-.544h-.001v12.32l1.64 1.514.083.084a1.777 1.777 0 0 1 .348.567 2.414 2.414 0 0 1 .16.703v4.235a2.052 2.052 0 0 1-.155.664 1.453 1.453 0 0 1-.152.267c-.057.079-.124.15-.196.21l-.087.059-2.362 1.502-.084.049-.02.009-.009.004-.01.004-.02.007a.128.128 0 0 1-.019.007l-.009.004-.009.003-.009.003-.009.003-.016.004-.015.005-.013.002-.014.003c-.084-.003-.15-.003-.203-.006a1.87 1.87 0 0 1-.177-.015.204.204 0 0 1-.033-.01l-.031-.011-.029-.012-.029-.013a.68.68 0 0 0-.027-.013l-.03-.016-.028-.017-.028-.016a.35.35 0 0 1-.027-.02c-.01-.005-.02-.012-.03-.02l-.028-.02a.667.667 0 0 1-.053-.043l-.1-.092-2.207-2.29-.073-.082a1.67 1.67 0 0 1-.171-.252 2.128 2.128 0 0 1-.226-.617 2.169 2.169 0 0 1-.045-.343l-.006-.141v-3.694l.006-.124a2.032 2.032 0 0 1 .134-.627 1.45 1.45 0 0 1 .132-.258 1.14 1.14 0 0 1 .17-.207l.08-.07 1.516-1.138V30.438l-1.04.018-.95.017-.867.016-.787.013v3.573c0 .171-.018.338-.053.492a1.862 1.862 0 0 1-.15.425 1.362 1.362 0 0 1-.23.325.86.86 0 0 1-.293.198l-.08.028-3.424.886a.691.691 0 0 0-.282.152c-.086.074-.161.17-.225.282-.065.111-.117.24-.157.38a2.182 2.182 0 0 0-.073.454v3.38l1.298 1.331.065.073a1.662 1.662 0 0 1 .275.5 2.27 2.27 0 0 1 .126.623v3.763c-.005.108-.02.212-.04.311s-.047.193-.081.28a1.324 1.324 0 0 1-.12.24.956.956 0 0 1-.156.19l-.069.055-1.871 1.38-.066.045-.016.008-.015.007a.08.08 0 0 1-.016.007l-.015.007a.715.715 0 0 1-.03.011l-.02.008-.014.004c-.004 0-.008.002-.011.003l-.16-.002-.095-.004a.326.326 0 0 1-.048-.006l-.014-.004-.012-.004-.023-.01-.025-.01-.022-.01-.022-.013-.024-.013-.022-.014c-.008-.004-.015-.01-.023-.015l-.02-.014-.024-.018-.023-.018-.021-.02-.022-.018-.078-.08-1.762-2.006-.058-.073a1.383 1.383 0 0 1-.137-.222 1.956 1.956 0 0 1-.182-.55c-.018-.1-.031-.202-.036-.305L0 46.368v-3.306l.004-.11a2.069 2.069 0 0 1 .108-.564c.03-.083.065-.161.107-.232.04-.07.085-.134.136-.188l.062-.062 1.211-1.026v-6.03c0-.158.017-.311.047-.455.03-.143.074-.276.129-.395.055-.119.122-.223.198-.307a.77.77 0 0 1 .255-.192l.07-.027 3.07-.96c.104-.03.2-.088.287-.168.089-.079.167-.179.234-.297.066-.117.12-.25.16-.396.04-.147.066-.304.074-.468l.005-.126-.001-.633-.097-.023-.098-.027a3.454 3.454 0 0 1-.383-.13 4.834 4.834 0 0 1-.186-.081l-.017-.008-.033-.015-.014-.007c-.011-.004-.02-.01-.03-.014l-.028-.013a.469.469 0 0 0-.036-.019l-.031-.015-.028-.015-.028-.015-.037-.02-.031-.017a.428.428 0 0 1-.028-.016l-.026-.015-.02-.01-.016-.01a.323.323 0 0 1-.032-.02l-.015-.008-.014-.009-.027-.016a4.5 4.5 0 0 1-.67-.498.233.233 0 0 1-.03-.027l-.029-.023a.175.175 0 0 0-.023-.022.235.235 0 0 1-.022-.02l-.035-.032a.744.744 0 0 0-.029-.027l-.023-.022-.02-.02-.036-.034-.027-.028-.012-.012-.032-.031c-.013-.014-.024-.027-.035-.037l-.028-.03c-.008-.008-.016-.014-.022-.023a5.804 5.804 0 0 1-.055-.058c-.01-.01-.018-.02-.026-.03a.678.678 0 0 0-.025-.025l-.02-.023a5.634 5.634 0 0 1-.193-.229l-.09-.112a9.709 9.709 0 0 1-.087-.116l-.014-.019-.012-.017a1.378 1.378 0 0 1-.06-.082l-.03-.043c-.01-.013-.018-.023-.024-.033l-.019-.028a.279.279 0 0 1-.016-.023l-.032-.048-.024-.035-.018-.026c-.004-.01-.01-.016-.014-.024l-.033-.05-.024-.038-.017-.026a1.418 1.418 0 0 0-.014-.023l-.034-.053a.792.792 0 0 0-.022-.04l-.017-.026a3.565 3.565 0 0 0-.047-.078c-.008-.017-.016-.03-.023-.04l-.017-.03-.012-.022a1.652 1.652 0 0 1-.032-.056l-.022-.04-.016-.03-.013-.023-.06-.113-.052-.1-.045-.09c-.013-.029-.028-.057-.042-.086-.01-.024-.02-.044-.029-.06l-.019-.042a.716.716 0 0 1-.013-.028l-.01-.023a2.694 2.694 0 0 1-.064-.141l-.01-.022c-.012-.026-.02-.049-.029-.067l-.019-.045c-.004-.013-.009-.022-.012-.03a.45.45 0 0 1-.01-.024l-.028-.067a2.082 2.082 0 0 0-.019-.046c-.005-.012-.008-.023-.012-.03-.003-.01-.006-.017-.01-.024-.01-.03-.02-.05-.026-.07l-.018-.046-.012-.031c-.004-.008-.006-.016-.008-.023l-.008-.022-.008-.022-.009-.021a.28.28 0 0 0-.008-.022l-.007-.021-.008-.022-.008-.022-.007-.02a.128.128 0 0 1-.008-.025l-.008-.023-.009-.023-.009-.024-.025-.075-.017-.05-.012-.038-.01-.03-.026-.081-.02-.065a.611.611 0 0 1-.016-.051 1.309 1.309 0 0 1-.014-.046l-.019-.064c-.004-.02-.01-.034-.013-.049a1.598 1.598 0 0 1-.012-.039l-.01-.032a1.164 1.164 0 0 0-.019-.071l-.013-.05-.01-.036-.007-.028a3.923 3.923 0 0 0-.02-.074c-.005-.02-.01-.037-.012-.052l-.01-.036-.007-.03-.018-.073a1.175 1.175 0 0 0-.02-.086l-.007-.028a1.38 1.38 0 0 1-.016-.078l-.013-.054a.402.402 0 0 1-.008-.037.33.33 0 0 1-.006-.028l-.016-.076a1.91 1.91 0 0 1-.018-.09l-.007-.031c-.004-.03-.01-.055-.014-.078l-.01-.053-.007-.04a1.413 1.413 0 0 0-.02-.11l-.01-.058-.007-.042a.352.352 0 0 0-.006-.035c-.004-.034-.01-.061-.013-.087a1.725 1.725 0 0 1-.01-.069l-.01-.058a1.167 1.167 0 0 1-.007-.05l-.008-.06-.006-.05-.004-.025-.01-.068-.009-.077a2.004 2.004 0 0 0-.005-.056l-.005-.04-.004-.033c-.003-.032-.007-.058-.008-.08l-.007-.056-.003-.04a.508.508 0 0 1-.004-.032l-.006-.081-.006-.056-.003-.04-.003-.032-.006-.084-.005-.057-.002-.04-.002-.017v-.015a2.008 2.008 0 0 1-.008-.143l-.003-.04-.002-.033c0-.033-.003-.06-.003-.085l-.003-.06-.002-.043v-.034l-.004-.084-.001-.06-.001-.045-.001-.038-.002-.097v-.076l-.001-.033v-.085c0-1.229.127-2.418.356-3.52.23-1.107.565-2.133.979-3.024.417-.9.917-1.667 1.475-2.247.564-.585 1.189-.981 1.848-1.125 0-1.291.199-2.57.55-3.783A14.607 14.607 0 0 1 8.11 4.618c.633-1.053 1.386-1.99 2.208-2.738.837-.76 1.75-1.329 2.689-1.628a5.138 5.138 0 0 1 2.8-.107c.925.225 1.799.705 2.562 1.409.775.715 1.43 1.656 1.902 2.787.475 1.14.76 2.464.787 3.925l.006.276a5.85 5.85 0 0 1 3.21.176c1.025.355 1.964.996 2.767 1.875.813.89 1.479 2.024 1.945 3.341.468 1.329.73 2.835.73 4.457v.071c0 .025 0 .048-.002.071v.071c0 .025 0 .047-.002.072l-.002.104-.002.076-.001.057-.002.049a5.844 5.844 0 0 1-.005.106l-.004.076a3.965 3.965 0 0 1-.005.1l-.007.11-.005.075-.003.055-.004.042-.008.11-.007.077-.005.053c0 .016-.003.03-.003.042l-.012.11-.007.075a1.554 1.554 0 0 1-.006.054l-.005.042-.013.11-.01.077c-.001.02-.004.038-.006.054a1.41 1.41 0 0 1-.005.043l-.016.108a2.79 2.79 0 0 1-.011.077.716.716 0 0 1-.008.058l-.007.046c-.006.04-.011.075-.017.104l-.012.077-.01.058-.008.05a7.12 7.12 0 0 1-.02.115l-.017.092-.014.076-.013.069-.017.08-.014.07a3.52 3.52 0 0 1-.013.062l-.013.058-.02.095-.017.07-.012.054-.011.047-.024.1-.018.07-.012.051-.011.044-.027.099c-.006.028-.013.051-.018.07l-.014.051-.01.04a3.987 3.987 0 0 1-.05.172l-.013.05a3.143 3.143 0 0 0-.041.14l-.022.069-.016.048-.011.04-.033.1-.022.07a2.893 2.893 0 0 0-.017.049l-.013.04c-.014.037-.023.07-.033.097l-.026.07c-.005.02-.011.037-.017.053l-.015.041a4.63 4.63 0 0 1-.037.102c-.01.03-.02.055-.029.077l-.022.062c-.007.02-.015.036-.02.054l-.032.081-.03.073-.024.065c-.01.02-.017.042-.026.061-.011.03-.022.055-.032.078l-.026.062-.023.053-.02.049c-.015.032-.025.059-.037.083-.011.025-.02.044-.027.063a5.142 5.142 0 0 0-.022.049c-.007.014-.012.028-.019.04l-.04.087-.028.061c-.008.018-.014.033-.022.046l-.017.038a22.011 22.011 0 0 0-.074.15l-.02.044-.017.034c-.018.035-.034.064-.045.09l-.032.06a.877.877 0 0 1-.023.045l-.017.034-.046.086a5.27 5.27 0 0 1-.056.104l-.019.034-.048.085c-.013.024-.023.044-.033.06-.01.017-.018.03-.024.043a1.21 1.21 0 0 1-.021.035c-.018.033-.035.06-.049.084-.013.024-.026.044-.036.061l-.027.047-.023.039-.052.084-.042.067-.017.029-.017.026a.791.791 0 0 1-.031.05l-.039.06-.036.055-.034.053-.034.05-.046.068c-.014.02-.025.038-.036.052l-.028.043c-.01.012-.018.024-.026.037l-.052.073c-.016.02-.027.037-.038.053a.525.525 0 0 0-.027.038l-.024.032-.053.073-.038.05-.028.037a.257.257 0 0 1-.023.03l-.056.073-.038.05-.03.035c-.006.011-.014.02-.022.029l-.057.071-.04.05-.029.035a.596.596 0 0 0-.022.027l-.059.069c-.016.019-.03.035-.04.049l-.03.033a.213.213 0 0 1-.022.026l-.06.068-.043.049-.03.033a.365.365 0 0 1-.025.027l-.06.066-.042.046a.484.484 0 0 0-.032.034l-.026.027-.067.068-.05.052-.038.04-.034.034-.067.064a1.231 1.231 0 0 0-.048.049.824.824 0 0 0-.039.037l-.033.03a1.43 1.43 0 0 1-.061.057 1.27 1.27 0 0 1-.045.04c-.011.012-.021.022-.031.03l-.026.024c-.026.022-.047.042-.066.057a1.922 1.922 0 0 1-.075.067l-.025.022-.066.055-.045.038-.031.026-.024.02-.07.055a2.17 2.17 0 0 0-.045.037l-.031.024c-.01.007-.016.014-.024.02-.027.02-.05.039-.07.052l-.046.035-.032.025-.024.018c-.03.02-.052.036-.07.05l-.047.035c-.013.01-.024.015-.032.022l-.024.017c-.029.02-.051.036-.071.048l-.048.035a.555.555 0 0 0-.033.021l-.024.016-.073.047a.587.587 0 0 1-.05.032.337.337 0 0 1-.033.021l-.025.016-.083.05-.06.038a.544.544 0 0 1-.046.027l-.04.023-.025.015-.028.015a.357.357 0 0 1-.027.016c-.01.004-.017.01-.026.014l-.025.014-.024.013-.023.013-.024.014-.023.011-.022.012a.284.284 0 0 1-.023.012l-.022.012-.024.011-.01.007-.012.006-.024.012-.023.011-.023.012-.023.011c-.006.004-.014.007-.023.01l-.021.012-.024.01a.168.168 0 0 1-.022.012l-.023.011a.533.533 0 0 1-.045.022l-.025.01-.022.01-.024.011-.023.01-.023.011-.024.011a.183.183 0 0 1-.023.01l-.023.01-.023.01-.022.009-.023.01-.024.01c-.008.002-.015.006-.023.01-.008.002-.016.006-.024.01l-.024.008-.022.01-.024.008-.023.01-.024.01-.01.003-.013.004-.022.01a.265.265 0 0 0-.025.008l-.022.008a.145.145 0 0 1-.023.008l-.013.005-.012.004-.023.01-.024.008-.023.009-.023.007-.024.007-.022.008-.024.008a.848.848 0 0 0-.025.008l-.023.007-.025.009a.694.694 0 0 1-.045.015l-.025.007a.105.105 0 0 0-.022.006.156.156 0 0 0-.025.008l-.024.007-.023.007-.025.007-.023.006-.023.007-.024.006-.023.006-.024.007-.012.003-.06.016v.771zm5.331 16.19l-1.124.68v1.653l1.124 1.005 1.147-.661V48.04l-1.147-.992zm-14.311-1.853l-.862.613v1.447l.862.86.883-.595v-1.474l-.883-.851zM2.618 43.79l-.687.557v1.292l.687.755.701-.545v-1.312l-.7-.747zM13.007 4.628c-.522.143-1.05.44-1.55.85A7.24 7.24 0 0 0 10.1 6.981a8.234 8.234 0 0 0-.973 1.926 7.128 7.128 0 0 0-.402 2.145v4.38l-2.657.467c-.348.06-.663.263-.942.576-.276.312-.515.733-.713 1.236a8.568 8.568 0 0 0-.453 1.715 12.67 12.67 0 0 0-.16 2.031c0 .697.086 1.352.242 1.944.156.593.384 1.124.666 1.57.285.447.626.808 1.01 1.057.386.252.815.391 1.27.39l.126-.009 3.488-.214 10.417-.642.16-.01a3.85 3.85 0 0 0 1.754-.643 5.556 5.556 0 0 0 1.469-1.463 7.487 7.487 0 0 0 1.01-2.09 8.439 8.439 0 0 0 .374-2.492 7.62 7.62 0 0 0-.37-2.394 5.71 5.71 0 0 0-1-1.849 3.962 3.962 0 0 0-1.455-1.121 3.279 3.279 0 0 0-1.736-.25l-.16.03-3.335.583-.042-4.725a5.49 5.49 0 0 0-.466-2.15 4.514 4.514 0 0 0-1.12-1.542 3.679 3.679 0 0 0-1.493-.813 3.07 3.07 0 0 0-1.602.003z" fill="url(#g)" transform="translate(52 22)"/><path d="M58.714 25.335c.013.045.023.09.035.136l.033.137.03.14a7.812 7.812 0 0 1 .147.968 8.792 8.792 0 0 1 .041.872v44.823a8.611 8.611 0 0 1-.02.623l-.016.204-.01.1-.01.1c-.004.033-.007.067-.012.1l-.013.099a8.156 8.156 0 0 1-.311 1.398c-.14.437-.317.846-.523 1.223a5.996 5.996 0 0 1-.706 1.025 5.195 5.195 0 0 1-1.239 1.056 5.642 5.642 0 0 1-.4.214 4.702 4.702 0 0 1-1.138.37 3.955 3.955 0 0 1-.297.045l-.152.015-.152.01a4.704 4.704 0 0 1-.154.006l-.154.001-.156-.005a5.106 5.106 0 0 1-.869-.115 5.26 5.26 0 0 1-.24-.058l-25.98-6.877a2.758 2.758 0 0 1-.72-.309 3.715 3.715 0 0 1-.657-.507 5.123 5.123 0 0 1-.587-.68 6.489 6.489 0 0 1-.616-1.044 9.56 9.56 0 0 1-.3-.713l-.044-.123-.042-.126-.042-.127a9.416 9.416 0 0 1-.408-2.102l-.005-.07-.005-.072-.005-.072a7.599 7.599 0 0 1-.007-.143l-.006-.143-.002-.146-.002-.144V34.576c0-.774.093-1.532.261-2.241a8.464 8.464 0 0 1 .72-1.965c.307-.59.675-1.102 1.09-1.499.418-.401.883-.686 1.377-.817l25.98-6.876A5.276 5.276 0 0 1 53.693 21h.154l.154.005a8.721 8.721 0 0 1 .304.026c.05.006.1.012.149.02a4.628 4.628 0 0 1 1.113.317l.112.05a6.642 6.642 0 0 1 .221.108 6.643 6.643 0 0 1 .368.215 4.173 4.173 0 0 1 .252.173 5.345 5.345 0 0 1 .59.514l.075.076.074.078.073.08.07.082c.045.054.082.102.117.146.036.045.068.086.096.124.03.038.055.074.081.11l.072.102.06.09c.02.029.04.059.058.09.02.03.04.06.058.091.02.031.038.063.057.094a6.412 6.412 0 0 1 .406.825 7.522 7.522 0 0 1 .307.918" stroke-opacity=".2" stroke="#A8A0FB" stroke-width=".2" fill-opacity=".2" fill="#CACAF1" stroke-linecap="square"/><path d="M40.793 32.99c.01.03.017.062.026.093l.023.095c.008.032.016.064.022.096.007.032.015.064.02.097a5.166 5.166 0 0 1 .086.57 5.794 5.794 0 0 1 .03.602v30.913a5.671 5.671 0 0 1-.015.43 5.175 5.175 0 0 1-.011.14l-.007.069-.007.07-.009.068-.01.068a5.41 5.41 0 0 1-.224.964 4.702 4.702 0 0 1-.378.844c-.149.26-.32.496-.51.707a3.69 3.69 0 0 1-1.037.805 3.362 3.362 0 0 1-1.075.342l-.108.015-.11.01a6.592 6.592 0 0 1-.22.011l-.112.001-.112-.003a3.86 3.86 0 0 1-.628-.08 3.949 3.949 0 0 1-.173-.04L17.49 65.135a2.043 2.043 0 0 1-.52-.212 2.672 2.672 0 0 1-.474-.35 3.586 3.586 0 0 1-.424-.469 4.444 4.444 0 0 1-.364-.566 6.454 6.454 0 0 1-.298-.646l-.031-.085-.031-.086-.03-.088c-.01-.03-.02-.059-.028-.089a6.263 6.263 0 0 1-.266-1.36l-.005-.05-.003-.05a9.54 9.54 0 0 1-.009-.147l-.004-.1-.002-.1-.001-.099V39.363c0-.534.067-1.057.189-1.546.121-.491.298-.95.519-1.355.222-.407.488-.76.788-1.034.302-.277.638-.473.994-.563l18.764-4.743A3.96 3.96 0 0 1 37.279 30l.11.004a6.592 6.592 0 0 1 .22.018c.036.004.072.008.108.014l.107.017a3.48 3.48 0 0 1 .696.202l.082.034.08.036.08.038.078.04a4.858 4.858 0 0 1 .187.108l.092.059.09.06a2.535 2.535 0 0 1 .219.169l.105.09.102.097.054.052.054.054.052.055.052.057.084.1.069.086c.021.026.04.05.058.075l.052.07.043.062c.015.02.029.041.043.063l.042.063.04.064a4.36 4.36 0 0 1 .294.57 5.04 5.04 0 0 1 .221.633" stroke-opacity=".2" stroke="#A8A0FB" stroke-width=".2" fill-opacity=".1" fill="#CACAF1" stroke-linecap="square"/><g><g transform="translate(21 41)"><use fill="#000" filter="url(#h)" xlink:href="#i"/><use fill="#D8D5F6" xlink:href="#i"/></g><path d="M.064 4.86c0-1.256.319-2.4.842-3.263.07-.115.143-.226.22-.33C1.7.481 2.465.002 3.3.002c.687 0 1.324.322 1.85.87.063.067.126.137.186.21l.043.052c.71.89 1.164 2.23 1.164 3.725 0 2.684-1.453 4.863-3.243 4.863-.996 0-1.89-.679-2.484-1.746l-.034-.064a5.323 5.323 0 0 1-.14-.28C.278 6.847.063 5.892.063 4.86z" fill="url(#j)" transform="translate(21 41)"/><path d="M1.874 4.055a.34.34 0 0 0-.056.159l-.002.044.002.042v.252l.19-.003.033.001.03-.002 1.907-.031a.059.059 0 0 1 .047.023.098.098 0 0 1 .02.058v.41a.59.59 0 0 1-.032.192.512.512 0 0 1-.086.156.398.398 0 0 1-.126.104.32.32 0 0 1-.152.036l-1.831-.03v.254l-.002.044v.02l.002.022a.421.421 0 0 0 .051.152.242.242 0 0 0 .011.016l.012.015.013.015a.5.5 0 0 0 .02.019l.021.015a.244.244 0 0 0 .047.023.17.17 0 0 0 .012.003c.004 0 .008.002.011.003l.012.001h.013l.012.001h.012a.258.258 0 0 0 .025-.005l2.243.085c.056.002.11.017.16.045.05.027.094.065.132.112a.552.552 0 0 1 .09.164.609.609 0 0 1 .032.198v.422a.085.085 0 0 1-.021.058.069.069 0 0 1-.022.016.053.053 0 0 1-.026.005L2.04 6.985a.778.778 0 0 1-.45-.19 1.075 1.075 0 0 1-.188-.204 1.317 1.317 0 0 1-.142-.26 1.518 1.518 0 0 1-.114-.589V4.276a1.792 1.792 0 0 1 .026-.288c.02-.106.05-.208.088-.302.039-.094.087-.182.142-.26.056-.078.12-.147.189-.204a.84.84 0 0 1 .335-.171.658.658 0 0 1 .114-.017l2.637-.185a.062.062 0 0 1 .048.021.087.087 0 0 1 .021.058v.42c0 .07-.012.137-.033.198a.56.56 0 0 1-.09.165.446.446 0 0 1-.131.114.357.357 0 0 1-.16.045l-2.326.087a.175.175 0 0 0-.078.038.285.285 0 0 0-.055.06z" fill="url(#k)" transform="translate(21 41)"/></g><path d="M22.857 38.167l.017.069.017.068.015.07.014.07a3.906 3.906 0 0 1 .06.414 4.396 4.396 0 0 1 .02.436v22.412a4.305 4.305 0 0 1-.018.413l-.005.05-.005.05-.006.05-.006.05c-.033.245-.086.479-.156.698-.07.22-.158.424-.262.612-.103.188-.221.36-.353.513a2.598 2.598 0 0 1-.718.583 2.284 2.284 0 0 1-.819.259l-.075.007a4.36 4.36 0 0 1-.153.008l-.077.001-.078-.002a2.553 2.553 0 0 1-.555-.087l-12.99-3.439a1.38 1.38 0 0 1-.36-.154 1.858 1.858 0 0 1-.329-.254 2.562 2.562 0 0 1-.293-.34 3.244 3.244 0 0 1-.252-.41c-.02-.036-.038-.074-.056-.111a4.78 4.78 0 0 1-.15-.357l-.022-.062-.021-.062-.02-.064a4.708 4.708 0 0 1-.207-1.086l-.003-.036-.002-.036a3.8 3.8 0 0 1-.004-.071l-.003-.072-.001-.073L5 58.212V42.788c0-.387.046-.766.13-1.12.085-.357.207-.69.36-.983.154-.295.338-.551.545-.75a1.6 1.6 0 0 1 .689-.408l12.99-3.438a2.638 2.638 0 0 1 .71-.089l.076.003a4.36 4.36 0 0 1 .152.013l.075.01.074.012a2.314 2.314 0 0 1 .482.147l.057.025.055.026.055.027a1.355 1.355 0 0 1 .12.067 2.045 2.045 0 0 1 .128.083l.062.044a1.763 1.763 0 0 1 .151.122 5.2 5.2 0 0 1 .144.135l.038.038.036.04.037.04.035.04.059.074c.017.022.034.042.048.062l.04.054.036.052.03.044a1.181 1.181 0 0 1 .058.091c.01.016.02.031.028.047a3.206 3.206 0 0 1 .204.413 3.76 3.76 0 0 1 .153.458" stroke-opacity=".2" stroke="#A8A0FB" stroke-width=".2" fill-opacity=".08" fill="#CACAF1" stroke-linecap="square"/></g></svg>
