<svg width="156" height="120" viewBox="0 0 156 120" xmlns="http://www.w3.org/2000/svg" xmlns:xlink="http://www.w3.org/1999/xlink"><defs><path id="b" d="M304 82h1112v1037H304z"/><filter x="-.6%" y="-.5%" width="101.3%" height="101.4%" filterUnits="objectBoundingBox" id="a"><feOffset dy="2" in="SourceAlpha" result="shadowOffsetOuter1"/><feGaussianBlur stdDeviation="2" in="shadowOffsetOuter1" result="shadowBlurOuter1"/><feColorMatrix values="0 0 0 0 0.333333333 0 0 0 0 0.301960784 0 0 0 0 0.407843137 0 0 0 0.08 0" in="shadowBlurOuter1"/></filter><rect id="c" width="1080" height="178" rx="2"/><filter x="-.6%" y="-2.8%" width="101.3%" height="107.9%" filterUnits="objectBoundingBox" id="d"><feOffset dy="2" in="SourceAlpha" result="shadowOffsetOuter1"/><feGaussianBlur stdDeviation="2" in="shadowOffsetOuter1" result="shadowBlurOuter1"/><feColorMatrix values="0 0 0 0 0.333333333 0 0 0 0 0.301960784 0 0 0 0 0.407843137 0 0 0 0.08 0" in="shadowBlurOuter1"/></filter></defs><g fill="none" fill-rule="evenodd"><path fill="#302647" opacity=".06" d="M-1244-510H196V721h-1440z"/><g transform="translate(-1244 -510)"><use fill="#000" filter="url(#a)" xlink:href="#b"/><use fill="#FFF" xlink:href="#b"/></g><g transform="translate(-924)"><mask id="e" fill="#fff"><use xlink:href="#c"/></mask><use fill="#000" filter="url(#d)" xlink:href="#c"/><use fill="#FFF" xlink:href="#c"/><g mask="url(#e)" opacity=".04"><path d="M904-100h240v240H904z"/><path d="M1024-80c55.228 0 100 44.772 100 100s-44.772 100-100 100S924 75.228 924 20s44.772-100 100-100zm55.6 73.22l-50.085 20.689a3.106 3.106 0 0 0-1.939 2.867v60.11a3.11 3.11 0 0 0 1.421 2.597 3.205 3.205 0 0 0 2.98.27l50.084-20.68a3.106 3.106 0 0 0 1.939-2.867V-3.91a3.088 3.088 0 0 0-1.415-2.593 3.215 3.215 0 0 0-2.986-.278zm-114.182.276A3.092 3.092 0 0 0 964-3.91v60.114c0 1.255.762 2.38 1.942 2.867l50.084 20.68a3.215 3.215 0 0 0 2.976-.277 3.12 3.12 0 0 0 1.425-2.59v-60.11a3.106 3.106 0 0 0-1.939-2.867v.003L968.404-6.78c-.98-.404-2.1-.3-2.986.277zm71.677 47.502l31.242 12.908a1.895 1.895 0 0 1 1.198 1.797 1.896 1.896 0 0 1-1.237 1.768l-31.242 12.143a1.959 1.959 0 0 1-1.822-.198 1.888 1.888 0 0 1-.86-1.593v-25.05c0-.656.32-1.24.879-1.602a1.962 1.962 0 0 1 1.842-.173zm-24.345.172c.552.35.884.956.879 1.603v25.05h-.003a1.888 1.888 0 0 1-.857 1.593 1.959 1.959 0 0 1-1.825.195l-31.239-12.143a1.896 1.896 0 0 1-1.24-1.765 1.895 1.895 0 0 1 1.201-1.797l31.242-12.908a1.972 1.972 0 0 1 1.842.172zm63.57-38.78c.556.363.873.946.873 1.603v43.243h.003c0 .66-.323 1.242-.882 1.605a1.962 1.962 0 0 1-1.852.166l-38.899-16.348a1.92 1.92 0 0 1-1.189-1.768V19.949c0-.778.472-1.475 1.205-1.775l38.9-15.959a1.965 1.965 0 0 1 1.841.175zm-102.796-.175l38.9 15.96c.73.295 1.205.996 1.205 1.774V30.89h-.003a1.92 1.92 0 0 1-1.186 1.768l-38.9 16.345a1.962 1.962 0 0 1-1.85-.16 1.883 1.883 0 0 1-.883-1.608V3.993c0-.657.32-1.243.873-1.602a1.965 1.965 0 0 1 1.844-.176zm49.768-42.01l-53.409 20.47c-1.198.462-1.941 1.529-1.941 2.79 0 1.262.743 2.332 1.941 2.79l53.38 20.436c.712.27 1.501.27 2.213 0l53.58-20.435a2.94 2.94 0 0 0 1.946-2.79v-.004a2.942 2.942 0 0 0-1.945-2.79l-53.545-20.467a3.107 3.107 0 0 0-2.22 0zm-2.84 8.244a2.552 2.552 0 0 1 1.134 2.115V-4.77a2.567 2.567 0 0 1-1.111 2.1c-.695.48-1.582.6-2.381.318l-33.827-11.86a2.546 2.546 0 0 1-1.735-2.385 2.547 2.547 0 0 1 1.67-2.424l33.827-12.806a2.639 2.639 0 0 1 2.423.277zm9.086-.45c.316 0 .636.055.94.173l33.827 12.806a2.549 2.549 0 0 1-.061 4.81l-33.828 11.856a2.642 2.642 0 0 1-2.383-.313 2.563 2.563 0 0 1-1.112-2.102v-24.665c0-.683.276-1.337.767-1.819a2.62 2.62 0 0 1 1.85-.745z" fill="#00C1DE"/></g></g></g></svg>
