<?xml version="1.0" encoding="UTF-8"?>
<svg width="24px" height="24px" viewBox="0 0 24 24" version="1.1" xmlns="http://www.w3.org/2000/svg" xmlns:xlink="http://www.w3.org/1999/xlink">
    <title>边缘计算</title>
    <defs>
        <linearGradient x1="50%" y1="0%" x2="50%" y2="100%" id="linearGradient-1">
            <stop stop-color="#FFFFFF" stop-opacity="0.8" offset="0%"></stop>
            <stop stop-color="#FFFFFF" stop-opacity="0.96" offset="100%"></stop>
        </linearGradient>
    </defs>
    <g id="页面-1" stroke="none" stroke-width="1" fill="none" fill-rule="evenodd">
        <path d="M11.6499632,3.9 C13.3483356,3.9 14.9121028,5.22176381 15.0552819,6.82166462 L15.064,6.976 L15.1449151,6.9784705 C16.6836669,7.06516898 17.927358,8.26384942 18.0971774,9.78939796 L18.1119619,9.96682872 L18.1169492,10.1468927 C18.1169492,11.6518792 17.0753314,12.9161393 15.67319,13.2399894 C15.7119226,13.2944178 15.7673906,13.3387314 15.8325228,13.3660991 L15.9069312,13.3888974 L17.5628005,13.7200712 C17.8071639,13.7689439 17.9906681,13.9650939 18.02843,14.2049803 L18.0355932,14.2967856 L17.985603,16.2882777 L18.6805321,16.6896001 C18.8199983,16.770121 18.9189298,16.9033577 18.957292,17.0590228 L18.9728807,17.154871 L18.9745999,17.1989405 L18.9745999,18.3600734 C18.9745999,18.5211151 18.9086792,18.6734107 18.7930504,18.7844658 L18.7178377,18.8458902 L17.6749615,19.4499802 C17.536502,19.5299198 17.3729768,19.5493023 17.2196474,19.5057754 L17.1291554,19.4720912 L17.0868259,19.4499802 L16.0812553,18.8694138 C15.9417891,18.7888929 15.8428576,18.6556562 15.8044954,18.499991 L15.7889067,18.4041428 L15.7871875,17.1989405 C15.7871875,17.0378987 15.8531081,16.8856032 15.968737,16.774548 L16.0439496,16.7131237 L16.0812383,16.6896099 L16.726061,16.3748746 L16.726061,15.2764825 C16.726061,15.1168496 16.6288746,14.9765027 16.4859149,14.9176235 L16.4108586,14.8952608 L14.6521974,14.5588037 C14.4058177,14.5116677 14.2200667,14.3148831 14.1818304,14.0735342 L14.1745763,13.9811446 L14.174,13.319 L12.508,13.319 L12.4679891,16.2882801 L13.2035553,16.7153844 C13.3183141,16.7948133 13.4001537,16.9118489 13.4364111,17.0467133 L13.4548597,17.1508955 L13.4569039,17.1989405 L13.4568203,18.3641608 L13.4549337,18.4082294 C13.4435256,18.5473279 13.3830896,18.6767208 13.2844223,18.7755529 L13.2034222,18.8436209 L13.1628361,18.8694138 L12.153383,19.4521086 L12.110957,19.4740485 C11.9866251,19.5318196 11.8469553,19.5438688 11.7139384,19.5090305 L11.6157667,19.4740922 L11.5691299,19.4499802 L10.5600613,18.8672977 L10.5228402,18.8436295 C10.4080813,18.7642006 10.3262418,18.647165 10.2899843,18.5123006 L10.2715357,18.4081184 L10.2694915,18.3600734 L10.2695751,17.194853 L10.2714618,17.1507845 C10.2828698,17.011686 10.3433058,16.882293 10.4419731,16.783461 L10.5229732,16.7153929 L10.5635369,16.6896131 L11.208687,16.3746356 L11.208,13.32 L9.7,13.32 L9.7000236,13.9811446 C9.7000236,14.2123958 9.56507622,14.4184063 9.35891635,14.5144041 L9.26638799,14.5485635 L9.22240247,14.5588037 L7.46374127,14.8952608 C7.31692096,14.9233496 7.20182836,15.0323946 7.16300688,15.1692054 L7.1501583,15.2396784 L7.09855585,16.2882818 L7.83406375,16.7153844 C7.94882257,16.7948133 8.03066214,16.9118489 8.0669196,17.0467133 L8.0853682,17.1508955 L8.08741238,17.1989405 L8.08732881,18.3641608 L8.08544214,18.4082294 C8.07403408,18.5473279 8.01359806,18.6767208 7.9149308,18.7755529 L7.8339307,18.8436209 L7.79334458,18.8694138 L6.78389148,19.4521086 L6.74146547,19.4740485 C6.61713358,19.5318196 6.47746377,19.5438688 6.34444686,19.5090305 L6.24627521,19.4740922 L6.19963839,19.4499802 L5.19056974,18.8672977 L5.15334863,18.8436295 C5.0385898,18.7642006 4.95675024,18.647165 4.92049277,18.5123006 L4.90204418,18.4081184 L4.9,18.3600734 L4.90197024,17.1507845 C4.91337829,17.011686 4.97381432,16.882293 5.07248158,16.783461 L5.15348168,16.7153929 L5.19405799,16.6896058 L5.83900665,16.3748746 L5.83900665,14.2967856 C5.83900665,14.0670374 5.97223864,13.8620247 6.17648176,13.7652196 L6.26818074,13.7306 L7.96766868,13.3888974 C8.06053282,13.3703245 8.14043425,13.3193489 8.19608727,13.2495708 C6.77607294,12.9391845 5.71355932,11.667901 5.71355932,10.1468927 C5.71355932,8.47209068 6.81761782,7.07644459 8.18128105,6.97889181 L8.236,6.976 L8.23957041,6.89751392 C8.33864305,5.38123212 9.70533412,4.09631115 11.2826975,3.92048714 L11.4655758,3.90517173 L11.6499632,3.9 Z M17.371,17.4456441 L17.0965866,17.5576271 L17.0465866,17.9147842 L17.3308937,18.136664 L17.665,17.9436441 L17.665,17.6146441 L17.371,17.4456441 Z M6.493,17.4506441 L6.209,17.6146441 L6.209,17.9536441 L6.44370619,18.136664 L6.778,17.9436441 L6.778,17.6146441 L6.493,17.4506441 Z M11.854,17.4456441 L11.5788906,17.5576271 L11.5288906,17.9147842 L11.8131977,18.136664 L12.147,17.9436441 L12.147,17.6146441 L11.854,17.4456441 Z M11.6499632,5.43628101 C10.7688536,5.43628101 9.88826585,6.10608484 9.77329486,6.88257943 L9.76135326,7.01288651 L9.76028003,8.40972734 L9.66028003,8.50972734 L8.33397793,8.50972722 C7.70358199,8.51069373 7.24001474,9.2074918 7.24001474,10.1468927 C7.24001474,10.9803308 7.85901826,11.6712591 8.66099511,11.7715088 L8.80433106,11.7829771 L8.86440848,11.784058 L15.0080469,11.7835319 C15.8873008,11.7614361 16.5904937,11.0350393 16.5904937,10.1468927 C16.5904937,9.31345452 15.9714902,8.62252619 15.1695134,8.52227647 L15.0261774,8.51080818 L13.6560704,8.50972734 L13.556078,8.41095656 L13.5391234,7.03113506 C13.5183341,6.19156784 12.5856405,5.43628101 11.6499632,5.43628101 Z" id="形状结合" fill="url(#linearGradient-1)" fill-rule="nonzero"></path>
    </g>
</svg>