<svg width="96" height="96" viewBox="0 0 96 96" xmlns="http://www.w3.org/2000/svg"><defs><linearGradient x1="50%" y1="0%" x2="50%" y2="100%" id="a"><stop stop-color="#FFF" stop-opacity="0" offset="0%"/><stop stop-color="#FFF" stop-opacity=".3" offset="100%"/></linearGradient><linearGradient x1="100%" y1="50%" x2="0%" y2="50%" id="b"><stop stop-color="#FFF" stop-opacity=".04" offset="0%"/><stop stop-color="#FFF" stop-opacity=".4" offset="100%"/></linearGradient><linearGradient x1="100%" y1="50%" x2="0%" y2="50%" id="c"><stop stop-color="#FFF" stop-opacity="0" offset="0%"/><stop stop-color="#FFF" stop-opacity=".2" offset="100%"/></linearGradient><linearGradient x1="45.695%" y1="38.715%" x2="75.51%" y2="100%" id="d"><stop stop-color="#A051FF" stop-opacity="0" offset="0%"/><stop stop-color="#A051FF" stop-opacity=".3" offset="100%"/></linearGradient><linearGradient x1="50%" y1="0%" x2="50%" y2="99.415%" id="e"><stop stop-color="#FFF" stop-opacity=".8" offset="0%"/><stop stop-color="#FFF" stop-opacity=".1" offset="100%"/></linearGradient></defs><g fill="none" fill-rule="evenodd"><path d="M0 0h96v96H0z"/><path d="M24.944 51h30.112a4 4 0 0 1 1.789.422L76 61H4l19.155-9.578a4 4 0 0 1 1.79-.422z" fill="url(#a)" transform="translate(8 12)"/><path d="M76 61v10a2 2 0 0 1-2 2H6a2 2 0 0 1-2-2V61h72zm-61.122 3H9.904c-.16 0-.315.019-.463.055A1.881 1.881 0 0 0 8.057 65.4a1.805 1.805 0 0 0-.057.45v2.3c0 .155.02.306.057.45.17.66.705 1.18 1.384 1.345.148.036.304.055.463.055h4.974a.122.122 0 0 0 .122-.122v-.79a.488.488 0 0 0-.488-.488H9.995c-.093-.001-.28-.02-.39-.1a.459.459 0 0 1-.162-.27l-.002-.009V67.7h3.836l.087-.008c.228-.041.4-.24.4-.48v-.79a.122.122 0 0 0-.121-.122H9.44v-.385c0-.265.087-.361.186-.431a.497.497 0 0 1 .212-.084h-.015 4.688c.27 0 .488-.218.488-.488v-.79a.122.122 0 0 0-.122-.122zM67.5 66h-5a.5.5 0 0 0-.492.41L62 66.5v1a.5.5 0 0 0 .41.492l.09.008h5a.5.5 0 0 0 .492-.41L68 67.5v-1a.5.5 0 0 0-.5-.5zm4 0h-1a.5.5 0 0 0-.492.41L70 66.5v1a.5.5 0 0 0 .41.492l.09.008h1a.5.5 0 0 0 .492-.41L72 67.5v-1a.5.5 0 0 0-.5-.5z" fill="url(#b)" transform="translate(8 12)"/><path fill="url(#c)" d="M5.002 60.5h69.997L76 61v.5H4V61z" transform="translate(8 12)"/><g transform="translate(8 12)" fill="url(#d)"><path d="M40 56L0 36 40 0zM40 56l40-20L40 0z"/><path d="M40 56L0 12.062 40 0z"/><path d="M40 56L20 0h40z"/><path d="M40 56l40-43.938L40 0z"/></g><path d="M24 12h48v48H24z"/><path d="M24.2 4.115l16.92 9.77a.4.4 0 0 1 .2.346v19.538a.4.4 0 0 1-.2.346l-16.92 9.77a.4.4 0 0 1-.4 0l-16.92-9.77a.4.4 0 0 1-.2-.346V14.231a.4.4 0 0 1 .2-.346l16.92-9.77a.4.4 0 0 1 .4 0zm7.214 12.814a2 2 0 0 0-2.828 2.828L32.828 24l-4.242 4.243a2 2 0 0 0 2.828 2.828l5.657-5.657a2 2 0 0 0 0-2.828zm-14.828 0l-5.657 5.657a2 2 0 0 0 0 2.828l5.657 5.657a2 2 0 0 0 2.828-2.828L15.172 24l4.242-4.244a2 2 0 0 0-2.828-2.828z" fill="url(#e)" transform="translate(24 12)"/></g></svg>