<svg width="16" height="16" viewBox="0 0 16 16" xmlns="http://www.w3.org/2000/svg"><defs><linearGradient x1="100%" y1="47.148%" x2="0%" y2="50%" id="a"><stop stop-color="#FFF" stop-opacity=".8" offset="0%"/><stop stop-color="#FFF" offset="100%"/></linearGradient><linearGradient x1="47.462%" y1="-7.359%" x2="50%" y2="100%" id="b"><stop stop-color="#FFF" stop-opacity=".8" offset="0%"/><stop stop-color="#FFF" offset="100%"/></linearGradient><linearGradient x1="100%" y1="50%" x2="0%" y2="50%" id="c"><stop stop-color="#FFF" offset="0%"/><stop stop-color="#FFF" stop-opacity=".8" offset="100%"/></linearGradient><linearGradient x1="100%" y1="50%" x2="0%" y2="50%" id="d"><stop stop-color="#FFF" offset="0%"/><stop stop-color="#FFF" stop-opacity=".8" offset="100%"/></linearGradient></defs><g fill="none" fill-rule="evenodd"><path d="M15.987.343v1.303c0 .908-.737 1.645-1.646 1.645H2.704A2.703 2.703 0 0 0 0 5.995V4.35A4.357 4.357 0 0 1 4.35 0l11.294.001c.19 0 .343.154.343.343z" fill="url(#a)" transform="translate(0 1)"/><path d="M5.995 14.106H4.35c-.364 0-.719-.045-1.058-.13A4.363 4.363 0 0 1 .13 10.816 4.36 4.36 0 0 1 0 9.757V5.995a2.703 2.703 0 0 1 2.704-2.704h1.483A1.068 1.068 0 0 0 3.28 4.35c0 .053.003.105.011.154v5.113a.963.963 0 0 0 0 .308v1.478a2.705 2.705 0 0 0 2.704 2.704" fill="url(#b)" transform="translate(0 1)"/><path d="M13.166 5.75v1.303c0 .909-.737 1.646-1.646 1.646H3.291V5.407h.896l.021.003a1.104 1.104 0 0 0 .282 0l.022-.003h8.31c.19 0 .344.154.344.343z" fill="url(#c)" transform="translate(0 1)"/><path d="M15.644 14.106H5.995a2.705 2.705 0 0 1-2.704-2.704V9.924c.026.175.093.337.194.473a1.057 1.057 0 0 0 1.09.417h9.766c.909 0 1.646.738 1.646 1.646v1.303c0 .19-.154.343-.343.343z" fill="url(#d)" transform="translate(0 1)"/></g></svg>
