<?xml version="1.0" standalone="no"?><!DOCTYPE svg PUBLIC "-//W3C//DTD SVG 1.1//EN" "http://www.w3.org/Graphics/SVG/1.1/DTD/svg11.dtd"><svg t="1616057902324" class="icon" viewBox="0 0 3982 1024" version="1.1" xmlns="http://www.w3.org/2000/svg" p-id="3726" xmlns:xlink="http://www.w3.org/1999/xlink" width="777.734375" height="200"><defs><style type="text/css"></style></defs><path d="M753.009778 239.075556V313.116444c0 25.429333-20.622222 46.051556-46.051556 46.051556H280.376889h1.336889c-6.997333 1.080889-13.937778 3.84-19.342222 7.850667-9.045333 6.627556-16.981333 15.616-16.981334 40.590222v36.152889h383.317334c6.343111 0 11.491556 5.148444 11.491555 11.52V529.322667c0 25.429333-20.593778 46.051556-46.023111 46.051555H245.390222v48.981334l0.142222 0.910222c0.910222 4.664889 4.551111 17.692444 14.791112 25.315555 10.097778 7.537778 27.164444 9.301333 35.669333 9.386667h410.965333c25.429333 0 46.08 20.622222 46.08 46.08V780.060444a11.52 11.52 0 0 1-11.548444 11.491556H287.687111a174.392889 174.392889 0 0 1-42.296889-5.176889 174.421333 174.421333 0 0 1-126.435555-126.435555A174.364444 174.364444 0 0 1 113.777778 617.671111v-216.206222c0-14.563556 1.792-28.757333 5.176889-42.296889a174.193778 174.193778 0 0 1 126.435555-126.435556A174.392889 174.392889 0 0 1 287.687111 227.555556h453.802667c6.371556 0 11.52 5.148444 11.52 11.52zM1302.954667 359.168v65.792c0 20.764444-16.839111 37.603556-37.603556 37.603556h-206.819555a140.714667 140.714667 0 0 0-116.138667 61.098666 140.003556 140.003556 0 0 0-24.860445 79.928889v188.017778H814.08v-164.522667h1.137778a244.423111 244.423111 0 0 1 12.231111-103.395555 244.622222 244.622222 0 0 1 90.055111-119.779556 243.057778 243.057778 0 0 1 140.999111-44.743111h244.423111zM1697.763556 359.168v103.395556h-173.909334a112.839111 112.839111 0 0 0 0 225.621333h173.909334v103.395555h-173.909334a215.352889 215.352889 0 0 1-112.810666-31.715555 216.832 216.832 0 0 1-71.68-71.68 215.239111 215.239111 0 0 1-31.715556-112.810667c0-41.358222 11.605333-79.928889 31.715556-112.810666a216.832 216.832 0 0 1 71.68-71.68 215.352889 215.352889 0 0 1 112.810666-31.715556h173.909334z" fill="#ffffff" p-id="3727"></path><path d="M1693.070222 791.608889h103.395556V227.555556h-65.792c-20.764444 0-37.603556 16.839111-37.603556 37.603555v526.421333zM2346.382222 791.608889h-103.395555V493.084444c0-16.867556-13.653333-30.549333-30.549334-30.549333h-213.845333c-20.764444 0-37.603556-16.839111-37.603556-37.603555v-65.792h251.448889a133.774222 133.774222 0 0 1 133.973334 133.973333v298.439111z" fill="#ffffff" p-id="3728"></path><path d="M1991.537778 688.184889h256.142222v103.395555h-256.142222a133.774222 133.774222 0 0 1-133.973334-133.973333c0-10.524444 1.223111-20.707556 3.584-30.520889a133.774222 133.774222 0 0 1 130.389334-103.424h256.142222v103.424h-256.142222a30.549333 30.549333 0 1 0 0 61.098667zM2945.706667 170.666667c115.825778 0 218.112 58.083556 279.552 146.773333a234.325333 234.325333 0 0 1 165.319111-67.982222 234.581333 234.581333 0 0 1 175.559111 78.762666h6.912a210.062222 210.062222 0 0 1 0 420.096H3191.182222A338.659556 338.659556 0 0 1 2945.706667 853.333333a338.659556 338.659556 0 0 1-245.475556-105.016889h-15.502222a210.062222 210.062222 0 0 1-26.794667-418.417777C2718.151111 234.211556 2824.533333 170.666667 2945.706667 170.666667z m-105.898667 256H2699.377778a110.961778 110.961778 0 0 0-93.809778 170.040889 110.961778 110.961778 0 0 0 93.809778 51.768888h140.458666v-36.977777a14.791111 14.791111 0 0 0-14.791111-14.791111H2699.377778a59.164444 59.164444 0 0 1 0-118.300445h140.458666V426.666667z m64.711111 0h-40.675555v169.130666a52.622222 52.622222 0 0 0 52.679111 52.679111h98.872889v-25.884444a14.791111 14.791111 0 0 0-14.791112-14.791111h-84.081777a12.003556 12.003556 0 0 1-12.003556-12.003556V426.666667z m377.031111 51.768889h-25.884444v117.361777a52.622222 52.622222 0 0 0 52.679111 52.679111h139.576889v-170.069333h-40.675556v129.393778h-98.872889a12.003556 12.003556 0 0 1-12.032-12.003556v-102.599111a14.791111 14.791111 0 0 0-14.791111-14.791111zM3664.156444 426.666667h-25.884444l-2.645333 0.227555a14.791111 14.791111 0 0 0-12.117334 14.563556v36.977778h-66.56c-16.270222 0-31.431111 4.551111-44.373333 12.458666a85.248 85.248 0 0 0-38.172444 52.224 84.707556 84.707556 0 0 0 0 40.675556 84.650667 84.650667 0 0 0 38.200888 52.195555c12.913778 7.907556 28.074667 12.487111 44.373334 12.487111h107.178666V426.666667z m-485.176888 48.071111h-86.869334l-4.096 0.142222a52.622222 52.622222 0 0 0-48.583111 52.508444v64.711112l0.170667 4.096a52.622222 52.622222 0 0 0 52.508444 48.583111h86.869334l4.096-0.170667a52.622222 52.622222 0 0 0 48.583111-52.508444V527.36l-0.170667-4.096a52.622222 52.622222 0 0 0-52.508444-48.583111z m444.529777 44.344889v88.718222h-66.56a44.316444 44.316444 0 0 1-39.424-64.682667 44.316444 44.316444 0 0 1 39.424-24.035555h66.56z m-444.529777-3.697778c6.627556 0 12.003556 5.404444 12.003555 12.003555v64.711112l-0.170667 2.161777a12.003556 12.003556 0 0 1-11.832888 9.841778h-86.869334l-2.161778-0.199111a12.003556 12.003556 0 0 1-9.841777-11.804444V527.36l0.170666-2.161778a12.003556 12.003556 0 0 1 11.832889-9.841778z" fill="#ffffff" p-id="3729"></path></svg>