<?xml version="1.0" encoding="UTF-8"?>
<svg width="64px" height="64px" viewBox="0 0 64 64" version="1.1" xmlns="http://www.w3.org/2000/svg" xmlns:xlink="http://www.w3.org/1999/xlink">
    <!-- Generator: Sketch 60 (88103) - https://sketch.com -->
    <title>fcck</title>
    <desc>Created with Sketch.</desc>
    <g id="fcck" stroke="none" stroke-width="1" fill="none" fill-rule="evenodd">
        <g id="Group" transform="translate(8.000000, 18.000000)">
            <path d="M25.5441698,1.31000396 L48.0188008,15.533405 C48.5981089,15.9000286 48.949262,16.5378277 48.949262,17.223401 L48.949262,26.1298166 C48.949262,26.8153899 48.5981089,27.453189 48.0188008,27.8198127 L25.5441698,42.0432137 C24.8910467,42.4565523 24.0582153,42.4565523 23.4050921,42.0432137 L0.930461133,27.8198127 C0.351153087,27.453189 4.85449493e-15,26.8153899 0,26.1298166 L0,17.223401 C1.69239833e-15,16.5378277 0.351153087,15.9000286 0.930461133,15.533405 L23.4050921,1.31000396 C24.0582153,0.896665346 24.8910467,0.896665346 25.5441698,1.31000396 Z" id="Polygon-Copy复制" fill="#FFFFFF" fill-rule="nonzero"></path>
            <polygon id="Path-62" fill-opacity="0.4" fill="#E5E5EC" points="24 31 48.7115737 15.7019922 48.7115737 26.7019922 30 39"></polygon>
            <path d="M25.4934886,1.23630046 L47.9681196,14.5414187 C48.5762721,14.9014487 48.949262,15.5557117 48.949262,16.2624443 L48.949262,25.1668452 C48.949262,25.8321022 48.6184763,26.4538147 48.0667525,26.8255239 L25.5921215,41.9672076 C24.9166289,42.4223027 24.032633,42.4223027 23.3571404,41.9672076 L0.882509455,26.8255239 C0.3307857,26.4538147 3.19009495e-15,25.8321022 0,25.1668452 L0,16.2624443 C9.70657118e-17,15.5557117 0.372989854,14.9014487 0.981142372,14.5414187 L23.4557733,1.23630046 C24.0840876,0.864334602 24.8651744,0.864334602 25.4934886,1.23630046 Z" id="Polygon-Copy" stroke="#E5E5EC" stroke-width="1.2" stroke-dasharray="1" fill-rule="nonzero"></path>
            <path d="M4.54747351e-13,30.6165441 L22.9433758,15.3354157 C23.6042393,14.8952564 24.4629007,14.8877306 25.1313776,15.3162389 L49,30.6165441 L49,30.6165441" id="Path" stroke="#E5E5EC" stroke-width="1.2" stroke-dasharray="1" fill-rule="nonzero" transform="translate(24.500000, 22.808272) scale(1, -1) translate(-24.500000, -22.808272) "></path>
            <path d="M18,31 L24,39 L30,31" id="Path-57-Copy" stroke="#E5E5EC" stroke-dasharray="1" fill-rule="nonzero" transform="translate(24.000000, 35.000000) scale(1, -1) translate(-24.000000, -35.000000) "></path>
        </g>
        <g id="map-3" transform="translate(9.000000, 5.000000)" fill-rule="nonzero">
            <polygon id="Shape" fill="#F4F4FF" points="31.6333868 32.395717 33.6581415 31.2190613 45.8867925 24.1125236 40.012566 13.9668821 34.5091981 17.1039434 32.0962877 12.9364009 32.1090142 12.9290519 30.8870094 10.8183491 30.874283 10.8256981 29.01775 7.61917925 25.0725613 9.86745283 25.0721132 9.86673585 25.0044481 9.90625943 23.1297217 10.9745613 0 24.4160755 0.765735849 25.7424906 5.8844434 22.8247358 11.3758019 32.3095896 16.8798868 29.1729764 21.9876604 37.9957877 22.7570708 37.5541274 25.4660047 35.9797264 25.4660047 35.9797264 27.8704906 34.5824198 27.8704906 34.5824198"></polygon>
            <polygon id="Shape" fill="#D2D2DD" points="0 24.4160755 23.1297217 10.9745613 29.01775 7.61917925 5.8880283 21.0606934"></polygon>
            <polygon id="Shape" fill="#E2E2E9" points="5.8880283 21.0606934 29.01775 7.61917925 34.5091981 17.1039434 11.3794764 30.5455472"></polygon>
            <path d="M22.8932075,9.57591038 C22.8932075,9.57591038 22.5738821,25.4738019 22.4637358,25.4738915 C22.3535896,25.4738915 22.0326509,9.57349057 22.0326509,9.57349057 C22.0324717,9.63766038 22.0747736,9.70200943 22.1596462,9.7509434 C22.3282264,9.84827358 22.6005896,9.84827358 22.768184,9.7509434 C22.8514434,9.70254717 22.8930283,9.63936321 22.8932075,9.57591038 Z" id="Shape" fill="#FFFFFF"></path>
            <path d="M22.7659434,9.39845755 C22.9345236,9.49578774 22.9354198,9.65352358 22.7679151,9.7509434 C22.6005,9.84827358 22.3279575,9.84827358 22.1593774,9.7509434 C21.9907972,9.65361321 21.9899906,9.49587736 22.1574057,9.39845755 C22.3287642,9.29888679 22.601217,9.30345755 22.7659434,9.39845755 Z" id="Shape" fill="#E0E0E2"></path>
            <circle id="Oval" fill="#C0C0CF" cx="22.4630189" cy="5.7922217" r="5.78800943"></circle>
            <circle id="Oval" fill="#EFEFF3" cx="20.4703679" cy="4.25189623" r="1.75"></circle>
            <polygon id="Shape" fill="#D2D2DD" points="16.8827547 27.4084858 40.012566 13.9668821 45.8867925 24.1125236 22.7570708 37.5541274"></polygon>
            <polygon id="Shape" fill="#D2D2DD" points="11.3794764 30.5455472 34.5091981 17.1039434 40.012566 13.9668821 16.8827547 27.4084858"></polygon>
            <polygon id="Shape" fill="#AAA8BB" points="16.8827547 27.4084858 22.7570708 37.5541274 21.9876604 37.9957877 16.8798868 29.1729764 11.3758019 32.3095896 5.8844434 22.8247358 0.765735849 25.7424906 0 24.4160755 5.8880283 21.0606934 11.3794764 30.5455472"></polygon>
        </g>
    </g>
</svg>