<?xml version="1.0" encoding="UTF-8"?>
<svg width="24px" height="24px" viewBox="0 0 24 24" version="1.1" xmlns="http://www.w3.org/2000/svg" xmlns:xlink="http://www.w3.org/1999/xlink">
    <title>快数据</title>
    <defs>
        <linearGradient x1="50%" y1="0%" x2="50%" y2="100%" id="linearGradient-1">
            <stop stop-color="#FFFFFF" stop-opacity="0.8" offset="0%"></stop>
            <stop stop-color="#FFFFFF" stop-opacity="0.96" offset="100%"></stop>
        </linearGradient>
    </defs>
    <g id="页面-1" stroke="none" stroke-width="1" fill="none" fill-rule="evenodd">
        <path d="M12.3414897,15.7114575 L12.4914897,15.8614498 L12.491,17.138 L13.0530144,17.4636917 L13.0888452,17.4865291 C13.1903623,17.5567929 13.2666919,17.6564869 13.3095667,17.778276 L13.3353208,17.8736461 L13.3444768,17.9744335 L13.3443514,19.0353297 L13.342489,19.0777788 C13.3323973,19.2008271 13.2842247,19.3167775 13.2001896,19.4148027 L13.1304737,19.4847914 L13.0477673,19.5431144 L12.1284902,20.0736895 L12.0875967,20.0947775 C11.976459,20.1464179 11.8528178,20.1619978 11.7268521,20.138103 L11.632101,20.112727 L11.540895,20.0704969 L10.5863637,19.5171028 C10.4848467,19.446839 10.408517,19.3471451 10.3656422,19.2253559 L10.3398881,19.1299859 L10.3307322,19.0291985 L10.3308575,17.9683023 L10.3327199,17.9258531 C10.3428116,17.8028049 10.3909843,17.6868545 10.4750194,17.5888293 L10.5447352,17.5188405 L10.627408,17.460537 L11.183,17.138 L11.1837193,15.8614764 L11.3337193,15.7114575 L12.3414897,15.7114575 Z M11.837,18.271 L11.638,18.387 L11.638,18.616 L11.837,18.732 L12.036,18.616 L12.036,18.387 L11.837,18.271 Z M16.5803645,13.8355764 L17.687,14.474 L18.2487091,14.1504027 L18.2864023,14.130791 C18.398011,14.0780065 18.5225134,14.06175 18.6494233,14.085514 L18.7448932,14.1108953 L18.8367556,14.1533597 L19.755456,14.6839164 L19.7912869,14.7067538 C19.8928039,14.7770176 19.9691336,14.8767116 20.0120084,14.9985007 L20.0377625,15.0938708 L20.0469184,15.1946581 L20.0467714,16.256063 L20.0445874,16.3020218 C20.0337404,16.4240901 19.9854125,16.5389564 19.9017361,16.6360985 L19.8323843,16.7054674 L19.7502089,16.7633391 L18.8313832,17.2936786 L18.79369,17.3132903 C18.6820812,17.3660748 18.5575789,17.3823313 18.430669,17.3585673 L18.335199,17.333186 L18.2433366,17.2907216 L17.3246362,16.7601649 L17.2888054,16.7373275 C17.1872883,16.6670637 17.1109587,16.5673697 17.0680839,16.4455806 L17.0423298,16.3502105 L17.0331738,16.249462 L17.032,15.606 L15.9265024,14.9681521 L15.8715822,14.7632388 L16.3754674,13.8904841 L16.5803645,13.8355764 Z M7.31653085,13.8355897 L7.52145099,13.8904841 L8.02533619,14.7632388 L7.97043911,14.9681387 L6.863,15.607 L6.86361924,16.2555544 L6.86175688,16.2980035 C6.85166518,16.4210517 6.80349251,16.5370022 6.71945742,16.6350274 L6.64974157,16.7050161 L6.56703511,16.7633391 L5.64820935,17.2936786 L5.61051613,17.3132903 C5.49890739,17.3660748 5.37440503,17.3823313 5.24749517,17.3585673 L5.15202521,17.333186 L5.06016281,17.2907216 L4.10232325,16.735021 C4.00203252,16.6645932 3.9267193,16.5653067 3.88442997,16.4442698 L3.85903067,16.349525 L3.85,16.2494232 L3.85198772,15.1460778 C3.86207942,15.0230296 3.91025209,14.9070791 3.99428718,14.8090539 L4.06400303,14.7390652 L4.14670949,14.6807422 L5.06553525,14.1504027 L5.10322847,14.130791 C5.21483721,14.0780065 5.33933957,14.06175 5.46624943,14.085514 L5.56171939,14.1108953 L5.65354815,14.1533403 L6.21,14.474 L7.31653085,13.8355897 Z M5.356,15.491 L5.157,15.607 L5.157,15.836 L5.356,15.952 L5.555,15.836 L5.555,15.607 L5.356,15.491 Z M18.54,15.491 L18.34,15.607 L18.34,15.836 L18.54,15.952 L18.739,15.836 L18.739,15.607 L18.54,15.491 Z M18.2433366,7.15269737 C18.3840567,7.07145259 18.5503876,7.05222257 18.7036269,7.09616975 L18.7991868,7.13286738 L19.7502089,7.68007989 C19.8899133,7.76073821 19.9893457,7.89384709 20.0287488,8.05104875 L20.0450291,8.14803402 L20.0469184,9.24876085 C20.0469184,9.41125041 19.9804067,9.56491213 19.8627645,9.67761013 L19.7861666,9.7400562 L18.8367556,10.2900593 C18.6960355,10.3713041 18.5297047,10.3905341 18.3732843,10.345002 L18.2809055,10.3098893 L18.2433577,10.2900714 L17.687,9.968 L16.5803645,10.6078426 L16.3754674,10.5529349 L15.8715822,9.68018016 L15.9265024,9.47526692 L17.032,8.837 L17.0331738,8.1939958 C17.0331738,8.06400415 17.0757413,7.93966232 17.1530011,7.83742388 L17.2173277,7.76514652 L17.2939256,7.70270045 L18.2433366,7.15269737 Z M5.06016281,7.15269737 C5.2008829,7.07145259 5.36721372,7.05222257 5.5204531,7.09616975 L5.61601297,7.13286738 L6.56703511,7.68007989 C6.7077552,7.76132467 6.8075743,7.89575638 6.84635254,8.05398649 L6.86213346,8.15154526 L6.863,8.836 L7.97043911,9.47528024 L8.02533619,9.68018016 L7.52145099,10.5529349 L7.31653085,10.6078293 L6.21,9.968 L5.65358179,10.2900593 C5.54100572,10.3550551 5.41203878,10.3803615 5.28486779,10.3645718 L5.19011046,10.345002 L5.09773163,10.3098893 L5.06016281,10.2900593 L4.14670949,9.76267675 C4.0059894,9.68143197 3.9061703,9.54700027 3.86739206,9.38877016 L3.85161114,9.29121139 L3.85,9.24876085 L3.85,8.1939958 C3.85,8.03267916 3.91555945,7.88001371 4.03199853,7.76728878 L4.10785009,7.704697 L5.06016281,7.15269737 Z M18.54,8.491 L18.34,8.606 L18.34,8.836 L18.54,8.951 L18.739,8.836 L18.739,8.606 L18.54,8.491 Z M5.356,8.491 L5.157,8.606 L5.157,8.836 L5.356,8.951 L5.555,8.836 L5.555,8.606 L5.356,8.491 Z M11.9582894,8.93698471 L12.3004074,8.94533557 L12.6358311,8.96476375 L12.9609166,8.99496342 L13.2765947,9.03596675 L13.5797581,9.08736105 C14.9568775,9.34980288 15.8309663,9.9215236 15.9149324,10.6858039 L15.9212609,10.8341376 L15.9194932,10.8753344 L15.9194073,13.1146177 L15.9215822,13.1652058 C15.9215822,13.9494323 15.1163494,14.5472422 13.7925416,14.8419968 L13.5792516,14.8860016 L13.4294551,14.9129502 L13.198323,14.9486045 L12.960466,14.9783534 L12.7993703,14.9947692 C12.4999576,15.0225804 12.1891973,15.0366344 11.8715822,15.0366344 C11.6598389,15.0366344 11.4511421,15.0303882 11.2466912,15.0179708 L10.9433491,14.9947259 L10.7822479,14.9783054 L10.5447229,14.9485876 L10.3132111,14.9128632 L10.1634064,14.8859078 C8.82032658,14.629953 7.95420818,14.0792316 7.83553275,13.340445 L7.82272065,13.2155908 L7.82158224,10.808063 C7.82158224,10.0412492 8.59109198,9.45246399 9.86536817,9.15087316 L10.1639128,9.08726724 L10.4670862,9.03588863 L10.7826985,8.99491543 L10.9437942,8.97849959 C11.1033286,8.96368113 11.2661185,8.95276534 11.431616,8.94580015 L11.6818244,8.93832134 L11.9582894,8.93698471 Z M14.8091954,12.1528856 C14.5574287,12.2693094 14.2686553,12.3681611 13.9494556,12.4477739 L13.7044538,12.5038502 L13.4294551,12.5558073 L13.2760783,12.5802373 L13.1194192,12.602083 L12.960466,12.6212105 L12.7993703,12.6376264 C12.4999576,12.6654375 12.1891973,12.6794915 11.8715822,12.6794915 L11.4937745,12.6727532 L11.1238157,12.6525876 L10.7822479,12.6211625 L10.6232192,12.6020154 L10.4665698,12.5801592 L10.1634064,12.5287649 C9.78859002,12.457335 9.44708274,12.3617266 9.14811865,12.2442007 L9.003,12.182 L9.00266332,13.1652058 L9.0288801,13.1963988 L9.10213621,13.2575925 L9.15387547,13.293882 L9.2173653,13.3334374 C9.32902059,13.3993925 9.46893722,13.4650485 9.63258998,13.5258704 C10.213634,13.7418164 11.019024,13.8652058 11.8715822,13.8652058 C12.7241405,13.8652058 13.5295305,13.7418164 14.1105745,13.5258704 C14.2196764,13.4853225 14.3182288,13.442626 14.4045942,13.3993049 L14.5247974,13.3340451 L14.5882172,13.2945686 L14.682799,13.2245123 C14.7074845,13.2037754 14.7249014,13.1866295 14.7337699,13.1760017 L14.7405013,13.1653142 L14.8091954,12.1528856 Z M11.8715822,10.108063 C11.019024,10.108063 10.213634,10.2314524 9.63258998,10.4473985 C9.52348814,10.4879463 9.42493569,10.5306428 9.33857026,10.5739639 L9.2183671,10.6392237 L9.15494729,10.6787002 C9.11859898,10.7026419 9.08771918,10.7257807 9.06348854,10.7458115 L9.01192477,10.7942737 L9.004,10.806 L9.01360915,10.8254106 C9.06071075,10.8882151 9.25028102,11.0114185 9.51482201,11.1222151 L9.63258998,11.1687275 C10.213634,11.3846736 11.019024,11.508063 11.8715822,11.508063 C12.7241405,11.508063 13.5295305,11.3846736 14.1105745,11.1687275 L14.2494383,11.1136105 L14.3749636,11.0567347 L14.4614438,11.0125672 C14.5150532,10.9836841 14.5626525,10.9547239 14.6026425,10.9281835 L14.6981863,10.8583181 L14.7317822,10.8272048 C14.7351778,10.8233584 14.7374322,10.8202432 14.7384887,10.8179518 C14.7388053,10.8033047 14.7059588,10.7650191 14.6423915,10.7169935 L14.5256311,10.6398162 C14.4142517,10.5739344 14.2743204,10.5082549 14.1105745,10.4473985 C13.5295305,10.2314524 12.7241405,10.108063 11.8715822,10.108063 Z M11.9979794,3.87206588 L12.0935652,3.90815839 L12.134314,3.92950307 L13.0477673,4.45688559 C13.1884874,4.53813037 13.2883065,4.67256208 13.3270847,4.83079219 L13.3428656,4.92835095 L13.3444768,4.9708015 L13.3444768,6.02556654 C13.3444768,6.1880561 13.277965,6.34171783 13.1603229,6.45441583 L13.083725,6.5168619 L13.0477883,6.53947032 L12.491,6.861 L12.4914897,8.13855023 L12.3414897,8.28854246 L11.3337193,8.28854246 L11.1837193,8.1385236 L11.183,6.861 L10.6274417,6.53948245 C10.5148656,6.47448663 10.4284662,6.37545117 10.378555,6.257423 L10.3481242,6.16557585 L10.3323433,6.06801709 L10.3307322,6.02556654 L10.3307322,4.9708015 C10.3307322,4.80831194 10.3972439,4.65465021 10.5148861,4.54195221 L10.591484,4.47950615 L10.6274417,4.45688559 L11.540895,3.92950307 C11.6805993,3.84884475 11.8455912,3.82928817 11.9979794,3.87206588 Z M11.837,5.267 L11.638,5.383 L11.638,5.612 L11.837,5.728 L12.036,5.612 L12.036,5.383 L11.837,5.267 Z" id="形状" fill="url(#linearGradient-1)" fill-rule="nonzero"></path>
    </g>
</svg>