<svg width="90" height="90" viewBox="0 0 90 90" xmlns="http://www.w3.org/2000/svg" xmlns:xlink="http://www.w3.org/1999/xlink"><defs><linearGradient x1="154.816%" y1="104.681%" x2="-12.169%" y2="31.702%" id="a"><stop stop-color="#FFF" offset="0%"/><stop stop-color="#AB9BE6" offset="100%"/></linearGradient><linearGradient x1="135.308%" y1="133.537%" x2="-.598%" y2="22.046%" id="b"><stop stop-color="#FFF" offset="0%"/><stop stop-color="#AB9BE6" offset="100%"/></linearGradient><linearGradient x1="154.816%" y1="60.677%" x2="-12.169%" y2="46.427%" id="c"><stop stop-color="#FFF" offset="0%"/><stop stop-color="#AB9BE6" offset="100%"/></linearGradient><linearGradient x1="154.816%" y1="62.724%" x2="-12.169%" y2="45.742%" id="d"><stop stop-color="#FFF" offset="0%"/><stop stop-color="#AB9BE6" offset="100%"/></linearGradient><linearGradient x1="42.313%" y1="14.782%" x2="72.835%" y2="155.343%" id="e"><stop stop-color="#00C6FB" offset=".54%"/><stop stop-color="#005BEA" offset="100%"/></linearGradient><linearGradient x1="68.974%" y1="133.537%" x2="38.746%" y2="22.046%" id="f"><stop stop-color="#FFF" offset="0%"/><stop stop-color="#AB9BE6" offset="100%"/></linearGradient><linearGradient x1="0%" y1="50%" y2="50%" id="g"><stop stop-color="#573E94" offset="0%"/><stop stop-color="#896CBF" offset="100%"/></linearGradient><linearGradient x1="0%" y1="50%" y2="50%" id="h"><stop stop-color="#573E94" offset="0%"/><stop stop-color="#896CBF" offset="100%"/></linearGradient><linearGradient x1="0%" y1="50%" y2="50%" id="i"><stop stop-color="#573E94" offset="0%"/><stop stop-color="#896CBF" offset="100%"/></linearGradient><linearGradient x1="-.203%" y1="50.082%" x2="100.275%" y2="50.082%" id="j"><stop stop-color="#AE4AF5" offset="0%"/><stop stop-color="#7D4AF5" offset="100%"/></linearGradient><linearGradient x1="-5.093%" y1=".463%" x2="77.192%" y2="108.269%" id="k"><stop stop-color="#FFF" stop-opacity="0" offset="0%"/><stop stop-color="#FFF" stop-opacity=".471" offset="17.714%"/><stop stop-color="#FFF" offset="77.446%"/><stop stop-color="#FFF" stop-opacity="0" offset="100%"/></linearGradient><linearGradient x1="50%" y1="17.079%" x2="77.192%" y2="88.724%" id="l"><stop stop-color="#FFF" stop-opacity=".473" offset="0%"/><stop stop-color="#FFF" stop-opacity=".461" offset="66.084%"/><stop stop-color="#FFF" stop-opacity="0" offset="100%"/></linearGradient><linearGradient x1="103.767%" y1="17.443%" x2="77.192%" y2="82.378%" id="m"><stop stop-color="#FFF" stop-opacity="0" offset="0%"/><stop stop-color="#FFF" stop-opacity=".461" offset="33.916%"/><stop stop-color="#FFF" stop-opacity=".473" offset="100%"/></linearGradient><linearGradient x1="107.688%" y1="45.802%" x2="102.087%" y2="46.212%" id="n"><stop stop-color="#5F41F6" stop-opacity=".569" offset="0%"/><stop stop-color="#4D3188" offset="100%"/></linearGradient><linearGradient x1="154.816%" y1="119.152%" x2="-12.169%" y2="26.86%" id="o"><stop stop-color="#FFF" offset="0%"/><stop stop-color="#AB9BE6" offset="100%"/></linearGradient><linearGradient x1="157.486%" y1="-79.258%" x2="0%" y2="102.043%" id="p"><stop stop-color="#FFF" offset="0%"/><stop stop-color="#9785D7" offset="100%"/></linearGradient><linearGradient x1="0%" y1="50%" x2="196.973%" y2="17.413%" id="q"><stop stop-color="#573E94" offset="0%"/><stop stop-color="#896CBF" offset="100%"/></linearGradient><linearGradient x1="157.486%" y1="-79.255%" x2="0%" y2="102.042%" id="r"><stop stop-color="#FFF" offset="0%"/><stop stop-color="#9785D7" offset="100%"/></linearGradient><linearGradient x1="109.793%" y1="70.613%" x2="-12.169%" y2="40.665%" id="s"><stop stop-color="#FFF" offset="0%"/><stop stop-color="#B3A5E1" offset="100%"/></linearGradient><linearGradient x1=".008%" y1="49.986%" x2="100.003%" y2="49.986%" id="t"><stop stop-color="#4CBDFF" offset="0%"/><stop stop-color="#2AF9DE" offset="100%"/></linearGradient><linearGradient x1="-318.782%" y1="64.988%" x2="100.002%" y2="50%" id="u"><stop stop-color="#80D0BB" offset="0%"/><stop stop-color="#80FBDD" offset="58.8%"/><stop stop-color="#7CD6D6" offset="100%"/></linearGradient><linearGradient x1="-318.782%" y1="64.986%" x2="100.002%" y2="50%" id="v"><stop stop-color="#80D0BB" offset="0%"/><stop stop-color="#80FBDD" offset="58.8%"/><stop stop-color="#7CD6D6" offset="100%"/></linearGradient><linearGradient x1="-269.748%" y1="50.002%" x2="625.411%" y2="50.002%" id="w"><stop stop-color="#005BEA" offset="0%"/><stop stop-color="#0066EC" offset="17.1%"/><stop stop-color="#0085F1" offset="47.58%"/><stop stop-color="#00B6F8" offset="87.63%"/><stop stop-color="#00C6FB" offset="99.46%"/></linearGradient><linearGradient x1="-269.748%" y1="49.994%" x2="625.411%" y2="49.994%" id="x"><stop stop-color="#005BEA" offset="0%"/><stop stop-color="#0066EC" offset="17.1%"/><stop stop-color="#0085F1" offset="47.58%"/><stop stop-color="#00B6F8" offset="87.63%"/><stop stop-color="#00C6FB" offset="99.46%"/></linearGradient><linearGradient x1="-269.748%" y1="49.996%" x2="625.411%" y2="49.996%" id="y"><stop stop-color="#005BEA" offset="0%"/><stop stop-color="#0066EC" offset="17.1%"/><stop stop-color="#0085F1" offset="47.58%"/><stop stop-color="#00B6F8" offset="87.63%"/><stop stop-color="#00C6FB" offset="99.46%"/></linearGradient><linearGradient x1="-269.748%" y1="50.006%" x2="625.411%" y2="50.006%" id="z"><stop stop-color="#005BEA" offset="0%"/><stop stop-color="#0066EC" offset="17.1%"/><stop stop-color="#0085F1" offset="47.58%"/><stop stop-color="#00B6F8" offset="87.63%"/><stop stop-color="#00C6FB" offset="99.46%"/></linearGradient><linearGradient x1="0%" y1="50%" x2="135.444%" y2="50%" id="A"><stop stop-color="#3B2571" offset="0%"/><stop stop-color="#896CBF" offset="100%"/></linearGradient><linearGradient x1="65.171%" y1="101.194%" x2="13.145%" y2="-71.431%" id="B"><stop stop-color="#52E5E7" offset=".68%"/><stop stop-color="#130CB7" offset="100%"/></linearGradient><linearGradient x1="58.296%" y1="100%" x2="58.296%" y2="0%" id="D"><stop stop-color="#90FFF6" offset="0%"/><stop stop-color="#54FFCA" offset="100%"/></linearGradient><path id="C" d="M11.067 19.1L.286 12.808.38.267l10.78 6.291z"/><linearGradient x1="58.296%" y1="100%" x2="58.296%" y2="0%" id="E"><stop stop-color="#57DFD4" offset="0%"/><stop stop-color="#54FFCA" offset="100%"/></linearGradient><linearGradient x1="60.42%" y1="82.732%" x2="34.283%" y2="22.352%" id="F"><stop stop-color="#90FFF6" offset="0%"/><stop stop-color="#27DDB5" offset="100%"/></linearGradient><linearGradient x1="51.09%" y1="102.625%" x2="50%" y2="-6.593%" id="G"><stop stop-color="#7F5EE6" offset="0%"/><stop stop-color="#FFF" stop-opacity="0" offset="100%"/></linearGradient><linearGradient x1=".287%" y1="50%" x2="100.255%" y2="50%" id="H"><stop stop-color="#53D6CD" offset="0%"/><stop stop-color="#78DED3" offset="100%"/></linearGradient></defs><g fill="none" fill-rule="evenodd"><path d="M73.747 29.556l-.777-.582 1.103-3.586.345-3.31-1.94 1.656.359 1.236-7.727-2.615v-4.551L41.253 3.601l-9.983.587.09-.587-4.849.681-.341 3.288c-.046.311-.036.643.053.995.689 2.758.413 3.999-1.931 6.619-2.344 2.62-8.136 4.463-9.377 5.196-1.241.733.276 1.423.965 3.491.69 2.069 2.088 8.964-1.438 11.584-3.526 2.62-9.317 3.585-7.111 7.032 2.206 3.448 3.3 6.481-.488 8.412-3.787 1.93-5.845 4.614-5.845 4.614l5.461 3.384 5.438-1.827s4.673 4.171 15.43.724c0 0 6.205 6.619 8.825 6.067 2.62-.552 29.234-7.584 29.647-7.998.414-.413 0-3.034 0-3.034s6.206-2.482 6.895-7.86c.554-4.32 1.82-10.95 2.296-13.394l.186-.947.345-3.31s-.94 1.172-1.774 2.238z" fill="url(#a)" transform="translate(7 19)"/><path d="M.213 51.847v3.263a.6.6 0 0 0 .31.525l5.937 3.262.113-3.31-6.36-3.74z" fill="url(#b)" transform="translate(7 19)"/><path d="M11.95 53.52l-.053 3.55s4.19 4.171 15.43.724l.344-3.31s-10.273 3.379-15.72-.965z" fill="url(#c)" transform="translate(7 19)"/><path d="M36.496 60.552l-.345 3.31s26.58-6.654 29.648-7.999c0 0 1.426-1.327 1.081-4.016 0 0-21.351 6.705-30.384 8.705z" fill="url(#d)" transform="translate(7 19)"/><path d="M14.81 17.546c-.08-.135-.34 3.627-.34 3.627s2.434 3.409 2.267 7.88c0 0 1.637-5.404-1.928-11.507z" fill="url(#e)" transform="translate(7 19)"/><path d="M4.79 35.93c-.149 1.258-.104 2.273.135 3.046.42 1.363 2.163 3.434 2.673 4.31.63 1.084 1.224 2.692 1.224 3.379 0 0 .706-.908.349-2.526-.431-1.95-2.1-4.906-4.38-8.209z" fill="url(#f)" transform="translate(7 19)"/><path d="M41.598.291l-11.72.69s-4 1.516-3.31 4.274.413 4-1.93 6.62c-2.345 2.62-10.408 3.258-11.648 3.992-1.242.733-1.305 1.11-.616 3.178.69 2.068 2.088 8.963-1.438 11.583-3.526 2.62-7.737 3.899-5.53 7.346 2.206 3.447 5.57 7.685 1.782 9.615-3.264 1.665-6.173 3.636-6.915 4.148a.14.14 0 0 0 .012.238l6.288 3.612 5.378-2.068s4.964 4.413 15.72.965c0 0 6.205 6.62 8.825 6.068C39.116 60 66.59 53 66.934 52.162c.344-.838-.79-2.642-.79-2.642s6.205-2.482 6.895-7.86c.69-5.378 2.482-14.341 2.482-14.341l-2.207-1.655 1.103-3.586-8.963-3.033v-4.55L41.598.29z" fill="url(#g)" transform="translate(7 19)"/><path d="M28.19 55.02c5.96 5.76 7.432 5.498 7.822 5.564.39.067 1.54-.265 1.54-.265s17.607-4.626 21.62-5.717c4.011-1.09 7.708-2.755 7.708-2.755.423-.607-.736-2.327-.736-2.327-1.597-3.605-10.309-9.08-12.322-9.226-2.014-.146-10.087-11.98-13.634-11.972-6.993.018-3.84 8.717-5.116 11.552-1.276 2.834-3.685 4.18-4.575 6.16-.89 1.981-.102 4.328-.67 5.813-.566 1.486-2.156 2.637-2.156 2.637l.519.536z" fill="url(#h)" transform="translate(7 19)"/><path d="M12.99 15.867s6.491-1.025 12.16 1.676c5.67 2.7 12.357 11.423 12.357 11.423s-2.613 1.128-2.108 7.032c.152 1.774.532 3.902-2.279 6.749-2.841 2.878-3.013 4.356-3.046 5.047-.033.69.887 4.76-2.403 6.69 0 0-9.574 3.503-15.72-.965l-5.378 2.068L.32 51.995s-.245-.123.027-.309c.272-.185 3.37-2.292 6.61-3.978 3.24-1.687 1.454-5.328-1.551-9.734 0 0-1.51-2.75 2.342-4.85 3.852-2.1 5.908-2.738 5.513-8.603-.395-5.865-.087-6.775-.44-7.291-.354-.516-.46-1.1.169-1.363z" fill="url(#i)" transform="translate(7 19)"/><path d="M37.507 28.966s8.407-5.309 13.014-5.421c4.606-.112 7.086.91 8.574.753 1.489-.157 6.36-5.253 6.36-5.253" stroke="url(#j)" stroke-width=".594" opacity=".2" transform="translate(7 19)"/><path d="M27.396 54.687c1.997-1.309 2.995-3.554 2.995-6.735 0-2.926-1.44-7.366-4.321-13.32-.168-.347-.43-.879-.788-1.596L14.47 32.4H8" stroke="url(#k)" stroke-width=".5" transform="translate(7 19)"/><path d="M66.144 49.52c-1.795-1.074-3.817-3.152-6.066-6.234-2.249-3.081-5.648-5.402-10.196-6.961" stroke="url(#l)" stroke-width=".5" transform="translate(7 19)"/><path d="M65.454 19.045c-1.064 2.272-2.543 3.69-4.438 4.253-1.895.563-5.533 2.943-10.916 7.14" stroke="url(#m)" stroke-width=".5" transform="translate(7 19)"/><path d="M15.792 50.663c12.04 6.676 19.529 11.02 22.468 13.032.098.067 1.43.226 1.557.177 16.07-6.267 23.085-11.187 22.286-13.21-2.136-1.748-8.078-5.454-17.824-11.118L15.792 50.663z" fill="url(#n)" opacity=".564" transform="translate(7 7)"/><g><path d="M23.848 13.239l1.07 9.1c-.66.39-1.48.393-2.143.007L1.065 9.71a1.994 1.994 0 0 1-.99-1.723V.032l23.773 13.207z" transform="translate(21.9 48.238)" fill="url(#o)"/><path d="M22.416.145v7.936c0 .705-.373 1.358-.98 1.716L1.183 21.76a.686.686 0 0 1-1.035-.59v-9.194L22.416.146z" transform="translate(45.6 48.838)" fill="url(#p)"/><path d="M52.685 42.645l-20.65 12.226a2.98 2.98 0 0 1-3.027.006L7.427 42.224a.914.914 0 0 1 .02-1.589L28.48 29.052a2.981 2.981 0 0 1 3.029.086L52.7 41.493a.675.675 0 0 1-.015 1.152z" fill="url(#q)" transform="translate(15 7)"/><path d="M23.848 13.302l1.07 9.1c-.66.39-1.48.393-2.143.007L1.065 9.773a1.994 1.994 0 0 1-.99-1.723V.094l23.773 13.208z" transform="translate(21.9 35.938)" fill="url(#o)"/><path d="M22.416.208v7.935c0 .705-.373 1.358-.98 1.717L1.183 21.823a.686.686 0 0 1-1.035-.59v-9.195L22.416.208z" transform="translate(45.6 36.538)" fill="url(#r)"/><path d="M52.685 30.408l-20.65 12.225a2.98 2.98 0 0 1-3.027.007L7.427 29.986a.914.914 0 0 1 .02-1.588L28.48 16.814a2.981 2.981 0 0 1 3.029.087L52.7 29.256a.675.675 0 0 1-.015 1.152z" fill="url(#q)" transform="translate(15 7)"/><path d="M49.354 30.03L31.735 40.46a2.544 2.544 0 0 1-2.582.005L10.74 29.67a.78.78 0 0 1 .018-1.355l17.945-9.883c.811-.447 1.8-.42 2.584.074l18.08 10.541a.576.576 0 0 1-.013.982z" fill="url(#s)" transform="translate(15 7)"/><path d="M39.509 47.002l1.903 1.093c.57.33 1.234.717 1.945 1.13l.542.316c.184.112.365.21.569.283.4.15.838.221 1.27.185.433-.03.856-.164 1.227-.376l1.095-.639 1.94-1.14 1.899-1.1-1.879 1.135-1.931 1.153-1.092.648c-.377.22-.81.36-1.253.393a3.02 3.02 0 0 1-1.3-.198 3.159 3.159 0 0 1-.576-.292l-.54-.32-1.936-1.144-1.883-1.127z" fill="#DCCAFF"/><path d="M15.896 39.448c0 .595-.42.834-.938.535-.518-.299-.938-1.023-.938-1.618 0-.595.42-.834.938-.535.518.3.938 1.024.938 1.618z" fill="url(#t)" transform="translate(15 7)"/><path d="M34.158 48.37c0 .594-.42.833-.938.534-.518-.299-.938-1.023-.938-1.618 0-.595.42-.834.938-.535.518.3.938 1.024.938 1.618z" fill="#FFF" opacity=".637"/><path d="M22.391 43.264c0 .595-.42.834-.938.535-.518-.299-.938-1.023-.938-1.618 0-.594.42-.834.938-.535.518.3.938 1.024.938 1.618zM15.447 51.204c0 .595-.42.834-.938.535-.518-.299-.938-1.023-.938-1.618 0-.595.42-.834.938-.535.518.3.938 1.024.938 1.618zM18.71 53.126c0 .594-.42.834-.938.534-.518-.299-.938-1.023-.938-1.618 0-.594.42-.834.938-.535.518.3.938 1.024.938 1.619z" fill="url(#t)" transform="translate(15 7)"/><path d="M36.943 62.02c0 .595-.42.835-.938.536-.519-.3-.939-1.024-.939-1.618 0-.595.42-.834.938-.535.519.299.939 1.023.939 1.618z" fill="#FFF" opacity=".637"/><path fill="url(#u)" d="M46.105 50.222l-5.922 3.42v-1.437l5.922-3.42z" transform="translate(15 7)"/><path fill="url(#v)" d="M46.105 52.963l-5.922 3.419v-1.436l5.922-3.42z" transform="translate(15 7)"/><path fill="url(#w)" opacity=".2" d="M46.105 50.222l-1.144-.775 1.145-.661z" transform="translate(15 7)"/><path fill="url(#x)" opacity=".2" d="M46.105 52.963l-1.144-.776 1.145-.66z" transform="translate(15 7)"/><path fill="url(#u)" d="M45.881 38.24l-5.922 3.42v-1.437l5.922-3.42zM45.881 40.98L39.96 44.4v-1.436l5.922-3.42z" transform="translate(15 7)"/><path fill="url(#y)" opacity=".2" d="M45.881 38.24l-1.144-.775 1.144-.661z" transform="translate(15 7)"/><path fill="url(#z)" opacity=".2" d="M45.881 40.98l-1.144-.775 1.144-.66z" transform="translate(15 7)"/><path fill="url(#A)" d="M19.533 29.829l10.144-5.718 10.781 6.291-10.144 5.718z" transform="translate(15 7)"/><path fill="url(#B)" d="M30.267 25.838l-10.781-6.291.094-12.543 10.78 6.291z" transform="translate(15 7)"/><use fill="url(#D)" opacity=".8" xlink:href="#C" transform="translate(34.2 13.738)"/><path fill="url(#E)" d="M19.58 7.004l10.144-5.718 10.78 6.291-10.143 5.718z" transform="translate(15 7)"/><path fill="url(#F)" d="M30.36 13.295l10.145-5.718-.094 12.543-10.144 5.718z" transform="translate(15 7)"/><path d="M49.346 30.02L31.728 40.452s-1.153.843-2.582.005L10.733 29.661s-.348-.143-.384-.637V0l39.279.425v29.031s.111.332-.282.565z" fill="url(#G)" opacity=".4" transform="translate(15 7)"/><path d="M53.582 33.68l6.09 3.55a.878.878 0 0 1-.02 1.5L32.779 54.638a3.88 3.88 0 0 1-3.939.008L.755 38.181a1.19 1.19 0 0 1 .027-2.067c2.558-1.41 4.477-2.466 5.757-3.17" stroke="url(#H)" stroke-width=".5" transform="translate(15 7)"/></g></g></svg>
