<?xml version="1.0" encoding="utf-8"?>
<!-- Generator: Adobe Illustrator 21.1.0, SVG Export Plug-In . SVG Version: 6.00 Build 0)  -->
<svg version="1.1" id="图层_1" xmlns="http://www.w3.org/2000/svg" xmlns:xlink="http://www.w3.org/1999/xlink" x="0px" y="0px"
	 viewBox="0 0 100 80" style="enable-background:new 0 0 100 80;" xml:space="preserve">
<style type="text/css">
	.st0{fill:url(#XMLID_3_);}
	.st1{fill:url(#XMLID_4_);}
	.st2{fill:url(#XMLID_5_);}
	.st3{fill:url(#XMLID_6_);}
	.st4{fill:url(#XMLID_7_);}
	.st5{fill:url(#XMLID_8_);}
	.st6{fill:url(#XMLID_9_);}
	.st7{fill:url(#XMLID_1437_备份_1_);}
	.st8{fill:url(#XMLID_10_);}
	.st9{fill:url(#XMLID_11_);}
	.st10{opacity:0.4;fill:#FBF8FF;enable-background:new    ;}
	.st11{fill:url(#SVGID_1_);}
	.st12{fill:url(#SVGID_2_);}
	.st13{opacity:0.5165;fill:url(#Shape_1_);enable-background:new    ;}
	.st14{fill:#E2FEFF;}
	.st15{fill:url(#XMLID_12_);}
	.st16{fill:url(#XMLID_13_);}
	.st17{fill:url(#XMLID_14_);}
	.st18{fill:url(#XMLID_15_);}
	.st19{fill:url(#XMLID_16_);}
	.st20{fill:url(#XMLID_17_);}
	.st21{fill:url(#XMLID_18_);}
	.st22{fill:url(#XMLID_19_);}
	.st23{fill:url(#XMLID_20_);}
	.st24{fill:url(#XMLID_21_);}
	.st25{fill:url(#XMLID_22_);}
	.st26{fill:url(#XMLID_23_);}
	.st27{fill:url(#XMLID_24_);}
	.st28{fill:url(#XMLID_25_);}
	.st29{fill:url(#XMLID_26_);}
	.st30{fill:url(#XMLID_27_);}
	.st31{fill:url(#XMLID_28_);}
	.st32{fill:url(#XMLID_29_);}
	.st33{fill:#EE585C;}
	.st34{fill:url(#XMLID_30_);}
	.st35{fill:url(#XMLID_31_);}
	.st36{fill:#FFFFFF;fill-opacity:0.4347;}
	.st37{fill:url(#XMLID_32_);}
	.st38{fill:url(#Path_15_);}
	.st39{fill:url(#Path_16_);}
	.st40{fill:url(#Path_17_);}
	.st41{fill:url(#Path_18_);}
	.st42{fill:url(#Path_19_);}
	.st43{fill:url(#Path_20_);}
	.st44{fill:url(#Path_21_);}
	.st45{fill:url(#Path_22_);}
	.st46{fill:url(#Path_23_);}
	.st47{fill:url(#Path_24_);}
	.st48{fill:url(#Path_25_);}
	.st49{fill:url(#Path_26_);}
	.st50{fill:url(#Path_27_);}
	.st51{fill:url(#XMLID_33_);}
	.st52{fill:url(#Path_28_);}
	.st53{fill:url(#Path_29_);}
</style>
<title>Icon/实物类/glht@2x</title>
<desc>Created with Sketch.</desc>
<linearGradient id="XMLID_3_" gradientUnits="userSpaceOnUse" x1="-336.7787" y1="424.7921" x2="-337.9984" y2="425.2816" gradientTransform="matrix(31.4607 0 0 -23.2422 10651.2295 9937.5264)">
	<stop  offset="0" style="stop-color:#FFFFFF"/>
	<stop  offset="1" style="stop-color:#AB9BE6"/>
</linearGradient>
<path id="XMLID_1445_" class="st0" d="M20.5,65.1l0,4.8c0,0,0.3,0.1,1.3-0.4l28.3-15.8c0.6-0.4,1.8-1.2,1.8-1.9l0-2.4
	c0,0-0.2-1.7-1.6-2.8L20.5,65.1z"/>
<linearGradient id="XMLID_4_" gradientUnits="userSpaceOnUse" x1="-328.8805" y1="417.8899" x2="-330.1001" y2="418.579" gradientTransform="matrix(18.4089 0 0 -16.1363 6077.791 6810.9355)">
	<stop  offset="0" style="stop-color:#FFFFFF"/>
	<stop  offset="1" style="stop-color:#AB9BE6"/>
</linearGradient>
<path id="XMLID_1444_" class="st1" d="M19.5,69.8L3,60.7c-0.6-0.3-1-0.9-1-1.6l0-3c0,0,0-1.3,1.4-2.2l17,11.3l0,4.8
	C20.3,70.1,19.5,69.8,19.5,69.8z"/>
<linearGradient id="XMLID_5_" gradientUnits="userSpaceOnUse" x1="-341.7926" y1="427.3002" x2="-340.7926" y2="427.3002" gradientTransform="matrix(48.4227 0 0 -27.1973 16553.207 11672.9521)">
	<stop  offset="0" style="stop-color:#573E94"/>
	<stop  offset="1" style="stop-color:#896CBF"/>
</linearGradient>
<path id="XMLID_1443_" class="st2" d="M35.7,38.6l14.6,8.1c1,0.6,1,2,0,2.5L22.9,64.5c-1.5,0.8-3.3,0.8-4.8,0L3.4,56.4
	c-1-0.6-1-2,0-2.5l27.5-15.3C32.4,37.7,34.2,37.7,35.7,38.6z"/>
<linearGradient id="XMLID_6_" gradientUnits="userSpaceOnUse" x1="-266.1806" y1="407.7364" x2="-265.9666" y2="412.4784" gradientTransform="matrix(4.2299 0 0 -12.3968 1158.4332 5115.3525)">
	<stop  offset="0" style="stop-color:#FFFFFF"/>
	<stop  offset="1" style="stop-color:#573E92"/>
</linearGradient>
<path id="XMLID_1440_" class="st3" d="M31.2,7.6l0.3,10.7l2.9,1.6c0,0,1.5-9.6,0.9-10.3C34.6,8.7,33.7,6.8,31.2,7.6z"/>
<linearGradient id="XMLID_7_" gradientUnits="userSpaceOnUse" x1="-338.6782" y1="431.8816" x2="-338.1654" y2="432.2606" gradientTransform="matrix(34.3894 0 0 -42.5928 11658.873 18441.2305)">
	<stop  offset="0" style="stop-color:#472E83"/>
	<stop  offset="1" style="stop-color:#9F83D3"/>
</linearGradient>
<path id="XMLID_1439_" class="st4" d="M40.4,23L29,16.9c0,0-10.9-2.3-19.8,14.6c-7.2,13.6,0,22,0,22l10.6,5.9L40.4,23z"/>
<linearGradient id="XMLID_8_" gradientUnits="userSpaceOnUse" x1="-329.3283" y1="427.4602" x2="-330.5237" y2="425.5636" gradientTransform="matrix(19.0889 0 0 -24.5392 6329.2134 10464.9805)">
	<stop  offset="0" style="stop-color:#FFFFFF"/>
	<stop  offset="0.3659" style="stop-color:#FBFBFF"/>
	<stop  offset="1" style="stop-color:#4E3489"/>
</linearGradient>
<path id="XMLID_1438_" class="st5" d="M19.4,26.7L16.2,25v-6.2c0,0,0.4-14.6,13.6-16.6c0,0,3.9,0.3,5.5,2.9c0,0-9.9,2.3-12.1,5.7
	C21,14.3,19.4,26.7,19.4,26.7z"/>
<linearGradient id="XMLID_9_" gradientUnits="userSpaceOnUse" x1="-336.3535" y1="431.6411" x2="-337.1977" y2="430.8904" gradientTransform="matrix(29.8743 0 0 -38.7199 10092.5674 16738.5312)">
	<stop  offset="0" style="stop-color:#FFFFFF"/>
	<stop  offset="1" style="stop-color:#A494DA"/>
</linearGradient>
<path id="XMLID_1437_" class="st6" d="M19.3,35.4c-5.5,10.2-5,21.1,1.1,24.4S36,57.6,41.5,47.4s5-21.1-1.1-24.4S24.8,25.2,19.3,35.4
	z"/>
<linearGradient id="XMLID_1437_备份_1_" gradientUnits="userSpaceOnUse" x1="-333.9583" y1="429.4193" x2="-333.9583" y2="428.4193" gradientTransform="matrix(24 0 0 -31 8045.8149 13338)">
	<stop  offset="0" style="stop-color:#FFFFFF;stop-opacity:0.2666"/>
	<stop  offset="1" style="stop-color:#FFFFFF;stop-opacity:0.2324"/>
</linearGradient>
<path id="XMLID_1437_备份" class="st7" d="M21.9,36.7c4.4-8.1,12-12.6,16.9-9.9s5.3,11.4,0.9,19.6s-12,12.6-16.9,9.9
	S17.5,44.8,21.9,36.7z M38.6,27.2c-4.6-2.5-12,1.8-16.3,9.7C18,44.8,18.4,53.3,23,55.8c4.6,2.5,12-1.8,16.3-9.7
	C43.6,38.2,43.2,29.7,38.6,27.2z"/>
<linearGradient id="XMLID_10_" gradientUnits="userSpaceOnUse" x1="-327.9279" y1="425.8948" x2="-329.4019" y2="423.9767" gradientTransform="matrix(17.9432 0 0 -22.5359 5932.5898 9583.5137)">
	<stop  offset="0" style="stop-color:#FFFFFF"/>
	<stop  offset="0.137" style="stop-color:#FBFBFF"/>
	<stop  offset="0.4762" style="stop-color:#D3C6FF"/>
	<stop  offset="0.5144" style="stop-color:#D6C9FF"/>
	<stop  offset="1" style="stop-color:#5A4094"/>
</linearGradient>
<path id="XMLID_1436_" class="st8" d="M22.2,25l-2.8,1.7v-8.6c0.4-3.8,3.1-9.2,8.6-12.4c6.8-4,9.3,1,9.3,4.1s0,11.6,0,11.6l-3-1.6
	l0.1-9.3c0,0-1.1-4.6-5.4-2.4c-4.3,2.2-6.9,8.5-6.9,9.2S22.2,25,22.2,25z"/>
<linearGradient id="XMLID_11_" gradientUnits="userSpaceOnUse" x1="-292.6624" y1="421.3134" x2="-292.8758" y2="419.1413" gradientTransform="matrix(6.2665 0 0 -17.5983 1865.0657 7435.3979)">
	<stop  offset="0" style="stop-color:#78E7E9"/>
	<stop  offset="1" style="stop-color:#40E0E5"/>
</linearGradient>
<path id="XMLID_1435_" class="st9" d="M28.4,39.9c0,0-3.2-2.7,1.6-6.2c0,0,5.1-1.6,1.8,4.3l1.5,9.5L27,51.2L28.4,39.9z"/>
<polygon id="Shape" class="st10" points="29.1,64.3 45,55.2 45,53.5 29.1,62.7 "/>
<linearGradient id="SVGID_1_" gradientUnits="userSpaceOnUse" x1="-239.2599" y1="340.1235" x2="-240.6485" y2="337.9513" gradientTransform="matrix(3.2146 0 0 -3.5394 810.1899 1257.9391)">
	<stop  offset="0" style="stop-color:#94FFF6"/>
	<stop  offset="1" style="stop-color:#40E5C0"/>
</linearGradient>
<polygon class="st11" points="37.3,59.6 40.5,57.8 40.5,56.1 37.3,57.9 "/>
<linearGradient id="SVGID_2_" gradientUnits="userSpaceOnUse" x1="-358.3366" y1="471.1522" x2="-359.8525" y2="471.4676" gradientTransform="matrix(-31.526 0 0 11.6237 -11282.2012 -5416.5371)">
	<stop  offset="0" style="stop-color:#F1F1FF;stop-opacity:0.3765"/>
	<stop  offset="1" style="stop-color:#7159A8"/>
</linearGradient>
<path class="st12" d="M38.8,56.9c0.2,0,0.3,0,0.5,0.1l16.5,9c1.1,0.6,2.6,0.7,3.7,0.1c0.7-0.4,2.1-1.5,2.9-2.1
	c1.3-1,3.5-2.7,6.7-5.1c0.5,0.9,0.4,1.6-0.2,2.2c-1.4,1.4-5,4.2-7,5.7c-0.7,0.5-1.2,0.8-1.3,1c-1.7,1-4,1-5.8,0l-16.5-9
	c-0.5-0.3-0.6-0.9-0.4-1.3C38.1,57.1,38.5,56.9,38.8,56.9z"/>
<linearGradient id="Shape_1_" gradientUnits="userSpaceOnUse" x1="-368.4563" y1="474.4079" x2="-367.4314" y2="474.056" gradientTransform="matrix(-17.9388 0 0 10.6415 -6553.7036 -4984.4009)">
	<stop  offset="0" style="stop-color:#F3FFFF;stop-opacity:0"/>
	<stop  offset="0.4149" style="stop-color:#F3FFFF;stop-opacity:0.6661"/>
	<stop  offset="1" style="stop-color:#E2FEFF;stop-opacity:0"/>
</linearGradient>
<path id="Shape_3_" class="st13" d="M38.3,56.9c-0.1,0-0.2,0.1-0.3,0.2c-0.1,0.1,0,0.3,0.1,0.4l17.3,10c0.1,0.1,0.3,0,0.4-0.1
	c0.1-0.1,0-0.3-0.1-0.4l-17.3-10C38.4,56.9,38.4,56.9,38.3,56.9z"/>
<path class="st14" d="M75.7,64.3c0.1,0,0.2,0.1,0.3,0.2c0.1,0.1,0,0.3-0.1,0.4l-9.2,5.6c-0.1,0.1-0.3,0-0.4-0.1
	c-0.1-0.1,0-0.3,0.1-0.4l9.2-5.6C75.6,64.4,75.7,64.3,75.7,64.3z"/>
<linearGradient id="XMLID_12_" gradientUnits="userSpaceOnUse" x1="-321.8959" y1="418.1958" x2="-321.8303" y2="419.2446" gradientTransform="matrix(13.1014 0 0 -16.5 4285.7734 6936.377)">
	<stop  offset="0" style="stop-color:#644A9D"/>
	<stop  offset="1" style="stop-color:#482E83"/>
</linearGradient>
<polygon id="XMLID_520_" class="st15" points="75.5,18.9 62.4,26.1 62.4,35.4 75.5,28.1 "/>
<linearGradient id="XMLID_13_" gradientUnits="userSpaceOnUse" x1="-329.2732" y1="418.3155" x2="-328.6479" y2="417.3782" gradientTransform="matrix(17.8158 0 0 -15.7874 5931.0967 6631.4062)">
	<stop  offset="0" style="stop-color:#E3DEF3"/>
	<stop  offset="0" style="stop-color:#E3DEF3"/>
	<stop  offset="1" style="stop-color:#8D74BE"/>
</linearGradient>
<polygon id="XMLID_519_" class="st16" points="62.4,35.4 67.4,43.9 80.2,36.3 75.5,28.1 "/>
<linearGradient id="XMLID_14_" gradientUnits="userSpaceOnUse" x1="-321.2438" y1="431.4908" x2="-321.3347" y2="430.2909" gradientTransform="matrix(12.8274 0 0 -37.1976 4195.1494 16081.4512)">
	<stop  offset="0" style="stop-color:#573E94"/>
	<stop  offset="1" style="stop-color:#A78FD3"/>
</linearGradient>
<polygon id="XMLID_518_" class="st17" points="67.4,43.9 67.4,73.5 80.2,66.1 80.2,36.3 "/>
<linearGradient id="XMLID_15_" gradientUnits="userSpaceOnUse" x1="-323.105" y1="392.8568" x2="-322.9082" y2="393.1934" gradientTransform="matrix(13.7051 0 0 -7.5551 4495.8662 2991.3164)">
	<stop  offset="0" style="stop-color:#DAD3EF"/>
	<stop  offset="1" style="stop-color:#7A5FB1"/>
</linearGradient>
<polygon id="XMLID_517_" class="st18" points="75.5,18.9 74.9,18.5 61.8,25.8 62.4,26.1 "/>
<linearGradient id="XMLID_16_" gradientUnits="userSpaceOnUse" x1="-286.0369" y1="421.15" x2="-286.1321" y2="420.3879" gradientTransform="matrix(5.5921 0 0 -18.1532 1664.4224 7672.3535)">
	<stop  offset="0" style="stop-color:#C0B5E5"/>
	<stop  offset="1" style="stop-color:#BFB5E5"/>
</linearGradient>
<polyline id="XMLID_516_" class="st19" points="61.8,25.8 61.8,36.5 66.4,43.9 67.4,43.9 62.4,35.4 62.4,26.1 "/>
<linearGradient id="XMLID_17_" gradientUnits="userSpaceOnUse" x1="-291.9239" y1="429.4661" x2="-292.0004" y2="428.0338" gradientTransform="matrix(6.1776 0 0 -29.578 1868.1876 12728.8105)">
	<stop  offset="0" style="stop-color:#C2B8E6"/>
	<stop  offset="1" style="stop-color:#BDB2E4"/>
</linearGradient>
<polygon id="XMLID_515_" class="st20" points="66.4,43.9 66.4,72.1 61.2,69.1 61.2,69.9 67.4,73.5 67.4,43.9 "/>
<linearGradient id="XMLID_18_" gradientUnits="userSpaceOnUse" x1="-279.0556" y1="380.8606" x2="-281.0409" y2="379.5943" gradientTransform="matrix(5.1547 0 0 -5.9335 1511.2041 2323.8398)">
	<stop  offset="0" style="stop-color:#E1DCF3"/>
	<stop  offset="1" style="stop-color:#8F77C0"/>
</linearGradient>
<polygon id="XMLID_514_" class="st21" points="61.2,69.1 66.4,66.2 66.4,72.1 "/>
<linearGradient id="XMLID_19_" gradientUnits="userSpaceOnUse" x1="-315.0987" y1="413.7431" x2="-314.7671" y2="412.6655" gradientTransform="matrix(10.3817 0 0 -13.0747 3337.9587 5427.543)">
	<stop  offset="0" style="stop-color:#FFFFFF"/>
	<stop  offset="1" style="stop-color:#B7A7D8"/>
</linearGradient>
<polygon id="XMLID_512_" class="st22" points="74.1,20.6 63.8,26.3 63.8,33.7 74.1,27.9 "/>
<linearGradient id="XMLID_20_" gradientUnits="userSpaceOnUse" x1="-307.6808" y1="371.3752" x2="-309.3641" y2="370.6022" gradientTransform="matrix(8.6715 0 0 -5.1728 2742.4102 1947.0819)">
	<stop  offset="0" style="stop-color:#94FFF6"/>
	<stop  offset="1" style="stop-color:#58D7CF"/>
</linearGradient>
<path id="XMLID_511_" class="st23" d="M70.1,24.9c0.4-0.1,0.8,0.2,1.2,0.9l0.4,0.6c0.1,0.1,0.2,0.3,0.2,0.3c0.1,0.2,0.2,0.2,0.3,0.2
	c0.1-0.1,0.3-0.4,0.4-0.8c0.1-0.2,0.2-0.3,0.3-0.4l0.1-0.1l0.6-0.3c0.1,0,0.1,0,0.2,0c0,0,0,0.1,0,0.1l0,0l-0.6,0.3
	c-0.2,0.1-0.3,0.2-0.3,0.4c-0.1,0.4-0.3,0.8-0.5,0.9c-0.2,0.1-0.4,0-0.6-0.2l-0.1-0.2l-0.1-0.2c0-0.1-0.2-0.3-0.2-0.4
	c-0.4-0.7-0.8-1-1.1-0.9c-0.3,0.1-0.5,0.7-0.8,2.1l-0.2,0.9c-0.2,1.1-0.4,1.6-0.7,1.8c-0.2,0.2-0.5,0.1-0.8-0.1
	c-0.1-0.1-0.3-0.2-0.5-0.4l-0.4-0.5l-0.2-0.2c0,0,0,0-0.1-0.1c-0.1-0.1-0.2-0.2-0.3-0.1c-0.1,0.1-0.1,0.2-0.2,0.3L66,29.2
	c-0.2,0.5-0.4,0.8-0.8,0.9c-0.1,0-0.1,0-0.1-0.1c0-0.1,0-0.1,0.1-0.1c0.3-0.1,0.5-0.2,0.6-0.6l0.1-0.3c0.1-0.3,0.2-0.5,0.3-0.6
	c0.2-0.1,0.3-0.1,0.5,0.1c0.1,0,0.1,0.1,0.2,0.2l0.4,0.4c0.2,0.3,0.4,0.4,0.6,0.5c0.2,0.2,0.4,0.2,0.6,0.1c0.2-0.1,0.4-0.7,0.6-1.9
	l0.1-0.4C69.4,25.7,69.6,25.1,70.1,24.9z"/>
<linearGradient id="XMLID_21_" gradientUnits="userSpaceOnUse" x1="-214.6355" y1="243.322" x2="-216.3188" y2="242.2766" gradientTransform="matrix(2.6193 0 0 -1.8171 635.876 464.2276)">
	<stop  offset="0" style="stop-color:#94FFF6"/>
	<stop  offset="1" style="stop-color:#58D7CF"/>
</linearGradient>
<polygon id="XMLID_381_" class="st24" points="70.7,23.7 73.3,22.2 73.3,21.9 70.7,23.4 "/>
<linearGradient id="XMLID_22_" gradientUnits="userSpaceOnUse" x1="-144.8138" y1="166.4852" x2="-146.4971" y2="165.2279" gradientTransform="matrix(1.719 0 0 -1.3078 322.5577 240.5256)">
	<stop  offset="0" style="stop-color:#94FFF6"/>
	<stop  offset="1" style="stop-color:#58D7CF"/>
</linearGradient>
<polygon id="XMLID_380_" class="st25" points="71.6,24.1 73.3,23.1 73.3,22.8 71.6,23.8 "/>
<linearGradient id="XMLID_23_" gradientUnits="userSpaceOnUse" x1="-216.5347" y1="302.5687" x2="-215.7213" y2="283.6871" gradientTransform="matrix(2.6313 0 0 -2.339 658.5774 744.388)">
	<stop  offset="0" style="stop-color:#62479B"/>
	<stop  offset="1" style="stop-color:#6950A8"/>
</linearGradient>
<path id="XMLID_378_" class="st26" d="M91.9,71.9c0,0-0.3,1.2-0.6,1.5c-0.4,0.4-1.6,0.9-2.1,0.8c0,0,1.1-1.2,1.4-1.8L91.9,71.9z"/>
<linearGradient id="XMLID_24_" gradientUnits="userSpaceOnUse" x1="-281.0798" y1="392.6456" x2="-282.0169" y2="391.3455" gradientTransform="matrix(5.2284 0 0 -7.3592 1561.0959 2953.2358)">
	<stop  offset="0" style="stop-color:#FFFFFF"/>
	<stop  offset="1" style="stop-color:#7155A6"/>
</linearGradient>
<path id="XMLID_377_" class="st27" d="M85.5,69.7c0.3,2,1.7,4,3.1,4.4c1.4,0.4,2.3-0.8,2-2.8c-0.3-2-1.7-4-3.1-4.4
	C86,66.5,85.1,67.7,85.5,69.7z"/>
<linearGradient id="XMLID_25_" gradientUnits="userSpaceOnUse" x1="-286.5509" y1="377.7859" x2="-286.5509" y2="378.7859" gradientTransform="matrix(5.6337 0 0 -5.7704 1702.2008 2252.728)">
	<stop  offset="0" style="stop-color:#60E1D7"/>
	<stop  offset="1" style="stop-color:#70E8E2"/>
</linearGradient>
<path id="XMLID_376_" class="st28" d="M90.7,72.8c0,0-0.2-3.3-2.9-5.3c0,0-2.5-1.7-2.8,1.3l5.3,3.8L90.7,72.8z"/>
<linearGradient id="XMLID_26_" gradientUnits="userSpaceOnUse" x1="-290.7268" y1="384.3872" x2="-290.7994" y2="383.4711" gradientTransform="matrix(6.0369 0 0 -6.4543 1843.8339 2553.6602)">
	<stop  offset="0" style="stop-color:#12CCBD"/>
	<stop  offset="1" style="stop-color:#54FFCA"/>
</linearGradient>
<path id="XMLID_375_" class="st29" d="M92,72.2c0,0,0.1-1.8-1.3-3.7c-1.4-1.9-2.8-2.3-3.4-2.1l-1.3,0.7c0,0,3.5-0.3,4.7,5.7L92,72.2
	z"/>
<linearGradient id="XMLID_27_" gradientUnits="userSpaceOnUse" x1="-198.6547" y1="231.5485" x2="-197.8413" y2="219.5838" gradientTransform="matrix(2.3187 0 0 -1.6408 538.8489 442.2623)">
	<stop  offset="0" style="stop-color:#62479B"/>
	<stop  offset="1" style="stop-color:#6950A8"/>
</linearGradient>
<path id="XMLID_374_" class="st30" d="M80.9,77.7c0,0-0.2,0.7-0.4,0.9c-0.3,0.2-1.3,0.9-1.9,0.7c0,0,0.7-0.6,1-1.2L80.9,77.7z"/>
<linearGradient id="XMLID_28_" gradientUnits="userSpaceOnUse" x1="-312.032" y1="400.1958" x2="-313.7863" y2="399.0759" gradientTransform="matrix(9.8843 0 0 -8.7402 3181.0535 3562.9656)">
	<stop  offset="0" style="stop-color:#FFFFFF"/>
	<stop  offset="1" style="stop-color:#9F87CD"/>
</linearGradient>
<path id="XMLID_373_" class="st31" d="M90.3,72.5c0,0-0.7-0.4-1.3-0.2c-0.5,0.2-2.6,1.3-2.6,1.3s-1,0.4-2.5,0c0,0-1.8-0.3-1.2,1.1
	c0,0-0.2,0.9-1.9,1.6l-0.3-1.4c0,0,0.1-2.5,3.7-2.7c3.5-0.2,1.3-3.5,1.3-3.5s0.2-1.8,1.8-1.1C88.8,68.5,90,70.7,90.3,72.5z"/>
<linearGradient id="XMLID_29_" gradientUnits="userSpaceOnUse" x1="-281.0833" y1="392.6425" x2="-282.0207" y2="391.3424" gradientTransform="matrix(5.2287 0 0 -7.3587 1550.4 2958.1665)">
	<stop  offset="0" style="stop-color:#FFFFFF"/>
	<stop  offset="1" style="stop-color:#7155A6"/>
</linearGradient>
<path id="XMLID_372_" class="st32" d="M74.7,74.8c0.3,2,1.7,4,3.1,4.4c1.4,0.4,2.3-0.8,2-2.8c-0.3-2-1.7-4-3.1-4.4
	C75.2,71.6,74.4,72.9,74.7,74.8z"/>
<path id="XMLID_371_" class="st33" d="M81.1,77.6l-1.4,0.6c0,0,0.2-2.3-2.3-5c0,0-0.9-0.9-2.3-0.8c0,0,0.9-0.9,2.2-0.6
	C78.5,72,80.9,74.4,81.1,77.6z"/>
<linearGradient id="XMLID_30_" gradientUnits="userSpaceOnUse" x1="-286.2993" y1="380.8032" x2="-286.2993" y2="381.8032" gradientTransform="matrix(5.6109 0 0 -6.0645 1683.3632 2387.6006)">
	<stop  offset="0" style="stop-color:#60E1D7"/>
	<stop  offset="1" style="stop-color:#70E8E2"/>
</linearGradient>
<path id="XMLID_370_" class="st34" d="M74.2,74.2l0.5,0.1c0,0,0.1-2,1.5-1.4c0.3,0.1,0.6,0.3,1,0.6c1.1,0.9,2.2,2.5,2.1,4.3l0.4,0.4
	c0,0,0.6-3-2.2-5.2C74.7,70.8,74.2,73.6,74.2,74.2z"/>
<linearGradient id="XMLID_31_" gradientUnits="userSpaceOnUse" x1="-317.9766" y1="386.6617" x2="-317.8725" y2="387.0222" gradientTransform="matrix(11.4115 0 0 -6.6894 3711.8154 2659.5981)">
	<stop  offset="0" style="stop-color:#7E65B2"/>
	<stop  offset="1" style="stop-color:#856CB8"/>
</linearGradient>
<path id="XMLID_369_" class="st35" d="M86,68.6l3.6,2.6c0,0-2.8,1.4-3.1,1.5c-0.3,0.1-1.3,0.5-2.6,0c0,0-1.4-0.2-1.4,0.7
	c0,0.9-0.1,1.1-0.4,1.3c-0.3,0.2-1.5,0.6-1.5,0.6l-2.4-3c0,0,0.6-0.4,1.4-0.3c0.8,0.1,2.5,0.4,2.5-0.3c0-0.8-0.1-0.9,0.3-1.3
	C82.8,69.8,86,68.6,86,68.6z"/>
<path id="XMLID_368_" class="st36" d="M75.6,75.3c0.2,1.2,1.1,2.5,1.9,2.7c0.9,0.3,1.4-0.5,1.2-1.7c-0.2-1.2-1.1-2.5-1.9-2.7
	C76,73.3,75.4,74.1,75.6,75.3z"/>
<linearGradient id="XMLID_32_" gradientUnits="userSpaceOnUse" x1="-9.9467" y1="212.5972" x2="-9.6348" y2="188.6402" gradientTransform="matrix(1.0301 0 0 -1.45 87.1916 355.5494)">
	<stop  offset="0" style="stop-color:#FFFFFF"/>
	<stop  offset="1" style="stop-color:#6C4FAA"/>
</linearGradient>
<path id="XMLID_367_" class="st37" d="M76.7,75.7c0.1,0.4,0.3,0.8,0.6,0.9c0.3,0.1,0.5-0.2,0.4-0.5c-0.1-0.4-0.3-0.8-0.6-0.9
	C76.8,75,76.6,75.3,76.7,75.7z"/>
<linearGradient id="Path_15_" gradientUnits="userSpaceOnUse" x1="-285.5539" y1="322.115" x2="-286.1744" y2="322.4434" gradientTransform="matrix(5.5555 0 0 -3.0354 1666.6862 1051.2393)">
	<stop  offset="0" style="stop-color:#282A7A"/>
	<stop  offset="1" style="stop-color:#514FC5"/>
</linearGradient>
<path id="Path" class="st38" d="M82.3,73.5c0,0,0.1,0.7-0.2,1s-1.8,0.1-2.9-0.4c-1.1-0.5-2.3-1.3-2.4-1.5c-0.1-0.2,0-0.7,0.2-0.9
	S82.3,73.5,82.3,73.5z"/>
<linearGradient id="Path_16_" gradientUnits="userSpaceOnUse" x1="-283.1145" y1="313.1873" x2="-283.735" y2="313.4928" gradientTransform="matrix(5.3518 0 0 -2.82 1595.7627 955.8801)">
	<stop  offset="0" style="stop-color:#282A7A"/>
	<stop  offset="1" style="stop-color:#514FC5"/>
</linearGradient>
<path id="Path_1_" class="st39" d="M82.1,72.3c0,0,0.8,1.3-0.2,1.7c-1.2,0.5-5.3-1.6-4.8-2.4c0.4-0.5,1.3-0.3,2.7-0.3
	C81.3,71.3,82.1,72.3,82.1,72.3z"/>
<linearGradient id="Path_17_" gradientUnits="userSpaceOnUse" x1="-285.5539" y1="322.1239" x2="-286.1744" y2="322.4523" gradientTransform="matrix(5.5555 0 0 -3.0357 1673.5708 1048.9926)">
	<stop  offset="0" style="stop-color:#282A7A"/>
	<stop  offset="1" style="stop-color:#514FC5"/>
</linearGradient>
<path id="Path_2_" class="st40" d="M89.2,71.1c0,0,0.1,0.7-0.2,1c-0.4,0.3-1.8,0.1-2.9-0.4c-1.1-0.5-2.3-1.3-2.4-1.5
	c-0.1-0.2,0-0.7,0.2-0.9C84.1,69.1,89.2,71.1,89.2,71.1z"/>
<linearGradient id="Path_18_" gradientUnits="userSpaceOnUse" x1="-283.1145" y1="313.1873" x2="-283.735" y2="313.4928" gradientTransform="matrix(5.3518 0 0 -2.82 1602.6466 953.5325)">
	<stop  offset="0" style="stop-color:#282A7A"/>
	<stop  offset="1" style="stop-color:#514FC5"/>
</linearGradient>
<path id="Path_3_" class="st41" d="M88.9,69.9c0,0,0.8,1.3-0.2,1.7c-1.2,0.5-5.3-1.6-4.8-2.4c0.4-0.5,1.3-0.3,2.7-0.3
	C88.1,69,88.9,69.9,88.9,69.9z"/>
<linearGradient id="Path_19_" gradientUnits="userSpaceOnUse" x1="-316.3705" y1="429.2379" x2="-316.4375" y2="430.338" gradientTransform="matrix(10.8743 0 0 -33.0998 3524.6155 14277.7139)">
	<stop  offset="0" style="stop-color:#282A7A"/>
	<stop  offset="1" style="stop-color:#514FC5"/>
</linearGradient>
<path id="Path_4_" class="st42" d="M88.8,40.1c0,0,1.1,4.5,0,8.4c-0.8,2.8,0,21.4,0,21.4s-0.8,0.9-2.4,0.1c0,0-0.8-6.9-1-12.8
	c-0.2-4.3-0.2-7.8-0.2-8.4l-1.6,0.7c0,0-1.2,6-1.2,8.9s-0.1,14-0.1,14s-0.9,0.7-2.1,0c0,0-1.3-11.7-1.6-14.8
	c-0.3-3.1,1.1-15.6,1.1-15.6S85.7,38.5,88.8,40.1z"/>
<linearGradient id="Path_20_" gradientUnits="userSpaceOnUse" x1="-229.3125" y1="346.7381" x2="-229.4025" y2="348.2966" gradientTransform="matrix(2.9294 0 0 -3.8636 754.9734 1365.9324)">
	<stop  offset="0" style="stop-color:#FFECE6"/>
	<stop  offset="1" style="stop-color:#FCDACA"/>
</linearGradient>
<path id="Path_5_" class="st43" d="M81.6,22.3c0,0,0.4,2.3,0.5,2.6c0.1,0.3,2.1-0.9,2.4-1.4l-0.4-2.4C84.2,21.1,82.4,21.4,81.6,22.3
	z"/>
<linearGradient id="Path_21_" gradientUnits="userSpaceOnUse" x1="-122.0704" y1="330.0069" x2="-121.9138" y2="331.3492" gradientTransform="matrix(1.5402 0 0 -3.2838 270.1299 1110.7581)">
	<stop  offset="0" style="stop-color:#FFECE6"/>
	<stop  offset="1" style="stop-color:#FCCBB5"/>
</linearGradient>
<path id="Path_6_" class="st44" d="M81.6,22.3l0.5,2.6c0,0,0.9-1.3,1-2.5C83.2,22.4,83.2,20.7,81.6,22.3z"/>
<linearGradient id="Path_22_" gradientUnits="userSpaceOnUse" x1="-251.182" y1="318.9415" x2="-251.3028" y2="319.7484" gradientTransform="matrix(3.5882 0 0 -2.9654 984.8793 972.0399)">
	<stop  offset="0" style="stop-color:#08AEAF"/>
	<stop  offset="1" style="stop-color:#4BCFD9"/>
</linearGradient>
<path id="Path_7_" class="st45" d="M84.5,23.3c0,0,0.5,0.5,0.7,0.8c0,0-1.3,2.3-3.6,2.1l0.5-1.4L84.5,23.3z"/>
<linearGradient id="Path_23_" gradientUnits="userSpaceOnUse" x1="-315.4521" y1="421.743" x2="-315.4863" y2="422.9245" gradientTransform="matrix(10.5635 0 0 -19.8631 3416.2817 8424.7578)">
	<stop  offset="0" style="stop-color:#08AEAF"/>
	<stop  offset="1" style="stop-color:#4BCFD9"/>
</linearGradient>
<path id="Path_8_" class="st46" d="M85.2,24.1c0,0,1.8-0.1,2.2,1.9c0.4,2,1.3,7,1.3,8.7c0,1.7,0.7,4.8,0.4,6.1
	c-0.2,1.1-2.2,1.5-4.5,2.6c-3,1.3-5.1,0.2-5.7-0.3c-0.7-0.6,0.2-3.6,0.2-5c0-1.3-0.1-4,0-4.8c0.1-0.8-0.1-4.6,2.6-7
	C83.2,24.8,85.2,24.1,85.2,24.1z"/>
<linearGradient id="Path_24_" gradientUnits="userSpaceOnUse" x1="-200.5912" y1="415.8734" x2="-200.982" y2="415.5216" gradientTransform="matrix(2.3547 0 0 -14.7788 551.4049 6187.4453)">
	<stop  offset="0" style="stop-color:#08AEAF"/>
	<stop  offset="1" style="stop-color:#4BCFD9"/>
</linearGradient>
<path id="Path_9_" class="st47" d="M81,29c0,0-0.6,6.4-0.7,8.6c-0.1,1.7,0.5,5.7,0,6.2c0,0-0.5-0.1-1.2-0.6c-0.9-0.6-0.1-3.4,0-4.2
	c0-0.6-0.1-2.9,0-4.6c0-2,0.3-5,0.7-5.3C80.1,28.9,81,29,81,29z"/>
<linearGradient id="Path_25_" gradientUnits="userSpaceOnUse" x1="-283.2885" y1="375.6847" x2="-283.4314" y2="377.2432" gradientTransform="matrix(5.3605 0 0 -5.6119 1600.7749 2134.0393)">
	<stop  offset="0" style="stop-color:#FFECE6"/>
	<stop  offset="1" style="stop-color:#FCDACA"/>
</linearGradient>
<path id="Path_10_" class="st48" d="M79,18.2c0,0,0.4,4.9,1.3,5.5c1,0.6,2.9-0.9,2.9-0.9s2.1-2.1,0.6-3.3S79,18.2,79,18.2z"/>
<linearGradient id="Path_26_" gradientUnits="userSpaceOnUse" x1="-299.4056" y1="395.8561" x2="-299.8872" y2="396.9562" gradientTransform="matrix(7.1419 0 0 -8.1066 2222.1399 3230.5618)">
	<stop  offset="0" style="stop-color:#282A7A"/>
	<stop  offset="1" style="stop-color:#514FC5"/>
</linearGradient>
<path id="Path_11_" class="st49" d="M85.2,20.8c-0.4,0.6-0.9,2.2-1.7,1.8c-1.2-0.6-1.2-1.6-1.2-2.5c0-0.7-0.6-1.1-0.8-0.1
	c-0.1,0.6,0,0.8-0.3,0.8c-0.3,0-0.2-0.3-0.3-0.8s-0.4-1-1-1.1c-0.6-0.1-1.1-0.6-1.2-1.4c-0.1-1.9,1.6-2.8,3.5-2.8
	c2.5,0,3.4,1.4,3.5,2.4C85.8,18.2,85.8,19.8,85.2,20.8z"/>
<linearGradient id="Path_27_" gradientUnits="userSpaceOnUse" x1="-27.2407" y1="379.6768" x2="-27.1855" y2="381.154" gradientTransform="matrix(1.0861 0 0 -6.0247 115.2645 2346.282)">
	<stop  offset="0" style="stop-color:#3D7ADD"/>
	<stop  offset="1" style="stop-color:#1F096C"/>
</linearGradient>
<polygon id="Path_12_" class="st50" points="85.2,48.9 86.3,48.4 85.3,54.4 "/>
<linearGradient id="XMLID_33_" gradientUnits="userSpaceOnUse" x1="-291.5372" y1="384.7337" x2="-291.6109" y2="383.8175" gradientTransform="matrix(6.1226 0 0 -6.4947 1862.7823 2576.9019)">
	<stop  offset="0" style="stop-color:#12CCBD"/>
	<stop  offset="1" style="stop-color:#54FFCA"/>
</linearGradient>
<path id="XMLID_365_" class="st51" d="M81.1,77.6l-1.4,0.6c0,0,0.6-2.9-2.4-5.2c-0.5-0.4-1.2-1-2.4-0.7c0,0,1-0.8,2.2-0.6
	C78.5,72,80.9,74.4,81.1,77.6z"/>
<linearGradient id="Path_28_" gradientUnits="userSpaceOnUse" x1="-324.2422" y1="407.9592" x2="-325.6915" y2="407.453" gradientTransform="matrix(14.8416 0 0 -10.9727 4898.9507 4506.4229)">
	<stop  offset="0" style="stop-color:#08AEAF"/>
	<stop  offset="1" style="stop-color:#4BCFD9"/>
</linearGradient>
<path id="Path_13_" class="st52" d="M81.7,26.5c0,0,1,0,1.3,1.5c0.3,1.5-2.6,7.5-3.6,8.4c-3,2.8-11.2-0.7-11.2-0.7v-2.2
	c0,0,8.1,2.6,9.4,0.1C79.1,30.7,79.2,26.3,81.7,26.5z"/>
<linearGradient id="Path_29_" gradientUnits="userSpaceOnUse" x1="-228.1916" y1="334.1418" x2="-228.3056" y2="335.7003" gradientTransform="matrix(2.9028 0 0 -3.4024 729.4059 1173.5911)">
	<stop  offset="0" style="stop-color:#FFECE6"/>
	<stop  offset="1" style="stop-color:#FCDACA"/>
</linearGradient>
<path id="Path_14_" class="st53" d="M68.2,33.7c0-0.1-0.7-0.5-0.8-0.6c-0.1-0.2-0.1-0.7-0.4-0.7c-0.2,0-0.1,0.6-0.2,0.8
	c-0.1,0.1-1.3-1.2-1.5-1c-0.1,0.3,0.7,1.3,1,1.5c-0.1,0.3,0,1.1,0.5,1.3c0.5,0.3,1.4,0.7,1.4,0.5V33.7z"/>
</svg>
