<svg width="120" height="100" viewBox="0 0 120 100" xmlns="http://www.w3.org/2000/svg" xmlns:xlink="http://www.w3.org/1999/xlink"><defs><linearGradient x1="3.161%" y1="36.794%" x2="69.835%" y2="57.646%" id="a"><stop stop-color="#A38DCD" offset="0%"/><stop stop-color="#6A549E" offset="100%"/></linearGradient><path d="M7.372-.002c1.158 0 2.232.512 3.117 1.384.107.104.213.216.315.332.022.028.047.055.07.082 1.2 1.418 1.964 3.546 1.964 5.922 0 4.265-2.45 7.73-5.466 7.73h-1.68c3.016 0 5.465-3.465 5.465-7.73 0-2.376-.763-4.504-1.963-5.922-.023-.027-.048-.054-.07-.082a5.62 5.62 0 0 0-.316-.332C7.924.51 6.848-.002 5.692-.002h1.68z" id="c"/><filter x="-63%" y="-29.1%" width="225.9%" height="158.3%" filterUnits="objectBoundingBox" id="b"><feOffset in="SourceAlpha" result="shadowOffsetOuter1"/><feGaussianBlur stdDeviation="1.5" in="shadowOffsetOuter1" result="shadowBlurOuter1"/><feColorMatrix values="0 0 0 0 0.822129875 0 0 0 0 0.849562517 0 0 0 0 0.959293089 0 0 0 1 0" in="shadowBlurOuter1"/></filter><linearGradient x1="61.747%" y1="18.247%" x2="-102.504%" y2="276.632%" id="d"><stop stop-color="#F8F7FF" offset="0%"/><stop stop-color="#FCFCFF" offset="100%"/></linearGradient><linearGradient x1="21.833%" y1="0%" x2="91.878%" y2="119.354%" id="e"><stop stop-color="#66E4D5" offset="0%"/><stop stop-color="#36C5AB" offset="100%"/></linearGradient><path d="M4.256 0c.7 0 1.349.322 1.884.87.065.066.129.137.19.21.014.017.03.034.043.052.725.891 1.187 2.23 1.187 3.725 0 2.684-1.48 4.863-3.304 4.863H3.24c1.824 0 3.304-2.18 3.304-4.863 0-1.494-.461-2.834-1.187-3.725-.013-.018-.028-.035-.042-.052a3.481 3.481 0 0 0-.191-.21C4.59.323 3.94 0 3.24 0h1.016z" id="g"/><filter x="-104.2%" y="-46.3%" width="308.3%" height="192.6%" filterUnits="objectBoundingBox" id="f"><feOffset in="SourceAlpha" result="shadowOffsetOuter1"/><feGaussianBlur stdDeviation="1.5" in="shadowOffsetOuter1" result="shadowBlurOuter1"/><feColorMatrix values="0 0 0 0 0.822129875 0 0 0 0 0.849562517 0 0 0 0 0.959293089 0 0 0 1 0" in="shadowBlurOuter1"/></filter><linearGradient x1="60.444%" y1="18.247%" x2="-12.51%" y2="74.984%" id="h"><stop stop-color="#F6F5FF" offset="0%"/><stop stop-color="#E9E8F6" offset="100%"/></linearGradient><linearGradient x1="21.833%" y1="0%" x2="91.878%" y2="119.354%" id="i"><stop stop-color="#66E4D5" offset="0%"/><stop stop-color="#36C5AB" offset="100%"/></linearGradient></defs><g fill="none" fill-rule="evenodd"><path d="M63.612 45.139l-.336.11-2.243.698-4.136.661 2.245-.71.336-.113 4.134-.646zm9.59-10.997l-.009.275v.001a10.719 10.719 0 0 1-.769 3.581 10.15 10.15 0 0 1-1.92 3.012c-.817.897-1.814 1.694-2.982 2.388-1.147.682-2.454 1.262-3.911 1.739l-4.133.647c1.461-.489 2.77-1.083 3.921-1.785 1.174-.716 2.175-1.539 2.999-2.468a10.59 10.59 0 0 0 1.931-3.127c.456-1.151.715-2.394.776-3.725l.007-.287 4.09-.25zm-13.748 6.472l1.578.932-4.136.499-1.576-.973 4.134-.458zM49.416 20.41l4.117.253v12.232l.006.178c.01.352.049.698.116 1.036.069.338.166.67.293.996.127.326.283.648.469.964.112.191.235.382.37.57.181-.148.371-.275.57-.379a2.9 2.9 0 0 1 1.142-.326l4.135-.28a2.973 2.973 0 0 0-1.142.316c-.353.179-.68.428-.971.734-.29.304-.546.667-.76 1.075-.17.326-.315.681-.428 1.06l-.079.29a17.523 17.523 0 0 0 1.032.746 22.309 22.309 0 0 0 1.168.739l-4.134.458a23.213 23.213 0 0 1-1.699-1.158 19.157 19.157 0 0 1-.498-.388c.122-.507.293-.976.506-1.397.203-.402.445-.76.717-1.066l-3.407.261a8.627 8.627 0 0 1-.644-.975 7.03 7.03 0 0 1-.466-.999 6.427 6.427 0 0 1-.407-2.102l-.006-.185V20.41zm11.531 11.417l.085.002a5.372 5.372 0 0 1 2.049.49 6.995 6.995 0 0 1 1.871 1.272 9.535 9.535 0 0 1 1.576 1.951c.464.752.856 1.592 1.157 2.498l-4.122.392a12.589 12.589 0 0 0-1.161-2.598 9.81 9.81 0 0 0-1.581-2.029 7.018 7.018 0 0 0-1.874-1.324 5.217 5.217 0 0 0-2.05-.511l-.085-.003-.084-.001-.084.001-.084.002 4.135-.14.083-.002.085-.001.084.001zm8.165-14.687l4.09.427.006.19V33.78l-.007.361-4.089.251.008-.376V17.34l-.008-.199zm-11.92 3.915l4.136.247c.445.028.869.172 1.256.414a3.66 3.66 0 0 1 1.034 1.008c.296.424.536.925.702 1.483.166.558.258 1.172.258 1.818 0 .666-.097 1.302-.274 1.881a5.32 5.32 0 0 1-.742 1.536 3.735 3.735 0 0 1-1.089 1.034c-.406.245-.85.385-1.314.397l-4.135.105a2.598 2.598 0 0 0 1.314-.409 3.789 3.789 0 0 0 1.09-1.073 5.56 5.56 0 0 0 .744-1.593 6.94 6.94 0 0 0 .274-1.953c0-.67-.091-1.307-.258-1.887a5.398 5.398 0 0 0-.704-1.537 3.69 3.69 0 0 0-1.035-1.044 2.582 2.582 0 0 0-1.257-.427zm-.296-5.197l4.136.432-7.499 4.373-4.117-.253 7.48-4.552zm0-4.59l4.136.594 10.955 3.767.157.07.107.054.004.001c.133.076.255.174.365.294.111.121.209.261.292.418.083.158.151.33.199.515.05.186.08.382.09.586l-4.089-.427a2.97 2.97 0 0 0-.089-.608 2.577 2.577 0 0 0-.202-.535 2.004 2.004 0 0 0-.294-.434 1.507 1.507 0 0 0-.366-.304h-.002l-.112-.058-.157-.071-10.993-3.863z" fill="#AC9AD4"/><path d="M10.896.267L21.89 4.13l.157.072.112.057c.134.077.257.18.368.305.112.124.211.271.294.434.084.163.152.342.201.535.05.192.08.396.09.608l.008.198v16.68l-.008.375-.008.287a11.447 11.447 0 0 1-.775 3.725 10.572 10.572 0 0 1-1.932 3.127c-.823.928-1.824 1.752-2.998 2.468-1.15.702-2.46 1.296-3.922 1.785l-.335.112-2.246.711-2.46-1.597c-1.328-.885-2.46-1.79-3.414-2.718-.936-.912-1.704-1.852-2.313-2.825a11.966 11.966 0 0 1-1.358-3 12.406 12.406 0 0 1-.485-3.252l-.005-.309V8.197l.005-.155c.008-.184.032-.365.07-.537.04-.17.092-.336.158-.487.066-.152.144-.29.234-.413.09-.122.19-.227.3-.31l.11-.077 9.158-5.95zM9.62 25.14c-.395.16-.762.41-1.089.731-.325.32-.61.71-.849 1.158-.237.446-.426.95-.558 1.498a19.157 19.157 0 0 0 1.03.775 22.35 22.35 0 0 0 1.167.771l1.576.972 1.267-.456.344-.13.358-.139a23.089 23.089 0 0 0 .69-.29c.112-.049.222-.099.331-.149.11-.049.216-.099.323-.149l.495-.25.232-.124a7.977 7.977 0 0 0-.633-1.719 6.328 6.328 0 0 0-.939-1.378 4.444 4.444 0 0 0-1.16-.93 3.2 3.2 0 0 0-1.308-.395 2.846 2.846 0 0 0-1.277.204zm1.277-20.28L3.416 9.41v12.653l.006.185a6.44 6.44 0 0 0 .407 2.102c.126.338.281.671.466 1 .185.328.4.652.644.974a10.12 10.12 0 0 1 .941-2.192 7.548 7.548 0 0 1 1.345-1.707 5.557 5.557 0 0 1 1.69-1.102 4.766 4.766 0 0 1 1.981-.353 5.222 5.222 0 0 1 2.051.511 6.996 6.996 0 0 1 1.874 1.324 9.81 9.81 0 0 1 1.581 2.03c.466.781.86 1.655 1.16 2.597.3-.306.568-.624.802-.955.236-.333.436-.68.602-1.039a6.172 6.172 0 0 0 .555-2.325v-.212l.008-14.658-8.633-3.385zm1.358 5.507c.423.229.807.577 1.13 1.018.327.444.592.98.775 1.584.185.605.288 1.275.288 1.982 0 .707-.103 1.382-.288 1.994a5.505 5.505 0 0 1-.774 1.614 3.706 3.706 0 0 1-1.131 1.062 2.554 2.554 0 0 1-1.357.358 2.55 2.55 0 0 1-1.325-.421 3.708 3.708 0 0 1-1.06-1.065 5.455 5.455 0 0 1-.703-1.545 6.835 6.835 0 0 1-.256-1.875c0-.665.09-1.301.256-1.883a5.641 5.641 0 0 1 .703-1.566c.3-.454.658-.83 1.06-1.101a2.671 2.671 0 0 1 1.325-.466c.478-.03.936.08 1.357.31z" fill="url(#a)" transform="translate(46 11)"/><g stroke="#A8A0FB" stroke-linecap="square" stroke-opacity=".2" stroke-width=".2"><path d="M29.269 46.397l30.73-9.052v51.313l-30.73-9.051a4 4 0 0 1-2.87-3.838V50.234a4 4 0 0 1 2.87-3.837z" fill-opacity=".1" fill="#CACAF1"/><path d="M59.998 37.345l30.735 9.051a4 4 0 0 1 2.87 3.838v25.534a4 4 0 0 1-2.87 3.837l-30.735 9.053V37.345z" fill-opacity=".12" fill="#7575BF"/></g><g transform="translate(35 55)"><use fill="#000" filter="url(#b)" xlink:href="#c"/><use fill="#D8D5F6" xlink:href="#c"/></g><path d="M1.21 12.126C.594 10.874.233 9.356.233 7.718c0-1.996.538-3.816 1.42-5.187a7.14 7.14 0 0 1 .37-.525C2.994.76 4.282-.002 5.692-.002c1.158 0 2.232.512 3.117 1.383.107.106.213.217.315.333.024.028.048.054.071.083 1.2 1.416 1.963 3.545 1.963 5.92 0 4.267-2.448 7.731-5.466 7.731-1.68 0-3.185-1.08-4.188-2.776l-.057-.101a8.28 8.28 0 0 1-.236-.445" fill="url(#d)" transform="translate(35 55)"/><path d="M3.84 6.068a.427.427 0 0 0-.089.132.578.578 0 0 0-.045.167l-.002.066.002.063v.378l.284-.005.05.003.045-.004 2.861-.047a.088.088 0 0 1 .07.035.146.146 0 0 1 .03.086v.616c0 .102-.017.2-.047.288a.768.768 0 0 1-.13.234.598.598 0 0 1-.188.156.48.48 0 0 1-.229.055l-2.746-.045v.38l-.002.067v.03l.002.033a.632.632 0 0 0 .076.226.363.363 0 0 0 .018.025l.017.023.02.022.03.028c.01.008.02.017.032.023a.365.365 0 0 0 .07.035.254.254 0 0 0 .017.004l.018.004.017.002.019.001a.35.35 0 0 0 .055-.003.222.222 0 0 0 .019-.003l3.364.126a.534.534 0 0 1 .24.068c.074.04.141.098.198.169.056.07.103.154.135.245.031.092.049.192.049.297v.633a.127.127 0 0 1-.032.087.103.103 0 0 1-.033.025.08.08 0 0 1-.04.007l-3.955-.277a1.167 1.167 0 0 1-.334-.078 1.291 1.291 0 0 1-.34-.205c-.104-.087-.199-.19-.282-.308a1.976 1.976 0 0 1-.213-.389A2.277 2.277 0 0 1 2.7 8.66v-2.2c0-.037 0-.074.002-.111.002-.036.004-.073.008-.109a2.562 2.562 0 0 1 .028-.212c.03-.16.075-.311.133-.453.058-.141.13-.272.213-.39.083-.117.178-.22.282-.306a1.26 1.26 0 0 1 .504-.256.987.987 0 0 1 .17-.026l3.956-.277a.094.094 0 0 1 .073.032.131.131 0 0 1 .032.087l-.001.63a.919.919 0 0 1-.05.297.84.84 0 0 1-.134.247.67.67 0 0 1-.198.17.535.535 0 0 1-.24.068l-3.488.13a.263.263 0 0 0-.117.057.338.338 0 0 0-.034.03" fill="url(#e)" transform="translate(35 55)"/><g><g transform="translate(70 11)"><use fill="#000" filter="url(#f)" xlink:href="#g"/><use fill="#D8D5F6" xlink:href="#g"/></g><path d="M.064 4.86c0-1.256.319-2.4.842-3.263.07-.115.143-.226.22-.33C1.7.481 2.465.002 3.3.002c.687 0 1.324.322 1.85.87.063.067.126.137.186.21l.043.052c.71.89 1.164 2.23 1.164 3.725 0 2.684-1.453 4.863-3.243 4.863-.996 0-1.89-.679-2.484-1.746l-.034-.064a5.323 5.323 0 0 1-.14-.28C.278 6.847.063 5.892.063 4.86z" fill="url(#h)" transform="translate(70 11)"/><path d="M1.874 4.055a.34.34 0 0 0-.056.159l-.002.044.002.042v.252l.19-.003.033.001.03-.002 1.907-.031a.059.059 0 0 1 .047.023.098.098 0 0 1 .02.058v.41a.59.59 0 0 1-.032.192.512.512 0 0 1-.086.156.398.398 0 0 1-.126.104.32.32 0 0 1-.152.036l-1.831-.03v.254l-.002.044v.02l.002.022a.421.421 0 0 0 .051.152.242.242 0 0 0 .011.016l.012.015.013.015a.5.5 0 0 0 .02.019l.021.015a.244.244 0 0 0 .047.023.17.17 0 0 0 .012.003c.004 0 .008.002.011.003l.012.001h.013l.012.001h.012a.258.258 0 0 0 .025-.005l2.243.085c.056.002.11.017.16.045.05.027.094.065.132.112a.552.552 0 0 1 .09.164.609.609 0 0 1 .032.198v.422a.085.085 0 0 1-.021.058.069.069 0 0 1-.022.016.053.053 0 0 1-.026.005L2.04 6.985a.778.778 0 0 1-.45-.19 1.075 1.075 0 0 1-.188-.204 1.317 1.317 0 0 1-.142-.26 1.518 1.518 0 0 1-.114-.589V4.276a1.792 1.792 0 0 1 .026-.288c.02-.106.05-.208.088-.302.039-.094.087-.182.142-.26.056-.078.12-.147.189-.204a.84.84 0 0 1 .335-.171.658.658 0 0 1 .114-.017l2.637-.185a.062.062 0 0 1 .048.021.087.087 0 0 1 .021.058v.42c0 .07-.012.137-.033.198a.56.56 0 0 1-.09.165.446.446 0 0 1-.131.114.357.357 0 0 1-.16.045l-2.326.087a.175.175 0 0 0-.078.038.285.285 0 0 0-.055.06z" fill="url(#i)" transform="translate(70 11)"/></g></g></svg>
