<?xml version="1.0" encoding="utf-8"?>
<!-- Generator: Adobe Illustrator 21.1.0, SVG Export Plug-In . SVG Version: 6.00 Build 0)  -->
<svg version="1.1" id="图层_1" xmlns="http://www.w3.org/2000/svg" xmlns:xlink="http://www.w3.org/1999/xlink" x="0px" y="0px"
	 viewBox="0 0 100 80" style="enable-background:new 0 0 100 80;" xml:space="preserve">
<style type="text/css">
	.st0{fill:url(#Path_20_);}
	.st1{fill:url(#Path_21_);}
	.st2{fill:url(#Path_22_);}
	.st3{fill:url(#Path_23_);}
	.st4{fill:url(#Path_24_);}
	.st5{fill:url(#Path_25_);}
	.st6{fill:url(#Shape_5_);}
	.st7{fill:url(#Path_26_);}
	.st8{fill:url(#Shape_6_);}
	.st9{fill:url(#Shape_7_);}
	.st10{fill:url(#Shape_8_);}
	.st11{fill:url(#Path_27_);}
	.st12{fill:url(#Path_28_);}
	.st13{fill:url(#Path_29_);}
	.st14{fill:url(#Shape_9_);}
	.st15{fill:#E1FBFF;}
	.st16{fill:url(#Path_30_);}
	.st17{fill:url(#Path_31_);}
	.st18{fill:url(#Path_32_);}
	.st19{fill:#5D468B;}
	.st20{fill:url(#Path_33_);}
	.st21{fill:url(#Path_34_);}
	.st22{fill:url(#Path_35_);}
	.st23{fill:url(#Path_36_);}
	.st24{fill:url(#Path_37_);}
</style>
<title>Icon/实物类/gzt</title>
<desc>Created with Sketch.</desc>
<linearGradient id="Path_20_" gradientUnits="userSpaceOnUse" x1="-341.3431" y1="434.0231" x2="-342.415" y2="434.254" gradientTransform="matrix(53.5422 0 0 -56.6115 18369.6543 24628.7637)">
	<stop  offset="0" style="stop-color:#FFFFFF"/>
	<stop  offset="1" style="stop-color:#AB9BE6"/>
</linearGradient>
<path id="Path" class="st0" d="M41.6,78l42.1-24.3c1.4-0.8,2.2-2.3,2.2-3.9V27.5l-5.2-5.4L32.4,49.2L36.7,78l0,0
	C38.2,78.9,40.1,78.9,41.6,78z"/>
<linearGradient id="Path_21_" gradientUnits="userSpaceOnUse" x1="-336.5427" y1="432.868" x2="-336.9584" y2="433.7648" gradientTransform="matrix(29.7982 0 0 -51.0387 10059.8848 22176.5781)">
	<stop  offset="0" style="stop-color:#FFFFFF"/>
	<stop  offset="1" style="stop-color:#AB9BE6"/>
</linearGradient>
<path id="Path_1_" class="st1" d="M9.3,27.5v30.6c0,1.9,1,3.8,2.7,4.8L36.7,78c1.1,0.7,2.4,1,2.4-0.3V54.3L9.3,27.5z"/>
<linearGradient id="Path_22_" gradientUnits="userSpaceOnUse" x1="-344.4472" y1="433.9291" x2="-343.4472" y2="433.9291" gradientTransform="matrix(76.6564 0 0 -54.6351 26413.4199 23735.2734)">
	<stop  offset="0" style="stop-color:#6A549E"/>
	<stop  offset="1" style="stop-color:#896CBF"/>
</linearGradient>
<path id="Path_2_" class="st2" d="M41.2,54.4l44-25.5c1-0.6,1.1-1.9,0.3-2.7L57.2,0.9c-0.9-0.8-2.3-1-3.4-0.3L10.5,25.8
	c-1.4,0.8-1.6,2.7-0.4,3.8L37.4,54C38.4,55,39.9,55.1,41.2,54.4z"/>
<linearGradient id="Path_23_" gradientUnits="userSpaceOnUse" x1="-343.9027" y1="433.6895" x2="-342.7097" y2="432.4505" gradientTransform="matrix(69.9219 0 0 -49.7518 24066.6582 21583.9922)">
	<stop  offset="0" style="stop-color:#FFFFFF"/>
	<stop  offset="1" style="stop-color:#BEBAFF"/>
</linearGradient>
<path id="Path_3_" class="st3" d="M41.7,51.8l40.4-23.4c0.9-0.5,1-1.8,0.3-2.5L56.9,3.1c-0.9-0.8-2.1-0.9-3.1-0.3L14,25.9
	c-1.3,0.7-1.5,2.5-0.4,3.5l24.6,22C39.2,52.3,40.6,52.4,41.7,51.8z"/>
<linearGradient id="Path_24_" gradientUnits="userSpaceOnUse" x1="-341.4234" y1="428.5065" x2="-341.584" y2="428.9283" gradientTransform="matrix(49.9188 0 0 -30.4795 17105.5801 13104.124)">
	<stop  offset="0" style="stop-color:#6A549E"/>
	<stop  offset="1" style="stop-color:#896CBF"/>
</linearGradient>
<path id="Path_4_" class="st4" d="M77.6,21.7L32.9,46.7l5.1,4.6c0,0,1.8,1.6,3.8,0.4c2-1.2,40.1-23.2,40.1-23.2s1.7-1.4,0.3-2.7
	C80.8,24.5,77.6,21.7,77.6,21.7z"/>
<linearGradient id="Path_25_" gradientUnits="userSpaceOnUse" x1="-178.6149" y1="225.8388" x2="-180.0369" y2="226.7777" gradientTransform="matrix(2.0571 0 0 -1.6733 409.8122 405.9713)">
	<stop  offset="0" style="stop-color:#282A7A"/>
	<stop  offset="1" style="stop-color:#375092"/>
</linearGradient>
<path id="Path_5_" class="st5" d="M41.1,27.6l0.7,0.7c0.1,0.1,0.2,0.1,0.3,0.2c0.1,0.1,0.3,0,0.4,0c0.2-0.1,0.2-0.2,0.2-0.3
	c0-0.1-0.1-0.1-0.2-0.2l-0.7-0.7l0.2-0.1l0.6,0.7c0.1,0.1,0.2,0.3,0.3,0.4c0.1,0.2,0,0.4-0.3,0.5c-0.2,0.1-0.5,0.2-0.7,0.1
	c-0.1-0.1-0.3-0.2-0.4-0.3l-0.6-0.7L41.1,27.6z"/>
<linearGradient id="Shape_5_" gradientUnits="userSpaceOnUse" x1="-147.4254" y1="233.9371" x2="-148.8474" y2="235.3561" gradientTransform="matrix(1.7391 0 0 -1.7391 300.301 434.366)">
	<stop  offset="0" style="stop-color:#282A7A"/>
	<stop  offset="1" style="stop-color:#375092"/>
</linearGradient>
<path id="Shape" class="st6" d="M42.3,26.9l0.7-0.4c0.1-0.1,0.3-0.1,0.4-0.1c0.2,0,0.3,0.1,0.4,0.2c0.1,0.1,0.2,0.2,0.1,0.3
	c0,0.1-0.1,0.2-0.3,0.3l-0.5,0.3l0.6,0.5l-0.2,0.1L42.3,26.9z M43.4,26.6c-0.1,0-0.1,0-0.2,0.1l-0.4,0.2l0.5,0.4l0.4-0.2
	c0.1-0.1,0.2-0.1,0.2-0.2c0-0.1,0-0.1-0.1-0.2C43.6,26.6,43.5,26.6,43.4,26.6z"/>
<linearGradient id="Path_26_" gradientUnits="userSpaceOnUse" x1="-180.0514" y1="164.683" x2="-181.4734" y2="165.2426" gradientTransform="matrix(2.0735 0 0 -1.3022 418.3293 241.2583)">
	<stop  offset="0" style="stop-color:#282A7A"/>
	<stop  offset="1" style="stop-color:#375092"/>
</linearGradient>
<polygon id="Path_6_" class="st7" points="43.7,26.1 43.9,26 44.9,27.1 45.6,26.6 45.7,26.8 44.8,27.3 "/>
<linearGradient id="Shape_6_" gradientUnits="userSpaceOnUse" x1="-164.8511" y1="233.8741" x2="-166.2731" y2="235.0594" gradientTransform="matrix(1.9029 0 0 -1.7391 360.142 432.8954)">
	<stop  offset="0" style="stop-color:#282A7A"/>
	<stop  offset="1" style="stop-color:#375092"/>
</linearGradient>
<path id="Shape_1_" class="st8" d="M46.1,25c0.2,0.1,0.4,0.2,0.5,0.4c0.2,0.2,0.3,0.4,0.3,0.6c0,0.2-0.1,0.4-0.3,0.6
	c-0.2,0.1-0.5,0.2-0.7,0.1c-0.2-0.1-0.4-0.2-0.6-0.4c-0.2-0.2-0.2-0.4-0.3-0.6c0-0.2,0.1-0.4,0.3-0.6C45.6,24.9,45.9,24.9,46.1,25z
	 M46.7,25.9c0-0.2-0.1-0.3-0.2-0.5c-0.1-0.2-0.3-0.3-0.5-0.3c-0.2,0-0.3,0-0.5,0.1c-0.1,0.1-0.2,0.2-0.2,0.4c0,0.2,0.1,0.3,0.2,0.5
	c0.1,0.1,0.3,0.2,0.4,0.3c0.2,0.1,0.3,0,0.5-0.1C46.6,26.2,46.7,26.1,46.7,25.9z"/>
<linearGradient id="Shape_7_" gradientUnits="userSpaceOnUse" x1="-164.4853" y1="233.7894" x2="-165.9073" y2="234.9804" gradientTransform="matrix(1.8984 0 0 -1.7391 360.3036 432.1741)">
	<stop  offset="0" style="stop-color:#282A7A"/>
	<stop  offset="1" style="stop-color:#375092"/>
</linearGradient>
<path id="Shape_2_" class="st9" d="M46.8,24.4l0.2-0.1l1.7,1l-0.2,0.1L48,25l-0.6,0.3l0.2,0.5L47.4,26L46.8,24.4z M47.8,24.9
	L47,24.5l0.3,0.7L47.8,24.9z"/>
<linearGradient id="Shape_8_" gradientUnits="userSpaceOnUse" x1="-174.4645" y1="233.9517" x2="-175.8865" y2="235.0157" gradientTransform="matrix(2.0084 0 0 -1.7391 399.6125 431.3291)">
	<stop  offset="0" style="stop-color:#282A7A"/>
	<stop  offset="1" style="stop-color:#375092"/>
</linearGradient>
<path id="Shape_3_" class="st10" d="M47.7,23.8l0.6-0.4c0.2-0.1,0.4-0.1,0.6-0.1c0.2,0.1,0.4,0.2,0.5,0.3c0.1,0.1,0.2,0.3,0.2,0.4
	c0.1,0.3,0,0.5-0.3,0.6l-0.6,0.3L47.7,23.8z M49.3,24.6c0.1,0,0.1-0.1,0.1-0.1c0.1-0.1,0.1-0.1,0.1-0.2c0-0.1,0-0.2-0.1-0.2
	c0-0.1-0.1-0.1-0.1-0.1c-0.1-0.2-0.3-0.3-0.4-0.3c-0.1,0-0.3,0-0.5,0.1L48,23.9l0.9,1L49.3,24.6z"/>
<linearGradient id="Path_27_" gradientUnits="userSpaceOnUse" x1="-90.2" y1="164.7794" x2="-91.622" y2="166.0969" gradientTransform="matrix(1.3525 0 0 -1.3032 172.1988 238.5515)">
	<stop  offset="0" style="stop-color:#282A7A"/>
	<stop  offset="1" style="stop-color:#375092"/>
</linearGradient>
<polygon id="Path_7_" class="st11" points="49.2,23 49.4,22.9 50.5,24 50.3,24.2 "/>
<linearGradient id="Path_28_" gradientUnits="userSpaceOnUse" x1="-195.8873" y1="245.1164" x2="-197.3093" y2="246.0312" gradientTransform="matrix(2.29 0 0 -1.8387 499.8857 473.8754)">
	<stop  offset="0" style="stop-color:#282A7A"/>
	<stop  offset="1" style="stop-color:#375092"/>
</linearGradient>
<polygon id="Path_8_" class="st12" points="49.7,22.7 49.9,22.5 51.6,23.1 50.6,22.1 50.8,22 52,23.2 51.8,23.3 50.1,22.8 51,23.8 
	50.8,23.9 "/>
<linearGradient id="Path_29_" gradientUnits="userSpaceOnUse" x1="-184.2603" y1="205.5651" x2="-185.6823" y2="206.2982" gradientTransform="matrix(2.1271 0 0 -1.5289 444.7752 336.5668)">
	<stop  offset="0" style="stop-color:#282A7A"/>
	<stop  offset="1" style="stop-color:#375092"/>
</linearGradient>
<path id="Path_9_" class="st13" d="M52.1,21.3c0.2,0,0.4,0,0.6,0.2l-0.2,0.1c-0.1-0.1-0.2-0.1-0.3-0.1c-0.1,0-0.2,0-0.3,0.1
	c-0.1,0.1-0.2,0.2-0.2,0.3c0,0.1,0.1,0.3,0.2,0.4c0.1,0.1,0.3,0.2,0.4,0.3c0.2,0,0.3,0,0.5-0.1c0.1-0.1,0.2-0.2,0.2-0.3
	c0-0.1,0-0.2-0.2-0.4l-0.5,0.3L52.3,22l0.6-0.4l0.6,0.6l-0.1,0.1l-0.2-0.1c0,0.1,0,0.2-0.1,0.2c0,0.1-0.1,0.2-0.3,0.2
	c-0.2,0.1-0.4,0.1-0.6,0.1c-0.2,0-0.5-0.2-0.7-0.4c-0.2-0.2-0.3-0.4-0.3-0.6c0-0.2,0.1-0.3,0.3-0.4C51.9,21.4,52,21.3,52.1,21.3z"/>
<linearGradient id="Shape_9_" gradientUnits="userSpaceOnUse" x1="-319.718" y1="398.3723" x2="-320.4218" y2="398.8428" gradientTransform="matrix(12.2095 0 0 -8.5564 3948.4971 3429.8181)">
	<stop  offset="0" style="stop-color:#08AEAF"/>
	<stop  offset="1" style="stop-color:#4BCFD9"/>
</linearGradient>
<path id="Shape_4_" class="st14" d="M43.9,16.6c-1.6-1.2-3.9-1.5-5.5-0.6c-1.2,0.7-1.7,1.9-1.3,3.1c-1.2,0.9-1.2,2.4,0,3.6
	c1.3,1.3,3.5,1.7,4.9,1l5.5-3c1.2-0.7,1.3-2,0.2-3.1C46.8,16.4,45.1,16,43.9,16.6L43.9,16.6z M42.8,19l1.5,1.6l-1.7,0.9l-1.5-1.6
	l-1.3,0.7l0.2-3.1l4,0.8L42.8,19z"/>
<path id="Path_10_" class="st15" d="M63,24.5L40.9,37.2c-1.7,1-4,1-5.2,0l0,0c-1.2-0.9-0.8-2.5,0.8-3.4l22.1-12.7c1.7-1,4-1,5.2,0
	l0,0C65.1,22,64.7,23.5,63,24.5z"/>
<linearGradient id="Path_30_" gradientUnits="userSpaceOnUse" x1="-337.1397" y1="419.7283" x2="-336.6179" y2="420.0875" gradientTransform="matrix(29.3517 0 0 -17.5921 9929.6953 7419.4512)">
	<stop  offset="0" style="stop-color:#6A549E"/>
	<stop  offset="1" style="stop-color:#896CBF"/>
</linearGradient>
<path id="Path_11_" class="st16" d="M62.7,24.6l-22,12.6c-1.7,1-3.9,0.9-5.1-0.1l0,0c-1.1-1-0.7-2.6,0.9-3.5l22-12.6
	c1.7-1,3.9-0.9,5.1,0.1l0,0C64.8,22.1,64.4,23.6,62.7,24.6z"/>
<linearGradient id="Path_31_" gradientUnits="userSpaceOnUse" x1="-331.1971" y1="429.1196" x2="-331.4356" y2="430.2196" gradientTransform="matrix(20.2823 0 0 -32.7146 6785.2617 14109.5684)">
	<stop  offset="0" style="stop-color:#282A7A"/>
	<stop  offset="1" style="stop-color:#514FC5"/>
</linearGradient>
<path id="Path_12_" class="st17" d="M63,43.1c0,0-3.2,10.1-3.4,12.8c-0.2,2.7,0,15.7,0,15.7s-1.3,0.5-2.9,0c-1.6-0.5-0.9,1.4,1,1.8
	c1.9,0.4,4.6,1.2,4.6,0.5s0.1-3.5-0.1-4.1c-0.2-0.6,2.4-12.3,2.4-12.3l5-9.6l1.8,22.6c0,0-4.6-0.9-4.5-0.1c0.1,0.9,4.8,2.7,6,2.5
	c1.2-0.2,1.7-13,1.8-15.9c0.1-2.9,1.4-15.6,1.4-15.6L63,43.1z"/>
<linearGradient id="Path_32_" gradientUnits="userSpaceOnUse" x1="-295.331" y1="422.9873" x2="-295.2787" y2="422.0316" gradientTransform="matrix(6.5638 0 0 -20.2146 2014.2898 8570.6738)">
	<stop  offset="0" style="stop-color:#08AEAF"/>
	<stop  offset="1" style="stop-color:#16B5C1"/>
</linearGradient>
<path id="Path_13_" class="st18" d="M72.5,15c0,0,3.9,1.3,6,7.8c1.7,5-1.1,12.5-2.2,12.4C75.3,35.1,72.5,15,72.5,15z"/>
<path id="Path_14_" class="st19" d="M75.2,21.9c0,0,2.3,3.2,0.9,8.8C76.1,30.7,72.9,26.5,75.2,21.9z"/>
<linearGradient id="Path_33_" gradientUnits="userSpaceOnUse" x1="-285.759" y1="398.5349" x2="-285.8227" y2="400.0934" gradientTransform="matrix(5.5656 0 0 -8.7303 1657.4456 3499.7175)">
	<stop  offset="0" style="stop-color:#FFECE6"/>
	<stop  offset="1" style="stop-color:#FCDACA"/>
</linearGradient>
<path id="Path_15_" class="st20" d="M64.2,10.2c0,0-0.9,4.9,1.6,4.5c0,0,0.4,1.9,0.3,2.6c0,0.7,3.4-0.8,3.4-1.9
	c0-1.1,0.2-3.9-1.2-5.5C66.9,8.3,64.9,8.2,64.2,10.2z"/>
<linearGradient id="Path_34_" gradientUnits="userSpaceOnUse" x1="-308.1903" y1="394.6525" x2="-308.8109" y2="395.5531" gradientTransform="matrix(8.7058 0 0 -7.8771 2751.2058 3120.8811)">
	<stop  offset="0" style="stop-color:#282A7A"/>
	<stop  offset="1" style="stop-color:#514FC5"/>
</linearGradient>
<path id="Path_16_" class="st21" d="M66.3,6.5c0,0-1.9,0.3-2.7-0.2s-2,0.3-1.6,2.5c0.4,2.1,0.9,2.4,1.4,2.3c0.5-0.1,1.5,0.5,1.8,1.1
	c0.3,0.6,0.4,1,0.6,0.2c0.1-0.9,0.8-1,1-0.1c0.2,0.8,0.1,2,0.9,1.8c0.8-0.2,2.2,0.3,2.8-1.8C71.1,10.1,69.4,6.2,66.3,6.5z"/>
<linearGradient id="Path_35_" gradientUnits="userSpaceOnUse" x1="-212.1309" y1="372.0991" x2="-212.1672" y2="373.6576" gradientTransform="matrix(2.5595 0 0 -5.314 591.6971 2000.3511)">
	<stop  offset="0" style="stop-color:#FFECE6"/>
	<stop  offset="1" style="stop-color:#FCDACA"/>
</linearGradient>
<path id="Path_17_" class="st22" d="M50,20.4c0.1-0.1-0.2-0.3-0.3-1S50,18,49.9,18c-0.1-0.1-0.4-0.1-0.6,0.3s-1.1-2.3-1.5-2.3
	s0.3,1.8,0.4,2.1c0.1,0.3-0.6,0.5-0.7,1.4s0.5,1.8,0.7,1.8L50,20.4z"/>
<linearGradient id="Path_36_" gradientUnits="userSpaceOnUse" x1="-269.6827" y1="320.5884" x2="-269.1827" y2="324.0542" gradientTransform="matrix(4.4006 0 0 -3.0811 1252.9255 1014.3337)">
	<stop  offset="0" style="stop-color:#08AEAF"/>
	<stop  offset="1" style="stop-color:#16B5C1"/>
</linearGradient>
<path id="Path_18_" class="st23" d="M70.4,14.6c0,0-2,1.1-3.2,1.2c-1.1,0.1-1.1,1.5-1,1.8c0.1,0.3,3.4-0.9,3.9-1.5
	C70.6,15.5,70.6,15.1,70.4,14.6z"/>
<linearGradient id="Path_37_" gradientUnits="userSpaceOnUse" x1="-336.1668" y1="427.9659" x2="-336.2732" y2="429.1473" gradientTransform="matrix(28.4592 0 0 -30.3247 9631.21 13029)">
	<stop  offset="0" style="stop-color:#08AEAF"/>
	<stop  offset="1" style="stop-color:#4BCFD9"/>
</linearGradient>
<path id="Path_19_" class="st24" d="M50,20.1c0,0,3.4,5.2,5.4,5c2-0.2,3.2-3.2,5.7-5c2.2-1.6,4.3-2.1,5-2.6c1.6-1,3-2,4.3-2.6
	s2.7,0.1,3.6,1.2c0.9,1.1,3.1,21.8,1.9,25.2c-1.2,3.4-2.9,1.5-8.3,3c-5,1.5-4.8,0.5-4.7-2.9c0.1-3.4,1.6-8.4,1-11.4
	c-0.6-3-0.1-5.8-2.2-4.3c-1.5,1-3.9,2.7-6.4,2.9c-2.7,0.2-5.7-2.9-7.5-7.6L50,20.1z"/>
</svg>
