<svg width="256" height="256" viewBox="0 0 256 256" xmlns="http://www.w3.org/2000/svg" xmlns:xlink="http://www.w3.org/1999/xlink"><defs><radialGradient cy="-29.736%" fx="50%" fy="-29.736%" r="129.736%" gradientTransform="matrix(0 1 -.45474 0 .365 -.797)" id="a"><stop stop-color="#E7E7E9" offset="0%"/><stop stop-color="#E7E7E9" stop-opacity="0" offset="100%"/></radialGradient><linearGradient x1="50%" y1="-24.978%" x2="50%" y2="41.641%" id="b"><stop stop-color="#CDCED1" stop-opacity=".5" offset="0%"/><stop stop-color="#CDCED1" stop-opacity="0" offset="100%"/></linearGradient><linearGradient x1="50%" y1="0%" x2="50%" y2="59.76%" id="c"><stop stop-color="#CDCED1" stop-opacity=".5" offset="0%"/><stop stop-color="#CDCED1" stop-opacity="0" offset="100%"/></linearGradient><linearGradient x1="55.803%" y1="50.665%" x2="50.996%" y2="49.335%" id="d"><stop stop-color="#070A1A" stop-opacity=".1" offset="0%"/><stop stop-color="#070A1A" stop-opacity="0" offset="100%"/></linearGradient><linearGradient x1="50%" y1="0%" x2="50%" y2="100%" id="f"><stop stop-color="#DBDCDF" offset="0%"/><stop stop-color="#B5B6BB" offset="100%"/></linearGradient><rect id="e" width="108" height="135.9" rx="2.7"/><linearGradient x1="50%" y1="0%" x2="50%" y2="100%" id="g"><stop stop-color="#F9F9FA" offset="0%"/><stop stop-color="#F0F1F2" offset="100%"/></linearGradient><linearGradient x1="100%" y1="23.554%" x2="0%" y2="76.446%" id="i"><stop stop-color="#F0F1F2" offset="0%"/><stop stop-color="#E7E7E9" offset="100%"/></linearGradient><linearGradient x1="100%" y1="48.488%" x2="0%" y2="51.512%" id="j"><stop stop-color="#F0F1F2" offset="0%"/><stop stop-color="#E7E7E9" offset="100%"/></linearGradient><linearGradient x1="100%" y1="49.015%" x2="0%" y2="50.985%" id="k"><stop stop-color="#F0F1F2" offset="0%"/><stop stop-color="#E7E7E9" offset="100%"/></linearGradient><linearGradient x1="100%" y1="47.663%" x2="0%" y2="52.337%" id="l"><stop stop-color="#F0F1F2" offset="0%"/><stop stop-color="#E7E7E9" offset="100%"/></linearGradient><linearGradient x1="100%" y1="49.308%" x2="0%" y2="50.692%" id="m"><stop stop-color="#F0F1F2" offset="0%"/><stop stop-color="#E7E7E9" offset="100%"/></linearGradient><linearGradient x1="50%" y1="-15.901%" x2="50%" y2="149.504%" id="n"><stop stop-color="#CBCCD0" offset="0%"/><stop stop-color="#9C9DA3" offset="100%"/></linearGradient><linearGradient x1="83.805%" y1="19.784%" x2="8.811%" y2="85.8%" id="o"><stop stop-color="#DBDCDF" offset="0%"/><stop stop-color="#9C9DA3" offset="100%"/><stop stop-color="#9C9DA3" offset="100%"/></linearGradient><linearGradient x1="74.152%" y1="44.847%" x2="6.11%" y2="95.626%" id="p"><stop stop-color="#E7E7E9" offset="0%"/><stop stop-color="#F5F5F6" offset="100%"/></linearGradient><linearGradient x1="84.016%" y1="3.954%" x2="27.717%" y2="92.493%" id="q"><stop stop-color="#F5F5F6" stop-opacity=".5" offset="0%"/><stop stop-color="#FFF" stop-opacity=".4" offset="100%"/></linearGradient><linearGradient x1="55.869%" y1="0%" x2="44.019%" y2="100%" id="r"><stop stop-color="#DBDCDF" offset="0%"/><stop stop-color="#9C9DA3" offset="100%"/></linearGradient><linearGradient x1="83.805%" y1="0%" x2="15.55%" y2="100%" id="s"><stop stop-color="#DBDCDF" offset="0%"/><stop stop-color="#9C9DA3" offset="100%"/></linearGradient></defs><g fill="none" fill-rule="evenodd"><g transform="translate(-48 19)"><ellipse fill="url(#a)" cx="176" cy="195" rx="128" ry="42"/><circle fill="url(#b)" opacity=".7" cx="78.5" cy="55.5" r="22.5"/><circle fill="url(#c)" opacity=".5" cx="286.5" cy="117.5" r="22.5"/><circle fill="url(#c)" opacity=".4" cx="126.5" cy="40" r="40"/><circle fill="url(#c)" opacity=".4" cx="243" cy="95" r="40"/><path d="M2.459 156.19h114c1.656 0 4.027.238 5.295.533l110.95 25.744c1.268.295.953.533-.704.533H118c-1.657 0-4.028-.238-5.296-.533L1.754 156.723c-1.268-.295-.952-.533.705-.533z" fill="url(#d)"/><g transform="translate(122 47.4)"><mask id="h" fill="#fff"><use xlink:href="#e"/></mask><use fill="url(#f)" fill-rule="nonzero" xlink:href="#e"/><rect fill="url(#g)" fill-rule="nonzero" mask="url(#h)" x="6.3" y="8.1" width="95.4" height="119.7" rx="2.7"/><path fill="url(#i)" mask="url(#h)" d="M17.1 25.2H27v7.2h-9.9zM17.1 44.1H27v7.2h-9.9zM17.1 62.1H27v7.2h-9.9zM17.1 81H27v7.2h-9.9z"/><path fill="url(#j)" mask="url(#h)" d="M33.3 25.2h41.4v7.2H33.3z"/><path fill="url(#k)" mask="url(#h)" d="M33.3 44.1h51.3v7.2H33.3z"/><path fill="url(#l)" mask="url(#h)" d="M33.3 62.1h33.3v7.2H33.3z"/><path fill="url(#m)" mask="url(#h)" d="M33.3 81h61.2v7.2H33.3z"/></g><path fill="url(#n)" fill-rule="nonzero" d="M33.3 0h41.4v16.2H33.3z" transform="translate(122 42)"/></g><g transform="translate(120 122)" fill-rule="nonzero"><path d="M38.995 7.003l29.274 43.91a3.6 3.6 0 0 1-2.996 5.597H6.727a3.6 3.6 0 0 1-2.996-5.597l29.274-43.91a3.6 3.6 0 0 1 5.99 0z" fill-opacity=".1" fill="#070A1A"/><path d="M40.697.605a3.6 3.6 0 0 1 .998.998l29.274 43.91a3.6 3.6 0 0 1-2.996 5.597H9.427a3.6 3.6 0 0 1-2.996-5.597l29.274-43.91a3.6 3.6 0 0 1 4.992-.998zM38.7 10.09L16.152 43.91h45.095L38.7 10.09z" fill="url(#o)"/><path fill="url(#p)" d="M38.7 10.09L16.152 43.91h45.095z"/><path fill="url(#q)" d="M38.7 10.09L16.152 43.91h18.111L47.56 23.38z"/><path d="M39 18a2.799 2.799 0 0 1 2.792 2.993l-.653 9.412a2.144 2.144 0 0 1-4.278 0l-.653-9.412A2.799 2.799 0 0 1 39 18z" fill="url(#r)"/><circle fill="url(#s)" cx="39" cy="37" r="3"/></g></g></svg>
