<svg width="156" height="110" viewBox="0 0 156 110" xmlns="http://www.w3.org/2000/svg" xmlns:xlink="http://www.w3.org/1999/xlink"><defs><rect id="a" width="1112" height="178" rx="2"/><filter x="-.6%" y="-2.8%" width="101.3%" height="107.9%" filterUnits="objectBoundingBox" id="b"><feOffset dy="2" in="SourceAlpha" result="shadowOffsetOuter1"/><feGaussianBlur stdDeviation="2" in="shadowOffsetOuter1" result="shadowBlurOuter1"/><feColorMatrix values="0 0 0 0 0.333333333 0 0 0 0 0.301960784 0 0 0 0 0.407843137 0 0 0 0.08 0" in="shadowBlurOuter1"/></filter></defs><g fill="none" fill-rule="evenodd"><path fill="#302647" opacity=".06" d="M-1260-84H180v862h-1440z"/><g transform="translate(-956)"><mask id="c" fill="#fff"><use xlink:href="#a"/></mask><use fill="#000" filter="url(#b)" xlink:href="#a"/><use fill="#FFF" xlink:href="#a"/><g mask="url(#c)" opacity=".04"><path d="M936-100h240v240H936z"/><path d="M1153.1 46.541l-48.11 58.588c-2.538 3.074-6.362 4.856-10.4 4.847l-77.176.024c-4.037.003-7.859-1.785-10.392-4.863l-48.134-58.58a12.71 12.71 0 0 1-2.558-10.932l17.166-73.061c.9-3.835 3.542-7.05 7.192-8.754l69.518-32.53a13.643 13.643 0 0 1 11.542 0l69.543 32.513c3.65 1.705 6.292 4.928 7.192 8.754l17.183 73.062c.9 3.834-.041 7.857-2.566 10.932z" fill="#1890FF"/><path d="M1055.99-55.116c2.3 0 4.166 2.031 4.166 4.528 0 .35.017.832.009 1.158-.059 1.445-.375 2.546-.567 3.876-.35 2.84-.658 5.197-.475 7.384.167 1.1.817 1.533 1.358 2.04l.1 1.819c13.159 1.17 25.436 6.977 34.55 16.342l1.584-1.102c.534.033 1.717.188 2.525-.27 1.859-1.231 3.559-2.928 5.609-4.968.941-.979 1.633-1.909 2.75-2.855.258-.212.641-.498.925-.718 1.991-1.559 4.775-1.395 6.208.367 1.434 1.762.975 4.446-1.025 6.005-.283.22-.65.53-.916.726-1.184.856-2.276 1.289-3.459 1.974-2.492 1.501-4.55 2.75-6.192 4.259-.775.808-.716 1.566-.783 2.3-.225.213-1.042.915-1.475 1.298a52.183 52.183 0 0 1 7.8 17.647 51.545 51.545 0 0 1 .875 19.026l1.675.482c.3.416.925 1.436 1.8 1.762 2.142.66 4.542.906 7.459 1.208 1.366.106 2.541.04 3.991.31.35.065.859.195 1.209.277 2.458.58 4.025 2.79 3.525 4.96-.509 2.179-2.9 3.5-5.375 2.978l-.059-.008-.075-.024c-.35-.074-.783-.147-1.083-.229-1.425-.367-2.45-.922-3.733-1.411-2.75-.963-5.034-1.77-7.25-2.089-.907-.065-1.457.256-1.96.596l-.25.17-.124.083a47.394 47.394 0 0 0-1.775-.31c-4.026 12.4-12.568 22.917-24 29.55.2.474.541 1.47.691 1.649-.258.685-.65 1.338-.316 2.398.808 2.056 2.108 4.055 3.691 6.47.759 1.118 1.542 1.975 2.234 3.247.166.31.375.775.541 1.094 1.067 2.243.284 4.83-1.775 5.792-2.066.98-4.641-.049-5.75-2.3-.158-.319-.383-.751-.516-1.053-.592-1.322-.792-2.456-1.209-3.728-.941-2.717-1.716-4.96-2.85-6.854-.633-.922-1.416-1.036-2.133-1.264l-.883-1.567a54.853 54.853 0 0 1-38.41-.098l-.941 1.673c-.708.187-1.375.367-1.792.856-1.516 1.77-2.125 4.61-3.225 7.319-.417 1.28-.617 2.415-1.2 3.737-.133.301-.35.717-.517 1.036v.016c-1.116 2.244-3.683 3.28-5.75 2.3-2.058-.97-2.841-3.548-1.775-5.792.159-.318.367-.791.534-1.093.691-1.281 1.475-2.146 2.233-3.256 1.575-2.415 2.958-4.577 3.767-6.633.208-.677-.092-1.615-.367-2.3l.75-1.779c-11.39-6.583-19.927-17.018-24-29.339l-1.809.302c-.483-.26-1.466-.897-2.4-.824-2.216.318-4.5 1.126-7.25 2.089-1.283.481-2.317 1.028-3.733 1.403l-1.075.237-.084.024-.058.008c-2.467.522-4.867-.8-5.375-2.978-.508-2.17 1.067-4.38 3.525-4.96l.058-.016.034-.017c.358-.081.8-.187 1.108-.244 1.458-.27 2.633-.204 4-.319 2.909-.302 5.317-.538 7.459-1.199.683-.27 1.333-1.183 1.791-1.77l1.734-.49c-1.891-12.861 1.136-25.953 8.5-36.763l-1.334-1.167c-.083-.506-.2-1.68-.833-2.35-1.642-1.5-3.7-2.749-6.192-4.258-1.183-.678-2.266-1.118-3.45-1.975l-.866-.677-.059-.04c-2-1.56-2.458-4.251-1.025-6.014a4.046 4.046 0 0 1 3.317-1.436 5.013 5.013 0 0 1 2.9 1.077c.315.232.623.471.925.718 1.117.938 1.8 1.869 2.742 2.848 2.05 2.04 3.75 3.736 5.608 4.96.975.563 1.725.335 2.475.237.496.354.996.702 1.5 1.044 9.1-9.476 21.475-15.3 34.717-16.342l.1-1.721a4.435 4.435 0 0 0 1.35-2.105c.184-2.195-.116-4.553-.466-7.392-.192-1.33-.509-2.431-.559-3.876-.016-.293 0-.71 0-1.044l-.008-.114c0-2.497 1.867-4.528 4.159-4.528zm-.134 92.911a3.675 3.675 0 0 0-3.1 1.901h-.016l-10.567 18.7c8.983 3 18.728 3.01 27.717.025l-10.584-18.733h-.083a3.656 3.656 0 0 0-3.367-1.893zm16.85-8.362c-1.78.832-2.567 2.894-1.783 4.666l-.025.033 8.417 19.891c8.042-5.027 14.144-12.534 17.342-21.335l-21.667-3.59-.033.04a3.737 3.737 0 0 0-2.25.295zm-32.189 1.086a3.708 3.708 0 0 0-3.528-1.29l-.033-.041-21.484 3.565c3.225 8.734 9.303 16.181 17.292 21.188l8.325-19.687-.058-.081a3.55 3.55 0 0 0-.514-3.654zm18.823-18.864h-6.7l-4.167 5.083 1.491 6.355v-.008l6.026 2.848 6.016-2.832 1.5-6.363-4.166-5.083zm-40.134-15.42c-4.986 7.944-7.126 17.288-6.084 26.556l20.95-5.915.017-.073a3.625 3.625 0 0 0 2.606-2.662 3.545 3.545 0 0 0-1.164-3.506l.017-.09-16.342-14.31zm73.46 0v.008l-16.251 14.245v.04a3.545 3.545 0 0 0-1.172 3.512 3.625 3.625 0 0 0 2.614 2.665l.025.082 21.05 5.94a41.55 41.55 0 0 0-.9-13.659 41.997 41.997 0 0 0-5.367-12.833zm-41.877-19.752c-9.464 1.083-18.29 5.222-25.083 11.764L1043.598.673l.033-.016V.649a3.732 3.732 0 0 0 3.754.334 3.588 3.588 0 0 0 2.071-3.084l.083-.04 1.25-21.376zm10.426.008l1.233 21.335.017.008a3.588 3.588 0 0 0 2.076 3.084 3.732 3.732 0 0 0 3.757-.343l.067.025 17.783-12.344c-6.77-6.491-15.53-10.625-24.933-11.765z" fill="#FFF"/></g></g></g></svg>
