<svg width="120" height="100" viewBox="0 0 120 100" xmlns="http://www.w3.org/2000/svg" xmlns:xlink="http://www.w3.org/1999/xlink"><defs><linearGradient x1="6.816%" y1="36.794%" x2="68.287%" y2="57.646%" id="a"><stop stop-color="#A38DCD" offset="0%"/><stop stop-color="#6A549E" offset="100%"/></linearGradient><linearGradient x1="-16.214%" y1="50%" y2="50%" id="b"><stop stop-color="#F2F0FF" stop-opacity=".2" offset="0%"/><stop stop-color="#A8A0FB" stop-opacity=".5" offset="100%"/></linearGradient><linearGradient x1="79.872%" y1="38.535%" x2="-34.029%" y2="74.984%" id="c"><stop stop-color="#F9F8FF" offset="0%"/><stop stop-color="#DCD8FF" offset="100%"/></linearGradient><path d="M4.256 0c.7 0 1.349.322 1.884.87.065.066.129.137.19.21.014.017.03.034.043.052.725.891 1.187 2.23 1.187 3.725 0 2.684-1.48 4.863-3.304 4.863H3.24c1.824 0 3.304-2.18 3.304-4.863 0-1.494-.461-2.834-1.187-3.725-.013-.018-.028-.035-.042-.052a3.481 3.481 0 0 0-.191-.21C4.59.323 3.94 0 3.24 0h1.016z" id="e"/><filter x="-104.2%" y="-46.3%" width="308.3%" height="192.6%" filterUnits="objectBoundingBox" id="d"><feOffset in="SourceAlpha" result="shadowOffsetOuter1"/><feGaussianBlur stdDeviation="1.5" in="shadowOffsetOuter1" result="shadowBlurOuter1"/><feColorMatrix values="0 0 0 0 0.822129875 0 0 0 0 0.849562517 0 0 0 0 0.959293089 0 0 0 1 0" in="shadowBlurOuter1"/></filter><linearGradient x1="60.444%" y1="18.247%" x2="-12.51%" y2="74.984%" id="f"><stop stop-color="#F6F5FF" offset="0%"/><stop stop-color="#E9E8F6" offset="100%"/></linearGradient><linearGradient x1="21.833%" y1="0%" x2="91.878%" y2="119.354%" id="g"><stop stop-color="#66E4D5" offset="0%"/><stop stop-color="#36C5AB" offset="100%"/></linearGradient><path d="M7.372-.002c1.158 0 2.232.512 3.117 1.384.107.104.213.216.315.332.022.028.047.055.07.082 1.2 1.418 1.964 3.546 1.964 5.922 0 4.265-2.45 7.73-5.466 7.73h-1.68c3.016 0 5.465-3.465 5.465-7.73 0-2.376-.763-4.504-1.963-5.922-.023-.027-.048-.054-.07-.082a5.62 5.62 0 0 0-.316-.332C7.924.51 6.848-.002 5.692-.002h1.68z" id="i"/><filter x="-63%" y="-29.1%" width="225.9%" height="158.3%" filterUnits="objectBoundingBox" id="h"><feOffset in="SourceAlpha" result="shadowOffsetOuter1"/><feGaussianBlur stdDeviation="1.5" in="shadowOffsetOuter1" result="shadowBlurOuter1"/><feColorMatrix values="0 0 0 0 0.822129875 0 0 0 0 0.849562517 0 0 0 0 0.959293089 0 0 0 1 0" in="shadowBlurOuter1"/></filter><linearGradient x1="61.747%" y1="18.247%" x2="-102.504%" y2="276.632%" id="j"><stop stop-color="#F8F7FF" offset="0%"/><stop stop-color="#FCFCFF" offset="100%"/></linearGradient><linearGradient x1="21.833%" y1="0%" x2="91.878%" y2="119.354%" id="k"><stop stop-color="#66E4D5" offset="0%"/><stop stop-color="#36C5AB" offset="100%"/></linearGradient></defs><g fill="none" fill-rule="evenodd"><path d="M113.215 79.914a11.506 11.506 0 0 1-.013.567 10.859 10.859 0 0 1-.049.69l-.014.137-.007.067-.008.067-.017.134c-.089.667-.231 1.303-.42 1.9a9.619 9.619 0 0 1-.706 1.665c-.277.51-.596.978-.952 1.396a7.175 7.175 0 0 1-1.413 1.277 6.046 6.046 0 0 1-.798.462c-.054.027-.109.051-.163.077l-.166.071-.166.067-.169.063-3.153 1.104.072-.028a4.238 4.238 0 0 0 .335-.14 5.12 5.12 0 0 0 .439-.22 7.655 7.655 0 0 0 .53-.326 7.1 7.1 0 0 0 1.424-1.305c.359-.428.68-.906.962-1.431.281-.526.52-1.099.712-1.71.19-.614.334-1.267.424-1.954l.018-.139.015-.137.028-.28c.008-.095.015-.19.02-.285a11.59 11.59 0 0 0 .029-.871V18.205a13.236 13.236 0 0 0-.218-2.376l-.038-.196-.042-.194-.044-.193-.048-.19a11.337 11.337 0 0 0-.418-1.282 10.138 10.138 0 0 0-.552-1.153l-.078-.13-.038-.065-.12-.19-.083-.125c-.031-.048-.063-.095-.098-.143a5.692 5.692 0 0 0-.239-.326l-.158-.203a8.468 8.468 0 0 1-.097-.115l-.1-.112-.1-.109-.102-.107a10.07 10.07 0 0 0-.193-.194 7.325 7.325 0 0 0-.611-.524c-.055-.042-.112-.083-.17-.124l-.085-.06-.087-.058c-.057-.04-.116-.076-.175-.113l-.178-.106a6.019 6.019 0 0 0-.148-.082l-.15-.077-.151-.072-.153-.069-.056-.024-.056-.024-.11-.045-.058-.022-.035-.014 1.491.522 1.625.57c.038.015.075.027.113.041.037.014.075.028.112.044l.112.044.108.047.153.068.15.073.148.074.147.08c.06.035.12.07.177.106l.175.11.17.116.169.121a7.06 7.06 0 0 1 .795.703l.102.105.099.107.098.11c.034.037.065.074.097.111l.158.2c.047.06.09.115.129.168.04.052.074.1.108.15.034.046.066.092.097.14l.041.06.04.06c.028.041.053.082.08.124.026.04.053.083.077.125.027.042.051.084.077.127a8.967 8.967 0 0 1 .547 1.123c.082.199.155.401.225.61.069.208.132.421.19.638l.047.185.044.186.041.19a11.72 11.72 0 0 1 .198 1.315 13.506 13.506 0 0 1 .055 1.183v60.79z" fill="#AC9AD4"/><path d="M48.62 6.057c.017.063.03.126.047.19l.044.191c.015.064.03.13.042.195.013.065.027.13.038.196a11.179 11.179 0 0 1 .162 1.157 13.449 13.449 0 0 1 .056 1.219v62.627a12.348 12.348 0 0 1-.013.584 21.368 21.368 0 0 1-.036.571l-.014.14-.013.141c-.006.046-.01.092-.017.138l-.017.139c-.09.687-.233 1.339-.425 1.953a9.894 9.894 0 0 1-.711 1.71 8.388 8.388 0 0 1-.961 1.432 7.15 7.15 0 0 1-1.687 1.475 7.628 7.628 0 0 1-.543.299 6.295 6.295 0 0 1-1.549.517 5.257 5.257 0 0 1-.203.033 3.862 3.862 0 0 1-.203.03c-.07.006-.138.015-.207.02l-.207.016a6.24 6.24 0 0 1-.21.007l-.21.001-.211-.006a6.775 6.775 0 0 1-.856-.096 7.006 7.006 0 0 1-.653-.146l-35.37-9.61a3.705 3.705 0 0 1-.978-.43 5.076 5.076 0 0 1-.896-.71 7.11 7.11 0 0 1-.799-.949 9.112 9.112 0 0 1-.686-1.146 12.933 12.933 0 0 1-.152-.313 13.53 13.53 0 0 1-.144-.323 12.924 12.924 0 0 1-.265-.673l-.06-.172-.057-.175a8.071 8.071 0 0 1-.11-.357 13.432 13.432 0 0 1-.502-2.758c-.002-.032-.004-.065-.008-.099-.002-.034-.005-.066-.006-.1a10.897 10.897 0 0 1-.016-.3c-.004-.066-.006-.134-.008-.2-.001-.068-.004-.136-.004-.204L0 62.07V18.969c0-1.083.126-2.142.356-3.132.228-.995.562-1.926.978-2.744.42-.826.92-1.541 1.485-2.095.57-.561 1.203-.96 1.875-1.142L40.062.248a7.029 7.029 0 0 1 1.51-.241A8.398 8.398 0 0 1 41.994 0l.209.007a11.572 11.572 0 0 1 .414.036c.067.01.136.018.203.03.069.009.136.021.203.033a6.16 6.16 0 0 1 1.312.41l.153.07a8.936 8.936 0 0 1 .3.149c.05.025.1.053.149.081a8.99 8.99 0 0 1 .353.218 5.673 5.673 0 0 1 .342.243 7.325 7.325 0 0 1 .611.525c.065.063.128.127.193.194l.102.106c.033.036.067.072.1.11l.1.111c.031.039.064.076.096.115.06.074.111.142.16.204l.13.172.11.153.097.144.082.124c.027.041.054.083.08.126.027.042.053.086.079.129.025.043.05.087.077.13a10.138 10.138 0 0 1 .97 2.435" fill="url(#a)" transform="translate(61 9)"/><path d="M17.464 40.172l3.72-.67.07.076c.07.076.133.164.189.258a1.96 1.96 0 0 1 .23.634c.015.076.024.153.03.23l.003.115v3.37l-.006.118c-.008.112-.026.22-.052.322-.026.1-.062.195-.106.28a1.031 1.031 0 0 1-.157.23.817.817 0 0 1-.129.117l-.072.045-2.171 1.222-.054.019-3.71.912.041-.016.08-.044 2.094-1.205a.748.748 0 0 0 .202-.167c.06-.067.112-.146.156-.235.045-.089.08-.187.107-.292.027-.105.044-.217.052-.333l.005-.123v-1.758l-3.114.658-.77-.814v-1.28l.77-.496 2.975-.556-.024-.062a1.767 1.767 0 0 0-.22-.392l-.069-.085-.07-.078zm.468 2.892l-.11.069v1.235l.164.165v-.994c0-.12-.01-.24-.03-.36l-.024-.115zm22.32-3.27a1.623 1.623 0 0 1-.219.718 1.414 1.414 0 0 1-.393.421l-.1.062-2.86 1.52-.1.047-3.61.817.1-.05 2.903-1.568c.1-.058.194-.13.278-.214a1.44 1.44 0 0 0 .218-.287c.062-.107.113-.224.15-.35.038-.125.062-.26.073-.399l3.56-.718zm-20.524-5.95v4.276l1.455 1.382-3.72.67-1.456-1.444v-4.435l3.721-.45zm19.911.445c.097.083.183.18.26.286a1.873 1.873 0 0 1 .318.723c.019.088.031.178.038.268l.003.138.001 3.95-.008.139-3.56.718.009-.145v-4.128l-.005-.143a2.074 2.074 0 0 0-.361-1.038 1.861 1.861 0 0 0-.263-.3l3.568-.468zm-7.253 1.98l3.618-.518-1.051.611v1.45l1.05.853-3.617.644-1.062-.895v-1.511l1.062-.634zM9.551 29.307l.945 2.552-2.19 1.719v2.14c-.005.1-.018.197-.039.289-.02.09-.049.177-.083.256-.033.08-.074.152-.12.215a.832.832 0 0 1-.153.162l-1.67 1.257-3.666.457.057-.041 1.6-1.249a.783.783 0 0 0 .152-.167c.045-.065.085-.139.118-.22a1.748 1.748 0 0 0 .122-.563l-.001-1.008-2.372.234-.59-.641v-1.13l.59-.494 3.663-.29-.596.48v.072l1.48-1.204-.357-1.004-2.708.177-1.132-1.15-.064-.053-.078-.05-.1-.04-.108-.02H2.22l3.645-.194.105.005-.111-.311 3.692-.186zm26.414 2.478l.153.015.18.044.03.01c.003 0 .006.001.007.003l.152.066.193.12 2.863 2.162.096.083-3.57.47-.096-.088-2.957-2.306-.091-.059-.115-.06-.187-.07-.182-.036-.148-.007-.067.003 3.645-.349.094-.001zM6.798 16.659l3.698.232-.945 2.54-3.692-.145.145-.409-.073.01-3.65-.157.107-.024.116-.058.1-.08 1.129-1.133 2.733.149.332-.925zm23.028-1.06l3.647.33-3.34 2.572-3.678-.215 3.37-2.687zm6.147-1.063l3.57.392-2.94 2.17-.08.048-.175.08-.202.056-.118.016h-.161l-3.57-.276.245-.02.206-.063.134-.063.17-.108 2.92-2.232zM2.575 10.379l3.666.418.057.04 1.613 1.239a.755.755 0 0 1 .154.16c.045.065.086.137.12.217.033.08.061.165.082.256l.026.14.014.147v2.14l2.189 1.756-3.698-.233-.91-.756-3.637-.25-.59-.51v-1.121l.59-.634 2.373.208v-.955a1.729 1.729 0 0 0-.122-.56 1.182 1.182 0 0 0-.118-.223.77.77 0 0 0-.152-.166L2.631 10.42l-.056-.04zm34.125 2.6l3.56.46a1.936 1.936 0 0 1-.362 1.124c-.076.104-.162.2-.259.283l-.097.082-3.569-.392.098-.086.094-.09a1.833 1.833 0 0 0 .367-.564 2.065 2.065 0 0 0 .168-.817zm-3.63-7.143l-.108-.054 3.598.741.021.008.1.05 2.861 1.558c.1.055.194.125.275.206.081.081.154.176.216.28.06.102.11.215.147.336.037.12.061.247.071.379l.008.148v3.951l-3.56-.46V8.85l-.007-.155a1.88 1.88 0 0 0-.073-.396 1.635 1.635 0 0 0-.15-.35 1.408 1.408 0 0 0-.218-.29l-.278-.215-2.902-1.609zm-.684 4.01l3.618.575-1.05.839v1.44l1.05.635-3.618-.448-1.062-.658v-1.503l1.062-.88zM17.534 7.229l3.72.673-.07.076-1.456 1.383v4.276l-3.721-.45V8.751l1.457-1.443.07-.079zM15.29.046l3.723.915.078.036 2.093 1.186a.783.783 0 0 1 .201.161c.06.065.113.142.157.227.044.085.08.18.106.28.026.103.044.212.052.327l.006.117v3.37c0 .115-.011.23-.033.344a1.903 1.903 0 0 1-.23.635 1.584 1.584 0 0 1-.189.259l-3.72-.674c.07-.08.134-.17.19-.269.047-.085.089-.176.125-.27l-2.976-.556-.772-.494V4.35l.772-.805 3.113.657V2.444l-.005-.122a1.859 1.859 0 0 0-.052-.337 1.355 1.355 0 0 0-.107-.29 1.069 1.069 0 0 0-.156-.235.775.775 0 0 0-.202-.164L15.37.083 15.29.046zM13.598 23.92v2.439a.122.122 0 0 0 .012.062l.018.04.028.046c.03.05.074.107.129.17.055.062.123.13.203.204a4.345 4.345 0 0 0 .647.468c.231.136.487.26.762.373.278.113.577.214.893.3.318.088.655.16 1.005.217a11.2 11.2 0 0 0 2.057.13c.105-.003.21-.008.315-.014l-2.977.179-.316.014a11.7 11.7 0 0 1-.96-.016 10.355 10.355 0 0 1-1.096-.125 9.322 9.322 0 0 1-1.004-.226 7.866 7.866 0 0 1-.89-.312 5.896 5.896 0 0 1-.76-.388 4.589 4.589 0 0 1-.363-.25 3.668 3.668 0 0 1-.282-.237 2.532 2.532 0 0 1-.202-.211 1.476 1.476 0 0 1-.13-.174l-.026-.049a.28.28 0 0 1-.029-.077l-.001-.015v-2.536l2.967-.012zm7.861.979l-.278.065-1.5.027-1.47.025.275-.068 2.973-.05zm-5.427-6.154a13.975 13.975 0 0 1 .612.017l2.978.175a10.65 10.65 0 0 0-2.327.117 9.57 9.57 0 0 0-1.005.216 7.97 7.97 0 0 0-.893.301c-.275.113-.531.238-.761.373a4.34 4.34 0 0 0-.468.318c-.131.103-.24.2-.324.29a1.51 1.51 0 0 0-.188.232.328.328 0 0 0-.062.149l.007.028.014.034c.005.013.011.026.02.04l.026.045c.032.046.075.1.13.159.055.059.123.122.203.188.08.067.174.137.28.207.107.07.227.141.362.212.216.114.456.216.713.306.259.091.537.17.83.235.295.064.607.116.931.152.327.036.668.058 1.017.061l-2.977-.036a9.814 9.814 0 0 1-1.016-.063 8.603 8.603 0 0 1-.93-.158 6.863 6.863 0 0 1-.828-.242 5.17 5.17 0 0 1-.712-.316 3.984 3.984 0 0 1-.36-.22 3.178 3.178 0 0 1-.278-.213 2.438 2.438 0 0 1-.203-.195 1.25 1.25 0 0 1-.156-.21.409.409 0 0 1-.033-.078l-.007-.028c0-.033.02-.087.06-.154.043-.068.105-.15.189-.242s.191-.193.322-.3c.131-.106.286-.217.466-.33.23-.14.485-.27.759-.386.278-.118.576-.223.891-.314.319-.09.654-.168 1.003-.227a10.371 10.371 0 0 1 1.407-.138l.308-.005zm1.954-15.807v1.003c0 .12-.01.239-.03.358l-.024.115-.11-.068V3.103l.164-.164zm3.473 27.926l-.278.048-.017.002-.055.008a7 7 0 0 1-.073.01l-.147.018a11.702 11.702 0 0 1-.297.032l-2.9.273.074-.008.074-.008.148-.018.22-.03 1.294-.123-1.295.122.279-.047a8.165 8.165 0 0 0 1.783-.517 5.49 5.49 0 0 0 1.449-.883c.412-.357.742-.772.969-1.243.229-.473.352-1 .352-1.578l-.005-.134-.001-2.421-.046.02a8.61 8.61 0 0 1-1.528.512l-2.974.05a8.84 8.84 0 0 0 1.816-.666 6.77 6.77 0 0 0 .533-.299l2.199-.01v-3.393l.006-.19c0-.216-.018-.426-.051-.628a3.54 3.54 0 0 0-.718-1.617 4.193 4.193 0 0 0-.71-.708 5.378 5.378 0 0 0-.892-.569 6.945 6.945 0 0 0-1.036-.423 8.771 8.771 0 0 0-1.147-.282l2.974.274c.397.069.78.16 1.143.274.365.115.71.251 1.031.411.323.162.62.344.887.549.268.207.506.434.708.684a3.425 3.425 0 0 1 .564.992 3.387 3.387 0 0 1 .199 1.167l-.005.183v5.966l.005.129a3.37 3.37 0 0 1-.35 1.518 3.759 3.759 0 0 1-.964 1.197 5.538 5.538 0 0 1-1.441.854 8.3 8.3 0 0 1-1.777.502l-.512.048.512-.048zm-4.003-5.713l.108-.016c.073-.012.145-.023.217-.036.072-.011.143-.025.214-.038l.213-.044.002-.001h-.003l1.474-.025 1.5-.026-.21.042-.215.038-.216.034-.217.03-.293.04-.27.027-.134.01-.135.01c-.09.006-.18.01-.272.014l-.272.008-2.978.06.137-.003.136-.006c.09-.003.181-.008.271-.013l.271-.021.135-.013.135-.015.293-.04.109-.016z" fill="url(#b)" opacity=".8" transform="translate(64 25)"/><path d="M13.763 34.017l2.244.276v4.435l1.457 1.445.07.077c.07.08.133.172.19.27a2.136 2.136 0 0 1 .231.66c.02.118.031.238.031.359v3.496l-.005.124a1.89 1.89 0 0 1-.053.333 1.4 1.4 0 0 1-.106.291c-.044.09-.096.168-.156.236a.765.765 0 0 1-.202.166L15.37 47.39l-.08.044a.265.265 0 0 1-.024.009l-.023.007a.335.335 0 0 1-.024.007l-.024.006-.029.007-.026.004a2.232 2.232 0 0 0-.048.005l-.032.002h-.027l-.026-.001-.023-.002-.017-.002-.015-.002a.226.226 0 0 1-.028-.004l-.025-.005-.024-.005-.022-.006-.015-.005-.013-.004-.01-.002-.023-.01-.016-.006-.012-.005c-.004 0-.007-.003-.01-.004a.144.144 0 0 0-.023-.01.135.135 0 0 0-.016-.008l-.012-.006-.01-.004-.005-.004-.007-.004-.006-.002a.015.015 0 0 0-.006-.004l-.008-.004-.01-.006-.01-.006-.01-.005c-.007-.007-.015-.011-.02-.016l-.018-.01-.01-.009a.04.04 0 0 1-.01-.007l-.023-.015-.015-.013-.012-.01-.01-.008a1.615 1.615 0 0 0-.022-.019l-.017-.014a.072.072 0 0 0-.011-.012l-.01-.009-.024-.023-.019-.02-.015-.016-.014-.015-1.972-2.15-.07-.08a1.94 1.94 0 0 1-.292-.562 2.153 2.153 0 0 1-.107-.669v-3.401a1.82 1.82 0 0 1 .047-.32c.023-.1.055-.195.096-.281.04-.087.087-.165.141-.232a.835.835 0 0 1 .185-.173l1.354-.916v-4.338zm1.11 7.328l-.772.495v1.28l.772.815.783-.481v-1.3l-.783-.809zm11.582-10.559l3.37 2.725 1.883-1.207.099-.05a.27.27 0 0 0 .032-.015l.034-.015.033-.014.033-.013.04-.013.035-.01.034-.01.033-.008.042-.008.038-.006a.557.557 0 0 1 .034-.004c.012 0 .022-.002.034-.003l.045-.002.038-.001h.035l.034.002a.19.19 0 0 0 .03.002l.021.003h.015a.07.07 0 0 0 .014.002h.004l.013.002.009.002.009.001.013.003.011.002.013.002.012.003.009.002.01.003.008.001.005.001.016.005.012.002a.066.066 0 0 0 .012.004l.012.003.005.001.014.004.009.003c.003 0 .005.002.008.003l.013.004.023.008a.062.062 0 0 0 .012.005l.01.003.009.004c.002 0 .005.003.008.003l.009.003.012.005.012.005.012.005.006.004.015.006a.022.022 0 0 0 .009.004c.002.002.005.003.009.004l.008.004.012.006a.048.048 0 0 1 .012.007l.013.006.012.007.032.017.022.014a.142.142 0 0 1 .017.01.474.474 0 0 1 .049.032l.028.018a.176.176 0 0 0 .022.016l.02.015 2.902 2.268.098.087c.097.088.185.19.263.3a2 2 0 0 1 .323.756c.028.138.043.28.043.424v4.128l-.008.145c-.011.14-.035.274-.073.4a1.64 1.64 0 0 1-.15.349 1.352 1.352 0 0 1-.497.501l-2.901 1.568-.1.05a.49.49 0 0 1-.066.023l-.033.011a.625.625 0 0 1-.033.01l-.04.008a.333.333 0 0 1-.037.008l-.034.006-.032.004-.043.005-.038.002-.034.001h-.033l-.023-.001-.042-.003-.019-.002a.334.334 0 0 1-.034-.004.313.313 0 0 1-.032-.004l-.033-.006-.021-.005a.302.302 0 0 1-.028-.005l-.01-.002-.01-.003a.148.148 0 0 0-.01-.002l-.008-.003-.012-.003-.012-.003-.012-.004-.012-.004-.01-.002-.008-.004a.113.113 0 0 0-.01-.003l-.008-.003-.013-.004a.055.055 0 0 1-.01-.004l-.007-.002a.159.159 0 0 1-.018-.007l-.01-.004-.004-.002-.014-.006c-.003 0-.006-.003-.01-.004l-.01-.005-.012-.005-.012-.005-.02-.01-.01-.004a.042.042 0 0 1-.009-.005.042.042 0 0 1-.009-.004l-.012-.006a.16.16 0 0 1-.011-.006l-.012-.006-.012-.007a.08.08 0 0 0-.009-.005l-.004-.003a.078.078 0 0 0-.014-.007c-.002-.002-.005-.004-.008-.004l-.011-.008-.013-.008a.075.075 0 0 1-.01-.007l-.013-.007-.008-.006-.004-.002-.012-.008a.11.11 0 0 1-.034-.023l-.012-.009-.012-.009c-.015-.01-.026-.02-.036-.028a.274.274 0 0 1-.028-.022c-.01-.007-.016-.013-.024-.017-.005-.007-.012-.012-.019-.017l-2.704-2.376-.094-.086a2.01 2.01 0 0 1-.4-.638 2.1 2.1 0 0 1-.145-.77V36.57l-3.287-2.781 1.377-3.004zm5.931 5.483l-1.062.634v1.51l1.062.896 1.081-.626v-1.54l-1.08-.874zM5.86 29.493l.94 2.64-2.175 1.77v2.21a1.83 1.83 0 0 1-.04.299 1.54 1.54 0 0 1-.081.264 1.094 1.094 0 0 1-.12.22.758.758 0 0 1-.151.168l-1.601 1.25-.056.04-.008.005-.01.006c-.006.002-.012.006-.017.009a.168.168 0 0 1-.018.009.085.085 0 0 1-.02.008l-.02.008-.021.007-.018.005-.018.005-.024.004a.412.412 0 0 0-.02.003l-.02.002h-.064l-.02-.002a.71.71 0 0 1-.017-.003l-.018-.003-.007-.002-.01-.002-.011-.003-.005-.001-.006-.001-.005-.002c-.002 0-.004 0-.005-.002-.002 0-.004 0-.007-.002L2.18 38.4l-.007-.002-.012-.005-.005-.001-.005-.001-.005-.003-.007-.003-.007-.002-.003-.002a.298.298 0 0 0-.01-.005l-.005-.002-.005-.003-.006-.002-.004-.003a.027.027 0 0 0-.007-.003l-.007-.004-.006-.004c-.002-.001-.005-.001-.006-.003l-.006-.003-.005-.002-.005-.004-.005-.003-.003-.002-.01-.007a.027.027 0 0 1-.006-.004l-.007-.005-.005-.003-.005-.003-.005-.004-.004-.003L2 38.304l-.006-.005-.004-.003-.007-.005a.058.058 0 0 1-.008-.007l-.005-.003-.004-.003-.004-.004-.007-.007a.045.045 0 0 1-.007-.006l-.014-.013a.362.362 0 0 0-.02-.018l-.009-.01c-.011-.011-.015-.016-.02-.018l-.01-.013L.36 36.492l-.052-.07a1.281 1.281 0 0 1-.13-.213 1.62 1.62 0 0 1-.096-.253 2.072 2.072 0 0 1-.082-.57v-2.891l.004-.103c.005-.098.016-.193.035-.283.018-.091.043-.177.073-.255.03-.08.066-.151.108-.215a.786.786 0 0 1 .14-.164l1.515-1.345.055-.037.018-.014.02-.012.017-.01.02-.01a.121.121 0 0 1 .02-.01.154.154 0 0 1 .02-.008c.008-.003.014-.006.02-.007l.018-.007.013-.004.023-.006.03-.006c.006 0 .011-.002.017-.003l.026-.001.022-.002h.038c.006.002.012.002.017.002h.005a.082.082 0 0 0 .015.002l.004.001a.037.037 0 0 0 .008.001h.005c0 .002.002.002.004.002l.005.002h.007l.007.002.007.002.008.002h.003l.003.002.008.002.004.001.004.002.01.003.006.002.007.002.005.002.005.002.006.002.012.004.002.002.016.007.006.003.002.001a.05.05 0 0 1 .008.003l.01.007.004.002.01.006c.003 0 .004.003.007.003l.005.002.004.003.005.004h.002l.01.007c.001.002.004.002.006.004l.007.005.007.005.017.012.013.01.009.008a.045.045 0 0 1 .007.006l.019.016a.07.07 0 0 1 .014.014l.013.012.01.01 1.102 1.12 2.127-1.812zm-3.608 3.582l-.59.494v1.13l.59.642.6-.494v-1.144l-.6-.628zm14.434-17.074c.124 0 .246.003.368.009l.294.011c.073.005.145.011.217.018.072.007.145.013.216.022l.215.025.212.03.279.049c.398.07.782.164 1.146.281.367.118.714.26 1.036.424.324.167.623.356.891.568.27.214.509.45.711.71.123.155.232.32.327.49.095.173.176.353.241.54a3.64 3.64 0 0 1 .201 1.214l-.005.19v6.207l.005.134c0 .577-.124 1.104-.352 1.578a3.87 3.87 0 0 1-.97 1.243 5.516 5.516 0 0 1-1.448.883 8.14 8.14 0 0 1-1.783.517l-.279.048a18.871 18.871 0 0 1-.427.055 6.906 6.906 0 0 1-.216.02 5.278 5.278 0 0 1-.217.018l-.294.012a12.643 12.643 0 0 1-.814.002 11.293 11.293 0 0 1-.825-.052 13.73 13.73 0 0 1-1.201-.17 11.703 11.703 0 0 1-.379-.081l-.265-.063a8.822 8.822 0 0 1-.197-.053l-.097-.028-.096-.03c-.065-.018-.128-.04-.19-.06a7.127 7.127 0 0 1-.188-.062l-.242-.09a8.228 8.228 0 0 1-.966-.433 6.592 6.592 0 0 1-.83-.525 5.185 5.185 0 0 1-.684-.607 4.26 4.26 0 0 1-.528-.688 3.77 3.77 0 0 1-.409-.927A3.723 3.723 0 0 1 9 26.395v-5.476c0-.478.084-.924.24-1.338.157-.414.386-.798.68-1.147.295-.35.656-.67 1.072-.95a7.32 7.32 0 0 1 1.422-.737l.145-.056.242-.09.187-.062.19-.06c.064-.02.129-.038.194-.057l.197-.053.265-.062a10.358 10.358 0 0 1 .769-.148 11.644 11.644 0 0 1 .81-.1l.148-.014a13.398 13.398 0 0 1 .751-.04c.126-.003.25-.005.373-.003zm-6.054 7.932v2.523l.001.028a.384.384 0 0 0 .029.077l.027.049c.031.05.074.11.129.174.054.066.122.136.202.212.081.075.175.155.281.237.108.08.23.165.364.249.23.14.485.27.76.388.277.117.575.222.89.312.318.091.654.167 1.005.226.352.06.719.102 1.095.125a10.317 10.317 0 0 0 2.212-.1c.353-.055.692-.13 1.013-.222a6.42 6.42 0 0 0 .903-.332c.22-.101.411-.209.574-.312.164-.106.298-.208.405-.303a1.6 1.6 0 0 0 .24-.255c.052-.072.078-.13.078-.169l-.005-2.855a7.591 7.591 0 0 1-1.107.56 8.928 8.928 0 0 1-1.24.404l-.28.069-.212.044-.215.039-.216.035-.217.032-.294.04a10.87 10.87 0 0 1-1.225.073 13.238 13.238 0 0 1-1.615-.083 8.878 8.878 0 0 1-.379-.053l-.265-.05a8.68 8.68 0 0 1-.197-.038l-.097-.019-.096-.02a6.757 6.757 0 0 1-.19-.045c-.064-.014-.126-.03-.188-.047l-.242-.073a6.654 6.654 0 0 1-1.508-.646 5.267 5.267 0 0 1-.42-.274zm4.783-5.168c-.377.022-.743.064-1.096.124-.35.06-.686.136-1.004.226-.315.091-.613.197-.89.315-.275.117-.53.247-.76.387-.18.111-.335.223-.466.33a2.947 2.947 0 0 0-.322.3 1.573 1.573 0 0 0-.188.24.35.35 0 0 0-.06.155c0 .008.002.018.006.029a.394.394 0 0 0 .033.076l.027.046c.031.049.074.104.129.165.055.06.122.126.202.195a3.58 3.58 0 0 0 .639.432c.23.125.485.238.76.335.277.098.575.181.89.249a8.98 8.98 0 0 0 1.005.153 10.548 10.548 0 0 0 3.307-.22 8.665 8.665 0 0 0 1.013-.3c.323-.118.626-.252.903-.401.208-.113.39-.226.547-.335.157-.111.29-.218.396-.316.106-.099.19-.189.247-.266a.543.543 0 0 0 .102-.185.26.26 0 0 0-.018-.096.717.717 0 0 0-.023-.048 1.369 1.369 0 0 0-.197-.237 2.682 2.682 0 0 0-.257-.218 4.163 4.163 0 0 0-.35-.235 5.086 5.086 0 0 0-.447-.234 6.512 6.512 0 0 0-.903-.334 8.39 8.39 0 0 0-1.013-.227 9.884 9.884 0 0 0-2.212-.105zm-13.06-8.461l.021.002.019.002.018.004.024.006c.008.002.016.003.021.006l.02.006.017.007a.293.293 0 0 1 .023.011l.021.01.019.01a.124.124 0 0 1 .018.011l.056.041 1.6 1.273c.057.044.107.1.152.164.046.067.086.142.12.224.034.08.06.17.082.264.02.095.034.194.04.296v2.211l2.174 1.807-.94 2.627-2.127-1.85-1.101 1.106-.011.01-.01.011a.031.031 0 0 1-.01.01l-.012.01a.129.129 0 0 0-.016.014.108.108 0 0 1-.01.01c-.004.001-.007.004-.01.006a.05.05 0 0 1-.008.006l-.016.013-.006.004-.01.007-.009.005-.008.005-.004.003-.01.005-.007.005-.003.002a.045.045 0 0 1-.01.005l-.003.002-.013.007-.005.002c-.002 0-.004 0-.006.002l-.006.003-.007.003-.005.003-.008.003-.005.002-.005.002a.013.013 0 0 1-.005.002l-.005.002-.007.002-.006.003h-.003c-.006.003-.008.003-.01.003l-.006.002-.005.002h-.006c0 .002-.002.002-.004.002l-.013.003-.007.001-.006.001-.006.002h-.004l-.003.001c-.004 0-.006 0-.008.002H2.281l-.004.001-.009.001-.016.001h-.047c-.016 0-.022-.002-.028-.002l-.024-.004c-.008 0-.015-.003-.023-.004l-.01-.002-.027-.007c-.009-.002-.017-.006-.024-.009a.625.625 0 0 1-.022-.008l-.018-.008-.02-.008-.01-.006-.012-.006-.02-.013-.02-.01-.017-.014-.055-.046-1.515-1.36a.78.78 0 0 1-.14-.166 1.237 1.237 0 0 1-.108-.218 1.931 1.931 0 0 1-.108-.544L0 16.201V13.31a2.091 2.091 0 0 1 .082-.57c.026-.089.058-.173.096-.25.038-.077.081-.149.13-.213l.052-.068 1.515-1.676.01-.012.01-.011.011-.01.012-.012.014-.015.012-.01.01-.008.008-.007.015-.014c.005-.002.01-.006.013-.009l.004-.003.012-.01.005-.003.004-.004.005-.002.002-.002a.048.048 0 0 0 .01-.006.027.027 0 0 0 .006-.004l.006-.004.007-.005.003-.001.012-.008.003-.001.01-.005.004-.004c.003 0 .005-.003.008-.003.002-.001.004-.003.007-.003l.002-.001.005-.003.007-.003.006-.002a.015.015 0 0 1 .006-.004l.006-.002.008-.004.003-.001.01-.003.008-.004.005-.002a.062.062 0 0 0 .007-.003l.007-.001.007-.003.007-.002h.004a.013.013 0 0 1 .005-.002l.005-.002h.003l.01-.002h.003l.01-.003h.007c.01-.003.02-.004.028-.005a.222.222 0 0 1 .024-.002l.01-.001h.053zM32.603 5.7l.019.001.017.001.032.003.044.007.04.007.034.007.033.008.041.012.02.006.018.006.035.014c.01.002.022.008.033.012l.101.052 2.902 1.609c.1.056.194.128.278.213.083.086.156.182.218.29.062.108.113.225.15.35.038.127.062.26.073.398l.008.154v4.127a2.099 2.099 0 0 1-.168.818c-.054.126-.121.247-.198.357-.078.11-.166.21-.263.297l-.098.086-2.902 2.217-.01.007-.01.007-.019.015a.287.287 0 0 0-.02.015.138.138 0 0 0-.02.012l-.029.02-.02.012-.017.01a.117.117 0 0 1-.013.009l-.017.009-.014.007-.022.012-.016.009-.013.006-.01.004-.007.004-.008.003-.01.004-.012.006-.012.005-.011.005-.013.006a.044.044 0 0 0-.01.003.042.042 0 0 1-.008.003.015.015 0 0 1-.01.003c-.002 0-.004.003-.008.003l-.013.005a.094.094 0 0 0-.01.004l-.013.004-.013.005-.008.002-.01.003-.009.003-.01.002-.01.004c-.005 0-.008.002-.013.003l-.006.001-.017.004-.005.001-.024.005-.01.003-.01.002c-.005 0-.009.002-.013.003h-.006l-.017.003-.01.002h-.01l-.004.002c-.008 0-.011.002-.015.002l-.011.001-.012.001-.006.001-.017.001a.561.561 0 0 1-.052.003h-.078l-.033-.002a.518.518 0 0 1-.044-.005.419.419 0 0 1-.04-.004l-.033-.005-.032-.007-.044-.011-.038-.01a.526.526 0 0 1-.034-.01c-.01-.004-.022-.007-.032-.012l-.04-.015a.498.498 0 0 1-.037-.016l-.034-.016-.032-.016-.099-.06-1.882-1.234-3.37 2.687-1.378-3.025 3.287-2.741V9.863a2.145 2.145 0 0 1 .146-.77 1.936 1.936 0 0 1 .4-.63l.093-.085 2.704-2.337a.156.156 0 0 0 .02-.015l.018-.017.02-.015.019-.015c.01-.008.02-.016.028-.02l.021-.016.016-.012.014-.009.029-.02.02-.013.017-.01a.089.089 0 0 0 .013-.007l.005-.003a.153.153 0 0 0 .012-.007l.009-.005.008-.004c.004-.003.009-.004.011-.007l.013-.006.006-.003.017-.01a.042.042 0 0 1 .01-.004l.008-.004a.042.042 0 0 0 .01-.005l.008-.003.011-.005.006-.003.018-.008.012-.005.01-.004c.002 0 .005-.003.008-.003l.01-.004.007-.004.013-.003.012-.005.012-.004.013-.005a.113.113 0 0 1 .009-.002l.009-.003.007-.003c.004 0 .006-.002.009-.003l.013-.003.011-.004.013-.003c.004 0 .009-.001.013-.003.003 0 .006 0 .01-.002a.042.042 0 0 1 .007-.003l.01-.001.008-.002.012-.003c.005 0 .008-.002.013-.003l.012-.002.013-.002.05-.007.042-.006.036-.002.016-.001h.1zM2.252 13.388l-.59.634v1.121l.59.51.6-.627V13.89l-.6-.502zM15.075 0c.013 0 .023.002.032.003l.028.002.013.003.013.002c.008 0 .015.003.023.004.01.003.02.006.03.007l.027.008.026.008a.25.25 0 0 0 .023.009l.08.037 2.094 1.212a.783.783 0 0 1 .202.165c.06.067.113.146.157.235.045.087.08.185.106.29.026.106.044.218.052.337l.005.122v3.498a2.093 2.093 0 0 1-.263 1.018 1.499 1.499 0 0 1-.19.269l-.07.079-1.457 1.444v4.435l-2.242.277V9.126l-1.356-.916a.874.874 0 0 1-.183-.173 1.109 1.109 0 0 1-.142-.233 1.46 1.46 0 0 1-.097-.282c-.024-.1-.04-.207-.046-.318V3.802c0-.116.01-.23.028-.341a2.01 2.01 0 0 1 .372-.89l.068-.079L14.381.333l.006-.007.021-.022.013-.013.014-.014.011-.01.01-.009.014-.013.012-.011a.099.099 0 0 0 .01-.009l.021-.017.016-.013.005-.004.015-.012.006-.004.003-.003.01-.005.005-.005.009-.006.008-.006a.18.18 0 0 1 .009-.006l.008-.005c.009-.007.01-.007.014-.009l.012-.008a.08.08 0 0 0 .01-.005l.006-.005a.08.08 0 0 1 .01-.005.036.036 0 0 0 .007-.004l.008-.004c.001-.002.004-.003.007-.004l.005-.003a.018.018 0 0 0 .007-.004l.01-.003.008-.005.004-.002a.088.088 0 0 1 .012-.006c.002 0 .004-.002.006-.004l.007-.002.004-.002.01-.005.008-.002.005-.002A.072.072 0 0 1 14.78.05l.008-.003.007-.003.006-.003.007-.001.007-.003.009-.003c.003 0 .005-.002.008-.003L14.84.03l.01-.003a.48.48 0 0 1 .036-.008l.03-.006.027-.005.023-.003L15 0 15.075 0zm17.311 9.846l-1.062.88v1.502l1.062.66 1.081-.87v-1.53l-1.08-.642zM14.872 3.544l-.77.807v1.29l.77.492.784-.806V4.02l-.784-.475z" fill="url(#c)" transform="translate(64 25)"/><path d="M68.714 25.335c.013.045.023.09.035.136l.033.137.03.14a7.812 7.812 0 0 1 .147.968 8.792 8.792 0 0 1 .041.872v44.823a8.611 8.611 0 0 1-.02.623l-.016.204-.01.1-.01.1c-.004.033-.007.067-.012.1l-.013.099a8.156 8.156 0 0 1-.311 1.398c-.14.437-.317.846-.523 1.223a5.996 5.996 0 0 1-.706 1.025 5.195 5.195 0 0 1-1.239 1.056 5.642 5.642 0 0 1-.4.214 4.702 4.702 0 0 1-1.138.37 3.955 3.955 0 0 1-.297.045l-.152.015-.152.01a4.704 4.704 0 0 1-.154.006l-.154.001-.156-.005a5.106 5.106 0 0 1-.869-.115 5.26 5.26 0 0 1-.24-.058l-25.98-6.877a2.758 2.758 0 0 1-.72-.309 3.715 3.715 0 0 1-.657-.507 5.123 5.123 0 0 1-.587-.68 6.489 6.489 0 0 1-.616-1.044 9.56 9.56 0 0 1-.3-.713l-.044-.123-.042-.126-.042-.127a9.416 9.416 0 0 1-.408-2.102l-.005-.07-.005-.072-.005-.072a7.599 7.599 0 0 1-.007-.143l-.006-.143-.002-.146-.002-.144V34.576c0-.774.093-1.532.261-2.241a8.464 8.464 0 0 1 .72-1.965c.307-.59.675-1.102 1.09-1.499.418-.401.883-.686 1.377-.817l25.98-6.876A5.276 5.276 0 0 1 63.693 21h.154l.154.005a8.721 8.721 0 0 1 .304.026c.05.006.1.012.149.02a4.628 4.628 0 0 1 1.113.317l.112.05a6.642 6.642 0 0 1 .221.108 6.643 6.643 0 0 1 .368.215 4.173 4.173 0 0 1 .252.173 5.345 5.345 0 0 1 .59.514l.075.076.074.078.073.08.07.082c.045.054.082.102.117.146.036.045.068.086.096.124.03.038.055.074.081.11l.072.102.06.09c.02.029.04.059.058.09.02.03.04.06.058.091.02.031.038.063.057.094a6.412 6.412 0 0 1 .406.825 7.522 7.522 0 0 1 .307.918" stroke-opacity=".2" stroke="#A8A0FB" stroke-width=".2" fill-opacity=".2" fill="#CACAF1" stroke-linecap="square"/><g transform="translate(41 23)"><use fill="#000" filter="url(#d)" xlink:href="#e"/><use fill="#D8D5F6" xlink:href="#e"/></g><path d="M.064 4.86c0-1.256.319-2.4.842-3.263.07-.115.143-.226.22-.33C1.7.481 2.465.002 3.3.002c.687 0 1.324.322 1.85.87.063.067.126.137.186.21l.043.052c.71.89 1.164 2.23 1.164 3.725 0 2.684-1.453 4.863-3.243 4.863-.996 0-1.89-.679-2.484-1.746l-.034-.064a5.323 5.323 0 0 1-.14-.28C.278 6.847.063 5.892.063 4.86z" fill="url(#f)" transform="translate(41 23)"/><path d="M1.874 4.055a.34.34 0 0 0-.056.159l-.002.044.002.042v.252l.19-.003.033.001.03-.002 1.907-.031a.059.059 0 0 1 .047.023.098.098 0 0 1 .02.058v.41a.59.59 0 0 1-.032.192.512.512 0 0 1-.086.156.398.398 0 0 1-.126.104.32.32 0 0 1-.152.036l-1.831-.03v.254l-.002.044v.02l.002.022a.421.421 0 0 0 .051.152.242.242 0 0 0 .011.016l.012.015.013.015a.5.5 0 0 0 .02.019l.021.015a.244.244 0 0 0 .047.023.17.17 0 0 0 .012.003c.004 0 .008.002.011.003l.012.001h.013l.012.001h.012a.258.258 0 0 0 .025-.005l2.243.085c.056.002.11.017.16.045.05.027.094.065.132.112a.552.552 0 0 1 .09.164.609.609 0 0 1 .032.198v.422a.085.085 0 0 1-.021.058.069.069 0 0 1-.022.016.053.053 0 0 1-.026.005L2.04 6.985a.778.778 0 0 1-.45-.19 1.075 1.075 0 0 1-.188-.204 1.317 1.317 0 0 1-.142-.26 1.518 1.518 0 0 1-.114-.589V4.276a1.792 1.792 0 0 1 .026-.288c.02-.106.05-.208.088-.302.039-.094.087-.182.142-.26.056-.078.12-.147.189-.204a.84.84 0 0 1 .335-.171.658.658 0 0 1 .114-.017l2.637-.185a.062.062 0 0 1 .048.021.087.087 0 0 1 .021.058v.42c0 .07-.012.137-.033.198a.56.56 0 0 1-.09.165.446.446 0 0 1-.131.114.357.357 0 0 1-.16.045l-2.326.087a.175.175 0 0 0-.078.038.285.285 0 0 0-.055.06z" fill="url(#g)" transform="translate(41 23)"/><path d="M50.793 32.99c.01.03.017.062.026.093l.023.095c.008.032.016.064.022.096.007.032.015.064.02.097a5.166 5.166 0 0 1 .086.57 5.794 5.794 0 0 1 .03.602v30.913a5.671 5.671 0 0 1-.015.43 5.175 5.175 0 0 1-.011.14l-.007.069-.007.07-.009.068-.01.068a5.41 5.41 0 0 1-.224.964 4.702 4.702 0 0 1-.378.844c-.149.26-.32.496-.51.707a3.69 3.69 0 0 1-1.037.805 3.362 3.362 0 0 1-1.075.342l-.108.015-.11.01a6.592 6.592 0 0 1-.22.011l-.112.001-.112-.003a3.86 3.86 0 0 1-.628-.08 3.949 3.949 0 0 1-.173-.04L27.49 65.135a2.043 2.043 0 0 1-.52-.212 2.672 2.672 0 0 1-.474-.35 3.586 3.586 0 0 1-.424-.469 4.444 4.444 0 0 1-.364-.566 6.454 6.454 0 0 1-.298-.646l-.031-.085-.031-.086-.03-.088c-.01-.03-.02-.059-.028-.089a6.263 6.263 0 0 1-.266-1.36l-.005-.05-.003-.05a9.54 9.54 0 0 1-.009-.147l-.004-.1-.002-.1-.001-.099V39.363c0-.534.067-1.057.189-1.546.121-.491.298-.95.519-1.355.222-.407.488-.76.788-1.034.302-.277.638-.473.994-.563l18.764-4.743A3.96 3.96 0 0 1 47.279 30l.11.004a6.592 6.592 0 0 1 .22.018c.036.004.072.008.108.014l.107.017a3.48 3.48 0 0 1 .696.202l.082.034.08.036.08.038.078.04a4.858 4.858 0 0 1 .187.108l.092.059.09.06a2.535 2.535 0 0 1 .219.169l.105.09.102.097.054.052.054.054.052.055.052.057.084.1.069.086c.021.026.04.05.058.075l.052.07.043.062c.015.02.029.041.043.063l.042.063.04.064a4.36 4.36 0 0 1 .294.57 5.04 5.04 0 0 1 .221.633" stroke-opacity=".2" stroke="#A8A0FB" stroke-width=".2" fill-opacity=".15" fill="#CACAF1" stroke-linecap="square"/><g><g transform="translate(26 57)"><use fill="#000" filter="url(#h)" xlink:href="#i"/><use fill="#D8D5F6" xlink:href="#i"/></g><path d="M1.21 12.126C.594 10.874.233 9.356.233 7.718c0-1.996.538-3.816 1.42-5.187a7.14 7.14 0 0 1 .37-.525C2.994.76 4.282-.002 5.692-.002c1.158 0 2.232.512 3.117 1.383.107.106.213.217.315.333.024.028.048.054.071.083 1.2 1.416 1.963 3.545 1.963 5.92 0 4.267-2.448 7.731-5.466 7.731-1.68 0-3.185-1.08-4.188-2.776l-.057-.101a8.28 8.28 0 0 1-.236-.445" fill="url(#j)" transform="translate(26 57)"/><path d="M3.84 6.068a.427.427 0 0 0-.089.132.578.578 0 0 0-.045.167l-.002.066.002.063v.378l.284-.005.05.003.045-.004 2.861-.047a.088.088 0 0 1 .07.035.146.146 0 0 1 .03.086v.616c0 .102-.017.2-.047.288a.768.768 0 0 1-.13.234.598.598 0 0 1-.188.156.48.48 0 0 1-.229.055l-2.746-.045v.38l-.002.067v.03l.002.033a.632.632 0 0 0 .076.226.363.363 0 0 0 .018.025l.017.023.02.022.03.028c.01.008.02.017.032.023a.365.365 0 0 0 .07.035.254.254 0 0 0 .017.004l.018.004.017.002.019.001a.35.35 0 0 0 .055-.003.222.222 0 0 0 .019-.003l3.364.126a.534.534 0 0 1 .24.068c.074.04.141.098.198.169.056.07.103.154.135.245.031.092.049.192.049.297v.633a.127.127 0 0 1-.032.087.103.103 0 0 1-.033.025.08.08 0 0 1-.04.007l-3.955-.277a1.167 1.167 0 0 1-.334-.078 1.291 1.291 0 0 1-.34-.205c-.104-.087-.199-.19-.282-.308a1.976 1.976 0 0 1-.213-.389A2.277 2.277 0 0 1 2.7 8.66v-2.2c0-.037 0-.074.002-.111.002-.036.004-.073.008-.109a2.562 2.562 0 0 1 .028-.212c.03-.16.075-.311.133-.453.058-.141.13-.272.213-.39.083-.117.178-.22.282-.306a1.26 1.26 0 0 1 .504-.256.987.987 0 0 1 .17-.026l3.956-.277a.094.094 0 0 1 .073.032.131.131 0 0 1 .032.087l-.001.63a.919.919 0 0 1-.05.297.84.84 0 0 1-.134.247.67.67 0 0 1-.198.17.535.535 0 0 1-.24.068l-3.488.13a.263.263 0 0 0-.117.057.338.338 0 0 0-.034.03" fill="url(#k)" transform="translate(26 57)"/></g><path d="M32.857 38.167l.017.069.017.068.015.07.014.07a3.906 3.906 0 0 1 .06.414 4.396 4.396 0 0 1 .02.436v22.412a4.305 4.305 0 0 1-.018.413l-.005.05-.005.05-.006.05-.006.05c-.033.245-.086.479-.156.698-.07.22-.158.424-.262.612-.103.188-.221.36-.353.513a2.598 2.598 0 0 1-.718.583 2.284 2.284 0 0 1-.819.259l-.075.007a4.36 4.36 0 0 1-.153.008l-.077.001-.078-.002a2.553 2.553 0 0 1-.555-.087l-12.99-3.439a1.38 1.38 0 0 1-.36-.154 1.858 1.858 0 0 1-.329-.254 2.562 2.562 0 0 1-.293-.34 3.244 3.244 0 0 1-.252-.41c-.02-.036-.038-.074-.056-.111a4.78 4.78 0 0 1-.15-.357l-.022-.062-.021-.062-.02-.064a4.708 4.708 0 0 1-.207-1.086l-.003-.036a7.239 7.239 0 0 1-.006-.107l-.003-.072-.001-.073-.001-.072V42.788c0-.387.046-.766.13-1.12.085-.357.207-.69.36-.983.154-.295.338-.551.545-.75a1.6 1.6 0 0 1 .689-.408l12.99-3.438a2.638 2.638 0 0 1 .71-.089l.076.003a4.36 4.36 0 0 1 .152.013l.075.01.074.012a2.314 2.314 0 0 1 .482.147l.057.025.055.026.055.027a1.355 1.355 0 0 1 .12.067 2.045 2.045 0 0 1 .128.083l.062.044a1.763 1.763 0 0 1 .151.122 5.2 5.2 0 0 1 .144.135l.038.038.036.04.037.04.035.04.059.074c.017.022.034.042.048.062l.04.054.036.052.03.044a1.181 1.181 0 0 1 .058.091c.01.016.02.031.028.047a3.206 3.206 0 0 1 .204.413 3.76 3.76 0 0 1 .153.458" stroke-opacity=".2" stroke="#A8A0FB" stroke-width=".2" fill-opacity=".1" fill="#CACAF1" stroke-linecap="square"/><path d="M16.913 42.345l.01.043.01.042.01.043.008.044a2.46 2.46 0 0 1 .046.39c.002.046.003.091.003.138v13.91a2.714 2.714 0 0 1-.011.257l-.003.03-.003.032-.004.03-.004.032c-.02.152-.052.297-.095.433a2.185 2.185 0 0 1-.16.38 1.862 1.862 0 0 1-.215.318 1.598 1.598 0 0 1-.44.362 1.388 1.388 0 0 1-.5.161l-.046.005a2.624 2.624 0 0 1-.093.005h-.048l-.047-.001a1.536 1.536 0 0 1-.339-.054L7.053 56.81a.836.836 0 0 1-.22-.095 1.137 1.137 0 0 1-.2-.158 1.583 1.583 0 0 1-.18-.21 2.02 2.02 0 0 1-.22-.397 2.082 2.082 0 0 1-.06-.149l-.013-.038-.013-.04-.012-.039a2.959 2.959 0 0 1-.126-.674l-.002-.022-.002-.023-.002-.044-.002-.044v-.045L6 54.787v-9.574c0-.24.028-.475.08-.695.051-.221.126-.428.22-.61.093-.183.206-.342.333-.465a.975.975 0 0 1 .42-.254l7.939-2.134a1.591 1.591 0 0 1 .434-.055l.046.002a2.624 2.624 0 0 1 .093.008l.046.006.045.008a1.395 1.395 0 0 1 .295.09l.034.016a2.014 2.014 0 0 1 .068.033l.033.019a2.022 2.022 0 0 1 .118.074 1.416 1.416 0 0 1 .218.187l.024.024.022.024.022.025.022.026.036.045.029.038.025.034.022.032.018.028a.735.735 0 0 1 .035.056l.018.03a2 2 0 0 1 .175.395c.015.047.03.096.043.145" stroke-opacity=".2" stroke="#A8A0FB" stroke-width=".2" fill-opacity=".1" fill="#CACAF1" stroke-linecap="square"/></g></svg>
