<?xml version="1.0" encoding="utf-8"?>
<!-- Generator: Adobe Illustrator 21.1.0, SVG Export Plug-In . SVG Version: 6.00 Build 0)  -->
<svg version="1.1" id="图层_1" xmlns="http://www.w3.org/2000/svg" xmlns:xlink="http://www.w3.org/1999/xlink" x="0px" y="0px"
	 viewBox="0 0 100 80" style="enable-background:new 0 0 100 80;" xml:space="preserve">
<style type="text/css">
	.st0{fill:#E2FEFF;}
	.st1{fill:url(#Path_38_);}
	.st2{fill:url(#Path_39_);}
	.st3{fill:url(#Path_40_);}
	.st4{fill:url(#Path_41_);}
	.st5{fill:url(#Path_42_);}
	.st6{fill:url(#Path_43_);}
	.st7{opacity:0.4;fill:none;stroke:#FBF8FF;stroke-width:0.5;enable-background:new    ;}
	.st8{opacity:0.6;fill:none;stroke:#FBF8FF;stroke-width:0.5;enable-background:new    ;}
	.st9{fill:url(#Path_44_);}
	.st10{fill:url(#Path_45_);}
	.st11{fill:url(#XMLID_2_);}
	.st12{fill:url(#XMLID_3_);}
	.st13{fill:url(#SVGID_1_);}
	.st14{fill:url(#SVGID_2_);}
	.st15{fill:url(#SVGID_3_);}
	.st16{fill:url(#Shape_4_);}
	.st17{fill:url(#Shape_5_);}
	.st18{opacity:0.6;fill:url(#Oval_20_);enable-background:new    ;}
	.st19{opacity:0.4;fill:url(#Oval_21_);enable-background:new    ;}
	.st20{opacity:0.2;fill:url(#Oval_22_);enable-background:new    ;}
	.st21{opacity:0.8;fill:url(#Oval_23_);enable-background:new    ;}
	.st22{fill:url(#Path_46_);}
	.st23{fill:url(#Path_47_);}
	.st24{fill:url(#Path_48_);}
	.st25{fill:url(#Path_49_);}
	.st26{fill:url(#Path_50_);}
	.st27{fill:url(#Path_51_);}
	.st28{fill:url(#Path_52_);}
	.st29{opacity:0.5;fill:url(#Shape_6_);enable-background:new    ;}
	.st30{fill:url(#Path_53_);}
	.st31{opacity:0.4;fill:url(#Oval_24_);enable-background:new    ;}
	.st32{opacity:0.4;fill:url(#Oval_25_);enable-background:new    ;}
	.st33{opacity:0.2;fill:url(#Oval_26_);enable-background:new    ;}
	.st34{opacity:0.2;fill:url(#Oval_27_);enable-background:new    ;}
	.st35{opacity:0.3;fill:url(#Oval_28_);enable-background:new    ;}
	.st36{opacity:0.3;fill:url(#Oval_29_);enable-background:new    ;}
	.st37{opacity:0.8;fill:url(#Oval_30_);enable-background:new    ;}
	.st38{opacity:0.3;fill:url(#Oval_31_);enable-background:new    ;}
	.st39{opacity:0.8;fill:url(#Oval_32_);enable-background:new    ;}
	.st40{opacity:0.8;fill:url(#Oval_33_);enable-background:new    ;}
	.st41{opacity:0.8;fill:url(#Oval_34_);enable-background:new    ;}
	.st42{opacity:0.3;fill:url(#Oval_35_);enable-background:new    ;}
	.st43{opacity:0.8;fill:url(#Oval_36_);enable-background:new    ;}
	.st44{opacity:0.9;fill:url(#Oval_37_);enable-background:new    ;}
	.st45{opacity:0.8;fill:url(#Oval_38_);enable-background:new    ;}
	.st46{opacity:0.9;fill:url(#Oval_39_);enable-background:new    ;}
	.st47{opacity:0.4;fill:url(#Path_54_);enable-background:new    ;}
	.st48{opacity:0.3;fill:url(#Path_55_);enable-background:new    ;}
	.st49{opacity:0.4;fill:url(#Path_56_);enable-background:new    ;}
	.st50{opacity:0.1;fill:url(#Path_57_);enable-background:new    ;}
	.st51{opacity:0.4;fill:url(#Path_58_);enable-background:new    ;}
	.st52{fill:url(#Path_59_);}
	.st53{fill:url(#Path_60_);}
	.st54{fill:url(#Path_61_);}
	.st55{fill:url(#Path_62_);}
	.st56{opacity:0.8;fill:url(#Path_63_);enable-background:new    ;}
	.st57{opacity:0.4;fill:url(#Path_64_);enable-background:new    ;}
	.st58{opacity:0.3;fill:url(#Path_65_);enable-background:new    ;}
	.st59{opacity:0.2;fill:url(#Path_66_);enable-background:new    ;}
	.st60{fill:url(#Path_67_);}
	.st61{fill:url(#Path_68_);}
	.st62{fill:url(#Path_69_);}
	.st63{fill:url(#Path_70_);}
	.st64{opacity:0.3058;fill:url(#Path_71_);enable-background:new    ;}
</style>
<title>Icon/实物类/ksj@2x</title>
<desc>Created with Sketch.</desc>
<path id="Path" class="st0" d="M12.9,48.1c-0.2,0-0.4-0.1-0.5-0.3c-0.2-0.3-0.1-0.6,0.2-0.8L33.3,35c0.3-0.2,0.6-0.1,0.8,0.2
	s0.1,0.6-0.2,0.8L13.2,48C13.1,48.1,13,48.1,12.9,48.1z"/>
<linearGradient id="Path_38_" gradientUnits="userSpaceOnUse" x1="-327.31" y1="419.8212" x2="-328.8531" y2="420.9361" gradientTransform="matrix(17.314 0 0 -18.0108 5697.7017 7621.6797)">
	<stop  offset="0" style="stop-color:#FFFFFF"/>
	<stop  offset="1" style="stop-color:#AB9BE6"/>
</linearGradient>
<polygon id="Path_1_" class="st1" points="21.4,55.9 4.1,45.9 4.1,37.9 21.4,47.9 "/>
<linearGradient id="Path_39_" gradientUnits="userSpaceOnUse" x1="-324.7189" y1="422.7979" x2="-328.9224" y2="420.2109" gradientTransform="matrix(17.314 0 0 -18.0108 5715.0103 7621.6797)">
	<stop  offset="0" style="stop-color:#FFFFFF"/>
	<stop  offset="1" style="stop-color:#AB9BE6"/>
</linearGradient>
<polygon id="Path_2_" class="st2" points="21.4,55.9 38.7,45.9 38.7,37.9 21.4,47.9 "/>
<linearGradient id="Path_40_" gradientUnits="userSpaceOnUse" x1="-338.9183" y1="422.537" x2="-337.9183" y2="422.537" gradientTransform="matrix(34.617 0 0 -19.9856 11736.4561 8482.5664)">
	<stop  offset="0" style="stop-color:#573E94"/>
	<stop  offset="1" style="stop-color:#896CBF"/>
</linearGradient>
<polygon id="Path_3_" class="st3" points="21.4,47.9 4.1,37.9 21.4,27.9 38.7,37.9 "/>
<linearGradient id="Path_41_" gradientUnits="userSpaceOnUse" x1="-327.31" y1="419.8212" x2="-328.8531" y2="420.9361" gradientTransform="matrix(17.314 0 0 -18.0108 5697.7036 7611.6519)">
	<stop  offset="0" style="stop-color:#FFFFFF"/>
	<stop  offset="1" style="stop-color:#AB9BE6"/>
</linearGradient>
<polygon id="Path_4_" class="st4" points="21.4,45.9 4.1,35.9 4.1,27.9 21.4,37.9 "/>
<linearGradient id="Path_42_" gradientUnits="userSpaceOnUse" x1="-324.7189" y1="422.7979" x2="-328.9224" y2="420.2109" gradientTransform="matrix(17.314 0 0 -18.0108 5715.0122 7611.6519)">
	<stop  offset="0" style="stop-color:#FFFFFF"/>
	<stop  offset="1" style="stop-color:#AB9BE6"/>
</linearGradient>
<polygon id="Path_5_" class="st5" points="21.4,45.9 38.7,35.9 38.7,27.9 21.4,37.9 "/>
<linearGradient id="Path_43_" gradientUnits="userSpaceOnUse" x1="-338.9183" y1="422.537" x2="-337.9183" y2="422.537" gradientTransform="matrix(34.6173 0 0 -19.9856 11736.5332 8472.5391)">
	<stop  offset="0" style="stop-color:#573E94"/>
	<stop  offset="1" style="stop-color:#896CBF"/>
</linearGradient>
<polygon id="Path_6_" class="st6" points="21.4,37.9 4.1,27.9 21.4,17.9 38.7,27.9 "/>
<path id="Path_7_" class="st7" d="M24.7,44v-2c0-0.6,0.3-1.1,0.8-1.4l5.1-3c0.6-0.4,1-1,1-1.7V32"/>
<path id="Path_8_" class="st8" d="M6.9,43.4V40c0-0.4,0.2-0.7,0.5-0.8l1.3-0.7"/>
<linearGradient id="Path_44_" gradientUnits="userSpaceOnUse" x1="-205.4949" y1="310.4622" x2="-206.8443" y2="308.29" gradientTransform="matrix(2.4518 0 0 -2.7384 512.3203 891.1212)">
	<stop  offset="0" style="stop-color:#8AD5DE"/>
	<stop  offset="1" style="stop-color:#40E5C0"/>
</linearGradient>
<polygon id="Path_9_" class="st9" points="8.1,45.2 5.7,43.8 5.7,42.5 8.1,43.9 "/>
<line id="Path_10_" class="st8" x1="17" y1="50.2" x2="17" y2="53.5"/>
<linearGradient id="Path_45_" gradientUnits="userSpaceOnUse" x1="-205.5074" y1="310.4621" x2="-206.857" y2="308.2899" gradientTransform="matrix(2.452 0 0 -2.7384 522.5427 896.9529)">
	<stop  offset="0" style="stop-color:#8AD5DE"/>
	<stop  offset="1" style="stop-color:#40E5C0"/>
</linearGradient>
<polygon id="Path_11_" class="st10" points="18.3,51.1 15.8,49.6 15.8,48.3 18.3,49.7 "/>
<linearGradient id="XMLID_2_" gradientUnits="userSpaceOnUse" x1="-330.1009" y1="413.5337" x2="-332.0764" y2="412.8209" gradientTransform="matrix(21.1733 0 0 -12.9809 7050.7544 5386.7627)">
	<stop  offset="0" style="stop-color:#FFFFFF"/>
	<stop  offset="0.137" style="stop-color:#FBFBFF;stop-opacity:0.3016"/>
	<stop  offset="1" style="stop-color:#432C78"/>
</linearGradient>
<path id="XMLID_1387_" class="st11" d="M21.7,33.9l9.5-5.5c0.4-0.2,0.2-1.6,0.2-1.6l-10.5-5.7L10.3,27c0,0,0,1.3,0.4,1.5l9.4,5.4
	C20.6,34.2,21.2,34.2,21.7,33.9z"/>
<linearGradient id="XMLID_3_" gradientUnits="userSpaceOnUse" x1="-331.2493" y1="411.5509" x2="-332.603" y2="411.5509" gradientTransform="matrix(21.1276 0 0 -12.4011 7034.8032 5130.6753)">
	<stop  offset="0" style="stop-color:#FFFFFF"/>
	<stop  offset="1" style="stop-color:#E4E2FF"/>
</linearGradient>
<path id="XMLID_1386_" class="st12" d="M21.6,33l9.5-5.5c0.4-0.2,0.4-0.8,0-1L21.5,21c-0.4-0.2-0.9-0.2-1.3,0l-9.6,5.6
	c-0.4,0.2-0.4,0.8,0,1L20,33C20.5,33.3,21.1,33.3,21.6,33z"/>
<linearGradient id="SVGID_1_" gradientUnits="userSpaceOnUse" x1="-300.0663" y1="355.4663" x2="-301.7496" y2="354.7422" gradientTransform="matrix(7.2914 0 0 -4.2097 2211.0559 1520.8588)">
	<stop  offset="0" style="stop-color:#94FFF6"/>
	<stop  offset="1" style="stop-color:#40E5C0"/>
</linearGradient>
<polygon class="st13" points="22.7,23.8 16.1,27.6 15.4,27.2 22,23.4 "/>
<linearGradient id="SVGID_2_" gradientUnits="userSpaceOnUse" x1="-300.0673" y1="355.4663" x2="-301.7506" y2="354.7422" gradientTransform="matrix(7.2915 0 0 -4.2097 2212.9663 1521.9711)">
	<stop  offset="0" style="stop-color:#94FFF6"/>
	<stop  offset="1" style="stop-color:#40E5C0"/>
</linearGradient>
<polygon class="st14" points="24.5,24.9 17.9,28.7 17.2,28.3 23.8,24.5 "/>
<linearGradient id="SVGID_3_" gradientUnits="userSpaceOnUse" x1="-300.0673" y1="355.4663" x2="-301.7506" y2="354.7422" gradientTransform="matrix(7.2915 0 0 -4.2097 2214.8076 1523.0165)">
	<stop  offset="0" style="stop-color:#94FFF6"/>
	<stop  offset="1" style="stop-color:#40E5C0"/>
</linearGradient>
<polygon class="st15" points="26.4,25.9 19.8,29.7 19.1,29.3 25.7,25.5 "/>
<linearGradient id="Shape_4_" gradientUnits="userSpaceOnUse" x1="-371.7162" y1="403.1273" x2="-370.0639" y2="403.7097" gradientTransform="matrix(-15.5416 0 0 -9.6755 -5728.4956 3954.8936)">
	<stop  offset="0" style="stop-color:#F1F1FF;stop-opacity:0.3765"/>
	<stop  offset="1" style="stop-color:#7B5FB3"/>
</linearGradient>
<path id="Shape_1_" class="st16" d="M29.1,48.7c0,0,13.3,7.5,13.9,7.8c0,0,0,0,0.1,0c0.5,0.3,1,0.1,1.3-0.3c0-0.1,0.4-0.8-0.4-1.3
	c0,0,0,0,0,0c0,0-0.1,0-0.1-0.1c-0.1-0.1-0.2-0.1-0.4-0.2C43.3,54.4,30.1,47,30.1,47c-0.1,0-0.4-0.2-0.9,0.5
	C28.9,48,28.9,48.6,29.1,48.7z"/>
<linearGradient id="Shape_5_" gradientUnits="userSpaceOnUse" x1="-605.1826" y1="232.9972" x2="-605.0376" y2="235.7533" gradientTransform="matrix(-1.3602 0 0 -1.7475 -793.401 458.6572)">
	<stop  offset="0" style="stop-color:#FFFFFF"/>
	<stop  offset="1" style="stop-color:#B899FF"/>
</linearGradient>
<path id="Shape_2_" class="st17" d="M29,48.3c0,0.4,0.3,0.6,0.7,0.4c0.4-0.2,0.7-0.7,0.7-1.2c0-0.4-0.3-0.6-0.7-0.4S29,47.8,29,48.3
	z"/>
<linearGradient id="Oval_20_" gradientUnits="userSpaceOnUse" x1="-843.5843" y1="-68.5928" x2="-846.7623" y2="-72.3702" gradientTransform="matrix(-0.7034 0 0 -0.7034 -560.5695 0.87)">
	<stop  offset="0" style="stop-color:#FFFFFF"/>
	<stop  offset="0.1458" style="stop-color:#FFFFFF"/>
	<stop  offset="0.6612" style="stop-color:#DBFBFF"/>
	<stop  offset="1" style="stop-color:#FFFFFF"/>
</linearGradient>
<path id="Oval" class="st18" d="M33.6,50.4c-0.2,0-0.4-0.2-0.4-0.4c0-0.2,0.2-0.4,0.4-0.4s0.4,0.2,0.4,0.4
	C33.9,50.2,33.7,50.4,33.6,50.4z"/>
<linearGradient id="Oval_21_" gradientUnits="userSpaceOnUse" x1="-843.5843" y1="-68.593" x2="-846.7623" y2="-72.3704" gradientTransform="matrix(-0.7034 0 0 -0.7034 -559.5129 1.5526)">
	<stop  offset="0" style="stop-color:#FFFFFF"/>
	<stop  offset="0.1458" style="stop-color:#FFFFFF"/>
	<stop  offset="0.6612" style="stop-color:#DBFBFF"/>
	<stop  offset="1" style="stop-color:#FFFFFF"/>
</linearGradient>
<path id="Oval_1_" class="st19" d="M34.6,51.1c-0.2,0-0.4-0.2-0.4-0.4c0-0.2,0.2-0.4,0.4-0.4c0.2,0,0.4,0.2,0.4,0.4
	C35,50.9,34.8,51.1,34.6,51.1z"/>
<linearGradient id="Oval_22_" gradientUnits="userSpaceOnUse" x1="-843.585" y1="-68.5928" x2="-846.763" y2="-72.3702" gradientTransform="matrix(-0.7034 0 0 -0.7034 -558.2281 2.2808)">
	<stop  offset="0" style="stop-color:#FFFFFF"/>
	<stop  offset="0.1458" style="stop-color:#FFFFFF"/>
	<stop  offset="0.6612" style="stop-color:#DBFBFF"/>
	<stop  offset="1" style="stop-color:#FFFFFF"/>
</linearGradient>
<path id="Oval_2_" class="st20" d="M35.9,51.8c-0.2,0-0.4-0.2-0.4-0.4c0-0.2,0.2-0.4,0.4-0.4s0.4,0.2,0.4,0.4
	C36.2,51.6,36.1,51.8,35.9,51.8z"/>
<linearGradient id="Oval_23_" gradientUnits="userSpaceOnUse" x1="-843.5843" y1="-68.593" x2="-846.7623" y2="-72.3704" gradientTransform="matrix(-0.7034 0 0 -0.7034 -561.5613 0.3091)">
	<stop  offset="0" style="stop-color:#FFFFFF"/>
	<stop  offset="0.1458" style="stop-color:#FFFFFF"/>
	<stop  offset="0.6612" style="stop-color:#DBFBFF"/>
	<stop  offset="1" style="stop-color:#FFFFFF"/>
</linearGradient>
<path id="Oval_3_" class="st21" d="M32.6,49.8c-0.2,0-0.4-0.2-0.4-0.4c0-0.2,0.2-0.4,0.4-0.4c0.2,0,0.4,0.2,0.4,0.4
	C32.9,49.7,32.8,49.8,32.6,49.8z"/>
<linearGradient id="Path_46_" gradientUnits="userSpaceOnUse" x1="-217.5321" y1="336.2519" x2="-218.1544" y2="335.6583" gradientTransform="matrix(2.6705 0 0 -3.4348 661.0098 1209.4081)">
	<stop  offset="0" style="stop-color:#130CB6"/>
	<stop  offset="0.2452" style="stop-color:#244EC8"/>
	<stop  offset="0.6164" style="stop-color:#3DACE1"/>
	<stop  offset="0.8763" style="stop-color:#4CE8F1"/>
	<stop  offset="1" style="stop-color:#52FFF7"/>
</linearGradient>
<path id="Path_12_" class="st22" d="M79.3,53.8c-0.7,0.4-1.3,1.5-1.3,2.3c0,0.8,0.6,1.2,1.3,0.8c0.7-0.4,1.3-1.5,1.3-2.3
	C80.7,53.7,80.1,53.4,79.3,53.8z"/>
<linearGradient id="Path_47_" gradientUnits="userSpaceOnUse" x1="-121.8064" y1="258.9152" x2="-120.3296" y2="260.0154" gradientTransform="matrix(1.5384 0 0 -1.9784 266.4528 567.8561)">
	<stop  offset="0" style="stop-color:#B2FFAA"/>
	<stop  offset="5.400000e-03" style="stop-color:#B2FFAA"/>
	<stop  offset="1.240000e-02" style="stop-color:#B1FFAB"/>
	<stop  offset="0.3617" style="stop-color:#6DFFCB"/>
	<stop  offset="0.6542" style="stop-color:#3CFFE2"/>
	<stop  offset="0.8756" style="stop-color:#1DFFF1"/>
	<stop  offset="1" style="stop-color:#12FFF6"/>
</linearGradient>
<path id="Path_13_" class="st23" d="M79.3,54.5c-0.4,0.2-0.8,0.8-0.8,1.3c0,0.5,0.3,0.7,0.8,0.4c0.4-0.2,0.8-0.8,0.8-1.3
	C80.1,54.4,79.8,54.2,79.3,54.5z"/>
<linearGradient id="Path_48_" gradientUnits="userSpaceOnUse" x1="-341.2971" y1="428.6434" x2="-342.5167" y2="428.9442" gradientTransform="matrix(52.9501 0 0 -30.6687 18172.5098 13214.2295)">
	<stop  offset="0" style="stop-color:#FFFFFF"/>
	<stop  offset="1" style="stop-color:#AB9BE6"/>
</linearGradient>
<path id="Path_14_" class="st24" d="M94.9,53.9l-0.1,11c-0.5,3.5-3,6.9-7.6,9.6c-7.5,4.4-18.4,5.5-27.8,3.6
	c-1.6-0.3-3.2-0.8-4.7-1.3c-1.7-0.6-3.4-1.4-4.9-2.2c-2.4-1.4-4.3-3-5.6-4.7c-0.1-0.1-0.2-0.2-0.3-0.4c-1.3-1.8-2-3.8-2-5.8v-9.5
	l16-4.6c6.6-1.6,14.1-1.6,20.7,0L94.9,53.9z"/>
<linearGradient id="Path_49_" gradientUnits="userSpaceOnUse" x1="-342.4093" y1="428.7959" x2="-341.4093" y2="428.7959" gradientTransform="matrix(52.9534 0 0 -30.673 18173.6094 13206.6143)">
	<stop  offset="0" style="stop-color:#573E94"/>
	<stop  offset="1" style="stop-color:#896CBF"/>
</linearGradient>
<path id="Path_15_" class="st25" d="M87.1,65c-0.3,0.2-0.6,0.3-0.8,0.5c-2.5,1.3-5.3,2.3-8.3,3c-6,1.3-12.6,1.4-18.7,0.1
	c-1.6-0.3-3.2-0.8-4.7-1.3c0,0,0,0,0,0c-1.7-0.6-3.3-1.3-4.7-2.2c0,0-0.1-0.1-0.1-0.1c-2.4-1.4-4.3-3-5.6-4.7
	c-4.2-5.6-2.4-12.4,5.5-17c10.3-6,27.1-6,37.4,0C97.4,49.3,97.4,59,87.1,65z"/>
<linearGradient id="Path_50_" gradientUnits="userSpaceOnUse" x1="-333.3852" y1="430.3252" x2="-335.2753" y2="427.9561" gradientTransform="matrix(26.5528 0 0 -28.6172 8986.209 12302.0635)">
	<stop  offset="0" style="stop-color:#613FAE"/>
	<stop  offset="1" style="stop-color:#7959B2"/>
</linearGradient>
<path id="Path_16_" class="st26" d="M87.1,65c-0.3,0.2-0.6,0.3-0.8,0.5c-2.5,1.3-5.3,2.3-8.3,3c-3.1,0.7-6.4,1-9.7,1
	c3.2,0,6.4-0.4,9.4-1c3-0.7,5.8-1.7,8.3-3c0.3-0.1,0.6-0.3,0.8-0.5c8.8-5.1,10.1-13,3.7-18.9c0,0,0,0,0,0c-1.1-1-2.4-2-4-2.9
	c-1.5-0.9-3.2-1.6-5-2.3c2,0.7,3.8,1.5,5.5,2.4C97.4,49.3,97.4,59,87.1,65z"/>
<linearGradient id="Path_51_" gradientUnits="userSpaceOnUse" x1="-339.7759" y1="425.9417" x2="-340.9955" y2="426.2426" gradientTransform="matrix(43.021 0 0 -24.9178 14712.1523 10670.2031)">
	<stop  offset="0" style="stop-color:#FFFFFF"/>
	<stop  offset="1" style="stop-color:#AB9BE6"/>
</linearGradient>
<path id="Path_17_" class="st27" d="M89.9,52.9v-1.2l-0.1,0c-0.5-2.8-2.5-5.5-6.2-7.6c-8.4-4.9-22-4.9-30.4,0
	c-3.5,2-5.5,4.5-6.1,7.2l-0.2,0l0,1.6h0c0,3.2,2.1,6.4,6.3,8.9c5.6,3.2,13.4,4.3,20.5,3.3c2.8-0.4,5.6-1.2,8-2.3
	c0.7-0.3,1.3-0.7,2-1C87.8,59.3,89.9,56.1,89.9,52.9z"/>
<linearGradient id="Path_52_" gradientUnits="userSpaceOnUse" x1="-340.8877" y1="426.093" x2="-339.8877" y2="426.093" gradientTransform="matrix(43.0212 0 0 -24.9184 14712.2285 10669.3213)">
	<stop  offset="0" style="stop-color:#432A7F"/>
	<stop  offset="1" style="stop-color:#896CBF"/>
</linearGradient>
<path id="Path_18_" class="st28" d="M83.6,60.6c-0.6,0.4-1.3,0.7-2,1c-2.4,1.1-5.1,1.8-8,2.3c-7.1,1-14.9-0.1-20.5-3.3
	c-8.4-4.9-8.5-12.8-0.1-17.6c8.4-4.9,22-4.9,30.4,0C91.9,47.8,92,55.7,83.6,60.6z"/>
<linearGradient id="Shape_6_" gradientUnits="userSpaceOnUse" x1="-338.1512" y1="419.9851" x2="-337.1512" y2="419.9851" gradientTransform="matrix(30.0898 0 0 -17.4995 10205.543 7398.0449)">
	<stop  offset="0" style="stop-color:#B3FFAB;stop-opacity:0"/>
	<stop  offset="1" style="stop-color:#FFFFFF;stop-opacity:0.6261"/>
</linearGradient>
<path id="Shape_3_" class="st29" d="M68.3,57.3c-4,0-7.8-0.9-10.6-2.5c-2.9-1.7-4.5-3.9-4.5-6.2c0-2.3,1.6-4.5,4.4-6.2
	c2.8-1.6,6.6-2.5,10.6-2.5c4,0,7.8,0.9,10.6,2.5c2.9,1.7,4.5,3.9,4.5,6.2c0,2.3-1.6,4.5-4.4,6.2c-0.4,0.2-0.9,0.5-1.4,0.7
	C75.9,56.2,74,56.7,72,57C70.8,57.2,69.5,57.3,68.3,57.3z M68.2,39.9c-4,0-7.7,0.9-10.5,2.5c-2.8,1.6-4.3,3.8-4.3,6
	c0,2.3,1.6,4.4,4.4,6.1c2.8,1.6,6.6,2.5,10.6,2.5c1.2,0,2.5-0.1,3.6-0.3c2-0.3,3.9-0.8,5.5-1.6c0.5-0.2,0.9-0.5,1.4-0.7
	c2.8-1.6,4.3-3.8,4.3-6c0-2.3-1.6-4.4-4.4-6.1C75.9,40.8,72.2,39.9,68.2,39.9z"/>
<linearGradient id="Path_53_" gradientUnits="userSpaceOnUse" x1="102331.9141" y1="332.1519" x2="102331.9297" y2="332.1519" gradientTransform="matrix(3.398895e-03 0 0 -3.3134 -302.3643 1124.7466)">
	<stop  offset="0" style="stop-color:#4C82FF"/>
	<stop  offset="1" style="stop-color:#2AF9DE"/>
</linearGradient>
<path id="Path_19_" class="st30" d="M45.5,25.9l0-3.3c0,0,0,0.1,0,0.1V25.9z"/>
<linearGradient id="Oval_24_" gradientUnits="userSpaceOnUse" x1="-174" y1="258.2694" x2="-174" y2="262.5356" gradientTransform="matrix(2 0 0 -2 403.1718 536.7333)">
	<stop  offset="0" style="stop-color:#4C83FF"/>
	<stop  offset="0.4104" style="stop-color:#2AFADF"/>
	<stop  offset="1" style="stop-color:#FFFFFF;stop-opacity:0"/>
</linearGradient>
<circle id="Oval_4_" class="st31" cx="55.2" cy="14.7" r="1"/>
<linearGradient id="Oval_25_" gradientUnits="userSpaceOnUse" x1="-174" y1="258.2686" x2="-174" y2="262.5358" gradientTransform="matrix(2 0 0 -2 417.6671 538.9342)">
	<stop  offset="0" style="stop-color:#4C83FF"/>
	<stop  offset="0.4104" style="stop-color:#2AFADF"/>
	<stop  offset="1" style="stop-color:#FFFFFF;stop-opacity:0"/>
</linearGradient>
<circle id="Oval_5_" class="st32" cx="69.7" cy="16.9" r="1"/>
<linearGradient id="Oval_26_" gradientUnits="userSpaceOnUse" x1="-174" y1="258.2689" x2="-174" y2="262.536" gradientTransform="matrix(2 0 0 -2 435.1097 534.0281)">
	<stop  offset="0" style="stop-color:#4C83FF"/>
	<stop  offset="0.4104" style="stop-color:#2AFADF"/>
	<stop  offset="1" style="stop-color:#FFFFFF;stop-opacity:0"/>
</linearGradient>
<circle id="Oval_6_" class="st33" cx="87.1" cy="12" r="1"/>
<linearGradient id="Oval_27_" gradientUnits="userSpaceOnUse" x1="-174" y1="258.2687" x2="-174" y2="262.5355" gradientTransform="matrix(2 0 0 -2 398.8243 535.2719)">
	<stop  offset="0" style="stop-color:#4C83FF"/>
	<stop  offset="0.4104" style="stop-color:#2AFADF"/>
	<stop  offset="1" style="stop-color:#FFFFFF;stop-opacity:0"/>
</linearGradient>
<circle id="Oval_7_" class="st34" cx="50.8" cy="13.3" r="1"/>
<linearGradient id="Oval_28_" gradientUnits="userSpaceOnUse" x1="-174" y1="258.2649" x2="-174" y2="262.5376" gradientTransform="matrix(2 0 0 -2 424.6403 539.5426)">
	<stop  offset="0" style="stop-color:#4C83FF"/>
	<stop  offset="0.4104" style="stop-color:#2AFADF"/>
	<stop  offset="1" style="stop-color:#FFFFFF;stop-opacity:0"/>
</linearGradient>
<circle id="Oval_8_" class="st35" cx="76.6" cy="17.5" r="1"/>
<linearGradient id="Oval_29_" gradientUnits="userSpaceOnUse" x1="-174" y1="258.2681" x2="-174" y2="262.5358" gradientTransform="matrix(2 0 0 -2 409.3544 546.4538)">
	<stop  offset="0" style="stop-color:#4C83FF"/>
	<stop  offset="0.4104" style="stop-color:#2AFADF"/>
	<stop  offset="1" style="stop-color:#FFFFFF;stop-opacity:0"/>
</linearGradient>
<circle id="Oval_9_" class="st36" cx="61.4" cy="24.5" r="1"/>
<linearGradient id="Oval_30_" gradientUnits="userSpaceOnUse" x1="-174" y1="258.2664" x2="-174" y2="262.5369" gradientTransform="matrix(2 0 0 -2 402.0425 548.1775)">
	<stop  offset="0" style="stop-color:#4C83FF"/>
	<stop  offset="0.4104" style="stop-color:#2AFADF"/>
	<stop  offset="1" style="stop-color:#FFFFFF;stop-opacity:0"/>
</linearGradient>
<circle id="Oval_10_" class="st37" cx="54" cy="26.2" r="1"/>
<linearGradient id="Oval_31_" gradientUnits="userSpaceOnUse" x1="-174" y1="258.2668" x2="-174" y2="262.5364" gradientTransform="matrix(2 0 0 -2 422.9402 550.9174)">
	<stop  offset="0" style="stop-color:#4C83FF"/>
	<stop  offset="0.4104" style="stop-color:#2AFADF"/>
	<stop  offset="1" style="stop-color:#FFFFFF;stop-opacity:0"/>
</linearGradient>
<circle id="Oval_11_" class="st38" cx="74.9" cy="28.9" r="1"/>
<linearGradient id="Oval_32_" gradientUnits="userSpaceOnUse" x1="-174" y1="258.2676" x2="-174" y2="262.5363" gradientTransform="matrix(2 0 0 -2 431.5776 556.7208)">
	<stop  offset="0" style="stop-color:#4C83FF"/>
	<stop  offset="0.4104" style="stop-color:#2AFADF"/>
	<stop  offset="1" style="stop-color:#FFFFFF;stop-opacity:0"/>
</linearGradient>
<circle id="Oval_12_" class="st39" cx="83.6" cy="34.7" r="1"/>
<linearGradient id="Oval_33_" gradientUnits="userSpaceOnUse" x1="-174" y1="258.2698" x2="-174" y2="262.5351" gradientTransform="matrix(2 0 0 -2 420.7035 558.5826)">
	<stop  offset="0" style="stop-color:#4C83FF"/>
	<stop  offset="0.4104" style="stop-color:#2AFADF"/>
	<stop  offset="1" style="stop-color:#FFFFFF;stop-opacity:0"/>
</linearGradient>
<circle id="Oval_13_" class="st40" cx="72.7" cy="36.6" r="1"/>
<linearGradient id="Oval_34_" gradientUnits="userSpaceOnUse" x1="-174" y1="258.267" x2="-174" y2="262.5361" gradientTransform="matrix(2 0 0 -2 427.1873 560.0501)">
	<stop  offset="0" style="stop-color:#4C83FF"/>
	<stop  offset="0.4104" style="stop-color:#2AFADF"/>
	<stop  offset="1" style="stop-color:#FFFFFF;stop-opacity:0"/>
</linearGradient>
<circle id="Oval_14_" class="st41" cx="79.2" cy="38.1" r="1"/>
<linearGradient id="Oval_35_" gradientUnits="userSpaceOnUse" x1="-174" y1="258.2674" x2="-174" y2="262.5361" gradientTransform="matrix(2 0 0 -2 402.4443 563.7479)">
	<stop  offset="0" style="stop-color:#4C83FF"/>
	<stop  offset="0.4104" style="stop-color:#2AFADF"/>
	<stop  offset="1" style="stop-color:#FFFFFF;stop-opacity:0"/>
</linearGradient>
<circle id="Oval_15_" class="st42" cx="54.4" cy="41.7" r="1"/>
<linearGradient id="Oval_36_" gradientUnits="userSpaceOnUse" x1="-174" y1="258.2697" x2="-174" y2="262.5358" gradientTransform="matrix(2 0 0 -2 425.6178 565.8122)">
	<stop  offset="0" style="stop-color:#4C83FF"/>
	<stop  offset="0.4104" style="stop-color:#2AFADF"/>
	<stop  offset="1" style="stop-color:#FFFFFF;stop-opacity:0"/>
</linearGradient>
<circle id="Oval_16_" class="st43" cx="77.6" cy="43.8" r="1"/>
<linearGradient id="Oval_37_" gradientUnits="userSpaceOnUse" x1="-174" y1="258.2703" x2="-174" y2="262.5347" gradientTransform="matrix(2 0 0 -2 427.6808 570.3182)">
	<stop  offset="0" style="stop-color:#4C83FF"/>
	<stop  offset="0.4104" style="stop-color:#2AFADF"/>
	<stop  offset="1" style="stop-color:#FFFFFF;stop-opacity:0"/>
</linearGradient>
<circle id="Oval_17_" class="st44" cx="79.7" cy="48.3" r="1"/>
<linearGradient id="Oval_38_" gradientUnits="userSpaceOnUse" x1="-174" y1="258.2682" x2="-174" y2="262.5358" gradientTransform="matrix(2 0 0 -2 407.2705 570.9548)">
	<stop  offset="0" style="stop-color:#4C83FF"/>
	<stop  offset="0.4104" style="stop-color:#2AFADF"/>
	<stop  offset="1" style="stop-color:#FFFFFF;stop-opacity:0"/>
</linearGradient>
<circle id="Oval_18_" class="st45" cx="59.3" cy="49" r="1"/>
<linearGradient id="Oval_39_" gradientUnits="userSpaceOnUse" x1="-174" y1="258.2686" x2="-174" y2="262.5356" gradientTransform="matrix(2 0 0 -2 420.7035 573.7625)">
	<stop  offset="0" style="stop-color:#4C83FF"/>
	<stop  offset="0.4104" style="stop-color:#2AFADF"/>
	<stop  offset="1" style="stop-color:#FFFFFF;stop-opacity:0"/>
</linearGradient>
<circle id="Oval_19_" class="st46" cx="72.7" cy="51.8" r="1"/>
<linearGradient id="Path_54_" gradientUnits="userSpaceOnUse" x1="808.7003" y1="422.278" x2="808.7003" y2="421.5484" gradientTransform="matrix(0.3016 0 0 -19.1486 -160.8328 8098.3569)">
	<stop  offset="0" style="stop-color:#4CFFD5;stop-opacity:0.7623"/>
	<stop  offset="1" style="stop-color:#FFFFFF;stop-opacity:0"/>
</linearGradient>
<path id="Path_20_" class="st47" d="M83.1,12.8c-0.1,0-0.2,0.1-0.2,0.2v18.8c0,0.1,0.1,0.2,0.2,0.2c0.1,0,0.2-0.1,0.2-0.2V13
	C83.2,12.9,83.1,12.8,83.1,12.8z"/>
<linearGradient id="Path_55_" gradientUnits="userSpaceOnUse" x1="401.0351" y1="423.662" x2="401.0351" y2="422.9324" gradientTransform="matrix(0.4656 0 0 -20.6748 -128.5471 8776.6885)">
	<stop  offset="0" style="stop-color:#4CFFD5;stop-opacity:0.7623"/>
	<stop  offset="1" style="stop-color:#FFFFFF;stop-opacity:0"/>
</linearGradient>
<path id="Path_21_" class="st48" d="M58.2,18.1c-0.1,0-0.2,0.1-0.2,0.3v20.1c0,0.2,0.1,0.3,0.2,0.3c0.1,0,0.2-0.1,0.2-0.3V18.4
	C58.4,18.2,58.3,18.1,58.2,18.1z"/>
<linearGradient id="Path_56_" gradientUnits="userSpaceOnUse" x1="401.3177" y1="428.8824" x2="401.3177" y2="428.1529" gradientTransform="matrix(0.4654 0 0 -29.5628 -111.619 12709.7754)">
	<stop  offset="0" style="stop-color:#4CFFD5;stop-opacity:0.7623"/>
	<stop  offset="1" style="stop-color:#FFFFFF;stop-opacity:0"/>
</linearGradient>
<path id="Path_22_" class="st49" d="M75.2,31.6c-0.1,0-0.2,0.1-0.2,0.3v29c0,0.2,0.1,0.3,0.2,0.3c0.1,0,0.2-0.1,0.2-0.3v-29
	C75.4,31.7,75.3,31.6,75.2,31.6z"/>
<linearGradient id="Path_57_" gradientUnits="userSpaceOnUse" x1="-312.092" y1="424.5725" x2="-310.1225" y2="424.5725" gradientTransform="matrix(9.4147 0 0 -22.5396 2982.1763 9580.9707)">
	<stop  offset="0" style="stop-color:#4CFFE1"/>
	<stop  offset="1" style="stop-color:#2AFADF"/>
</linearGradient>
<path id="Path_23_" class="st50" d="M54.9,0.7v18.8c0,0.7-0.5,1.5-1.1,1.8c-0.7,0.4-1.4,0.9-1.9,1.2c-7.5-5.3-8.5-12.7-3-18.6
	c1-1.1,3.4-2.8,4.9-3.8C54.4-0.2,54.9,0.1,54.9,0.7z"/>
<linearGradient id="Path_58_" gradientUnits="userSpaceOnUse" x1="-336.833" y1="430.9857" x2="-334.9821" y2="430.9857" gradientTransform="matrix(25.9072 0 0 -37.7328 8738.0586 16293.1523)">
	<stop  offset="5.806588e-04" style="stop-color:#4CFFDE"/>
	<stop  offset="1" style="stop-color:#4CE3D6"/>
</linearGradient>
<path id="Path_24_" class="st51" d="M71.4,29.9v18.7c0,0.7-0.5,1.1-1.2,1.1c-5.5,0-12.2-2.7-13.6-3.3c-0.9-0.4-1.8-0.9-2.7-1.4
	c-5.6-3.3-8.4-7.5-8.4-11.8c0-0.1,0-0.1,0-0.2V15.3l0-3.3c0,0,0,0.1,0,0.1V12c0,0.8,0.1,1.5,0.3,2.3c0,0,0,0.1,0,0.1
	c0,0.1,0.1,0.3,0.1,0.4c0,0.1,0.1,0.3,0.1,0.4c0,0,0,0,0,0c1.1,3.2,3.7,6.2,8,8.6c1.9,1.1,3.9,2,6.1,2.7c0,0,0.1,0,0.1,0
	c3.1,1,6.5,1.7,9.9,2C70.8,28.7,71.4,29.2,71.4,29.9z"/>
<linearGradient id="Path_59_" gradientUnits="userSpaceOnUse" x1="-322.8903" y1="405.6629" x2="-319.8929" y2="405.6629" gradientTransform="matrix(12.1569 0 0 -10.3051 3950.2908 4214.2051)">
	<stop  offset="0" style="stop-color:#4C83FF"/>
	<stop  offset="1" style="stop-color:#2AFADF"/>
</linearGradient>
<path id="Path_25_" class="st52" d="M68.7,31.9v7c-2.9-0.3-5.8-1-8.5-1.8c0,0-0.1,0-0.1,0c-1.2-0.4-2.4-0.9-3.5-1.4v-7
	c1.1,0.5,2.3,1,3.5,1.4c0,0,0.1,0,0.1,0C62.9,31,65.8,31.6,68.7,31.9z"/>
<linearGradient id="Path_60_" gradientUnits="userSpaceOnUse" x1="-321.9998" y1="354.5021" x2="-320.9998" y2="354.5021" gradientTransform="matrix(12.157 0 0 -4.1745 3950.353 1520.0146)">
	<stop  offset="0" style="stop-color:#4C83FF"/>
	<stop  offset="1" style="stop-color:#2AFADF"/>
</linearGradient>
<path id="Path_26_" class="st53" d="M68.7,41.3v0.9c-3-0.4-5.9-1-8.6-1.9c0,0-0.1,0-0.1,0c0,0,0,0,0,0l0,0c-1.2-0.4-2.3-0.8-3.4-1.3
	v-0.9c1.1,0.5,2.3,1,3.5,1.4c0,0,0.1,0,0.1,0C62.9,40.3,65.8,41,68.7,41.3z"/>
<linearGradient id="Path_61_" gradientUnits="userSpaceOnUse" x1="-322.0741" y1="361.0364" x2="-321.0741" y2="361.0364" gradientTransform="matrix(12.157 0 0 -4.5178 3950.353 1673.5797)">
	<stop  offset="0" style="stop-color:#4C83FF"/>
	<stop  offset="1" style="stop-color:#2AFADF"/>
</linearGradient>
<path id="Path_27_" class="st54" d="M68.7,43.4v1.3c-3-0.4-5.9-1-8.6-1.9c0,0-0.1,0-0.1,0c0,0,0,0,0,0l0,0c-1.2-0.4-2.3-0.8-3.4-1.3
	v-1.2c1,0.4,2,0.8,3,1.1c0,0,0.1,0,0.1,0l0,0C62.5,42.3,65.5,43,68.7,43.4z"/>
<linearGradient id="Path_62_" gradientUnits="userSpaceOnUse" x1="-322.3061" y1="355.4388" x2="-321.3061" y2="355.4388" gradientTransform="matrix(12.157 0 0 -4.2205 3950.353 1544.9971)">
	<stop  offset="0" style="stop-color:#4C83FF"/>
	<stop  offset="1" style="stop-color:#2AFADF"/>
</linearGradient>
<path id="Path_28_" class="st55" d="M68.7,45.9v1c-3-0.4-5.9-1-8.6-1.9c0,0-0.1,0-0.1,0c0,0,0,0,0,0l0,0c-1.2-0.4-2.3-0.8-3.4-1.3
	v-0.9c1,0.4,2,0.8,3,1.1c0,0,0.1,0,0.1,0l0,0C62.5,44.9,65.5,45.5,68.7,45.9z"/>
<linearGradient id="Path_63_" gradientUnits="userSpaceOnUse" x1="-300.0115" y1="413.9344" x2="-304.5127" y2="413.9344" gradientTransform="matrix(7.9308 0 0 -13.5137 2498.8218 5634.2642)">
	<stop  offset="0" style="stop-color:#4C83FF"/>
	<stop  offset="1" style="stop-color:#2AFADF"/>
</linearGradient>
<path id="Path_29_" class="st56" d="M80,37.4v9.1c0,0.4,0.3,0.7,0.7,0.6c2-0.4,3.9-1.1,5.5-2c0.4-0.2,0.8-0.5,1.1-0.7
	c0.3-0.2,0.6-0.8,0.6-1.2v-9.1c0-0.4-0.3-0.5-0.6-0.3c-0.3,0.2-0.7,0.5-1.1,0.7c-1.6,0.9-3.5,1.6-5.5,2C80.3,36.6,80,37,80,37.4z"/>
<linearGradient id="Path_64_" gradientUnits="userSpaceOnUse" x1="-338.0801" y1="432.8488" x2="-338.0801" y2="433.6435" gradientTransform="matrix(33.4937 0 0 -50.3852 11391.8945 21869.123)">
	<stop  offset="0" style="stop-color:#8367BE"/>
	<stop  offset="1" style="stop-color:#FFFFFF;stop-opacity:0"/>
</linearGradient>
<path id="Path_30_" class="st57" d="M85,18.8l0.1,30.2h0c0,0.3,0,0.5-0.1,0.8c-0.3,2-1.6,3.9-4,5.5c-0.3,0.2-0.6,0.4-0.8,0.5
	c-0.7,0.4-1.5,0.8-2.3,1.1c-1,0.4-2,0.7-3.1,1c-1,0.2-2.1,0.4-3.1,0.5c-0.1,0-0.1,0-0.2,0c0,0-0.1,0-0.1,0c-2,0.2-4.1,0.2-6.1,0
	c-0.1,0-0.1,0-0.2,0c-1.1-0.1-2.2-0.3-3.3-0.6c-1-0.3-2-0.6-3-1c-0.8-0.3-1.5-0.7-2.2-1.1c-0.4-0.2-0.7-0.4-1.1-0.7
	c-0.6-0.4-1.2-0.9-1.7-1.4c-1.3-1.3-2-2.7-2.2-4.1c0-0.2,0-0.5,0-0.7h0V31.7l0-13.8c0-2.5,1.6-5,4.9-6.9c6.5-3.8,17.1-3.8,23.7,0
	C83.8,13.2,85.4,16,85,18.8z"/>
<linearGradient id="Path_65_" gradientUnits="userSpaceOnUse" x1="-330.603" y1="425.7231" x2="-327.8351" y2="425.7231" gradientTransform="matrix(16.8549 0 0 -24.2947 5611.2666 10364.7656)">
	<stop  offset="0" style="stop-color:#50E0D8"/>
	<stop  offset="1" style="stop-color:#2AFADF"/>
</linearGradient>
<path id="Path_31_" class="st58" d="M84.4,32.2c-1.7,0.8-3.5,1.4-5.3,1.9c-0.6,0.2-1.2-0.2-1.2-0.9v-8c0-0.7,0.5-1.3,1.2-1.5
	c1.9-0.5,3.6-1.1,5.3-1.9c0.9-0.4,1.7-0.8,2.5-1.3c5.1-3,7.7-6.8,7.9-10.7v9.7c0.1,4.1-2.5,8.2-7.9,11.4
	C86.1,31.4,85.3,31.8,84.4,32.2z"/>
<linearGradient id="Path_66_" gradientUnits="userSpaceOnUse" x1="-253.4373" y1="411.1249" x2="-250.1008" y2="411.1249" gradientTransform="matrix(3.4645 0 0 -12.2212 951.4315 5033.0518)">
	<stop  offset="0" style="stop-color:#B3FFAB"/>
	<stop  offset="1" style="stop-color:#12F7ED"/>
</linearGradient>
<path id="Path_32_" class="st59" d="M92.1,13.2c-0.4-0.5-0.8-1.4-0.8-2.1v-8c0-0.7,0.4-0.8,0.8-0.3c3.1,3.7,3.5,8.1,1.1,11.9
	C92.9,14.2,92.5,13.7,92.1,13.2z"/>
<linearGradient id="Path_67_" gradientUnits="userSpaceOnUse" x1="-6.6342" y1="311.4249" x2="-6.6342" y2="310.2132" gradientTransform="matrix(1.0209 0 0 -2.7512 94.393 880.9897)">
	<stop  offset="0" style="stop-color:#4C83FF"/>
	<stop  offset="1" style="stop-color:#2AFADF"/>
</linearGradient>
<polygon id="Path_33_" class="st60" points="88.1,28.7 88.1,26.7 87.1,27.3 87.1,29.5 "/>
<linearGradient id="Path_68_" gradientUnits="userSpaceOnUse" x1="-11.6056" y1="399.0938" x2="-11.5984" y2="397.0972" gradientTransform="matrix(1.0359 0 0 -7.9941 93.5545 3190.8728)">
	<stop  offset="0" style="stop-color:#4C83FF"/>
	<stop  offset="1" style="stop-color:#2AFADF"/>
</linearGradient>
<path id="Path_34_" class="st61" d="M82.1,32.1c-0.3,0.1-0.7,0.3-1,0.4l0-7.6c0.3-0.1,0.7-0.2,1-0.3L82.1,32.1z"/>
<linearGradient id="Path_69_" gradientUnits="userSpaceOnUse" x1="-9.4265" y1="376.5716" x2="-9.4265" y2="375.1865" gradientTransform="matrix(1.0293 0 0 -5.48 93.2801 2083.8528)">
	<stop  offset="0" style="stop-color:#4C83FF"/>
	<stop  offset="1" style="stop-color:#2AFADF"/>
</linearGradient>
<path id="Path_35_" class="st62" d="M84.1,31.2c-0.2,0.1-0.4,0.2-0.6,0.3c-0.2,0.1-0.3,0.1-0.5,0.2l0-5c0,0,0,0,0,0
	c0.2-0.1,0.3-0.1,0.5-0.2c0.2-0.1,0.4-0.2,0.5-0.3L84.1,31.2z"/>
<linearGradient id="Path_70_" gradientUnits="userSpaceOnUse" x1="-10.9518" y1="394.9149" x2="-10.9518" y2="393.601" gradientTransform="matrix(1.0339 0 0 -7.623 96.9831 3025.7566)">
	<stop  offset="0" style="stop-color:#4C83FF"/>
	<stop  offset="1" style="stop-color:#2AFADF"/>
</linearGradient>
<path id="Path_36_" class="st63" d="M86.2,30.1c-0.1,0.1-0.2,0.1-0.3,0.2c-0.2,0.1-0.4,0.3-0.7,0.4l0-7l1-0.6L86.2,30.1z"/>
<linearGradient id="Path_71_" gradientUnits="userSpaceOnUse" x1="-327.7605" y1="431.4977" x2="-327.7605" y2="431.0482" gradientTransform="matrix(16.8278 0 0 -38.2818 5601.8872 16543.6055)">
	<stop  offset="0" style="stop-color:#30E4E5"/>
	<stop  offset="1" style="stop-color:#2AFADF;stop-opacity:0"/>
</linearGradient>
<path id="Path_37_" class="st64" d="M94.8,20.4v27.1L78,58.6V33.3c0.1,0.6,0.6,0.9,1.2,0.7c1.9-0.5,3.6-1.1,5.3-1.9
	c0.9-0.4,1.7-0.8,2.5-1.3C92,28,94.6,24.2,94.8,20.4z"/>
</svg>
