<svg id="_1" xmlns="http://www.w3.org/2000/svg" viewBox="0 0 100 100"><style>.st6{opacity:.8;fill:none;stroke:#fbf8ff;stroke-width:.55;enable-background:new}</style><linearGradient id="Path_9_" gradientUnits="userSpaceOnUse" x1="-341.749" y1="439.799" x2="-342.969" y2="440.1" gradientTransform="matrix(56.9226 0 0 -32.9783 19550.582 14589.736)"><stop offset="0" stop-color="#fff"/><stop offset="1" stop-color="#ab9be6"/></linearGradient><path id="Path" d="M53.3 66.9c-2.1-1.2-5.7-1-8.1.3L33.6 74l4.6 1.6 10.9 11.2.3 11.7c1.5 0 3.1-.4 4.3-1.1l34.6-17.5.6-.3c1.3-.7 1.7-1.5 1.7-3V65.5l-37.3 1.4z" fill="url(#Path_9_)"/><linearGradient id="Path_10_" gradientUnits="userSpaceOnUse" x1="-339.211" y1="439.524" x2="-340.43" y2="440.115" gradientTransform="matrix(40.3514 0 0 -32.7519 13742.689 14487.847)"><stop offset="0" stop-color="#fff"/><stop offset="1" stop-color="#ab9be6"/></linearGradient><path id="Path_1_" d="M29.2 76.5L9.3 65.7 9 78c.1.7.5 1.3 1.4 1.8l35.2 17.8c1 .6 2.4.8 3.8.8l-.3-11.7-19.9-10.2z" fill="url(#Path_10_)"/><linearGradient id="Path_11_" gradientUnits="userSpaceOnUse" x1="-344.701" y1="441.361" x2="-343.701" y2="441.361" gradientTransform="matrix(81.1806 0 0 -38.1902 27992.38 16923.426)"><stop offset="0" stop-color="#6a549e"/><stop offset="1" stop-color="#896cbf"/></linearGradient><path id="Path_2_" d="M45.9 86L10.7 68.2c-2.1-1.2-1.8-3.3.6-4.7l34.6-13.7c2.4-1.4 6-1.5 8.1-.3l35.2 14.1c2.1 1.2 1.8 3.3-.6 4.7L54 85.7c-2.4 1.4-6 1.5-8.1.3z" fill="url(#Path_11_)"/><path id="Path_3_" d="M46.5 81.2L18.1 67.8c-1.7-1-1.5-2.8.5-3.9l28-10.9c2-1.2 5.1-1.3 6.8-.3L81 64.1c1.7 1 1.5 2.8-.5 3.9L53.3 80.9c-2 1.1-5 1.3-6.8.3z" opacity=".2" fill="none" stroke="#fff" stroke-width=".688"/><linearGradient id="Path-Copy-3_1_" gradientUnits="userSpaceOnUse" x1="-343.963" y1="444.225" x2="-343.963" y2="445.322" gradientTransform="matrix(76.9226 0 0 -60.5564 26507.08 26982.941)"><stop offset="0" stop-color="#735ba7"/><stop offset="1" stop-color="#fff" stop-opacity="0"/></linearGradient><path id="Path-Copy-3" d="M47.1 81l-29-13.4c-.9-.4-1.6-1.3-1.7-2.3L10.1 21H87l-5.1 45c-.1.7-.5 1.3-1.1 1.6L52.1 81c-1.6.7-3.4.7-5 0z" opacity=".4" fill="url(#Path-Copy-3_1_)"/><path id="Path_4_" d="M64.1 80.7c-2.2-1-3.7.4-3.7 2.4 0 0 .5 1.4.7 3.5" fill="none"/><path id="Path_5_" class="st6" d="M76.6 82.1v3.8"/><linearGradient id="Path_12_" gradientUnits="userSpaceOnUse" x1="-286.59" y1="395.171" x2="-285.596" y2="393.784" gradientTransform="matrix(5.6022 0 0 -6.2468 1679.786 2547.353)"><stop offset="0" stop-color="#33c3ca"/><stop offset="1" stop-color="#2bbfc5"/></linearGradient><path id="Path_6_" fill="url(#Path_12_)" d="M73.6 85.3l5.6-3.3v-3l-5.6 3.3z"/><path id="Path_7_" class="st6" d="M21.2 82.1v3.8"/><linearGradient id="Path_13_" gradientUnits="userSpaceOnUse" x1="-411.183" y1="395.171" x2="-410.189" y2="393.784" gradientTransform="matrix(-5.6022 0 0 -6.2468 -2280.046 2547.353)"><stop offset="0" stop-color="#33c3ca"/><stop offset="1" stop-color="#2bbfc5"/></linearGradient><path id="Path_8_" fill="url(#Path_13_)" d="M24.1 85.3L18.5 82v-3l5.6 3.3z"/><linearGradient id="Combined-Shape_1_" gradientUnits="userSpaceOnUse" x1="-340.999" y1="445.867" x2="-339.763" y2="444.481" gradientTransform="scale(51.6666 -51.6666) rotate(-12 -2292.202 -1402.035)"><stop offset="0" stop-color="#33c3ca"/><stop offset="1" stop-color="#2bbfc5"/></linearGradient><path id="Combined-Shape" d="M69.9 27.6c1.5.3 2.5 1.8 2.1 3.3-.1.4-.3.8-.5 1.2v.1c2.8 5.3 3.7 11.5 2.4 17.5-3 14-16.7 22.9-30.6 19.9-5-1.1-9.4-3.5-12.9-7-.4-.4-.4-1.1 0-1.5s1.1-.4 1.5 0c3.2 3.2 7.3 5.5 11.8 6.4 12.8 2.7 25.4-5.4 28.1-18.2 1.2-5.5.3-11.1-2.2-16h-.9c-1.5-.3-2.5-1.8-2.1-3.3.4-1.8 1.8-2.8 3.3-2.4zm-15.8-8.7c4.2.9 8.1 2.8 11.3 5.6.5.4.5 1.1.1 1.5-.4.5-1.1.5-1.5.1-3-2.5-6.5-4.3-10.4-5.1-12.8-2.7-25.4 5.4-28.1 18.2-1.1 5.1-.5 10.2 1.7 14.8v.1c.2 0 .4 0 .6.1 1.5.3 2.5 1.8 2.1 3.3s-1.8 2.5-3.3 2.1c-1.5-.3-2.5-1.8-2.1-3.3.1-.5.4-1 .8-1.4-2.3-5-3-10.7-1.8-16.2 3-13.8 16.7-22.7 30.6-19.8zM27.5 56c-.6-.1-1.1.2-1.2.8s.2 1.1.8 1.2c.6.1 1.1-.2 1.2-.8.2-.6-.2-1.1-.8-1.2zm42-26.8c-.6-.1-1.1.2-1.2.8-.1.6.2 1.1.8 1.2.6.1 1.1-.2 1.2-.8.1-.5-.2-1.1-.8-1.2z" fill="url(#Combined-Shape_1_)"/><linearGradient id="Path-Copy-2_1_" gradientUnits="userSpaceOnUse" x1="-336.069" y1="439.282" x2="-337.551" y2="437.792" gradientTransform="matrix(29.9667 0 0 -29.1212 10143.9 12813.167)"><stop offset="0" stop-color="#fff" stop-opacity="0"/><stop offset=".517" stop-color="#31c2c9"/><stop offset="1" stop-color="#fff" stop-opacity="0"/></linearGradient><path id="Path-Copy-2" d="M45.1 28.5c2.9 0 5.3 2.1 5.7 4.9h5.5c2.5 0 4.5 2 4.5 4.5v5c2.1.8 3.7 2.9 3.7 5.3s-1.5 4.5-3.7 5.4c-.2 2.3-2.2 4-4.5 4H43.2l1-2.8c.1-.2.1-.3.1-.5 0-.9-.7-1.6-1.6-1.6s-1.6.7-1.6 1.6c0 .2 0 .4.1.5l1 2.8H39c-2.5 0-4.5-2-4.5-4.5V37.9c0-2.5 2-4.5 4.5-4.5h.4c.5-2.8 2.9-4.9 5.7-4.9z" opacity=".135" fill="url(#Path-Copy-2_1_)"/><linearGradient id="Path-Copy-4_1_" gradientUnits="userSpaceOnUse" x1="-337.445" y1="438.993" x2="-336.209" y2="437.684" gradientTransform="matrix(29.9667 0 0 -29.1212 10143.9 12813.167)"><stop offset="0" stop-color="#33c3ca"/><stop offset="1" stop-color="#2bbfc5"/></linearGradient><path id="Path-Copy-4" d="M46.2 55.6h10.2c1.3 0 2.4-1.1 2.4-2.4V52c2 0 3.7-1.6 3.7-3.7 0-2-1.6-3.7-3.7-3.7v-6.7c0-1.3-1.1-2.4-2.4-2.4h-7.7c.1-.4.2-.8.2-1.2 0-2-1.6-3.7-3.7-3.7-2 0-3.7 1.6-3.7 3.7 0 .4.1.8.2 1.2H39c-1.3 0-2.4 1.1-2.4 2.4v15.2c0 1.3 1.1 2.4 2.4 2.4h.2c-.1-.4-.2-.8-.2-1.2 0-2 1.6-3.7 3.7-3.7 2 0 3.7 1.6 3.7 3.7 0 .5-.1.9-.2 1.3zm-1.1-27.1c2.9 0 5.3 2.1 5.7 4.9h5.5c2.5 0 4.5 2 4.5 4.5v5c2.1.8 3.7 2.9 3.7 5.3s-1.5 4.5-3.7 5.4c-.2 2.3-2.2 4-4.5 4H43.2l1-2.8c.1-.2.1-.3.1-.5 0-.9-.7-1.6-1.6-1.6s-1.6.7-1.6 1.6c0 .2 0 .4.1.5l1 2.8H39c-2.5 0-4.5-2-4.5-4.5V37.9c0-2.5 2-4.5 4.5-4.5h.4c.5-2.8 2.9-4.9 5.7-4.9z" fill="url(#Path-Copy-4_1_)"/></svg>
