<?xml version="1.0" encoding="UTF-8"?>
<svg width="24px" height="24px" viewBox="0 0 24 24" version="1.1" xmlns="http://www.w3.org/2000/svg" xmlns:xlink="http://www.w3.org/1999/xlink">
    <title>微服务</title>
    <defs>
        <linearGradient x1="50%" y1="0%" x2="50%" y2="100%" id="linearGradient-1">
            <stop stop-color="#FFFFFF" stop-opacity="0.8" offset="0%"></stop>
            <stop stop-color="#FFFFFF" stop-opacity="0.96" offset="100%"></stop>
        </linearGradient>
    </defs>
    <g id="页面-1" stroke="none" stroke-width="1" fill="none" fill-rule="evenodd">
        <path d="M11.5197845,4.58620711 C11.7022807,4.48084286 11.9235963,4.47206251 12.1125624,4.55986605 L12.1632431,4.58620711 L13.4887828,5.35150781 C13.6725553,5.45760888 13.7911917,5.64677005 13.8083561,5.85605524 L13.8105122,5.90875936 L13.8105122,7.43936076 C13.8105122,7.65156289 13.706012,7.84888568 13.5333479,7.96839304 L13.4887828,7.99661231 L12.5726262,8.52515564 L12.5726262,9.20947392 L15.1009913,10.6695349 C15.3809571,10.8311733 15.5601419,11.1213256 15.5814463,11.4410932 L15.5835853,11.5054122 L15.5833693,14.4243846 L16.1763165,14.7667046 L17.0922999,14.238087 C17.2747962,14.1327227 17.4961118,14.1239424 17.6850779,14.2117459 L17.7357586,14.238087 L19.0612983,15.0033877 C19.2450707,15.1094888 19.3637072,15.2986499 19.3808715,15.5079351 L19.3830276,15.5606392 L19.3830276,17.0912406 C19.3830276,17.3034428 19.2785275,17.5007656 19.1058634,17.6202729 L19.0612983,17.6484922 L17.7357586,18.4137929 C17.5532623,18.5191571 17.3319467,18.5279375 17.1429806,18.4401339 L17.0922999,18.4137929 L15.7667602,17.6484922 C15.5829878,17.5423911 15.4643513,17.3532299 15.447187,17.1439448 L15.4450309,17.0912406 L15.4450257,16.033353 L14.8520785,15.691033 L12.3241078,17.1509928 C12.0453863,17.3119127 11.706299,17.3226407 11.4195287,17.1831768 L11.3589198,17.1509928 L8.83059242,15.691033 L8.23796699,16.033353 L8.23799671,17.0912406 C8.23799671,17.3211263 8.11535418,17.5335494 7.91626738,17.6484922 L6.59072768,18.4137929 C6.39164088,18.5287357 6.14635583,18.5287357 5.94726903,18.4137929 L4.62172933,17.6484922 C4.42264253,17.5335494 4.3,17.3211263 4.3,17.0912406 L4.3,15.5606392 C4.3,15.3307536 4.42264253,15.1183305 4.62172933,15.0033877 L5.94726903,14.238087 C6.14635583,14.1231442 6.39164088,14.1231442 6.59072768,14.238087 L7.50667623,14.7667046 L8.09930165,14.4243846 L8.09944235,11.5054122 C8.09944235,11.1821356 8.26112928,10.8818808 8.52740385,10.7035468 L8.58203634,10.6695349 L11.1100447,9.20947392 L11.1100447,8.52515564 L10.1942448,7.99661231 C10.0104723,7.89051124 9.89183586,7.70135007 9.8746715,7.49206489 L9.87251545,7.43936076 L9.87251545,5.90875936 C9.87251545,5.69655723 9.97701559,5.49923444 10.1496797,5.37972708 L10.1942448,5.35150781 L11.5197845,4.58620711 Z M17.4140292,15.7409775 L16.9074369,16.0334587 L16.9074369,16.6184211 L17.4140292,16.9109024 L17.9206216,16.6184211 L17.9206216,16.0334587 L17.4140292,15.7409775 Z M6.26899836,15.7409775 L5.76240604,16.0334587 L5.76240604,16.6184211 L6.26899836,16.9109024 L6.77559067,16.6184211 L6.77559067,16.0334587 L6.26899836,15.7409775 Z M11.8415138,10.4763158 L9.56184839,11.7924812 L9.56184839,14.4248121 L11.8415138,15.7409775 L14.1211792,14.4248121 L14.1211792,11.7924812 L11.8415138,10.4763158 Z M11.8415138,6.08909764 L11.3349215,6.38157885 L11.3349215,6.96654127 L11.8415138,7.25902248 L12.3481061,6.96654127 L12.3481061,6.38157885 L11.8415138,6.08909764 Z" id="形状" fill="url(#linearGradient-1)" fill-rule="nonzero"></path>
    </g>
</svg>