<?xml version="1.0" encoding="UTF-8"?>
<svg width="24px" height="24px" viewBox="0 0 24 24" version="1.1" xmlns="http://www.w3.org/2000/svg" xmlns:xlink="http://www.w3.org/1999/xlink">
    <title>管理</title>
    <defs>
        <linearGradient x1="50%" y1="0%" x2="50%" y2="100%" id="linearGradient-1">
            <stop stop-color="#FFFFFF" stop-opacity="0.8" offset="0%"></stop>
            <stop stop-color="#FFFFFF" stop-opacity="0.96" offset="100%"></stop>
        </linearGradient>
    </defs>
    <g id="页面-1" stroke="none" stroke-width="1" fill="none" fill-rule="evenodd">
        <path d="M18.6528981,6.45922824 L12.187,4.211 L5.6891776,6.47192976 L5.59097124,6.52014833 C5.39966837,6.63026607 5.26495685,6.81630019 5.2184592,7.02492195 L5.20270793,7.13086823 L5.19997889,7.19672058 L5.19997889,14.0142094 L5.20193029,14.1594466 L5.21268371,14.3579246 C5.37019914,16.3598022 7.03298156,17.9499291 10.2821454,19.1413769 L10.6123527,19.2591932 L12.185,19.789 L13.7667343,19.2585772 L14.0969981,19.1405898 C17.2781586,17.9726539 18.9376654,16.4270928 19.152616,14.4957203 L19.1697024,14.2945465 L19.1748672,14.1809484 L19.1772803,14.0307837 L19.1772803,7.16669731 L19.1636413,7.0507843 C19.1257732,6.85020392 19.0112547,6.67185967 18.8595545,6.56246651 L18.7807887,6.51373213 L18.7308389,6.48969663 L18.6528981,6.45922824 Z M12.1886922,14.9697181 C13.3665893,14.9697181 14.4093437,15.6794789 14.8565856,16.7376714 L14.9221868,16.9075973 L14.9819174,17.078066 L14.6725279,17.2231684 L14.3640551,17.3587896 L14.0960691,17.4695997 L13.8142637,17.5800004 L13.519546,17.6895421 L13.068492,17.8469872 L12.2513337,18.1214184 L12.1236262,18.1212962 L11.079044,17.7682264 L10.7513515,17.6506685 C10.4261164,17.530683 10.1212678,17.4079657 9.83652819,17.2822894 L9.55848127,17.1556184 L9.39526923,17.0788288 L9.45485341,16.9085804 C9.85801573,15.7566345 10.9484228,14.9697181 12.1886922,14.9697181 Z M12.1223775,5.88776169 L12.2537054,5.88776169 L17.6159342,7.75166565 L17.6152136,14.0630021 L17.6114938,14.1633793 L17.5933854,14.3448758 C17.5064665,14.9606933 17.1707197,15.5228871 16.5967503,16.0353121 L16.4174234,16.1875504 L16.2153005,16.3509734 L16.1091242,16.1137239 C15.4229795,14.5805428 13.8978694,13.572571 12.1886922,13.572571 C10.5526671,13.572571 9.08580638,14.4960249 8.3621228,15.9198459 L8.26809905,16.117065 L8.16207206,16.3547886 L7.95967869,16.1911086 C7.25943899,15.6248094 6.86098904,14.9972955 6.77790905,14.3021717 L6.76371711,14.1269785 L6.76169722,14.0307936 L6.76169722,7.75100995 L12.1223775,5.88776169 Z M12.1472704,10.3096835 C11.4293002,10.3096835 10.8472704,10.8917133 10.8472704,11.6096835 C10.8472704,12.3276537 11.4293002,12.9096835 12.1472704,12.9096835 C12.8652406,12.9096835 13.4472704,12.3276537 13.4472704,11.6096835 C13.4472704,10.8917133 12.8652406,10.3096835 12.1472704,10.3096835 Z" id="形状结合" fill="url(#linearGradient-1)" fill-rule="nonzero"></path>
    </g>
</svg>