<svg width="120" height="100" viewBox="0 0 120 100" xmlns="http://www.w3.org/2000/svg" xmlns:xlink="http://www.w3.org/1999/xlink"><defs><path d="M7.372-.002c1.158 0 2.232.512 3.117 1.384.107.104.213.216.315.332.022.028.047.055.07.082 1.2 1.418 1.964 3.546 1.964 5.922 0 4.265-2.45 7.73-5.466 7.73h-1.68c3.016 0 5.465-3.465 5.465-7.73 0-2.376-.763-4.504-1.963-5.922-.023-.027-.048-.054-.07-.082a5.62 5.62 0 0 0-.316-.332C7.924.51 6.848-.002 5.692-.002h1.68z" id="b"/><filter x="-63%" y="-29.1%" width="225.9%" height="158.3%" filterUnits="objectBoundingBox" id="a"><feOffset in="SourceAlpha" result="shadowOffsetOuter1"/><feGaussianBlur stdDeviation="1.5" in="shadowOffsetOuter1" result="shadowBlurOuter1"/><feColorMatrix values="0 0 0 0 0.822129875 0 0 0 0 0.849562517 0 0 0 0 0.959293089 0 0 0 1 0" in="shadowBlurOuter1"/></filter><linearGradient x1="61.747%" y1="18.247%" x2="-102.504%" y2="276.632%" id="c"><stop stop-color="#F8F7FF" offset="0%"/><stop stop-color="#FCFCFF" offset="100%"/></linearGradient><linearGradient x1="21.833%" y1="0%" x2="91.878%" y2="119.354%" id="d"><stop stop-color="#66E4D5" offset="0%"/><stop stop-color="#36C5AB" offset="100%"/></linearGradient><linearGradient x1="6.816%" y1="36.794%" x2="68.287%" y2="57.646%" id="e"><stop stop-color="#A38DCD" offset="0%"/><stop stop-color="#6A549E" offset="100%"/></linearGradient><linearGradient x1="-16.214%" y1="50%" y2="50%" id="f"><stop stop-color="#F2F0FF" stop-opacity=".2" offset="0%"/><stop stop-color="#A8A0FB" stop-opacity=".5" offset="100%"/></linearGradient><linearGradient x1="83.85%" y1="38.535%" x2="-45.217%" y2="74.984%" id="g"><stop stop-color="#F9F8FF" offset="0%"/><stop stop-color="#DCD8FF" offset="100%"/></linearGradient><path d="M4.256 0c.7 0 1.349.322 1.884.87.065.066.129.137.19.21.014.017.03.034.043.052.725.891 1.187 2.23 1.187 3.725 0 2.684-1.48 4.863-3.304 4.863H3.24c1.824 0 3.304-2.18 3.304-4.863 0-1.494-.461-2.834-1.187-3.725-.013-.018-.028-.035-.042-.052a3.481 3.481 0 0 0-.191-.21C4.59.323 3.94 0 3.24 0h1.016z" id="i"/><filter x="-104.2%" y="-46.3%" width="308.3%" height="192.6%" filterUnits="objectBoundingBox" id="h"><feOffset in="SourceAlpha" result="shadowOffsetOuter1"/><feGaussianBlur stdDeviation="1.5" in="shadowOffsetOuter1" result="shadowBlurOuter1"/><feColorMatrix values="0 0 0 0 0.822129875 0 0 0 0 0.849562517 0 0 0 0 0.959293089 0 0 0 1 0" in="shadowBlurOuter1"/></filter><linearGradient x1="60.444%" y1="18.247%" x2="-12.51%" y2="74.984%" id="j"><stop stop-color="#F6F5FF" offset="0%"/><stop stop-color="#E9E8F6" offset="100%"/></linearGradient><linearGradient x1="21.833%" y1="0%" x2="91.878%" y2="119.354%" id="k"><stop stop-color="#66E4D5" offset="0%"/><stop stop-color="#36C5AB" offset="100%"/></linearGradient></defs><g fill="none" fill-rule="evenodd"><path d="M114.817 34.69l.023.085.02.085c.008.029.014.058.02.087l.018.087a4.723 4.723 0 0 1 .076.514 5.304 5.304 0 0 1 .026.541V63.91a5.192 5.192 0 0 1-.023.513l-.007.063-.006.062-.007.061-.008.062a4.94 4.94 0 0 1-.2.868c-.09.271-.202.525-.334.759a3.72 3.72 0 0 1-.45.636 3.284 3.284 0 0 1-.918.725 2.952 2.952 0 0 1-1.047.321l-.097.01a5.733 5.733 0 0 1-.195.01h-.099l-.1-.003a3.357 3.357 0 0 1-.554-.071 3.443 3.443 0 0 1-.154-.036l-16.598-4.27a1.79 1.79 0 0 1-.46-.19 2.367 2.367 0 0 1-.42-.315 3.208 3.208 0 0 1-.375-.422 4.01 4.01 0 0 1-.393-.648 5.854 5.854 0 0 1-.192-.443l-.028-.077-.027-.077-.027-.08a5.713 5.713 0 0 1-.26-1.305l-.004-.043-.003-.044a8.734 8.734 0 0 1-.007-.134l-.004-.089-.002-.09-.001-.09V40.427c0-.481.06-.952.167-1.392.107-.442.264-.855.46-1.219.196-.367.431-.684.696-.93.267-.25.564-.426.88-.508L110.8 32.11a3.453 3.453 0 0 1 .907-.11l.098.003a5.734 5.734 0 0 1 .194.017c.032.004.064.007.096.013.032.004.064.01.095.015a3.032 3.032 0 0 1 .616.181l.071.032c.024.01.048.02.071.032a1.749 1.749 0 0 1 .223.118 2.626 2.626 0 0 1 .164.102l.08.055a2.245 2.245 0 0 1 .193.151l.093.082.09.086.049.047.047.049.046.05.046.05.074.091c.023.027.043.053.061.077l.052.068c.016.02.03.042.046.063l.038.056.037.056c.014.018.026.038.038.057l.036.058a3.943 3.943 0 0 1 .26.512 4.585 4.585 0 0 1 .195.57" stroke-opacity=".2" stroke="#A8A0FB" stroke-width=".2" fill-opacity=".08" fill="#CACAF1" stroke-linecap="square"/><path d="M104.793 32.99c.01.03.017.062.026.093l.023.095c.008.032.016.064.022.096.007.032.015.064.02.097a5.166 5.166 0 0 1 .086.57 5.794 5.794 0 0 1 .03.602v30.913a5.671 5.671 0 0 1-.015.43 5.175 5.175 0 0 1-.011.14l-.007.069-.007.07-.009.068-.01.068a5.41 5.41 0 0 1-.224.964 4.702 4.702 0 0 1-.378.844c-.149.26-.32.496-.51.707a3.69 3.69 0 0 1-1.037.805 3.362 3.362 0 0 1-1.075.342l-.108.015-.11.01a6.592 6.592 0 0 1-.22.011l-.112.001-.112-.003a3.86 3.86 0 0 1-.628-.08 3.949 3.949 0 0 1-.173-.04L81.49 65.135a2.043 2.043 0 0 1-.52-.212 2.672 2.672 0 0 1-.474-.35 3.586 3.586 0 0 1-.424-.469 4.444 4.444 0 0 1-.364-.566 6.454 6.454 0 0 1-.298-.646l-.031-.085-.031-.086-.03-.088c-.01-.03-.02-.059-.028-.089a6.263 6.263 0 0 1-.266-1.36l-.005-.05-.003-.05a9.54 9.54 0 0 1-.009-.147l-.004-.1-.002-.1-.001-.099V39.363c0-.534.067-1.057.189-1.546.121-.491.298-.95.519-1.355.222-.407.488-.76.788-1.034.302-.277.638-.473.994-.563l18.764-4.743a3.96 3.96 0 0 1 1.025-.122l.11.004a6.592 6.592 0 0 1 .22.018c.036.004.072.008.108.014l.107.017a3.48 3.48 0 0 1 .696.202l.082.034.08.036.08.038.078.04a4.858 4.858 0 0 1 .187.108l.092.059.09.06a2.535 2.535 0 0 1 .219.169l.105.09.102.097.054.052.054.054.052.055.052.057.084.1.069.086c.021.026.04.05.058.075l.052.07.043.062c.015.02.029.041.043.063l.042.063.04.064a4.36 4.36 0 0 1 .294.57 5.04 5.04 0 0 1 .221.633" stroke-opacity=".2" stroke="#A8A0FB" stroke-width=".2" fill-opacity=".1" fill="#CACAF1" stroke-linecap="square"/><path d="M90.746 27.036c.011.042.02.084.03.127l.03.127c.01.043.019.086.027.13a7.59 7.59 0 0 1 .13.902 8.568 8.568 0 0 1 .037.812v41.732a8.397 8.397 0 0 1-.018.58 7.65 7.65 0 0 1-.014.189l-.01.093-.008.094-.01.092-.012.093a7.902 7.902 0 0 1-.277 1.301 6.669 6.669 0 0 1-.464 1.14c-.184.35-.394.668-.628.954a4.71 4.71 0 0 1-1.101.983 4.957 4.957 0 0 1-.355.199 4.058 4.058 0 0 1-1.011.344 3.369 3.369 0 0 1-.266.042l-.134.014-.136.01-.136.005-.137.001-.139-.004a4.336 4.336 0 0 1-.772-.108 4.498 4.498 0 0 1-.213-.053L62.065 70.43a2.395 2.395 0 0 1-.64-.287 3.325 3.325 0 0 1-.584-.472 4.715 4.715 0 0 1-.522-.633 6.099 6.099 0 0 1-.548-.972 9.11 9.11 0 0 1-.266-.664l-.039-.115-.038-.117-.037-.118a9.098 9.098 0 0 1-.368-2.023l-.003-.067-.005-.067a7.409 7.409 0 0 1-.006-.132l-.005-.134-.002-.135L59 64.36V35.64c0-.721.082-1.427.232-2.087.15-.663.367-1.283.64-1.829.273-.55.6-1.026.969-1.396.371-.374.785-.639 1.224-.76l23.094-6.403a4.514 4.514 0 0 1 .985-.16A5.374 5.374 0 0 1 86.42 23l.136.004a7.407 7.407 0 0 1 .27.024c.045.007.09.012.133.02.045.006.09.015.132.022a3.953 3.953 0 0 1 .857.273l.1.047a5.783 5.783 0 0 1 .197.1 5.845 5.845 0 0 1 .327.2 3.703 3.703 0 0 1 .223.16 4.81 4.81 0 0 1 .525.479l.067.071.065.073.065.075.063.076c.04.05.073.095.104.136l.085.115.072.102.064.095.053.084c.018.027.035.055.052.084l.052.085.05.087a6.069 6.069 0 0 1 .361.769 7.217 7.217 0 0 1 .273.854" stroke-opacity=".2" stroke="#A8A0FB" stroke-width=".2" fill-opacity=".15" fill="#CACAF1" stroke-linecap="square"/><g transform="translate(71 30)"><use fill="#000" filter="url(#a)" xlink:href="#b"/><use fill="#D8D5F6" xlink:href="#b"/></g><path d="M1.21 12.126C.594 10.874.233 9.356.233 7.718c0-1.996.538-3.816 1.42-5.187a7.14 7.14 0 0 1 .37-.525C2.994.76 4.282-.002 5.692-.002c1.158 0 2.232.512 3.117 1.383.107.106.213.217.315.333.024.028.048.054.071.083 1.2 1.416 1.963 3.545 1.963 5.92 0 4.267-2.448 7.731-5.466 7.731-1.68 0-3.185-1.08-4.188-2.776l-.057-.101a8.28 8.28 0 0 1-.236-.445" fill="url(#c)" transform="translate(71 30)"/><path d="M3.84 6.068a.427.427 0 0 0-.089.132.578.578 0 0 0-.045.167l-.002.066.002.063v.378l.284-.005.05.003.045-.004 2.861-.047a.088.088 0 0 1 .07.035.146.146 0 0 1 .03.086v.616c0 .102-.017.2-.047.288a.768.768 0 0 1-.13.234.598.598 0 0 1-.188.156.48.48 0 0 1-.229.055l-2.746-.045v.38l-.002.067v.03l.002.033a.632.632 0 0 0 .076.226.363.363 0 0 0 .018.025l.017.023.02.022.03.028c.01.008.02.017.032.023a.365.365 0 0 0 .07.035.254.254 0 0 0 .017.004l.018.004.017.002.019.001a.35.35 0 0 0 .055-.003.222.222 0 0 0 .019-.003l3.364.126a.534.534 0 0 1 .24.068c.074.04.141.098.198.169.056.07.103.154.135.245.031.092.049.192.049.297v.633a.127.127 0 0 1-.032.087.103.103 0 0 1-.033.025.08.08 0 0 1-.04.007l-3.955-.277a1.167 1.167 0 0 1-.334-.078 1.291 1.291 0 0 1-.34-.205c-.104-.087-.199-.19-.282-.308a1.976 1.976 0 0 1-.213-.389A2.277 2.277 0 0 1 2.7 8.66v-2.2c0-.037 0-.074.002-.111.002-.036.004-.073.008-.109a2.562 2.562 0 0 1 .028-.212c.03-.16.075-.311.133-.453.058-.141.13-.272.213-.39.083-.117.178-.22.282-.306a1.26 1.26 0 0 1 .504-.256.987.987 0 0 1 .17-.026l3.956-.277a.094.094 0 0 1 .073.032.131.131 0 0 1 .032.087l-.001.63a.919.919 0 0 1-.05.297.84.84 0 0 1-.134.247.67.67 0 0 1-.198.17.535.535 0 0 1-.24.068l-3.488.13a.263.263 0 0 0-.117.057.338.338 0 0 0-.034.03" fill="url(#d)" transform="translate(71 30)"/><path d="M75.728 22.933l.035.151c.012.051.024.103.034.154.01.052.021.103.03.155a8.767 8.767 0 0 1 .128.914 10.541 10.541 0 0 1 .045.963v49.46a9.678 9.678 0 0 1-.022.687c-.005.075-.01.15-.017.225l-.011.11-.01.112-.013.108-.014.11a9.143 9.143 0 0 1-.338 1.543 7.781 7.781 0 0 1-.566 1.35c-.224.415-.48.792-.765 1.13a5.67 5.67 0 0 1-1.342 1.166 6.082 6.082 0 0 1-.433.236 5.034 5.034 0 0 1-1.233.408c-.052.01-.106.018-.161.026-.053.01-.108.017-.162.023l-.164.017-.165.012c-.056.003-.11.005-.166.005-.056.002-.112.002-.167.002l-.17-.005a5.432 5.432 0 0 1-.68-.076 5.61 5.61 0 0 1-.52-.115l-28.146-7.59a2.96 2.96 0 0 1-.779-.34 4.034 4.034 0 0 1-.713-.56 5.625 5.625 0 0 1-.635-.75 7.185 7.185 0 0 1-.668-1.152c-.039-.083-.077-.17-.114-.255a10.158 10.158 0 0 1-.21-.532l-.048-.136-.046-.138-.045-.14a10.544 10.544 0 0 1-.442-2.32l-.006-.078-.005-.079a16.267 16.267 0 0 1-.013-.237c-.003-.052-.005-.105-.006-.158l-.003-.16-.002-.16V32.981c0-.855.1-1.692.283-2.474a9.45 9.45 0 0 1 .779-2.167c.333-.653.732-1.217 1.181-1.655.453-.443.957-.757 1.492-.902l28.146-7.587A5.629 5.629 0 0 1 70.25 18h.167l.166.006a9.278 9.278 0 0 1 .33.029c.053.007.108.013.161.023.055.007.109.017.161.026a4.935 4.935 0 0 1 1.045.324l.121.055a7.135 7.135 0 0 1 .24.118 7.166 7.166 0 0 1 .4.237 4.516 4.516 0 0 1 .27.191 5.817 5.817 0 0 1 .64.567l.082.084.08.087.079.088c.025.03.05.06.077.09l.126.162.104.136.087.121.078.113.065.099c.022.032.043.065.063.1.023.032.043.067.063.1l.062.104a7.976 7.976 0 0 1 .772 1.923c.014.05.025.1.038.15z" stroke-opacity=".2" stroke="#A8A0FB" stroke-width=".2" fill-opacity=".15" fill="#CACAF1" stroke-linecap="square"/><g><path d="M57.215 79.914a11.506 11.506 0 0 1-.013.567 10.859 10.859 0 0 1-.049.69l-.014.137-.007.067-.008.067-.017.134c-.089.667-.231 1.303-.42 1.9a9.619 9.619 0 0 1-.706 1.665c-.277.51-.596.978-.952 1.396a7.175 7.175 0 0 1-1.413 1.277 6.046 6.046 0 0 1-.798.462c-.054.027-.109.051-.163.077l-.166.071-.166.067-.169.063-3.153 1.104.072-.028a4.238 4.238 0 0 0 .335-.14 5.12 5.12 0 0 0 .439-.22 7.655 7.655 0 0 0 .53-.326 7.1 7.1 0 0 0 1.424-1.305c.359-.428.68-.906.962-1.431.281-.526.52-1.099.712-1.71.19-.614.334-1.267.424-1.954l.018-.139.015-.137.028-.28c.008-.095.015-.19.02-.285a11.59 11.59 0 0 0 .029-.871V18.205a13.236 13.236 0 0 0-.218-2.376l-.038-.196-.042-.194-.044-.193-.048-.19a11.337 11.337 0 0 0-.418-1.282 10.138 10.138 0 0 0-.552-1.153l-.078-.13-.038-.065-.12-.19-.083-.125c-.031-.048-.063-.095-.098-.143a5.692 5.692 0 0 0-.239-.326l-.158-.203a8.468 8.468 0 0 1-.097-.115l-.1-.112-.1-.109-.102-.107a10.07 10.07 0 0 0-.193-.194 7.325 7.325 0 0 0-.611-.524c-.055-.042-.112-.083-.17-.124l-.085-.06-.087-.058c-.057-.04-.116-.076-.175-.113l-.178-.106a6.019 6.019 0 0 0-.148-.082l-.15-.077-.151-.072-.153-.069-.056-.024-.056-.024-.11-.045-.058-.022-.035-.014 1.491.522 1.625.57c.038.015.075.027.113.041.037.014.075.028.112.044l.112.044.108.047.153.068.15.073.148.074.147.08c.06.035.12.07.177.106l.175.11.17.116.169.121a7.06 7.06 0 0 1 .795.703l.102.105.099.107.098.11c.034.037.065.074.097.111l.158.2c.047.06.09.115.129.168.04.052.074.1.108.15.034.046.066.092.097.14l.041.06.04.06c.028.041.053.082.08.124.026.04.053.083.077.125.027.042.051.084.077.127a8.967 8.967 0 0 1 .547 1.123c.082.199.155.401.225.61.069.208.132.421.19.638l.047.185.044.186.041.19a11.72 11.72 0 0 1 .198 1.315 13.506 13.506 0 0 1 .055 1.183v60.79z" fill="#AC9AD4"/><path d="M48.62 6.057c.017.063.03.126.047.19l.044.191c.015.064.03.13.042.195.013.065.027.13.038.196a11.179 11.179 0 0 1 .162 1.157 13.449 13.449 0 0 1 .056 1.219v62.627a12.348 12.348 0 0 1-.013.584 21.368 21.368 0 0 1-.036.571l-.014.14-.013.141c-.006.046-.01.092-.017.138l-.017.139c-.09.687-.233 1.339-.425 1.953a9.894 9.894 0 0 1-.711 1.71 8.388 8.388 0 0 1-.961 1.432 7.15 7.15 0 0 1-1.687 1.475 7.628 7.628 0 0 1-.543.299 6.295 6.295 0 0 1-1.549.517 5.257 5.257 0 0 1-.203.033 3.862 3.862 0 0 1-.203.03c-.07.006-.138.015-.207.02l-.207.016a6.24 6.24 0 0 1-.21.007l-.21.001-.211-.006a6.775 6.775 0 0 1-.856-.096 7.006 7.006 0 0 1-.653-.146l-35.37-9.61a3.705 3.705 0 0 1-.978-.43 5.076 5.076 0 0 1-.896-.71 7.11 7.11 0 0 1-.799-.949 9.112 9.112 0 0 1-.686-1.146 12.933 12.933 0 0 1-.152-.313 13.53 13.53 0 0 1-.144-.323 12.924 12.924 0 0 1-.265-.673l-.06-.172-.057-.175a8.071 8.071 0 0 1-.11-.357 13.432 13.432 0 0 1-.502-2.758c-.002-.032-.004-.065-.008-.099-.002-.034-.005-.066-.006-.1a10.897 10.897 0 0 1-.016-.3c-.004-.066-.006-.134-.008-.2-.001-.068-.004-.136-.004-.204L0 62.07V18.969c0-1.083.126-2.142.356-3.132.228-.995.562-1.926.978-2.744.42-.826.92-1.541 1.485-2.095.57-.561 1.203-.96 1.875-1.142L40.062.248a7.029 7.029 0 0 1 1.51-.241A8.398 8.398 0 0 1 41.994 0l.209.007a11.572 11.572 0 0 1 .414.036c.067.01.136.018.203.03.069.009.136.021.203.033a6.16 6.16 0 0 1 1.312.41l.153.07a8.936 8.936 0 0 1 .3.149c.05.025.1.053.149.081a8.99 8.99 0 0 1 .353.218 5.673 5.673 0 0 1 .342.243 7.325 7.325 0 0 1 .611.525c.065.063.128.127.193.194l.102.106c.033.036.067.072.1.11l.1.111c.031.039.064.076.096.115.06.074.111.142.16.204l.13.172.11.153.097.144.082.124c.027.041.054.083.08.126.027.042.053.086.079.129.025.043.05.087.077.13a10.138 10.138 0 0 1 .97 2.435" fill="url(#e)" transform="translate(5 9)"/><path d="M30.376 35.992a12.708 12.708 0 0 1-.877 2.979c-.395.9-.884 1.706-1.452 2.392a7.72 7.72 0 0 1-1.893 1.672 6.166 6.166 0 0 1-2.201.84l-4.097.697a6.013 6.013 0 0 0 2.207-.857 7.703 7.703 0 0 0 1.898-1.716 10.446 10.446 0 0 0 1.459-2.464c.398-.935.697-1.967.88-3.075l4.076-.468zM12.98 24.564v2.672l-2.684.103c-.17.064-.332.148-.488.25a3.366 3.366 0 0 0-.947.981c-.265.41-.48.895-.626 1.433a6.687 6.687 0 0 0-.227 1.758c0 .63.081 1.236.23 1.798.147.565.363 1.084.63 1.535.27.454.592.84.952 1.133.35.282.733.478 1.14.565h.005l.022.005.323.04 10.714 1.246-3.461.64-.638-.133-10.667-1.319-.374-.04.03-.004-.011-.003a.073.073 0 0 1-.019-.003.095.095 0 0 1-.021-.005c-.008 0-.016-.003-.023-.004l.006-.002-.098-.023a2.728 2.728 0 0 1-1.005-.553 4.374 4.374 0 0 1-.947-1.165 6.383 6.383 0 0 1-.629-1.581 7.546 7.546 0 0 1-.227-1.85c0-.644.08-1.254.225-1.805.147-.555.36-1.052.624-1.473a3.38 3.38 0 0 1 .943-1.008 2.244 2.244 0 0 1 1.183-.402l1.976-.074v-2.633l4.089-.079zm18.389-5.825l4.046.104.065.205c.731.271 1.416.678 2.035 1.199a8.328 8.328 0 0 1 1.646 1.898c.47.737.849 1.565 1.117 2.459.231.767.38 1.583.436 2.429l.02.425.009.32v.094l-.001-.047-.01.464-.011.198-.031.38-.064.524-.064.382-.098.468-.062.249-.139.483-.14.415-.179.452-.18.396-.248.478-.23.388-.287.425-.049.067.008-.012-.174.23-.169.207-.246.275-.253.255-.121.115-.252.221-.343.269-.239.166-.155.1-.305.177-.103.055-.226.112-.334.145a5.592 5.592 0 0 1-.69.224l-.178.042-.243.048a5.522 5.522 0 0 1-.293.044l-4.052.49.394-.061.266-.059.28-.077.12-.038.198-.071.213-.081.144-.063.18-.085.166-.083c.135-.072.268-.148.398-.23l.253-.167.27-.2.204-.164.31-.276.108-.106c.303-.298.585-.63.844-.99a8.896 8.896 0 0 0 .917-1.612l.19-.465c.08-.207.152-.418.218-.633l.14-.501.085-.355.082-.417.04-.23.042-.298.053-.49.012-.15.017-.273.013-.426.002-.168-.011-.331a11.592 11.592 0 0 0-.459-2.956 10.36 10.36 0 0 0-1.128-2.545 8.617 8.617 0 0 0-1.658-1.965 6.884 6.884 0 0 0-2.051-1.24l-.065-.212zm-6.722.604l.032.001 4.082.08h-.064a1.811 1.811 0 0 0-.841.224 2.31 2.31 0 0 0-.697.581c-.202.246-.371.536-.494.862-.1.258-.172.54-.212.836l-.024.225-.201 2.698-3.522.081a1.787 1.787 0 0 0-.59.529c-.148.206-.268.45-.35.722a3.115 3.115 0 0 0 .005 1.784c.086.28.21.536.363.751.154.22.338.399.541.529.164.102.342.173.528.204l.14.015 10.082.544-4.06.276-10.119-.58a1.371 1.371 0 0 1-.669-.228 1.991 1.991 0 0 1-.543-.544 2.793 2.793 0 0 1-.362-.777 3.285 3.285 0 0 1-.133-.93c0-.325.045-.632.128-.91a2.56 2.56 0 0 1 .35-.743 1.77 1.77 0 0 1 .525-.506c.197-.12.418-.19.649-.197l2.956-.066.192-2.642c.028-.392.11-.76.236-1.097.124-.335.292-.635.495-.89.201-.253.438-.456.698-.6.262-.144.546-.226.845-.23h.017l.017-.002zm-12.274.22l4.097.066h-.081c-.467.008-.91.146-1.312.39-.4.245-.758.592-1.063 1.018a5.29 5.29 0 0 0-.725 1.486 6.674 6.674 0 0 0-.302 1.816h-.001l-.007.225-4.088.078.007-.23 2.026-.037-2.026.037a7.112 7.112 0 0 1 .3-1.87 5.569 5.569 0 0 1 .725-1.53c.302-.44.66-.796 1.06-1.046.4-.251.842-.394 1.309-.404h.081zm-6.186-5.188l4.08.209a3.576 3.576 0 0 0-1.196.822 5.345 5.345 0 0 0-.926 1.31 7.21 7.21 0 0 0-.601 1.672 8.487 8.487 0 0 0-.18 2.687c.022.253.056.501.1.743a7.814 7.814 0 0 0 .377 1.375l-4.067.036a7.71 7.71 0 0 1-.215-.685 8.142 8.142 0 0 1-.16-.727 9.86 9.86 0 0 1-.1-.763 9.238 9.238 0 0 1-.033-.794c0-.686.073-1.35.212-1.97.14-.621.34-1.2.598-1.718a5.48 5.48 0 0 1 .923-1.349 3.555 3.555 0 0 1 1.188-.848zm8.069-14.3l4.1.64a6.65 6.65 0 0 1 2.289.819A8.4 8.4 0 0 1 22.678 3.2c.624.69 1.181 1.508 1.651 2.43.473.929.86 1.963 1.137 3.083l.08.325.312.294c.33.23.647.49.95.776a9.8 9.8 0 0 1 .867.939c.276.339.535.701.775 1.083.243.382.465.785.67 1.205l.25.019c.659.046 1.297.21 1.9.483.61.274 1.184.655 1.709 1.13a8.251 8.251 0 0 1 1.416 1.7 9.852 9.852 0 0 1 1.02 2.176l-4.046-.104a10.32 10.32 0 0 0-1.029-2.25 8.41 8.41 0 0 0-1.424-1.754 6.543 6.543 0 0 0-1.717-1.166 5.478 5.478 0 0 0-1.71-.478l-.446-.029a12.97 12.97 0 0 0-.677-1.25 11.672 11.672 0 0 0-.777-1.117c-.275-.347-.566-.67-.87-.966a8.593 8.593 0 0 0-.954-.8l-.312-.303-.081-.334a15.119 15.119 0 0 0-1.139-3.179 11.557 11.557 0 0 0-1.654-2.499A8.413 8.413 0 0 0 16.545.906a6.472 6.472 0 0 0-2.289-.832zm-1.359 13.764l4.098.234a5.41 5.41 0 0 1 1.672.37 6.425 6.425 0 0 1 1.555.89c.494.38.957.838 1.38 1.365.428.53.813 1.13 1.148 1.787l-4.098-.105a10.668 10.668 0 0 0-1.15-1.843 8.313 8.313 0 0 0-1.381-1.405 6.349 6.349 0 0 0-1.553-.915l-1.671-.378zm-5.596.063l4.084.221-1.118.46-4.079-.209 1.113-.472zm.266-2.024l4.084.278-.039.265-.226 1.703L7.3 13.9l.227-1.752.039-.271zm5.136-6.085a3.808 3.808 0 0 1 .403.022l4.098.469a2.874 2.874 0 0 0-.404-.023c-.069 0-.138.001-.205.006a3.988 3.988 0 0 0-1.868.618c-.512.32-.985.754-1.399 1.278a7.723 7.723 0 0 0-1.053 1.802 9.616 9.616 0 0 0-.623 2.192l-4.084-.28c.125-.805.339-1.565.62-2.257a8.064 8.064 0 0 1 1.05-1.858 5.67 5.67 0 0 1 1.395-1.32 3.927 3.927 0 0 1 1.659-.623c.068-.01.137-.015.206-.019l.205-.007z" fill="url(#f)" opacity=".8" transform="translate(9 27)"/><path d="M29.518 30.294a1.59 1.59 0 0 0 .75-.2c.23-.125.438-.309.611-.535.175-.227.315-.498.412-.798.098-.303.152-.634.152-.983 0-.365-.058-.713-.16-1.032a2.925 2.925 0 0 0-.431-.85 2.142 2.142 0 0 0-.633-.577 1.589 1.589 0 0 0-.764-.224l-2.267-.015-.215-2.908a3.989 3.989 0 0 0-.251-1.13 3.236 3.236 0 0 0-.527-.902 2.344 2.344 0 0 0-.725-.593 1.787 1.787 0 0 0-1.702.028c-.26.143-.496.348-.698.601-.203.254-.371.555-.495.889a3.943 3.943 0 0 0-.236 1.097l-.202 2.783-2.89-.074a1.285 1.285 0 0 0-.67.174 1.75 1.75 0 0 0-.541.502 2.523 2.523 0 0 0-.364.753 3.216 3.216 0 0 0-.133.925c0 .328.047.642.133.93.085.29.21.553.364.779.152.223.337.41.541.543.205.133.431.214.67.228l10.118.58.153.009M3.265 20.259c0 .27.012.534.034.794.023.26.056.516.1.764a8.261 8.261 0 0 0 .376 1.412 5.927 5.927 0 0 1 .694-.545 5.121 5.121 0 0 1 .749-.413l.182-.078.1-.038.019-.147c.176-1.07.46-2.076.834-2.993.377-.923.846-1.757 1.39-2.471.55-.723 1.175-1.327 1.862-1.779a5.538 5.538 0 0 1 2.255-.878l.222-.034.21-.013c.63-.04 1.248.039 1.843.224.6.186 1.18.48 1.724.87a7.985 7.985 0 0 1 1.53 1.462c.472.58.898 1.245 1.263 1.983.107-.299.227-.586.355-.866a9.446 9.446 0 0 1 .895-1.558c.168-.238.347-.465.533-.679a5.256 5.256 0 0 0-.661-.731 4.37 4.37 0 0 0-.76-.557l-.217-.107-1.13-.555-.197-1.67a9.353 9.353 0 0 0-.642-2.516 6.782 6.782 0 0 0-1.181-1.914c-.465-.516-.993-.909-1.562-1.15a3.443 3.443 0 0 0-1.794-.256 3.914 3.914 0 0 0-1.657.622c-.512.332-.984.78-1.396 1.32a8.097 8.097 0 0 0-1.05 1.859c-.282.692-.495 1.45-.62 2.257l-.04.271-.227 1.753-1.113.472a3.58 3.58 0 0 0-1.19.849c-.353.373-.665.829-.922 1.35a7.686 7.686 0 0 0-.599 1.717 9.054 9.054 0 0 0-.212 1.97M18.092 38.61c.364.025.716-.02 1.049-.13.334-.111.65-.286.94-.516a4.02 4.02 0 0 0 .79-.859c.232-.337.431-.722.59-1.148l-2.215-.225c-.828-.083-1.607-.397-2.309-.886-.694-.485-1.314-1.145-1.828-1.931a9.797 9.797 0 0 1-1.205-2.68 11.613 11.613 0 0 1-.435-3.173c0-.547.036-1.079.107-1.593.07-.515.174-1.013.309-1.487.135-.476.301-.929.493-1.356.194-.428.415-.829.66-1.197a4.703 4.703 0 0 0-.557-.788 3.702 3.702 0 0 0-.659-.592 2.869 2.869 0 0 0-.738-.369 2.456 2.456 0 0 0-.793-.12c-.466.01-.908.153-1.309.405a3.69 3.69 0 0 0-1.059 1.047 5.517 5.517 0 0 0-.724 1.53 7.056 7.056 0 0 0-.3 1.87l-.008.23v2.75l-1.924-.044c-.43.006-.837.141-1.203.38-.362.24-.688.582-.958 1.007-.27.42-.487.921-.637 1.48a7.114 7.114 0 0 0-.23 1.823c0 .646.081 1.27.228 1.848.148.58.363 1.115.63 1.58.267.468.588.866.947 1.168.36.303.76.51 1.185.595l.147.019 10.85 1.34.166.022M36.73 27.656l.01.332c0 1.275-.202 2.48-.568 3.568a9.067 9.067 0 0 1-1.54 2.838c-.643.788-1.403 1.41-2.245 1.824a5.54 5.54 0 0 1-2.69.576l-.27-.028-3.127-.305a13.168 13.168 0 0 1-1.067 3.487c-.487 1.034-1.098 1.927-1.803 2.654-.698.717-1.486 1.265-2.334 1.613a5.778 5.778 0 0 1-2.666.42l-.231-.029-.236-.028-10.887-1.827c-.931-.156-1.805-.591-2.589-1.238-.773-.64-1.46-1.488-2.034-2.486a13.39 13.39 0 0 1-1.333-3.353 16.007 16.007 0 0 1-.481-3.913c0-.434.017-.86.05-1.277a14.803 14.803 0 0 1 .386-2.385c.093-.375.203-.74.327-1.09a13.516 13.516 0 0 1-.595-1.498 15.557 15.557 0 0 1-.44-1.63A17.152 17.152 0 0 1 0 20.301c0-1.095.1-2.162.288-3.175.188-1.018.466-1.984.819-2.875.355-.897.79-1.72 1.29-2.445a8.758 8.758 0 0 1 1.708-1.865l.178-.133.085-.067.056-.228a17.293 17.293 0 0 1 1.106-3.3 13.952 13.952 0 0 1 1.652-2.771 10.268 10.268 0 0 1 2.124-2.076C10.089.81 10.93.404 11.819.187l.243-.05.23-.05a6.1 6.1 0 0 1 2.88.202c.935.297 1.817.816 2.62 1.53.81.722 1.535 1.643 2.143 2.728a14.723 14.723 0 0 1 1.437 3.746l.08.334.313.302c.33.238.65.507.953.8.306.297.596.62.87.966.277.35.536.722.778 1.117.244.396.47.815.677 1.25a5.395 5.395 0 0 1 1.983.43c.639.27 1.24.658 1.79 1.151a8.29 8.29 0 0 1 1.485 1.785c.434.69.795 1.466 1.067 2.311l.066.212c.737.28 1.426.702 2.05 1.24a8.562 8.562 0 0 1 1.66 1.965c.472.762.856 1.619 1.127 2.544.273.929.432 1.923.459 2.956" fill="url(#g)" transform="translate(9 27)"/></g><g><g transform="translate(101 57)"><use fill="#000" filter="url(#h)" xlink:href="#i"/><use fill="#D8D5F6" xlink:href="#i"/></g><path d="M.064 4.86c0-1.256.319-2.4.842-3.263.07-.115.143-.226.22-.33C1.7.481 2.465.002 3.3.002c.687 0 1.324.322 1.85.87.063.067.126.137.186.21l.043.052c.71.89 1.164 2.23 1.164 3.725 0 2.684-1.453 4.863-3.243 4.863-.996 0-1.89-.679-2.484-1.746l-.034-.064a5.323 5.323 0 0 1-.14-.28C.278 6.847.063 5.892.063 4.86z" fill="url(#j)" transform="translate(101 57)"/><path d="M1.874 4.055a.34.34 0 0 0-.056.159l-.002.044.002.042v.252l.19-.003.033.001.03-.002 1.907-.031a.059.059 0 0 1 .047.023.098.098 0 0 1 .02.058v.41a.59.59 0 0 1-.032.192.512.512 0 0 1-.086.156.398.398 0 0 1-.126.104.32.32 0 0 1-.152.036l-1.831-.03v.254l-.002.044v.02l.002.022a.421.421 0 0 0 .051.152.242.242 0 0 0 .011.016l.012.015.013.015a.5.5 0 0 0 .02.019l.021.015a.244.244 0 0 0 .047.023.17.17 0 0 0 .012.003c.004 0 .008.002.011.003l.012.001h.013l.012.001h.012a.258.258 0 0 0 .025-.005l2.243.085c.056.002.11.017.16.045.05.027.094.065.132.112a.552.552 0 0 1 .09.164.609.609 0 0 1 .032.198v.422a.085.085 0 0 1-.021.058.069.069 0 0 1-.022.016.053.053 0 0 1-.026.005L2.04 6.985a.778.778 0 0 1-.45-.19 1.075 1.075 0 0 1-.188-.204 1.317 1.317 0 0 1-.142-.26 1.518 1.518 0 0 1-.114-.589V4.276a1.792 1.792 0 0 1 .026-.288c.02-.106.05-.208.088-.302.039-.094.087-.182.142-.26.056-.078.12-.147.189-.204a.84.84 0 0 1 .335-.171.658.658 0 0 1 .114-.017l2.637-.185a.062.062 0 0 1 .048.021.087.087 0 0 1 .021.058v.42c0 .07-.012.137-.033.198a.56.56 0 0 1-.09.165.446.446 0 0 1-.131.114.357.357 0 0 1-.16.045l-2.326.087a.175.175 0 0 0-.078.038.285.285 0 0 0-.055.06z" fill="url(#k)" transform="translate(101 57)"/></g></g></svg>
