<?xml version="1.0" encoding="utf-8"?>
<!-- Generator: Adobe Illustrator 21.1.0, SVG Export Plug-In . SVG Version: 6.00 Build 0)  -->
<svg version="1.1" id="图层_1" xmlns="http://www.w3.org/2000/svg" xmlns:xlink="http://www.w3.org/1999/xlink" x="0px" y="0px"
	 viewBox="0 0 100 80" style="enable-background:new 0 0 100 80;" xml:space="preserve">
<style type="text/css">
	.st0{opacity:0.3;fill:url(#Oval_3_);enable-background:new    ;}
	.st1{fill:url(#Path_40_);}
	.st2{fill:url(#Oval_4_);}
	.st3{fill:url(#Path_41_);}
	.st4{fill:url(#Path_42_);}
	.st5{fill:url(#Path_43_);}
	.st6{opacity:0.7457;fill:none;stroke:#FFFFFF;stroke-width:0.4;stroke-linecap:round;enable-background:new    ;}
	.st7{fill:none;stroke:url(#Path_44_);stroke-width:0.4;stroke-linecap:round;}
	.st8{fill:none;stroke:url(#Path_45_);stroke-width:0.4;stroke-linecap:round;}
	.st9{fill:none;stroke:url(#Path_46_);stroke-width:0.4;stroke-linecap:round;}
	.st10{fill:url(#Path_47_);}
	.st11{opacity:0.7457;fill:#FFFFFF;enable-background:new    ;}
	.st12{fill:url(#Path_48_);}
	.st13{fill:url(#Path_49_);}
	.st14{fill:url(#Path_50_);}
	.st15{fill:url(#Path_51_);}
	.st16{fill:url(#Path_52_);}
	.st17{opacity:0.4;fill:url(#Path_53_);enable-background:new    ;}
	.st18{opacity:0.4;fill:url(#Path_54_);enable-background:new    ;}
	.st19{opacity:0.2;fill:url(#Path_55_);enable-background:new    ;}
	.st20{fill:none;stroke:url(#Oval_5_);stroke-width:0.5;}
	.st21{fill:url(#Path_56_);}
	.st22{fill:url(#Path_57_);}
	.st23{fill:url(#Path_58_);}
	.st24{fill:url(#XMLID_2_);}
	.st25{fill:url(#XMLID_3_);}
	.st26{fill:url(#Path_59_);}
	.st27{fill:url(#Path_60_);}
	.st28{fill:url(#Path_61_);}
	.st29{fill:url(#Path_62_);}
	.st30{fill:url(#Path_63_);}
	.st31{fill:url(#Path_64_);}
	.st32{fill:url(#Path_65_);}
	.st33{fill:url(#XMLID_4_);}
	.st34{fill:url(#XMLID_5_);}
	.st35{fill:url(#XMLID_6_);}
	.st36{fill:url(#Path_66_);}
	.st37{fill:url(#Path_67_);}
	.st38{fill:url(#Path_68_);}
	.st39{opacity:0.734;fill:none;stroke:url(#XMLID_7_);stroke-width:0.5;enable-background:new    ;}
	.st40{opacity:0.734;fill:none;stroke:url(#XMLID_8_);stroke-width:0.5;enable-background:new    ;}
	.st41{opacity:0.4;fill:url(#Path_69_);enable-background:new    ;}
	.st42{opacity:0.8;fill:url(#Path_70_);enable-background:new    ;}
	.st43{opacity:0.6859;fill:url(#Path_71_);enable-background:new    ;}
	.st44{opacity:0.8;fill:url(#Path_72_);enable-background:new    ;}
</style>
<title>Icon/实物类/qyzx</title>
<desc>Created with Sketch.</desc>
<linearGradient id="Oval_3_" gradientUnits="userSpaceOnUse" x1="-174" y1="258.2688" x2="-174" y2="262.5354" gradientTransform="matrix(2 0 0 -2 384.1058 522.9263)">
	<stop  offset="0" style="stop-color:#4C83FF"/>
	<stop  offset="0.4104" style="stop-color:#2AFADF"/>
	<stop  offset="1" style="stop-color:#FFFFFF;stop-opacity:0"/>
</linearGradient>
<circle id="Oval" class="st0" cx="36.1" cy="0.9" r="1"/>
<linearGradient id="Path_40_" gradientUnits="userSpaceOnUse" x1="-343.4742" y1="431.9559" x2="-344.6938" y2="432.2169" gradientTransform="matrix(79.0324 0 0 -42.6348 27243.3164 18479.1875)">
	<stop  offset="0" style="stop-color:#FFFFFF"/>
	<stop  offset="1" style="stop-color:#AB9BE6"/>
</linearGradient>
<path id="Path" class="st1" d="M86,49.3c-0.1-0.2-10.4-11.2-10.4-11.2l-9.7,0c-5-1.2-10.5-1.9-16.3-1.9c-5.6,0-10.9,0.6-15.7,1.8
	l-10.3,0c0,0-11.2,12.2-11.2,12.4C10.8,52.6,10,55,10,57.5c0,11.8,17.7,21.3,39.5,21.3S89,69.3,89,57.5C89,54.6,87.9,51.9,86,49.3z"
	/>
<linearGradient id="Oval_4_" gradientUnits="userSpaceOnUse" x1="-346.4729" y1="430.7659" x2="-341.3755" y2="426.974" gradientTransform="matrix(52.5652 0 0 -27.2692 18019.3457 11698.3086)">
	<stop  offset="0" style="stop-color:#FFFFFF"/>
	<stop  offset="0.7411" style="stop-color:#6443A2"/>
	<stop  offset="1" style="stop-color:#472C87"/>
</linearGradient>
<ellipse id="Oval_1_" class="st2" cx="49.4" cy="45.2" rx="26.3" ry="13.6"/>
<linearGradient id="Path_41_" gradientUnits="userSpaceOnUse" x1="-341.7507" y1="416.7463" x2="-341.7927" y2="416.649" gradientTransform="matrix(52.5652 0 0 -15.1473 18019.3457 6351.6694)">
	<stop  offset="0" style="stop-color:#311563"/>
	<stop  offset="1" style="stop-color:#5722B6"/>
</linearGradient>
<path id="Path_1_" class="st3" d="M49.4,30.8c16.8,0.7,25.6,7.9,26.3,15.1c0-0.2,0-0.4,0-0.6c0-7.5-11.8-13.6-26.3-13.6
	c-14.5,0-26.3,6.1-26.3,13.6c0,0.2,0,0.4,0,0.6C23.8,38.6,32.6,30,49.4,30.8z"/>
<linearGradient id="Path_42_" gradientUnits="userSpaceOnUse" x1="-339.3529" y1="400.0873" x2="-337.8763" y2="399.9145" gradientTransform="matrix(34.7747 0 0 -8.8585 11819.3418 3611.4294)">
	<stop  offset="0" style="stop-color:#C1CAF8"/>
	<stop  offset="1" style="stop-color:#533A88"/>
</linearGradient>
<path id="Path_2_" class="st4" d="M49.8,65.1c-4.2,0-8.2-0.4-11.9-1.2l-6,6.4c5.3,1.5,11.4,2.4,17.9,2.4c6.1,0,11.9-0.8,16.9-2.2
	L61,64C57.5,64.7,53.7,65.1,49.8,65.1z"/>
<linearGradient id="Path_43_" gradientUnits="userSpaceOnUse" x1="-326.2531" y1="403.3152" x2="-326.7596" y2="403.6523" gradientTransform="matrix(15.8618 0 0 -9.6998 5249.8354 3978.7725)">
	<stop  offset="0" style="stop-color:#13C6CC"/>
	<stop  offset="1" style="stop-color:#70D0CE"/>
</linearGradient>
<path id="Path_3_" class="st5" d="M63.1,63.5l6,6.3l0,0c3.8-1.2,7.2-2.9,9.8-4.7l-6.6-5C69.6,61.6,66.5,62.7,63.1,63.5z"/>
<line id="Path_4_" class="st6" x1="67" y1="65.7" x2="68.8" y2="67.6"/>
<linearGradient id="Path_44_" gradientUnits="userSpaceOnUse" x1="-201.607" y1="291.0505" x2="-199.2304" y2="289.534" gradientTransform="matrix(2.3609 0 0 -2.3926 541.9395 759.8301)">
	<stop  offset="0" style="stop-color:#8572FD"/>
	<stop  offset="1" style="stop-color:#6C46FE"/>
</linearGradient>
<line id="Path_5_" class="st7" x1="67" y1="63.7" x2="69.3" y2="66.1"/>
<line id="Path_6_" class="st6" x1="69.3" y1="64.1" x2="71" y2="66.1"/>
<linearGradient id="Path_45_" gradientUnits="userSpaceOnUse" x1="-130.9369" y1="240.1703" x2="-128.9832" y2="238.6538" gradientTransform="matrix(1.5986 0 0 -1.7868 280.2974 493.5533)">
	<stop  offset="0" style="stop-color:#8572FD"/>
	<stop  offset="1" style="stop-color:#6C46FE"/>
</linearGradient>
<line id="Path_7_" class="st8" x1="71.4" y1="64.6" x2="73" y2="66.3"/>
<line id="Path_8_" class="st6" x1="71.6" y1="62.6" x2="74.2" y2="65.4"/>
<linearGradient id="Path_46_" gradientUnits="userSpaceOnUse" x1="-231.8407" y1="302.3148" x2="-229.3998" y2="301.1596" gradientTransform="matrix(2.9667 0 0 -2.5893 758.6595 844.2883)">
	<stop  offset="0" style="stop-color:#8572FD"/>
	<stop  offset="1" style="stop-color:#6C46FE"/>
</linearGradient>
<line id="Path_9_" class="st9" x1="72.3" y1="61.4" x2="75.3" y2="64"/>
<linearGradient id="Path_47_" gradientUnits="userSpaceOnUse" x1="-325.9684" y1="403.5616" x2="-326.4749" y2="403.9112" gradientTransform="matrix(15.671 0 0 -9.7597 5140.5171 4004.8247)">
	<stop  offset="0" style="stop-color:#13C6CC"/>
	<stop  offset="1" style="stop-color:#70D0CE"/>
</linearGradient>
<path id="Path_10_" class="st10" d="M26.9,59.8l-6.5,4.9c2.6,1.9,5.9,3.5,9.7,4.8l6-6.3C32.6,62.4,29.5,61.2,26.9,59.8z"/>
<path id="Path_11_" class="st11" d="M25.5,65.9c-1.2-0.3-1.8-1.4-1.3-2.4c0.5-1.1,1.9-1.7,3.1-1.4c0.2,0,0.3,0.2,0.2,0.3
	s-0.3,0.2-0.4,0.2c-0.9-0.2-1.8,0.2-2.2,1c-0.4,0.8,0.1,1.5,0.9,1.7c0.2,0.1,0.4,0.1,0.7,0c0.2,0,0.3,0.1,0.3,0.2
	c0,0.2-0.1,0.3-0.3,0.3C26.1,66,25.8,66,25.5,65.9z"/>
<linearGradient id="Path_48_" gradientUnits="userSpaceOnUse" x1="-126.0115" y1="318.3745" x2="-125.4492" y2="317.2921" gradientTransform="matrix(1.5652 0 0 -2.9202 224.4104 991.4692)">
	<stop  offset="0" style="stop-color:#724CFF"/>
	<stop  offset="1" style="stop-color:#766BFB"/>
</linearGradient>
<path id="Path_12_" class="st12" d="M27.4,65.5c-0.1,0-0.1,0-0.2-0.1c-0.1-0.1-0.1-0.3,0.1-0.4c0.3-0.2,0.5-0.4,0.6-0.7
	c0.2-0.4,0.2-0.9-0.1-1.3c-0.1-0.1-0.1-0.3,0.1-0.4c0.2-0.1,0.4-0.1,0.5,0c0.4,0.5,0.5,1.2,0.2,1.8c-0.2,0.4-0.5,0.7-0.9,1
	C27.6,65.6,27.5,65.6,27.4,65.5z"/>
<line id="Path_13_" class="st6" x1="30.6" y1="63.5" x2="32.7" y2="64.2"/>
<line id="Path_14_" class="st6" x1="29.5" y1="64.9" x2="31.6" y2="65.7"/>
<line id="Path_15_" class="st6" x1="28.1" y1="66.6" x2="30.2" y2="67.3"/>
<linearGradient id="Path_49_" gradientUnits="userSpaceOnUse" x1="-338.7434" y1="391.6936" x2="-337.9253" y2="389.4135" gradientTransform="matrix(34.7745 0 0 -7.2642 11819.2568 2909.9443)">
	<stop  offset="0" style="stop-color:#CDC0E8"/>
	<stop  offset="4.171419e-02" style="stop-color:#C2B2E3"/>
	<stop  offset="0.1259" style="stop-color:#B19CDB"/>
	<stop  offset="0.2253" style="stop-color:#A38BD5"/>
	<stop  offset="0.3483" style="stop-color:#9A80D0"/>
	<stop  offset="0.5209" style="stop-color:#9479CE"/>
	<stop  offset="1" style="stop-color:#9377CD"/>
</linearGradient>
<path id="Path_16_" class="st13" d="M32,70.3l9.1-4.8c0,0,8.8,1.6,17.6,0.1l8.1,5c0,0-5.3,2.2-17.3,2.2S32,70.3,32,70.3z"/>
<linearGradient id="Path_50_" gradientUnits="userSpaceOnUse" x1="-327.3482" y1="243.7648" x2="-329.3459" y2="243.707" gradientTransform="matrix(17.5749 0 0 -1.8244 5825.6758 509.9677)">
	<stop  offset="0" style="stop-color:#F1F1FF"/>
	<stop  offset="1" style="stop-color:#967DC9"/>
</linearGradient>
<path id="Path_17_" class="st14" d="M41,65.4v-1c0,0,8.2,1.6,17.6,0l0,1.1C58.6,65.5,49.1,67.2,41,65.4z"/>
<linearGradient id="Path_51_" gradientUnits="userSpaceOnUse" x1="-309.5604" y1="423.091" x2="-309.0257" y2="419.5481" gradientTransform="matrix(8.8797 0 0 -18.23 2765.0125 7725.5039)">
	<stop  offset="0" style="stop-color:#A290CB"/>
	<stop  offset="1" style="stop-color:#997FD0"/>
</linearGradient>
<path id="Path_18_" class="st15" d="M23.9,62.1c0,0-10.2-6.1-6.8-17l-1.6,1.7c0,0-3.1,9.3,6.8,16.5L23.9,62.1z"/>
<linearGradient id="Path_52_" gradientUnits="userSpaceOnUse" x1="-310.5667" y1="423.3392" x2="-310.0176" y2="419.7963" gradientTransform="matrix(9.1121 0 0 -18.4614 2905.4414 7826.9087)">
	<stop  offset="0" style="stop-color:#FFFFFF"/>
	<stop  offset="1" style="stop-color:#EBECFF"/>
</linearGradient>
<path id="Path_19_" class="st16" d="M74.3,61.6c0,0,10.5-6.3,7.2-17.2l1.6,1.7c0,0,2.8,9.6-7.1,16.7L74.3,61.6z"/>
<linearGradient id="Path_53_" gradientUnits="userSpaceOnUse" x1="-330.403" y1="421.1937" x2="-329.5578" y2="420.6103" gradientTransform="matrix(18.7006 0 0 -18.2999 6244.2603 7766.8384)">
	<stop  offset="0" style="stop-color:#FFFFFF"/>
	<stop  offset="1" style="stop-color:#FFFFFF;stop-opacity:0"/>
</linearGradient>
<path id="Path_20_" class="st17" d="M66.7,59l8.1,14.9c0,0,6.8-2.9,10.6-7.5L73,55.6C73,55.6,70.7,57.4,66.7,59z"/>
<linearGradient id="Path_54_" gradientUnits="userSpaceOnUse" x1="-325.3091" y1="409.1232" x2="-324.2018" y2="408.8887" gradientTransform="matrix(14.7305 0 0 -11.4047 4865.4849 4724.5098)">
	<stop  offset="0" style="stop-color:#FFFFFF"/>
	<stop  offset="1" style="stop-color:#FFFFFF;stop-opacity:0"/>
</linearGradient>
<path id="Path_21_" class="st18" d="M73.5,55.2l12.7,10.2c0,0,1.2-1.9,2-3.7L74.9,54C74.9,54,74.1,54.7,73.5,55.2z"/>
<linearGradient id="Path_55_" gradientUnits="userSpaceOnUse" x1="-326.5327" y1="414.7938" x2="-327.5633" y2="414.087" gradientTransform="matrix(16.3227 0 0 -13.7771 5364.5591 5775.4048)">
	<stop  offset="0" style="stop-color:#FFFFFF"/>
	<stop  offset="1" style="stop-color:#FFFFFF;stop-opacity:0"/>
</linearGradient>
<path id="Path_22_" class="st19" d="M33.3,59.4l-12,13c0,0-3.2-1.9-4.3-2.8l14.4-10.9C31.3,58.7,32.5,59.1,33.3,59.4z"/>
<linearGradient id="Oval_5_" gradientUnits="userSpaceOnUse" x1="-342.4141" y1="427.3297" x2="-341.3589" y2="427.3297" gradientTransform="matrix(52.5652 0 0 -27.2692 18019.3457 11698.3086)">
	<stop  offset="0" style="stop-color:#83D5C2"/>
	<stop  offset="1" style="stop-color:#79D1CD"/>
</linearGradient>
<ellipse id="Oval_2_" class="st20" cx="49.4" cy="45.2" rx="26.3" ry="13.6"/>
<linearGradient id="Path_56_" gradientUnits="userSpaceOnUse" x1="-317.1292" y1="380.7183" x2="-315.2664" y2="380.4025" gradientTransform="matrix(10.3306 0 0 -5.9644 3316.2385 2296.7141)">
	<stop  offset="0" style="stop-color:#6A4FA4"/>
	<stop  offset="1" style="stop-color:#5F459A"/>
</linearGradient>
<polygon id="Path_23_" class="st21" points="65,31.4 59.8,28.4 65,25.4 70.2,28.4 "/>
<linearGradient id="Path_57_" gradientUnits="userSpaceOnUse" x1="-281.0518" y1="424.5753" x2="-281.2281" y2="425.7078" gradientTransform="matrix(5.1814 0 0 -23.4147 1519.1554 9995.2861)">
	<stop  offset="0" style="stop-color:#573E94"/>
	<stop  offset="1" style="stop-color:#B9A3E2"/>
</linearGradient>
<polygon id="Path_24_" class="st22" points="65,51.8 59.8,48.8 59.8,28.4 65,31.4 "/>
<linearGradient id="Path_58_" gradientUnits="userSpaceOnUse" x1="-281.0751" y1="425.7924" x2="-281.2202" y2="424.4753" gradientTransform="matrix(5.1814 0 0 -23.4147 1524.3301 9995.2861)">
	<stop  offset="0" style="stop-color:#573E94"/>
	<stop  offset="1" style="stop-color:#896CBF"/>
</linearGradient>
<polygon id="Path_25_" class="st23" points="65,51.8 70.2,48.8 70.2,28.4 65,31.4 "/>
<linearGradient id="XMLID_2_" gradientUnits="userSpaceOnUse" x1="-174" y1="262.7965" x2="-174" y2="258.3098" gradientTransform="matrix(2 0 0 -2 411.3179 524.8566)">
	<stop  offset="0" style="stop-color:#65FBE2"/>
	<stop  offset="1" style="stop-color:#A3FFED"/>
</linearGradient>
<circle id="XMLID_958_" class="st24" cx="63.3" cy="2.9" r="1"/>
<linearGradient id="XMLID_3_" gradientUnits="userSpaceOnUse" x1="-174" y1="262.7965" x2="-174" y2="258.3098" gradientTransform="matrix(2 0 0 -2 380.7998 527.7952)">
	<stop  offset="0" style="stop-color:#65FBE2"/>
	<stop  offset="1" style="stop-color:#A3FFED"/>
</linearGradient>
<circle id="XMLID_956_" class="st25" cx="32.8" cy="5.8" r="1"/>
<linearGradient id="Path_59_" gradientUnits="userSpaceOnUse" x1="454.9271" y1="422.9701" x2="454.9271" y2="421.959" gradientTransform="matrix(0.4344 0 0 -19.9052 -164.8155 8428.4824)">
	<stop  offset="0" style="stop-color:#69F4F7"/>
	<stop  offset="1" style="stop-color:#69F7DD;stop-opacity:0"/>
</linearGradient>
<path id="Path_26_" class="st26" d="M32.8,9.3c-0.1,0-0.2,0.1-0.2,0.2V29c0,0.1,0.1,0.2,0.2,0.2c0.1,0,0.2-0.1,0.2-0.2V9.5
	C33,9.4,32.9,9.3,32.8,9.3"/>
<linearGradient id="Path_60_" gradientUnits="userSpaceOnUse" x1="-317.1292" y1="380.7183" x2="-315.2664" y2="380.4025" gradientTransform="matrix(10.3306 0 0 -5.9644 3302.1584 2284.3494)">
	<stop  offset="0" style="stop-color:#6A4FA4"/>
	<stop  offset="1" style="stop-color:#5F459A"/>
</linearGradient>
<polygon id="Path_27_" class="st27" points="50.9,19 45.8,16 50.9,13.1 56.1,16 "/>
<linearGradient id="Path_61_" gradientUnits="userSpaceOnUse" x1="-281.0518" y1="424.5752" x2="-281.2281" y2="425.7076" gradientTransform="matrix(5.1814 0 0 -23.4145 1505.0753 9982.8154)">
	<stop  offset="0" style="stop-color:#573E94"/>
	<stop  offset="1" style="stop-color:#B9A3E2"/>
</linearGradient>
<polygon id="Path_28_" class="st28" points="50.9,39.4 45.8,36.5 45.8,16 50.9,19 "/>
<linearGradient id="Path_62_" gradientUnits="userSpaceOnUse" x1="-281.0782" y1="425.7922" x2="-281.2234" y2="424.4752" gradientTransform="matrix(5.1817 0 0 -23.4145 1510.3339 9982.8154)">
	<stop  offset="0" style="stop-color:#573E94"/>
	<stop  offset="1" style="stop-color:#896CBF"/>
</linearGradient>
<polygon id="Path_29_" class="st29" points="50.9,39.4 56.1,36.5 56.1,16 50.9,19 "/>
<linearGradient id="Path_63_" gradientUnits="userSpaceOnUse" x1="-317.13" y1="380.7182" x2="-315.2672" y2="380.4025" gradientTransform="matrix(10.3309 0 0 -5.9644 3298.5579 2293.8196)">
	<stop  offset="0" style="stop-color:#6A4FA4"/>
	<stop  offset="1" style="stop-color:#5F459A"/>
</linearGradient>
<polygon id="Path_30_" class="st30" points="47.3,28.5 42.1,25.5 47.2,22.5 52.4,25.5 "/>
<linearGradient id="Path_64_" gradientUnits="userSpaceOnUse" x1="-281.1366" y1="428.3935" x2="-281.2357" y2="429.5259" gradientTransform="matrix(5.185 0 0 -31.253 1502.6459 13449.0566)">
	<stop  offset="0" style="stop-color:#573E94"/>
	<stop  offset="1" style="stop-color:#B9A3E2"/>
</linearGradient>
<polygon id="Path_31_" class="st31" points="47.3,56.8 42.1,53.8 42.1,25.5 47.3,28.5 "/>
<linearGradient id="Path_65_" gradientUnits="userSpaceOnUse" x1="-281.1082" y1="429.6373" x2="-281.1896" y2="428.3203" gradientTransform="matrix(5.1817 0 0 -31.253 1506.646 13449.0566)">
	<stop  offset="0" style="stop-color:#573E94"/>
	<stop  offset="1" style="stop-color:#896CBF"/>
</linearGradient>
<polygon id="Path_32_" class="st32" points="47.2,56.8 52.4,53.8 52.4,25.5 47.2,28.5 "/>
<linearGradient id="XMLID_4_" gradientUnits="userSpaceOnUse" x1="18.2173" y1="423.4267" x2="18.2173" y2="422.4156" gradientTransform="matrix(0.9517 0 0 -20.4223 47.6491 8653.5947)">
	<stop  offset="0" style="stop-color:#69F4F7"/>
	<stop  offset="1" style="stop-color:#69F7DD;stop-opacity:0"/>
</linearGradient>
<path id="XMLID_924_" class="st33" d="M64.5,6.8c0-0.3,0.2-0.5,0.5-0.5s0.5,0.2,0.5,0.5v19.5c0,0.3-0.2,0.5-0.5,0.5
	s-0.5-0.2-0.5-0.5V6.8z"/>
<linearGradient id="XMLID_5_" gradientUnits="userSpaceOnUse" x1="404.3225" y1="414.2689" x2="404.3225" y2="413.2606" gradientTransform="matrix(0.4636 0 0 -13.428 -143.6517 5565.8647)">
	<stop  offset="0" style="stop-color:#D8F6FB"/>
	<stop  offset="1" style="stop-color:#D8F6FB;stop-opacity:0"/>
</linearGradient>
<path id="XMLID_922_" class="st34" d="M43.6,3.4c0-0.1,0.1-0.2,0.2-0.2c0.1,0,0.2,0.1,0.2,0.2v13c0,0.1-0.1,0.2-0.2,0.2
	c-0.1,0-0.2-0.1-0.2-0.2V3.4z"/>
<linearGradient id="XMLID_6_" gradientUnits="userSpaceOnUse" x1="404.3225" y1="414.2689" x2="404.3225" y2="413.2606" gradientTransform="matrix(0.4636 0 0 -13.428 -127.8634 5567.8433)">
	<stop  offset="0" style="stop-color:#D8F6FB"/>
	<stop  offset="1" style="stop-color:#D8F6FB;stop-opacity:0"/>
</linearGradient>
<path id="XMLID_921_" class="st35" d="M59.3,5.3c0-0.1,0.1-0.2,0.2-0.2s0.2,0.1,0.2,0.2v13c0,0.1-0.1,0.2-0.2,0.2s-0.2-0.1-0.2-0.2
	V5.3z"/>
<linearGradient id="Path_66_" gradientUnits="userSpaceOnUse" x1="-317.13" y1="380.7182" x2="-315.2672" y2="380.4025" gradientTransform="matrix(10.3309 0 0 -5.9644 3285.1077 2297.543)">
	<stop  offset="0" style="stop-color:#6A4FA4"/>
	<stop  offset="1" style="stop-color:#5F459A"/>
</linearGradient>
<polygon id="Path_33_" class="st36" points="33.8,32.2 28.6,29.2 33.8,26.3 39,29.2 "/>
<linearGradient id="Path_67_" gradientUnits="userSpaceOnUse" x1="-281.0232" y1="421.7983" x2="-281.2701" y2="422.9308" gradientTransform="matrix(5.1814 0 0 -19.7841 1487.9442 8394.999)">
	<stop  offset="0" style="stop-color:#573E94"/>
	<stop  offset="1" style="stop-color:#B9A3E2"/>
</linearGradient>
<polygon id="Path_34_" class="st37" points="33.8,49 28.6,46 28.6,29.2 33.8,32.2 "/>
<linearGradient id="Path_68_" gradientUnits="userSpaceOnUse" x1="-281.0911" y1="422.9792" x2="-281.2946" y2="421.6622" gradientTransform="matrix(5.1848 0 0 -19.7841 1494.2902 8394.999)">
	<stop  offset="0" style="stop-color:#573E94"/>
	<stop  offset="1" style="stop-color:#896CBF"/>
</linearGradient>
<polygon id="Path_35_" class="st38" points="33.8,49 39,46 39,29.2 33.8,32.2 "/>
<linearGradient id="XMLID_7_" gradientUnits="userSpaceOnUse" x1="-342.2091" y1="427.6775" x2="-342.2091" y2="428.5003" gradientTransform="matrix(55.4773 0 0 -29.1337 19034.7285 12515.2246)">
	<stop  offset="0" style="stop-color:#95F1E0"/>
	<stop  offset="1" style="stop-color:#7EF2C6;stop-opacity:0"/>
</linearGradient>
<ellipse id="XMLID_965_" class="st39" cx="49.9" cy="40.8" rx="27.7" ry="14.6"/>
<linearGradient id="XMLID_8_" gradientUnits="userSpaceOnUse" x1="-342.2091" y1="427.6775" x2="-342.2091" y2="428.5003" gradientTransform="matrix(55.4773 0 0 -29.1337 19034.7949 12509.4268)">
	<stop  offset="0" style="stop-color:#95F1E0"/>
	<stop  offset="1" style="stop-color:#7EF2C6;stop-opacity:0"/>
</linearGradient>
<ellipse id="XMLID_964_" class="st40" cx="49.9" cy="35.1" rx="27.7" ry="14.6"/>
<linearGradient id="Path_69_" gradientUnits="userSpaceOnUse" x1="-341.9081" y1="433.7505" x2="-341.9188" y2="434.6898" gradientTransform="matrix(53.0027 0 0 -57.6868 18172.0391 25081.8906)">
	<stop  offset="0" style="stop-color:#533594"/>
	<stop  offset="1" style="stop-color:#D8D0F3;stop-opacity:0"/>
</linearGradient>
<path id="Path_36_" class="st41" d="M76.1,1.1L23.1,1l0,43.9c0,0.2,0,0.3,0,0.5c0,5.9,12,13.3,26.5,13.3s26.1-7.4,26.1-13.3
	c0-0.2,0-0.3,0-0.5L76.1,1.1z"/>
<linearGradient id="Path_70_" gradientUnits="userSpaceOnUse" x1="-335.5814" y1="420.0892" x2="-335.5814" y2="421.0892" gradientTransform="matrix(27.0153 0 0 -18.0305 9117.3379 7612.6089)">
	<stop  offset="0" style="stop-color:#74DED6"/>
	<stop  offset="1" style="stop-color:#65EFDA"/>
</linearGradient>
<path id="Path_37_" class="st42" d="M38,34.6c0,0.9,0.6,1.7,1.5,2c2.2,0.6,6.7,1.6,12,1.6c5.5,0,9.9-1,12-1.6c0.9-0.2,1.5-1,1.5-2
	V21c0-0.6-0.5-1-1.1-0.8c-2.1,0.7-6.9,2-12.4,2c-5.5-0.1-10.4-1.3-12.4-2C38.5,20.1,38,20.4,38,21V34.6z"/>
<linearGradient id="Path_71_" gradientUnits="userSpaceOnUse" x1="-314.2105" y1="425.3239" x2="-314.2105" y2="426.3239" gradientTransform="matrix(10.178 0 0 -24.4615 3269.6453 10429.5342)">
	<stop  offset="0" style="stop-color:#05B8B6"/>
	<stop  offset="1" style="stop-color:#40E0DC"/>
</linearGradient>
<path id="Path_38_" class="st43" d="M76.7,11.4c0,0,0.5-6.8-9.2-10.4c-0.5-0.2-1,0.2-1,0.7v14.3c0,0.3,0.2,0.6,0.5,0.7
	c1.7,0.6,7.4,3,9.7,8.7L76.7,11.4z"/>
<linearGradient id="Path_72_" gradientUnits="userSpaceOnUse" x1="-314.4399" y1="425.0962" x2="-314.4399" y2="426.0962" gradientTransform="matrix(10.2466 0 0 -24.0878 3293.572 10275.1748)">
	<stop  offset="0" style="stop-color:#74DED6"/>
	<stop  offset="1" style="stop-color:#65EFDA"/>
</linearGradient>
<path id="Path_39_" class="st44" d="M66.5,21.2v13.5c0,0.6,0.6,1,1.2,0.8c2.7-1.2,8.8-4.3,9-8.3c0.2-5,0-15.8,0-15.8s-2.1,6.3-8.8,8
	C67.1,19.6,66.5,20.3,66.5,21.2z"/>
</svg>
