<svg width="199" height="186" viewBox="0 0 199 186" xmlns="http://www.w3.org/2000/svg" xmlns:xlink="http://www.w3.org/1999/xlink"><defs><path id="a" d="M0 0h200v200H0z"/><radialGradient cy="-29.736%" fx="50%" fy="-29.736%" r="129.736%" gradientTransform="matrix(0 1 -.45474 0 .365 -.797)" id="b"><stop stop-color="#E7E7E9" offset="0%"/><stop stop-color="#E7E7E9" stop-opacity="0" offset="100%"/></radialGradient><linearGradient x1="50%" y1="-24.978%" x2="50%" y2="41.641%" id="d"><stop stop-color="#CDCED1" stop-opacity=".5" offset="0%"/><stop stop-color="#CDCED1" stop-opacity="0" offset="100%"/></linearGradient><linearGradient x1="50%" y1="0%" x2="50%" y2="59.76%" id="e"><stop stop-color="#CDCED1" stop-opacity=".5" offset="0%"/><stop stop-color="#CDCED1" stop-opacity="0" offset="100%"/></linearGradient><linearGradient x1="36.709%" y1="48.683%" x2="26.076%" y2="50.487%" id="f"><stop stop-color="#070A1A" stop-opacity="0" offset="0%"/><stop stop-color="#070A1A" stop-opacity=".1" offset="100%"/></linearGradient><linearGradient x1="50%" y1="0%" x2="50%" y2="100%" id="g"><stop stop-color="#F5F5F6" offset="0%"/><stop stop-color="#F0F1F2" offset="100%"/></linearGradient><linearGradient x1="50%" y1="0%" x2="50%" y2="100%" id="h"><stop stop-color="#C1DAA5" offset="0%"/><stop stop-color="#8DB36C" offset="100%"/></linearGradient><linearGradient x1="50%" y1="0%" x2="50%" y2="100%" id="i"><stop stop-color="#DBDCDF" offset="0%"/><stop stop-color="#B5B6BB" offset="100%"/></linearGradient><linearGradient x1="50%" y1="0%" x2="50%" y2="100%" id="j"><stop stop-color="#F9F9FA" offset="0%"/><stop stop-color="#F0F1F2" offset="100%"/></linearGradient></defs><g transform="translate(-1 -14)" fill="none" fill-rule="evenodd"><mask id="c" fill="#fff"><use xlink:href="#a"/></mask><ellipse fill="url(#b)" mask="url(#c)" cx="100" cy="167.188" rx="100" ry="32.813"/><circle fill="url(#d)" opacity=".7" mask="url(#c)" cx="23.828" cy="58.203" r="17.578"/><circle fill="url(#e)" opacity=".5" mask="url(#c)" cx="186.328" cy="87.109" r="17.578"/><circle fill="url(#e)" opacity=".4" mask="url(#c)" cx="61.328" cy="46.094" r="31.25"/><circle fill="url(#e)" opacity=".4" mask="url(#c)" cx="152.344" cy="69.531" r="31.25"/><path d="M43.46 142.969h67.188c1.294 0 1.114.22-.403.492l-78.72 14.104c-1.517.272-3.796.492-5.09.492l-66.785-.244c-1.295 0-1.517.024 0-.248l78.72-14.104c1.517-.272 3.796-.492 5.09-.492z" fill="url(#f)" mask="url(#c)" transform="matrix(-1 0 0 1 70.106 0)"/><g mask="url(#c)"><g transform="translate(37.5 64.063)"><rect fill="url(#g)" width="125" height="93.75" rx="4"/><g transform="translate(46.094 32.813)"><circle fill="url(#h)" cx="17.188" cy="17.188" r="17.188"/><path d="M28.632 10.05l-1.775-1.949a.85.85 0 0 0-.668-.288.942.942 0 0 0-.671.34l-11.15 12.218-4.714-4.975a.922.922 0 0 0-1.33.005L6.53 17.223a.977.977 0 0 0-.009 1.358l7.16 7.653c.368.407.965.44 1.339.072l13.603-14.732c.18-.205.282-.482.284-.768a1.118 1.118 0 0 0-.274-.755z" fill="#F6F6F7" fill-rule="nonzero"/></g><path d="M4 0h117a4 4 0 0 1 4 4v9.281H0V4a4 4 0 0 1 4-4z" fill="url(#i)" fill-rule="nonzero"/><circle fill="url(#j)" cx="8.984" cy="6.641" r="2.734"/><circle fill="url(#j)" cx="17.578" cy="6.641" r="2.734"/><circle fill="url(#j)" cx="26.172" cy="6.641" r="2.734"/></g></g></g></svg>
