<?xml version="1.0" encoding="utf-8"?>
<!-- Generator: Adobe Illustrator 21.1.0, SVG Export Plug-In . SVG Version: 6.00 Build 0)  -->
<svg version="1.1" id="图层_1" xmlns="http://www.w3.org/2000/svg" xmlns:xlink="http://www.w3.org/1999/xlink" x="0px" y="0px"
	 viewBox="0 0 100 80" style="enable-background:new 0 0 100 80;" xml:space="preserve">
<style type="text/css">
	.st0{fill:url(#Path_21_);}
	.st1{fill:url(#Path_22_);}
	.st2{opacity:0.5;fill:url(#Path_23_);enable-background:new    ;}
	.st3{fill:url(#Path_24_);}
	.st4{fill:url(#Path_25_);}
	.st5{opacity:0.5;fill:url(#Path_26_);enable-background:new    ;}
	.st6{opacity:0.8;fill:url(#Shape_10_);enable-background:new    ;}
	.st7{opacity:0.3;fill:url(#Oval_12_);enable-background:new    ;}
	.st8{opacity:0.3;fill:url(#Oval_13_);enable-background:new    ;}
	.st9{opacity:0.3;fill:url(#Oval_14_);enable-background:new    ;}
	.st10{opacity:0.3;fill:url(#Path_27_);enable-background:new    ;}
	.st11{opacity:0.3;fill:url(#Oval_15_);enable-background:new    ;}
	.st12{opacity:0.3;fill:url(#Path_28_);enable-background:new    ;}
	.st13{opacity:0.4;fill:url(#Path_29_);enable-background:new    ;}
	.st14{opacity:0.3754;fill:url(#Path_30_);enable-background:new    ;}
	.st15{opacity:0.3754;fill:url(#Path_31_);enable-background:new    ;}
	.st16{opacity:0.3754;fill:url(#Path_32_);enable-background:new    ;}
	.st17{opacity:0.4;fill:url(#Path_33_);enable-background:new    ;}
	.st18{opacity:0.8;fill:url(#Shape_11_);enable-background:new    ;}
	.st19{fill:url(#Path_34_);}
	.st20{fill:url(#Path_35_);}
	.st21{fill:url(#Path_36_);}
	.st22{fill:url(#Path_37_);}
	.st23{opacity:0.2;fill:url(#Path_38_);enable-background:new    ;}
	.st24{fill:url(#Path_39_);}
	.st25{fill:url(#Path_40_);}
	.st26{fill:url(#Path_41_);}
	.st27{fill:url(#Shape_14_);}
	.st28{fill:url(#Shape_21_);}
	.st29{opacity:0.6;fill:url(#Oval_16_);enable-background:new    ;}
	.st30{opacity:0.4;fill:url(#Oval_17_);enable-background:new    ;}
	.st31{opacity:0.2;fill:url(#Oval_18_);enable-background:new    ;}
	.st32{opacity:0.8;fill:url(#Oval_19_);enable-background:new    ;}
	.st33{fill:url(#Shape_26_);}
	.st34{fill:url(#Shape_27_);}
	.st35{opacity:0.6;fill:url(#Oval_20_);enable-background:new    ;}
	.st36{opacity:0.4;fill:url(#Oval_21_);enable-background:new    ;}
	.st37{opacity:0.2;fill:url(#Oval_22_);enable-background:new    ;}
	.st38{opacity:0.8;fill:url(#Oval_23_);enable-background:new    ;}
	.st39{fill:url(#XMLID_2_);}
	.st40{fill:url(#XMLID_3_);}
	.st41{fill:url(#XMLID_4_);}
	.st42{opacity:0.4;fill:#FBF8FF;enable-background:new    ;}
	.st43{opacity:0.8;fill:none;stroke:#FBF8FF;stroke-width:0.35;enable-background:new    ;}
	.st44{fill:url(#SVGID_1_);}
	.st45{fill:url(#SVGID_2_);}
	.st46{fill:url(#SVGID_3_);}
	.st47{fill:url(#SVGID_4_);}
	.st48{fill:url(#SVGID_5_);}
	.st49{fill:url(#SVGID_6_);}
	.st50{opacity:0.8;fill:none;stroke:#CFD2F9;stroke-width:0.35;enable-background:new    ;}
	.st51{fill:url(#XMLID_5_);}
	.st52{fill:url(#XMLID_6_);}
	.st53{fill:url(#SVGID_7_);}
	.st54{fill:url(#SVGID_8_);}
	.st55{fill:url(#SVGID_9_);}
	.st56{fill:url(#XMLID_7_);}
	.st57{fill:url(#XMLID_8_);}
	.st58{fill:url(#XMLID_9_);}
	.st59{fill:url(#Shape_28_);}
	.st60{opacity:0.7;fill:url(#Shape_29_);enable-background:new    ;}
	.st61{opacity:0.5;fill:#FBF8FF;enable-background:new    ;}
	.st62{opacity:0.5;fill:#FFFFFF;enable-background:new    ;}
	.st63{fill:url(#SVGID_10_);}
	.st64{fill:url(#SVGID_11_);}
	.st65{fill:url(#SVGID_12_);}
	.st66{fill:url(#XMLID_10_);}
	.st67{fill:url(#XMLID_11_);}
	.st68{fill:url(#XMLID_12_);}
	.st69{fill:url(#Shape_30_);}
	.st70{opacity:0.8;fill:none;stroke:url(#Shape_31_);stroke-width:0.3;stroke-linecap:round;enable-background:new    ;}
	.st71{fill:url(#Shape_32_);}
	.st72{opacity:0.4;fill:url(#XMLID_13_);enable-background:new    ;}
	.st73{opacity:0.8;fill:none;stroke:url(#XMLID_14_);stroke-width:0.8;stroke-linecap:round;enable-background:new    ;}
	.st74{opacity:0.4;fill:none;stroke:url(#XMLID_15_);stroke-width:0.8;stroke-linecap:round;enable-background:new    ;}
	.st75{opacity:0.8;fill:none;stroke:url(#XMLID_16_);stroke-width:0.8;stroke-linecap:round;enable-background:new    ;}
	.st76{fill:#7CF8E7;}
</style>
<title>Icon/实物类/wfwzl@2x</title>
<desc>Created with Sketch.</desc>
<linearGradient id="Path_21_" gradientUnits="userSpaceOnUse" x1="-335.6124" y1="416.7556" x2="-334.3832" y2="416.7556" gradientTransform="matrix(26.0689 0 0 -15.1193 8784.4639 6343.3569)">
	<stop  offset="0" style="stop-color:#573E94"/>
	<stop  offset="1" style="stop-color:#896CBF"/>
</linearGradient>
<path id="Path" class="st0" d="M61.5,37.6v5.3l0,0c-0.2,1.7-1.5,3.4-3.7,4.7c-3.7,2.1-9.1,2.7-13.7,1.8c-0.8-0.2-1.6-0.4-2.3-0.7
	c-0.9-0.3-1.7-0.7-2.4-1.1c-1.2-0.7-2.1-1.5-2.8-2.3c0-0.1-0.1-0.1-0.1-0.2c-0.6-0.9-1-1.9-1-2.8v-4.7l7.9-2.3
	c3.2-0.8,6.9-0.8,10.2,0L61.5,37.6z"/>
<linearGradient id="Path_22_" gradientUnits="userSpaceOnUse" x1="-335.1382" y1="416.5094" x2="-335.094" y2="416.9298" gradientTransform="matrix(26.0682 0 0 -15.1214 8784.1953 6339.7529)">
	<stop  offset="0" style="stop-color:#755CB0"/>
	<stop  offset="1" style="stop-color:#896CBF"/>
</linearGradient>
<path id="Path_1_" class="st1" d="M57.7,43.1c-0.1,0.1-0.3,0.2-0.4,0.2c-1.2,0.7-2.6,1.1-4.1,1.5c-2.9,0.7-6.2,0.7-9.2,0
	c-0.8-0.2-1.6-0.4-2.3-0.7c0,0,0,0,0,0c-0.8-0.3-1.6-0.6-2.3-1.1c0,0,0,0-0.1,0c-1.2-0.7-2.1-1.5-2.8-2.3c-2.1-2.8-1.2-6.1,2.7-8.4
	c5.1-3,13.3-3,18.4,0C62.7,35.4,62.8,40.2,57.7,43.1z"/>
<linearGradient id="Path_23_" gradientUnits="userSpaceOnUse" x1="-321.0068" y1="417.5566" x2="-321.7952" y2="417.0499" gradientTransform="matrix(13.1692 0 0 -15.1198 4295.374 6339.0381)">
	<stop  offset="0" style="stop-color:#001563;stop-opacity:0"/>
	<stop  offset="1" style="stop-color:#1C22A3"/>
</linearGradient>
<path id="Path_2_" class="st2" d="M57.7,43.1c-0.1,0.1-0.3,0.2-0.4,0.2c-1.2,0.7-2.6,1.1-4.1,1.5c-1.5,0.3-3.2,0.5-4.8,0.5
	c1.6,0,3.1-0.2,4.6-0.5c1.5-0.3,2.9-0.8,4.1-1.5c0.1-0.1,0.3-0.2,0.4-0.2c5.1-3,5-7.7-0.1-10.7c-2.5-1.5-5.8-2.2-9.1-2.2
	c3.4,0,6.7,0.7,9.3,2.2C62.7,35.4,62.8,40.2,57.7,43.1z"/>
<linearGradient id="Path_24_" gradientUnits="userSpaceOnUse" x1="-330.9807" y1="410.6894" x2="-332.6641" y2="409.9586" gradientTransform="matrix(20.5918 0 0 -11.9434 6875.6807 4938.3901)">
	<stop  offset="0" style="stop-color:#5CC9CD"/>
	<stop  offset="1" style="stop-color:#34C4CB"/>
</linearGradient>
<path id="Path_3_" class="st3" d="M55.7,40.5c-0.3,0.2-0.6,0.3-0.9,0.5c-1.2,0.5-2.5,0.9-3.8,1.1c-3.4,0.5-7.1,0-9.8-1.6
	c-4-2.3-4.1-6.1,0-8.4c4-2.3,10.5-2.3,14.6,0C59.7,34.4,59.8,38.2,55.7,40.5z"/>
<linearGradient id="Path_25_" gradientUnits="userSpaceOnUse" x1="-327.13" y1="408.3233" x2="-326.5121" y2="400.2639" gradientTransform="matrix(15.9522 0 0 -9.2524 5258.7944 3752.7678)">
	<stop  offset="0" style="stop-color:#FFFFFF"/>
	<stop  offset="1" style="stop-color:#4F3B7C"/>
</linearGradient>
<path id="Path_4_" class="st4" d="M54.1,39.3c-0.2,0.1-0.5,0.3-0.7,0.4c-0.9,0.4-1.9,0.7-3,0.8c-2.6,0.4-5.5,0-7.6-1.2
	c-3.1-1.8-3.1-4.7,0-6.5c3.1-1.8,8.2-1.8,11.3,0C57.2,34.6,57.2,37.5,54.1,39.3z"/>
<linearGradient id="Path_26_" gradientUnits="userSpaceOnUse" x1="-326.0715" y1="367.5352" x2="-326.276" y2="367.5512" gradientTransform="matrix(15.9508 0 0 -4.9241 5258.2915 1843.9829)">
	<stop  offset="0" style="stop-color:#001563;stop-opacity:0"/>
	<stop  offset="1" style="stop-color:#1C22A3"/>
</linearGradient>
<path id="Path_5_" class="st5" d="M56.4,36.4c-0.1-1.1-0.9-2.2-2.3-3c-3.1-1.8-8.2-1.8-11.3,0c-1.4,0.8-2.2,1.9-2.3,3
	c-0.1-1.3,0.6-2.6,2.3-3.5c3.1-1.8,8.2-1.8,11.3,0C55.8,33.8,56.5,35.1,56.4,36.4z"/>
<linearGradient id="Shape_10_" gradientUnits="userSpaceOnUse" x1="-322.5258" y1="394.7921" x2="-322.5258" y2="393.0721" gradientTransform="matrix(13.4364 0 0 -7.8232 4382.1519 3123.176)">
	<stop  offset="0" style="stop-color:#B3FFAB;stop-opacity:0"/>
	<stop  offset="1" style="stop-color:#12FFF7"/>
</linearGradient>
<path id="Shape" class="st6" d="M48.6,40c-1.8,0-3.5-0.4-4.7-1.1c-1.3-0.7-2-1.7-2-2.8c0-1,0.7-2,2-2.8c1.3-0.7,2.9-1.1,4.7-1.1
	c1.8,0,3.5,0.4,4.7,1.1c1.3,0.7,2,1.7,2,2.8c0,1-0.7,2-2,2.8c-0.2,0.1-0.4,0.2-0.6,0.3c-0.7,0.3-1.6,0.6-2.5,0.7
	C49.7,39.9,49.1,40,48.6,40z M48.5,32.2c-1.8,0-3.4,0.4-4.7,1.1c-1.2,0.7-1.9,1.7-1.9,2.7c0,1,0.7,2,2,2.7c1.3,0.7,2.9,1.1,4.7,1.1
	c0.5,0,1.1,0,1.6-0.1c0.9-0.1,1.7-0.4,2.5-0.7c0.2-0.1,0.4-0.2,0.6-0.3c1.2-0.7,1.9-1.7,1.9-2.7c0-1-0.7-2-2-2.7
	C52,32.6,50.3,32.2,48.5,32.2z"/>
<linearGradient id="Oval_12_" gradientUnits="userSpaceOnUse" x1="-174" y1="258.2646" x2="-174" y2="262.5378" gradientTransform="matrix(2 0 0 -2 397.8018 547.0706)">
	<stop  offset="0" style="stop-color:#4C83FF"/>
	<stop  offset="0.4104" style="stop-color:#2AFADF"/>
	<stop  offset="1" style="stop-color:#FFFFFF;stop-opacity:0"/>
</linearGradient>
<circle id="Oval" class="st7" cx="49.8" cy="25.1" r="1"/>
<linearGradient id="Oval_13_" gradientUnits="userSpaceOnUse" x1="-174" y1="258.2652" x2="-174" y2="262.5379" gradientTransform="matrix(2 0 0 -2 397.3521 549.4023)">
	<stop  offset="0" style="stop-color:#4C83FF"/>
	<stop  offset="0.4104" style="stop-color:#2AFADF"/>
	<stop  offset="1" style="stop-color:#FFFFFF;stop-opacity:0"/>
</linearGradient>
<circle id="Oval_1_" class="st8" cx="49.4" cy="27.4" r="1"/>
<linearGradient id="Oval_14_" gradientUnits="userSpaceOnUse" x1="-174" y1="258.2652" x2="-174" y2="262.5372" gradientTransform="matrix(2 0 0 -2 404.3494 551.7705)">
	<stop  offset="0" style="stop-color:#4C83FF"/>
	<stop  offset="0.4104" style="stop-color:#2AFADF"/>
	<stop  offset="1" style="stop-color:#FFFFFF;stop-opacity:0"/>
</linearGradient>
<circle id="Oval_2_" class="st9" cx="56.3" cy="29.8" r="1"/>
<linearGradient id="Path_27_" gradientUnits="userSpaceOnUse" x1="194.3241" y1="-120.1421" x2="194.3241" y2="-115.874" gradientTransform="matrix(0.6429 0 0 -0.6435 -86.4682 -47.4163)">
	<stop  offset="0" style="stop-color:#4C83FF"/>
	<stop  offset="0.4104" style="stop-color:#2AFADF"/>
	<stop  offset="1" style="stop-color:#FFFFFF;stop-opacity:0"/>
</linearGradient>
<path id="Path_6_" class="st10" d="M38.8,28.1c0,0.2-0.1,0.3-0.3,0.3c-0.2,0-0.3-0.1-0.3-0.3c0-0.2,0.1-0.3,0.3-0.3
	C38.6,27.8,38.8,28,38.8,28.1z"/>
<linearGradient id="Oval_15_" gradientUnits="userSpaceOnUse" x1="-174" y1="258.264" x2="-174" y2="262.5384" gradientTransform="matrix(2 0 0 -2 391.7447 555.7188)">
	<stop  offset="0" style="stop-color:#4C83FF"/>
	<stop  offset="0.4104" style="stop-color:#2AFADF"/>
	<stop  offset="1" style="stop-color:#FFFFFF;stop-opacity:0"/>
</linearGradient>
<circle id="Oval_3_" class="st11" cx="43.7" cy="33.7" r="1"/>
<linearGradient id="Path_28_" gradientUnits="userSpaceOnUse" x1="340.4228" y1="-269.643" x2="340.4228" y2="-265.3751" gradientTransform="matrix(0.5066 0 0 -0.5075 -125.1094 -98.5113)">
	<stop  offset="0" style="stop-color:#4C83FF"/>
	<stop  offset="0.4104" style="stop-color:#2AFADF"/>
	<stop  offset="1" style="stop-color:#FFFFFF;stop-opacity:0"/>
</linearGradient>
<path id="Path_7_" class="st12" d="M47.6,36.9c0,0.1-0.1,0.3-0.3,0.3c-0.1,0-0.3-0.1-0.3-0.3c0-0.1,0.1-0.3,0.3-0.3
	C47.5,36.7,47.6,36.8,47.6,36.9z"/>
<linearGradient id="Path_29_" gradientUnits="userSpaceOnUse" x1="-320.4201" y1="427.5605" x2="-320.4201" y2="428.1417" gradientTransform="matrix(12.4288 0 0 -28.6935 4030.9395 12305.2266)">
	<stop  offset="0" style="stop-color:#8467BA"/>
	<stop  offset="1" style="stop-color:#FFFFFF;stop-opacity:0"/>
</linearGradient>
<path id="Path_8_" class="st13" d="M54.7,35.5L54.7,35.5c0,0.1,0,0.2,0,0.3c-0.1,0.7-0.6,1.5-1.5,2C53.1,37.9,53,38,52.9,38
	c-0.3,0.2-0.6,0.3-0.9,0.4c-0.4,0.1-0.8,0.3-1.2,0.4c-0.4,0.1-0.8,0.2-1.2,0.2c0,0,0,0-0.1,0c-0.8,0.1-1.6,0.1-2.3,0c0,0,0,0-0.1,0
	c-0.4,0-0.8-0.1-1.2-0.2c-0.4-0.1-0.8-0.2-1.1-0.4c-0.3-0.1-0.6-0.3-0.8-0.4c-0.1-0.1-0.3-0.2-0.4-0.2c-0.8-0.6-1.3-1.3-1.4-2
	c0-0.1,0-0.2,0-0.3h0V19.1l0-5.1c0-0.9,0.6-1.8,1.8-2.5c2.4-1.4,6.4-1.4,8.8,0c1.3,0.8,2,1.8,1.8,2.8L54.7,35.5z"/>
<linearGradient id="Path_30_" gradientUnits="userSpaceOnUse" x1="-328.0963" y1="427.8187" x2="-328.071" y2="426.9315" gradientTransform="matrix(17.0935 0 0 -27.47 5656.7046 11763.501)">
	<stop  offset="0" style="stop-color:#5C4398"/>
	<stop  offset="1" style="stop-color:#FFFFFF;stop-opacity:0"/>
</linearGradient>
<path id="Path_9_" class="st14" d="M57.2,30.8L57.2,30.8c0,0.1,0,0.3,0,0.4c-0.1,1-0.8,2-2,2.8c-0.1,0.1-0.3,0.2-0.4,0.3
	c-0.4,0.2-0.8,0.4-1.2,0.6c-0.5,0.2-1,0.4-1.6,0.5c-0.5,0.1-1.1,0.2-1.6,0.3c0,0-0.1,0-0.1,0c-1.1,0.1-2.1,0.1-3.2,0
	c0,0-0.1,0-0.1,0c-0.6-0.1-1.1-0.2-1.7-0.3c-0.5-0.1-1-0.3-1.5-0.5c-0.4-0.2-0.8-0.3-1.1-0.6c-0.2-0.1-0.4-0.2-0.5-0.3
	c-1.2-0.8-1.8-1.8-2-2.8c0-0.1,0-0.3,0-0.4h0V8.2l0,9.4c0-1.3,0.8-2.5,2.5-3.5c3.3-1.9,8.7-1.9,12.1,0c1.9,1.1,2.7,2.5,2.5,3.9
	L57.2,30.8z"/>
<linearGradient id="Path_31_" gradientUnits="userSpaceOnUse" x1="-156.3943" y1="418.8051" x2="-156.3935" y2="417.918" gradientTransform="matrix(1.8167 0 0 -16.2576 320.7758 6825.854)">
	<stop  offset="0" style="stop-color:#AB9BE6"/>
	<stop  offset="1" style="stop-color:#FFFFFF;stop-opacity:0"/>
</linearGradient>
<path id="Path_10_" class="st15" d="M37.6,28L37.6,28c0,0.1,0,0.2,0,0.3c0,0.7-0.1,1.4-0.2,2c0,0.1,0,0.1,0,0.2
	c0,0.2-0.1,0.3-0.1,0.4c-0.1,0.1-0.1,0.3-0.2,0.4c-0.1,0.1-0.1,0.2-0.2,0.2c0,0,0,0,0,0c-0.1,0.1-0.2,0.1-0.3,0c0,0,0,0,0,0
	c-0.1,0-0.1-0.1-0.2-0.2c-0.1-0.1-0.1-0.2-0.2-0.3c0-0.1-0.1-0.2-0.1-0.4c0-0.1,0-0.2-0.1-0.2c-0.1-0.6-0.2-1.3-0.2-2
	c0-0.1,0-0.2,0-0.3h0l-0.1-10.3l0.1,1.1c0-0.9,0.1-1.8,0.3-2.5c0.3-1.4,0.9-1.4,1.2,0c0.2,0.8,0.3,1.8,0.3,2.8L37.6,28z"/>
<linearGradient id="Path_32_" gradientUnits="userSpaceOnUse" x1="-196.532" y1="418.9122" x2="-196.5307" y2="418.0251" gradientTransform="matrix(2.2965 0 0 -16.3368 511.1693 6857.7021)">
	<stop  offset="0" style="stop-color:#AB9BE6"/>
	<stop  offset="1" style="stop-color:#FFFFFF;stop-opacity:0"/>
</linearGradient>
<path id="Path_11_" class="st16" d="M61,26.7L61,26.7c0,0.1,0,0.1,0,0.2c0,0.4-0.1,0.7-0.3,1.1c0,0,0,0.1-0.1,0.1
	c0,0.1-0.1,0.2-0.2,0.2c-0.1,0.1-0.1,0.1-0.2,0.2c-0.1,0-0.1,0.1-0.2,0.1c0,0,0,0,0,0c-0.1,0-0.3,0-0.4,0c0,0,0,0,0,0
	c-0.1,0-0.2-0.1-0.2-0.1c-0.1,0-0.1-0.1-0.2-0.2c-0.1-0.1-0.1-0.1-0.2-0.2c0,0,0-0.1-0.1-0.1c-0.2-0.3-0.2-0.7-0.3-1
	c0,0,0-0.1,0-0.1h0V12.2l0,3.5c0-0.5,0.1-0.9,0.3-1.3c0.4-0.7,1.2-0.7,1.6,0c0.2,0.4,0.4,0.9,0.3,1.5L61,26.7z"/>
<linearGradient id="Path_33_" gradientUnits="userSpaceOnUse" x1="-339.1131" y1="430.3365" x2="-339.1248" y2="431.4287" gradientTransform="matrix(37.2233 0 0 -37.2515 12671.1973 16072.3662)">
	<stop  offset="0" style="stop-color:#6C43CB"/>
	<stop  offset="1" style="stop-color:#FFFFFF;stop-opacity:0"/>
</linearGradient>
<path id="Path_12_" class="st17" d="M66.5,3.4L56.4,36.4c-0.1,1.1-0.9,2.1-2.3,3c-0.2,0.1-0.5,0.3-0.7,0.4c-0.9,0.4-1.9,0.7-3,0.8
	c-2.6,0.4-5.5,0-7.6-1.2c-1.2-0.7-2-1.6-2.2-2.5L29.3,3.4H66.5z"/>
<linearGradient id="Shape_11_" gradientUnits="userSpaceOnUse" x1="-337.0458" y1="420.4455" x2="-337.0458" y2="418.7256" gradientTransform="matrix(30.4692 0 0 -17.7408 10317.2666 7478.4443)">
	<stop  offset="0" style="stop-color:#B3FFAB;stop-opacity:0"/>
	<stop  offset="1" style="stop-color:#12FFF7"/>
</linearGradient>
<path id="Shape_1_" class="st18" d="M47.8,31.5c-4.1,0-7.9-0.9-10.8-2.6c-2.9-1.7-4.5-3.9-4.5-6.3c0-2.4,1.6-4.6,4.4-6.3
	c2.9-1.7,6.7-2.6,10.7-2.6c4.1,0,7.9,0.9,10.8,2.6c2.9,1.7,4.5,3.9,4.5,6.3c0,2.4-1.6,4.6-4.4,6.3c-0.4,0.3-0.9,0.5-1.4,0.7
	c-1.7,0.8-3.6,1.3-5.6,1.6C50.3,31.4,49,31.5,47.8,31.5z M47.7,13.9c-4,0-7.8,0.9-10.7,2.6c-2.8,1.6-4.4,3.8-4.4,6.1
	c0,2.3,1.6,4.5,4.4,6.2c2.9,1.7,6.7,2.6,10.7,2.6c1.2,0,2.5-0.1,3.7-0.3c2-0.3,3.9-0.8,5.6-1.6c0.5-0.2,1-0.5,1.4-0.7
	c2.8-1.6,4.4-3.8,4.4-6.1c0-2.3-1.6-4.5-4.4-6.2C55.5,14.8,51.7,13.9,47.7,13.9z"/>
<linearGradient id="Path_34_" gradientUnits="userSpaceOnUse" x1="-336.325" y1="408.2817" x2="-335.325" y2="408.2817" gradientTransform="matrix(27.5345 0 0 -11.1428 9295.0762 4566.0981)">
	<stop  offset="0" style="stop-color:#573E94"/>
	<stop  offset="1" style="stop-color:#896CBF"/>
</linearGradient>
<path id="Path_13_" class="st19" d="M34.6,11.1C34.6,11.2,34.6,11.2,34.6,11.1c0.3,1.9,1.6,3.6,4,5c0.1,0,0.2,0.1,0.2,0.1
	c0,0,0.1,0,0.1,0c0.1,0,0.1,0.1,0.2,0.1c0,0,0.1,0,0.1,0.1c0.1,0,0.1,0.1,0.2,0.1c0,0,0.1,0,0.1,0.1c0.1,0,0.1,0.1,0.2,0.1
	c0,0,0.1,0,0.1,0.1c0.1,0,0.1,0,0.2,0.1c0,0,0.1,0,0.1,0.1c0.1,0,0.1,0,0.2,0.1c0,0,0.1,0,0.1,0c0,0,0.1,0,0.2,0.1c0,0,0.1,0,0.1,0
	c0,0,0.1,0,0.1,0c0.1,0,0.2,0.1,0.3,0.1c0,0,0.1,0,0.1,0c0.1,0,0.2,0.1,0.4,0.1c0,0,0.1,0,0.1,0c0.1,0,0.2,0.1,0.3,0.1
	c0,0,0.1,0,0.1,0c0.1,0,0.3,0.1,0.4,0.1c0,0,0,0,0.1,0c0.1,0,0.2,0.1,0.3,0.1c0,0,0.1,0,0.1,0c0.1,0,0.1,0,0.2,0.1c0,0,0.1,0,0.1,0
	c0.1,0,0.1,0,0.2,0.1c0,0,0.1,0,0.1,0c0.1,0,0.1,0,0.2,0c0,0,0.1,0,0.1,0c0.1,0,0.1,0,0.2,0c0,0,0.1,0,0.1,0c0.1,0,0.1,0,0.2,0
	c0,0,0.1,0,0.1,0c0.1,0,0.1,0,0.2,0c0,0,0.1,0,0.1,0c0.1,0,0.2,0,0.3,0c0,0,0,0,0.1,0c0.2,0,0.4,0.1,0.7,0.1c0,0,0,0,0.1,0
	c0.1,0,0.2,0,0.3,0c0,0,0.1,0,0.1,0c0.1,0,0.2,0,0.2,0c0,0,0.1,0,0.1,0c0.1,0,0.1,0,0.2,0c0,0,0.1,0,0.1,0c0.1,0,0.1,0,0.2,0
	c0,0,0.1,0,0.1,0c0.1,0,0.1,0,0.2,0c0.1,0,0.1,0,0.2,0c0.1,0,0.1,0,0.2,0c0,0,0.1,0,0.1,0c0.1,0,0.1,0,0.2,0c0,0,0.1,0,0.1,0h0.3
	c0.1,0,0.1,0,0.2,0c0.1,0,0.1,0,0.1,0c0.1,0,0.1,0,0.2,0c0,0,0.1,0,0.1,0c0.1,0,0.2,0,0.2,0c0,0,0.1,0,0.1,0c0.1,0,0.2,0,0.2,0
	c0,0,0.1,0,0.1,0c0.1,0,0.2,0,0.3,0c0,0,0,0,0.1,0c0.1,0,0.2,0,0.4,0c0,0,0,0,0.1,0c0.1,0,0.2,0,0.3,0c0,0,0.1,0,0.1,0
	c0.1,0,0.2,0,0.3,0c0,0,0.1,0,0.1,0c0.1,0,0.3,0,0.4-0.1c0,0,0.1,0,0.1,0c0.1,0,0.2,0,0.3-0.1c0,0,0.1,0,0.1,0c0.1,0,0.1,0,0.2,0
	c0,0,0.1,0,0.1,0c0.1,0,0.1,0,0.2,0c0,0,0.1,0,0.1,0c0.1,0,0.1,0,0.2,0c0,0,0.1,0,0.1,0c0.1,0,0.1,0,0.2,0c0,0,0.1,0,0.1,0
	c0.1,0,0.1,0,0.2,0c0,0,0.1,0,0.1,0c0.1,0,0.1,0,0.2-0.1c0,0,0.1,0,0.1,0c0.1,0,0.2,0,0.2-0.1c0,0,0,0,0.1,0c0.1,0,0.2-0.1,0.3-0.1
	c0,0,0,0,0,0c0.1,0,0.2-0.1,0.3-0.1c0,0,0.1,0,0.1,0c0.1,0,0.2-0.1,0.3-0.1c0,0,0.1,0,0.1,0c0.1,0,0.2-0.1,0.3-0.1c0,0,0,0,0.1,0
	c0.1,0,0.2-0.1,0.3-0.1c0,0,0.1,0,0.1,0c0.1,0,0.2-0.1,0.3-0.1c0,0,0,0,0.1,0c0.1-0.1,0.2-0.1,0.3-0.2c0,0,0.1,0,0.1,0
	c0.1,0,0.2-0.1,0.2-0.1c0,0,0.1,0,0.1,0c0.1-0.1,0.2-0.1,0.3-0.2c0.1,0,0.1-0.1,0.2-0.1c0,0,0.1-0.1,0.1-0.1c0,0,0.1,0,0.1-0.1
	c0,0,0.1-0.1,0.1-0.1c0,0,0.1,0,0.1-0.1c0,0,0.1-0.1,0.1-0.1c0,0,0.1,0,0.1-0.1c0,0,0.1-0.1,0.1-0.1c0,0,0.1,0,0.1-0.1
	c0,0,0.1-0.1,0.1-0.1c0,0,0.1,0,0.1-0.1c0,0,0.1-0.1,0.1-0.1c0,0,0.1-0.1,0.1-0.1c0,0,0.1-0.1,0.1-0.1c0,0,0.1-0.1,0.1-0.1
	c0,0,0.1-0.1,0.1-0.1c0,0,0.1-0.1,0.1-0.1c0,0,0,0,0,0c0,0,0.1-0.1,0.1-0.1c0,0,0,0,0,0c0.1-0.1,0.1-0.1,0.1-0.2c0,0,0,0,0,0
	c0,0,0.1-0.1,0.1-0.1c0,0,0,0,0,0c0-0.1,0.1-0.1,0.1-0.2c0,0,0,0,0,0c0,0,0.1-0.1,0.1-0.1c0,0,0,0,0,0c0,0,0-0.1,0.1-0.1
	c0,0,0.1-0.1,0.1-0.1c0,0,0-0.1,0.1-0.1c0,0,0.1-0.1,0.1-0.1c0,0,0-0.1,0.1-0.1c0,0,0.1-0.1,0.1-0.1c0,0,0-0.1,0-0.1
	c0,0,0.1-0.1,0.1-0.1c0,0,0,0,0-0.1c0,0,0-0.1,0.1-0.1c0,0,0,0,0-0.1c0,0,0-0.1,0.1-0.1c0,0,0,0,0-0.1c0-0.1,0.1-0.1,0.1-0.2
	c0,0,0,0,0,0c0-0.1,0-0.1,0.1-0.2c0,0,0,0,0-0.1c0,0,0-0.1,0-0.1c0,0,0-0.1,0-0.1c0,0,0-0.1,0-0.1c0,0,0-0.1,0-0.1c0,0,0-0.1,0-0.1
	c0,0,0-0.1,0-0.1c0,0,0-0.1,0-0.1l0-0.1c0,0,0-0.1,0-0.1c0,0,0,0,0,0c0,0,0,0,0,0c0,0.2,0,0.3,0,0.5c0,0.1,0,0.2,0,0.3v0
	c0,0.7,0,1.5,0,2.2c0,0,0,0.1,0,0.1v0c0,0,0,0,0,0c0,0,0,0.1,0,0.1c0,0,0,0.1,0,0.1c0,0,0,0.1,0,0.1c0,0,0,0.1,0,0.1
	c0,0,0,0.1,0,0.1c0,0,0,0.1,0,0.1c0,0,0,0.1,0,0.1c0,0,0,0,0,0.1c0,0,0,0,0,0c0,0,0,0.1,0,0.1c0,0,0,0.1,0,0.1c0,0,0,0.1,0,0.1
	c0,0,0,0.1,0,0.1c0,0,0,0.1,0,0.1c0,0,0,0.1,0,0.1c0,0,0,0.1,0,0.1c0,0,0,0,0,0.1c0,0,0,0,0,0c0,0.1,0,0.1-0.1,0.2c0,0,0,0,0,0
	c0,0.1-0.1,0.1-0.1,0.2c0,0,0,0,0,0.1c0,0,0,0.1-0.1,0.1c0,0,0,0,0,0.1c0,0,0,0.1-0.1,0.1c0,0,0,0,0,0c0,0,0,0,0,0.1
	c0,0-0.1,0.1-0.1,0.1c0,0,0,0.1,0,0.1c0,0-0.1,0.1-0.1,0.1c0,0,0,0.1-0.1,0.1c0,0-0.1,0.1-0.1,0.1c0,0,0,0.1-0.1,0.1
	c0,0-0.1,0.1-0.1,0.1c0,0,0,0,0,0.1c0,0,0,0,0,0c0,0,0,0,0,0c0,0-0.1,0.1-0.1,0.1c0,0,0,0,0,0c0,0.1-0.1,0.1-0.1,0.2c0,0,0,0,0,0
	c0,0-0.1,0.1-0.1,0.1c0,0,0,0,0,0c0,0.1-0.1,0.1-0.1,0.2c0,0,0,0,0,0c0,0-0.1,0.1-0.1,0.1c0,0,0,0,0,0c0,0,0,0,0,0
	c0,0-0.1,0-0.1,0.1c0,0-0.1,0.1-0.1,0.1c0,0-0.1,0.1-0.1,0.1c0,0-0.1,0.1-0.1,0.1c0,0-0.1,0.1-0.1,0.1c0,0-0.1,0.1-0.1,0.1
	c0,0-0.1,0-0.1,0.1c0,0-0.1,0.1-0.1,0.1c0,0-0.1,0.1-0.1,0.1c0,0-0.1,0.1-0.1,0.1c0,0-0.1,0-0.1,0.1c0,0-0.1,0.1-0.1,0.1
	c0,0-0.1,0-0.1,0.1c0,0-0.1,0.1-0.1,0.1c0,0-0.1,0-0.1,0.1c0,0-0.1,0.1-0.1,0.1c0,0,0,0,0,0c-0.1,0-0.1,0.1-0.2,0.1
	c-0.1,0.1-0.2,0.1-0.3,0.2c0,0-0.1,0-0.1,0c-0.1,0-0.2,0.1-0.2,0.1c0,0-0.1,0-0.1,0c-0.1,0.1-0.2,0.1-0.3,0.2c0,0,0,0-0.1,0
	c-0.1,0-0.2,0.1-0.3,0.1c0,0-0.1,0-0.1,0c-0.1,0-0.2,0.1-0.3,0.1c0,0,0,0-0.1,0c-0.1,0-0.2,0.1-0.3,0.1c0,0-0.1,0-0.1,0
	c-0.1,0-0.2,0.1-0.3,0.1c0,0-0.1,0-0.1,0c-0.1,0-0.2,0.1-0.3,0.1c0,0,0,0,0,0c0,0,0,0,0,0c-0.1,0-0.2,0.1-0.3,0.1c0,0-0.1,0-0.1,0
	c-0.1,0-0.1,0-0.2,0.1c0,0-0.1,0-0.1,0c-0.1,0-0.1,0-0.2,0.1c0,0-0.1,0-0.1,0c-0.1,0-0.1,0-0.2,0c0,0-0.1,0-0.1,0
	c-0.1,0-0.1,0-0.2,0c-0.1,0-0.1,0-0.1,0c-0.1,0-0.1,0-0.2,0c0,0-0.1,0-0.1,0c-0.1,0-0.1,0-0.2,0c-0.1,0-0.1,0-0.2,0
	c-0.1,0-0.1,0-0.2,0l-0.1,0c0,0,0,0-0.1,0c-0.1,0-0.2,0-0.3,0.1c0,0-0.1,0-0.1,0c-0.1,0-0.3,0-0.4,0.1c0,0-0.1,0-0.1,0
	c-0.1,0-0.2,0-0.3,0c0,0-0.1,0-0.1,0c-0.1,0-0.2,0-0.3,0c0,0,0,0-0.1,0c0,0,0,0,0,0c-0.1,0-0.2,0-0.4,0c0,0,0,0-0.1,0l-0.3,0
	c0,0-0.1,0-0.1,0c-0.1,0-0.2,0-0.2,0c0,0-0.1,0-0.1,0c-0.1,0-0.1,0-0.2,0c0,0,0,0-0.1,0c0,0,0,0-0.1,0c-0.1,0-0.1,0-0.2,0
	c-0.1,0-0.1,0-0.2,0c-0.1,0-0.1,0-0.2,0c0,0-0.1,0-0.2,0h-0.2c-0.1,0-0.1,0-0.1,0c-0.1,0-0.1,0-0.2,0c0,0-0.1,0-0.1,0h0
	c-0.1,0-0.1,0-0.2,0c-0.1,0-0.1,0-0.2,0c-0.1,0-0.1,0-0.2,0c0,0-0.1,0-0.1,0c-0.1,0-0.1,0-0.2,0c0,0-0.1,0-0.1,0c-0.1,0-0.1,0-0.2,0
	c0,0-0.1,0-0.1,0c0,0,0,0,0,0c-0.1,0-0.1,0-0.2,0c0,0-0.1,0-0.1,0c-0.1,0-0.2,0-0.3,0c0,0,0,0-0.1,0c-0.2,0-0.4-0.1-0.7-0.1
	c0,0,0,0,0,0c0,0,0,0-0.1,0c-0.1,0-0.2,0-0.3,0c0,0-0.1,0-0.1,0c-0.1,0-0.1,0-0.2,0c0,0-0.1,0-0.1,0c-0.1,0-0.1,0-0.2,0
	c0,0-0.1,0-0.1,0c-0.1,0-0.1,0-0.2,0c0,0,0,0,0,0c0,0-0.1,0-0.1,0c-0.1,0-0.1,0-0.2,0c0,0-0.1,0-0.1,0c-0.1,0-0.1,0-0.2-0.1
	c0,0-0.1,0-0.1,0c-0.1,0-0.1,0-0.2-0.1c0,0-0.1,0-0.1,0c-0.1,0-0.2,0-0.3-0.1c0,0,0,0-0.1,0c0,0,0,0,0,0c-0.1,0-0.3-0.1-0.4-0.1
	c0,0-0.1,0-0.1,0c-0.1,0-0.2-0.1-0.3-0.1c0,0-0.1,0-0.1,0c-0.1,0-0.2-0.1-0.4-0.1c0,0-0.1,0-0.1,0c-0.1,0-0.2-0.1-0.3-0.1
	c0,0,0,0-0.1,0c0,0,0,0-0.1,0c0,0-0.1,0-0.1,0c-0.1,0-0.1,0-0.2-0.1c0,0-0.1,0-0.1-0.1c0,0-0.1,0-0.1-0.1c0,0-0.1,0-0.1-0.1
	c-0.1,0-0.1,0-0.1-0.1c0,0-0.1,0-0.1-0.1c0,0-0.1,0-0.1-0.1c0,0-0.1,0-0.1-0.1c-0.1,0-0.1-0.1-0.2-0.1c0,0-0.1,0-0.1-0.1
	c-0.1,0-0.1-0.1-0.2-0.1c0,0-0.1,0-0.1,0c-0.1,0-0.2-0.1-0.2-0.1c-2.7-1.6-4.1-3.6-4.1-5.7c0-0.6,0-1.3,0-1.9c0-0.1,0-0.2,0-0.3
	c0-0.2,0-0.3,0-0.5L34.6,11.1z"/>
<linearGradient id="Path_35_" gradientUnits="userSpaceOnUse" x1="-336.3206" y1="418.018" x2="-335.3206" y2="418.018" gradientTransform="matrix(27.525 0 0 -15.9684 9291.7598 6686.9458)">
	<stop  offset="0" style="stop-color:#573E94"/>
	<stop  offset="1" style="stop-color:#896CBF"/>
</linearGradient>
<path id="Path_14_" class="st20" d="M62.1,12.1L62.1,12.1c-0.1,2-1.4,3.9-4,5.4c-5.4,3.1-14.1,3.1-19.5,0c-3-1.7-4.3-4.1-4-6.3
	c0.3-1.8,1.6-3.6,3.9-4.9c0,0,0.1,0,0.1-0.1c5.4-3.1,14-3,19.3,0.1c2.4,1.4,3.7,3.2,4,5c0,0.2,0,0.3,0,0.5
	C62.1,11.9,62.1,12,62.1,12.1z"/>
<linearGradient id="Path_36_" gradientUnits="userSpaceOnUse" x1="-334.6049" y1="412.9164" x2="-332.5727" y2="413.1936" gradientTransform="matrix(22.6089 0 0 -13.1149 7578.5151 5430.0127)">
	<stop  offset="0" style="stop-color:#573E94"/>
	<stop  offset="1" style="stop-color:#A084D3"/>
</linearGradient>
<path id="Path_15_" class="st21" d="M56.3,7.2c4.4,2.6,4.5,6.7,0.1,9.3c-4.4,2.6-11.6,2.6-16,0c-4.4-2.6-4.5-6.7-0.1-9.3
	C44.7,4.7,51.9,4.7,56.3,7.2z"/>
<linearGradient id="Path_37_" gradientUnits="userSpaceOnUse" x1="-336.3206" y1="414.2893" x2="-335.3206" y2="414.2893" gradientTransform="matrix(27.525 0 0 -13.6967 9291.7598 5687.4185)">
	<stop  offset="0" style="stop-color:#432A7F"/>
	<stop  offset="1" style="stop-color:#896CBF"/>
</linearGradient>
<path id="Path_16_" class="st22" d="M62.1,12.1L62.1,12.1c-0.1,2-1.4,3.9-4,5.4c-5.4,3.1-14.1,3.1-19.5,0c-3-1.7-4.3-4.1-4-6.3
	c0.3-1.8,1.6-3.6,3.9-4.9c0,0,0.1,0,0.1-0.1c0.7,0.1,1.6,0.3,2.4,0.7c-0.3,0.1-0.5,0.3-0.8,0.4c-4.4,2.6-4.4,6.7,0.1,9.3
	c4.4,2.6,11.6,2.6,16,0c1.7-1,2.7-2.2,3.1-3.5c0.9-0.3,1.8-0.8,2.6-1.3C62.1,11.9,62.1,12,62.1,12.1z"/>
<linearGradient id="Path_38_" gradientUnits="userSpaceOnUse" x1="-332.7719" y1="409.4055" x2="-331.7719" y2="409.4055" gradientTransform="matrix(22.392 0 0 -11.5455 7502.8198 4739.314)">
	<stop  offset="0" style="stop-color:#5729AD"/>
	<stop  offset="1" style="stop-color:#382251"/>
</linearGradient>
<path id="Path_17_" class="st23" d="M59.4,13.1c-0.4,1.2-1.4,2.4-3.1,3.3c-4.4,2.6-11.6,2.6-16,0c-4.4-2.6-4.5-6.7-0.1-9.3
	C40.5,7,40.7,6.9,41,6.8c1.2,0.5,2.5,1.4,3.4,2.9C46.7,13.4,53.4,15.3,59.4,13.1z"/>
<linearGradient id="Path_39_" gradientUnits="userSpaceOnUse" x1="-322.8411" y1="419.7663" x2="-324.0799" y2="416.633" gradientTransform="matrix(13.9295 0 0 -15.9655 4560.5356 6685.7017)">
	<stop  offset="0" style="stop-color:#FFFFFF"/>
	<stop  offset="0.137" style="stop-color:#FBFBFF;stop-opacity:0.3016"/>
	<stop  offset="1" style="stop-color:#8366BA"/>
</linearGradient>
<path id="Path_18_" class="st24" d="M62.1,12.1L62.1,12.1c-0.1,2-1.4,3.9-4,5.4c-2.7,1.6-6.3,2.4-9.8,2.3c3.5,0,6.9-0.8,9.6-2.3
	c2.6-1.5,3.9-3.5,4-5.4v0c0-0.1,0-0.2,0-0.4c0-0.2,0-0.3,0-0.5c-0.3-1.8-1.6-3.6-4-5c-2.7-1.5-6.1-2.3-9.6-2.3
	c3.6,0,7.1,0.8,9.9,2.3c2.4,1.4,3.8,3.2,4,5c0,0.2,0,0.3,0,0.5C62.1,11.9,62.1,12,62.1,12.1z"/>
<linearGradient id="Path_40_" gradientUnits="userSpaceOnUse" x1="-331.4975" y1="389.1477" x2="-333.6858" y2="389.2369" gradientTransform="matrix(22.6091 0 0 -7.0006 7578.6011 2733.5784)">
	<stop  offset="0" style="stop-color:#FFFFFF"/>
	<stop  offset="1" style="stop-color:#AD9DEC"/>
</linearGradient>
<path id="Path_19_" class="st25" d="M59.6,12.3c-0.2-1.5-1.3-3.1-3.3-4.2c-4.4-2.6-11.6-2.6-16,0c-2,1.2-3.1,2.7-3.3,4.2
	c-0.2-1.8,0.9-3.7,3.3-5c4.4-2.6,11.6-2.6,16,0C58.7,8.6,59.8,10.5,59.6,12.3z"/>
<linearGradient id="Path_41_" gradientUnits="userSpaceOnUse" x1="-316.1182" y1="414.8283" x2="-317.5438" y2="412.9318" gradientTransform="matrix(11.2223 0 0 -13.2105 3604.5964 5472.1416)">
	<stop  offset="0" style="stop-color:#FFFFFF"/>
	<stop  offset="0.137" style="stop-color:#FBFBFF;stop-opacity:0.3016"/>
	<stop  offset="1" style="stop-color:#432A79"/>
</linearGradient>
<path id="Path_20_" class="st26" d="M48.2,18.5c-2.8,0-5.7-0.7-7.9-1.9c-4.4-2.6-4.5-6.8-0.1-9.4c2.2-1.3,5-1.9,7.9-1.9
	c-2.8,0-5.6,0.7-7.8,1.9c-4.4,2.6-4.3,6.8,0.1,9.4C42.6,17.8,45.4,18.5,48.2,18.5z"/>
<linearGradient id="Shape_14_" gradientUnits="userSpaceOnUse" x1="-325.907" y1="401.6454" x2="-324.5903" y2="402.1053" gradientTransform="matrix(14.9438 0 0 -9.3034 4889.438 3786.9741)">
	<stop  offset="0" style="stop-color:#F1F1FF;stop-opacity:0.3765"/>
	<stop  offset="1" style="stop-color:#4B44D8;stop-opacity:0.6822"/>
</linearGradient>
<path id="Shape_2_" class="st27" d="M37.8,44.8c0,0-12.8,7.2-13.3,7.5c0,0,0,0-0.1,0c-0.4,0.3-1,0.1-1.3-0.3c0-0.1-0.4-0.7,0.3-1.3
	c0,0,0,0,0,0c0,0,0.1,0,0.1-0.1c0.1,0,0.2-0.1,0.4-0.2c0.3-0.2,12.9-7.3,12.9-7.3c0.1,0,0.4-0.2,0.9,0.4
	C38.1,44.1,38,44.7,37.8,44.8z"/>
<linearGradient id="Shape_21_" gradientUnits="userSpaceOnUse" x1="-81.7723" y1="224.7799" x2="-81.6274" y2="227.5361" gradientTransform="matrix(1.3079 0 0 -1.6803 144.1548 425.2089)">
	<stop  offset="0" style="stop-color:#FFFFFF"/>
	<stop  offset="1" style="stop-color:#A199FF"/>
</linearGradient>
<path id="Shape_3_" class="st28" d="M38,44.4c0,0.4-0.3,0.6-0.7,0.4c-0.4-0.2-0.7-0.7-0.7-1.1c0-0.4,0.3-0.6,0.7-0.4
	C37.7,43.5,38,44,38,44.4z"/>
<linearGradient id="Oval_16_" gradientUnits="userSpaceOnUse" x1="168.6493" y1="-89.0092" x2="165.4713" y2="-92.7867" gradientTransform="matrix(0.6763 0 0 -0.6763 -79.7219 -14.9712)">
	<stop  offset="0" style="stop-color:#FFFFFF"/>
	<stop  offset="0.1458" style="stop-color:#FFFFFF"/>
	<stop  offset="0.6612" style="stop-color:#DBFBFF"/>
	<stop  offset="1" style="stop-color:#FFFFFF"/>
</linearGradient>
<path id="Oval_4_" class="st29" d="M33.6,46.5c0.2,0,0.3-0.2,0.3-0.3s-0.2-0.3-0.3-0.3c-0.2,0-0.3,0.2-0.3,0.3S33.4,46.5,33.6,46.5z
	"/>
<linearGradient id="Oval_17_" gradientUnits="userSpaceOnUse" x1="168.6486" y1="-89.0094" x2="165.4706" y2="-92.7868" gradientTransform="matrix(0.6763 0 0 -0.6763 -80.7376 -14.3148)">
	<stop  offset="0" style="stop-color:#FFFFFF"/>
	<stop  offset="0.1458" style="stop-color:#FFFFFF"/>
	<stop  offset="0.6612" style="stop-color:#DBFBFF"/>
	<stop  offset="1" style="stop-color:#FFFFFF"/>
</linearGradient>
<path id="Oval_5_" class="st30" d="M32.6,47.1c0.2,0,0.3-0.2,0.3-0.3s-0.2-0.3-0.3-0.3s-0.3,0.2-0.3,0.3S32.4,47.1,32.6,47.1z"/>
<linearGradient id="Oval_18_" gradientUnits="userSpaceOnUse" x1="168.6486" y1="-89.009" x2="165.4706" y2="-92.7865" gradientTransform="matrix(0.6763 0 0 -0.6763 -81.9726 -13.6146)">
	<stop  offset="0" style="stop-color:#FFFFFF"/>
	<stop  offset="0.1458" style="stop-color:#FFFFFF"/>
	<stop  offset="0.6612" style="stop-color:#DBFBFF"/>
	<stop  offset="1" style="stop-color:#FFFFFF"/>
</linearGradient>
<path id="Oval_6_" class="st31" d="M31.3,47.8c0.2,0,0.3-0.2,0.3-0.3s-0.2-0.3-0.3-0.3S31,47.3,31,47.5S31.1,47.8,31.3,47.8z"/>
<linearGradient id="Oval_19_" gradientUnits="userSpaceOnUse" x1="168.6493" y1="-89.0094" x2="165.4713" y2="-92.7868" gradientTransform="matrix(0.6763 0 0 -0.6763 -78.7682 -15.5105)">
	<stop  offset="0" style="stop-color:#FFFFFF"/>
	<stop  offset="0.1458" style="stop-color:#FFFFFF"/>
	<stop  offset="0.6612" style="stop-color:#DBFBFF"/>
	<stop  offset="1" style="stop-color:#FFFFFF"/>
</linearGradient>
<path id="Oval_7_" class="st32" d="M34.5,45.9c0.2,0,0.3-0.2,0.3-0.3s-0.2-0.3-0.3-0.3s-0.3,0.2-0.3,0.3S34.4,45.9,34.5,45.9z"/>
<linearGradient id="Shape_26_" gradientUnits="userSpaceOnUse" x1="-372.6152" y1="401.6454" x2="-371.2986" y2="402.1053" gradientTransform="matrix(-14.9438 0 0 -9.3034 -5490.438 3786.9741)">
	<stop  offset="0" style="stop-color:#F1F1FF;stop-opacity:0.3765"/>
	<stop  offset="1" style="stop-color:#4B44D8;stop-opacity:0.6822"/>
</linearGradient>
<path id="Shape_4_" class="st33" d="M59.2,44.8c0,0,12.8,7.2,13.3,7.5c0,0,0,0,0.1,0c0.4,0.3,1,0.1,1.3-0.3c0-0.1,0.4-0.7-0.3-1.3
	c0,0,0,0,0,0c0,0-0.1,0-0.1-0.1c-0.1,0-0.2-0.1-0.4-0.2c-0.3-0.2-12.9-7.3-12.9-7.3c-0.1,0-0.4-0.2-0.9,0.4
	C58.9,44.1,59,44.7,59.2,44.8z"/>
<linearGradient id="Shape_27_" gradientUnits="userSpaceOnUse" x1="-615.4455" y1="224.7799" x2="-615.3005" y2="227.5361" gradientTransform="matrix(-1.3079 0 0 -1.6803 -745.1548 425.2089)">
	<stop  offset="0" style="stop-color:#FFFFFF"/>
	<stop  offset="1" style="stop-color:#A199FF"/>
</linearGradient>
<path id="Shape_5_" class="st34" d="M59,44.4c0,0.4,0.3,0.6,0.7,0.4c0.4-0.2,0.7-0.7,0.7-1.1c0-0.4-0.3-0.6-0.7-0.4
	C59.3,43.5,59,44,59,44.4z"/>
<linearGradient id="Oval_20_" gradientUnits="userSpaceOnUse" x1="-863.4326" y1="-89.0092" x2="-866.6106" y2="-92.7867" gradientTransform="matrix(-0.6763 0 0 -0.6763 -521.2781 -14.9712)">
	<stop  offset="0" style="stop-color:#FFFFFF"/>
	<stop  offset="0.1458" style="stop-color:#FFFFFF"/>
	<stop  offset="0.6612" style="stop-color:#DBFBFF"/>
	<stop  offset="1" style="stop-color:#FFFFFF"/>
</linearGradient>
<path id="Oval_8_" class="st35" d="M63.4,46.5c-0.2,0-0.3-0.2-0.3-0.3s0.2-0.3,0.3-0.3c0.2,0,0.3,0.2,0.3,0.3S63.6,46.5,63.4,46.5z"
	/>
<linearGradient id="Oval_21_" gradientUnits="userSpaceOnUse" x1="-863.4318" y1="-89.0094" x2="-866.6099" y2="-92.7868" gradientTransform="matrix(-0.6763 0 0 -0.6763 -520.2625 -14.3148)">
	<stop  offset="0" style="stop-color:#FFFFFF"/>
	<stop  offset="0.1458" style="stop-color:#FFFFFF"/>
	<stop  offset="0.6612" style="stop-color:#DBFBFF"/>
	<stop  offset="1" style="stop-color:#FFFFFF"/>
</linearGradient>
<path id="Oval_9_" class="st36" d="M64.4,47.1c-0.2,0-0.3-0.2-0.3-0.3s0.2-0.3,0.3-0.3c0.2,0,0.3,0.2,0.3,0.3S64.6,47.1,64.4,47.1z"
	/>
<linearGradient id="Oval_22_" gradientUnits="userSpaceOnUse" x1="-863.4318" y1="-89.009" x2="-866.6099" y2="-92.7865" gradientTransform="matrix(-0.6763 0 0 -0.6763 -519.0274 -13.6146)">
	<stop  offset="0" style="stop-color:#FFFFFF"/>
	<stop  offset="0.1458" style="stop-color:#FFFFFF"/>
	<stop  offset="0.6612" style="stop-color:#DBFBFF"/>
	<stop  offset="1" style="stop-color:#FFFFFF"/>
</linearGradient>
<path id="Oval_10_" class="st37" d="M65.7,47.8c-0.2,0-0.3-0.2-0.3-0.3s0.2-0.3,0.3-0.3c0.2,0,0.3,0.2,0.3,0.3S65.9,47.8,65.7,47.8z
	"/>
<linearGradient id="Oval_23_" gradientUnits="userSpaceOnUse" x1="-863.4326" y1="-89.0094" x2="-866.6106" y2="-92.7868" gradientTransform="matrix(-0.6763 0 0 -0.6763 -522.2318 -15.5105)">
	<stop  offset="0" style="stop-color:#FFFFFF"/>
	<stop  offset="0.1458" style="stop-color:#FFFFFF"/>
	<stop  offset="0.6612" style="stop-color:#DBFBFF"/>
	<stop  offset="1" style="stop-color:#FFFFFF"/>
</linearGradient>
<path id="Oval_11_" class="st38" d="M62.5,45.9c-0.2,0-0.3-0.2-0.3-0.3s0.2-0.3,0.3-0.3s0.3,0.2,0.3,0.3S62.6,45.9,62.5,45.9z"/>
<linearGradient id="XMLID_2_" gradientUnits="userSpaceOnUse" x1="-326.0075" y1="435.2994" x2="-326.4692" y2="432.7124" gradientTransform="matrix(15.7863 0 0 -49.5527 5173.9526 21520.1074)">
	<stop  offset="0" style="stop-color:#FFFFFF"/>
	<stop  offset="1" style="stop-color:#AB9BE6"/>
</linearGradient>
<path id="XMLID_1393_" class="st39" d="M14.2,34.8l-0.7,41l0,0c0.4,0.2,0.9,0.2,1.4,0l13.8-8c0.4-0.2,0.6-0.6,0.6-1.1V26.4
	L14.2,34.8z"/>
<linearGradient id="XMLID_3_" gradientUnits="userSpaceOnUse" x1="-323.7309" y1="432.3383" x2="-323.8702" y2="433.4532" gradientTransform="matrix(14.1505 0 0 -48.9864 4589.5674 21270.8359)">
	<stop  offset="0" style="stop-color:#FFFFFF"/>
	<stop  offset="1" style="stop-color:#AB9BE6"/>
</linearGradient>
<path id="XMLID_1391_" class="st40" d="M0.1,26.8v40.2c0,0.4,0.2,0.9,0.6,1.1l12.9,7.6c0.3,0.2,0.7,0,0.7-0.4v-41L0.1,26.8z"/>
<linearGradient id="XMLID_4_" gradientUnits="userSpaceOnUse" x1="-337.0715" y1="419.6378" x2="-336.0715" y2="419.6378" gradientTransform="matrix(29.2576 0 0 -17.2082 9861.9668 7247.8667)">
	<stop  offset="0" style="stop-color:#573E94"/>
	<stop  offset="1" style="stop-color:#896CBF"/>
</linearGradient>
<path id="XMLID_1389_" class="st41" d="M0.3,27.2L13.4,35c0.6,0.4,1.3,0.4,1.9,0L29,27c0.4-0.2,0.4-0.8,0-1l-13.9-7.7
	c-0.6-0.3-1.3-0.3-1.9,0.1l-13,8.2C0,26.7,0,27.1,0.3,27.2z"/>
<path id="Shape_6_" class="st42" d="M19.9,70.2l0.2-0.1c0.6-0.3,1-1.2,1-1.9V35.3c0-0.7-0.4-1.1-1-0.8l-0.2,0.1
	c-0.6,0.3-1,1.2-1,1.9v32.9C18.9,70.2,19.3,70.5,19.9,70.2z"/>
<path id="Shape_7_" class="st42" d="M23.5,68.1l0.2-0.1c0.6-0.3,1-1.2,1-1.9V33.2c0-0.7-0.4-1.1-1-0.8l-0.2,0.1
	c-0.6,0.3-1,1.2-1,1.9v32.9C22.5,68.1,22.9,68.4,23.5,68.1z"/>
<path id="Shape_8_" class="st43" d="M29.3,57.9l-2.4,1.4c-0.4,0.2-0.9-0.1-0.9-0.5V40.3c0-0.4,0.2-0.7,0.5-0.9l2.7-1.6"/>
<path id="Shape_9_" class="st43" d="M0.1,37.1l13.4,7.4c0.5,0.3,1.1,0.3,1.5,0l2-1.1c0.3-0.2,0.5,0,0.5,0.3v18.5
	c0,0.5-0.4,1.2-0.9,1.5L15,64.6c-0.5,0.3-1.1,0.3-1.6,0L0.1,56.7"/>
<linearGradient id="SVGID_1_" gradientUnits="userSpaceOnUse" x1="-4.5613" y1="319.0026" x2="-4.7639" y2="316.8305" gradientTransform="matrix(1.0151 0 0 -2.9255 20.9705 980.2693)">
	<stop  offset="0" style="stop-color:#8AF0E8"/>
	<stop  offset="1" style="stop-color:#4AC7CC"/>
</linearGradient>
<path class="st44" d="M16.3,52L16.3,52c-0.3,0.1-0.5,0-0.5-0.2v-2.2c0-0.2,0.2-0.4,0.5-0.5l0.1,0c0.3-0.1,0.5,0,0.5,0.2v2.2
	C16.7,51.7,16.5,51.9,16.3,52z"/>
<linearGradient id="SVGID_2_" gradientUnits="userSpaceOnUse" x1="-4.5613" y1="318.9974" x2="-4.7639" y2="316.8252" gradientTransform="matrix(1.0151 0 0 -2.9254 20.9705 983.6108)">
	<stop  offset="0" style="stop-color:#8AF0E8"/>
	<stop  offset="1" style="stop-color:#4AC7CC"/>
</linearGradient>
<path class="st45" d="M16.3,55.4L16.3,55.4c-0.3,0.1-0.5,0-0.5-0.2v-2.2c0-0.2,0.2-0.4,0.5-0.5l0.1,0c0.3-0.1,0.5,0,0.5,0.2v2.2
	C16.7,55.1,16.5,55.3,16.3,55.4z"/>
<linearGradient id="SVGID_3_" gradientUnits="userSpaceOnUse" x1="-4.5613" y1="318.9974" x2="-4.7639" y2="316.8252" gradientTransform="matrix(1.0151 0 0 -2.9254 20.9705 987.0074)">
	<stop  offset="0" style="stop-color:#8AF0E8"/>
	<stop  offset="1" style="stop-color:#4AC7CC"/>
</linearGradient>
<path class="st46" d="M16.3,58.8L16.3,58.8c-0.3,0.1-0.5,0-0.5-0.2v-2.2c0-0.2,0.2-0.4,0.5-0.5l0.1,0c0.3-0.1,0.5,0,0.5,0.2v2.2
	C16.7,58.5,16.5,58.7,16.3,58.8z"/>
<linearGradient id="SVGID_4_" gradientUnits="userSpaceOnUse" x1="-4.5612" y1="318.9974" x2="-4.7639" y2="316.8252" gradientTransform="matrix(1.0151 0 0 -2.9254 33.0257 975.0317)">
	<stop  offset="0" style="stop-color:#8AF0E8"/>
	<stop  offset="1" style="stop-color:#4AC7CC"/>
</linearGradient>
<path class="st47" d="M28.3,46.8L28.3,46.8c-0.3,0.1-0.5,0-0.5-0.2v-2.2c0-0.2,0.2-0.4,0.5-0.5l0.1,0c0.3-0.1,0.5,0,0.5,0.2v2.2
	C28.8,46.5,28.6,46.7,28.3,46.8z"/>
<linearGradient id="SVGID_5_" gradientUnits="userSpaceOnUse" x1="-4.5612" y1="318.9965" x2="-4.7639" y2="316.8243" gradientTransform="matrix(1.0151 0 0 -2.9254 33.0257 978.4189)">
	<stop  offset="0" style="stop-color:#8AF0E8"/>
	<stop  offset="1" style="stop-color:#4AC7CC"/>
</linearGradient>
<path class="st48" d="M28.3,50.2L28.3,50.2c-0.3,0.1-0.5,0-0.5-0.2v-2.2c0-0.2,0.2-0.4,0.5-0.5l0.1,0c0.3-0.1,0.5,0,0.5,0.2v2.2
	C28.8,49.9,28.6,50.1,28.3,50.2z"/>
<linearGradient id="SVGID_6_" gradientUnits="userSpaceOnUse" x1="-4.5612" y1="319.0026" x2="-4.7639" y2="316.8304" gradientTransform="matrix(1.0151 0 0 -2.9255 33.0257 981.88)">
	<stop  offset="0" style="stop-color:#8AF0E8"/>
	<stop  offset="1" style="stop-color:#4AC7CC"/>
</linearGradient>
<path class="st49" d="M28.3,53.6L28.3,53.6c-0.3,0.1-0.5,0-0.5-0.2v-2.2c0-0.2,0.2-0.4,0.5-0.5l0.1,0c0.3-0.1,0.5,0,0.5,0.2v2.2
	C28.8,53.3,28.6,53.5,28.3,53.6z"/>
<path id="Shape_12_" class="st50" d="M20,34.5v-1.7c0-0.3-0.2-0.6-0.5-0.8l-1.7-0.8"/>
<path id="Shape_13_" class="st50" d="M23.6,32.5v-1.7c0-0.3-0.2-0.6-0.5-0.8l-1.7-0.8"/>
<linearGradient id="XMLID_5_" gradientUnits="userSpaceOnUse" x1="-329.4416" y1="412.4275" x2="-331.4171" y2="411.7146" gradientTransform="matrix(20.3589 0 0 -12.4816 6760.5498 5165.8223)">
	<stop  offset="0" style="stop-color:#FFFFFF"/>
	<stop  offset="0.137" style="stop-color:#FBFBFF;stop-opacity:0.3016"/>
	<stop  offset="1" style="stop-color:#3A256C"/>
</linearGradient>
<path id="XMLID_1387_" class="st51" d="M15.3,32.7l9.1-5.3c0.4-0.2,0.2-1.5,0.2-1.6l-10.1-5.4L4.3,26c0,0,0,1.2,0.4,1.5l9,5.2
	C14.2,33,14.8,33,15.3,32.7z"/>
<linearGradient id="XMLID_6_" gradientUnits="userSpaceOnUse" x1="-330.5885" y1="410.3929" x2="-331.9423" y2="410.3929" gradientTransform="matrix(20.315 0 0 -11.9241 6745.2124 4919.5845)">
	<stop  offset="0" style="stop-color:#FFFFFF"/>
	<stop  offset="1" style="stop-color:#E4E2FF"/>
</linearGradient>
<path id="XMLID_1386_" class="st52" d="M15.2,31.8l9.1-5.3c0.4-0.2,0.4-0.7,0-1l-9.2-5.3c-0.4-0.2-0.9-0.2-1.3,0l-9.3,5.4
	c-0.4,0.2-0.4,0.7,0,1l9,5.2C14.1,32.1,14.7,32.1,15.2,31.8z"/>
<linearGradient id="SVGID_7_" gradientUnits="userSpaceOnUse" x1="-298.1517" y1="352.0552" x2="-299.835" y2="351.3311" gradientTransform="matrix(7.0109 0 0 -4.0478 2106.9934 1448.6071)">
	<stop  offset="0" style="stop-color:#7BD8D6"/>
	<stop  offset="1" style="stop-color:#61D6D6"/>
</linearGradient>
<polygon class="st53" points="16.2,22.9 9.8,26.6 9.2,26.2 15.5,22.5 "/>
<linearGradient id="SVGID_8_" gradientUnits="userSpaceOnUse" x1="-298.1527" y1="352.0551" x2="-299.8361" y2="351.3311" gradientTransform="matrix(7.0111 0 0 -4.0478 2108.8303 1449.6765)">
	<stop  offset="0" style="stop-color:#7BD8D6"/>
	<stop  offset="1" style="stop-color:#61D6D6"/>
</linearGradient>
<polygon class="st54" points="18,24 11.6,27.6 11,27.2 17.3,23.6 "/>
<linearGradient id="SVGID_9_" gradientUnits="userSpaceOnUse" x1="-298.1527" y1="352.0552" x2="-299.8361" y2="351.3311" gradientTransform="matrix(7.0111 0 0 -4.0478 2110.6008 1450.6818)">
	<stop  offset="0" style="stop-color:#7BD8D6"/>
	<stop  offset="1" style="stop-color:#61D6D6"/>
</linearGradient>
<polygon class="st55" points="19.7,25 13.4,28.6 12.7,28.3 19.1,24.6 "/>
<linearGradient id="XMLID_7_" gradientUnits="userSpaceOnUse" x1="-326.0075" y1="435.2994" x2="-326.4692" y2="432.7124" gradientTransform="matrix(15.7863 0 0 -49.5527 5242.8843 21519.873)">
	<stop  offset="0" style="stop-color:#FFFFFF"/>
	<stop  offset="1" style="stop-color:#AB9BE6"/>
</linearGradient>
<path id="XMLID_1432_" class="st56" d="M83.1,34.5l-0.7,41l0,0c0.4,0.2,0.9,0.2,1.4,0l13.8-8c0.4-0.2,0.6-0.6,0.6-1.1V26.1
	L83.1,34.5z"/>
<linearGradient id="XMLID_8_" gradientUnits="userSpaceOnUse" x1="-323.7309" y1="432.3383" x2="-323.8702" y2="433.4532" gradientTransform="matrix(14.1505 0 0 -48.9864 4658.4985 21270.6016)">
	<stop  offset="0" style="stop-color:#FFFFFF"/>
	<stop  offset="1" style="stop-color:#AB9BE6"/>
</linearGradient>
<path id="XMLID_1430_" class="st57" d="M69,26.6v40.2c0,0.4,0.2,0.9,0.6,1.1l12.9,7.6c0.3,0.2,0.7,0,0.7-0.4v-41L69,26.6z"/>
<linearGradient id="XMLID_9_" gradientUnits="userSpaceOnUse" x1="-337.0715" y1="419.6378" x2="-336.0715" y2="419.6378" gradientTransform="matrix(29.2576 0 0 -17.2082 9930.8975 7247.6323)">
	<stop  offset="0" style="stop-color:#573E94"/>
	<stop  offset="1" style="stop-color:#896CBF"/>
</linearGradient>
<path id="XMLID_1428_" class="st58" d="M69.2,27l13.1,7.8c0.6,0.4,1.3,0.4,1.9,0l13.7-8c0.4-0.2,0.4-0.8,0-1l-13.9-7.7
	c-0.6-0.3-1.3-0.3-1.9,0.1l-13,8.2C68.9,26.4,68.9,26.8,69.2,27z"/>
<path id="Shape_15_" class="st50" d="M75.3,33.4V31c0-0.2,0.1-0.5,0.3-0.6l14.6-9"/>
<line id="Shape_16_" class="st50" x1="75.5" y1="68.8" x2="75.5" y2="71.4"/>
<path id="Shape_17_" class="st42" d="M75.5,68.9l-0.2-0.1c-0.6-0.3-1-1.2-1-1.9V34c0-0.7,0.4-1.1,1-0.8l0.2,0.1c0.6,0.3,1,1.2,1,1.9
	v32.9C76.5,68.9,76.1,69.2,75.5,68.9z"/>
<linearGradient id="Shape_28_" gradientUnits="userSpaceOnUse" x1="-187.1782" y1="401.4802" x2="-187.2773" y2="399.308" gradientTransform="matrix(2.1642 0 0 -8.9215 496.6366 3638.186)">
	<stop  offset="0" style="stop-color:#8AF0E8"/>
	<stop  offset="1" style="stop-color:#4AC7CC"/>
</linearGradient>
<path id="Shape_18_" class="st59" d="M92.5,70.5v-6.8c0-0.7-0.4-1.1-1-0.8L91.4,63c-0.6,0.3-1,1.2-1,1.9v6.8"/>
<linearGradient id="Shape_29_" gradientUnits="userSpaceOnUse" x1="-97.0548" y1="243.5846" x2="-99.9856" y2="239.4526" gradientTransform="matrix(1.399 0 0 -1.7976 229.9891 497.9797)">
	<stop  offset="0" style="stop-color:#FFFFFF"/>
	<stop  offset="1" style="stop-color:#E9FFF9"/>
</linearGradient>
<path id="Shape_19_" class="st60" d="M90.7,65.6c0,0.4,0.3,0.6,0.7,0.4c0.4-0.2,0.7-0.8,0.7-1.2c0-0.4-0.3-0.6-0.7-0.4
	C91,64.6,90.7,65.1,90.7,65.6z"/>
<path id="Shape_20_" class="st61" d="M96.8,57.5L85.6,64c-0.4,0.2-0.9-0.1-0.9-0.5V45c0-0.4,0.2-0.7,0.5-0.9l11.1-6.4
	c0.4-0.2,0.9,0.1,0.9,0.5v18.5C97.3,57,97.1,57.3,96.8,57.5z"/>
<polygon id="XMLID_1426_" class="st62" points="85.6,46.9 96.5,40.6 96.5,39.9 85.6,46.2 "/>
<polygon id="XMLID_1425_" class="st62" points="85.6,50.6 96.5,44.3 96.5,43.6 85.6,49.9 "/>
<polygon id="XMLID_1424_" class="st62" points="85.6,54.3 96.5,48 96.5,47.3 85.6,53.6 "/>
<polygon id="XMLID_1423_" class="st62" points="85.6,58 96.5,51.7 96.5,51 85.6,57.3 "/>
<polygon id="XMLID_1422_" class="st62" points="85.6,61.7 96.5,55.4 96.5,54.7 85.6,61 "/>
<linearGradient id="SVGID_10_" gradientUnits="userSpaceOnUse" x1="68.75" y1="108.0275" x2="67.7306" y2="105.8553" gradientTransform="matrix(0.8375 0 0 -1.0762 32.5245 155.1753)">
	<stop  offset="0" style="stop-color:#94FFF6"/>
	<stop  offset="1" style="stop-color:#40E5C0"/>
</linearGradient>
<path class="st63" d="M89.2,40.4c0,0.3,0.2,0.4,0.4,0.2c0.2-0.1,0.4-0.5,0.4-0.7s-0.2-0.4-0.4-0.2C89.4,39.8,89.2,40.1,89.2,40.4z"
	/>
<linearGradient id="SVGID_11_" gradientUnits="userSpaceOnUse" x1="68.75" y1="108.0275" x2="67.7306" y2="105.8553" gradientTransform="matrix(0.8375 0 0 -1.0762 34.1396 154.2497)">
	<stop  offset="0" style="stop-color:#94FFF6"/>
	<stop  offset="1" style="stop-color:#40E5C0"/>
</linearGradient>
<path class="st64" d="M90.9,39.4c0,0.3,0.2,0.4,0.4,0.2c0.2-0.1,0.4-0.5,0.4-0.7s-0.2-0.4-0.4-0.2C91,38.8,90.9,39.2,90.9,39.4z"/>
<linearGradient id="SVGID_12_" gradientUnits="userSpaceOnUse" x1="68.75" y1="108.0275" x2="67.7305" y2="105.8553" gradientTransform="matrix(0.8375 0 0 -1.0762 35.7106 153.3424)">
	<stop  offset="0" style="stop-color:#94FFF6"/>
	<stop  offset="1" style="stop-color:#40E5C0"/>
</linearGradient>
<path class="st65" d="M92.4,38.5c0,0.3,0.2,0.4,0.4,0.2s0.4-0.5,0.4-0.7s-0.2-0.4-0.4-0.2S92.4,38.3,92.4,38.5z"/>
<linearGradient id="XMLID_10_" gradientUnits="userSpaceOnUse" x1="-329.4416" y1="412.4275" x2="-331.4171" y2="411.7146" gradientTransform="matrix(20.3589 0 0 -12.4816 6829.2261 5165.5903)">
	<stop  offset="0" style="stop-color:#FFFFFF"/>
	<stop  offset="0.137" style="stop-color:#FBFBFF;stop-opacity:0.3016"/>
	<stop  offset="1" style="stop-color:#3A256C"/>
</linearGradient>
<path id="XMLID_1421_" class="st66" d="M84,32.5l9.1-5.3c0.4-0.2,0.2-1.5,0.2-1.6l-10.1-5.4L73,25.8c0,0,0,1.2,0.4,1.5l9,5.2
	C82.9,32.7,83.5,32.7,84,32.5z"/>
<linearGradient id="XMLID_11_" gradientUnits="userSpaceOnUse" x1="-330.5888" y1="410.8878" x2="-331.9425" y2="410.8878" gradientTransform="matrix(20.3153 0 0 -12.1234 6813.9902 5007.0444)">
	<stop  offset="0" style="stop-color:#FFFFFF"/>
	<stop  offset="1" style="stop-color:#E4E2FF"/>
</linearGradient>
<path id="XMLID_1420_" class="st67" d="M83.9,31.5l9.1-5.3c0.4-0.2,0.4-0.7,0-1l-9.8-5.7l-9.9,5.7c-0.4,0.2-0.4,0.7,0,1l9,5.2
	C82.8,31.8,83.4,31.8,83.9,31.5z"/>
<linearGradient id="XMLID_12_" gradientUnits="userSpaceOnUse" x1="-306.5522" y1="364.6788" x2="-305.5522" y2="364.6788" gradientTransform="matrix(8.2219 0 0 -4.7348 2599.3767 1752.3822)">
	<stop  offset="0" style="stop-color:#573E94"/>
	<stop  offset="1" style="stop-color:#896CBF"/>
</linearGradient>
<path id="XMLID_1419_" class="st68" d="M86,27.4c-1.6,0.9-4.2,0.9-5.8,0s-1.6-2.4,0-3.3c1.6-0.9,4.2-0.9,5.8,0
	C87.6,25,87.6,26.5,86,27.4z"/>
<image style="overflow:visible;opacity:0.85;enable-background:new    ;" width="37" height="112" id="Bitmap" xlink:href="63C410FC82446B0E.png"  transform="matrix(0.1425 0 0 0.1452 72.7956 37.9587)">
</image>
<linearGradient id="Shape_30_" gradientUnits="userSpaceOnUse" x1="177.632" y1="410.5585" x2="177.6264" y2="408.3863" gradientTransform="matrix(0.6633 0 0 -11.5202 -42.4338 4761.7109)">
	<stop  offset="0" style="stop-color:#8AF0E8"/>
	<stop  offset="1" style="stop-color:#4AC7CC"/>
</linearGradient>
<path id="Shape_22_" class="st69" d="M75.4,51.8L75.4,51.8c-0.2-0.1-0.4-0.4-0.4-0.6V40.6c0-0.2,0.1-0.3,0.3-0.2l0,0
	c0.2,0.1,0.3,0.4,0.3,0.6v10.6C75.7,51.8,75.6,51.9,75.4,51.8z"/>
<linearGradient id="Shape_31_" gradientUnits="userSpaceOnUse" x1="-228.8556" y1="402.9774" x2="-228.8556" y2="404.0115" gradientTransform="matrix(2.917 0 0 -9.7006 758.962 3981.1958)">
	<stop  offset="0" style="stop-color:#FFFFFF;stop-opacity:0"/>
	<stop  offset="0.1897" style="stop-color:#CCFFF6;stop-opacity:0.1856"/>
	<stop  offset="1" style="stop-color:#8BFFEA"/>
</linearGradient>
<path id="Shape_23_" class="st70" d="M92.9,70.2v-6.8c0-1-0.6-1.5-1.4-1l-0.2,0.1c-0.7,0.4-1.4,1.6-1.4,2.6v6.8"/>
<path id="Shape_24_" class="st43" d="M69,59.1l3.1,1.8c0.4,0.2,0.9-0.1,0.9-0.5V41.9c0-0.4-0.2-0.7-0.5-0.9L69,39"/>
<linearGradient id="Shape_32_" gradientUnits="userSpaceOnUse" x1="-103.7337" y1="403.9842" x2="-103.7715" y2="401.8121" gradientTransform="matrix(1.426 0 0 -9.5133 218.8005 3882.324)">
	<stop  offset="0" style="stop-color:#8AF0E8"/>
	<stop  offset="1" style="stop-color:#4AC7CC"/>
</linearGradient>
<path id="Shape_25_" class="st71" d="M70.9,55.4l-0.1-0.1c-0.4-0.2-0.7-0.8-0.7-1.3v-7.5c0-0.5,0.3-0.7,0.7-0.5l0.1,0.1
	c0.4,0.2,0.7,0.8,0.7,1.3v7.5C71.6,55.4,71.3,55.6,70.9,55.4z"/>
<linearGradient id="XMLID_13_" gradientUnits="userSpaceOnUse" x1="-306.0508" y1="417.666" x2="-306.0538" y2="418.7582" gradientTransform="matrix(8.2219 0 0 -16.0931 2599.3896 6749.5527)">
	<stop  offset="0" style="stop-color:#B5A5E8"/>
	<stop  offset="1" style="stop-color:#FFFFFF;stop-opacity:0"/>
</linearGradient>
<path id="XMLID_1376_" class="st72" d="M79,12.2l8.2-0.7l0,13.7c0,0,0,0,0,0v0h0c0,0.6-0.4,1.2-1.2,1.7c-1.6,0.9-4.2,0.9-5.8,0
	c-0.9-0.5-1.3-1.1-1.2-1.8L79,12.2z"/>
<linearGradient id="XMLID_14_" gradientUnits="userSpaceOnUse" x1="0" y1="399.1629" x2="6.332475e-17" y2="400.1971" gradientTransform="matrix(1 0 0 -8.7941 80.5863 3531.0518)">
	<stop  offset="0" style="stop-color:#FFFFFF;stop-opacity:0"/>
	<stop  offset="0.1897" style="stop-color:#CCFFF6;stop-opacity:0.1856"/>
	<stop  offset="1" style="stop-color:#8BFFEA"/>
</linearGradient>
<line id="XMLID_1371_" class="st73" x1="80.6" y1="11.8" x2="80.6" y2="20.6"/>
<linearGradient id="XMLID_15_" gradientUnits="userSpaceOnUse" x1="0" y1="381.9531" x2="6.332475e-17" y2="382.9873" gradientTransform="matrix(1 0 0 -6.1862 82.9782 2384.8506)">
	<stop  offset="0" style="stop-color:#FFFFFF;stop-opacity:0"/>
	<stop  offset="0.1897" style="stop-color:#CCFFF6;stop-opacity:0.1856"/>
	<stop  offset="1" style="stop-color:#8BFFEA"/>
</linearGradient>
<line id="XMLID_1370_" class="st74" x1="83" y1="15.7" x2="83" y2="21.9"/>
<linearGradient id="XMLID_16_" gradientUnits="userSpaceOnUse" x1="0" y1="399.1629" x2="6.332475e-17" y2="400.1971" gradientTransform="matrix(1 0 0 -8.7941 85.8754 3528.2512)">
	<stop  offset="0" style="stop-color:#FFFFFF;stop-opacity:0"/>
	<stop  offset="0.1897" style="stop-color:#CCFFF6;stop-opacity:0.1856"/>
	<stop  offset="1" style="stop-color:#8BFFEA"/>
</linearGradient>
<line id="XMLID_1369_" class="st75" x1="85.9" y1="9" x2="85.9" y2="17.8"/>
<circle id="XMLID_1368_" class="st76" cx="77.9" cy="17" r="1"/>
<circle id="XMLID_1367_" class="st76" cx="88.3" cy="21" r="1"/>
<circle id="XMLID_1366_" class="st76" cx="84" cy="17.4" r="1"/>
<circle id="XMLID_1365_" class="st76" cx="81.6" cy="22.6" r="1"/>
<circle id="XMLID_1364_" class="st76" cx="87.9" cy="14.4" r="1"/>
<circle id="XMLID_1363_" class="st76" cx="79.1" cy="12.2" r="1"/>
<circle id="XMLID_1362_" class="st76" cx="81.2" cy="19.7" r="1"/>
</svg>
