<svg width="120" height="100" viewBox="0 0 120 100" xmlns="http://www.w3.org/2000/svg" xmlns:xlink="http://www.w3.org/1999/xlink"><defs><linearGradient x1="6.816%" y1="36.794%" x2="68.287%" y2="57.646%" id="a"><stop stop-color="#A38DCD" offset="0%"/><stop stop-color="#6A549E" offset="100%"/></linearGradient><linearGradient x1="-16.214%" y1="50%" y2="50%" id="b"><stop stop-color="#F2F0FF" stop-opacity=".2" offset="0%"/><stop stop-color="#A8A0FB" stop-opacity=".5" offset="100%"/></linearGradient><linearGradient x1="76.15%" y1="38.535%" x2="-23.559%" y2="74.984%" id="c"><stop stop-color="#F9F8FF" offset="0%"/><stop stop-color="#DCD8FF" offset="100%"/></linearGradient><path d="M7.372-.002c1.158 0 2.232.512 3.117 1.384.107.104.213.216.315.332.022.028.047.055.07.082 1.2 1.418 1.964 3.546 1.964 5.922 0 4.265-2.45 7.73-5.466 7.73h-1.68c3.016 0 5.465-3.465 5.465-7.73 0-2.376-.763-4.504-1.963-5.922-.023-.027-.048-.054-.07-.082a5.62 5.62 0 0 0-.316-.332C7.924.51 6.848-.002 5.692-.002h1.68z" id="e"/><filter x="-63%" y="-29.1%" width="225.9%" height="158.3%" filterUnits="objectBoundingBox" id="d"><feOffset in="SourceAlpha" result="shadowOffsetOuter1"/><feGaussianBlur stdDeviation="1.5" in="shadowOffsetOuter1" result="shadowBlurOuter1"/><feColorMatrix values="0 0 0 0 0.822129875 0 0 0 0 0.849562517 0 0 0 0 0.959293089 0 0 0 1 0" in="shadowBlurOuter1"/></filter><linearGradient x1="61.747%" y1="18.247%" x2="-24.446%" y2="210.698%" id="f"><stop stop-color="#F6F5FF" offset="0%"/><stop stop-color="#E9E8F6" offset="100%"/></linearGradient><linearGradient x1="21.833%" y1="0%" x2="91.878%" y2="119.354%" id="g"><stop stop-color="#66E4D5" offset="0%"/><stop stop-color="#36C5AB" offset="100%"/></linearGradient><path d="M4.256 0c.7 0 1.349.322 1.884.87.065.066.129.137.19.21.014.017.03.034.043.052.725.891 1.187 2.23 1.187 3.725 0 2.684-1.48 4.863-3.304 4.863H3.24c1.824 0 3.304-2.18 3.304-4.863 0-1.494-.461-2.834-1.187-3.725-.013-.018-.028-.035-.042-.052a3.481 3.481 0 0 0-.191-.21C4.59.323 3.94 0 3.24 0h1.016z" id="i"/><filter x="-104.2%" y="-46.3%" width="308.3%" height="192.6%" filterUnits="objectBoundingBox" id="h"><feOffset in="SourceAlpha" result="shadowOffsetOuter1"/><feGaussianBlur stdDeviation="1.5" in="shadowOffsetOuter1" result="shadowBlurOuter1"/><feColorMatrix values="0 0 0 0 0.822129875 0 0 0 0 0.849562517 0 0 0 0 0.959293089 0 0 0 1 0" in="shadowBlurOuter1"/></filter><linearGradient x1="60.444%" y1="18.247%" x2="-12.51%" y2="74.984%" id="j"><stop stop-color="#F6F5FF" offset="0%"/><stop stop-color="#E9E8F6" offset="100%"/></linearGradient><linearGradient x1="21.833%" y1="0%" x2="91.878%" y2="119.354%" id="k"><stop stop-color="#66E4D5" offset="0%"/><stop stop-color="#36C5AB" offset="100%"/></linearGradient></defs><g fill="none" fill-rule="evenodd"><path d="M114.793 32.99c.01.03.017.062.026.093l.023.095c.008.032.016.064.022.096.007.032.015.064.02.097a5.166 5.166 0 0 1 .086.57 5.796 5.796 0 0 1 .03.602v30.913a5.674 5.674 0 0 1-.015.43 5.177 5.177 0 0 1-.011.14l-.007.069-.007.07-.009.068-.01.068a5.41 5.41 0 0 1-.224.964 4.703 4.703 0 0 1-.378.844c-.149.26-.32.496-.51.707a3.69 3.69 0 0 1-1.037.805 3.362 3.362 0 0 1-1.075.342l-.108.015-.11.01a6.593 6.593 0 0 1-.22.011l-.112.001-.112-.003a3.86 3.86 0 0 1-.628-.08 3.949 3.949 0 0 1-.173-.04L91.49 65.135a2.043 2.043 0 0 1-.52-.212 2.672 2.672 0 0 1-.474-.35 3.586 3.586 0 0 1-.424-.469 4.444 4.444 0 0 1-.364-.566 6.454 6.454 0 0 1-.298-.646l-.031-.085-.031-.086-.03-.088c-.01-.03-.02-.059-.028-.089a6.263 6.263 0 0 1-.266-1.36l-.005-.05-.003-.05a9.54 9.54 0 0 1-.009-.147l-.004-.1-.002-.1-.001-.099V39.363c0-.534.067-1.057.189-1.546.121-.491.298-.95.519-1.355.222-.407.488-.76.788-1.034.302-.277.638-.473.994-.563l18.764-4.743a3.96 3.96 0 0 1 1.025-.122l.11.004a6.593 6.593 0 0 1 .22.018c.036.004.072.008.108.014l.107.017a3.48 3.48 0 0 1 .696.202l.082.034.08.036.08.038a1.99 1.99 0 0 1 .172.093 2.979 2.979 0 0 1 .185.114l.09.06a2.535 2.535 0 0 1 .219.169l.105.09.102.097.054.052.054.054.052.055.052.057.084.1.069.086c.021.026.04.05.058.075l.052.07.043.062c.015.02.029.041.043.063l.042.063.04.064a4.36 4.36 0 0 1 .294.57 5.04 5.04 0 0 1 .221.633" stroke-opacity=".2" stroke="#A8A0FB" stroke-width=".2" fill-opacity=".1" fill="#CACAF1" stroke-linecap="square"/><path d="M100.714 25.335c.013.045.023.09.035.136l.033.137.03.14a7.812 7.812 0 0 1 .147.968 8.792 8.792 0 0 1 .041.872v44.823a8.611 8.611 0 0 1-.02.623l-.016.204-.01.1-.01.1c-.004.033-.007.067-.012.1l-.013.099a8.156 8.156 0 0 1-.311 1.398c-.14.437-.317.846-.523 1.223a5.996 5.996 0 0 1-.706 1.025 5.195 5.195 0 0 1-1.239 1.056 5.642 5.642 0 0 1-.4.214 4.702 4.702 0 0 1-1.138.37 3.955 3.955 0 0 1-.297.045l-.152.015-.152.01a4.704 4.704 0 0 1-.154.006l-.154.001-.156-.005a5.106 5.106 0 0 1-.869-.115 5.26 5.26 0 0 1-.24-.058l-25.98-6.877a2.758 2.758 0 0 1-.72-.309 3.715 3.715 0 0 1-.657-.507 5.123 5.123 0 0 1-.587-.68 6.489 6.489 0 0 1-.616-1.044 9.56 9.56 0 0 1-.3-.713l-.044-.123-.042-.126-.042-.127a9.416 9.416 0 0 1-.414-2.173l-.004-.071a14.477 14.477 0 0 1-.012-.215l-.006-.143-.002-.146-.002-.144V34.576c0-.774.093-1.532.261-2.241a8.464 8.464 0 0 1 .72-1.965c.307-.59.675-1.102 1.09-1.499.418-.401.883-.686 1.377-.817l25.98-6.876A5.276 5.276 0 0 1 95.693 21h.154l.154.005a8.721 8.721 0 0 1 .304.026c.05.006.1.012.149.02a4.628 4.628 0 0 1 1.113.317l.112.05.111.052.11.056a6.643 6.643 0 0 1 .368.215 4.173 4.173 0 0 1 .252.173 5.345 5.345 0 0 1 .59.514l.075.076.074.078.073.08.07.082c.045.054.082.102.117.146.036.045.068.086.096.124.03.038.055.074.081.11l.072.102.06.09c.02.029.04.059.058.09.02.03.04.06.058.091.02.031.038.063.057.094a6.412 6.412 0 0 1 .406.825 7.522 7.522 0 0 1 .307.918" stroke-opacity=".2" stroke="#A8A0FB" stroke-width=".2" fill-opacity=".15" fill="#CACAF1" stroke-linecap="square"/><path d="M86.215 79.914a11.506 11.506 0 0 1-.013.567 10.859 10.859 0 0 1-.049.69l-.014.137-.007.067-.008.067-.017.134c-.089.667-.231 1.303-.42 1.9a9.619 9.619 0 0 1-.706 1.665c-.277.51-.596.978-.952 1.396a7.175 7.175 0 0 1-1.413 1.277 6.046 6.046 0 0 1-.798.462c-.054.027-.109.051-.163.077l-.166.071-.166.067-.169.063-3.153 1.104.072-.028a4.238 4.238 0 0 0 .335-.14 5.12 5.12 0 0 0 .439-.22 7.655 7.655 0 0 0 .53-.326 7.1 7.1 0 0 0 1.424-1.305c.359-.428.68-.906.962-1.431.281-.526.52-1.099.712-1.71.19-.614.334-1.267.424-1.954l.018-.139.015-.137.028-.28c.008-.095.015-.19.02-.285a11.59 11.59 0 0 0 .029-.871V18.205a13.236 13.236 0 0 0-.218-2.376l-.038-.196-.042-.194-.044-.193-.048-.19a11.337 11.337 0 0 0-.418-1.282 10.138 10.138 0 0 0-.552-1.153l-.078-.13-.038-.065-.12-.19-.083-.125c-.031-.048-.063-.095-.098-.143a5.692 5.692 0 0 0-.239-.326l-.158-.203a8.468 8.468 0 0 1-.097-.115l-.1-.112-.1-.109-.102-.107a10.07 10.07 0 0 0-.193-.194 7.325 7.325 0 0 0-.611-.524c-.055-.042-.112-.083-.17-.124l-.085-.06-.087-.058c-.057-.04-.116-.076-.175-.113l-.178-.106a6.019 6.019 0 0 0-.148-.082l-.15-.077-.151-.072-.153-.069-.056-.024-.056-.024-.11-.045-.058-.022-.035-.014 1.491.522 1.625.57c.038.015.075.027.113.041.037.014.075.028.112.044l.112.044.108.047.153.068.15.073.148.074.147.08c.06.035.12.07.177.106l.175.11.17.116.169.121a7.06 7.06 0 0 1 .795.703l.102.105.099.107.098.11c.034.037.065.074.097.111l.158.2c.047.06.09.115.129.168.04.052.074.1.108.15.034.046.066.092.097.14l.041.06.04.06c.028.041.053.082.08.124.026.04.053.083.077.125.027.042.051.084.077.127a8.967 8.967 0 0 1 .547 1.123c.082.199.155.401.225.61.069.208.132.421.19.638l.047.185.044.186.041.19a11.72 11.72 0 0 1 .198 1.315 13.506 13.506 0 0 1 .055 1.183v60.79z" fill="#AC9AD4"/><path d="M48.62 6.057c.017.063.03.126.047.19l.044.191c.015.064.03.13.042.195.013.065.027.13.038.196a11.179 11.179 0 0 1 .162 1.157 13.449 13.449 0 0 1 .056 1.219v62.627a12.348 12.348 0 0 1-.013.584 21.368 21.368 0 0 1-.036.571l-.014.14-.013.141c-.006.046-.01.092-.017.138l-.017.139c-.09.687-.233 1.339-.425 1.953a9.894 9.894 0 0 1-.711 1.71 8.388 8.388 0 0 1-.961 1.432 7.15 7.15 0 0 1-1.687 1.475 7.628 7.628 0 0 1-.543.299 6.295 6.295 0 0 1-1.549.517 5.257 5.257 0 0 1-.203.033 3.862 3.862 0 0 1-.203.03c-.07.006-.138.015-.207.02l-.207.016a6.24 6.24 0 0 1-.21.007l-.21.001-.211-.006a6.775 6.775 0 0 1-.856-.096 7.006 7.006 0 0 1-.653-.146l-35.37-9.61a3.705 3.705 0 0 1-.978-.43 5.076 5.076 0 0 1-.896-.71 7.11 7.11 0 0 1-.799-.949 9.112 9.112 0 0 1-.686-1.146 12.933 12.933 0 0 1-.152-.313 13.53 13.53 0 0 1-.144-.323 12.924 12.924 0 0 1-.265-.673l-.06-.172-.057-.175a8.071 8.071 0 0 1-.11-.357 13.432 13.432 0 0 1-.502-2.758c-.002-.032-.004-.065-.008-.099-.002-.034-.005-.066-.006-.1a10.897 10.897 0 0 1-.016-.3c-.004-.066-.006-.134-.008-.2-.001-.068-.004-.136-.004-.204L0 62.07V18.969c0-1.083.126-2.142.356-3.132.228-.995.562-1.926.978-2.744.42-.826.92-1.541 1.485-2.095.57-.561 1.203-.96 1.875-1.142L40.062.248a7.029 7.029 0 0 1 1.51-.241A8.398 8.398 0 0 1 41.994 0l.209.007a11.572 11.572 0 0 1 .414.036c.067.01.136.018.203.03.069.009.136.021.203.033a6.16 6.16 0 0 1 1.312.41l.153.07a8.936 8.936 0 0 1 .3.149c.05.025.1.053.149.081a8.99 8.99 0 0 1 .353.218 5.673 5.673 0 0 1 .342.243 7.325 7.325 0 0 1 .611.525c.065.063.128.127.193.194l.102.106c.033.036.067.072.1.11l.1.111c.031.039.064.076.096.115.06.074.111.142.16.204l.13.172.11.153.097.144.082.124c.027.041.054.083.08.126.027.042.053.086.079.129.025.043.05.087.077.13a10.138 10.138 0 0 1 .97 2.435" fill="url(#a)" transform="translate(34 9)"/><path d="M31.821 30.744l3.69 2.878c.145.112.273.244.387.391.114.147.212.31.292.484a2.705 2.705 0 0 1 .241.939l.007.198v5.336c0 .2-.022.392-.064.574a2.206 2.206 0 0 1-.184.51c-.08.156-.178.296-.292.417-.114.12-.242.22-.386.298l-3.69 2.03-.083.04-.042.018-.041.016a1.053 1.053 0 0 1-.171.051l-1.709.383-1.657.37.036-.012.085-.028c.029-.01.057-.023.084-.035l.083-.04v-.002l3.722-2.08 2.758-.582-2.758.581c.145-.078.276-.18.39-.305.115-.124.214-.27.295-.43.08-.162.143-.339.185-.527.043-.189.066-.389.066-.595v-5.527c0-.206-.023-.41-.066-.61a2.835 2.835 0 0 0-.185-.57 2.598 2.598 0 0 0-.295-.5 2.21 2.21 0 0 0-.39-.407l-3.722-2.99 3.414-.274zm-20.326 2.885l-1.131.848v2.977h-.001l-.004.158a2.507 2.507 0 0 1-.036.305 2.09 2.09 0 0 1-.121.415 1.524 1.524 0 0 1-.19.343 1.15 1.15 0 0 1-.16.178l-.092.071-2.417 1.734a1.344 1.344 0 0 1-.187.093.855.855 0 0 1-.167.045l-3.435.501a.623.623 0 0 0 .08-.018c.028-.008.057-.016.086-.028a.86.86 0 0 0 .09-.04l.096-.054 2.406-1.772c.093-.067.177-.153.25-.255.074-.103.137-.22.189-.352a2.15 2.15 0 0 0 .12-.426c.028-.153.04-.313.04-.478v-3.062l1.129-.87 3.455-.313zm18.123 2.926v1.935l1.34 1.14-3.42.58-1.349-1.187v-2l3.43-.468zM18.66 38.747l-.03.02-.015.009-.044.027-.031.017-3.466.496c.01-.005.02-.01.03-.017l.03-.019a.22.22 0 0 0 .03-.019l.03-.02 3.466-.494zm5.799-3.84l-5.8 3.84-3.466.494 5.812-3.94 3.454-.395zm6.498.815l-1.34.833-3.428.467 1.348-.856 3.42-.444zm-25.07-.144l.885.903-3.433.38-.881-.931 3.429-.351v-.001zm.886-2.274l-.886.699v1.575l-3.43.352v-1.618l.002-.001.88-.715 3.434-.292zm7.38-14.827l3.466.13-4.7 3.958v7.566l4.7 4.258-3.467.355-4.693-4.397v-7.79l4.693-4.08zm8.642 2.884l3.447.046.007.205v9.397l1.49 1.211-3.441.316-1.496-1.255v-9.71l-.007-.21zM6.754 28.984l.02.001a.708.708 0 0 1 .232.05c.026.01.052.021.077.033l.027.014.026.015.013.007.013.008.027.017.01.008.034.021.01.009.033.024 1.729 1.63-3.446.227-1.72-1.679a.234.234 0 0 0-.021-.016.326.326 0 0 0-.022-.017c-.007-.006-.015-.01-.021-.016l-.023-.015-.026-.017a.233.233 0 0 0-.026-.017l-.026-.014-.027-.015a1.223 1.223 0 0 0-.075-.033.575.575 0 0 0-.077-.025.676.676 0 0 0-.154-.028H3.28l3.413-.172h.06zm8.987-14.532l3.466.253 5.853 4.248.003.001c.17.124.326.274.465.446.139.173.26.367.362.578.1.21.183.44.243.678.06.24.097.492.109.75l-3.447-.046a4.245 4.245 0 0 0-.11-.775 3.741 3.741 0 0 0-.244-.7 3.06 3.06 0 0 0-.364-.597 2.508 2.508 0 0 0-.466-.459h-.002l-5.868-4.377zM14.57.026L17.988.7a1.32 1.32 0 0 1 .159.046l.062.027.022.01.04.022a.338.338 0 0 1 .042.024l2.955 1.805c.112.07.215.162.305.27.09.11.168.236.233.375A2.318 2.318 0 0 1 22 4.07l.006.177v4.755h-.001L22 9.18a2.676 2.676 0 0 1-.194.846 2.438 2.438 0 0 1-.233.435c-.06.089-.126.17-.197.245l-.109.107-2.06 1.807v2.085l-3.466-.253v-2.149l2.064-1.871c.112-.105.215-.227.306-.365.089-.136.169-.288.233-.449a2.818 2.818 0 0 0 .195-.873l.006-.185V3.652c0-.183-.018-.36-.053-.528a2.256 2.256 0 0 0-.148-.469 1.81 1.81 0 0 0-.233-.385 1.31 1.31 0 0 0-.306-.278L14.847.148l-.041-.025-.042-.022-.042-.02-.042-.018-.06-.02-.04-.012-.011-.005zm-1.494 5.968l3.466.497v1.736l1.078.74-3.467-.426-1.077-.758V5.994zm1.077-1.065l3.467.533-1.078 1.029-3.466-.497 1.077-1.065z" fill="url(#b)" opacity=".8" transform="translate(41 25)"/><path d="M13.075 5.994v1.79l1.077.757 1.099-1.052V5.665l-1.099-.736-1.077 1.065zm15.839 33.384v-2.044l-1.377-1.168-1.348.856v2l1.348 1.187 1.377-.83zM4.235 36.161v-1.646l-.896-.919-.881.715v1.62l.881.93.896-.7zm15.031-5.128v-8.5l-5.114-4.057-4.693 4.08v7.791l4.693 4.397 5.114-3.71zm12.863 2.975c.144.116.275.253.389.406.116.152.214.321.295.501a2.885 2.885 0 0 1 .251 1.18v5.527c0 .206-.022.406-.065.595a2.275 2.275 0 0 1-.186.526 1.835 1.835 0 0 1-.295.431 1.499 1.499 0 0 1-.389.305l-3.722 2.081c-.06.033-.12.06-.183.081a1.26 1.26 0 0 1-.576.071c-.083-.018-.153-.033-.212-.048a2.023 2.023 0 0 1-.256-.08.945.945 0 0 1-.138-.07 1.11 1.11 0 0 1-.107-.065l-.052-.035c-.018-.013-.036-.025-.052-.038l-.052-.04-.051-.042-.049-.044-3.421-3.178a2.103 2.103 0 0 1-.337-.393 2.628 2.628 0 0 1-.252-.479 2.917 2.917 0 0 1-.157-.535 2.876 2.876 0 0 1-.055-.564v-3.514l-1.452-1.286-5.812 3.94-.029.02-.03.02-.03.018-.03.017c-.442-.049-.774-.086-1.024-.116a17.963 17.963 0 0 1-.533-.069 2.298 2.298 0 0 1-.212-.039c-.035-.01-.044-.018-.053-.026l-.128-.125-5.084-4.999-1.128.87v3.062c0 .165-.014.325-.041.477a2.14 2.14 0 0 1-.12.427 1.636 1.636 0 0 1-.189.352 1.127 1.127 0 0 1-.251.255l-2.406 1.772a1.217 1.217 0 0 1-.158.083.776.776 0 0 1-.277.063.613.613 0 0 1-.129-.01l-.037-.009-.037-.01-.036-.01-.036-.013a1.052 1.052 0 0 1-.317-.199 1.315 1.315 0 0 1-.1-.098L.53 38.468a1.704 1.704 0 0 1-.221-.312 2.391 2.391 0 0 1-.167-.384A2.793 2.793 0 0 1 0 36.883v-4.135a2.601 2.601 0 0 1 .142-.852c.046-.125.103-.24.167-.34.066-.103.139-.19.221-.263l2.248-1.937.033-.026a.343.343 0 0 1 .033-.024.405.405 0 0 1 .068-.043.38.38 0 0 1 .034-.02l.035-.017.034-.015.037-.014.035-.012a.945.945 0 0 1 .036-.009l.036-.008.036-.006.036-.004.036-.003h.037l.037.001a.706.706 0 0 1 .154.027.758.758 0 0 1 .179.074l.026.014a.156.156 0 0 1 .025.017l.027.017c.008.004.014.01.022.015l.022.016.021.016a.326.326 0 0 1 .022.017l1.719 1.68 1.094-.899v-8.413c0-.233.019-.463.055-.684.036-.222.09-.435.159-.636.069-.2.154-.389.254-.56.1-.172.213-.325.339-.458l.104-.104 5.038-4.613v-2.089l-1.878-1.406a1.274 1.274 0 0 1-.253-.255 1.657 1.657 0 0 1-.196-.334 2.284 2.284 0 0 1-.195-.84V5.043a2.95 2.95 0 0 1 .171-.988c.055-.155.123-.3.203-.433.079-.134.17-.255.27-.359L13.467.425a1.915 1.915 0 0 1 .151-.14l.05-.04c.015-.013.029-.022.044-.032a.947.947 0 0 1 .216-.122A1 1 0 0 1 14.15.02c.015-.004.029-.005.044-.008l.045-.006c.016 0 .03-.003.045-.004L14.329 0a.92.92 0 0 1 .35.063c.015.005.029.012.042.018.015.006.029.013.042.02a1.49 1.49 0 0 1 .083.047l2.958 1.844c.113.072.215.166.306.277.09.113.169.243.234.386.064.144.114.301.148.47.034.167.053.344.053.527V8.56a2.926 2.926 0 0 1-.201 1.06 2.54 2.54 0 0 1-.234.448c-.091.138-.193.26-.306.364l-2.063 1.872v2.15l5.868 4.375c.172.128.328.283.468.46.14.178.262.378.363.596.103.218.185.453.244.701.06.248.098.508.111.775l.007.211v9.71l1.496 1.255 2.381-1.63 1.728.111 3.722 2.991z" fill="url(#c)" transform="translate(41 25)"/><path d="M49.714 25.335c.013.045.023.09.035.136l.033.137.03.14a7.812 7.812 0 0 1 .147.968 8.792 8.792 0 0 1 .041.872v44.823a8.611 8.611 0 0 1-.02.623l-.016.204-.01.1-.01.1c-.004.033-.007.067-.012.1l-.013.099a8.156 8.156 0 0 1-.311 1.398c-.14.437-.317.846-.523 1.223a5.996 5.996 0 0 1-.706 1.025 5.195 5.195 0 0 1-1.239 1.056 5.642 5.642 0 0 1-.4.214 4.702 4.702 0 0 1-1.138.37 3.955 3.955 0 0 1-.297.045l-.152.015-.152.01a4.704 4.704 0 0 1-.154.006l-.154.001-.156-.005a5.106 5.106 0 0 1-.869-.115 5.26 5.26 0 0 1-.24-.058l-25.98-6.877a2.758 2.758 0 0 1-.72-.309 3.715 3.715 0 0 1-.657-.507 5.123 5.123 0 0 1-.587-.68 6.489 6.489 0 0 1-.616-1.044 9.56 9.56 0 0 1-.105-.231 9.102 9.102 0 0 1-.194-.482c-.016-.04-.03-.083-.045-.123l-.042-.126-.042-.127a9.416 9.416 0 0 1-.408-2.102l-.005-.07-.005-.072-.005-.072a7.6 7.6 0 0 1-.007-.143l-.006-.143-.002-.146-.002-.144V34.576c0-.774.093-1.532.261-2.241a8.464 8.464 0 0 1 .72-1.965c.307-.59.675-1.102 1.09-1.499.418-.401.883-.686 1.377-.817l25.98-6.876A5.276 5.276 0 0 1 44.693 21h.154l.154.005a8.721 8.721 0 0 1 .304.026c.05.006.1.012.149.02a4.628 4.628 0 0 1 1.113.317l.112.05a6.642 6.642 0 0 1 .221.108 6.643 6.643 0 0 1 .368.215 4.173 4.173 0 0 1 .252.173 5.345 5.345 0 0 1 .59.514l.075.076.074.078.073.08.07.082c.045.054.082.102.117.146.036.045.068.086.096.124.03.038.055.074.081.11l.072.102.06.09c.02.029.04.059.058.09.02.03.04.06.058.091.02.031.038.063.057.094a6.412 6.412 0 0 1 .406.825 7.522 7.522 0 0 1 .307.918" stroke-opacity=".2" stroke="#A8A0FB" stroke-width=".2" fill-opacity=".2" fill="#CACAF1" stroke-linecap="square"/><g><g transform="translate(95 50)"><use fill="#000" filter="url(#d)" xlink:href="#e"/><use fill="#D8D5F6" xlink:href="#e"/></g><path d="M1.21 12.126C.594 10.874.233 9.356.233 7.718c0-1.996.538-3.816 1.42-5.187a7.14 7.14 0 0 1 .37-.525C2.994.76 4.282-.002 5.692-.002c1.158 0 2.232.512 3.117 1.383.107.106.213.217.315.333.024.028.048.054.071.083 1.2 1.416 1.963 3.545 1.963 5.92 0 4.267-2.448 7.731-5.466 7.731-1.68 0-3.185-1.08-4.188-2.776l-.057-.101a8.28 8.28 0 0 1-.236-.445" fill="url(#f)" transform="translate(95 50)"/><path d="M3.84 6.068a.427.427 0 0 0-.089.132.578.578 0 0 0-.045.167l-.002.066.002.063v.378l.284-.005.05.003.045-.004 2.861-.047a.088.088 0 0 1 .07.035.146.146 0 0 1 .03.086v.616c0 .102-.017.2-.047.288a.768.768 0 0 1-.13.234.598.598 0 0 1-.188.156.48.48 0 0 1-.229.055l-2.746-.045v.38l-.002.067v.03l.002.033a.632.632 0 0 0 .076.226.363.363 0 0 0 .018.025l.017.023.02.022.03.028c.01.008.02.017.032.023a.365.365 0 0 0 .07.035.254.254 0 0 0 .017.004l.018.004.017.002.019.001a.35.35 0 0 0 .055-.003.222.222 0 0 0 .019-.003l3.364.126a.534.534 0 0 1 .24.068c.074.04.141.098.198.169.056.07.103.154.135.245.031.092.049.192.049.297v.633a.127.127 0 0 1-.032.087.103.103 0 0 1-.033.025.08.08 0 0 1-.04.007l-3.955-.277a1.167 1.167 0 0 1-.334-.078 1.291 1.291 0 0 1-.34-.205c-.104-.087-.199-.19-.282-.308a1.976 1.976 0 0 1-.213-.389A2.277 2.277 0 0 1 2.7 8.66v-2.2c0-.037 0-.074.002-.111.002-.036.004-.073.008-.109a2.562 2.562 0 0 1 .028-.212c.03-.16.075-.311.133-.453.058-.141.13-.272.213-.39.083-.117.178-.22.282-.306a1.26 1.26 0 0 1 .504-.256.987.987 0 0 1 .17-.026l3.956-.277a.094.094 0 0 1 .073.032.131.131 0 0 1 .032.087l-.001.63a.919.919 0 0 1-.05.297.84.84 0 0 1-.134.247.67.67 0 0 1-.198.17.535.535 0 0 1-.24.068l-3.488.13a.263.263 0 0 0-.117.057.338.338 0 0 0-.034.03" fill="url(#g)" transform="translate(95 50)"/></g><g><g transform="translate(18 25)"><use fill="#000" filter="url(#h)" xlink:href="#i"/><use fill="#D8D5F6" xlink:href="#i"/></g><path d="M.58 7.63C.213 6.842 0 5.887 0 4.857 0 3.6.32 2.456.842 1.593c.07-.115.143-.225.22-.33C1.637.48 2.401 0 3.238 0c.687 0 1.324.322 1.849.87.063.066.126.137.187.21l.042.052c.71.89 1.164 2.23 1.164 3.725 0 2.684-1.452 4.863-3.242 4.863-.997 0-1.89-.68-2.485-1.747L.72 7.91a5.323 5.323 0 0 1-.14-.28" fill="url(#j)" transform="translate(18 25)"/><path d="M1.874 4.055a.34.34 0 0 0-.056.159l-.002.044.002.042v.252l.19-.003.033.001.03-.002 1.907-.031a.059.059 0 0 1 .047.023.098.098 0 0 1 .02.058v.41a.59.59 0 0 1-.032.192.512.512 0 0 1-.086.156.398.398 0 0 1-.126.104.32.32 0 0 1-.152.036l-1.831-.03v.254l-.002.044v.02l.002.022a.421.421 0 0 0 .051.152.242.242 0 0 0 .011.016l.012.015.013.015a.5.5 0 0 0 .02.019l.021.015a.244.244 0 0 0 .047.023.17.17 0 0 0 .012.003c.004 0 .008.002.011.003l.012.001h.013l.012.001h.012a.258.258 0 0 0 .025-.005l2.243.085c.056.002.11.017.16.045.05.027.094.065.132.112a.552.552 0 0 1 .09.164.609.609 0 0 1 .032.198v.422a.085.085 0 0 1-.021.058.069.069 0 0 1-.022.016.053.053 0 0 1-.026.005L2.04 6.985a.778.778 0 0 1-.45-.19 1.075 1.075 0 0 1-.188-.204 1.317 1.317 0 0 1-.142-.26 1.518 1.518 0 0 1-.114-.589V4.276a1.792 1.792 0 0 1 .026-.288c.02-.106.05-.208.088-.302.039-.094.087-.182.142-.26.056-.078.12-.147.189-.204a.84.84 0 0 1 .335-.171.658.658 0 0 1 .114-.017l2.637-.185a.062.062 0 0 1 .048.021.087.087 0 0 1 .021.058v.42c0 .07-.012.137-.033.198a.56.56 0 0 1-.09.165.446.446 0 0 1-.131.114.357.357 0 0 1-.16.045l-2.326.087a.175.175 0 0 0-.078.038.285.285 0 0 0-.055.06z" fill="url(#k)" transform="translate(18 25)"/></g><path d="M30.793 32.99c.01.03.017.062.026.093l.023.095c.008.032.016.064.022.096.007.032.015.064.02.097a5.166 5.166 0 0 1 .086.57 5.794 5.794 0 0 1 .03.602v30.913a5.671 5.671 0 0 1-.015.43 5.175 5.175 0 0 1-.011.14l-.007.069-.007.07-.009.068-.01.068a5.41 5.41 0 0 1-.224.964 4.702 4.702 0 0 1-.378.844c-.149.26-.32.496-.51.707a3.69 3.69 0 0 1-1.037.805 3.362 3.362 0 0 1-1.075.342l-.108.015-.11.01a6.592 6.592 0 0 1-.22.011l-.112.001-.112-.003a3.86 3.86 0 0 1-.628-.08 3.949 3.949 0 0 1-.173-.04L7.49 65.135a2.043 2.043 0 0 1-.52-.212 2.672 2.672 0 0 1-.474-.35 3.586 3.586 0 0 1-.424-.469 4.444 4.444 0 0 1-.445-.72 6.454 6.454 0 0 1-.217-.492l-.031-.085-.031-.086-.03-.088c-.01-.03-.02-.059-.028-.089a6.263 6.263 0 0 1-.266-1.36l-.005-.05-.003-.05a9.54 9.54 0 0 1-.009-.147l-.004-.1-.002-.1L5 60.638V39.363c0-.534.067-1.057.189-1.546.121-.491.298-.95.519-1.355.222-.407.488-.76.788-1.034.302-.277.638-.473.994-.563l18.764-4.743A3.96 3.96 0 0 1 27.279 30l.11.004a6.592 6.592 0 0 1 .22.018c.036.004.072.008.108.014l.107.017a3.48 3.48 0 0 1 .696.202l.082.034.08.036.08.038.078.04a4.858 4.858 0 0 1 .187.108l.092.059.09.06a2.535 2.535 0 0 1 .219.169l.105.09.102.097.054.052.054.054.052.055.052.057.084.1.069.086c.021.026.04.05.058.075l.052.07.043.062c.015.02.029.041.043.063l.042.063.04.064a4.36 4.36 0 0 1 .294.57 5.04 5.04 0 0 1 .221.633" stroke-opacity=".2" stroke="#A8A0FB" stroke-width=".2" fill-opacity=".1" fill="#CACAF1" stroke-linecap="square"/></g></svg>
