<svg id="_1" xmlns="http://www.w3.org/2000/svg" viewBox="0 0 100 100"><style>.st1{opacity:.8;fill:none;stroke:#fbf8ff;stroke-width:.51;enable-background:new}</style><linearGradient id="Path_6_" gradientUnits="userSpaceOnUse" x1="-343.119" y1="443.341" x2="-344.339" y2="443.762" gradientTransform="matrix(73.3637 0 0 -50.2649 25268.947 22367.523)"><stop offset="0" stop-color="#fff"/><stop offset="1" stop-color="#ab9be6"/></linearGradient><path id="Path" d="M14 68c.1-5.4 3.7-10.7 10.8-14.8 14.4-8.2 37.6-8.2 51.9 0 7.2 4.1 10.7 9.5 10.7 14.9V75c.1 5.8-3.1 11.7-10.8 16.1-14.4 8.2-37.6 8.3-51.9.1C16.9 86.8 13.9 81.1 14 75v-7z" fill="url(#Path_6_)"/><path id="Path_1_" class="st1" d="M74.2 89.6v3.2"/><linearGradient id="Path_7_" gradientUnits="userSpaceOnUse" x1="-275.142" y1="385.072" x2="-274.152" y2="383.686" gradientTransform="matrix(4.7327 0 0 -5.2906 1374.43 2124.033)"><stop offset="0" stop-color="#33c3ca"/><stop offset="1" stop-color="#2bbfc5"/></linearGradient><path id="Path_2_" d="M71.7 92.3c1-.5 1.8-.8 2.4-1.2s1.3-.8 2.4-1.6V87l-2.7 1.8c-.6.4-1.3.7-2 .9v2.6z" fill="url(#Path_7_)"/><path id="Path_3_" class="st1" d="M27.2 89.6v3.2"/><linearGradient id="Path_8_" gradientUnits="userSpaceOnUse" x1="-422.627" y1="385.072" x2="-421.638" y2="383.686" gradientTransform="matrix(-4.7327 0 0 -5.2906 -1970.96 2124.033)"><stop offset="0" stop-color="#33c3ca"/><stop offset="1" stop-color="#2bbfc5"/></linearGradient><path id="Path_4_" d="M29.7 92.3c-1-.5-1.8-.8-2.4-1.2s-1.3-.8-2.3-1.6V87l2.7 1.8c.6.4 1.3.7 2 .9v2.6z" fill="url(#Path_8_)"/><linearGradient id="Path_9_" gradientUnits="userSpaceOnUse" x1="-344.243" y1="442.19" x2="-343.243" y2="442.19" gradientTransform="matrix(73.3584 0 0 -41.9996 25267.106 18639.885)"><stop offset="0" stop-color="#6a549e"/><stop offset="1" stop-color="#896cbf"/></linearGradient><path id="Path_5_" d="M24.7 82.9c14.3 8.2 37.5 8.1 51.9-.1 14.4-8.2 14.4-21.5.2-29.7-14.4-8.1-37.6-8.1-51.9.1-14.4 8.3-14.5 21.6-.2 29.7z" fill="url(#Path_9_)"/><path id="Path-Copy" d="M29.3 79.7c12.4 6.9 31.6 7 44.1 0s12.6-18.3.1-25.2c-12.4-6.9-31.6-7-44.1 0s-12.5 18.3-.1 25.2z" opacity=".2" fill="none" stroke="#fff" stroke-width=".529"/><linearGradient id="Path-Copy-3_1_" gradientUnits="userSpaceOnUse" x1="-344.006" y1="444.142" x2="-344.006" y2="445.239" gradientTransform="matrix(77.6597 0 0 -59.6977 26764.71 26599.674)"><stop offset="0" stop-color="#735ba7"/><stop offset="1" stop-color="#fff" stop-opacity="0"/></linearGradient><path id="Path-Copy-3" d="M20.1 67.4S16.9 53.3 10.5 25h77.7c-3.8 28.3-5.7 42.4-5.6 42.4 0 7.9-11.5 17.3-31.3 17.3s-30.5-9.2-31.2-17.3z" opacity=".4" fill="url(#Path-Copy-3_1_)"/><linearGradient id="Path-13_1_" gradientUnits="userSpaceOnUse" x1="-338.97" y1="442.73" x2="-340.387" y2="441.151" gradientTransform="matrix(39.9702 0 0 -40.8785 13630.548 18112.17)"><stop offset="0" stop-color="#fff" stop-opacity="0"/><stop offset=".517" stop-color="#31c2c9"/><stop offset="1" stop-color="#fff" stop-opacity="0"/></linearGradient><path id="Path-13" opacity=".135" fill="url(#Path-13_1_)" d="M30 40.1l2.2-1.9h2.6l5.4-5.9v-3.5l2.1-3.8 3.7.9 19.4 3.7 4.2 3 .3 28.7-2.2 3L51 65.8l-15-.7-3.1-3.2z"/><linearGradient id="Networking_1_" gradientUnits="userSpaceOnUse" x1="-340.677" y1="442.956" x2="-339.502" y2="441.57" gradientTransform="matrix(42 0 0 -43.089 14338 19108.15)"><stop offset="0" stop-color="#33c3ca"/><stop offset="1" stop-color="#2bbfc5"/></linearGradient><path id="Networking" d="M65 39c-1.1 0-2-.3-2.8-.9l-6.9 7c.4.9.7 1.9.7 2.9 0 1.1-.3 2.2-.9 3.1l8.9 7.2c.7-.8 1.8-1.3 2.9-1.3 2.2 0 4 1.8 4 4s-1.8 4-4 4-4-1.8-4-4c0-.3 0-.6.1-.9l-9.3-7.5c-1 .9-2.4 1.4-3.8 1.4s-2.6-.5-3.7-1.3l-4.8 6.4c.2.4.3.9.4 1.4l5.3 1c.6-1.5 2-2.5 3.7-2.5 2.2 0 4 1.8 4 4s-1.8 4-4 4c-2 0-3.7-1.5-3.9-3.5l-5.3-1c-.6 2-2.5 3.5-4.7 3.5-2.8 0-5-2.2-5-5s2.2-5 5-5c1.4 0 2.6.6 3.5 1.5l4.5-6.1c-.6-1-1-2.1-1-3.4 0-2.2 1.2-4.1 3-5.2L43.8 34c-.9 0-1.8-.3-2.5-.8l-4.8 5.9c.3.6.5 1.3.5 2 0 2.2-1.8 4-4 4s-4-1.8-4-4 1.8-4 4-4c.8 0 1.5.2 2.1.6l4.8-5.8c-.6-.9-.9-1.8-.9-2.9 0-2.8 2.2-5 5-5s5 2.2 5 5c0 2.1-1.3 3.9-3.2 4.7l3 8.5c.4-.1.8-.1 1.1-.1 1.6 0 3 .6 4.1 1.6l6.8-6.9C60.3 36 60 35 60 34c0-2.8 2.2-5 5-5s5 2.2 5 5-2.2 5-5 5zm2 24.1c1.1 0 2-.9 2-2s-.9-2-2-2-2 .9-2 2 .9 2 2 2zm-16 2c1.1 0 2-.9 2-2s-.9-2-2-2-2 .9-2 2 .9 2 2 2zm-14-7c-1.7 0-3 1.3-3 3s1.3 3 3 3 3-1.3 3-3-1.3-3-3-3zM33 39c-1.1 0-2 .9-2 2s.9 2 2 2 2-.9 2-2-.9-2-2-2zm14-10c0-1.7-1.3-3-3-3s-3 1.3-3 3 1.3 3 3 3 3-1.3 3-3zm3 15c-2.2 0-4 1.8-4 4s1.8 4 4 4 4-1.8 4-4-1.8-4-4-4zm15-13c-1.7 0-3 1.3-3 3s1.3 3 3 3 3-1.3 3-3c0-1.6-1.3-3-3-3z" fill="url(#Networking_1_)"/></svg>
